<svg width="328" height="240" viewBox="0 0 328 240" fill="none" xmlns="http://www.w3.org/2000/svg">
<g clip-path="url(#clip0_2799_55611)">
<path d="M209.775 43.444L209.691 43.2908L15.132 158.472L15.3518 158.859L15.3517 158.912L15.4424 158.965L163.345 247.404L164.48 247.406L157.082 242.986L174.188 232.837L191.257 243.044L183.853 247.435L184.988 247.436L191.821 243.378L198.642 247.457L199.777 247.459L192.425 243.046L209.524 232.897L226.593 243.097L219.163 247.488L220.298 247.489L227.131 243.431L233.952 247.51L235.087 247.511L227.696 243.099L244.795 232.943L261.871 243.143L254.46 247.54L255.595 247.542L327.342 204.946L327.342 204.613L327.343 204.28L315.441 211.347L298.372 201.16L315.472 191.031L327.352 198.08L327.353 197.414L316.036 190.665L327.373 183.93L327.374 183.264L315.473 190.325L298.403 180.138L315.503 169.995L327.383 177.065L327.384 176.399L316.068 169.65L327.405 162.921L327.406 162.255L315.504 169.316L298.435 159.136L315.534 148.986L327.415 156.069L327.416 155.403L316.099 148.654L327.436 141.919L327.437 141.253L315.535 148.314L298.466 138.133L315.566 127.991L327.446 135.067L327.447 134.401L316.13 127.652L327.467 120.924L327.468 120.258L315.567 127.318L298.498 117.138L315.597 107.002L327.478 114.072L327.479 113.406L209.86 43.311L209.775 43.444ZM192.104 54.3782L209.179 64.552L192.073 74.6812L175.004 64.5008L192.104 54.3782ZM209.618 148.175L192.582 137.988L209.681 127.852L226.751 138.039L209.618 148.175ZM227.288 138.373L244.357 148.56L227.258 158.703L210.189 148.516L227.288 138.373ZM209.054 148.514L191.948 158.65L174.879 148.456L191.978 138.32L209.054 148.514ZM191.979 137.648L174.91 127.461L192.01 117.325L209.085 127.512L191.979 137.648ZM191.415 137.987L174.315 148.116L157.246 137.929L174.345 127.793L191.415 137.987ZM173.763 148.455L156.664 158.591L139.595 148.397L156.694 138.261L173.763 148.455ZM156.099 158.929L138.98 169.059L121.878 158.865L138.978 148.736L156.099 158.929ZM156.663 159.263L173.732 169.457L156.632 179.593L148.098 174.496L139.563 169.399L156.663 159.263ZM157.234 158.931L174.333 148.795L191.403 158.982L174.303 169.125L157.234 158.931ZM191.966 159.323L209.042 169.516L191.936 179.652L174.867 169.459L191.966 159.323ZM192.537 158.984L209.637 148.848L226.706 159.035L209.587 169.178L192.537 158.984ZM227.276 159.375L244.345 169.563L227.246 179.705L210.177 169.518L227.276 159.375ZM227.841 159.037L244.94 148.901L262.016 159.088L244.91 169.23L227.841 159.037ZM244.941 148.222L227.853 138.041L244.952 127.899L262.028 138.086L244.941 148.222ZM227.309 137.701L210.239 127.514L227.339 117.378L244.408 127.565L227.309 137.701ZM209.65 127.18L192.613 116.993L209.713 106.857L226.782 117.044L209.65 127.18ZM192.011 116.652L174.941 106.465L192.041 96.336L209.117 106.523L192.011 116.652ZM191.446 116.991L174.346 127.12L157.277 116.933L174.377 106.804L191.446 116.991ZM173.795 127.459L156.676 137.588L139.606 127.401L156.706 117.272L173.795 127.459ZM156.131 137.927L139.024 148.056L121.91 137.863L139.009 127.733L156.131 137.927ZM138.46 148.395L121.36 158.525L104.291 148.331L121.391 138.202L138.46 148.395ZM120.789 158.863L103.69 168.993L86.6009 158.792L103.701 148.663L120.789 158.863ZM121.359 159.204L138.428 169.397L121.329 179.533L104.26 169.333L121.359 159.204ZM138.992 169.738L156.068 179.932L138.942 190.101L121.847 179.867L138.992 169.738ZM156.631 180.272L173.701 190.466L156.601 200.608L139.532 190.408L156.631 180.272ZM157.202 179.933L174.302 169.797L191.352 179.991L174.252 190.154L157.202 179.933ZM191.935 180.332L209.01 190.525L191.904 200.668L174.835 190.467L191.935 180.332ZM192.506 179.993L209.605 169.85L226.675 180.044L209.556 190.206L192.506 179.993ZM227.245 180.384L244.314 190.571L227.214 200.721L210.139 190.527L227.245 180.384ZM227.809 180.046L244.909 169.903L261.985 180.09L244.859 190.259L227.809 180.046ZM262.548 180.43L279.617 190.618L262.511 200.767L245.442 190.573L262.548 180.43ZM262.549 179.765L245.48 169.578L262.573 159.422L279.642 169.609L262.549 179.765ZM262.581 158.762L245.511 148.575L262.605 138.419L279.674 148.606L262.581 158.762ZM262.612 137.76L245.543 127.58L262.636 117.431L279.705 127.611L262.612 137.76ZM244.973 127.239L227.884 117.046L244.984 106.91L262.059 117.09L244.973 127.239ZM227.34 116.719L210.271 106.538L227.37 96.4022L244.44 106.583L227.34 116.719ZM209.681 106.184L192.644 96.004L209.744 85.8747L226.813 96.0551L209.681 106.184ZM192.042 95.6634L174.973 85.4831L192.072 75.3538L209.148 85.5342L192.042 95.6634ZM191.477 96.0022L174.378 106.131L157.309 95.9444L174.408 85.8152L191.477 96.0022ZM173.826 106.464L156.727 116.593L139.657 106.406L156.757 96.2766L173.826 106.464ZM156.162 116.932L139.043 127.061L121.941 116.867L139.041 106.745L156.162 116.932ZM138.491 127.4L121.392 137.529L104.322 127.329L121.422 117.206L138.491 127.4ZM120.821 137.861L103.721 147.99L86.6518 137.797L103.751 127.667L120.821 137.861ZM103.156 148.329L86.0374 158.458L68.9617 148.258L86.0613 138.129L103.156 148.329ZM85.4663 158.79L68.3667 168.92L51.2975 158.719L68.3971 148.59L85.4663 158.79ZM86.0299 159.131L103.106 169.331L86.0059 179.461L68.9303 169.26L86.0299 159.131ZM103.669 169.672L120.738 179.865L103.639 190.001L86.5695 179.801L103.669 169.672ZM121.308 180.206L138.378 190.406L121.278 200.542L104.209 190.342L121.308 180.206ZM138.941 190.767L156.017 200.96L138.911 211.103L121.816 200.883L138.941 190.767ZM156.58 201.301L173.669 211.461L156.55 221.624L139.481 211.41L156.58 201.301ZM157.151 200.969L174.251 190.82L191.32 201.013L174.221 211.156L157.151 200.969ZM191.884 201.36L208.96 211.514L191.854 221.657L174.784 211.463L191.884 201.36ZM192.455 201.022L209.555 190.872L226.624 201.066L209.524 211.202L192.455 201.022ZM227.194 201.413L244.263 211.567L227.163 221.716L210.088 211.516L227.194 201.413ZM227.758 201.074L244.858 190.925L261.934 201.119L244.828 211.261L227.758 201.074ZM262.497 201.459L279.567 211.62L262.48 221.782L245.398 211.569L262.497 201.459ZM263.062 201.121L280.168 190.978L297.237 201.165L280.138 211.314L263.062 201.121ZM280.169 190.312L263.093 180.125L280.199 169.982L297.269 180.163L280.169 190.312ZM280.2 169.303L263.125 159.123L280.231 148.98L297.3 159.161L280.2 169.303ZM280.232 148.301L263.156 138.121L280.262 127.978L297.332 138.158L280.232 148.301ZM280.263 127.305L263.188 117.125L280.294 106.989L297.363 117.163L280.263 127.305ZM262.637 116.751L245.568 106.571L262.667 96.435L279.737 106.615L262.637 116.751ZM244.998 106.237L227.916 96.0567L245.015 85.9208L262.091 96.1012L244.998 106.237ZM227.365 95.7163L210.289 85.5359L227.395 75.4066L244.465 85.587L227.365 95.7163ZM209.713 85.1954L192.676 75.0151L209.775 64.8924L226.845 75.0662L209.713 85.1954ZM174.44 64.8329L191.509 75.0133L174.409 85.1426L157.34 74.9622L174.44 64.8329ZM156.769 75.2943L173.858 85.4814L156.758 95.604L139.689 85.417L156.769 75.2943ZM139.098 85.7557L156.174 95.9427L139.074 106.065L121.973 95.8783L139.098 85.7557ZM121.434 96.2171L138.503 106.404L121.404 116.533L104.334 106.34L121.434 96.2171ZM103.763 106.678L120.833 116.865L103.733 126.995L86.6638 116.774L103.763 106.678ZM86.0927 117.133L103.168 127.327L86.0688 137.456L68.9931 127.262L86.0927 117.133ZM68.4285 127.595L85.4977 137.795L68.3981 147.918L51.3289 137.717L68.4285 127.595ZM50.7579 138.029L67.8271 148.23L50.7275 158.352L33.6583 148.152L50.7579 138.029ZM15.9876 158.62L33.0677 148.517L50.1434 158.718L33.0373 168.847L15.9876 158.62ZM33.6268 169.161L50.7264 159.038L67.7956 169.239L50.696 179.368L33.6268 169.161ZM51.2661 179.708L68.3657 169.579L85.4349 179.779L68.3353 189.929L51.2661 179.708ZM68.8989 190.249L85.9985 180.12L103.074 190.32L85.9745 200.476L68.8989 190.249ZM86.5381 200.79L103.638 190.714L120.707 200.914L103.607 211.05L86.5381 200.79ZM104.177 211.357L121.277 201.221L138.346 211.408L121.247 221.544L104.177 211.357ZM121.784 221.898L138.884 211.762L155.959 221.963L138.866 232.099L121.784 221.898ZM156.545 242.593L156.596 242.686L139.423 232.419L156.523 222.27L173.638 232.503L156.545 242.593ZM157.088 221.951L174.194 211.808L191.263 222.009L174.163 232.151L157.088 221.951ZM191.796 242.692L174.753 232.505L191.852 222.356L208.928 232.556L191.796 242.692ZM192.398 222.01L209.497 211.861L226.566 222.062L209.493 232.217L192.398 222.01ZM227.106 242.745L210.056 232.558L227.162 222.409L244.232 232.609L227.106 242.745ZM244.77 232.257L227.727 222.077L244.827 211.927L261.902 222.121L244.77 232.257ZM262.332 242.891L262.384 242.798L245.366 232.611L262.479 222.455L279.548 232.655L262.332 242.891ZM280.087 232.343L263.024 222.156L280.13 212.007L297.199 222.194L280.087 232.343ZM314.877 211.673L297.77 221.822L280.701 211.621L297.801 201.472L314.877 211.673ZM314.908 190.657L297.802 200.806L280.733 190.619L297.832 180.47L314.908 190.657ZM314.939 169.648L297.833 179.797L280.764 169.61L297.864 159.468L314.939 169.648ZM314.971 148.646L297.865 158.789L280.796 148.608L297.895 138.466L314.971 148.646ZM315.002 127.644L297.896 137.793L280.827 127.613L297.927 117.47L315.002 127.644ZM315.034 106.655L297.934 116.797L280.865 106.617L297.964 96.4811L315.034 106.655ZM297.401 96.1407L280.295 106.277L263.219 96.1029L280.325 85.9669L297.401 96.1407ZM279.762 85.6265L262.668 95.7624L245.599 85.5887L262.699 75.4528L279.762 85.6265ZM262.116 75.1189L245.016 85.2482L227.947 75.0678L245.047 64.9386L262.116 75.1189ZM244.483 64.6048L227.383 74.734L210.314 64.5536L227.414 54.431L244.483 64.6048ZM209.744 64.2199L192.707 54.0395L209.807 43.9169L226.876 54.0906L209.744 64.2199Z" fill="url(#paint0_linear_2799_55611)"/>
<path d="M213.432 71.2623L222.986 76.7819V65.8229L213.432 60.3033V71.2623ZM213.432 132.962L222.986 138.481V127.509L213.432 122.023V132.962ZM202.674 65.0535L212.234 70.5732V59.6008L202.674 54.0811V65.0535ZM202.674 77.3907L212.234 82.9104V71.9447L202.674 66.4251V77.3907ZM202.674 89.7347L212.234 95.261V84.2886L202.674 78.769V89.7347ZM202.674 102.072L212.234 107.592V96.5991L202.674 91.0862V102.072ZM202.674 126.753L212.234 132.273V121.3L202.674 115.781V126.753ZM202.674 114.416L212.234 119.929V108.963L202.674 103.443V114.416ZM245.694 89.9086L255.254 95.4283V84.4559L245.694 78.9363V89.9086ZM276.757 121.555L267.203 116.001V126.974L276.757 132.494V121.555ZM276.757 133.899L267.203 128.379V139.345L276.757 144.864V133.899ZM276.757 146.236L267.203 140.716V151.688L276.757 157.208V146.236ZM224.184 126.833L233.744 132.346V121.354L224.184 115.834V126.833ZM224.184 139.171L233.744 144.69V133.718L224.184 128.198V139.171ZM267.21 103.711V114.663L276.771 120.183V109.211L267.21 103.711ZM267.21 164.039L276.771 169.525V158.553L267.21 153.033V164.039ZM224.184 89.8083L233.744 95.3279V84.3622L224.184 78.8426V89.8083ZM224.184 102.152L233.744 107.672V96.6995L224.184 91.1798V102.152ZM224.184 114.489L233.744 120.016V109.043L224.184 103.53V114.489ZM181.171 89.6544L190.725 95.174V84.2017L181.171 78.6887V89.6544ZM181.171 101.992L190.725 107.511V96.5456L181.171 91.0259V101.992ZM181.171 114.336L190.725 119.855V108.883L181.171 103.363V114.336ZM245.694 126.907L255.254 132.427V121.461L245.694 115.941V126.907ZM245.694 102.226L255.254 107.745V96.7798L245.694 91.2467V102.226ZM245.694 114.57L255.254 120.089V109.117L245.694 103.597V114.57ZM170.412 83.4456L179.973 88.9653V77.9929L170.412 72.5134V83.4456ZM224.184 77.471L233.744 82.9907V72.0183L224.184 66.492V77.471ZM181.171 64.9732L190.725 70.5063V59.5272L181.171 54.0075V64.9732ZM181.171 52.636L190.725 58.1556V47.1833L181.171 41.6636V52.636ZM256.445 133.116L266.019 138.635V127.67L256.459 122.15L256.445 133.116ZM159.641 40.2185L169.221 45.7515V34.7791L159.641 29.2461V40.2185ZM159.641 52.5557L169.201 58.0753V47.0896L159.641 41.59V52.5557ZM159.641 64.8996L169.201 70.4126V59.4469L159.641 53.9273V64.8996ZM159.641 77.2369L169.201 82.7565V71.7841L159.641 66.2645V77.2369ZM181.15 77.3172L190.704 82.8301V71.8443L181.15 66.3247V77.3172ZM276.737 96.8533L267.183 91.3337V102.306L276.737 107.826V96.8533Z" fill="url(#paint1_linear_2799_55611)"/>
<g filter="url(#filter0_d_2799_55611)">
<path d="M217.851 193.562L171.017 166.358C169.766 165.629 169.137 164.666 169.117 163.682V160.143C169.117 158.905 170.054 161.053 171.793 160.036L212.893 144.226C216.151 142.346 221.082 142.139 223.899 143.771L255.404 162.163C256.348 162.705 257.03 160.397 257.278 161.133C257.358 161.381 257.278 164.612 257.311 164.866C257.311 166.131 256.421 167.476 254.635 168.519L228.89 193.087C225.612 194.98 220.687 195.188 217.851 193.562Z" fill="url(#paint2_linear_2799_55611)"/>
</g>
<path d="M217.851 190.088L171.018 162.885C168.201 161.252 168.556 158.409 171.814 156.529L212.92 140.753C216.178 138.873 221.109 138.665 223.926 140.291L255.405 158.737C258.228 160.363 257.873 163.213 254.615 165.093L228.87 189.66C225.612 191.507 220.688 191.714 217.851 190.088Z" fill="url(#paint3_linear_2799_55611)"/>
<path style="mix-blend-mode:multiply" opacity="0.82" d="M255.41 158.702L223.932 140.256C221.115 138.63 216.184 138.838 212.926 140.718L192.219 148.679C192.43 148.845 192.654 148.995 192.888 149.128L239.721 176.324C240.421 176.716 241.177 176.998 241.962 177.161L254.654 165.058C257.879 163.178 258.234 160.327 255.41 158.702Z" fill="url(#paint4_linear_2799_55611)"/>
<g style="mix-blend-mode:screen" opacity="0.6">
<path d="M254.665 164.463L228.92 189.037C225.662 190.917 220.738 191.124 217.914 189.492L171.081 162.289C170.591 162.054 170.164 161.704 169.837 161.27C169.509 160.836 169.291 160.329 169.201 159.793C169.054 160.944 169.669 162.068 171.081 162.884L217.914 190.081C220.738 191.713 225.662 191.506 228.92 189.626L254.665 165.058C256.572 163.954 257.475 162.529 257.341 161.205C257.161 162.349 256.257 163.499 254.665 164.463Z" fill="url(#paint5_radial_2799_55611)"/>
</g>
<path d="M277.328 189.302L165.37 124.605C159.489 121.213 154.719 112.1 154.719 104.259V10.9605C154.719 3.11926 159.489 -0.486905 165.37 2.93193L277.328 67.6221C283.209 71.0142 287.98 80.1266 287.98 87.9679V181.246C287.98 189.088 283.209 192.694 277.328 189.302Z" fill="url(#paint6_linear_2799_55611)"/>
<g style="mix-blend-mode:multiply">
<path d="M280.077 182.365L279.829 182.225L169.497 118.478C164.766 115.467 161.836 109.459 161.836 103.311V9.40326C161.838 9.10402 161.914 8.80994 162.057 8.54688C161.67 8.66331 161.331 8.90122 161.09 9.22538C160.849 9.54953 160.719 9.94268 160.719 10.3466V104.254C160.719 110.403 163.649 116.417 168.379 119.421L278.699 183.168L278.953 183.309C279.186 183.446 279.445 183.535 279.714 183.569C279.983 183.604 280.256 183.583 280.516 183.51C280.777 183.436 281.02 183.31 281.231 183.14C281.442 182.97 281.616 182.759 281.743 182.519C281.47 182.615 281.181 182.651 280.893 182.624C280.606 182.598 280.327 182.509 280.077 182.365V182.365Z" fill="#BCBEC0"/>
</g>
<path d="M280.343 65.968L168.384 1.27778C166.056 -0.0603146 163.908 -0.314549 162.155 0.361189C161.935 0.448165 158.964 2.02711 158.75 2.14085C160.563 1.2644 162.865 1.42497 165.374 2.8768L277.332 67.567C283.213 70.9591 287.983 80.0715 287.983 87.9128V181.245C287.983 186.142 286.123 189.381 283.3 190.304C283.634 190.29 283.956 190.181 284.23 189.989C284.37 189.909 287.575 188.089 287.716 187.982C289.723 186.564 291.001 183.653 291.001 179.626V86.3137C290.994 78.4725 286.224 69.3668 280.343 65.968Z" fill="url(#paint7_linear_2799_55611)"/>
<path d="M280.343 65.968L168.384 1.27778C166.056 -0.0603146 163.908 -0.314549 162.155 0.361189C161.935 0.448165 158.964 2.02711 158.75 2.14085C160.563 1.2644 162.865 1.42497 165.374 2.8768L277.332 67.567C283.213 70.9591 287.983 80.0715 287.983 87.9128V181.245C287.983 186.142 286.123 189.381 283.3 190.304C283.634 190.29 283.956 190.181 284.23 189.989C284.37 189.909 287.575 188.089 287.716 187.982C289.723 186.564 291.001 183.653 291.001 179.626V86.3137C290.994 78.4725 286.224 69.3668 280.343 65.968Z" fill="url(#paint8_linear_2799_55611)"/>
<path d="M280.343 65.968L168.384 1.27778C166.056 -0.0603146 163.908 -0.314549 162.155 0.361189C161.935 0.448165 158.964 2.02711 158.75 2.14085C160.563 1.2644 162.865 1.42497 165.374 2.8768L277.332 67.567C283.213 70.9591 287.983 80.0715 287.983 87.9128V181.245C287.983 186.142 286.123 189.381 283.3 190.304C283.634 190.29 283.956 190.181 284.23 189.989C284.37 189.909 287.575 188.089 287.716 187.982C289.723 186.564 291.001 183.653 291.001 179.626V86.3137C290.994 78.4725 286.224 69.3668 280.343 65.968Z" fill="url(#paint9_linear_2799_55611)"/>
<path style="mix-blend-mode:screen" opacity="0.6" d="M277.843 67.3214L165.878 2.62449C163.47 1.23287 161.255 1.03885 159.469 1.80825C161.269 1.60615 163.084 2.03153 164.607 3.01254L276.565 67.7027C282.446 71.1015 287.21 80.2072 287.21 88.0485V181.381C287.21 186.004 285.544 189.135 282.975 190.246C286.26 189.724 288.488 186.352 288.488 180.993V87.6671C288.488 79.8259 283.724 70.7135 277.843 67.3214Z" fill="url(#paint10_radial_2799_55611)"/>
<path d="M158.678 166.417V166.002H128.028V166.758C127.841 168.143 128.577 169.488 130.27 170.471L137.308 174.532C140.653 176.479 146.554 176.232 150.448 173.99L155.473 171.087C157.788 169.749 158.878 168.016 158.678 166.417Z" fill="url(#paint11_linear_2799_55611)"/>
<path d="M137.31 173.325L130.272 169.264C126.926 167.317 127.328 163.912 131.215 161.677L136.246 158.773C140.133 156.532 146.014 156.285 149.386 158.232L156.418 162.293C159.763 164.24 159.369 167.645 155.475 169.88L150.45 172.783C146.563 175.025 140.675 175.272 137.31 173.325Z" fill="url(#paint12_linear_2799_55611)"/>
<path style="mix-blend-mode:color-dodge" d="M155.481 169.585L150.456 172.489C146.569 174.73 140.682 174.978 137.316 173.031L130.278 168.97C128.853 168.147 128.117 167.063 128.023 165.919C127.93 167.257 128.692 168.502 130.278 169.431L137.316 173.493C140.662 175.44 146.569 175.199 150.456 172.951L155.481 170.047C157.729 168.756 158.826 167.076 158.686 165.518C158.579 166.936 157.508 168.415 155.481 169.585Z" fill="url(#paint13_radial_2799_55611)"/>
<path opacity="0.2" d="M158.679 168.186V167.771C158.491 169.11 157.421 170.535 155.487 171.645L150.463 174.549C146.576 176.797 140.688 177.038 137.323 175.098L130.284 171.036C128.879 170.22 128.143 169.156 128.036 168.032V168.534C127.849 169.912 128.585 171.264 130.278 172.241L137.316 176.309C140.661 178.249 146.562 178.008 150.456 175.76L155.481 172.856C157.789 171.532 158.879 169.785 158.679 168.186Z" fill="url(#paint14_linear_2799_55611)"/>
<path d="M146.44 142.512H140.418L133.875 164.657C133.875 164.657 133.875 164.711 133.875 164.737C133.875 167.808 138.157 170.297 143.429 170.297C148.701 170.297 152.963 167.808 152.963 164.737C152.963 164.737 152.963 164.684 152.963 164.657L146.44 142.512Z" fill="url(#paint15_linear_2799_55611)"/>
<path d="M146.428 142.528C146.428 143.498 145.09 144.281 143.417 144.281C141.744 144.281 140.406 143.498 140.406 142.528C140.406 141.558 141.744 140.775 143.417 140.775C145.09 140.775 146.428 141.558 146.428 142.528Z" fill="url(#paint16_linear_2799_55611)"/>
<path d="M152.957 164.661L151.659 160.266C151.659 160.319 151.659 160.373 151.659 160.426C151.659 163.102 147.96 165.237 143.397 165.237C138.834 165.237 135.141 163.082 135.141 160.426C135.137 160.373 135.137 160.319 135.141 160.266L133.836 164.661C133.836 164.661 133.836 164.715 133.836 164.742C133.836 167.812 138.118 170.301 143.39 170.301C148.662 170.301 152.957 167.812 152.957 164.742C152.957 164.742 152.957 164.688 152.957 164.661Z" fill="url(#paint17_linear_2799_55611)"/>
<path d="M149.05 151.388C149.053 151.417 149.053 151.446 149.05 151.475C149.05 153.288 146.528 154.76 143.417 154.76C140.306 154.76 137.783 153.288 137.783 151.475C137.783 151.475 137.783 151.408 137.783 151.375L136.445 155.858C136.448 155.889 136.448 155.92 136.445 155.951C136.445 158.186 139.556 159.999 143.39 159.999C147.224 159.999 150.335 158.186 150.335 155.951C150.332 155.927 150.332 155.902 150.335 155.878L149.05 151.388Z" fill="url(#paint18_linear_2799_55611)"/>
<path d="M146.445 142.512C146.445 143.482 145.107 144.265 143.435 144.265C141.762 144.265 140.424 143.482 140.424 142.512L139.086 146.954V147.001C139.086 148.386 141.019 149.517 143.408 149.517C145.796 149.517 147.73 148.386 147.73 147.001V146.954L146.445 142.512Z" fill="url(#paint19_linear_2799_55611)"/>
<path d="M145.891 142.428C145.891 143.097 144.787 143.692 143.422 143.692C142.057 143.692 140.953 143.124 140.953 142.428C140.953 141.732 142.057 141.17 143.422 141.17C144.787 141.17 145.891 141.732 145.891 142.428Z" fill="url(#paint20_linear_2799_55611)"/>
<path d="M145.891 142.428C145.891 143.097 144.787 143.692 143.422 143.692C142.057 143.692 140.953 143.124 140.953 142.428C140.953 141.732 142.057 141.17 143.422 141.17C144.787 141.17 145.891 141.732 145.891 142.428Z" fill="url(#paint21_linear_2799_55611)"/>
<path style="mix-blend-mode:color-dodge" d="M145.925 141.734L143.984 142.109L146.058 164.261C146.056 164.286 146.056 164.31 146.058 164.335C146.64 167.352 148.494 169.527 150.2 169.199C151.906 168.871 152.816 166.161 152.207 163.144C152.204 163.119 152.204 163.095 152.207 163.07V163.07L145.925 141.734Z" fill="url(#paint22_radial_2799_55611)"/>
<path style="mix-blend-mode:color-dodge" d="M141.333 141.734L143.28 142.109L141.206 164.261C141.202 164.286 141.202 164.31 141.206 164.335C140.624 167.352 138.771 169.527 137.065 169.199C135.359 168.871 134.449 166.161 135.024 163.144V163.07L141.333 141.734Z" fill="url(#paint23_radial_2799_55611)"/>
<path d="M279.406 182.626L167.803 117.249C164.303 114.922 162.373 108.639 162.373 103.886L161.844 10.7784C161.846 10.5227 161.843 9.98387 161.844 9.45419C161.844 9.18937 161.896 8.65421 162.109 8.52724C162.322 8.40028 162.261 8.5267 162.506 8.52722C162.751 8.52775 164.412 9.59118 164.625 9.71905L274.274 72.2242C278.443 74.7171 281.822 82.841 281.822 87.5857V181.363C281.82 181.639 281.75 181.909 281.617 182.147C281.484 182.385 281.294 182.583 281.065 182.721C280.836 182.859 280.576 182.932 280.312 182.932C280.047 182.933 279.787 182.862 279.558 182.726L279.406 182.626Z" fill="url(#paint24_linear_2799_55611)"/>
<g style="mix-blend-mode:screen">
<g style="mix-blend-mode:color-dodge" opacity="0.6">
<path d="M216.023 108.748L234.127 119.202L234.176 116.968L216.064 106.521L216.023 108.748Z" fill="url(#paint25_linear_2799_55611)"/>
<path d="M232.351 134.819L211.213 122.627L211.164 124.853L232.31 137.045L232.351 134.819Z" fill="url(#paint26_linear_2799_55611)"/>
<path d="M227.779 120.418L227.82 118.192L202.76 103.758L202.719 105.984L227.779 120.418Z" fill="url(#paint27_linear_2799_55611)"/>
<path d="M227.779 120.418L227.82 118.192L202.76 103.758L202.719 105.984L227.779 120.418Z" fill="url(#paint28_linear_2799_55611)"/>
<path d="M202.135 112.574L202.094 114.809L213.902 121.634L213.943 119.408L202.135 112.574Z" fill="url(#paint29_linear_2799_55611)"/>
<path d="M195.351 115.769L195.4 113.543L179.783 104.662L179.742 106.897L195.351 115.769Z" fill="url(#paint30_linear_2799_55611)"/>
<path d="M232.685 130.265L216.236 120.74L216.195 122.975L232.644 132.5L232.685 130.265Z" fill="url(#paint31_linear_2799_55611)"/>
<path d="M213.642 114.668L213.602 116.894L226.242 124.201L226.282 121.975L213.642 114.668Z" fill="url(#paint32_linear_2799_55611)"/>
<path d="M236.463 118.289L236.414 120.524L248.94 127.741L248.989 125.506L236.463 118.289Z" fill="url(#paint33_linear_2799_55611)"/>
<path d="M211.306 115.581L211.347 113.347L188.065 100.014L188.016 102.248L211.306 115.581Z" fill="url(#paint34_linear_2799_55611)"/>
<path d="M230.088 119.51L230.047 121.736L252.815 134.825L252.856 132.598L230.088 119.51Z" fill="url(#paint35_linear_2799_55611)"/>
<path d="M199.831 113.496L199.872 111.262L182.119 101.215L182.078 103.449L199.831 113.496Z" fill="url(#paint36_linear_2799_55611)"/>
<path d="M184.627 88.4668L184.586 90.7013L200.325 99.6962L200.366 97.4699L184.627 88.4668Z" fill="url(#paint37_linear_2799_55611)"/>
<path d="M213.765 105.201L202.65 98.791L202.609 101.017L213.725 107.427L213.765 105.201Z" fill="url(#paint38_linear_2799_55611)"/>
<path d="M208.982 121.315L197.728 114.848L197.688 117.082L208.933 123.541L208.982 121.315Z" fill="url(#paint39_linear_2799_55611)"/>
<path d="M250.602 142.869L260.51 148.659L260.551 146.424L250.65 140.643L250.602 142.869Z" fill="url(#paint40_linear_2799_55611)"/>
<path d="M177.501 103.359L174.002 101.328L173.953 103.563L177.46 105.585L177.501 103.359Z" fill="url(#paint41_linear_2799_55611)"/>
<path d="M167.197 78.7617L167.156 80.9962L182.732 89.9258L182.773 87.6914L167.197 78.7617Z" fill="url(#paint42_linear_2799_55611)"/>
<path d="M253 139.556L256.662 141.709L256.702 139.475L253.041 137.33L253 139.556Z" fill="url(#paint43_linear_2799_55611)"/>
<path d="M255.141 136.147L265.432 142.198L265.473 139.963L255.181 133.912L255.141 136.147Z" fill="url(#paint44_linear_2799_55611)"/>
<path d="M228.547 125.525L250.745 138.247L250.785 136.021L228.588 123.291L228.547 125.525Z" fill="url(#paint45_linear_2799_55611)"/>
<path d="M251.283 126.826L251.234 129.061L259.455 133.79L259.495 131.564L251.283 126.826Z" fill="url(#paint46_linear_2799_55611)"/>
<path d="M179.829 99.9266L174.096 96.6973L174.047 98.9236L179.78 102.161L179.829 99.9266Z" fill="url(#paint47_linear_2799_55611)"/>
<path d="M248.401 139.331L234.986 131.592L234.938 133.826L248.361 141.557L248.401 139.331Z" fill="url(#paint48_linear_2799_55611)"/>
<path d="M185.777 98.6971L174.189 92.0508L174.148 94.2852L185.737 100.932L185.777 98.6971Z" fill="url(#paint49_linear_2799_55611)"/>
<path d="M200.468 102.435L174.283 87.4219L174.242 89.6482L200.42 104.67L200.468 102.435Z" fill="url(#paint50_linear_2799_55611)"/>
</g>
</g>
<g style="mix-blend-mode:screen">
<path d="M166.984 38.377L171.127 40.7745V45.5288L166.984 43.1313V38.377ZM166.984 55.5023L171.127 57.8999V62.6542L166.984 60.2567V55.5023Z" fill="white"/>
<path d="M175.031 35.7988L182.151 39.8763V43.9538L179.337 42.3228V70.1311L182.151 71.7621V75.7988L175.031 71.7213V35.7988Z" fill="white"/>
</g>
<g style="mix-blend-mode:screen">
<path d="M215.57 57.7234L217.935 59.0853V56.3697L215.57 55.0078V57.7234Z" fill="black"/>
<path d="M211.109 55.1531L213.474 56.5231V53.8075L211.109 52.4375V55.1531Z" fill="black"/>
<path d="M206.688 52.5828L209.052 53.9528V51.2372L206.688 49.8672V52.5828Z" fill="black"/>
<path d="M202.234 50.0203L204.599 51.3822V48.6666L202.234 47.3047V50.0203Z" fill="black"/>
<path d="M197.789 47.4578L200.154 48.8278V46.1122L197.789 44.7422V47.4578Z" fill="black"/>
<path d="M193.344 44.8855L195.717 46.2555V43.54L193.344 42.1699V44.8855Z" fill="black"/>
<path d="M188.898 42.325L191.263 43.6868V40.9712L188.898 39.6094V42.325Z" fill="black"/>
<path d="M215.57 62.5496L217.935 63.9115V61.1959L215.57 59.834V62.5496Z" fill="black"/>
<path d="M211.109 59.9793L213.474 61.3411V58.6255L211.109 57.2637V59.9793Z" fill="black"/>
<path d="M206.688 57.4129L209.052 58.7829V56.0673L206.688 54.6973V57.4129Z" fill="black"/>
<path d="M202.234 54.8546L204.599 56.2165V53.5009L202.234 52.1309V54.8546Z" fill="black"/>
<path d="M197.789 52.282L200.154 53.6439V50.9283L197.789 49.5664V52.282Z" fill="black"/>
<path d="M193.344 49.7156L195.717 51.0856V48.37L193.344 47V49.7156Z" fill="black"/>
<path d="M188.898 47.1433L191.263 48.5134V45.7978L188.898 44.4277V47.1433Z" fill="black"/>
<path d="M215.57 67.3347L217.935 68.6966V65.981L215.57 64.6191V67.3347Z" fill="white"/>
<path d="M211.109 64.7683L213.474 66.1384V63.4228L211.109 62.0527V64.7683Z" fill="white"/>
<path d="M206.688 62.2L209.052 63.57V60.8544L206.688 59.4844V62.2Z" fill="white"/>
<path d="M202.234 59.6394L204.599 61.0013V58.2857L202.234 56.9238V59.6394Z" fill="black"/>
<path d="M197.789 57.0691L200.154 58.4391V55.7154L197.789 54.3535V57.0691Z" fill="white"/>
<path d="M193.344 54.4949L195.717 55.8649V53.1493L193.344 51.7793V54.4949Z" fill="white"/>
<path d="M188.898 51.9402L191.263 53.3021V50.5865L188.898 49.2246V51.9402Z" fill="white"/>
<path d="M215.57 72.1629L217.935 73.5247V70.8091L215.57 69.4473V72.1629Z" fill="white"/>
<path d="M211.109 69.5945L213.474 70.9564V68.2489L211.109 66.8789V69.5945Z" fill="black"/>
<path d="M206.688 67.0261L209.052 68.3962V65.6806L206.688 64.3105V67.0261Z" fill="white"/>
<path d="M202.234 64.4594L204.599 65.8294V63.1138L202.234 61.752V64.4594Z" fill="black"/>
<path d="M197.789 61.8992L200.154 63.2611V60.5455L197.789 59.1836V61.8992Z" fill="black"/>
<path d="M193.344 59.323L195.717 60.6931V57.9775L193.344 56.6074V59.323Z" fill="black"/>
<path d="M188.898 56.7586L191.263 58.1286V55.413L188.898 54.043V56.7586Z" fill="white"/>
<path d="M215.57 76.9207L217.935 78.2826V75.567L215.57 74.2051V76.9207Z" fill="black"/>
<path d="M211.109 74.3523L213.474 75.7223V73.0067L211.109 71.6367V74.3523Z" fill="white"/>
<path d="M206.688 71.7801L209.052 73.1501V70.4345L206.688 69.0645V71.7801Z" fill="white"/>
<path d="M202.234 69.2234L204.599 70.5853V67.8697L202.234 66.5078V69.2234Z" fill="black"/>
<path d="M197.789 66.6531L200.154 68.015V65.2994L197.789 63.9375V66.6531Z" fill="black"/>
<path d="M193.344 64.0886L195.717 65.4587V62.7431L193.344 61.373V64.0886Z" fill="white"/>
<path d="M188.898 61.5125L191.263 62.8825V60.1669L188.898 58.7969V61.5125Z" fill="white"/>
<path d="M215.57 81.7468L217.935 83.1087V80.3931L215.57 79.0312V81.7468Z" fill="white"/>
<path d="M211.109 79.1765L213.474 80.5384V77.8228L211.109 76.4609V79.1765Z" fill="black"/>
<path d="M206.688 76.6062L209.052 77.9763V75.2607L206.688 73.8906V76.6062Z" fill="white"/>
<path d="M202.234 74.0418L204.599 75.4118V72.6962L202.234 71.3262V74.0418Z" fill="black"/>
<path d="M197.789 71.4812L200.154 72.8431V70.1275L197.789 68.7656V71.4812Z" fill="black"/>
<path d="M193.344 68.9109L195.717 70.2728V67.5653L193.344 66.1953V68.9109Z" fill="black"/>
<path d="M188.898 66.3386L191.263 67.7087V64.9931L188.898 63.623V66.3386Z" fill="white"/>
<path d="M215.57 86.532L217.935 87.8939V85.1783L215.57 83.8164V86.532Z" fill="white"/>
<path d="M211.109 83.9636L213.474 85.3337V82.6181L211.109 81.248V83.9636Z" fill="black"/>
<path d="M206.688 81.3953L209.052 82.7653V80.0497L206.688 78.6797V81.3953Z" fill="white"/>
<path d="M202.234 78.8347L204.599 80.1966V77.481L202.234 76.1191V78.8347Z" fill="black"/>
<path d="M197.789 76.2664L200.154 77.6283V74.9127L197.789 73.5508V76.2664Z" fill="white"/>
<path d="M193.344 73.6961L195.717 75.0661V72.3505L193.344 70.9805V73.6961Z" fill="white"/>
<path d="M188.898 71.1258L191.263 72.4958V69.7802L188.898 68.4102V71.1258Z" fill="white"/>
<path d="M215.57 91.3601L217.935 92.722V90.0064L215.57 88.6445V91.3601Z" fill="black"/>
<path d="M211.109 88.7918L213.474 90.1536V87.438L211.109 86.0762V88.7918Z" fill="black"/>
<path d="M206.688 86.2234L209.052 87.5934V84.8778L206.688 83.5078V86.2234Z" fill="black"/>
<path d="M202.234 83.6531L204.599 85.0231V82.3075L202.234 80.9375V83.6531Z" fill="black"/>
<path d="M197.789 81.0965L200.154 82.4583V79.7427L197.789 78.3809V81.0965Z" fill="black"/>
<path d="M193.344 78.5261L195.717 79.8962V77.1724L193.344 75.8105V78.5261Z" fill="black"/>
<path d="M188.898 75.9558L191.263 77.3259V74.6103L188.898 73.2402V75.9558Z" fill="black"/>
<path d="M215.57 96.28L217.935 97.6419V94.9263L215.57 93.5645V96.28Z" fill="black"/>
<path d="M211.109 93.7078L213.474 95.0778V92.3622L211.109 90.9922V93.7078Z" fill="black"/>
<path d="M206.688 91.1375L209.052 92.5075V89.7919L206.688 88.4219V91.1375Z" fill="black"/>
<path d="M202.234 88.5808L204.599 89.9427V87.2271L202.234 85.8652V88.5808Z" fill="black"/>
<path d="M197.789 86.0125L200.154 87.3743V84.6669L197.789 83.2969V86.0125Z" fill="black"/>
<path d="M193.344 83.4441L195.717 84.8141V82.0985L193.344 80.7285V83.4441Z" fill="black"/>
<path d="M188.898 80.8715L191.263 82.2415V79.5259L188.898 78.1641V80.8715Z" fill="black"/>
<path d="M215.57 101.106L217.935 102.468V99.7525L215.57 98.3906V101.106Z" fill="black"/>
<path d="M211.109 98.5398L213.474 99.9017V97.1861L211.109 95.8242V98.5398Z" fill="black"/>
<path d="M206.688 95.9676L209.052 97.3376V94.622L206.688 93.252V95.9676Z" fill="black"/>
<path d="M202.234 93.4093L204.599 94.7712V92.0556L202.234 90.6855V93.4093Z" fill="black"/>
<path d="M197.789 90.8367L200.154 92.1986V89.483L197.789 88.1211V90.8367Z" fill="black"/>
<path d="M193.344 88.2722L195.717 89.6341V86.9267L193.344 85.5566V88.2722Z" fill="black"/>
<path d="M188.898 85.7L191.263 87.07V84.3544L188.898 82.9844V85.7Z" fill="black"/>
<path d="M268.805 88.5691L271.17 89.931V87.2154L268.805 85.8535V88.5691Z" fill="black"/>
<path d="M264.391 86.0047L266.756 87.3747V84.6591L264.391 83.2891V86.0047Z" fill="black"/>
<path d="M259.93 83.4363L262.295 84.8063V82.0907L259.93 80.7207V83.4363Z" fill="black"/>
<path d="M255.484 80.8738L257.849 82.2357V79.5201L255.484 78.1582V80.8738Z" fill="black"/>
<path d="M251.031 78.3035L253.396 79.6654V76.9579L251.031 75.5879V78.3035Z" fill="black"/>
<path d="M246.594 75.7371L248.959 77.1071V74.3915L246.594 73.0215V75.7371Z" fill="black"/>
<path d="M242.133 73.1687L244.506 74.5388V71.8232L242.133 70.4531V73.1687Z" fill="black"/>
<path d="M237.695 70.6043L240.06 71.9661V69.2505L237.695 67.8887V70.6043Z" fill="black"/>
<path d="M233.242 68.0379L235.607 69.4079V66.6923L233.242 65.3223V68.0379Z" fill="black"/>
<path d="M228.812 65.4695L231.177 66.8395V64.1239L228.812 62.7539V65.4695Z" fill="black"/>
<path d="M224.352 62.907L226.716 64.2689V61.5533L224.352 60.1914V62.907Z" fill="black"/>
<path d="M219.93 60.3406L222.295 61.7025V58.9869L219.93 57.625V60.3406Z" fill="black"/>
<path d="M268.805 93.4011L271.17 94.763V92.0474L268.805 90.6855V93.4011Z" fill="black"/>
<path d="M264.391 90.8308L266.756 92.2009V89.4771L264.391 88.1152V90.8308Z" fill="black"/>
<path d="M259.93 88.2605L262.295 89.6305V86.9149L259.93 85.5449V88.2605Z" fill="black"/>
<path d="M255.484 85.7L257.849 87.0618V84.3462L255.484 82.9844V85.7Z" fill="black"/>
<path d="M251.031 83.1355L253.396 84.4974V81.7818L251.031 80.4199V83.1355Z" fill="black"/>
<path d="M246.594 80.5613L248.959 81.9313V79.2157L246.594 77.8457V80.5613Z" fill="black"/>
<path d="M242.133 77.9929L244.506 79.363V76.6474L242.133 75.2773V77.9929Z" fill="black"/>
<path d="M237.695 75.4343L240.06 76.7962V74.0806L237.695 72.7188V75.4343Z" fill="black"/>
<path d="M233.242 72.8699L235.607 74.2318V71.5162L233.242 70.1543V72.8699Z" fill="black"/>
<path d="M228.812 70.2976L231.177 71.6677V68.9521L228.812 67.582V70.2976Z" fill="black"/>
<path d="M224.352 67.7254L226.716 69.0954V66.3798L224.352 65.0098V67.7254Z" fill="black"/>
<path d="M219.93 65.1648L222.295 66.5267V63.8111L219.93 62.4492V65.1648Z" fill="black"/>
<path d="M268.805 98.1883L271.17 99.5501V96.8427L268.805 95.4727V98.1883Z" fill="white"/>
<path d="M264.391 95.6199L266.756 96.9899V94.2743L264.391 92.9043V95.6199Z" fill="white"/>
<path d="M259.93 93.0512L262.295 94.4212V91.7056L259.93 90.3438V93.0512Z" fill="white"/>
<path d="M255.484 90.491L257.849 91.8529V89.1373L255.484 87.7754V90.491Z" fill="black"/>
<path d="M251.031 87.9207L253.396 89.2907V86.5751L251.031 85.2051V87.9207Z" fill="white"/>
<path d="M246.594 85.3543L248.959 86.7243V84.0087L246.594 82.6387V85.3543Z" fill="white"/>
<path d="M242.133 82.7879L244.506 84.1497V81.4341L242.133 80.0723V82.7879Z" fill="white"/>
<path d="M237.695 80.2215L240.06 81.5833V78.8677L237.695 77.5059V80.2215Z" fill="black"/>
<path d="M233.242 77.6511L235.607 79.0212V76.3056L233.242 74.9355V77.6511Z" fill="white"/>
<path d="M228.812 75.0847L231.177 76.4548V73.7392L228.812 72.3691V75.0847Z" fill="white"/>
<path d="M224.352 72.5261L226.716 73.888V71.1724L224.352 69.8105V72.5261Z" fill="white"/>
<path d="M219.93 69.9558L222.295 71.3177V68.6103L219.93 67.2402V69.9558Z" fill="black"/>
<path d="M268.805 103.012L271.17 104.374V101.659L268.805 100.297V103.012Z" fill="white"/>
<path d="M264.391 100.442L266.756 101.812V99.0966L264.391 97.7266V100.442Z" fill="black"/>
<path d="M259.93 97.8777L262.295 99.2477V96.5321L259.93 95.1621V97.8777Z" fill="white"/>
<path d="M255.484 95.3133L257.849 96.6751V93.9595L255.484 92.5977V95.3133Z" fill="black"/>
<path d="M251.031 92.7449L253.396 94.1068V91.3912L251.031 90.0293V92.7449Z" fill="white"/>
<path d="M246.594 90.1765L248.959 91.5466V88.831L246.594 87.4609V90.1765Z" fill="black"/>
<path d="M242.133 87.6101L244.506 88.9802V86.2646L242.133 84.8945V87.6101Z" fill="white"/>
<path d="M237.695 85.0496L240.06 86.4115V83.6959L237.695 82.334V85.0496Z" fill="black"/>
<path d="M233.242 82.4812L235.607 83.8513V81.1275L233.242 79.7656V82.4812Z" fill="white"/>
<path d="M228.812 79.9109L231.177 81.2809V78.5653L228.812 77.1953V79.9109Z" fill="black"/>
<path d="M224.352 77.3507L226.716 78.7126V75.997L224.352 74.627V77.3507Z" fill="white"/>
<path d="M219.93 74.7801L222.295 76.1419V73.4263L219.93 72.0645V74.7801Z" fill="black"/>
<path d="M268.805 107.766L271.17 109.128V106.413L268.805 105.051V107.766Z" fill="black"/>
<path d="M264.391 105.2L266.756 106.57V103.854L264.391 102.484V105.2Z" fill="white"/>
<path d="M259.93 102.634L262.295 104.004V101.288L259.93 99.918V102.634Z" fill="white"/>
<path d="M255.484 100.073L257.849 101.435V98.7193L255.484 97.3574V100.073Z" fill="black"/>
<path d="M251.031 97.4988L253.396 98.8607V96.1451L251.031 94.7832V97.4988Z" fill="white"/>
<path d="M246.594 94.9324L248.959 96.3024V93.5868L246.594 92.2168V94.9324Z" fill="black"/>
<path d="M242.133 92.3621L244.506 93.7321V91.0165L242.133 89.6465V92.3621Z" fill="white"/>
<path d="M237.695 89.8054L240.06 91.1673V88.4517L237.695 87.0898V89.8054Z" fill="black"/>
<path d="M233.242 87.2351L235.607 88.597V85.8896L233.242 84.5195V87.2351Z" fill="black"/>
<path d="M228.812 84.6687L231.177 86.0387V83.3231L228.812 81.9531V84.6687Z" fill="white"/>
<path d="M224.352 82.0942L226.716 83.4642V80.7486L224.352 79.3867V82.0942Z" fill="white"/>
<path d="M219.93 79.5398L222.295 80.9017V78.1861L219.93 76.8242V79.5398Z" fill="black"/>
<path d="M268.805 112.596L271.17 113.958V111.243L268.805 109.881V112.596Z" fill="white"/>
<path d="M264.391 110.026L266.756 111.388V108.672L264.391 107.311V110.026Z" fill="black"/>
<path d="M259.93 107.46L262.295 108.83V106.114L259.93 104.744V107.46Z" fill="white"/>
<path d="M255.484 104.889L257.849 106.259V103.544L255.484 102.174V104.889Z" fill="black"/>
<path d="M251.031 102.327L253.396 103.689V100.973L251.031 99.6113V102.327Z" fill="white"/>
<path d="M246.594 99.7586L248.959 101.129V98.4048L246.594 97.043V99.7586Z" fill="black"/>
<path d="M242.133 97.1902L244.506 98.5602V95.8446L242.133 94.4746V97.1902Z" fill="white"/>
<path d="M237.695 94.632L240.06 95.9938V93.2782L237.695 91.9082V94.632Z" fill="black"/>
<path d="M233.242 92.0633L235.607 93.4251V90.7095L233.242 89.3477V92.0633Z" fill="white"/>
<path d="M228.812 89.4949L231.177 90.8649V88.1493L228.812 86.7793V89.4949Z" fill="black"/>
<path d="M224.352 86.9226L226.716 88.2927V85.5771L224.352 84.207V86.9226Z" fill="white"/>
<path d="M219.93 84.3621L222.295 85.724V83.0084L219.93 81.6465V84.3621Z" fill="black"/>
<path d="M268.805 117.382L271.17 118.743V116.028L268.805 114.666V117.382Z" fill="white"/>
<path d="M264.391 114.813L266.756 116.183V113.468L264.391 112.098V114.813Z" fill="black"/>
<path d="M259.93 112.243L262.295 113.613V110.897L259.93 109.527V112.243Z" fill="white"/>
<path d="M255.484 109.686L257.849 111.048V108.333L255.484 106.971V109.686Z" fill="black"/>
<path d="M251.031 107.112L253.396 108.482V105.758L251.031 104.396V107.112Z" fill="white"/>
<path d="M246.594 104.546L248.959 105.916V103.2L246.594 101.83V104.546Z" fill="white"/>
<path d="M242.133 101.987L244.506 103.349V100.634L242.133 99.2637V101.987Z" fill="white"/>
<path d="M237.695 99.4168L240.06 100.779V98.063L237.695 96.7012V99.4168Z" fill="black"/>
<path d="M233.242 96.8465L235.607 98.2165V95.5009L233.242 94.1309V96.8465Z" fill="white"/>
<path d="M228.812 94.2761L231.177 95.6462V92.9306L228.812 91.5605V94.2761Z" fill="black"/>
<path d="M224.352 91.7215L226.716 93.0833V90.3677L224.352 89.0059V91.7215Z" fill="white"/>
<path d="M219.93 89.1492L222.295 90.5111V87.7955L219.93 86.4336V89.1492Z" fill="black"/>
<path d="M268.805 122.212L271.17 123.574V120.858L268.805 119.496V122.212Z" fill="black"/>
<path d="M264.391 119.641L266.756 121.003V118.296L264.391 116.926V119.641Z" fill="black"/>
<path d="M259.93 117.073L262.295 118.443V115.727L259.93 114.357V117.073Z" fill="black"/>
<path d="M255.484 114.506L257.849 115.876V113.161L255.484 111.799V114.506Z" fill="black"/>
<path d="M251.031 111.944L253.396 113.306V110.59L251.031 109.229V111.944Z" fill="black"/>
<path d="M246.594 109.372L248.959 110.742V108.026L246.594 106.656V109.372Z" fill="black"/>
<path d="M242.133 106.807L244.506 108.177V105.462L242.133 104.092V106.807Z" fill="black"/>
<path d="M237.695 104.249L240.06 105.611V102.895L237.695 101.533V104.249Z" fill="black"/>
<path d="M233.242 101.678L235.607 103.04V100.325L233.242 98.9629V101.678Z" fill="black"/>
<path d="M228.812 99.1082L231.177 100.478V97.7626L228.812 96.3926V99.1082Z" fill="black"/>
<path d="M224.352 96.5398L226.716 97.9098V95.1943L224.352 93.8242V96.5398Z" fill="black"/>
<path d="M219.93 93.9812L222.295 95.3431V92.6275L219.93 91.2656V93.9812Z" fill="black"/>
<path d="M268.805 127.128L271.17 128.49V125.774L268.805 124.412V127.128Z" fill="black"/>
<path d="M264.391 124.557L266.756 125.927V123.212L264.391 121.842V124.557Z" fill="black"/>
<path d="M259.93 121.993L262.295 123.363V120.647L259.93 119.277V121.993Z" fill="black"/>
<path d="M255.484 119.43L257.849 120.792V118.077L255.484 116.715V119.43Z" fill="black"/>
<path d="M251.031 116.858L253.396 118.22V115.504L251.031 114.143V116.858Z" fill="black"/>
<path d="M246.594 114.292L248.959 115.662V112.946L246.594 111.576V114.292Z" fill="black"/>
<path d="M242.133 111.735L244.506 113.097V110.382L242.133 109.012V111.735Z" fill="black"/>
<path d="M237.695 109.165L240.06 110.527V107.811L237.695 106.449V109.165Z" fill="black"/>
<path d="M233.242 106.593L235.607 107.963V105.247L233.242 103.877V106.593Z" fill="black"/>
<path d="M228.812 104.022L231.177 105.392V102.677L228.812 101.307V104.022Z" fill="black"/>
<path d="M224.352 101.466L226.716 102.827V100.112L224.352 98.75V101.466Z" fill="black"/>
<path d="M219.93 98.8992L222.295 100.261V97.5455L219.93 96.1836V98.8992Z" fill="black"/>
<path d="M268.805 131.958L271.17 133.32V130.604L268.805 129.242V131.958Z" fill="black"/>
<path d="M264.391 129.386L266.756 130.756V128.04L264.391 126.67V129.386Z" fill="black"/>
<path d="M259.93 126.817L262.295 128.187V125.472L259.93 124.102V126.817Z" fill="black"/>
<path d="M255.484 124.255L257.849 125.617V122.901L255.484 121.539V124.255Z" fill="black"/>
<path d="M251.031 121.692L253.396 123.054V120.338L251.031 118.977V121.692Z" fill="black"/>
<path d="M246.594 119.122L248.959 120.492V117.776L246.594 116.406V119.122Z" fill="black"/>
<path d="M242.133 116.55L244.506 117.92V115.204L242.133 113.834V116.55Z" fill="black"/>
<path d="M237.695 113.991L240.06 115.353V112.637L237.695 111.275V113.991Z" fill="black"/>
<path d="M233.242 111.425L235.607 112.786V110.071L233.242 108.709V111.425Z" fill="black"/>
<path d="M228.812 108.854L231.177 110.224V107.509L228.812 106.139V108.854Z" fill="black"/>
<path d="M224.352 106.284L226.716 107.654V104.938L224.352 103.568V106.284Z" fill="black"/>
<path d="M219.93 103.723L222.295 105.085V102.37L219.93 101.008V103.723Z" fill="black"/>
</g>
<path d="M242.915 125.764C236.345 121.97 230.992 125.021 230.992 132.561C230.992 140.102 236.345 149.334 242.915 153.135C249.485 156.935 254.844 153.877 254.844 146.33C254.844 138.784 249.491 129.564 242.915 125.764ZM246.427 136.255C246.93 136.582 247.349 137.024 247.65 137.543C247.951 138.063 248.126 138.646 248.16 139.245C248.16 140.342 247.384 140.791 246.427 140.235C245.922 139.909 245.502 139.468 245.199 138.948C244.897 138.429 244.722 137.845 244.688 137.245C244.688 136.141 245.464 135.699 246.427 136.255ZM239.409 132.207C239.913 132.533 240.333 132.974 240.634 133.494C240.935 134.014 241.109 134.598 241.142 135.197C241.142 136.295 240.366 136.736 239.409 136.188C238.905 135.859 238.485 135.417 238.184 134.896C237.883 134.375 237.709 133.791 237.676 133.19C237.676 132.086 238.452 131.651 239.409 132.207V132.207ZM242.968 142.242C245.511 143.708 247.852 146.678 249.077 149.89C249.324 150.559 249.077 151.074 248.622 151.007C248.373 150.93 248.147 150.793 247.963 150.609C247.778 150.425 247.642 150.199 247.565 149.95C246.693 147.592 245.08 145.58 242.968 144.216C240.994 143.072 239.201 143.306 238.285 144.751C238.084 145.073 237.616 145.026 237.234 144.631C237.004 144.431 236.835 144.169 236.75 143.876C236.664 143.583 236.665 143.271 236.753 142.978C237.957 141.072 240.345 140.784 242.968 142.269V142.242Z" fill="url(#paint51_linear_2799_55611)"/>
<path d="M286.622 213.207C287.044 213.991 287.224 214.883 287.14 215.77C287.055 216.656 286.709 217.498 286.146 218.189C285.583 218.879 284.827 219.387 283.975 219.648C283.123 219.909 282.213 219.912 281.359 219.656C280.506 219.4 279.748 218.897 279.18 218.21C278.613 217.523 278.262 216.683 278.172 215.797C278.081 214.911 278.256 214.018 278.674 213.231C279.091 212.444 279.733 211.799 280.518 211.376C281.039 211.095 281.61 210.919 282.199 210.859C282.788 210.799 283.383 210.856 283.95 211.026C284.517 211.196 285.044 211.476 285.503 211.85C285.961 212.224 286.342 212.685 286.622 213.207V213.207Z" fill="url(#paint52_radial_2799_55611)"/>
<path d="M267.554 175.777L257.797 181.031L277.167 216.989V217.027C278.01 218.596 280.894 218.69 283.573 217.241C286.253 215.792 287.767 213.342 286.924 211.773V211.735L267.554 175.777Z" fill="url(#paint53_linear_2799_55611)"/>
<path d="M267.57 175.8C268.414 177.37 266.918 179.82 264.22 181.268C261.522 182.717 258.657 182.624 257.813 181.059C256.97 179.494 258.466 177.039 261.159 175.59C263.852 174.142 266.746 174.23 267.57 175.8Z" fill="url(#paint54_linear_2799_55611)"/>
<path d="M261.145 168.656L255.344 171.782L259.472 179.439V179.462C259.975 180.394 261.685 180.45 263.288 179.588C264.891 178.726 265.781 177.259 265.278 176.328V176.304L261.145 168.656Z" fill="url(#paint55_linear_2799_55611)"/>
<path d="M244.156 168.344C229.46 159.862 217.55 139.326 217.55 122.47C217.55 115.697 219.469 110.555 222.722 107.369C216.529 109.381 212.555 115.753 212.555 125.502C212.555 142.358 224.464 162.895 239.161 171.376C247.953 176.449 255.749 176.058 260.595 171.311C256.047 172.783 250.358 171.926 244.156 168.344Z" fill="url(#paint56_linear_2799_55611)"/>
<path style="mix-blend-mode:screen" opacity="0.5" d="M258.341 170.579C268.114 164.868 268.015 146.522 258.12 129.602C248.225 112.682 232.281 103.595 222.508 109.306C212.735 115.017 212.834 133.363 222.729 150.283C232.624 167.203 248.568 176.29 258.341 170.579Z" fill="url(#paint57_radial_2799_55611)"/>
<path style="mix-blend-mode:multiply" d="M258.341 170.579C268.114 164.868 268.015 146.522 258.12 129.602C248.225 112.682 232.281 103.595 222.508 109.306C212.735 115.017 212.834 133.363 222.729 150.283C232.624 167.203 248.568 176.29 258.341 170.579Z" fill="url(#paint58_radial_2799_55611)"/>
<path d="M244.789 107.117C237.562 102.925 231.011 102.459 226.216 105.063C226.081 105.137 219.199 108.975 218.984 109.306C223.863 105.626 231.099 105.682 239.146 110.335C253.842 118.817 265.752 139.353 265.752 156.21C265.752 164.813 262.654 170.789 257.663 173.444C258.116 173.306 258.551 173.115 258.959 172.875L263.954 169.88C268.571 167.058 271.409 161.226 271.409 152.991C271.409 136.135 259.485 115.594 244.789 107.117Z" fill="url(#paint59_linear_2799_55611)"/>
<path d="M239.161 110.331C224.464 101.849 212.555 108.64 212.555 125.497C212.555 142.353 224.464 162.889 239.161 171.371C253.857 179.853 265.767 173.062 265.767 156.205C265.767 139.349 253.857 118.822 239.161 110.331ZM238.974 169.35C225.41 161.52 214.409 142.558 214.409 126.996C214.409 111.435 225.41 105.165 238.974 112.995C252.538 120.825 263.539 139.787 263.539 155.348C263.539 170.91 252.543 177.189 238.974 169.359V169.35Z" fill="url(#paint60_linear_2799_55611)"/>
<path style="mix-blend-mode:color-dodge" d="M240.416 109.698C233.371 105.631 226.973 105.082 222.211 107.462C226.67 106.223 233.193 106.894 239.139 110.326C253.835 118.808 265.745 139.344 265.745 156.201C265.745 164.976 261.491 171.274 256.323 173.859C262.819 172.042 267.04 165.582 267.04 155.563C267.022 138.739 255.093 118.179 240.416 109.698Z" fill="url(#paint61_radial_2799_55611)"/>
<path style="mix-blend-mode:screen" opacity="0.5" d="M236.932 131.188C241.206 126.901 245.941 123.101 251.051 119.855C247.99 116.387 244.405 113.419 240.427 111.057C226.523 103.027 215.266 109.454 215.266 125.407C215.266 133.428 218.122 142.334 222.721 150.224C226.492 143.212 231.281 136.797 236.932 131.188V131.188Z" fill="url(#paint62_radial_2799_55611)"/>
</g>
<defs>
<filter id="filter0_d_2799_55611" x="154.117" y="142.67" width="118.195" height="81.9863" filterUnits="userSpaceOnUse" color-interpolation-filters="sRGB">
<feFlood flood-opacity="0" result="BackgroundImageFix"/>
<feColorMatrix in="SourceAlpha" type="matrix" values="0 0 0 0 0 0 0 0 0 0 0 0 0 0 0 0 0 0 127 0" result="hardAlpha"/>
<feOffset dy="15"/>
<feGaussianBlur stdDeviation="7.5"/>
<feComposite in2="hardAlpha" operator="out"/>
<feColorMatrix type="matrix" values="0 0 0 0 0 0 0 0 0 0 0 0 0 0 0 0 0 0 0.45 0"/>
<feBlend mode="normal" in2="BackgroundImageFix" result="effect1_dropShadow_2799_55611"/>
<feBlend mode="normal" in="SourceGraphic" in2="effect1_dropShadow_2799_55611" result="shape"/>
</filter>
<linearGradient id="paint0_linear_2799_55611" x1="327.474" y1="116.757" x2="9.84897" y2="182.641" gradientUnits="userSpaceOnUse">
<stop offset="0.0723636" stop-color="#6FA300"/>
<stop offset="1" stop-color="white" stop-opacity="0.5"/>
</linearGradient>
<linearGradient id="paint1_linear_2799_55611" x1="282.652" y1="172.536" x2="157.948" y2="17.0494" gradientUnits="userSpaceOnUse">
<stop offset="0.04" stop-color="#9F19AB"/>
<stop offset="0.24" stop-color="#AE25B1"/>
<stop offset="0.65" stop-color="#D744BF"/>
<stop offset="1" stop-color="#FF63CE"/>
</linearGradient>
<linearGradient id="paint2_linear_2799_55611" x1="171.059" y1="168.68" x2="262.68" y2="168.68" gradientUnits="userSpaceOnUse">
<stop offset="0.0555556" stop-color="#3E3D3E"/>
<stop offset="0.2575" stop-color="#686868"/>
<stop offset="0.3569" stop-color="#868686"/>
<stop offset="0.4338" stop-color="#646464"/>
<stop offset="0.4949" stop-color="#535353"/>
<stop offset="0.5067" stop-color="#585858"/>
<stop offset="0.5196" stop-color="#919191"/>
<stop offset="0.5329" stop-color="#D6D6D6"/>
<stop offset="0.5466" stop-color="#FCFCFC"/>
<stop offset="0.5556" stop-color="white"/>
<stop offset="0.5678" stop-color="#D3D3D3"/>
<stop offset="0.5801" stop-color="#BCBCBC"/>
<stop offset="0.5915" stop-color="#A5A3A6"/>
<stop offset="0.601" stop-color="#A3A3A3"/>
<stop offset="0.658" stop-color="#707070"/>
<stop offset="0.7155" stop-color="#575757"/>
<stop offset="0.7687" stop-color="#676767"/>
<stop offset="0.8131" stop-color="#6D6D6D"/>
<stop offset="1" stop-color="#111111"/>
</linearGradient>
<linearGradient id="paint3_linear_2799_55611" x1="238.67" y1="160.813" x2="144.515" y2="163.064" gradientUnits="userSpaceOnUse">
<stop stop-color="#161616"/>
<stop offset="1" stop-color="#3A3D34"/>
</linearGradient>
<linearGradient id="paint4_linear_2799_55611" x1="219.917" y1="163.599" x2="228.193" y2="149.723" gradientUnits="userSpaceOnUse">
<stop stop-color="white"/>
<stop offset="1"/>
</linearGradient>
<radialGradient id="paint5_radial_2799_55611" cx="0" cy="0" r="1" gradientUnits="userSpaceOnUse" gradientTransform="translate(220.202 182.46) scale(33.0911 33.0911)">
<stop stop-color="#FBFBFB"/>
<stop offset="1" stop-color="white"/>
</radialGradient>
<linearGradient id="paint6_linear_2799_55611" x1="353.356" y1="50.107" x2="146.91" y2="149.617" gradientUnits="userSpaceOnUse">
<stop stop-color="#161616"/>
<stop offset="0.2" stop-color="#606060"/>
<stop offset="0.49" stop-color="#504F4F"/>
<stop offset="0.809716" stop-color="#212121"/>
</linearGradient>
<linearGradient id="paint7_linear_2799_55611" x1="319.863" y1="192.512" x2="207.122" y2="12.3706" gradientUnits="userSpaceOnUse">
<stop offset="0.06" stop-color="#200041"/>
<stop offset="0.26" stop-color="#210243"/>
<stop offset="0.36" stop-color="#25084B"/>
<stop offset="0.43" stop-color="#2C1358"/>
<stop offset="0.47" stop-color="#311B61"/>
<stop offset="0.48" stop-color="#351F65"/>
<stop offset="0.5" stop-color="#422C73"/>
<stop offset="0.51" stop-color="#584188"/>
<stop offset="0.52" stop-color="#765FA7"/>
<stop offset="0.53" stop-color="#8770B8"/>
<stop offset="0.54" stop-color="#7E67AE"/>
<stop offset="0.56" stop-color="#5C468D"/>
<stop offset="0.59" stop-color="#442E75"/>
<stop offset="0.61" stop-color="#362066"/>
<stop offset="0.63" stop-color="#311B61"/>
<stop offset="0.67" stop-color="#2A1155"/>
<stop offset="0.75" stop-color="#230446"/>
<stop offset="0.81" stop-color="#200041"/>
<stop offset="1" stop-color="#200041"/>
</linearGradient>
<linearGradient id="paint8_linear_2799_55611" x1="319.863" y1="192.512" x2="207.122" y2="12.3706" gradientUnits="userSpaceOnUse">
<stop offset="0.06" stop-color="#200041"/>
<stop offset="0.26" stop-color="#210243"/>
<stop offset="0.36" stop-color="#25084B"/>
<stop offset="0.43" stop-color="#2C1358"/>
<stop offset="0.47" stop-color="#311B61"/>
<stop offset="0.48" stop-color="#351F65"/>
<stop offset="0.5" stop-color="#422C73"/>
<stop offset="0.51" stop-color="#584188"/>
<stop offset="0.52" stop-color="#765FA7"/>
<stop offset="0.53" stop-color="#8770B8"/>
<stop offset="0.54" stop-color="#7E67AE"/>
<stop offset="0.56" stop-color="#5C468D"/>
<stop offset="0.59" stop-color="#442E75"/>
<stop offset="0.61" stop-color="#362066"/>
<stop offset="0.63" stop-color="#311B61"/>
<stop offset="0.67" stop-color="#2A1155"/>
<stop offset="0.75" stop-color="#230446"/>
<stop offset="0.81" stop-color="#200041"/>
<stop offset="1" stop-color="#200041"/>
</linearGradient>
<linearGradient id="paint9_linear_2799_55611" x1="596.751" y1="-346.908" x2="-81.596" y2="218.727" gradientUnits="userSpaceOnUse">
<stop offset="0.0555556" stop-color="#3E3D3E"/>
<stop offset="0.2575" stop-color="#686868"/>
<stop offset="0.3569" stop-color="#868686"/>
<stop offset="0.4338" stop-color="#646464"/>
<stop offset="0.4949" stop-color="#535353"/>
<stop offset="0.5067" stop-color="#585858"/>
<stop offset="0.5196" stop-color="#919191"/>
<stop offset="0.5329" stop-color="#D6D6D6"/>
<stop offset="0.5466" stop-color="#FCFCFC"/>
<stop offset="0.5556" stop-color="white"/>
<stop offset="0.5678" stop-color="#D3D3D3"/>
<stop offset="0.5801" stop-color="#BCBCBC"/>
<stop offset="0.5915" stop-color="#A5A3A6"/>
<stop offset="0.601" stop-color="#A3A3A3"/>
<stop offset="0.658" stop-color="#707070"/>
<stop offset="0.7155" stop-color="#575757"/>
<stop offset="0.7687" stop-color="#676767"/>
<stop offset="0.8131" stop-color="#6D6D6D"/>
<stop offset="1" stop-color="#111111"/>
</linearGradient>
<radialGradient id="paint10_radial_2799_55611" cx="0" cy="0" r="1" gradientUnits="userSpaceOnUse" gradientTransform="translate(284.982 90.5106) scale(19.4358)">
<stop stop-color="#AF8AFC"/>
<stop offset="1" stop-color="#10054D"/>
</radialGradient>
<linearGradient id="paint11_linear_2799_55611" x1="129.461" y1="168.456" x2="153.108" y2="176.598" gradientUnits="userSpaceOnUse">
<stop stop-color="#A8F800"/>
<stop offset="0.09" stop-color="#A8F800"/>
<stop offset="0.21" stop-color="#CEFE67"/>
<stop offset="0.28" stop-color="#BAEC50"/>
<stop offset="0.41" stop-color="#8AC113"/>
<stop offset="0.54" stop-color="#7EAD19"/>
<stop offset="0.73" stop-color="#81B119"/>
<stop offset="0.9" stop-color="#85B916"/>
<stop offset="1" stop-color="#8BC510"/>
</linearGradient>
<linearGradient id="paint12_linear_2799_55611" x1="161.423" y1="131.329" x2="140.789" y2="170.662" gradientUnits="userSpaceOnUse">
<stop offset="0.04" stop-color="#A8F800"/>
<stop offset="0.24" stop-color="#91BC35"/>
<stop offset="0.65" stop-color="#B0DE4E"/>
<stop offset="1" stop-color="#6C9319"/>
</linearGradient>
<radialGradient id="paint13_radial_2799_55611" cx="0" cy="0" r="1" gradientUnits="userSpaceOnUse" gradientTransform="translate(141.772 170.288) scale(8.78459 8.78459)">
<stop stop-color="white"/>
<stop offset="1"/>
</radialGradient>
<linearGradient id="paint14_linear_2799_55611" x1="158.859" y1="172.696" x2="127.615" y2="172.696" gradientUnits="userSpaceOnUse">
<stop offset="0.04" stop-color="#9F19AB"/>
<stop offset="0.13" stop-color="#A31CAC"/>
<stop offset="0.22" stop-color="#AE25B1"/>
<stop offset="0.31" stop-color="#C234B8"/>
<stop offset="0.4" stop-color="#DC48C1"/>
<stop offset="0.48" stop-color="#FF63CE"/>
<stop offset="0.61" stop-color="#ED55C7"/>
<stop offset="0.74" stop-color="#E04BC3"/>
<stop offset="0.87" stop-color="#DC48C1"/>
</linearGradient>
<linearGradient id="paint15_linear_2799_55611" x1="136.21" y1="154.742" x2="152.234" y2="158.121" gradientUnits="userSpaceOnUse">
<stop offset="0.01" stop-color="#C1A1D5"/>
<stop offset="0.05" stop-color="#C8ABDA"/>
<stop offset="0.11" stop-color="#DAC6E6"/>
<stop offset="0.2" stop-color="#F7F2F9"/>
<stop offset="0.22" stop-color="white"/>
<stop offset="0.25" stop-color="#F9F5FB"/>
<stop offset="0.31" stop-color="#E8DBEF"/>
<stop offset="0.36" stop-color="#D5BFE3"/>
<stop offset="0.4" stop-color="#C7AFE1"/>
<stop offset="0.48" stop-color="#B397DE"/>
<stop offset="0.55" stop-color="#A788DC"/>
<stop offset="0.61" stop-color="#A383DB"/>
<stop offset="0.76" stop-color="#AE8DDC"/>
<stop offset="1" stop-color="#C8A6DE"/>
</linearGradient>
<linearGradient id="paint16_linear_2799_55611" x1="136.559" y1="139.096" x2="145.571" y2="143.605" gradientUnits="userSpaceOnUse">
<stop offset="0.04" stop-color="#80AF1B"/>
<stop offset="0.24" stop-color="#84B025"/>
<stop offset="0.65" stop-color="#ACDC45"/>
<stop offset="1" stop-color="#CDFF63"/>
</linearGradient>
<linearGradient id="paint17_linear_2799_55611" x1="134.746" y1="162.768" x2="150.522" y2="166.086" gradientUnits="userSpaceOnUse">
<stop stop-color="#A8F800"/>
<stop offset="0.09" stop-color="#A8F800"/>
<stop offset="0.21" stop-color="#CEFE67"/>
<stop offset="0.28" stop-color="#BAEC50"/>
<stop offset="0.41" stop-color="#8AC113"/>
<stop offset="0.54" stop-color="#7EAD19"/>
<stop offset="0.73" stop-color="#81B119"/>
<stop offset="0.9" stop-color="#85B916"/>
<stop offset="1" stop-color="#8BC510"/>
</linearGradient>
<linearGradient id="paint18_linear_2799_55611" x1="137.106" y1="153.525" x2="148.706" y2="155.588" gradientUnits="userSpaceOnUse">
<stop stop-color="#A8F800"/>
<stop offset="0.09" stop-color="#A8F800"/>
<stop offset="0.21" stop-color="#CEFE67"/>
<stop offset="0.28" stop-color="#BAEC50"/>
<stop offset="0.41" stop-color="#8AC113"/>
<stop offset="0.54" stop-color="#7EAD19"/>
<stop offset="0.73" stop-color="#81B119"/>
<stop offset="0.9" stop-color="#85B916"/>
<stop offset="1" stop-color="#8BC510"/>
</linearGradient>
<linearGradient id="paint19_linear_2799_55611" x1="139.497" y1="144.258" x2="146.809" y2="145.254" gradientUnits="userSpaceOnUse">
<stop stop-color="#A8F800"/>
<stop offset="0.09" stop-color="#A8F800"/>
<stop offset="0.21" stop-color="#CEFE67"/>
<stop offset="0.28" stop-color="#BAEC50"/>
<stop offset="0.41" stop-color="#8AC113"/>
<stop offset="0.54" stop-color="#7EAD19"/>
<stop offset="0.73" stop-color="#81B119"/>
<stop offset="0.9" stop-color="#85B916"/>
<stop offset="1" stop-color="#8BC510"/>
</linearGradient>
<linearGradient id="paint20_linear_2799_55611" x1="145.83" y1="142.428" x2="140.358" y2="142.428" gradientUnits="userSpaceOnUse">
<stop offset="0.04" stop-color="#9F19AB"/>
<stop offset="0.16" stop-color="#AE25B1"/>
<stop offset="0.41" stop-color="#D744BF"/>
<stop offset="0.63" stop-color="#FF63CE"/>
<stop offset="0.87" stop-color="#DC48C1"/>
</linearGradient>
<linearGradient id="paint21_linear_2799_55611" x1="143.138" y1="141.326" x2="146.621" y2="145.906" gradientUnits="userSpaceOnUse">
<stop stop-color="#A8F800"/>
<stop offset="0.09" stop-color="#A8F800"/>
<stop offset="0.21" stop-color="#CEFE67"/>
<stop offset="0.28" stop-color="#BAEC50"/>
<stop offset="0.41" stop-color="#8AC113"/>
<stop offset="0.54" stop-color="#7EAD19"/>
<stop offset="0.73" stop-color="#81B119"/>
<stop offset="0.9" stop-color="#85B916"/>
<stop offset="1" stop-color="#8BC510"/>
</linearGradient>
<radialGradient id="paint22_radial_2799_55611" cx="0" cy="0" r="1" gradientUnits="userSpaceOnUse" gradientTransform="translate(153.631 151.59) rotate(-10.6197) scale(2.92541 8.96941)">
<stop stop-color="#10054D"/>
<stop offset="0.1" stop-color="#0D043D"/>
<stop offset="0.32" stop-color="#070222"/>
<stop offset="0.54" stop-color="#03010F"/>
<stop offset="0.76" stop-color="#010004"/>
<stop offset="1"/>
</radialGradient>
<radialGradient id="paint23_radial_2799_55611" cx="0" cy="0" r="1" gradientUnits="userSpaceOnUse" gradientTransform="translate(171.054 175.939) rotate(-169.38) scale(2.9254 8.96941)">
<stop stop-color="#972A74"/>
<stop offset="0.04" stop-color="#8A266A"/>
<stop offset="0.19" stop-color="#601B4A"/>
<stop offset="0.35" stop-color="#3D112F"/>
<stop offset="0.51" stop-color="#230A1B"/>
<stop offset="0.67" stop-color="#0F040C"/>
<stop offset="0.83" stop-color="#040103"/>
<stop offset="1"/>
</radialGradient>
<linearGradient id="paint24_linear_2799_55611" x1="297.521" y1="218.182" x2="122.581" y2="-42.0326" gradientUnits="userSpaceOnUse">
<stop offset="0.03" stop-color="#040404"/>
<stop offset="0.21" stop-color="#181818"/>
<stop offset="0.62" stop-color="#161616"/>
<stop offset="1"/>
</linearGradient>
<linearGradient id="paint25_linear_2799_55611" x1="297.619" y1="167.499" x2="182.992" y2="126.195" gradientUnits="userSpaceOnUse">
<stop offset="0.03" stop-color="#D1D1D1"/>
<stop offset="0.21" stop-color="#A4A4A4"/>
<stop offset="0.62" stop-color="#7D7D7D"/>
<stop offset="1" stop-color="#A8F800"/>
</linearGradient>
<linearGradient id="paint26_linear_2799_55611" x1="306.396" y1="191.957" x2="173.433" y2="142.776" gradientUnits="userSpaceOnUse">
<stop offset="0.03" stop-color="#D1D1D1"/>
<stop offset="0.21" stop-color="#A4A4A4"/>
<stop offset="0.62" stop-color="#7D7D7D"/>
<stop offset="1" stop-color="#A8F800"/>
</linearGradient>
<linearGradient id="paint27_linear_2799_55611" x1="286.672" y1="186.863" x2="187.686" y2="74.5484" gradientUnits="userSpaceOnUse">
<stop offset="0.03" stop-color="#7C1DC9"/>
<stop offset="0.21" stop-color="#6E41D2"/>
<stop offset="0.62" stop-color="#4C9BE8"/>
<stop offset="1" stop-color="#2AF6FF"/>
</linearGradient>
<linearGradient id="paint28_linear_2799_55611" x1="315.545" y1="183.871" x2="158.981" y2="124.498" gradientUnits="userSpaceOnUse">
<stop offset="0.03" stop-color="#D1D1D1"/>
<stop offset="0.21" stop-color="#A4A4A4"/>
<stop offset="0.62" stop-color="#7D7D7D"/>
<stop offset="1" stop-color="#A8F800"/>
</linearGradient>
<linearGradient id="paint29_linear_2799_55611" x1="255.355" y1="156.141" x2="192.681" y2="134.568" gradientUnits="userSpaceOnUse">
<stop offset="0.03" stop-color="#D1D1D1"/>
<stop offset="0.21" stop-color="#A4A4A4"/>
<stop offset="0.62" stop-color="#7D7D7D"/>
<stop offset="1" stop-color="#A8F800"/>
</linearGradient>
<linearGradient id="paint30_linear_2799_55611" x1="445.765" y1="201.915" x2="172.102" y2="148.042" gradientUnits="userSpaceOnUse">
<stop offset="0.03" stop-color="#D1D1D1"/>
<stop offset="0.21" stop-color="#A4A4A4"/>
<stop offset="0.62" stop-color="#7D7D7D"/>
<stop offset="0.897503" stop-color="#A8F800"/>
</linearGradient>
<linearGradient id="paint31_linear_2799_55611" x1="290.313" y1="177.286" x2="185.704" y2="140.364" gradientUnits="userSpaceOnUse">
<stop offset="0.03" stop-color="#D1D1D1"/>
<stop offset="0.21" stop-color="#A4A4A4"/>
<stop offset="0.62" stop-color="#7D7D7D"/>
<stop offset="1" stop-color="#A8F800"/>
</linearGradient>
<linearGradient id="paint32_linear_2799_55611" x1="270.601" y1="160.509" x2="189.25" y2="133.27" gradientUnits="userSpaceOnUse">
<stop offset="0.03" stop-color="#D1D1D1"/>
<stop offset="0.21" stop-color="#A4A4A4"/>
<stop offset="0.62" stop-color="#7D7D7D"/>
<stop offset="1" stop-color="#A8F800"/>
</linearGradient>
<linearGradient id="paint33_linear_2799_55611" x1="292.937" y1="163.738" x2="179.551" y2="127.542" gradientUnits="userSpaceOnUse">
<stop offset="0.03" stop-color="#D1D1D1"/>
<stop offset="0.21" stop-color="#A4A4A4"/>
<stop offset="0.62" stop-color="#7D7D7D"/>
<stop offset="1" stop-color="#A8F800"/>
</linearGradient>
<linearGradient id="paint34_linear_2799_55611" x1="292.888" y1="174.872" x2="173.443" y2="127.759" gradientUnits="userSpaceOnUse">
<stop offset="0.03" stop-color="#D1D1D1"/>
<stop offset="0.21" stop-color="#A4A4A4"/>
<stop offset="0.62" stop-color="#7D7D7D"/>
<stop offset="1" stop-color="#A8F800"/>
</linearGradient>
<linearGradient id="paint35_linear_2799_55611" x1="332.573" y1="193.153" x2="131.608" y2="121.339" gradientUnits="userSpaceOnUse">
<stop offset="0.03" stop-color="#D1D1D1"/>
<stop offset="0.21" stop-color="#A4A4A4"/>
<stop offset="0.62" stop-color="#7D7D7D"/>
<stop offset="1" stop-color="#A8F800"/>
</linearGradient>
<linearGradient id="paint36_linear_2799_55611" x1="484.402" y1="208.75" x2="174.048" y2="145.956" gradientUnits="userSpaceOnUse">
<stop offset="0.03" stop-color="#D1D1D1"/>
<stop offset="0.21" stop-color="#A4A4A4"/>
<stop offset="0.62" stop-color="#7D7D7D"/>
<stop offset="0.897503" stop-color="#A8F800"/>
</linearGradient>
<linearGradient id="paint37_linear_2799_55611" x1="452.687" y1="186.791" x2="176.821" y2="132.656" gradientUnits="userSpaceOnUse">
<stop offset="0.03" stop-color="#D1D1D1"/>
<stop offset="0.21" stop-color="#A4A4A4"/>
<stop offset="0.62" stop-color="#7D7D7D"/>
<stop offset="0.897503" stop-color="#A8F800"/>
</linearGradient>
<linearGradient id="paint38_linear_2799_55611" x1="252.755" y1="140.318" x2="193.594" y2="120.205" gradientUnits="userSpaceOnUse">
<stop offset="0.03" stop-color="#D1D1D1"/>
<stop offset="0.21" stop-color="#A4A4A4"/>
<stop offset="0.62" stop-color="#7D7D7D"/>
<stop offset="1" stop-color="#A8F800"/>
</linearGradient>
<linearGradient id="paint39_linear_2799_55611" x1="248.456" y1="156.649" x2="188.632" y2="136.193" gradientUnits="userSpaceOnUse">
<stop offset="0.03" stop-color="#D1D1D1"/>
<stop offset="0.21" stop-color="#A4A4A4"/>
<stop offset="0.62" stop-color="#7D7D7D"/>
<stop offset="1" stop-color="#A8F800"/>
</linearGradient>
<linearGradient id="paint40_linear_2799_55611" x1="262.877" y1="158.044" x2="166.391" y2="123.463" gradientUnits="userSpaceOnUse">
<stop offset="0.03" stop-color="#D1D1D1"/>
<stop offset="0.21" stop-color="#A4A4A4"/>
<stop offset="0.62" stop-color="#7D7D7D"/>
<stop offset="1" stop-color="#A8F800"/>
</linearGradient>
<linearGradient id="paint41_linear_2799_55611" x1="234.224" y1="138.601" x2="170.68" y2="131.207" gradientUnits="userSpaceOnUse">
<stop offset="0.03" stop-color="#D1D1D1"/>
<stop offset="0.21" stop-color="#A4A4A4"/>
<stop offset="0.62" stop-color="#7D7D7D"/>
<stop offset="0.897503" stop-color="#A8F800"/>
</linearGradient>
<linearGradient id="paint42_linear_2799_55611" x1="432.487" y1="176.514" x2="159.38" y2="123.165" gradientUnits="userSpaceOnUse">
<stop offset="0.03" stop-color="#D1D1D1"/>
<stop offset="0.21" stop-color="#A4A4A4"/>
<stop offset="0.62" stop-color="#7D7D7D"/>
<stop offset="0.897503" stop-color="#A8F800"/>
</linearGradient>
<linearGradient id="paint43_linear_2799_55611" x1="257.568" y1="146.836" x2="219.33" y2="137.501" gradientUnits="userSpaceOnUse">
<stop offset="0.03" stop-color="#D1D1D1"/>
<stop offset="0.21" stop-color="#A4A4A4"/>
<stop offset="0.62" stop-color="#7D7D7D"/>
<stop offset="1" stop-color="#A8F800"/>
</linearGradient>
<linearGradient id="paint44_linear_2799_55611" x1="267.889" y1="151.898" x2="167.795" y2="115.852" gradientUnits="userSpaceOnUse">
<stop offset="0.03" stop-color="#D1D1D1"/>
<stop offset="0.21" stop-color="#A4A4A4"/>
<stop offset="0.62" stop-color="#7D7D7D"/>
<stop offset="1" stop-color="#A8F800"/>
</linearGradient>
<linearGradient id="paint45_linear_2799_55611" x1="328.507" y1="195.209" x2="132.499" y2="125.281" gradientUnits="userSpaceOnUse">
<stop offset="0.03" stop-color="#D1D1D1"/>
<stop offset="0.21" stop-color="#A4A4A4"/>
<stop offset="0.62" stop-color="#7D7D7D"/>
<stop offset="1" stop-color="#A8F800"/>
</linearGradient>
<linearGradient id="paint46_linear_2799_55611" x1="261.427" y1="141.944" x2="180.515" y2="114.228" gradientUnits="userSpaceOnUse">
<stop offset="0.03" stop-color="#D1D1D1"/>
<stop offset="0.21" stop-color="#A4A4A4"/>
<stop offset="0.62" stop-color="#7D7D7D"/>
<stop offset="1" stop-color="#A8F800"/>
</linearGradient>
<linearGradient id="paint47_linear_2799_55611" x1="272.281" y1="144.538" x2="169.553" y2="129.358" gradientUnits="userSpaceOnUse">
<stop offset="0.03" stop-color="#D1D1D1"/>
<stop offset="0.21" stop-color="#A4A4A4"/>
<stop offset="0.62" stop-color="#7D7D7D"/>
<stop offset="0.897503" stop-color="#A8F800"/>
</linearGradient>
<linearGradient id="paint48_linear_2799_55611" x1="295.456" y1="179.511" x2="174.404" y2="140.27" gradientUnits="userSpaceOnUse">
<stop offset="0.03" stop-color="#D1D1D1"/>
<stop offset="0.21" stop-color="#A4A4A4"/>
<stop offset="0.62" stop-color="#7D7D7D"/>
<stop offset="1" stop-color="#A8F800"/>
</linearGradient>
<linearGradient id="paint49_linear_2799_55611" x1="371.726" y1="169.81" x2="167.429" y2="132.452" gradientUnits="userSpaceOnUse">
<stop offset="0.03" stop-color="#D1D1D1"/>
<stop offset="0.21" stop-color="#A4A4A4"/>
<stop offset="0.62" stop-color="#7D7D7D"/>
<stop offset="0.897503" stop-color="#A8F800"/>
</linearGradient>
<linearGradient id="paint50_linear_2799_55611" x1="619.83" y1="238.442" x2="164.225" y2="141.698" gradientUnits="userSpaceOnUse">
<stop offset="0.03" stop-color="#D1D1D1"/>
<stop offset="0.21" stop-color="#A4A4A4"/>
<stop offset="0.62" stop-color="#7D7D7D"/>
<stop offset="0.897503" stop-color="#A8F800"/>
</linearGradient>
<linearGradient id="paint51_linear_2799_55611" x1="233.175" y1="139.451" x2="316.684" y2="139.451" gradientUnits="userSpaceOnUse">
<stop offset="0.04" stop-color="#A8F800"/>
<stop offset="0.590123" stop-color="#E0F7AF"/>
<stop offset="0.641716" stop-color="#D0F87C"/>
<stop offset="1" stop-color="#FFFFFE"/>
</linearGradient>
<radialGradient id="paint52_radial_2799_55611" cx="0" cy="0" r="1" gradientUnits="userSpaceOnUse" gradientTransform="translate(282.762 215.468) rotate(60.2551) scale(6.4474 9.44931)">
<stop offset="0.1" stop-color="#E6E6E6"/>
<stop offset="0.21" stop-color="#777879"/>
<stop offset="0.62" stop-color="#A6A6A6"/>
<stop offset="1" stop-color="#636363"/>
</radialGradient>
<linearGradient id="paint53_linear_2799_55611" x1="272.461" y1="218.908" x2="300.767" y2="203.648" gradientUnits="userSpaceOnUse">
<stop stop-color="#686868"/>
<stop offset="0.15" stop-color="#747474"/>
<stop offset="0.31" stop-color="#DADADA"/>
<stop offset="0.453125" stop-color="#9B9B9B"/>
<stop offset="0.65" stop-color="#8A8A8A"/>
<stop offset="0.82" stop-color="#828282"/>
<stop offset="1" stop-color="#7E7E7E"/>
</linearGradient>
<linearGradient id="paint54_linear_2799_55611" x1="251.789" y1="174.686" x2="270.582" y2="176.487" gradientUnits="userSpaceOnUse">
<stop stop-color="#F2F2F2"/>
<stop offset="0.0729167" stop-color="#E3E3E3"/>
<stop offset="0.28" stop-color="#B6B6B6"/>
<stop offset="0.48479" stop-color="#777777"/>
<stop offset="0.676272" stop-color="#737373"/>
<stop offset="0.85" stop-color="#8A8A8A"/>
<stop offset="0.99" stop-color="#838383"/>
</linearGradient>
<linearGradient id="paint55_linear_2799_55611" x1="258.577" y1="180.881" x2="269.973" y2="174.884" gradientUnits="userSpaceOnUse">
<stop stop-color="#939393"/>
<stop offset="0.15" stop-color="#A3A3A3"/>
<stop offset="0.31" stop-color="#DADADA"/>
<stop offset="0.453125" stop-color="#ACACAC"/>
<stop offset="0.65" stop-color="#A2A2A2"/>
<stop offset="0.82" stop-color="#979696"/>
<stop offset="1" stop-color="#7E7E7E"/>
</linearGradient>
<linearGradient id="paint56_linear_2799_55611" x1="248.182" y1="175.107" x2="214.522" y2="115.458" gradientUnits="userSpaceOnUse">
<stop stop-color="#D5D5D5"/>
<stop offset="0.12" stop-color="#EEEEEE"/>
<stop offset="0.25" stop-color="white"/>
<stop offset="0.29" stop-color="#F0F0F0"/>
<stop offset="0.36" stop-color="#D0D0D0"/>
<stop offset="0.43" stop-color="#B7B7B7"/>
<stop offset="0.5" stop-color="#A6A6A6"/>
<stop offset="0.56" stop-color="#9A9A9A"/>
<stop offset="0.62" stop-color="#929394"/>
<stop offset="0.77" stop-color="#A4A4A4"/>
<stop offset="0.953125" stop-color="#B5B5B5"/>
<stop offset="1" stop-color="#B3B3B3"/>
</linearGradient>
<radialGradient id="paint57_radial_2799_55611" cx="0" cy="0" r="1" gradientUnits="userSpaceOnUse" gradientTransform="translate(235.44 131.228) scale(36.0695 36.0559)">
<stop offset="0.01" stop-color="white"/>
<stop offset="1" stop-color="#171717"/>
</radialGradient>
<radialGradient id="paint58_radial_2799_55611" cx="0" cy="0" r="1" gradientUnits="userSpaceOnUse" gradientTransform="translate(235.304 131.503) scale(36.0695 36.0559)">
<stop offset="0.239583" stop-color="white"/>
<stop offset="1" stop-color="#CACACA"/>
</radialGradient>
<linearGradient id="paint59_linear_2799_55611" x1="233.28" y1="102.71" x2="266.869" y2="167.026" gradientUnits="userSpaceOnUse">
<stop stop-color="#DBDBDB"/>
<stop offset="0.12" stop-color="#ECECEC"/>
<stop offset="0.25" stop-color="white"/>
<stop offset="0.29" stop-color="#E9EAF0"/>
<stop offset="0.36" stop-color="#CFCFCF"/>
<stop offset="0.43" stop-color="#BBBBBB"/>
<stop offset="0.5" stop-color="#AEAEAE"/>
<stop offset="0.56" stop-color="#A0A0A0"/>
<stop offset="0.692708" stop-color="#ADADAD"/>
<stop offset="0.739583" stop-color="#B8B8B8"/>
<stop offset="0.84" stop-color="#D5D5D5"/>
<stop offset="0.88" stop-color="#E0E0E0"/>
<stop offset="0.8801" stop-color="#E0E0E0"/>
<stop offset="0.942708" stop-color="#B4B4B4"/>
<stop offset="0.97" stop-color="#B8B8B8"/>
<stop offset="1" stop-color="#C8C8C8"/>
</linearGradient>
<linearGradient id="paint60_linear_2799_55611" x1="257.976" y1="131.235" x2="188.709" y2="166.706" gradientUnits="userSpaceOnUse">
<stop stop-color="#EDEDED"/>
<stop offset="0.18" stop-color="#ECECEC"/>
<stop offset="0.48" stop-color="#E0E0E0"/>
<stop offset="0.58" stop-color="#D1D1D1"/>
<stop offset="0.88" stop-color="#B0B0B0"/>
<stop offset="0.916667" stop-color="#C7C7C7"/>
<stop offset="1" stop-color="#A5A5A5"/>
</linearGradient>
<radialGradient id="paint61_radial_2799_55611" cx="0" cy="0" r="1" gradientUnits="userSpaceOnUse" gradientTransform="translate(251.352 119.209) scale(28.7447 28.7339)">
<stop stop-color="white"/>
<stop offset="1"/>
</radialGradient>
<radialGradient id="paint62_radial_2799_55611" cx="0" cy="0" r="1" gradientUnits="userSpaceOnUse" gradientTransform="translate(234.239 125.477) scale(19.6819 19.6745)">
<stop stop-color="white"/>
<stop offset="1"/>
</radialGradient>
<clipPath id="clip0_2799_55611">
<rect width="328" height="240" fill="white"/>
</clipPath>
</defs>
</svg>
