<svg width="1920" height="1080" viewBox="0 0 1920 1080" fill="none" xmlns="http://www.w3.org/2000/svg">
<g clip-path="url(#clip0_2664_86728)">
<rect width="1920" height="1080" fill="#E3E3E3"/>
<rect width="1920" height="1080" fill="#101010"/>
<g filter="url(#filter0_bf_2664_86728)">
<path d="M1796.34 250.867C1796.34 441.493 1676.47 503.519 1116.33 471.497C659.131 713.392 823.914 444.966 823.913 298.197C823.913 107.571 882.218 145.451 999.725 219.54C1161.25 491.819 1796.34 60.2414 1796.34 250.867Z" fill="#A8F800" fill-opacity="0.3"/>
</g>
<path d="M1249.68 334.386L1249.47 334.002L760.996 623.186L761.548 624.157L761.548 624.29L761.776 624.425L1133.11 846.467L1135.96 846.471L1117.39 835.375L1160.34 809.894L1203.19 835.52L1184.6 846.544L1187.45 846.548L1204.61 836.359L1221.73 846.599L1224.58 846.603L1206.12 835.525L1249.05 810.043L1291.91 835.653L1273.25 846.676L1276.1 846.68L1293.26 836.491L1310.39 846.732L1313.23 846.736L1294.68 835.657L1337.61 810.159L1380.48 835.769L1361.87 846.809L1364.72 846.813L1544.86 739.867L1544.86 739.031L1544.86 738.195L1514.98 755.939L1472.12 730.362L1515.06 704.931L1544.88 722.63L1544.89 720.958L1516.47 704.013L1544.94 687.103L1544.94 685.431L1515.06 703.159L1472.2 677.582L1515.13 652.117L1544.96 669.867L1544.96 668.195L1516.55 651.25L1545.02 634.357L1545.02 632.685L1515.14 650.412L1472.28 624.852L1515.21 599.37L1545.04 617.153L1545.04 615.481L1516.63 598.537L1545.09 581.627L1545.1 579.955L1515.22 597.682L1472.36 572.122L1515.29 546.657L1545.12 564.423L1545.12 562.751L1516.71 545.807L1545.17 528.913L1545.18 527.241L1515.29 544.969L1472.44 519.409L1515.37 493.961L1545.2 511.71L1545.2 510.038L1249.9 334.052L1249.68 334.386ZM1205.32 361.839L1248.19 387.382L1205.24 412.813L1162.39 387.253L1205.32 361.839ZM1249.29 597.334L1206.52 571.758L1249.45 546.31L1292.3 571.886L1249.29 597.334ZM1293.65 572.724L1336.51 598.301L1293.58 623.765L1250.72 598.189L1293.65 572.724ZM1247.87 598.185L1204.93 623.633L1162.07 598.04L1205 572.591L1247.87 598.185ZM1205 570.903L1162.15 545.326L1205.08 519.878L1247.95 545.455L1205 570.903ZM1203.59 571.753L1160.66 597.185L1117.8 571.608L1160.73 546.16L1203.59 571.753ZM1159.27 598.035L1116.34 623.484L1073.48 597.89L1116.41 572.442L1159.27 598.035ZM1114.92 624.334L1071.94 649.766L1029 624.172L1071.94 598.741L1114.92 624.334ZM1116.34 625.172L1159.19 650.766L1116.26 676.214L1094.83 663.417L1073.4 650.62L1116.34 625.172ZM1117.77 624.338L1160.7 598.89L1203.56 624.467L1160.63 649.932L1117.77 624.338ZM1204.97 625.322L1247.84 650.915L1204.9 676.363L1162.04 650.77L1204.97 625.322ZM1206.41 624.471L1249.34 599.023L1292.19 624.599L1249.21 650.064L1206.41 624.471ZM1293.62 625.454L1336.48 651.031L1293.55 676.496L1250.69 650.919L1293.62 625.454ZM1295.04 624.604L1337.97 599.155L1380.85 624.732L1337.9 650.197L1295.04 624.604ZM1337.98 597.45L1295.07 571.89L1338 546.425L1380.88 572.002L1337.98 597.45ZM1293.71 571.036L1250.85 545.459L1293.78 520.011L1336.64 545.587L1293.71 571.036ZM1249.37 544.621L1206.6 519.044L1249.53 493.596L1292.38 519.173L1249.37 544.621ZM1205.08 518.19L1162.23 492.613L1205.16 467.182L1248.03 492.758L1205.08 518.19ZM1203.67 519.04L1160.73 544.472L1117.88 518.895L1160.81 493.464L1203.67 519.04ZM1159.35 545.322L1116.37 570.754L1073.51 545.177L1116.44 519.746L1159.35 545.322ZM1115 571.604L1072.05 597.036L1029.08 571.442L1072.01 546.011L1115 571.604ZM1070.63 597.886L1027.7 623.318L984.847 597.724L1027.78 572.293L1070.63 597.886ZM1026.27 624.168L983.337 649.6L940.432 623.99L983.364 598.558L1026.27 624.168ZM1027.7 625.023L1070.56 650.616L1027.62 676.064L984.768 650.454L1027.7 625.023ZM1071.97 651.471L1114.84 677.064L1071.84 702.596L1028.92 676.902L1071.97 651.471ZM1116.26 677.919L1159.11 703.512L1116.18 728.977L1073.33 703.367L1116.26 677.919ZM1117.69 677.068L1160.62 651.62L1203.43 677.213L1160.5 702.728L1117.69 677.068ZM1204.89 678.068L1247.76 703.662L1204.82 729.126L1161.96 703.516L1204.89 678.068ZM1206.33 677.218L1249.26 651.753L1292.11 677.346L1249.13 702.861L1206.33 677.218ZM1293.55 678.201L1336.4 703.777L1293.47 729.259L1250.6 703.666L1293.55 678.201ZM1294.96 677.35L1337.89 651.885L1380.77 677.462L1337.77 702.994L1294.96 677.35ZM1382.18 678.317L1425.04 703.893L1382.09 729.375L1339.23 703.782L1382.18 678.317ZM1382.18 676.645L1339.33 651.068L1382.24 625.57L1425.1 651.147L1382.18 676.645ZM1382.26 623.915L1339.41 598.338L1382.32 572.84L1425.18 598.416L1382.26 623.915ZM1382.34 571.185L1339.49 545.625L1382.4 520.143L1425.26 545.703L1382.34 571.185ZM1338.05 544.77L1295.15 519.177L1338.08 493.729L1380.95 519.289L1338.05 544.77ZM1293.78 518.356L1250.93 492.796L1293.86 467.348L1336.72 492.908L1293.78 518.356ZM1249.45 491.908L1206.67 466.348L1249.61 440.916L1292.46 466.476L1249.45 491.908ZM1205.16 465.493L1162.31 439.933L1205.24 414.502L1248.11 440.062L1205.16 465.493ZM1203.74 466.344L1160.81 491.775L1117.96 466.199L1160.89 440.767L1203.74 466.344ZM1159.43 492.609L1116.5 518.04L1073.64 492.464L1116.57 467.032L1159.43 492.609ZM1115.08 518.891L1072.1 544.322L1029.16 518.729L1072.09 493.314L1115.08 518.891ZM1070.71 545.173L1027.78 570.604L984.926 544.994L1027.86 519.58L1070.71 545.173ZM1026.35 571.438L983.416 596.87L940.56 571.276L983.492 545.845L1026.35 571.438ZM981.998 597.72L939.017 623.152L896.146 597.542L939.077 572.11L981.998 597.72ZM937.584 623.985L894.652 649.417L851.796 623.807L894.728 598.375L937.584 623.985ZM938.999 624.84L981.87 650.45L938.939 675.882L896.067 650.272L938.999 624.84ZM983.285 651.305L1026.14 676.898L983.209 702.346L940.354 676.736L983.285 651.305ZM1027.57 677.753L1070.43 703.363L1027.5 728.811L984.64 703.201L1027.57 677.753ZM1071.84 704.268L1114.71 729.861L1071.77 755.326L1028.85 729.666L1071.84 704.268ZM1116.13 730.716L1159.03 756.225L1116.05 781.74L1073.2 756.097L1116.13 730.716ZM1117.56 729.882L1160.49 704.4L1203.35 729.994L1160.42 755.459L1117.56 729.882ZM1204.77 730.865L1247.64 756.358L1204.69 781.823L1161.83 756.23L1204.77 730.865ZM1206.2 730.015L1249.13 704.533L1291.99 730.126L1249.05 755.574L1206.2 730.015ZM1293.42 730.998L1336.27 756.491L1293.34 781.972L1250.47 756.362L1293.42 730.998ZM1294.83 730.147L1337.77 704.666L1380.64 730.259L1337.69 755.724L1294.83 730.147ZM1382.05 731.114L1424.91 756.623L1382.01 782.138L1339.12 756.495L1382.05 731.114ZM1383.47 730.263L1426.42 704.798L1469.27 730.375L1426.34 755.856L1383.47 730.263ZM1426.42 703.126L1383.55 677.55L1426.5 652.085L1469.35 677.645L1426.42 703.126ZM1426.5 650.38L1383.63 624.82L1426.58 599.355L1469.43 624.915L1426.5 650.38ZM1426.58 597.65L1383.71 572.09L1426.66 546.625L1469.51 572.185L1426.58 597.65ZM1426.66 544.936L1383.79 519.376L1426.73 493.928L1469.59 519.471L1426.66 544.936ZM1382.4 518.438L1339.55 492.878L1382.48 467.43L1425.34 492.99L1382.4 518.438ZM1338.12 492.04L1295.23 466.48L1338.16 441.032L1381.03 466.592L1338.12 492.04ZM1293.85 465.626L1250.98 440.066L1293.92 414.634L1336.78 440.194L1293.85 465.626ZM1249.53 439.211L1206.75 413.651L1249.69 388.237L1292.54 413.78L1249.53 439.211ZM1160.97 388.087L1203.82 413.647L1160.89 439.078L1118.04 413.519L1160.97 388.087ZM1116.6 414.352L1159.51 439.929L1116.57 465.344L1073.72 439.767L1116.6 414.352ZM1072.24 440.618L1115.11 466.194L1072.18 491.609L1029.24 466.032L1072.24 440.618ZM1027.89 466.883L1070.74 492.46L1027.81 517.891L984.956 492.298L1027.89 466.883ZM983.522 493.148L1026.38 518.725L983.446 544.156L940.59 518.496L983.522 493.148ZM939.156 519.397L982.028 544.99L939.096 570.422L896.225 544.828L939.156 519.397ZM894.807 545.662L937.663 571.272L894.731 596.687L851.875 571.077L894.807 545.662ZM850.442 571.86L893.297 597.47L850.365 622.885L807.51 597.275L850.442 571.86ZM763.144 623.557L806.027 598.193L848.899 623.803L805.951 649.234L763.144 623.557ZM807.431 650.022L850.363 624.607L893.218 650.217L850.286 675.649L807.431 650.022ZM851.718 676.503L894.649 651.072L937.505 676.682L894.573 702.164L851.718 676.503ZM895.988 702.968L938.92 677.537L981.792 703.147L938.86 728.645L895.988 702.968ZM940.275 729.433L983.206 704.135L1026.06 729.745L983.13 755.193L940.275 729.433ZM984.561 755.964L1027.49 730.516L1070.35 756.093L1027.42 781.541L984.561 755.964ZM1028.77 782.429L1071.7 756.981L1114.57 782.591L1071.65 808.039L1028.77 782.429ZM1116.04 834.387L1116.17 834.621L1073.05 808.844L1115.99 783.362L1158.95 809.056L1116.04 834.387ZM1117.4 782.562L1160.35 757.097L1203.21 782.707L1160.27 808.172L1117.4 782.562ZM1204.54 834.636L1161.75 809.06L1204.69 783.578L1247.56 809.188L1204.54 834.636ZM1206.05 782.711L1248.99 757.229L1291.84 782.839L1248.98 808.338L1206.05 782.711ZM1293.2 834.769L1250.39 809.193L1293.34 783.711L1336.19 809.321L1293.2 834.769ZM1337.55 808.437L1294.76 782.877L1337.69 757.396L1380.56 782.989L1337.55 808.437ZM1381.64 835.135L1381.77 834.901L1339.04 809.325L1382.01 783.827L1424.86 809.437L1381.64 835.135ZM1426.22 808.653L1383.38 783.077L1426.32 757.595L1469.18 783.171L1426.22 808.653ZM1513.56 756.756L1470.61 782.237L1427.76 756.627L1470.69 731.146L1513.56 756.756ZM1513.64 703.992L1470.69 729.474L1427.84 703.897L1470.77 678.416L1513.64 703.992ZM1513.72 651.246L1470.77 676.727L1427.92 651.151L1470.85 625.686L1513.72 651.246ZM1513.8 598.516L1470.85 623.981L1427.99 598.421L1470.93 572.956L1513.8 598.516ZM1513.88 545.786L1470.93 571.267L1428.07 545.707L1471.01 520.243L1513.88 545.786ZM1513.96 493.089L1471.02 518.554L1428.17 492.994L1471.1 467.546L1513.96 493.089ZM1469.69 466.691L1426.74 492.139L1383.87 466.596L1426.81 441.148L1469.69 466.691ZM1425.4 440.293L1382.48 465.742L1339.63 440.198L1382.56 414.75L1425.4 440.293ZM1381.1 413.912L1338.16 439.344L1295.31 413.784L1338.24 388.352L1381.1 413.912ZM1336.83 387.514L1293.89 412.946L1251.04 387.386L1293.97 361.971L1336.83 387.514ZM1249.61 386.548L1206.83 360.988L1249.76 335.573L1292.62 361.117L1249.61 386.548Z" fill="url(#paint0_linear_2664_86728)"/>
<line x1="1544.03" y1="739.637" x2="1734.98" y2="624.443" stroke="#6EA200" stroke-width="1.2"/>
<line x1="1543.85" y1="687.057" x2="1690.42" y2="598.575" stroke="#6EA200" stroke-width="1.2"/>
<line x1="1544.05" y1="634.224" x2="1646.72" y2="572.516" stroke="#6EA200" stroke-width="1.2"/>
<line x1="1544.34" y1="581.386" x2="1603.52" y2="546.37" stroke="#6EA200" stroke-width="1.2"/>
<line x1="1544.44" y1="528.649" x2="1559.64" y2="519.697" stroke="#6EA200" stroke-width="1.2"/>
<line x1="1544.2" y1="510.405" x2="1733.2" y2="624.902" stroke="#6EA200" stroke-width="1.2"/>
<line x1="1544.28" y1="563.198" x2="1690.58" y2="650.825" stroke="#6EA200" stroke-width="1.2"/>
<line x1="1543.86" y1="615.735" x2="1647.18" y2="677.568" stroke="#6EA200" stroke-width="1.2"/>
<line x1="1543.82" y1="668.447" x2="1603.55" y2="703.339" stroke="#6EA200" stroke-width="1.2"/>
<line x1="1544.03" y1="721.405" x2="1558.99" y2="730.894" stroke="#6EA200" stroke-width="1.2"/>
<line x1="1249.44" y1="915.552" x2="1366.99" y2="844.864" stroke="url(#paint1_linear_2664_86728)" stroke-width="1.05"/>
<line x1="1204.6" y1="888.286" x2="1276.47" y2="845.838" stroke="url(#paint2_linear_2664_86728)" stroke-width="1.05"/>
<line x1="1159.76" y1="861.724" x2="1187.18" y2="846.092" stroke="url(#paint3_linear_2664_86728)" stroke-width="1.05"/>
<line x1="1310.28" y1="846.061" x2="1338" y2="862.676" stroke="url(#paint4_linear_2664_86728)" stroke-width="1.05"/>
<line x1="1221.05" y1="845.59" x2="1294.37" y2="888.448" stroke="url(#paint5_linear_2664_86728)" stroke-width="1.05"/>
<line x1="1133.14" y1="845.869" x2="1249.98" y2="915.551" stroke="url(#paint6_linear_2664_86728)" stroke-width="1.05"/>
<path d="M1301.53 324.088L1326.08 338.269V310.112L1301.53 295.931V324.088ZM1301.53 482.61L1326.08 496.792V468.601L1301.53 454.505V482.61ZM1273.89 308.136L1298.46 322.317V294.126L1273.89 279.945V308.136ZM1273.89 339.833L1298.46 354.015V325.841L1273.89 311.659V339.833ZM1273.89 371.548L1298.46 385.747V357.556L1273.89 343.374V371.548ZM1273.89 403.246L1298.46 417.427V389.185L1273.89 375.02V403.246ZM1273.89 466.658L1298.46 480.84V452.649L1273.89 438.467V466.658ZM1273.89 434.961L1298.46 449.125V420.951L1273.89 406.77V434.961ZM1384.42 371.995L1408.99 386.176V357.986L1384.42 343.804V371.995ZM1464.23 453.302L1439.69 439.035V467.226L1464.23 481.407V453.302ZM1464.23 485.017L1439.69 470.835V499.009L1464.23 513.191V485.017ZM1464.23 516.714L1439.69 502.533V530.724L1464.23 544.905V516.714ZM1329.16 466.865L1353.72 481.029V452.786L1329.16 438.605V466.865ZM1329.16 498.562L1353.72 512.744V484.553L1329.16 470.371V498.562ZM1439.7 407.457V435.597L1464.27 449.778V421.587L1439.7 407.457ZM1439.7 562.456L1464.27 576.552V548.361L1439.7 534.179V562.456ZM1329.16 371.737L1353.72 385.919V357.745L1329.16 343.563V371.737ZM1329.16 403.452L1353.72 417.633V389.442L1329.16 375.261V403.452ZM1329.16 435.15L1353.72 449.348V421.157L1329.16 406.993V435.15ZM1218.64 371.342L1243.19 385.523V357.332L1218.64 343.168V371.342ZM1218.64 403.039L1243.19 417.221V389.047L1218.64 374.866V403.039ZM1218.64 434.754L1243.19 448.936V420.745L1218.64 406.563V434.754ZM1384.42 467.054L1408.99 481.235V453.061L1384.42 438.88V467.054ZM1384.42 403.641L1408.99 417.823V389.649L1384.42 375.433V403.641ZM1384.42 435.356L1408.99 449.537V421.346L1384.42 407.165V435.356ZM1191 355.39L1215.57 369.571V341.38L1191 327.302V355.39ZM1329.16 340.04L1353.72 354.221V326.03L1329.16 311.831V340.04ZM1218.64 307.929L1243.19 322.145V293.937L1218.64 279.756V307.929ZM1218.64 276.232L1243.19 290.413V262.222L1218.64 248.041V276.232ZM1412.04 483.006L1436.64 497.187V469.013L1412.08 454.832L1412.04 483.006ZM1163.33 244.328L1187.94 258.544V230.353L1163.33 216.137V244.328ZM1163.33 276.025L1187.89 290.207V261.981L1163.33 247.852V276.025ZM1163.33 307.74L1187.89 321.904V293.731L1163.33 279.549V307.74ZM1163.33 339.438L1187.89 353.619V325.428L1163.33 311.247V339.438ZM1218.59 339.644L1243.14 353.808V325.583L1218.59 311.402V339.644ZM1464.18 389.838L1439.63 375.656V403.847L1464.18 418.029V389.838Z" fill="url(#paint7_linear_2664_86728)"/>
<g filter="url(#filter1_d_2664_86728)">
<path d="M1312.88 638.312L1192.55 568.419C1189.34 566.545 1187.72 564.07 1187.67 561.543V552.449C1187.67 549.269 1190.08 554.787 1194.55 552.174L1300.14 511.555C1308.51 506.725 1321.18 506.192 1328.42 510.386L1409.37 557.641C1411.79 559.033 1413.54 553.103 1414.18 554.993C1414.39 555.63 1414.18 563.932 1414.27 564.585C1414.27 567.834 1411.98 571.289 1407.39 573.971L1341.24 637.091C1332.82 641.956 1320.17 642.489 1312.88 638.312Z" fill="url(#paint8_linear_2664_86728)"/>
</g>
<path d="M1312.87 629.391L1192.55 559.498C1185.31 555.303 1186.22 547.998 1194.59 543.167L1300.21 502.634C1308.58 497.804 1321.25 497.271 1328.48 501.448L1409.36 548.84C1416.61 553.017 1415.7 560.34 1407.33 565.17L1341.19 628.291C1332.81 633.035 1320.16 633.568 1312.87 629.391Z" fill="url(#paint9_linear_2664_86728)"/>
<path style="mix-blend-mode:multiply" opacity="0.82" d="M1409.36 548.754L1328.49 501.362C1321.25 497.185 1308.58 497.718 1300.21 502.548L1247.01 523.004C1247.55 523.43 1248.13 523.815 1248.73 524.156L1369.05 594.032C1370.85 595.039 1372.79 595.763 1374.81 596.18L1407.42 565.084C1415.71 560.254 1416.62 552.931 1409.36 548.754Z" fill="url(#paint10_linear_2664_86728)"/>
<g style="mix-blend-mode:screen" opacity="0.6">
<path d="M1407.42 563.555L1341.28 626.693C1332.91 631.523 1320.26 632.056 1313 627.861L1192.67 557.968C1191.41 557.365 1190.32 556.468 1189.48 555.352C1188.64 554.236 1188.08 552.934 1187.84 551.557C1187.47 554.513 1189.05 557.401 1192.67 559.498L1313 629.374C1320.26 633.568 1332.91 633.035 1341.28 628.205L1407.42 565.085C1412.32 562.249 1414.64 558.587 1414.3 555.184C1413.84 558.123 1411.52 561.08 1407.42 563.555Z" fill="url(#paint11_radial_2664_86728)"/>
</g>
<path d="M1465.67 627.363L1178.02 461.139C1162.91 452.424 1150.66 429.012 1150.66 408.865V169.156C1150.66 149.01 1162.91 139.745 1178.02 148.529L1465.67 314.735C1480.78 323.45 1493.04 346.863 1493.04 367.009V606.666C1493.04 626.813 1480.78 636.078 1465.67 627.363Z" fill="url(#paint12_linear_2664_86728)"/>
<g style="mix-blend-mode:multiply">
<path d="M1472.74 609.553L1472.11 609.192L1188.63 445.409C1176.48 437.674 1168.95 422.238 1168.95 406.441V165.167C1168.95 164.398 1169.15 163.643 1169.52 162.967C1168.52 163.266 1167.65 163.877 1167.03 164.71C1166.41 165.543 1166.08 166.553 1166.08 167.591V408.864C1166.08 424.662 1173.61 440.115 1185.76 447.833L1469.2 611.616L1469.85 611.977C1470.45 612.33 1471.12 612.557 1471.81 612.646C1472.5 612.735 1473.2 612.683 1473.87 612.493C1474.54 612.304 1475.16 611.98 1475.71 611.543C1476.25 611.106 1476.69 610.563 1477.02 609.949C1476.32 610.194 1475.58 610.286 1474.84 610.218C1474.1 610.15 1473.38 609.923 1472.74 609.553V609.553Z" fill="#BCBEC0"/>
</g>
<path d="M1473.44 310.489L1185.78 144.283C1179.8 140.845 1174.28 140.192 1169.78 141.928C1169.21 142.151 1161.58 146.208 1161.03 146.5C1165.69 144.249 1171.6 144.661 1178.05 148.391L1465.7 314.598C1480.81 323.313 1493.07 346.725 1493.07 366.871V606.667C1493.07 619.249 1488.29 627.569 1481.03 629.941C1481.89 629.906 1482.72 629.626 1483.42 629.134C1483.78 628.927 1492.02 624.252 1492.38 623.977C1497.54 620.332 1500.82 612.855 1500.82 602.507V362.763C1500.8 342.617 1488.55 319.222 1473.44 310.489Z" fill="url(#paint13_linear_2664_86728)"/>
<path d="M1473.44 310.489L1185.78 144.283C1179.8 140.845 1174.28 140.192 1169.78 141.928C1169.21 142.151 1161.58 146.208 1161.03 146.5C1165.69 144.249 1171.6 144.661 1178.05 148.391L1465.7 314.598C1480.81 323.313 1493.07 346.725 1493.07 366.871V606.667C1493.07 619.249 1488.29 627.569 1481.03 629.941C1481.89 629.906 1482.72 629.626 1483.42 629.134C1483.78 628.927 1492.02 624.252 1492.38 623.977C1497.54 620.332 1500.82 612.855 1500.82 602.507V362.763C1500.8 342.617 1488.55 319.222 1473.44 310.489Z" fill="url(#paint14_linear_2664_86728)"/>
<path d="M1473.44 310.489L1185.78 144.283C1179.8 140.845 1174.28 140.192 1169.78 141.928C1169.21 142.151 1161.58 146.208 1161.03 146.5C1165.69 144.249 1171.6 144.661 1178.05 148.391L1465.7 314.598C1480.81 323.313 1493.07 346.725 1493.07 366.871V606.667C1493.07 619.249 1488.29 627.569 1481.03 629.941C1481.89 629.906 1482.72 629.626 1483.42 629.134C1483.78 628.927 1492.02 624.252 1492.38 623.977C1497.54 620.332 1500.82 612.855 1500.82 602.507V362.763C1500.8 342.617 1488.55 319.222 1473.44 310.489Z" fill="url(#paint15_linear_2664_86728)"/>
<path style="mix-blend-mode:screen" opacity="0.6" d="M1467 313.961L1179.33 147.738C1173.15 144.162 1167.46 143.664 1162.87 145.64C1167.49 145.121 1172.16 146.214 1176.07 148.735L1463.72 314.941C1478.83 323.673 1491.07 347.068 1491.07 367.215V607.01C1491.07 618.888 1486.79 626.933 1480.19 629.786C1488.63 628.445 1494.35 619.782 1494.35 606.013V366.235C1494.35 346.089 1482.11 322.676 1467 313.961Z" fill="url(#paint16_radial_2664_86728)"/>
<path d="M1160.83 568.576V567.51H1082.09V569.452C1081.61 573.01 1083.5 576.466 1087.85 578.992L1105.93 589.427C1114.53 594.429 1129.69 593.793 1139.69 588.034L1152.6 580.574C1158.55 577.136 1161.35 572.684 1160.83 568.576Z" fill="url(#paint17_linear_2664_86728)"/>
<path d="M1105.95 586.315L1087.86 575.881C1079.27 570.879 1080.3 562.129 1090.29 556.388L1103.21 548.927C1113.2 543.169 1128.31 542.533 1136.97 547.535L1155.04 557.969C1163.64 562.971 1162.62 571.721 1152.62 577.462L1139.71 584.922C1129.72 590.681 1114.59 591.317 1105.95 586.315Z" fill="url(#paint18_linear_2664_86728)"/>
<path style="mix-blend-mode:color-dodge" d="M1152.62 576.705L1139.71 584.165C1129.72 589.924 1114.6 590.56 1105.95 585.558L1087.87 575.124C1084.21 573.009 1082.32 570.225 1082.07 567.285C1081.83 570.723 1083.79 573.92 1087.87 576.31L1105.95 586.744C1114.55 591.746 1129.72 591.127 1139.71 585.352L1152.62 577.891C1158.4 574.574 1161.22 570.259 1160.85 566.254C1160.58 569.898 1157.83 573.697 1152.62 576.705Z" fill="url(#paint19_radial_2664_86728)"/>
<path opacity="0.2" d="M1160.84 573.113V572.047C1160.36 575.485 1157.61 579.146 1152.64 582L1139.73 589.46C1129.74 595.236 1114.62 595.854 1105.97 590.869L1087.89 580.435C1084.28 578.338 1082.39 575.605 1082.11 572.717V574.006C1081.63 577.548 1083.52 581.02 1087.87 583.53L1105.95 593.981C1114.55 598.966 1129.71 598.347 1139.71 592.571L1152.62 585.111C1158.55 581.707 1161.36 577.221 1160.84 573.113Z" fill="url(#paint20_linear_2664_86728)"/>
<path d="M1129.38 507.156H1113.91L1097.09 564.054C1097.09 564.054 1097.09 564.191 1097.09 564.26C1097.09 572.15 1108.1 578.545 1121.64 578.545C1135.19 578.545 1146.14 572.15 1146.14 564.26C1146.14 564.26 1146.14 564.123 1146.14 564.054L1129.38 507.156Z" fill="url(#paint21_linear_2664_86728)"/>
<path d="M1129.38 507.189C1129.38 509.682 1125.95 511.693 1121.65 511.693C1117.35 511.693 1113.91 509.682 1113.91 507.189C1113.91 504.697 1117.35 502.686 1121.65 502.686C1125.95 502.686 1129.38 504.697 1129.38 507.189Z" fill="url(#paint22_linear_2664_86728)"/>
<path d="M1146.14 564.053L1142.8 552.76C1142.8 552.897 1142.8 553.035 1142.8 553.172C1142.8 560.048 1133.3 565.532 1121.57 565.532C1109.85 565.532 1100.36 559.997 1100.36 553.172C1100.35 553.035 1100.35 552.897 1100.36 552.76L1097.01 564.053C1097.01 564.053 1097.01 564.191 1097.01 564.26C1097.01 572.15 1108.01 578.544 1121.55 578.544C1135.1 578.544 1146.14 572.15 1146.14 564.26C1146.14 564.26 1146.14 564.122 1146.14 564.053Z" fill="url(#paint23_linear_2664_86728)"/>
<path d="M1136.1 529.948C1136.11 530.023 1136.11 530.098 1136.1 530.172C1136.1 534.83 1129.62 538.612 1121.63 538.612C1113.64 538.612 1107.16 534.83 1107.16 530.172C1107.16 530.172 1107.16 530 1107.16 529.914L1103.72 541.431C1103.73 541.511 1103.73 541.592 1103.72 541.672C1103.72 547.413 1111.71 552.072 1121.56 552.072C1131.41 552.072 1139.4 547.413 1139.4 541.672C1139.4 541.609 1139.4 541.546 1139.4 541.483L1136.1 529.948Z" fill="url(#paint24_linear_2664_86728)"/>
<path d="M1129.38 507.156C1129.38 509.649 1125.94 511.66 1121.64 511.66C1117.34 511.66 1113.91 509.649 1113.91 507.156L1110.47 518.57V518.69C1110.47 522.249 1115.44 525.154 1121.57 525.154C1127.71 525.154 1132.68 522.249 1132.68 518.69V518.57L1129.38 507.156Z" fill="url(#paint25_linear_2664_86728)"/>
<path d="M1127.99 506.933C1127.99 508.652 1125.15 510.182 1121.65 510.182C1118.14 510.182 1115.3 508.721 1115.3 506.933C1115.3 505.145 1118.14 503.701 1121.65 503.701C1125.15 503.701 1127.99 505.145 1127.99 506.933Z" fill="url(#paint26_linear_2664_86728)"/>
<path d="M1127.99 506.933C1127.99 508.652 1125.15 510.182 1121.65 510.182C1118.14 510.182 1115.3 508.721 1115.3 506.933C1115.3 505.145 1118.14 503.701 1121.65 503.701C1125.15 503.701 1127.99 505.145 1127.99 506.933Z" fill="url(#paint27_linear_2664_86728)"/>
<path style="mix-blend-mode:color-dodge" d="M1128.09 505.145L1123.1 506.107L1128.43 563.022C1128.42 563.085 1128.42 563.148 1128.43 563.211C1129.93 570.964 1134.69 576.55 1139.07 575.708C1143.45 574.866 1145.79 567.904 1144.23 560.151C1144.22 560.089 1144.22 560.025 1144.23 559.962V559.962L1128.09 505.145Z" fill="url(#paint28_radial_2664_86728)"/>
<path style="mix-blend-mode:color-dodge" d="M1117.48 506.431L1122.45 507.522L1115.65 564.28C1115.64 564.343 1115.64 564.406 1115.65 564.469C1113.95 572.18 1109.05 577.642 1104.69 576.687C1100.33 575.732 1098.17 568.712 1099.85 561L1099.85 560.811L1117.48 506.431Z" fill="url(#paint29_radial_2664_86728)"/>
<path d="M1471.07 610.206L1184.33 442.235C1175.34 436.257 1170.38 420.112 1170.38 407.9L1169.02 168.683C1169.03 168.026 1169.02 166.642 1169.02 165.281C1169.02 164.6 1169.16 163.225 1169.7 162.899C1170.25 162.573 1170.09 162.898 1170.72 162.899C1171.36 162.9 1175.62 165.633 1176.17 165.961L1457.89 326.554C1468.6 332.959 1477.28 353.831 1477.28 366.021V606.961C1477.28 607.668 1477.09 608.363 1476.75 608.975C1476.41 609.587 1475.92 610.095 1475.33 610.449C1474.75 610.803 1474.08 610.991 1473.4 610.993C1472.72 610.995 1472.05 610.812 1471.46 610.462L1471.07 610.206Z" fill="url(#paint30_linear_2664_86728)"/>
<g style="mix-blend-mode:screen">
<g style="mix-blend-mode:color-dodge" opacity="0.6">
<path d="M1308.22 420.374L1354.73 447.235L1354.86 441.494L1308.32 414.654L1308.22 420.374Z" fill="url(#paint31_linear_2664_86728)"/>
<path d="M1350.19 487.361L1295.88 456.037L1295.76 461.757L1350.09 493.081L1350.19 487.361Z" fill="url(#paint32_linear_2664_86728)"/>
<path d="M1338.43 450.358L1338.53 444.638L1274.14 407.553L1274.04 413.273L1338.43 450.358Z" fill="url(#paint33_linear_2664_86728)"/>
<path d="M1338.43 450.358L1338.53 444.638L1274.14 407.553L1274.04 413.273L1338.43 450.358Z" fill="url(#paint34_linear_2664_86728)"/>
<path d="M1272.54 430.201L1272.44 435.942L1302.78 453.479L1302.88 447.759L1272.54 430.201Z" fill="url(#paint35_linear_2664_86728)"/>
<path d="M1255.15 438.416L1255.28 432.696L1215.15 409.879L1215.05 415.62L1255.15 438.416Z" fill="url(#paint36_linear_2664_86728)"/>
<path d="M1351.03 475.648L1308.77 451.176L1308.66 456.917L1350.92 481.389L1351.03 475.648Z" fill="url(#paint37_linear_2664_86728)"/>
<path d="M1302.13 435.586L1302.02 441.306L1334.5 460.079L1334.6 454.359L1302.13 435.586Z" fill="url(#paint38_linear_2664_86728)"/>
<path d="M1360.76 444.889L1360.63 450.63L1392.82 469.172L1392.94 463.431L1360.76 444.889Z" fill="url(#paint39_linear_2664_86728)"/>
<path d="M1296.14 437.933L1296.24 432.192L1236.42 397.936L1236.3 403.676L1296.14 437.933Z" fill="url(#paint40_linear_2664_86728)"/>
<path d="M1344.41 448.033L1344.3 453.753L1402.8 487.382L1402.91 481.662L1344.41 448.033Z" fill="url(#paint41_linear_2664_86728)"/>
<path d="M1266.64 432.57L1266.74 426.829L1221.13 401.016L1221.02 406.757L1266.64 432.57Z" fill="url(#paint42_linear_2664_86728)"/>
<path d="M1227.56 368.268L1227.45 374.009L1267.89 397.119L1268 391.399L1227.56 368.268Z" fill="url(#paint43_linear_2664_86728)"/>
<path d="M1302.44 411.261L1273.89 394.793L1273.78 400.513L1302.34 416.981L1302.44 411.261Z" fill="url(#paint44_linear_2664_86728)"/>
<path d="M1290.08 452.662L1261.17 436.047L1261.06 441.788L1289.96 458.382L1290.08 452.662Z" fill="url(#paint45_linear_2664_86728)"/>
<path d="M1397.08 508.04L1422.54 522.916L1422.64 517.175L1397.2 502.32L1397.08 508.04Z" fill="url(#paint46_linear_2664_86728)"/>
<path d="M1209.26 406.526L1200.27 401.309L1200.15 407.05L1209.16 412.246L1209.26 406.526Z" fill="url(#paint47_linear_2664_86728)"/>
<path d="M1182.78 343.334L1182.68 349.075L1222.7 372.018L1222.8 366.277L1182.78 343.334Z" fill="url(#paint48_linear_2664_86728)"/>
<path d="M1403.23 499.532L1412.63 505.064L1412.74 499.323L1403.33 493.812L1403.23 499.532Z" fill="url(#paint49_linear_2664_86728)"/>
<path d="M1408.7 490.774L1435.14 506.321L1435.24 500.58L1408.8 485.033L1408.7 490.774Z" fill="url(#paint50_linear_2664_86728)"/>
<path d="M1340.38 463.473L1397.41 496.159L1397.52 490.439L1340.49 457.732L1340.38 463.473Z" fill="url(#paint51_linear_2664_86728)"/>
<path d="M1398.83 466.826L1398.7 472.567L1419.82 484.719L1419.93 478.999L1398.83 466.826Z" fill="url(#paint52_linear_2664_86728)"/>
<path d="M1215.24 397.705L1200.51 389.408L1200.38 395.128L1215.11 403.446L1215.24 397.705Z" fill="url(#paint53_linear_2664_86728)"/>
<path d="M1391.4 498.946L1356.94 479.062L1356.81 484.803L1391.3 504.666L1391.4 498.946Z" fill="url(#paint54_linear_2664_86728)"/>
<path d="M1230.52 394.562L1200.75 377.486L1200.64 383.227L1230.41 400.303L1230.52 394.562Z" fill="url(#paint55_linear_2664_86728)"/>
<path d="M1268.25 404.157L1200.97 365.584L1200.87 371.304L1268.12 409.898L1268.25 404.157Z" fill="url(#paint56_linear_2664_86728)"/>
</g>
</g>
<g style="mix-blend-mode:screen">
<path d="M1182.24 239.578L1192.89 245.738V257.953L1182.24 251.793V239.578ZM1182.24 283.578L1192.89 289.738V301.953L1182.24 295.793V283.578Z" fill="white"/>
<path d="M1202.95 232.957L1221.24 243.433V253.909L1214.01 249.719V321.166L1221.24 325.356V335.728L1202.95 325.252V232.957Z" fill="white"/>
</g>
<g style="mix-blend-mode:screen">
<path d="M1307.12 289.297L1313.19 292.796V285.819L1307.12 282.32V289.297Z" fill="black"/>
<path d="M1295.71 282.698L1301.79 286.218V279.241L1295.71 275.721V282.698Z" fill="black"/>
<path d="M1284.28 276.098L1290.36 279.618V272.641L1284.28 269.121V276.098Z" fill="black"/>
<path d="M1272.86 269.52L1278.94 273.019V266.042L1272.86 262.543V269.52Z" fill="black"/>
<path d="M1261.45 262.92L1267.52 266.44V259.463L1261.45 255.943V262.92Z" fill="black"/>
<path d="M1250 256.319L1256.1 259.839V252.862L1250 249.342V256.319Z" fill="black"/>
<path d="M1238.59 249.741L1244.66 253.24V246.263L1238.59 242.764V249.741Z" fill="black"/>
<path d="M1307.12 301.702L1313.19 305.201V298.224L1307.12 294.725V301.702Z" fill="black"/>
<path d="M1295.71 295.102L1301.79 298.601V291.624L1295.71 288.125V295.102Z" fill="black"/>
<path d="M1284.28 288.502L1290.36 292.022V285.045L1284.28 281.525V288.502Z" fill="black"/>
<path d="M1272.86 281.924L1278.94 285.423V278.446L1272.86 274.926V281.924Z" fill="black"/>
<path d="M1261.45 275.323L1267.52 278.822V271.845L1261.45 268.346V275.323Z" fill="black"/>
<path d="M1250 268.723L1256.1 272.243V265.266L1250 261.746V268.723Z" fill="black"/>
<path d="M1238.59 262.124L1244.66 265.644V258.666L1238.59 255.146V262.124Z" fill="black"/>
<path d="M1307.12 314.001L1313.19 317.5V310.522L1307.12 307.023V314.001Z" fill="white"/>
<path d="M1295.71 307.401L1301.79 310.921V303.944L1295.71 300.424V307.401Z" fill="white"/>
<path d="M1284.28 300.801L1290.36 304.321V297.344L1284.28 293.824V300.801Z" fill="white"/>
<path d="M1272.86 294.223L1278.94 297.722V290.745L1272.86 287.246V294.223Z" fill="black"/>
<path d="M1261.45 287.622L1267.52 291.142V284.144L1261.45 280.645V287.622Z" fill="white"/>
<path d="M1250 281.022L1256.1 284.542V277.565L1250 274.045V281.022Z" fill="white"/>
<path d="M1238.59 274.444L1244.66 277.943V270.966L1238.59 267.467V274.444Z" fill="white"/>
<path d="M1307.12 326.405L1313.19 329.904V322.927L1307.12 319.428V326.405Z" fill="white"/>
<path d="M1295.71 319.805L1301.79 323.304V316.348L1295.71 312.828V319.805Z" fill="black"/>
<path d="M1284.28 313.206L1290.36 316.726V309.749L1284.28 306.229V313.206Z" fill="white"/>
<path d="M1272.86 306.605L1278.94 310.125V303.147L1272.86 299.648V306.605Z" fill="black"/>
<path d="M1261.45 300.026L1267.52 303.525V296.548L1261.45 293.049V300.026Z" fill="black"/>
<path d="M1250 293.426L1256.1 296.946V289.969L1250 286.449V293.426Z" fill="black"/>
<path d="M1238.59 286.827L1244.66 290.347V283.37L1238.59 279.85V286.827Z" fill="white"/>
<path d="M1307.12 338.62L1313.19 342.119V335.142L1307.12 331.643V338.62Z" fill="black"/>
<path d="M1295.71 332.02L1301.79 335.54V328.563L1295.71 325.043V332.02Z" fill="white"/>
<path d="M1284.28 325.42L1290.36 328.94V321.963L1284.28 318.443V325.42Z" fill="white"/>
<path d="M1272.86 318.842L1278.94 322.341V315.364L1272.86 311.865V318.842Z" fill="black"/>
<path d="M1261.45 312.241L1267.52 315.74V308.763L1261.45 305.264V312.241Z" fill="black"/>
<path d="M1250 305.641L1256.1 309.161V302.184L1250 298.664V305.641Z" fill="white"/>
<path d="M1238.59 299.042L1244.66 302.562V295.584L1238.59 292.064V299.042Z" fill="white"/>
<path d="M1307.12 351.024L1313.19 354.523V347.546L1307.12 344.047V351.024Z" fill="white"/>
<path d="M1295.71 344.424L1301.79 347.923V340.946L1295.71 337.447V344.424Z" fill="black"/>
<path d="M1284.28 337.825L1290.36 341.345V334.368L1284.28 330.848V337.825Z" fill="white"/>
<path d="M1272.86 331.223L1278.94 334.743V327.766L1272.86 324.246V331.223Z" fill="black"/>
<path d="M1261.45 324.645L1267.52 328.144V321.167L1261.45 317.668V324.645Z" fill="black"/>
<path d="M1250 318.045L1256.1 321.544V314.588L1250 311.068V318.045Z" fill="black"/>
<path d="M1238.59 311.446L1244.66 314.966V307.989L1238.59 304.469V311.446Z" fill="white"/>
<path d="M1307.12 363.323L1313.19 366.822V359.845L1307.12 356.346V363.323Z" fill="white"/>
<path d="M1295.71 356.723L1301.79 360.243V353.266L1295.71 349.746V356.723Z" fill="black"/>
<path d="M1284.28 350.124L1290.36 353.644V346.666L1284.28 343.146V350.124Z" fill="white"/>
<path d="M1272.86 343.543L1278.94 347.043V340.065L1272.86 336.566V343.543Z" fill="black"/>
<path d="M1261.45 336.944L1267.52 340.443V333.466L1261.45 329.967V336.944Z" fill="white"/>
<path d="M1250 330.344L1256.1 333.864V326.887L1250 323.367V330.344Z" fill="white"/>
<path d="M1238.59 323.745L1244.66 327.265V320.288L1238.59 316.768V323.745Z" fill="white"/>
<path d="M1307.12 375.727L1313.19 379.226V372.249L1307.12 368.75V375.727Z" fill="black"/>
<path d="M1295.71 369.126L1301.79 372.625V365.647L1295.71 362.148V369.126Z" fill="black"/>
<path d="M1284.28 362.528L1290.36 366.048V359.071L1284.28 355.551V362.528Z" fill="black"/>
<path d="M1272.86 355.926L1278.94 359.446V352.469L1272.86 348.949V355.926Z" fill="black"/>
<path d="M1261.45 349.348L1267.52 352.847V345.87L1261.45 342.371V349.348Z" fill="black"/>
<path d="M1250 342.749L1256.1 346.269V339.271L1250 335.771V342.749Z" fill="black"/>
<path d="M1238.59 336.147L1244.66 339.667V332.69L1238.59 329.17V336.147Z" fill="black"/>
<path d="M1307.12 388.36L1313.19 391.859V384.882L1307.12 381.383V388.36Z" fill="black"/>
<path d="M1295.71 381.76L1301.79 385.28V378.303L1295.71 374.783V381.76Z" fill="black"/>
<path d="M1284.28 375.161L1290.36 378.681V371.704L1284.28 368.184V375.161Z" fill="black"/>
<path d="M1272.86 368.583L1278.94 372.082V365.104L1272.86 361.605V368.583Z" fill="black"/>
<path d="M1261.45 361.983L1267.52 365.482V358.526L1261.45 355.006V361.983Z" fill="black"/>
<path d="M1250 355.381L1256.1 358.901V351.924L1250 348.404V355.381Z" fill="black"/>
<path d="M1238.59 348.782L1244.66 352.302V345.325L1238.59 341.826V348.782Z" fill="black"/>
<path d="M1307.12 400.764L1313.19 404.263V397.286L1307.12 393.787V400.764Z" fill="black"/>
<path d="M1295.71 394.165L1301.79 397.664V390.687L1295.71 387.188V394.165Z" fill="black"/>
<path d="M1284.28 387.565L1290.36 391.085V384.108L1284.28 380.588V387.565Z" fill="black"/>
<path d="M1272.86 380.986L1278.94 384.485V377.508L1272.86 373.988V380.986Z" fill="black"/>
<path d="M1261.45 374.385L1267.52 377.884V370.907L1261.45 367.408V374.385Z" fill="black"/>
<path d="M1250 367.786L1256.1 371.285V364.329L1250 360.809V367.786Z" fill="black"/>
<path d="M1238.59 361.186L1244.66 364.706V357.729L1238.59 354.209V361.186Z" fill="black"/>
<path d="M1443.92 368.561L1450 372.06V365.083L1443.92 361.584V368.561Z" fill="black"/>
<path d="M1432.5 361.961L1438.58 365.481V358.504L1432.5 354.984V361.961Z" fill="black"/>
<path d="M1421.09 355.36L1427.16 358.88V351.903L1421.09 348.383V355.36Z" fill="black"/>
<path d="M1409.66 348.782L1415.74 352.281V345.304L1409.66 341.805V348.782Z" fill="black"/>
<path d="M1398.24 342.182L1404.32 345.681V338.725L1398.24 335.205V342.182Z" fill="black"/>
<path d="M1386.82 335.583L1392.9 339.103V332.125L1386.82 328.605V335.583Z" fill="black"/>
<path d="M1375.38 328.983L1381.47 332.503V325.526L1375.38 322.006V328.983Z" fill="black"/>
<path d="M1363.96 322.403L1370.04 325.902V318.925L1363.96 315.426V322.403Z" fill="black"/>
<path d="M1352.55 315.803L1358.63 319.323V312.346L1352.55 308.826V315.803Z" fill="black"/>
<path d="M1341.12 309.204L1347.2 312.724V305.747L1341.12 302.227V309.204Z" fill="black"/>
<path d="M1329.71 302.626L1335.79 306.125V299.147L1329.71 295.648V302.626Z" fill="black"/>
<path d="M1318.29 296.024L1324.37 299.523V292.546L1318.29 289.047V296.024Z" fill="black"/>
<path d="M1443.92 380.965L1450 384.464V377.487L1443.92 373.988V380.965Z" fill="black"/>
<path d="M1432.5 374.364L1438.58 377.884V370.886L1432.5 367.387V374.364Z" fill="black"/>
<path d="M1421.09 367.764L1427.16 371.284V364.307L1421.09 360.787V367.764Z" fill="black"/>
<path d="M1409.66 361.186L1415.74 364.685V357.708L1409.66 354.209V361.186Z" fill="black"/>
<path d="M1398.24 354.586L1404.32 358.085V351.108L1398.24 347.609V354.586Z" fill="black"/>
<path d="M1386.82 347.985L1392.9 351.505V344.528L1386.82 341.008V347.985Z" fill="black"/>
<path d="M1375.38 341.385L1381.47 344.905V337.928L1375.38 334.408V341.385Z" fill="black"/>
<path d="M1363.96 334.807L1370.04 338.306V331.329L1363.96 327.83V334.807Z" fill="black"/>
<path d="M1352.55 328.206L1358.63 331.705V324.728L1352.55 321.229V328.206Z" fill="black"/>
<path d="M1341.12 321.608L1347.2 325.128V318.151L1341.12 314.631V321.608Z" fill="black"/>
<path d="M1329.71 315.006L1335.79 318.526V311.549L1329.71 308.029V315.006Z" fill="black"/>
<path d="M1318.29 308.428L1324.37 311.927V304.95L1318.29 301.451V308.428Z" fill="black"/>
<path d="M1443.92 393.264L1450 396.763V389.807L1443.92 386.287V393.264Z" fill="white"/>
<path d="M1432.5 386.665L1438.58 390.185V383.207L1432.5 379.688V386.665Z" fill="white"/>
<path d="M1421.09 380.064L1427.16 383.584V376.606L1421.09 373.107V380.064Z" fill="white"/>
<path d="M1409.66 373.485L1415.74 376.984V370.007L1409.66 366.508V373.485Z" fill="black"/>
<path d="M1398.24 366.885L1404.32 370.405V363.428L1398.24 359.908V366.885Z" fill="white"/>
<path d="M1386.82 360.286L1392.9 363.806V356.829L1386.82 353.309V360.286Z" fill="white"/>
<path d="M1375.38 353.706L1381.47 357.205V350.228L1375.38 346.729V353.706Z" fill="white"/>
<path d="M1363.96 347.106L1370.04 350.605V343.628L1363.96 340.129V347.106Z" fill="black"/>
<path d="M1352.55 340.506L1358.63 344.026V337.049L1352.55 333.529V340.506Z" fill="white"/>
<path d="M1341.12 333.905L1347.2 337.425V330.448L1341.12 326.928V333.905Z" fill="white"/>
<path d="M1329.71 327.327L1335.79 330.826V323.849L1329.71 320.35V327.327Z" fill="white"/>
<path d="M1318.29 320.727L1324.37 324.226V317.27L1318.29 313.75V320.727Z" fill="black"/>
<path d="M1443.92 405.667L1450 409.166V402.188L1443.92 398.689V405.667Z" fill="white"/>
<path d="M1432.5 399.067L1438.58 402.587V395.61L1432.5 392.09V399.067Z" fill="black"/>
<path d="M1421.09 392.467L1427.16 395.987V389.01L1421.09 385.49V392.467Z" fill="white"/>
<path d="M1409.66 385.889L1415.74 389.388V382.411L1409.66 378.912V385.889Z" fill="black"/>
<path d="M1398.24 379.288L1404.32 382.787V375.81L1398.24 372.311V379.288Z" fill="white"/>
<path d="M1386.82 372.688L1392.9 376.208V369.231L1386.82 365.711V372.688Z" fill="black"/>
<path d="M1375.38 366.088L1381.47 369.608V362.631L1375.38 359.111V366.088Z" fill="white"/>
<path d="M1363.96 359.508L1370.04 363.007V356.03L1363.96 352.531V359.508Z" fill="black"/>
<path d="M1352.55 352.911L1358.63 356.431V349.433L1352.55 345.934V352.911Z" fill="white"/>
<path d="M1341.12 346.309L1347.2 349.829V342.852L1341.12 339.332V346.309Z" fill="black"/>
<path d="M1329.71 339.73L1335.79 343.229V336.252L1329.71 332.732V339.73Z" fill="white"/>
<path d="M1318.29 333.131L1324.37 336.63V329.653L1318.29 326.154V333.131Z" fill="black"/>
<path d="M1443.92 417.883L1450 421.382V414.405L1443.92 410.906V417.883Z" fill="black"/>
<path d="M1432.5 411.282L1438.58 414.802V407.825L1432.5 404.305V411.282Z" fill="white"/>
<path d="M1421.09 404.682L1427.16 408.202V401.225L1421.09 397.705V404.682Z" fill="white"/>
<path d="M1409.66 398.104L1415.74 401.603V394.626L1409.66 391.127V398.104Z" fill="black"/>
<path d="M1398.24 391.502L1404.32 395.002V388.024L1398.24 384.525V391.502Z" fill="white"/>
<path d="M1386.82 384.903L1392.9 388.423V381.446L1386.82 377.926V384.903Z" fill="black"/>
<path d="M1375.38 378.303L1381.47 381.823V374.846L1375.38 371.326V378.303Z" fill="white"/>
<path d="M1363.96 371.725L1370.04 375.224V368.247L1363.96 364.748V371.725Z" fill="black"/>
<path d="M1352.55 365.126L1358.63 368.625V361.668L1352.55 358.148V365.126Z" fill="black"/>
<path d="M1341.12 358.524L1347.2 362.044V355.067L1341.12 351.547V358.524Z" fill="white"/>
<path d="M1329.71 351.925L1335.79 355.445V348.468L1329.71 344.969V351.925Z" fill="white"/>
<path d="M1318.29 345.346L1324.37 348.845V341.868L1318.29 338.369V345.346Z" fill="black"/>
<path d="M1443.92 430.286L1450 433.785V426.808L1443.92 423.309V430.286Z" fill="white"/>
<path d="M1432.5 423.686L1438.58 427.185V420.208L1432.5 416.709V423.686Z" fill="black"/>
<path d="M1421.09 417.086L1427.16 420.606V413.629L1421.09 410.109V417.086Z" fill="white"/>
<path d="M1409.66 410.487L1415.74 414.007V407.03L1409.66 403.51V410.487Z" fill="black"/>
<path d="M1398.24 403.907L1404.32 407.406V400.429L1398.24 396.93V403.907Z" fill="white"/>
<path d="M1386.82 397.307L1392.9 400.827V393.829L1386.82 390.33V397.307Z" fill="black"/>
<path d="M1375.38 390.708L1381.47 394.228V387.25L1375.38 383.73V390.708Z" fill="white"/>
<path d="M1363.96 384.129L1370.04 387.628V380.651L1363.96 377.131V384.129Z" fill="black"/>
<path d="M1352.55 377.528L1358.63 381.027V374.05L1352.55 370.551V377.528Z" fill="white"/>
<path d="M1341.12 370.928L1347.2 374.448V367.471L1341.12 363.951V370.928Z" fill="black"/>
<path d="M1329.71 364.329L1335.79 367.849V360.872L1329.71 357.352V364.329Z" fill="white"/>
<path d="M1318.29 357.749L1324.37 361.248V354.271L1318.29 350.771V357.749Z" fill="black"/>
<path d="M1443.92 442.585L1450 446.084V439.106L1443.92 435.607V442.585Z" fill="white"/>
<path d="M1432.5 435.985L1438.58 439.505V432.528L1432.5 429.008V435.985Z" fill="black"/>
<path d="M1421.09 429.385L1427.16 432.905V425.928L1421.09 422.408V429.385Z" fill="white"/>
<path d="M1409.66 422.807L1415.74 426.306V419.329L1409.66 415.83V422.807Z" fill="black"/>
<path d="M1398.24 416.206L1404.32 419.726V412.728L1398.24 409.229V416.206Z" fill="white"/>
<path d="M1386.82 409.606L1392.9 413.126V406.149L1386.82 402.629V409.606Z" fill="white"/>
<path d="M1375.38 403.027L1381.47 406.526V399.549L1375.38 396.029V403.027Z" fill="white"/>
<path d="M1363.96 396.426L1370.04 399.925V392.948L1363.96 389.449V396.426Z" fill="black"/>
<path d="M1352.55 389.829L1358.63 393.349V386.372L1352.55 382.852V389.829Z" fill="white"/>
<path d="M1341.12 383.227L1347.2 386.747V379.77L1341.12 376.25V383.227Z" fill="black"/>
<path d="M1329.71 376.649L1335.79 380.148V373.171L1329.71 369.672V376.649Z" fill="white"/>
<path d="M1318.29 370.047L1324.37 373.546V366.569L1318.29 363.07V370.047Z" fill="black"/>
<path d="M1443.92 454.989L1450 458.488V451.511L1443.92 448.012V454.989Z" fill="black"/>
<path d="M1432.5 448.389L1438.58 451.888V444.932L1432.5 441.412V448.389Z" fill="black"/>
<path d="M1421.09 441.79L1427.16 445.31V438.332L1421.09 434.812V441.79Z" fill="black"/>
<path d="M1409.66 435.189L1415.74 438.709V431.731L1409.66 428.232V435.189Z" fill="black"/>
<path d="M1398.24 428.61L1404.32 432.109V425.132L1398.24 421.633V428.61Z" fill="black"/>
<path d="M1386.82 422.01L1392.9 425.53V418.553L1386.82 415.033V422.01Z" fill="black"/>
<path d="M1375.38 415.411L1381.47 418.931V411.954L1375.38 408.434V415.411Z" fill="black"/>
<path d="M1363.96 408.831L1370.04 412.33V405.353L1363.96 401.854V408.831Z" fill="black"/>
<path d="M1352.55 402.231L1358.63 405.73V398.753L1352.55 395.254V402.231Z" fill="black"/>
<path d="M1341.12 395.631L1347.2 399.151V392.174L1341.12 388.654V395.631Z" fill="black"/>
<path d="M1329.71 389.032L1335.79 392.552V385.575L1329.71 382.055V389.032Z" fill="black"/>
<path d="M1318.29 382.452L1324.37 385.951V378.974L1318.29 375.475V382.452Z" fill="black"/>
<path d="M1443.92 467.624L1450 471.123V464.146L1443.92 460.646V467.624Z" fill="black"/>
<path d="M1432.5 461.024L1438.58 464.544V457.567L1432.5 454.047V461.024Z" fill="black"/>
<path d="M1421.09 454.422L1427.16 457.942V450.965L1421.09 447.445V454.422Z" fill="black"/>
<path d="M1409.66 447.844L1415.74 451.343V444.366L1409.66 440.867V447.844Z" fill="black"/>
<path d="M1398.24 441.245L1404.32 444.744V437.767L1398.24 434.268V441.245Z" fill="black"/>
<path d="M1386.82 434.643L1392.9 438.163V431.186L1386.82 427.666V434.643Z" fill="black"/>
<path d="M1375.38 428.064L1381.47 431.563V424.586L1375.38 421.066V428.064Z" fill="black"/>
<path d="M1363.96 421.465L1370.04 424.964V417.987L1363.96 414.488V421.465Z" fill="black"/>
<path d="M1352.55 414.866L1358.63 418.386V411.409L1352.55 407.889V414.866Z" fill="black"/>
<path d="M1341.12 408.266L1347.2 411.786V404.809L1341.12 401.289V408.266Z" fill="black"/>
<path d="M1329.71 401.686L1335.79 405.185V398.208L1329.71 394.709V401.686Z" fill="black"/>
<path d="M1318.29 395.086L1324.37 398.585V391.608L1318.29 388.109V395.086Z" fill="black"/>
<path d="M1443.92 480.026L1450 483.525V476.548L1443.92 473.049V480.026Z" fill="black"/>
<path d="M1432.5 473.426L1438.58 476.946V469.969L1432.5 466.449V473.426Z" fill="black"/>
<path d="M1421.09 466.827L1427.16 470.347V463.37L1421.09 459.85V466.827Z" fill="black"/>
<path d="M1409.66 460.249L1415.74 463.748V456.771L1409.66 453.271V460.249Z" fill="black"/>
<path d="M1398.24 453.647L1404.32 457.146V450.169L1398.24 446.67V453.647Z" fill="black"/>
<path d="M1386.82 447.047L1392.9 450.567V443.59L1386.82 440.07V447.047Z" fill="black"/>
<path d="M1375.38 440.448L1381.47 443.968V436.991L1375.38 433.471V440.448Z" fill="black"/>
<path d="M1363.96 433.868L1370.04 437.367V430.39L1363.96 426.891V433.868Z" fill="black"/>
<path d="M1352.55 427.268L1358.63 430.767V423.79L1352.55 420.291V427.268Z" fill="black"/>
<path d="M1341.12 420.67L1347.2 424.19V417.213L1341.12 413.693V420.67Z" fill="black"/>
<path d="M1329.71 414.069L1335.79 417.589V410.612L1329.71 407.092V414.069Z" fill="black"/>
<path d="M1318.29 407.491L1324.37 410.99V404.013L1318.29 400.514V407.491Z" fill="black"/>
</g>
<path d="M1377.26 464.118C1360.38 454.372 1346.63 462.21 1346.63 481.583C1346.63 500.956 1360.38 524.677 1377.26 534.441C1394.14 544.205 1407.91 536.349 1407.91 516.959C1407.91 497.569 1394.16 473.882 1377.26 464.118ZM1386.29 491.072C1387.58 491.913 1388.66 493.047 1389.43 494.382C1390.21 495.717 1390.65 497.215 1390.74 498.755C1390.74 501.574 1388.75 502.726 1386.29 501.299C1384.99 500.461 1383.91 499.328 1383.13 497.992C1382.36 496.657 1381.91 495.158 1381.82 493.616C1381.82 490.779 1383.81 489.645 1386.29 491.072ZM1368.26 480.672C1369.55 481.51 1370.63 482.644 1371.41 483.979C1372.18 485.315 1372.63 486.814 1372.71 488.356C1372.71 491.175 1370.72 492.309 1368.26 490.9C1366.96 490.056 1365.88 488.919 1365.11 487.581C1364.34 486.243 1363.89 484.742 1363.81 483.199C1363.81 480.362 1365.8 479.245 1368.26 480.672V480.672ZM1377.4 506.456C1383.93 510.221 1389.95 517.853 1393.1 526.104C1393.73 527.823 1393.1 529.147 1391.93 528.975C1391.29 528.776 1390.71 528.425 1390.23 527.952C1389.76 527.479 1389.41 526.898 1389.21 526.259C1386.97 520.2 1382.83 515.03 1377.4 511.527C1372.33 508.588 1367.72 509.189 1365.37 512.902C1364.85 513.727 1363.65 513.607 1362.67 512.593C1362.08 512.08 1361.65 511.406 1361.43 510.653C1361.21 509.899 1361.21 509.099 1361.43 508.347C1364.53 503.448 1370.66 502.709 1377.4 506.525V506.456Z" fill="url(#paint57_linear_2664_86728)"/>
<path d="M1489.51 688.79C1490.6 690.806 1491.06 693.097 1490.84 695.375C1490.63 697.654 1489.74 699.816 1488.29 701.59C1486.84 703.363 1484.9 704.668 1482.71 705.339C1480.52 706.01 1478.19 706.017 1475.99 705.36C1473.8 704.702 1471.85 703.409 1470.39 701.645C1468.93 699.88 1468.03 697.723 1467.8 695.446C1467.57 693.169 1468.02 690.874 1469.09 688.853C1470.16 686.831 1471.81 685.172 1473.83 684.087C1475.17 683.365 1476.64 682.914 1478.15 682.759C1479.66 682.605 1481.19 682.75 1482.65 683.187C1484.1 683.624 1485.46 684.343 1486.64 685.305C1487.82 686.267 1488.79 687.451 1489.51 688.79V688.79Z" fill="url(#paint58_radial_2664_86728)"/>
<path d="M1440.5 592.633L1415.43 606.132L1465.2 698.518V698.613C1467.36 702.646 1474.77 702.886 1481.66 699.164C1488.54 695.442 1492.43 689.147 1490.26 685.115V685.019L1440.5 592.633Z" fill="url(#paint59_linear_2664_86728)"/>
<path d="M1440.52 592.68C1442.69 596.713 1438.85 603.008 1431.92 606.73C1424.99 610.452 1417.62 610.212 1415.46 606.191C1413.29 602.17 1417.13 595.864 1424.05 592.142C1430.97 588.42 1438.41 588.648 1440.52 592.68Z" fill="url(#paint60_linear_2664_86728)"/>
<path d="M1424.04 574.334L1409.13 582.364L1419.74 602.038V602.098C1421.03 604.491 1425.43 604.635 1429.54 602.421C1433.66 600.207 1435.95 596.437 1434.66 594.044V593.984L1424.04 574.334Z" fill="url(#paint61_linear_2664_86728)"/>
<path d="M1380.31 573.529C1342.55 551.736 1311.95 498.973 1311.95 455.665C1311.95 438.264 1316.88 425.053 1325.24 416.867C1309.33 422.037 1299.12 438.408 1299.12 463.455C1299.12 506.764 1329.72 559.527 1367.48 581.319C1390.07 594.351 1410.09 593.346 1422.54 581.152C1410.86 584.933 1396.24 582.731 1380.31 573.529Z" fill="url(#paint62_linear_2664_86728)"/>
<path style="mix-blend-mode:screen" opacity="0.5" d="M1416.79 579.278C1441.9 564.605 1441.64 517.469 1416.22 473.996C1390.8 430.524 1349.83 407.177 1324.72 421.85C1299.61 436.523 1299.87 483.659 1325.29 527.132C1350.71 570.605 1391.68 593.951 1416.79 579.278Z" fill="url(#paint63_radial_2664_86728)"/>
<path style="mix-blend-mode:multiply" d="M1416.79 579.278C1441.9 564.605 1441.64 517.469 1416.22 473.996C1390.8 430.524 1349.83 407.177 1324.72 421.85C1299.61 436.523 1299.87 483.659 1325.29 527.132C1350.71 570.605 1391.68 593.951 1416.79 579.278Z" fill="url(#paint64_radial_2664_86728)"/>
<path d="M1381.97 416.223C1363.4 405.453 1346.57 404.256 1334.25 410.946C1333.9 411.137 1316.22 420.998 1315.67 421.848C1328.21 412.394 1346.8 412.537 1367.47 424.492C1405.23 446.285 1435.83 499.048 1435.83 542.356C1435.83 564.46 1427.87 579.814 1415.05 586.635C1416.21 586.28 1417.33 585.79 1418.38 585.175L1431.21 577.48C1443.07 570.228 1450.36 555.245 1450.36 534.087C1450.36 490.778 1419.73 438.003 1381.97 416.223Z" fill="url(#paint65_linear_2664_86728)"/>
<path d="M1367.48 424.468C1329.72 402.676 1299.12 420.124 1299.12 463.433C1299.12 506.742 1329.72 559.504 1367.48 581.297C1405.23 603.089 1435.83 585.641 1435.83 542.332C1435.83 499.023 1405.23 446.284 1367.48 424.468ZM1367 576.103C1332.15 555.986 1303.88 507.268 1303.88 467.286C1303.88 427.304 1332.15 411.196 1367 431.313C1401.85 451.43 1430.11 500.148 1430.11 540.13C1430.11 580.112 1401.86 596.244 1367 576.127V576.103Z" fill="url(#paint66_linear_2664_86728)"/>
<path style="mix-blend-mode:color-dodge" d="M1370.76 422.851C1352.66 412.404 1336.22 410.992 1323.98 417.107C1335.44 413.924 1352.2 415.647 1367.48 424.467C1405.24 446.259 1435.84 499.022 1435.84 542.331C1435.84 564.877 1424.91 581.056 1411.63 587.698C1428.32 583.031 1439.16 566.433 1439.16 540.691C1439.12 497.466 1408.47 444.644 1370.76 422.851Z" fill="url(#paint67_radial_2664_86728)"/>
<path style="mix-blend-mode:screen" opacity="0.5" d="M1361.79 478.068C1372.77 467.055 1384.93 457.29 1398.06 448.952C1390.19 440.042 1380.98 432.414 1370.76 426.346C1335.04 405.715 1306.12 422.229 1306.12 463.217C1306.12 483.824 1313.46 506.705 1325.27 526.977C1334.96 508.962 1347.27 492.48 1361.79 478.068V478.068Z" fill="url(#paint68_radial_2664_86728)"/>
</g>
<defs>
<filter id="filter0_bf_2664_86728" x="545" y="-91" width="1501.34" height="909.607" filterUnits="userSpaceOnUse" color-interpolation-filters="sRGB">
<feFlood flood-opacity="0" result="BackgroundImageFix"/>
<feGaussianBlur in="BackgroundImageFix" stdDeviation="2"/>
<feComposite in2="SourceAlpha" operator="in" result="effect1_backgroundBlur_2664_86728"/>
<feBlend mode="normal" in="SourceGraphic" in2="effect1_backgroundBlur_2664_86728" result="shape"/>
<feGaussianBlur stdDeviation="125" result="effect2_foregroundBlur_2664_86728"/>
</filter>
<filter id="filter1_d_2664_86728" x="1172.67" y="507.557" width="256.602" height="163.566" filterUnits="userSpaceOnUse" color-interpolation-filters="sRGB">
<feFlood flood-opacity="0" result="BackgroundImageFix"/>
<feColorMatrix in="SourceAlpha" type="matrix" values="0 0 0 0 0 0 0 0 0 0 0 0 0 0 0 0 0 0 127 0" result="hardAlpha"/>
<feOffset dy="15"/>
<feGaussianBlur stdDeviation="7.5"/>
<feComposite in2="hardAlpha" operator="out"/>
<feColorMatrix type="matrix" values="0 0 0 0 0 0 0 0 0 0 0 0 0 0 0 0 0 0 0.45 0"/>
<feBlend mode="normal" in2="BackgroundImageFix" result="effect1_dropShadow_2664_86728"/>
<feBlend mode="normal" in="SourceGraphic" in2="effect1_dropShadow_2664_86728" result="shape"/>
</filter>
<linearGradient id="paint0_linear_2664_86728" x1="1545.19" y1="518.453" x2="747.732" y2="683.868" gradientUnits="userSpaceOnUse">
<stop offset="0.0723636" stop-color="#6FA300"/>
<stop offset="1" stop-color="white" stop-opacity="0.5"/>
</linearGradient>
<linearGradient id="paint1_linear_2664_86728" x1="1308.48" y1="880.658" x2="1309" y2="881.515" gradientUnits="userSpaceOnUse">
<stop stop-color="#94A76C"/>
<stop offset="1" stop-color="#628023"/>
</linearGradient>
<linearGradient id="paint2_linear_2664_86728" x1="1240.8" y1="867.514" x2="1241.31" y2="868.375" gradientUnits="userSpaceOnUse">
<stop stop-color="#94A76C"/>
<stop offset="1" stop-color="#628023"/>
</linearGradient>
<linearGradient id="paint3_linear_2664_86728" x1="1173.73" y1="854.364" x2="1174.23" y2="855.233" gradientUnits="userSpaceOnUse">
<stop stop-color="#94A76C"/>
<stop offset="1" stop-color="#628023"/>
</linearGradient>
<linearGradient id="paint4_linear_2664_86728" x1="1323.87" y1="854.819" x2="1323.36" y2="855.677" gradientUnits="userSpaceOnUse">
<stop stop-color="#94A76C"/>
<stop offset="1" stop-color="#628023"/>
</linearGradient>
<linearGradient id="paint5_linear_2664_86728" x1="1257.45" y1="867.472" x2="1256.94" y2="868.336" gradientUnits="userSpaceOnUse">
<stop stop-color="#94A76C"/>
<stop offset="1" stop-color="#628023"/>
</linearGradient>
<linearGradient id="paint6_linear_2664_86728" x1="1191.29" y1="881.161" x2="1190.78" y2="882.02" gradientUnits="userSpaceOnUse">
<stop stop-color="#94A76C"/>
<stop offset="1" stop-color="#628023"/>
</linearGradient>
<linearGradient id="paint7_linear_2664_86728" x1="1479.38" y1="584.287" x2="1158.98" y2="184.8" gradientUnits="userSpaceOnUse">
<stop offset="0.04" stop-color="#9F19AB"/>
<stop offset="0.24" stop-color="#AE25B1"/>
<stop offset="0.65" stop-color="#D744BF"/>
<stop offset="1" stop-color="#FF63CE"/>
</linearGradient>
<linearGradient id="paint8_linear_2664_86728" x1="1192.66" y1="574.384" x2="1428.06" y2="574.384" gradientUnits="userSpaceOnUse">
<stop offset="0.0555556" stop-color="#3E3D3E"/>
<stop offset="0.2575" stop-color="#686868"/>
<stop offset="0.3569" stop-color="#868686"/>
<stop offset="0.4338" stop-color="#646464"/>
<stop offset="0.4949" stop-color="#535353"/>
<stop offset="0.5067" stop-color="#585858"/>
<stop offset="0.5196" stop-color="#919191"/>
<stop offset="0.5329" stop-color="#D6D6D6"/>
<stop offset="0.5466" stop-color="#FCFCFC"/>
<stop offset="0.5556" stop-color="white"/>
<stop offset="0.5678" stop-color="#D3D3D3"/>
<stop offset="0.5801" stop-color="#BCBCBC"/>
<stop offset="0.5915" stop-color="#A5A3A6"/>
<stop offset="0.601" stop-color="#A3A3A3"/>
<stop offset="0.658" stop-color="#707070"/>
<stop offset="0.7155" stop-color="#575757"/>
<stop offset="0.7687" stop-color="#676767"/>
<stop offset="0.8131" stop-color="#6D6D6D"/>
<stop offset="1" stop-color="#111111"/>
</linearGradient>
<linearGradient id="paint9_linear_2664_86728" x1="1366.36" y1="554.173" x2="1124.45" y2="559.957" gradientUnits="userSpaceOnUse">
<stop stop-color="#161616"/>
<stop offset="1" stop-color="#3A3D34"/>
</linearGradient>
<linearGradient id="paint10_linear_2664_86728" x1="1318.17" y1="561.337" x2="1339.44" y2="525.686" gradientUnits="userSpaceOnUse">
<stop stop-color="white"/>
<stop offset="1"/>
</linearGradient>
<radialGradient id="paint11_radial_2664_86728" cx="0" cy="0" r="1" gradientUnits="userSpaceOnUse" gradientTransform="translate(1318.88 609.795) scale(85.0199 85.0199)">
<stop stop-color="#FBFBFB"/>
<stop offset="1" stop-color="white"/>
</radialGradient>
<linearGradient id="paint12_linear_2664_86728" x1="1661.01" y1="269.734" x2="1130.59" y2="525.402" gradientUnits="userSpaceOnUse">
<stop stop-color="#161616"/>
<stop offset="0.2" stop-color="#606060"/>
<stop offset="0.49" stop-color="#504F4F"/>
<stop offset="0.809716" stop-color="#212121"/>
</linearGradient>
<linearGradient id="paint13_linear_2664_86728" x1="1574.97" y1="635.614" x2="1285.31" y2="172.783" gradientUnits="userSpaceOnUse">
<stop offset="0.06" stop-color="#200041"/>
<stop offset="0.26" stop-color="#210243"/>
<stop offset="0.36" stop-color="#25084B"/>
<stop offset="0.43" stop-color="#2C1358"/>
<stop offset="0.47" stop-color="#311B61"/>
<stop offset="0.48" stop-color="#351F65"/>
<stop offset="0.5" stop-color="#422C73"/>
<stop offset="0.51" stop-color="#584188"/>
<stop offset="0.52" stop-color="#765FA7"/>
<stop offset="0.53" stop-color="#8770B8"/>
<stop offset="0.54" stop-color="#7E67AE"/>
<stop offset="0.56" stop-color="#5C468D"/>
<stop offset="0.59" stop-color="#442E75"/>
<stop offset="0.61" stop-color="#362066"/>
<stop offset="0.63" stop-color="#311B61"/>
<stop offset="0.67" stop-color="#2A1155"/>
<stop offset="0.75" stop-color="#230446"/>
<stop offset="0.81" stop-color="#200041"/>
<stop offset="1" stop-color="#200041"/>
</linearGradient>
<linearGradient id="paint14_linear_2664_86728" x1="1574.97" y1="635.614" x2="1285.31" y2="172.783" gradientUnits="userSpaceOnUse">
<stop offset="0.06" stop-color="#200041"/>
<stop offset="0.26" stop-color="#210243"/>
<stop offset="0.36" stop-color="#25084B"/>
<stop offset="0.43" stop-color="#2C1358"/>
<stop offset="0.47" stop-color="#311B61"/>
<stop offset="0.48" stop-color="#351F65"/>
<stop offset="0.5" stop-color="#422C73"/>
<stop offset="0.51" stop-color="#584188"/>
<stop offset="0.52" stop-color="#765FA7"/>
<stop offset="0.53" stop-color="#8770B8"/>
<stop offset="0.54" stop-color="#7E67AE"/>
<stop offset="0.56" stop-color="#5C468D"/>
<stop offset="0.59" stop-color="#442E75"/>
<stop offset="0.61" stop-color="#362066"/>
<stop offset="0.63" stop-color="#311B61"/>
<stop offset="0.67" stop-color="#2A1155"/>
<stop offset="0.75" stop-color="#230446"/>
<stop offset="0.81" stop-color="#200041"/>
<stop offset="1" stop-color="#200041"/>
</linearGradient>
<linearGradient id="paint15_linear_2664_86728" x1="2286.37" y1="-750.3" x2="543.518" y2="702.968" gradientUnits="userSpaceOnUse">
<stop offset="0.0555556" stop-color="#3E3D3E"/>
<stop offset="0.2575" stop-color="#686868"/>
<stop offset="0.3569" stop-color="#868686"/>
<stop offset="0.4338" stop-color="#646464"/>
<stop offset="0.4949" stop-color="#535353"/>
<stop offset="0.5067" stop-color="#585858"/>
<stop offset="0.5196" stop-color="#919191"/>
<stop offset="0.5329" stop-color="#D6D6D6"/>
<stop offset="0.5466" stop-color="#FCFCFC"/>
<stop offset="0.5556" stop-color="white"/>
<stop offset="0.5678" stop-color="#D3D3D3"/>
<stop offset="0.5801" stop-color="#BCBCBC"/>
<stop offset="0.5915" stop-color="#A5A3A6"/>
<stop offset="0.601" stop-color="#A3A3A3"/>
<stop offset="0.658" stop-color="#707070"/>
<stop offset="0.7155" stop-color="#575757"/>
<stop offset="0.7687" stop-color="#676767"/>
<stop offset="0.8131" stop-color="#6D6D6D"/>
<stop offset="1" stop-color="#111111"/>
</linearGradient>
<radialGradient id="paint16_radial_2664_86728" cx="0" cy="0" r="1" gradientUnits="userSpaceOnUse" gradientTransform="translate(1485.34 373.54) scale(49.9359)">
<stop stop-color="#AF8AFC"/>
<stop offset="1" stop-color="#10054D"/>
</radialGradient>
<linearGradient id="paint17_linear_2664_86728" x1="1085.77" y1="573.816" x2="1146.53" y2="594.735" gradientUnits="userSpaceOnUse">
<stop stop-color="#A8F800"/>
<stop offset="0.09" stop-color="#A8F800"/>
<stop offset="0.21" stop-color="#CEFE67"/>
<stop offset="0.28" stop-color="#BAEC50"/>
<stop offset="0.41" stop-color="#8AC113"/>
<stop offset="0.54" stop-color="#7EAD19"/>
<stop offset="0.73" stop-color="#81B119"/>
<stop offset="0.9" stop-color="#85B916"/>
<stop offset="1" stop-color="#8BC510"/>
</linearGradient>
<linearGradient id="paint18_linear_2664_86728" x1="1167.9" y1="478.416" x2="1114.89" y2="579.473" gradientUnits="userSpaceOnUse">
<stop offset="0.04" stop-color="#A8F800"/>
<stop offset="0.24" stop-color="#91BC35"/>
<stop offset="0.65" stop-color="#B0DE4E"/>
<stop offset="1" stop-color="#6C9319"/>
</linearGradient>
<radialGradient id="paint19_radial_2664_86728" cx="0" cy="0" r="1" gradientUnits="userSpaceOnUse" gradientTransform="translate(1117.4 578.51) scale(22.57 22.57)">
<stop stop-color="white"/>
<stop offset="1"/>
</radialGradient>
<linearGradient id="paint20_linear_2664_86728" x1="1085.79" y1="578.355" x2="1146.54" y2="599.26" gradientUnits="userSpaceOnUse">
<stop stop-color="#A8F800"/>
<stop offset="0.09" stop-color="#A8F800"/>
<stop offset="0.21" stop-color="#CEFE67"/>
<stop offset="0.28" stop-color="#BAEC50"/>
<stop offset="0.41" stop-color="#8AC113"/>
<stop offset="0.54" stop-color="#7EAD19"/>
<stop offset="0.73" stop-color="#81B119"/>
<stop offset="0.9" stop-color="#85B916"/>
<stop offset="1" stop-color="#8BC510"/>
</linearGradient>
<linearGradient id="paint21_linear_2664_86728" x1="1103.09" y1="538.579" x2="1144.26" y2="547.26" gradientUnits="userSpaceOnUse">
<stop offset="0.01" stop-color="#C1A1D5"/>
<stop offset="0.05" stop-color="#C8ABDA"/>
<stop offset="0.11" stop-color="#DAC6E6"/>
<stop offset="0.2" stop-color="#F7F2F9"/>
<stop offset="0.22" stop-color="white"/>
<stop offset="0.25" stop-color="#F9F5FB"/>
<stop offset="0.31" stop-color="#E8DBEF"/>
<stop offset="0.36" stop-color="#D5BFE3"/>
<stop offset="0.4" stop-color="#C7AFE1"/>
<stop offset="0.48" stop-color="#B397DE"/>
<stop offset="0.55" stop-color="#A788DC"/>
<stop offset="0.61" stop-color="#A383DB"/>
<stop offset="0.76" stop-color="#AE8DDC"/>
<stop offset="1" stop-color="#C8A6DE"/>
</linearGradient>
<linearGradient id="paint22_linear_2664_86728" x1="1104.03" y1="498.371" x2="1127.18" y2="509.957" gradientUnits="userSpaceOnUse">
<stop offset="0.04" stop-color="#80AF1B"/>
<stop offset="0.24" stop-color="#84B025"/>
<stop offset="0.65" stop-color="#ACDC45"/>
<stop offset="1" stop-color="#CDFF63"/>
</linearGradient>
<linearGradient id="paint23_linear_2664_86728" x1="1099.35" y1="559.189" x2="1139.88" y2="567.715" gradientUnits="userSpaceOnUse">
<stop stop-color="#A8F800"/>
<stop offset="0.09" stop-color="#A8F800"/>
<stop offset="0.21" stop-color="#CEFE67"/>
<stop offset="0.28" stop-color="#BAEC50"/>
<stop offset="0.41" stop-color="#8AC113"/>
<stop offset="0.54" stop-color="#7EAD19"/>
<stop offset="0.73" stop-color="#81B119"/>
<stop offset="0.9" stop-color="#85B916"/>
<stop offset="1" stop-color="#8BC510"/>
</linearGradient>
<linearGradient id="paint24_linear_2664_86728" x1="1105.42" y1="535.439" x2="1135.22" y2="540.738" gradientUnits="userSpaceOnUse">
<stop stop-color="#A8F800"/>
<stop offset="0.09" stop-color="#A8F800"/>
<stop offset="0.21" stop-color="#CEFE67"/>
<stop offset="0.28" stop-color="#BAEC50"/>
<stop offset="0.41" stop-color="#8AC113"/>
<stop offset="0.54" stop-color="#7EAD19"/>
<stop offset="0.73" stop-color="#81B119"/>
<stop offset="0.9" stop-color="#85B916"/>
<stop offset="1" stop-color="#8BC510"/>
</linearGradient>
<linearGradient id="paint25_linear_2664_86728" x1="1111.53" y1="511.644" x2="1130.31" y2="514.203" gradientUnits="userSpaceOnUse">
<stop stop-color="#A8F800"/>
<stop offset="0.09" stop-color="#A8F800"/>
<stop offset="0.21" stop-color="#CEFE67"/>
<stop offset="0.28" stop-color="#BAEC50"/>
<stop offset="0.41" stop-color="#8AC113"/>
<stop offset="0.54" stop-color="#7EAD19"/>
<stop offset="0.73" stop-color="#81B119"/>
<stop offset="0.9" stop-color="#85B916"/>
<stop offset="1" stop-color="#8BC510"/>
</linearGradient>
<linearGradient id="paint26_linear_2664_86728" x1="1127.84" y1="506.933" x2="1113.77" y2="506.933" gradientUnits="userSpaceOnUse">
<stop offset="0.04" stop-color="#9F19AB"/>
<stop offset="0.16" stop-color="#AE25B1"/>
<stop offset="0.41" stop-color="#D744BF"/>
<stop offset="0.63" stop-color="#FF63CE"/>
<stop offset="0.87" stop-color="#DC48C1"/>
</linearGradient>
<linearGradient id="paint27_linear_2664_86728" x1="1120.92" y1="504.101" x2="1129.87" y2="515.87" gradientUnits="userSpaceOnUse">
<stop stop-color="#A8F800"/>
<stop offset="0.09" stop-color="#A8F800"/>
<stop offset="0.21" stop-color="#CEFE67"/>
<stop offset="0.28" stop-color="#BAEC50"/>
<stop offset="0.41" stop-color="#8AC113"/>
<stop offset="0.54" stop-color="#7EAD19"/>
<stop offset="0.73" stop-color="#81B119"/>
<stop offset="0.9" stop-color="#85B916"/>
<stop offset="1" stop-color="#8BC510"/>
</linearGradient>
<radialGradient id="paint28_radial_2664_86728" cx="0" cy="0" r="1" gradientUnits="userSpaceOnUse" gradientTransform="translate(1147.89 530.465) rotate(-10.6197) scale(7.51615 23.0448)">
<stop stop-color="#10054D"/>
<stop offset="0.1" stop-color="#0D043D"/>
<stop offset="0.32" stop-color="#070222"/>
<stop offset="0.54" stop-color="#03010F"/>
<stop offset="0.76" stop-color="#010004"/>
<stop offset="1"/>
</radialGradient>
<radialGradient id="paint29_radial_2664_86728" cx="0" cy="0" r="1" gradientUnits="userSpaceOnUse" gradientTransform="translate(1191.54 596.257) rotate(-167.899) scale(7.51615 23.0448)">
<stop stop-color="#972A74"/>
<stop offset="0.04" stop-color="#8A266A"/>
<stop offset="0.19" stop-color="#601B4A"/>
<stop offset="0.35" stop-color="#3D112F"/>
<stop offset="0.51" stop-color="#230A1B"/>
<stop offset="0.67" stop-color="#0F040C"/>
<stop offset="0.83" stop-color="#040103"/>
<stop offset="1"/>
</radialGradient>
<linearGradient id="paint30_linear_2664_86728" x1="1517.62" y1="701.559" x2="1068.15" y2="32.9974" gradientUnits="userSpaceOnUse">
<stop offset="0.03" stop-color="#040404"/>
<stop offset="0.21" stop-color="#181818"/>
<stop offset="0.62" stop-color="#161616"/>
<stop offset="1"/>
</linearGradient>
<linearGradient id="paint31_linear_2664_86728" x1="1517.86" y1="571.321" x2="1223.35" y2="465.201" gradientUnits="userSpaceOnUse">
<stop offset="0.03" stop-color="#D1D1D1"/>
<stop offset="0.21" stop-color="#A4A4A4"/>
<stop offset="0.62" stop-color="#7D7D7D"/>
<stop offset="1" stop-color="#A8F800"/>
</linearGradient>
<linearGradient id="paint32_linear_2664_86728" x1="1540.43" y1="634.164" x2="1198.82" y2="507.807" gradientUnits="userSpaceOnUse">
<stop offset="0.03" stop-color="#D1D1D1"/>
<stop offset="0.21" stop-color="#A4A4A4"/>
<stop offset="0.62" stop-color="#7D7D7D"/>
<stop offset="1" stop-color="#A8F800"/>
</linearGradient>
<linearGradient id="paint33_linear_2664_86728" x1="1489.74" y1="621.072" x2="1235.41" y2="332.506" gradientUnits="userSpaceOnUse">
<stop offset="0.03" stop-color="#7C1DC9"/>
<stop offset="0.21" stop-color="#6E41D2"/>
<stop offset="0.62" stop-color="#4C9BE8"/>
<stop offset="1" stop-color="#2AF6FF"/>
</linearGradient>
<linearGradient id="paint34_linear_2664_86728" x1="1563.92" y1="613.386" x2="1161.67" y2="460.839" gradientUnits="userSpaceOnUse">
<stop offset="0.03" stop-color="#D1D1D1"/>
<stop offset="0.21" stop-color="#A4A4A4"/>
<stop offset="0.62" stop-color="#7D7D7D"/>
<stop offset="1" stop-color="#A8F800"/>
</linearGradient>
<linearGradient id="paint35_linear_2664_86728" x1="1409.28" y1="542.135" x2="1248.25" y2="486.709" gradientUnits="userSpaceOnUse">
<stop offset="0.03" stop-color="#D1D1D1"/>
<stop offset="0.21" stop-color="#A4A4A4"/>
<stop offset="0.62" stop-color="#7D7D7D"/>
<stop offset="1" stop-color="#A8F800"/>
</linearGradient>
<linearGradient id="paint36_linear_2664_86728" x1="1898.53" y1="659.748" x2="1195.42" y2="521.334" gradientUnits="userSpaceOnUse">
<stop offset="0.03" stop-color="#D1D1D1"/>
<stop offset="0.21" stop-color="#A4A4A4"/>
<stop offset="0.62" stop-color="#7D7D7D"/>
<stop offset="0.897503" stop-color="#A8F800"/>
</linearGradient>
<linearGradient id="paint37_linear_2664_86728" x1="1499.09" y1="596.458" x2="1230.32" y2="501.594" gradientUnits="userSpaceOnUse">
<stop offset="0.03" stop-color="#D1D1D1"/>
<stop offset="0.21" stop-color="#A4A4A4"/>
<stop offset="0.62" stop-color="#7D7D7D"/>
<stop offset="1" stop-color="#A8F800"/>
</linearGradient>
<linearGradient id="paint38_linear_2664_86728" x1="1448.47" y1="553.363" x2="1239.46" y2="483.381" gradientUnits="userSpaceOnUse">
<stop offset="0.03" stop-color="#D1D1D1"/>
<stop offset="0.21" stop-color="#A4A4A4"/>
<stop offset="0.62" stop-color="#7D7D7D"/>
<stop offset="1" stop-color="#A8F800"/>
</linearGradient>
<linearGradient id="paint39_linear_2664_86728" x1="1505.86" y1="561.658" x2="1214.54" y2="468.663" gradientUnits="userSpaceOnUse">
<stop offset="0.03" stop-color="#D1D1D1"/>
<stop offset="0.21" stop-color="#A4A4A4"/>
<stop offset="0.62" stop-color="#7D7D7D"/>
<stop offset="1" stop-color="#A8F800"/>
</linearGradient>
<linearGradient id="paint40_linear_2664_86728" x1="1505.74" y1="590.268" x2="1198.86" y2="469.222" gradientUnits="userSpaceOnUse">
<stop offset="0.03" stop-color="#D1D1D1"/>
<stop offset="0.21" stop-color="#A4A4A4"/>
<stop offset="0.62" stop-color="#7D7D7D"/>
<stop offset="1" stop-color="#A8F800"/>
</linearGradient>
<linearGradient id="paint41_linear_2664_86728" x1="1607.72" y1="637.242" x2="1091.39" y2="452.733" gradientUnits="userSpaceOnUse">
<stop offset="0.03" stop-color="#D1D1D1"/>
<stop offset="0.21" stop-color="#A4A4A4"/>
<stop offset="0.62" stop-color="#7D7D7D"/>
<stop offset="1" stop-color="#A8F800"/>
</linearGradient>
<linearGradient id="paint42_linear_2664_86728" x1="1997.77" y1="677.302" x2="1200.39" y2="515.968" gradientUnits="userSpaceOnUse">
<stop offset="0.03" stop-color="#D1D1D1"/>
<stop offset="0.21" stop-color="#A4A4A4"/>
<stop offset="0.62" stop-color="#7D7D7D"/>
<stop offset="0.897503" stop-color="#A8F800"/>
</linearGradient>
<linearGradient id="paint43_linear_2664_86728" x1="1916.28" y1="620.888" x2="1207.5" y2="481.803" gradientUnits="userSpaceOnUse">
<stop offset="0.03" stop-color="#D1D1D1"/>
<stop offset="0.21" stop-color="#A4A4A4"/>
<stop offset="0.62" stop-color="#7D7D7D"/>
<stop offset="0.897503" stop-color="#A8F800"/>
</linearGradient>
<linearGradient id="paint44_linear_2664_86728" x1="1402.62" y1="501.487" x2="1250.62" y2="449.811" gradientUnits="userSpaceOnUse">
<stop offset="0.03" stop-color="#D1D1D1"/>
<stop offset="0.21" stop-color="#A4A4A4"/>
<stop offset="0.62" stop-color="#7D7D7D"/>
<stop offset="1" stop-color="#A8F800"/>
</linearGradient>
<linearGradient id="paint45_linear_2664_86728" x1="1391.5" y1="543.447" x2="1237.8" y2="490.889" gradientUnits="userSpaceOnUse">
<stop offset="0.03" stop-color="#D1D1D1"/>
<stop offset="0.21" stop-color="#A4A4A4"/>
<stop offset="0.62" stop-color="#7D7D7D"/>
<stop offset="1" stop-color="#A8F800"/>
</linearGradient>
<linearGradient id="paint46_linear_2664_86728" x1="1428.62" y1="547.03" x2="1180.72" y2="458.182" gradientUnits="userSpaceOnUse">
<stop offset="0.03" stop-color="#D1D1D1"/>
<stop offset="0.21" stop-color="#A4A4A4"/>
<stop offset="0.62" stop-color="#7D7D7D"/>
<stop offset="1" stop-color="#A8F800"/>
</linearGradient>
<linearGradient id="paint47_linear_2664_86728" x1="1355" y1="497.073" x2="1191.74" y2="478.074" gradientUnits="userSpaceOnUse">
<stop offset="0.03" stop-color="#D1D1D1"/>
<stop offset="0.21" stop-color="#A4A4A4"/>
<stop offset="0.62" stop-color="#7D7D7D"/>
<stop offset="0.897503" stop-color="#A8F800"/>
</linearGradient>
<linearGradient id="paint48_linear_2664_86728" x1="1864.38" y1="594.487" x2="1162.7" y2="457.419" gradientUnits="userSpaceOnUse">
<stop offset="0.03" stop-color="#D1D1D1"/>
<stop offset="0.21" stop-color="#A4A4A4"/>
<stop offset="0.62" stop-color="#7D7D7D"/>
<stop offset="0.897503" stop-color="#A8F800"/>
</linearGradient>
<linearGradient id="paint49_linear_2664_86728" x1="1414.96" y1="518.237" x2="1316.72" y2="494.251" gradientUnits="userSpaceOnUse">
<stop offset="0.03" stop-color="#D1D1D1"/>
<stop offset="0.21" stop-color="#A4A4A4"/>
<stop offset="0.62" stop-color="#7D7D7D"/>
<stop offset="1" stop-color="#A8F800"/>
</linearGradient>
<linearGradient id="paint50_linear_2664_86728" x1="1441.45" y1="531.244" x2="1184.28" y2="438.632" gradientUnits="userSpaceOnUse">
<stop offset="0.03" stop-color="#D1D1D1"/>
<stop offset="0.21" stop-color="#A4A4A4"/>
<stop offset="0.62" stop-color="#7D7D7D"/>
<stop offset="1" stop-color="#A8F800"/>
</linearGradient>
<linearGradient id="paint51_linear_2664_86728" x1="1597.21" y1="642.509" x2="1093.61" y2="462.845" gradientUnits="userSpaceOnUse">
<stop offset="0.03" stop-color="#D1D1D1"/>
<stop offset="0.21" stop-color="#A4A4A4"/>
<stop offset="0.62" stop-color="#7D7D7D"/>
<stop offset="1" stop-color="#A8F800"/>
</linearGradient>
<linearGradient id="paint52_linear_2664_86728" x1="1424.89" y1="505.668" x2="1217.01" y2="434.459" gradientUnits="userSpaceOnUse">
<stop offset="0.03" stop-color="#D1D1D1"/>
<stop offset="0.21" stop-color="#A4A4A4"/>
<stop offset="0.62" stop-color="#7D7D7D"/>
<stop offset="1" stop-color="#A8F800"/>
</linearGradient>
<linearGradient id="paint53_linear_2664_86728" x1="1452.77" y1="512.325" x2="1188.84" y2="473.321" gradientUnits="userSpaceOnUse">
<stop offset="0.03" stop-color="#D1D1D1"/>
<stop offset="0.21" stop-color="#A4A4A4"/>
<stop offset="0.62" stop-color="#7D7D7D"/>
<stop offset="0.897503" stop-color="#A8F800"/>
</linearGradient>
<linearGradient id="paint54_linear_2664_86728" x1="1512.3" y1="602.179" x2="1201.29" y2="501.359" gradientUnits="userSpaceOnUse">
<stop offset="0.03" stop-color="#D1D1D1"/>
<stop offset="0.21" stop-color="#A4A4A4"/>
<stop offset="0.62" stop-color="#7D7D7D"/>
<stop offset="1" stop-color="#A8F800"/>
</linearGradient>
<linearGradient id="paint55_linear_2664_86728" x1="1708.27" y1="577.271" x2="1183.38" y2="481.288" gradientUnits="userSpaceOnUse">
<stop offset="0.03" stop-color="#D1D1D1"/>
<stop offset="0.21" stop-color="#A4A4A4"/>
<stop offset="0.62" stop-color="#7D7D7D"/>
<stop offset="0.897503" stop-color="#A8F800"/>
</linearGradient>
<linearGradient id="paint56_linear_2664_86728" x1="2345.7" y1="753.596" x2="1175.13" y2="505.035" gradientUnits="userSpaceOnUse">
<stop offset="0.03" stop-color="#D1D1D1"/>
<stop offset="0.21" stop-color="#A4A4A4"/>
<stop offset="0.62" stop-color="#7D7D7D"/>
<stop offset="0.897503" stop-color="#A8F800"/>
</linearGradient>
<linearGradient id="paint57_linear_2664_86728" x1="1352.24" y1="499.283" x2="1566.8" y2="499.283" gradientUnits="userSpaceOnUse">
<stop offset="0.04" stop-color="#A8F800"/>
<stop offset="0.590123" stop-color="#E0F7AF"/>
<stop offset="0.641716" stop-color="#D0F87C"/>
<stop offset="1" stop-color="#FFFFFE"/>
</linearGradient>
<radialGradient id="paint58_radial_2664_86728" cx="0" cy="0" r="1" gradientUnits="userSpaceOnUse" gradientTransform="translate(1479.59 694.6) rotate(60.2551) scale(16.5651 24.2778)">
<stop offset="0.1" stop-color="#E6E6E6"/>
<stop offset="0.21" stop-color="#777879"/>
<stop offset="0.62" stop-color="#A6A6A6"/>
<stop offset="1" stop-color="#636363"/>
</radialGradient>
<linearGradient id="paint59_linear_2664_86728" x1="1453.11" y1="703.446" x2="1525.83" y2="664.24" gradientUnits="userSpaceOnUse">
<stop stop-color="#686868"/>
<stop offset="0.15" stop-color="#747474"/>
<stop offset="0.31" stop-color="#DADADA"/>
<stop offset="0.453125" stop-color="#9B9B9B"/>
<stop offset="0.65" stop-color="#8A8A8A"/>
<stop offset="0.82" stop-color="#828282"/>
<stop offset="1" stop-color="#7E7E7E"/>
</linearGradient>
<linearGradient id="paint60_linear_2664_86728" x1="1399.98" y1="589.819" x2="1448.26" y2="594.445" gradientUnits="userSpaceOnUse">
<stop stop-color="#F2F2F2"/>
<stop offset="0.0729167" stop-color="#E3E3E3"/>
<stop offset="0.28" stop-color="#B6B6B6"/>
<stop offset="0.48479" stop-color="#777777"/>
<stop offset="0.676272" stop-color="#737373"/>
<stop offset="0.85" stop-color="#8A8A8A"/>
<stop offset="0.99" stop-color="#838383"/>
</linearGradient>
<linearGradient id="paint61_linear_2664_86728" x1="1417.44" y1="605.744" x2="1446.72" y2="590.334" gradientUnits="userSpaceOnUse">
<stop stop-color="#939393"/>
<stop offset="0.15" stop-color="#A3A3A3"/>
<stop offset="0.31" stop-color="#DADADA"/>
<stop offset="0.453125" stop-color="#ACACAC"/>
<stop offset="0.65" stop-color="#A2A2A2"/>
<stop offset="0.82" stop-color="#979696"/>
<stop offset="1" stop-color="#7E7E7E"/>
</linearGradient>
<linearGradient id="paint62_linear_2664_86728" x1="1390.65" y1="590.905" x2="1304.17" y2="437.65" gradientUnits="userSpaceOnUse">
<stop stop-color="#D5D5D5"/>
<stop offset="0.12" stop-color="#EEEEEE"/>
<stop offset="0.25" stop-color="white"/>
<stop offset="0.29" stop-color="#F0F0F0"/>
<stop offset="0.36" stop-color="#D0D0D0"/>
<stop offset="0.43" stop-color="#B7B7B7"/>
<stop offset="0.5" stop-color="#A6A6A6"/>
<stop offset="0.56" stop-color="#9A9A9A"/>
<stop offset="0.62" stop-color="#929394"/>
<stop offset="0.77" stop-color="#A4A4A4"/>
<stop offset="0.953125" stop-color="#B5B5B5"/>
<stop offset="1" stop-color="#B3B3B3"/>
</linearGradient>
<radialGradient id="paint63_radial_2664_86728" cx="0" cy="0" r="1" gradientUnits="userSpaceOnUse" gradientTransform="translate(1357.95 478.175) scale(92.6722 92.6373)">
<stop offset="0.01" stop-color="white"/>
<stop offset="1" stop-color="#171717"/>
</radialGradient>
<radialGradient id="paint64_radial_2664_86728" cx="0" cy="0" r="1" gradientUnits="userSpaceOnUse" gradientTransform="translate(1357.6 478.881) scale(92.6722 92.6373)">
<stop offset="0.239583" stop-color="white"/>
<stop offset="1" stop-color="#CACACA"/>
</radialGradient>
<linearGradient id="paint65_linear_2664_86728" x1="1352.4" y1="404.902" x2="1438.7" y2="570.147" gradientUnits="userSpaceOnUse">
<stop stop-color="#DBDBDB"/>
<stop offset="0.12" stop-color="#ECECEC"/>
<stop offset="0.25" stop-color="white"/>
<stop offset="0.29" stop-color="#E9EAF0"/>
<stop offset="0.36" stop-color="#CFCFCF"/>
<stop offset="0.43" stop-color="#BBBBBB"/>
<stop offset="0.5" stop-color="#AEAEAE"/>
<stop offset="0.56" stop-color="#A0A0A0"/>
<stop offset="0.692708" stop-color="#ADADAD"/>
<stop offset="0.739583" stop-color="#B8B8B8"/>
<stop offset="0.84" stop-color="#D5D5D5"/>
<stop offset="0.88" stop-color="#E0E0E0"/>
<stop offset="0.8801" stop-color="#E0E0E0"/>
<stop offset="0.942708" stop-color="#B4B4B4"/>
<stop offset="0.97" stop-color="#B8B8B8"/>
<stop offset="1" stop-color="#C8C8C8"/>
</linearGradient>
<linearGradient id="paint66_linear_2664_86728" x1="1415.82" y1="478.176" x2="1237.85" y2="569.312" gradientUnits="userSpaceOnUse">
<stop stop-color="#EDEDED"/>
<stop offset="0.18" stop-color="#ECECEC"/>
<stop offset="0.48" stop-color="#E0E0E0"/>
<stop offset="0.58" stop-color="#D1D1D1"/>
<stop offset="0.88" stop-color="#B0B0B0"/>
<stop offset="0.916667" stop-color="#C7C7C7"/>
<stop offset="1" stop-color="#A5A5A5"/>
</linearGradient>
<radialGradient id="paint67_radial_2664_86728" cx="0" cy="0" r="1" gradientUnits="userSpaceOnUse" gradientTransform="translate(1398.85 447.288) scale(73.8529 73.8251)">
<stop stop-color="white"/>
<stop offset="1"/>
</radialGradient>
<radialGradient id="paint68_radial_2664_86728" cx="0" cy="0" r="1" gradientUnits="userSpaceOnUse" gradientTransform="translate(1354.87 463.396) scale(50.5681 50.549)">
<stop stop-color="white"/>
<stop offset="1"/>
</radialGradient>
<clipPath id="clip0_2664_86728">
<rect width="1920" height="1080" fill="white"/>
</clipPath>
</defs>
</svg>
