<svg width="380" height="224" viewBox="0 0 380 224" fill="none" xmlns="http://www.w3.org/2000/svg">
<path d="M96.3867 181H86.1328V147.797H5.85938V139.008L66.8945 41.3516H78.0273L16.8945 139.008H86.1328V83.5391H96.3867V139.008L111.816 142.523V147.797H96.3867V181ZM356.738 181H346.484V147.797H266.211V139.008L327.246 41.3516H338.379L277.246 139.008H346.484V83.5391H356.738V139.008L372.168 142.523V147.797H356.738V181Z" fill="#E3E3E3"/>
<path d="M141.113 110.785C141.113 152.387 157.487 173.188 190.234 173.188C222.266 173.188 238.281 152.387 238.281 110.785C238.281 69.7044 222.266 49.1641 190.234 49.1641C157.487 49.1641 141.113 69.7044 141.113 110.785ZM129.883 111.371C129.883 64.0404 150 40.375 190.234 40.375C229.753 40.375 249.512 64.0404 249.512 111.371C249.512 158.441 229.753 181.977 190.234 181.977C152.083 181.977 131.966 158.441 129.883 111.371Z" fill="#9FEA00"/>
<ellipse cx="189.5" cy="111.75" rx="31.5" ry="15.75" fill="#9FEA00"/>
<circle cx="190.625" cy="111.375" r="10.875" fill="#131313"/>
<circle cx="183.125" cy="103.875" r="1.875" fill="#F7F7F7"/>
</svg>
