<svg width="20" height="12" viewBox="0 0 20 12" fill="none" xmlns="http://www.w3.org/2000/svg">
<path fill-rule="evenodd" clip-rule="evenodd" d="M0.468388 0.969364C0.538056 0.899519 0.62082 0.844104 0.711937 0.806295C0.803055 0.768485 0.900737 0.749023 0.999388 0.749023C1.09804 0.749023 1.19572 0.768485 1.28684 0.806295C1.37796 0.844104 1.46072 0.899519 1.53039 0.969364L9.99939 9.43987L18.4684 0.969364C18.5381 0.899632 18.6209 0.844317 18.712 0.806579C18.8031 0.76884 18.9008 0.749416 18.9994 0.749416C19.098 0.749416 19.1957 0.76884 19.2868 0.806579C19.3779 0.844317 19.4607 0.899632 19.5304 0.969364C19.6001 1.0391 19.6554 1.12188 19.6932 1.21299C19.7309 1.3041 19.7503 1.40175 19.7503 1.50036C19.7503 1.59898 19.7309 1.69663 19.6932 1.78774C19.6554 1.87885 19.6001 1.96163 19.5304 2.03136L10.5304 11.0314C10.4607 11.1012 10.378 11.1566 10.2868 11.1944C10.1957 11.2322 10.098 11.2517 9.99939 11.2517C9.90074 11.2517 9.80305 11.2322 9.71194 11.1944C9.62082 11.1566 9.53806 11.1012 9.46839 11.0314L0.468388 2.03136C0.398543 1.9617 0.343129 1.87893 0.305319 1.78781C0.267509 1.6967 0.248047 1.59901 0.248047 1.50036C0.248047 1.40171 0.267509 1.30403 0.305319 1.21291C0.343129 1.1218 0.398543 1.03903 0.468388 0.969364Z" fill="#9FEA00"/>
</svg>
