<svg width="8" height="14" viewBox="0 0 8 14" fill="none" xmlns="http://www.w3.org/2000/svg">
<path fill-rule="evenodd" clip-rule="evenodd" d="M0.156074 0.156075C0.205423 0.106601 0.264047 0.0673495 0.328589 0.0405676C0.39313 0.0137858 0.462322 0 0.5322 0C0.602077 0 0.671269 0.0137858 0.73581 0.0405676C0.800352 0.0673495 0.858976 0.106601 0.908325 0.156075L7.28333 6.53107C7.3328 6.58042 7.37205 6.63905 7.39883 6.70359C7.42561 6.76813 7.4394 6.83732 7.4394 6.9072C7.4394 6.97708 7.42561 7.04627 7.39883 7.11081C7.37205 7.17535 7.3328 7.23398 7.28333 7.28332L0.908325 13.6583C0.80857 13.7581 0.673274 13.8141 0.5322 13.8141C0.391125 13.8141 0.255829 13.7581 0.156074 13.6583C0.0563198 13.5586 0.000278145 13.4233 0.000278145 13.2822C0.000278145 13.1411 0.0563198 13.0058 0.156074 12.9061L6.15601 6.9072L0.156074 0.908325C0.106601 0.858976 0.067349 0.800352 0.0405671 0.735811C0.0137853 0.671269 0 0.602077 0 0.5322C0 0.462322 0.0137853 0.393131 0.0405671 0.328589C0.067349 0.264047 0.106601 0.205423 0.156074 0.156075Z" fill="#A8F800"/>
</svg>
