<svg width="7" height="16" viewBox="0 0 7 16" fill="none" xmlns="http://www.w3.org/2000/svg">
<path fill-rule="evenodd" clip-rule="evenodd" d="M0.920816 0.850802C0.960005 0.798419 1.00656 0.756858 1.05781 0.728501C1.10907 0.700144 1.16401 0.685547 1.2195 0.685547C1.275 0.685547 1.32994 0.700144 1.38119 0.728501C1.43245 0.756858 1.479 0.798419 1.51819 0.850802L6.58069 7.6008C6.61998 7.65305 6.65115 7.71513 6.67242 7.78346C6.69369 7.8518 6.70463 7.92506 6.70463 7.99905C6.70463 8.07304 6.69369 8.1463 6.67242 8.21464C6.65115 8.28298 6.61998 8.34505 6.58069 8.3973L1.51819 15.1473C1.43897 15.2529 1.33153 15.3123 1.2195 15.3123C1.10747 15.3123 1.00003 15.2529 0.920816 15.1473C0.8416 15.0417 0.797096 14.8984 0.797096 14.7491C0.797096 14.5997 0.8416 14.4564 0.920816 14.3508L5.68547 7.99905L0.920816 1.6473C0.881529 1.59505 0.850358 1.53298 0.82909 1.46464C0.807822 1.3963 0.796875 1.32304 0.796875 1.24905C0.796875 1.17506 0.807822 1.1018 0.82909 1.03346C0.850358 0.965126 0.881529 0.903054 0.920816 0.850802V0.850802Z" fill="#A1A1A1"/>
</svg>
