<svg width="28" height="17" viewBox="0 0 28 17" fill="none" xmlns="http://www.w3.org/2000/svg">
<path fill-rule="evenodd" clip-rule="evenodd" d="M0.716797 8.54943C0.716797 8.3008 0.818161 8.06237 0.998591 7.88656C1.17902 7.71076 1.42374 7.61199 1.6789 7.61199H24.3711L18.3156 1.71365C18.135 1.53763 18.0335 1.29888 18.0335 1.04995C18.0335 0.80101 18.135 0.562268 18.3156 0.386243C18.4963 0.210218 18.7413 0.111328 18.9968 0.111328C19.2523 0.111328 19.4973 0.210218 19.678 0.386243L27.3748 7.88572C27.4644 7.9728 27.5355 8.07625 27.584 8.19014C27.6325 8.30403 27.6574 8.42612 27.6574 8.54943C27.6574 8.67273 27.6325 8.79483 27.584 8.90872C27.5355 9.0226 27.4644 9.12605 27.3748 9.21313L19.678 16.7126C19.4973 16.8886 19.2523 16.9875 18.9968 16.9875C18.7413 16.9875 18.4963 16.8886 18.3156 16.7126C18.135 16.5366 18.0335 16.2978 18.0335 16.0489C18.0335 15.8 18.135 15.5612 18.3156 15.3852L24.3711 9.48686H1.6789C1.42374 9.48686 1.17902 9.3881 0.998591 9.2123C0.818161 9.03649 0.716797 8.79805 0.716797 8.54943V8.54943Z" fill="#E3E3E3"/>
</svg>
