<svg width="1920" height="776" viewBox="0 0 1920 776" fill="none" xmlns="http://www.w3.org/2000/svg">
<g clip-path="url(#clip0_3994_64377)">
<g filter="url(#filter0_f_3994_64377)">
<ellipse cx="1203.5" cy="346" rx="549.5" ry="348" fill="url(#paint0_radial_3994_64377)"/>
</g>
<g filter="url(#filter1_f_3994_64377)">
<path d="M1569 327C1569 502.074 1416.33 644 1228 644C1039.67 644 887 502.074 887 327C887 151.926 1039.67 10 1228 10C1416.33 10 1569 151.926 1569 327Z" fill="url(#paint1_radial_3994_64377)"/>
</g>
<g filter="url(#filter2_f_3994_64377)">
<path d="M1822.5 327.5C1822.5 521.904 1669.83 679.5 1481.5 679.5C1293.17 679.5 1140.5 521.904 1140.5 327.5C1140.5 133.096 1293.17 -24.5 1481.5 -24.5C1669.83 -24.5 1822.5 133.096 1822.5 327.5Z" fill="url(#paint2_radial_3994_64377)"/>
</g>
</g>
<defs>
<filter id="filter0_f_3994_64377" x="404" y="-252" width="1599" height="1196" filterUnits="userSpaceOnUse" color-interpolation-filters="sRGB">
<feFlood flood-opacity="0" result="BackgroundImageFix"/>
<feBlend mode="normal" in="SourceGraphic" in2="BackgroundImageFix" result="shape"/>
<feGaussianBlur stdDeviation="125" result="effect1_foregroundBlur_3994_64377"/>
</filter>
<filter id="filter1_f_3994_64377" x="637" y="-240" width="1182" height="1134" filterUnits="userSpaceOnUse" color-interpolation-filters="sRGB">
<feFlood flood-opacity="0" result="BackgroundImageFix"/>
<feBlend mode="normal" in="SourceGraphic" in2="BackgroundImageFix" result="shape"/>
<feGaussianBlur stdDeviation="125" result="effect1_foregroundBlur_3994_64377"/>
</filter>
<filter id="filter2_f_3994_64377" x="890.5" y="-274.5" width="1182" height="1204" filterUnits="userSpaceOnUse" color-interpolation-filters="sRGB">
<feFlood flood-opacity="0" result="BackgroundImageFix"/>
<feBlend mode="normal" in="SourceGraphic" in2="BackgroundImageFix" result="shape"/>
<feGaussianBlur stdDeviation="125" result="effect1_foregroundBlur_3994_64377"/>
</filter>
<radialGradient id="paint0_radial_3994_64377" cx="0" cy="0" r="1" gradientUnits="userSpaceOnUse" gradientTransform="translate(1203.5 346) rotate(90) scale(348 549.5)">
<stop stop-color="white" stop-opacity="0.11"/>
<stop stop-color="#FCFEF7"/>
<stop offset="0.0001" stop-color="#FCFEF7" stop-opacity="0.22"/>
<stop offset="1" stop-color="white" stop-opacity="0"/>
</radialGradient>
<radialGradient id="paint1_radial_3994_64377" cx="0" cy="0" r="1" gradientUnits="userSpaceOnUse" gradientTransform="translate(1240.18 299.845) rotate(92.9748) scale(234.672 274.607)">
<stop stop-color="#92C22D"/>
<stop stop-color="#A8F800"/>
<stop offset="0.217766" stop-color="#66910B" stop-opacity="0.45"/>
<stop offset="1" stop-color="#1C2900" stop-opacity="0.35"/>
</radialGradient>
<radialGradient id="paint2_radial_3994_64377" cx="0" cy="0" r="1" gradientUnits="userSpaceOnUse" gradientTransform="translate(540.179 421.847) rotate(92.6794) scale(260.516 274.677)">
<stop stop-color="#92C22D"/>
<stop stop-color="#A8F800"/>
<stop offset="0.217766" stop-color="#66910B" stop-opacity="0.45"/>
<stop offset="1" stop-color="#1C2900" stop-opacity="0.35"/>
</radialGradient>
<clipPath id="clip0_3994_64377">
<rect width="1920" height="776" fill="white"/>
</clipPath>
</defs>
</svg>
