<svg width="10" height="21" viewBox="0 0 10 21" fill="none" xmlns="http://www.w3.org/2000/svg">
<path fill-rule="evenodd" clip-rule="evenodd" d="M0 3.5C0 2.57174 0.376274 1.6815 1.04605 1.02513C1.71582 0.368749 2.62423 0 3.57143 0C4.51863 0 5.42704 0.368749 6.09681 1.02513C6.76658 1.6815 7.14286 2.57174 7.14286 3.5L7.14286 16.1C7.14286 16.657 6.91709 17.1911 6.51523 17.5849C6.11337 17.9788 5.56832 18.2 5 18.2C4.43168 18.2 3.88663 17.9788 3.48477 17.5849C3.08291 17.1911 2.85714 16.657 2.85714 16.1L2.85714 6.3C2.85714 6.11435 2.9324 5.9363 3.06635 5.80503C3.20031 5.67375 3.38199 5.6 3.57143 5.6C3.76087 5.6 3.94255 5.67375 4.0765 5.80503C4.21046 5.9363 4.28571 6.11435 4.28571 6.3L4.28571 16.1C4.28571 16.2857 4.36097 16.4637 4.49492 16.595C4.62888 16.7262 4.81056 16.8 5 16.8C5.18944 16.8 5.37112 16.7262 5.50508 16.595C5.63903 16.4637 5.71429 16.2857 5.71429 16.1L5.71429 3.5C5.71429 3.22422 5.65886 2.95115 5.55117 2.69636C5.44348 2.44158 5.28564 2.21008 5.08666 2.01508C4.88768 1.82007 4.65145 1.66539 4.39146 1.55985C4.13148 1.45432 3.85283 1.4 3.57143 1.4C3.29002 1.4 3.01138 1.45432 2.75139 1.55985C2.49141 1.66539 2.25518 1.82007 2.0562 2.01508C1.85722 2.21008 1.69938 2.44158 1.59169 2.69636C1.484 2.95115 1.42857 3.22422 1.42857 3.5L1.42857 16.1C1.42857 17.0283 1.80485 17.9185 2.47462 18.5749C3.14439 19.2313 4.0528 19.6 5 19.6C5.9472 19.6 6.85561 19.2313 7.52538 18.5749C8.19515 17.9185 8.57143 17.0283 8.57143 16.1L8.57143 6.3C8.57143 6.11435 8.64668 5.9363 8.78064 5.80503C8.91459 5.67375 9.09627 5.6 9.28571 5.6C9.47515 5.6 9.65684 5.67375 9.79079 5.80503C9.92475 5.9363 10 6.11435 10 6.3L10 16.1C10 17.3996 9.47322 18.6459 8.53553 19.5648C7.59785 20.4838 6.32608 21 5 21C3.67392 21 2.40215 20.4838 1.46447 19.5648C0.526784 18.6459 0 17.3996 0 16.1L0 3.5Z" fill="#EAEAEA"/>
</svg>
