<svg width="70" height="70" viewBox="0 0 70 70" fill="none" xmlns="http://www.w3.org/2000/svg">
<path d="M13.9265 18.7891H11.5576V41.7152H13.9265V18.7891Z" fill="#7DB704"/>
<path d="M59.7307 18.4785H57.3076V40.2397H59.7307V18.4785Z" fill="#7DB704"/>
<path d="M17.6488 21.4289C18.4898 21.4289 19.1716 20.7496 19.1716 19.9117C19.1716 19.0738 18.4898 18.3945 17.6488 18.3945C16.8078 18.3945 16.126 19.0738 16.126 19.9117C16.126 20.7496 16.8078 21.4289 17.6488 21.4289Z" fill="#7DB704"/>
<path d="M18.2131 8V17.3278C19.3975 17.6087 20.2999 18.6764 20.2999 19.9126C20.2999 21.3736 19.1155 22.5536 17.6491 22.5536C16.1826 22.5536 14.9982 21.3736 14.9982 19.9126C14.9982 18.6202 15.9006 17.5525 17.085 17.3278V8H13.3062V11.2591C14.4906 11.5401 15.393 12.6077 15.393 13.8439C15.393 15.3049 14.2086 16.4849 12.7422 16.4849C11.2757 16.4849 10.0913 15.3049 10.0913 13.8439C10.0913 12.5515 10.9937 11.4839 12.1782 11.2591V8H8.62489V17.3278C9.80931 17.6087 10.7117 18.6764 10.7117 19.9126C10.7117 21.3736 9.52731 22.5536 8.06088 22.5536C6.59445 22.5536 5.41003 21.3736 5.41003 19.9126C5.41003 18.6202 6.31244 17.5525 7.49687 17.3278V8H4V25.4194H21.4843V8H18.2131Z" fill="#7DB704"/>
<path d="M12.7426 15.3605C13.5836 15.3605 14.2654 14.6813 14.2654 13.8433C14.2654 13.0054 13.5836 12.3262 12.7426 12.3262C11.9015 12.3262 11.2197 13.0054 11.2197 13.8433C11.2197 14.6813 11.9015 15.3605 12.7426 15.3605Z" fill="#7DB704"/>
<path d="M8.06091 21.4289C8.90195 21.4289 9.58374 20.7496 9.58374 19.9117C9.58374 19.0738 8.90195 18.3945 8.06091 18.3945C7.21988 18.3945 6.53809 19.0738 6.53809 19.9117C6.53809 20.7496 7.21988 21.4289 8.06091 21.4289Z" fill="#7DB704"/>
<path d="M62.9955 21.4289C63.8365 21.4289 64.5183 20.7496 64.5183 19.9117C64.5183 19.0738 63.8365 18.3945 62.9955 18.3945C62.1544 18.3945 61.4727 19.0738 61.4727 19.9117C61.4727 20.7496 62.1544 21.4289 62.9955 21.4289Z" fill="#7DB704"/>
<path d="M58.1449 15.3605C58.9859 15.3605 59.6677 14.6813 59.6677 13.8433C59.6677 13.0054 58.9859 12.3262 58.1449 12.3262C57.3039 12.3262 56.6221 13.0054 56.6221 13.8433C56.6221 14.6813 57.3039 15.3605 58.1449 15.3605Z" fill="#7DB704"/>
<path d="M53.4633 21.4289C54.3043 21.4289 54.9861 20.7496 54.9861 19.9117C54.9861 19.0738 54.3043 18.3945 53.4633 18.3945C52.6222 18.3945 51.9404 19.0738 51.9404 19.9117C51.9404 20.7496 52.6222 21.4289 53.4633 21.4289Z" fill="#7DB704"/>
<path d="M63.5595 8V17.3278C64.7439 17.6087 65.6463 18.6764 65.6463 19.9126C65.6463 21.3736 64.4619 22.5536 62.9955 22.5536C61.5291 22.5536 60.3446 21.3736 60.3446 19.9126C60.3446 18.6202 61.247 17.5525 62.4315 17.3278V8H58.709V11.2591C59.8934 11.5401 60.7958 12.6077 60.7958 13.8439C60.7958 15.3049 59.6114 16.4849 58.145 16.4849C56.6786 16.4849 55.4941 15.3049 55.4941 13.8439C55.4941 12.5515 56.3966 11.4839 57.581 11.2591V8H54.0277V17.3278C55.2121 17.6087 56.1146 18.6764 56.1146 19.9126C56.1146 21.3736 54.9301 22.5536 53.4637 22.5536C51.9973 22.5536 50.8129 21.3736 50.8129 19.9126C50.8129 18.6202 51.7153 17.5525 52.8997 17.3278V8H49.5156V25.4194H67V8H63.5595Z" fill="#7DB704"/>
<path d="M49.459 34.3535V51.7729H52.843V42.726C51.6586 42.4451 50.7562 41.3774 50.7562 40.1412C50.7562 38.6803 51.9406 37.5002 53.4071 37.5002C54.8735 37.5002 56.0579 38.6803 56.0579 40.1412C56.0579 41.4336 55.1555 42.5013 53.9711 42.726V51.8291H57.7499V48.7947C56.5655 48.5138 55.6631 47.4461 55.6631 46.2099C55.6631 44.7489 56.8475 43.5689 58.314 43.5689C59.7804 43.5689 60.9648 44.7489 60.9648 46.2099C60.9648 47.5023 60.0624 48.57 58.878 48.7947V51.8291H62.4312V42.726C61.2468 42.4451 60.3444 41.3774 60.3444 40.1412C60.3444 38.6803 61.5288 37.5002 62.9952 37.5002C64.4617 37.5002 65.6461 38.6803 65.6461 40.1412C65.6461 41.4336 64.7437 42.5013 63.5593 42.726V51.8291H66.9433V34.4097H49.459V34.3535Z" fill="#7DB704"/>
<path d="M53.4633 41.6593C54.3043 41.6593 54.9861 40.9801 54.9861 40.1422C54.9861 39.3043 54.3043 38.625 53.4633 38.625C52.6222 38.625 51.9404 39.3043 51.9404 40.1422C51.9404 40.9801 52.6222 41.6593 53.4633 41.6593Z" fill="#7DB704"/>
<path d="M59.8933 46.1539C59.8933 45.311 59.2165 44.6367 58.3705 44.6367C57.5245 44.6367 56.8477 45.311 56.8477 46.1539C56.8477 46.9968 57.5245 47.6711 58.3705 47.6711C59.2165 47.7273 59.8933 46.9968 59.8933 46.1539Z" fill="#7DB704"/>
<path d="M62.9955 41.6593C63.8365 41.6593 64.5183 40.9801 64.5183 40.1422C64.5183 39.3043 63.8365 38.625 62.9955 38.625C62.1544 38.625 61.4727 39.3043 61.4727 40.1422C61.4727 40.9801 62.1544 41.6593 62.9955 41.6593Z" fill="#7DB704"/>
<path d="M7.94763 41.6593C8.78867 41.6593 9.47046 40.9801 9.47046 40.1422C9.47046 39.3043 8.78867 38.625 7.94763 38.625C7.1066 38.625 6.4248 39.3043 6.4248 40.1422C6.4248 40.9801 7.1066 41.6593 7.94763 41.6593Z" fill="#7DB704"/>
<path d="M14.4341 46.1539C14.4341 45.311 13.7573 44.6367 12.9113 44.6367C12.0652 44.6367 11.332 45.311 11.332 46.1539C11.332 46.9968 12.0088 47.6711 12.8549 47.6711C13.7009 47.6711 14.4341 46.9968 14.4341 46.1539Z" fill="#7DB704"/>
<path d="M17.5365 41.6593C18.3775 41.6593 19.0593 40.9801 19.0593 40.1422C19.0593 39.3043 18.3775 38.625 17.5365 38.625C16.6955 38.625 16.0137 39.3043 16.0137 40.1422C16.0137 40.9801 16.6955 41.6593 17.5365 41.6593Z" fill="#7DB704"/>
<path d="M4 34.3535V51.7729H7.38406V42.726C6.19964 42.4451 5.29722 41.3774 5.29722 40.1412C5.29722 38.6803 6.48165 37.5002 7.94808 37.5002C9.4145 37.5002 10.5989 38.6803 10.5989 40.1412C10.5989 41.4336 9.69651 42.5013 8.51209 42.726V51.8291H12.291V48.7947C11.1065 48.5138 10.2041 47.4461 10.2041 46.2099C10.2041 44.7489 11.3885 43.5689 12.855 43.5689C14.3214 43.5689 15.5058 44.7489 15.5058 46.2099C15.5058 47.5023 14.6034 48.57 13.419 48.7947V51.8291H16.9722V42.726C15.7878 42.4451 14.8854 41.3774 14.8854 40.1412C14.8854 38.6803 16.0698 37.5002 17.5363 37.5002C19.0027 37.5002 20.1871 38.6803 20.1871 40.1412C20.1871 41.4336 19.2847 42.5013 18.1003 42.726V51.8291H21.4843V34.4097H4V34.3535Z" fill="#7DB704"/>
<path d="M37.2198 24.4082H34.3434L32.877 26.8806L34.3434 29.4092H37.2198L38.6863 26.8806L37.2198 24.4082Z" fill="#A1A1A1"/>
<path d="M44.5525 35.6459V18.2266H27.0681V35.6459H32.9338V44.5804H27.0117V61.9997H44.4961V44.5804H38.6867V35.6459H44.5525ZM38.6303 48.4014L41.4504 53.29L38.6303 58.1787H32.9338L30.1138 53.29L32.9338 48.4014H34.5695V31.8249H32.9338L30.1138 26.9362L32.9338 22.0476H38.6303L41.4504 26.9362L38.6303 31.8249H36.9947V48.4014H38.6303Z" fill="#171717"/>
<path d="M37.2198 50.7617H34.3434L32.877 53.2903L34.3434 55.7628H37.2198L38.6863 53.2903L37.2198 50.7617Z" fill="#A1A1A1"/>
</svg>
