<svg width="70" height="70" viewBox="0 0 70 70" fill="none" xmlns="http://www.w3.org/2000/svg">
<path d="M41.371 52.9023H36.959V57.7428H41.371V52.9023Z" fill="#7DB704"/>
<path d="M34.8241 52.9023H30.4121V57.7428H34.8241V52.9023Z" fill="#7DB704"/>
<path d="M43.5059 17.5965H54.5358C53.4684 14.5357 50.622 12.2578 47.1351 12.2578H43.5059V17.5965Z" fill="#7DB704"/>
<path d="M16.0371 20.087V49.9125C16.0371 50.2684 16.0371 50.6244 16.1083 50.9803H54.891C54.9622 50.6244 54.9622 50.2684 54.9622 49.9125V20.087C54.9622 19.8735 54.9622 19.7311 54.9622 19.5176H16.1083C16.0371 19.7311 16.0371 19.8735 16.0371 20.087Z" fill="#7DB704"/>
<path d="M28.2765 17.5965V12.2578H23.7933C20.3776 12.2578 17.46 14.4645 16.3926 17.5965H28.2765Z" fill="#7DB704"/>
<path d="M43.5059 52.9023V57.7428H47.1351C50.4085 57.7428 53.1838 55.7496 54.3223 52.9023H43.5059Z" fill="#7DB704"/>
<path d="M41.371 12.3281H36.959V17.6668H41.371V12.3281Z" fill="#7DB704"/>
<path d="M28.2759 52.9023H16.6055C17.744 55.7496 20.5905 57.7428 23.7927 57.7428H28.2759V52.9023Z" fill="#7DB704"/>
<path d="M34.8241 12.3281H30.4121V17.6668H34.8241V12.3281Z" fill="#7DB704"/>
<path d="M55.176 66H15.824C10.985 66 7 62.0138 7 57.1734V12.8266C7 7.98622 10.985 4 15.824 4H55.1049C60.015 4 63.9288 7.98622 63.9288 12.8266V57.1022C64 62.0138 60.015 66 55.176 66ZM15.824 6.13548C12.1236 6.13548 9.13483 9.12514 9.13483 12.8266V57.1022C9.13483 60.8037 12.1236 63.7933 15.824 63.7933H55.1049C58.8052 63.7933 61.794 60.8037 61.794 57.1022V12.8266C61.794 9.12514 58.8052 6.13548 55.1049 6.13548H15.824Z" fill="#171717"/>
<path d="M20.1657 24.3574H8.06836V26.4929H20.1657V24.3574Z" fill="#171717"/>
<path d="M22.9415 29.2689C20.8778 29.2689 19.1699 27.5605 19.1699 25.425C19.1699 23.3607 20.8778 21.6523 22.9415 21.6523C25.0763 21.6523 26.7842 23.3607 26.7842 25.425C26.713 27.5605 25.0051 29.2689 22.9415 29.2689ZM22.9415 23.7878C22.0164 23.7878 21.3048 24.5708 21.3048 25.425C21.3048 26.3504 22.0875 27.1334 22.9415 27.1334C23.8666 27.1334 24.6493 26.3504 24.6493 25.425C24.5782 24.4996 23.8666 23.7878 22.9415 23.7878Z" fill="#171717"/>
<path d="M26.5702 33.9688H8.06836V36.1042H26.5702V33.9688Z" fill="#171717"/>
<path d="M29.3446 38.809C27.2098 38.809 25.502 37.1006 25.502 35.0363C25.502 32.9721 27.2098 31.2637 29.3446 31.2637C31.4083 31.2637 33.1162 32.9721 33.1162 35.0363C33.1162 37.1006 31.4083 38.809 29.3446 38.809ZM29.3446 33.328C28.4196 33.328 27.6368 34.111 27.6368 34.9652C27.6368 35.8194 28.4196 36.6024 29.3446 36.6024C30.2697 36.6024 30.9814 35.8194 30.9814 34.9652C30.9814 34.111 30.2697 33.328 29.3446 33.328Z" fill="#171717"/>
<path d="M20.1657 43.5059H8.06836V45.6413H20.1657V43.5059Z" fill="#171717"/>
<path d="M22.9415 48.347C20.8778 48.347 19.1699 46.6386 19.1699 44.5743C19.1699 42.4389 20.8778 40.7305 22.9415 40.7305C25.0763 40.7305 26.7842 42.4389 26.7842 44.5743C26.713 46.6386 25.0051 48.347 22.9415 48.347ZM22.9415 42.8659C22.0164 42.8659 21.3048 43.649 21.3048 44.5743C21.3048 45.4997 22.0875 46.2115 22.9415 46.2115C23.8666 46.2115 24.6493 45.4285 24.6493 44.5743C24.5782 43.649 23.8666 42.8659 22.9415 42.8659Z" fill="#171717"/>
<path d="M62.7204 24.3574H50.623V26.4929H62.7204V24.3574Z" fill="#171717"/>
<path d="M47.918 29.2689C45.8543 29.2689 44.1465 27.5605 44.1465 25.425C44.1465 23.3607 45.8543 21.6523 47.918 21.6523C50.0529 21.6523 51.7607 23.3607 51.7607 25.425C51.6896 27.5605 49.9817 29.2689 47.918 29.2689ZM47.918 23.7878C46.9929 23.7878 46.2813 24.5708 46.2813 25.425C46.2813 26.3504 47.0641 27.1334 47.918 27.1334C48.8431 27.1334 49.6259 26.3504 49.6259 25.425C49.5547 24.4996 48.8431 23.7878 47.918 23.7878Z" fill="#171717"/>
<path d="M62.7206 33.9688H44.2188V36.1042H62.7206V33.9688Z" fill="#171717"/>
<path d="M41.5137 38.809C39.4501 38.809 37.7422 37.1006 37.7422 35.0363C37.7422 32.9721 39.4501 31.2637 41.5137 31.2637C43.5774 31.2637 45.2853 32.9721 45.2853 35.0363C45.2853 37.1006 43.5774 38.809 41.5137 38.809ZM41.5137 33.328C40.5886 33.328 39.877 34.111 39.877 34.9652C39.877 35.8194 40.6598 36.6024 41.5137 36.6024C42.4388 36.6024 43.1504 35.8194 43.1504 34.9652C43.1504 34.111 42.4388 33.328 41.5137 33.328Z" fill="#171717"/>
<path d="M62.7204 43.5059H50.623V45.6413H62.7204V43.5059Z" fill="#171717"/>
<path d="M47.918 48.347C45.8543 48.347 44.1465 46.6386 44.1465 44.5743C44.1465 42.4389 45.8543 40.7305 47.918 40.7305C50.0529 40.7305 51.7607 42.4389 51.7607 44.5743C51.6896 46.6386 49.9817 48.347 47.918 48.347ZM47.918 42.8659C46.9929 42.8659 46.2813 43.649 46.2813 44.5743C46.2813 45.4997 47.0641 46.2115 47.918 46.2115C48.8431 46.2115 49.6259 45.4285 49.6259 44.5743C49.5547 43.649 48.8431 42.8659 47.918 42.8659Z" fill="#171717"/>
</svg>
