<svg width="90" height="91" viewBox="0 0 90 91" fill="none" xmlns="http://www.w3.org/2000/svg">
<path d="M27.2695 7.95272V65.8635L33.4643 61.7953V4.08594L27.2695 7.95272Z" fill="url(#paint0_linear_4711_1932)"/>
<path d="M27.266 7.91598V65.8641L25.4961 64.8306V6.89453L27.266 7.91598Z" fill="url(#paint1_linear_4711_1932)"/>
<path d="M25.4961 6.8989L27.2648 7.96668L33.4608 4.09301L31.7969 3.15039L25.4961 6.8989Z" fill="url(#paint2_linear_4711_1932)"/>
<g style="mix-blend-mode:multiply" opacity="0.5">
<path d="M33.4617 16.3266L31.5588 17.6512V9.70312H30.3516V18.4898L29.9219 18.7815V28.6863L30.3516 28.3946V57.9632C30.3516 58.1941 30.6176 58.3764 30.9552 58.3764C31.2928 58.3764 31.5588 58.1941 31.5588 57.9632V27.5804L33.4617 26.2557V16.3266Z" fill="#3F3F3F"/>
</g>
<path d="M62.668 61.216V65.8642L64.4379 64.9069V60.248L62.668 61.216Z" fill="url(#paint3_linear_4711_1932)"/>
<path d="M62.6678 60.8575V65.8642L54.7031 61.4991V56.5039L62.6678 60.8575Z" fill="url(#paint4_linear_4711_1932)"/>
<path d="M54.7031 56.663L62.6013 61.1845L64.4378 60.1017L56.5036 55.5684L54.7031 56.663Z" fill="url(#paint5_linear_4711_1932)"/>
<path d="M26.3789 63.1385V68.6717L35.2286 62.9726V57.4395L26.3789 63.1385Z" fill="url(#paint6_linear_4711_1932)"/>
<path d="M26.3815 63.2556V68.6713L23.7266 67.5232V62.1191L26.3815 63.2556Z" fill="url(#paint7_linear_4711_1932)"/>
<path d="M23.7266 61.9471L25.7528 63.0561L35.2311 57.6129L33.1821 56.5039L23.7266 61.9471Z" fill="url(#paint8_linear_4711_1932)"/>
<path d="M26.3789 62.596V63.9921L35.2286 57.8873V56.5039L26.3789 62.596Z" fill="url(#paint9_linear_4711_1932)"/>
<path d="M26.3815 62.4995V63.9917L23.7266 62.6487V61.1836L26.3815 62.4995Z" fill="url(#paint10_linear_4711_1932)"/>
<path d="M23.7266 61.2004L26.3854 62.63L35.2704 56.5113L32.4653 55.5L23.7266 61.2004Z" fill="url(#paint11_linear_4711_1932)"/>
<path d="M54.7031 82.5495V83.6493L61.7829 79.133V78.0332L54.7031 82.5495Z" fill="url(#paint12_linear_4711_1932)"/>
<path d="M54.6992 82.4991V83.6492L29.0352 67.9509V66.8008L54.6992 82.4991Z" fill="url(#paint13_linear_4711_1932)"/>
<path d="M29.0352 66.8912L54.7165 82.6452L61.779 77.9519L36.6227 62.1191L29.0352 66.8912Z" fill="url(#paint14_linear_4711_1932)"/>
<g style="mix-blend-mode:multiply" opacity="0.5">
<path d="M57.3184 75.1432L36.6902 62.1191L29.0352 66.9288L49.9644 79.7421L57.3184 75.1432Z" fill="#5E5E5E"/>
</g>
<path d="M34.3438 17.8974V27.4877L36.1137 26.7816V17.1914L34.3438 17.8974Z" fill="url(#paint15_linear_4711_1932)"/>
<path d="M34.3463 17.9623V27.4881L31.6914 25.7583V16.2559L34.3463 17.9623Z" fill="url(#paint16_linear_4711_1932)"/>
<path d="M31.6914 16.1554L34.8251 18.1264L36.1162 17.3164L32.9473 15.3184L31.6914 16.1554Z" fill="url(#paint17_linear_4711_1932)"/>
<path d="M56.4688 81.8653V87.3924L66.2034 81.6992V76.1602L56.4688 81.8653Z" fill="url(#paint18_linear_4711_1932)"/>
<path d="M56.4731 81.2055V87.3925L54.7031 86.0914V79.9043L56.4731 81.2055Z" fill="url(#paint19_linear_4711_1932)"/>
<path d="M54.7031 80.512L56.7408 81.7773L66.2077 75.5672L64.1586 74.2891L54.7031 80.512Z" fill="url(#paint20_linear_4711_1932)"/>
<path d="M56.4688 81.2352V82.7128L66.2034 76.608V75.2246L56.4688 81.2352Z" fill="url(#paint21_linear_4711_1932)"/>
<path d="M56.4731 81.2337V82.7124L54.7031 81.383V79.9043L56.4731 81.2337Z" fill="url(#paint22_linear_4711_1932)"/>
<path d="M54.6992 79.9051L56.4746 81.2427L66.208 75.4074L64.1589 74.2891L54.6992 79.9051Z" fill="url(#paint23_linear_4711_1932)"/>
<path d="M33.4613 10.6387H31.6914V57.4433C31.6914 57.6737 32.0964 57.8676 32.5764 57.8676C33.0563 57.8676 33.4613 57.6737 33.4613 57.4433V10.6387Z" fill="url(#paint24_linear_4711_1932)"/>
<path d="M44.0803 38.7188H43.1953V41.2319C43.1953 41.397 43.3988 41.5268 43.6429 41.5268C43.887 41.5268 44.0803 41.397 44.0803 41.2319V38.7188Z" fill="url(#paint25_linear_4711_1932)"/>
<path d="M44.9202 33.1035H42.3125V39.7946C42.3125 40.2294 42.9025 40.5917 43.6459 40.5917C44.3892 40.5917 44.9674 40.2294 44.9674 39.7946L44.9202 33.1035Z" fill="url(#paint26_linear_4711_1932)"/>
<path d="M31.6914 19.6083V29.3597L36.1162 26.9428V17.1914L31.6914 19.6083Z" fill="url(#paint27_linear_4711_1932)"/>
<path d="M31.6936 19.8554V29.3588L30.8086 28.5425V19.0625L31.6936 19.8554Z" fill="url(#paint28_linear_4711_1932)"/>
<path d="M30.8086 19.0634L31.6865 19.8546L36.1119 17.1865L34.9717 16.6055L30.8086 19.0634Z" fill="url(#paint29_linear_4711_1932)"/>
<path d="M60.0112 27.1788V31.2307L28.1523 11.87V7.83008L60.0112 27.1788Z" fill="url(#paint30_linear_4711_1932)"/>
<path d="M28.1523 8.02137L60.2112 27.4875L63.5511 25.4372L31.4809 5.95898L28.1523 8.02137Z" fill="url(#paint31_linear_4711_1932)"/>
<path d="M46.7355 28.6164V29.3598L33.4609 21.6789V20.9355L46.7355 28.6164Z" fill="url(#paint32_linear_4711_1932)"/>
<path d="M46.7339 27.9614L46.0395 28.4237L33.4414 20.9417L34.2108 20.7207L46.7339 27.9614Z" fill="url(#paint33_linear_4711_1932)"/>
<path d="M46.7355 32.3606V33.1039L33.4609 25.423V24.6797L46.7355 32.3606Z" fill="url(#paint34_linear_4711_1932)"/>
<path d="M46.7343 31.4659L46.0399 31.8769L33.4297 24.6953L34.1657 24.3887L46.7343 31.4659Z" fill="url(#paint35_linear_4711_1932)"/>
<path d="M33.4609 82.4831V83.6492L63.5499 64.2227V63.0566L33.4609 82.4831Z" fill="url(#paint36_linear_4711_1932)"/>
<path d="M24.6133 77.4783L33.0624 82.7116L63.5519 63.6083L55.0914 58.375L24.6133 77.4783Z" fill="url(#paint37_linear_4711_1932)"/>
<path opacity="0.5" d="M38.5395 79.285L63.5496 63.4376L55.1982 58.375L30.1094 74.0296L38.5395 79.285Z" fill="#5E5E5E"/>
<path d="M28.0469 78.0416V78.8186L59.0208 59.9392V59.1621L28.0469 78.0416Z" fill="url(#paint38_linear_4711_1932)"/>
<path d="M28.1545 78.3819V78.9692L27.2695 78.6205V78.0332L28.1545 78.3819Z" fill="url(#paint39_linear_4711_1932)"/>
<path d="M27.4219 77.8087L28.1608 78.2776L59.2807 59.09L58.5417 58.6211L27.4219 77.8087Z" fill="url(#paint40_linear_4711_1932)"/>
<path d="M30.8086 79.9556V80.7327L61.7825 61.8532V61.0762L30.8086 79.9556Z" fill="url(#paint41_linear_4711_1932)"/>
<path d="M30.8068 79.6776V80.8408L29.9219 80.1319V78.9688L30.8068 79.6776Z" fill="url(#paint42_linear_4711_1932)"/>
<path d="M30.0781 79.6697L30.8171 80.1506L61.937 60.9751L61.1865 60.4941L30.0781 79.6697Z" fill="url(#paint43_linear_4711_1932)"/>
<path d="M44.082 79.7188V80.8402L62.6664 69.7933V68.6719L44.082 79.7188Z" fill="url(#paint44_linear_4711_1932)"/>
<path d="M44.0804 79.734V80.8402L25.4961 69.7663V68.6719L44.0804 79.734Z" fill="url(#paint45_linear_4711_1932)"/>
<path d="M44.082 78.7832V79.9046L62.6664 68.8577V67.7363L44.082 78.7832Z" fill="url(#paint46_linear_4711_1932)"/>
<path d="M44.0804 78.7984V79.9046L25.4961 68.8425V67.7363L44.0804 78.7984Z" fill="url(#paint47_linear_4711_1932)"/>
<path d="M25.4961 67.7384L44.1002 78.8232L62.6667 67.8264L43.7954 56.5039L25.4961 67.7384Z" fill="url(#paint48_linear_4711_1932)"/>
<path style="mix-blend-mode:color-dodge" d="M25.2461 67.5781L44.1174 78.8104L62.4148 67.7454L44.1748 78.4041L25.2461 67.5781Z" fill="url(#paint49_radial_4711_1932)"/>
<path d="M48.5039 31.0456V38.7201L52.9287 36.0983V28.4238L48.5039 31.0456Z" fill="url(#paint50_linear_4711_1932)"/>
<path d="M48.5055 31.0589V38.7191L41.4258 34.1872V26.5508L48.5055 31.0589Z" fill="url(#paint51_linear_4711_1932)"/>
<path d="M41.4258 26.5531L48.5188 31.0937L52.9142 28.422L45.5226 23.7871L41.4258 26.5531Z" fill="url(#paint52_linear_4711_1932)"/>
<path d="M31.6914 80.0856V85.5209L33.4613 84.3917V78.9688L31.6914 80.0856Z" fill="url(#paint53_linear_4711_1932)"/>
<path d="M31.693 80.5023V85.5204L24.6133 81.1553V76.1602L31.693 80.5023Z" fill="url(#paint54_linear_4711_1932)"/>
<path d="M31.6914 79.235V80.8396L33.4613 79.6362V78.4239L31.6914 79.235Z" fill="url(#paint55_linear_4711_1932)"/>
<path d="M31.693 79.4902V80.8408L24.6133 76.5639V75.2246L31.693 79.4902Z" fill="url(#paint56_linear_4711_1932)"/>
<path d="M24.6133 75.2454L31.6926 79.5009L33.4658 78.419L26.3347 74.4863L24.6133 75.2454Z" fill="url(#paint57_linear_4711_1932)"/>
<path d="M62.668 59.5861V61.1831L64.4379 59.9853V58.375L62.668 59.5861Z" fill="url(#paint58_linear_4711_1932)"/>
<path d="M62.6678 59.8366V61.1845L54.7031 56.905V55.5684L62.6678 59.8366Z" fill="url(#paint59_linear_4711_1932)"/>
<path d="M54.7031 55.5888L62.6013 60.1103L64.4378 59.0275L56.5036 54.4941L54.7031 55.5888Z" fill="url(#paint60_linear_4711_1932)"/>
<path d="M64.4368 38.9612V39.6547L50.2773 31.924V31.2305L64.4368 38.9612Z" fill="url(#paint61_linear_4711_1932)"/>
<path d="M64.3152 38.175L64.0534 38.8112L50.2773 31.2341L50.963 30.8105L64.3152 38.175Z" fill="url(#paint62_linear_4711_1932)"/>
<path d="M64.4368 43.5643V44.3349L50.2773 35.7451V34.9746L64.4368 43.5643Z" fill="url(#paint63_linear_4711_1932)"/>
<path d="M64.4368 42.5807L63.7397 43.0043L50.2773 35.0037L50.963 34.5801L64.4368 42.5807Z" fill="url(#paint64_linear_4711_1932)"/>
<path d="M44.082 35.2832V39.6557L47.6219 37.463V33.1035L44.082 35.2832Z" fill="url(#paint65_linear_4711_1932)"/>
<path d="M44.0811 35.5271V39.6557L39.6562 37.2199V33.1035L44.0811 35.5271Z" fill="url(#paint66_linear_4711_1932)"/>
<path d="M44.082 35.2466V36.8476L47.6219 34.7045V33.1035L44.082 35.2466Z" fill="url(#paint67_linear_4711_1932)"/>
<path d="M44.0811 35.389V36.8476L39.6562 34.5506V33.1035L44.0811 35.389Z" fill="url(#paint68_linear_4711_1932)"/>
<path d="M39.6328 33.0814L44.0551 35.4438L47.6186 33.1054L43.3945 30.7637L39.6328 33.0814Z" fill="url(#paint69_linear_4711_1932)"/>
<path d="M60.8945 28.5232V86.4573L67.0893 82.3771V24.6797L60.8945 28.5232Z" fill="url(#paint70_linear_4711_1932)"/>
<path d="M60.8949 28.5216V86.4578L59.125 85.4245V27.4883L60.8949 28.5216Z" fill="url(#paint71_linear_4711_1932)"/>
<path d="M59.125 27.4797L60.8834 28.5223L67.0897 24.6848L65.4235 23.7422L59.125 27.4797Z" fill="url(#paint72_linear_4711_1932)"/>
<path d="M27.2639 79.9153C27.2639 80.387 27.0673 80.5659 26.8214 80.3382C26.6941 80.2003 26.5879 80.0154 26.5111 79.7981C26.4343 79.5807 26.389 79.3368 26.3789 79.0857C26.3789 78.6139 26.5756 78.435 26.8214 78.6628C26.9487 78.8007 27.0549 78.9856 27.1317 79.2029C27.2085 79.4203 27.2537 79.6641 27.2639 79.9153Z" fill="url(#paint73_linear_4711_1932)"/>
<path d="M29.0412 81.2551C29.0412 81.7268 28.8446 81.9058 28.5988 81.678C28.4714 81.5401 28.3652 81.3552 28.2884 81.1379C28.2116 80.9206 28.1664 80.6767 28.1562 80.4255C28.1562 79.9538 28.3529 79.7749 28.5988 80.0026C28.7261 80.1405 28.8323 80.3254 28.9091 80.5428C28.9858 80.7601 29.0311 81.0039 29.0412 81.2551Z" fill="url(#paint74_linear_4711_1932)"/>
<path d="M64.4336 28.8475C64.4336 29.3032 64.6324 29.4985 64.881 29.2544C65.0079 29.1146 65.1135 28.9289 65.1893 28.7115C65.2652 28.4941 65.3094 28.251 65.3186 28.0011C65.3186 27.5454 65.1197 27.3501 64.881 27.5942C64.7523 27.7322 64.6449 27.9172 64.5672 28.1347C64.4896 28.3521 64.4438 28.5962 64.4336 28.8475Z" fill="url(#paint75_linear_4711_1932)"/>
<path d="M64.7539 78.9237C64.7539 79.3794 64.9527 79.5747 65.2013 79.3306C65.3282 79.1908 65.4338 79.005 65.5097 78.7877C65.5855 78.5703 65.6297 78.3272 65.6389 78.0773C65.6389 77.6216 65.44 77.4262 65.2013 77.6704C65.0726 77.8084 64.9652 77.9934 64.8876 78.2108C64.8099 78.4283 64.7642 78.6723 64.7539 78.9237Z" fill="url(#paint76_linear_4711_1932)"/>
<path d="M64.4336 31.7557C64.4336 32.2114 64.6324 32.4067 64.881 32.1626C65.0079 32.0229 65.1135 31.8371 65.1893 31.6197C65.2652 31.4023 65.3094 31.1592 65.3186 30.9093C65.3186 30.4536 65.1197 30.2583 64.881 30.5024C64.7523 30.6404 64.6449 30.8254 64.5672 31.0429C64.4896 31.2604 64.4438 31.5044 64.4336 31.7557Z" fill="url(#paint77_linear_4711_1932)"/>
<path d="M64.7539 81.8319C64.7539 82.2876 64.9527 82.4829 65.2013 82.2388C65.3282 82.099 65.4338 81.9132 65.5097 81.6959C65.5855 81.4785 65.6297 81.2354 65.6389 80.9855C65.6389 80.5298 65.44 80.3344 65.2013 80.5786C65.0726 80.7166 64.9652 80.9016 64.8876 81.1191C64.8099 81.3365 64.7642 81.5806 64.7539 81.8319Z" fill="url(#paint78_linear_4711_1932)"/>
<path d="M62.668 29.7882C62.668 30.2457 62.8646 30.4255 63.1105 30.1967C63.2378 30.0582 63.344 29.8725 63.4208 29.6542C63.4976 29.4359 63.5428 29.1909 63.5529 28.9386C63.5529 28.4812 63.3563 28.2851 63.1105 28.5302C62.9831 28.6687 62.8769 28.8544 62.8001 29.0727C62.7233 29.291 62.6781 29.536 62.668 29.7882Z" fill="url(#paint79_linear_4711_1932)"/>
<path d="M62.9883 79.8644C62.9883 80.3219 63.1849 80.5016 63.4308 80.2729C63.5581 80.1344 63.6643 79.9487 63.7411 79.7303C63.8179 79.512 63.8631 79.2671 63.8733 79.0148C63.8733 78.5573 63.6766 78.3613 63.4308 78.6063C63.3035 78.7449 63.1972 78.9306 63.1204 79.1489C63.0437 79.3672 62.9984 79.6121 62.9883 79.8644Z" fill="url(#paint80_linear_4711_1932)"/>
<path d="M62.668 32.5897C62.668 33.0454 62.8646 33.2407 63.1105 32.9966C63.2378 32.8586 63.344 32.6736 63.4208 32.4562C63.4976 32.2387 63.5428 31.9946 63.5529 31.7433C63.5529 31.2876 63.3563 31.0923 63.1105 31.3364C62.9831 31.4744 62.8769 31.6594 62.8001 31.8769C62.7233 32.0944 62.6781 32.3383 62.668 32.5897Z" fill="url(#paint81_linear_4711_1932)"/>
<path d="M62.9883 82.6678C62.9883 83.1235 63.1849 83.3189 63.4308 83.0747C63.5581 82.9367 63.6643 82.7518 63.7411 82.5343C63.8179 82.3168 63.8631 82.0728 63.8733 81.8214C63.8733 81.3657 63.6766 81.1704 63.4308 81.4145C63.3035 81.5525 63.1972 81.7375 63.1204 81.955C63.0437 82.1725 62.9984 82.4165 62.9883 82.6678Z" fill="url(#paint82_linear_4711_1932)"/>
<path style="mix-blend-mode:color-dodge" d="M52.9304 28.4457L48.8561 30.8532L41.4258 26.5508L48.6316 31.2584L48.8224 38.7191L49.002 31.2465L52.9304 28.4457Z" fill="url(#paint83_radial_4711_1932)"/>
<defs>
<linearGradient id="paint0_linear_4711_1932" x1="13.4481" y1="32.485" x2="46.4578" y2="29.303" gradientUnits="userSpaceOnUse">
<stop stop-color="#ADADAD"/>
<stop offset="0.106774" stop-color="#626262"/>
<stop offset="0.33" stop-color="#828282"/>
<stop offset="0.55" stop-color="#808080"/>
<stop offset="0.638542" stop-color="#949494"/>
<stop offset="0.76" stop-color="#ADADAD"/>
<stop offset="1" stop-color="#D8D8D8"/>
</linearGradient>
<linearGradient id="paint1_linear_4711_1932" x1="30.4438" y1="14.6349" x2="8.3591" y2="9.16146" gradientUnits="userSpaceOnUse">
<stop offset="0.059958" stop-color="#A9A9A9"/>
<stop offset="0.204449" stop-color="#C4C4C4"/>
<stop offset="0.401123" stop-color="#C1C1C1"/>
<stop offset="0.55" stop-color="#D8D8D8"/>
<stop offset="0.76" stop-color="#E6E6E6"/>
<stop offset="1" stop-color="#F2F2F2"/>
</linearGradient>
<linearGradient id="paint2_linear_4711_1932" x1="47.761" y1="3.78258" x2="47.1983" y2="-3.90124" gradientUnits="userSpaceOnUse">
<stop offset="0.059958" stop-color="#A9A9A9"/>
<stop offset="0.204449" stop-color="#C4C4C4"/>
<stop offset="0.401123" stop-color="#C1C1C1"/>
<stop offset="0.55" stop-color="#D8D8D8"/>
<stop offset="0.76" stop-color="#E6E6E6"/>
<stop offset="1" stop-color="#F2F2F2"/>
</linearGradient>
<linearGradient id="paint3_linear_4711_1932" x1="63.0791" y1="63.1944" x2="69.2814" y2="61.1968" gradientUnits="userSpaceOnUse">
<stop stop-color="#9F79C8"/>
<stop offset="0.14" stop-color="#A580CB"/>
<stop offset="0.33" stop-color="#B492D3"/>
<stop offset="0.55" stop-color="#CDB0E1"/>
<stop offset="0.58" stop-color="#D1B4E3"/>
<stop offset="0.76" stop-color="#DBC4E9"/>
<stop offset="1" stop-color="#EBDEF3"/>
</linearGradient>
<linearGradient id="paint4_linear_4711_1932" x1="53.7173" y1="53.28" x2="68.4095" y2="68.8186" gradientUnits="userSpaceOnUse">
<stop stop-color="#999999"/>
<stop offset="0.14" stop-color="#868686"/>
<stop offset="0.33" stop-color="#838383"/>
<stop offset="0.55" stop-color="#828282"/>
<stop offset="0.638542" stop-color="#848484"/>
<stop offset="0.76" stop-color="#939393"/>
<stop offset="1" stop-color="#A9A9A9"/>
</linearGradient>
<linearGradient id="paint5_linear_4711_1932" x1="61.773" y1="54.2238" x2="59.4407" y2="58.7145" gradientUnits="userSpaceOnUse">
<stop stop-color="#9F79C8"/>
<stop offset="0.14" stop-color="#A580CB"/>
<stop offset="0.33" stop-color="#B492D3"/>
<stop offset="0.55" stop-color="#CDB0E1"/>
<stop offset="0.58" stop-color="#D1B4E3"/>
<stop offset="0.76" stop-color="#DBC4E9"/>
<stop offset="1" stop-color="#EBDEF3"/>
</linearGradient>
<linearGradient id="paint6_linear_4711_1932" x1="24.7789" y1="64.2429" x2="44.822" y2="63.07" gradientUnits="userSpaceOnUse">
<stop stop-color="#ADADAD"/>
<stop offset="0.106774" stop-color="#626262"/>
<stop offset="0.33" stop-color="#828282"/>
<stop offset="0.55" stop-color="#808080"/>
<stop offset="0.638542" stop-color="#949494"/>
<stop offset="0.76" stop-color="#ADADAD"/>
<stop offset="1" stop-color="#D8D8D8"/>
</linearGradient>
<linearGradient id="paint7_linear_4711_1932" x1="31.1482" y1="62.9792" x2="28.2647" y2="53.3317" gradientUnits="userSpaceOnUse">
<stop offset="0.059958" stop-color="#A9A9A9"/>
<stop offset="0.204449" stop-color="#C4C4C4"/>
<stop offset="0.401123" stop-color="#C1C1C1"/>
<stop offset="0.55" stop-color="#D8D8D8"/>
<stop offset="0.76" stop-color="#E6E6E6"/>
<stop offset="1" stop-color="#F2F2F2"/>
</linearGradient>
<linearGradient id="paint8_linear_4711_1932" x1="38.8943" y1="42.0416" x2="28.9451" y2="61.2265" gradientUnits="userSpaceOnUse">
<stop stop-color="#9F79C8"/>
<stop offset="0.14" stop-color="#A580CB"/>
<stop offset="0.33" stop-color="#B492D3"/>
<stop offset="0.55" stop-color="#CDB0E1"/>
<stop offset="0.58" stop-color="#D1B4E3"/>
<stop offset="0.76" stop-color="#DBC4E9"/>
<stop offset="1" stop-color="#EBDEF3"/>
</linearGradient>
<linearGradient id="paint9_linear_4711_1932" x1="32.863" y1="63.9921" x2="12.3465" y2="57.8573" gradientUnits="userSpaceOnUse">
<stop stop-color="#545454"/>
<stop offset="1" stop-color="#383838"/>
</linearGradient>
<linearGradient id="paint10_linear_4711_1932" x1="25.6718" y1="63.9917" x2="19.3294" y2="62.4745" gradientUnits="userSpaceOnUse">
<stop stop-color="#545454"/>
<stop offset="1" stop-color="#383838"/>
</linearGradient>
<linearGradient id="paint11_linear_4711_1932" x1="35.1832" y1="48.4023" x2="28.9742" y2="59.8943" gradientUnits="userSpaceOnUse">
<stop stop-color="#2E2E2E"/>
<stop offset="1" stop-color="#363636"/>
</linearGradient>
<linearGradient id="paint12_linear_4711_1932" x1="57.0981" y1="81.2274" x2="72.4598" y2="77.0871" gradientUnits="userSpaceOnUse">
<stop stop-color="#9F79C8"/>
<stop offset="0.14" stop-color="#A580CB"/>
<stop offset="0.33" stop-color="#B492D3"/>
<stop offset="0.55" stop-color="#CDB0E1"/>
<stop offset="0.58" stop-color="#D1B4E3"/>
<stop offset="0.76" stop-color="#DBC4E9"/>
<stop offset="1" stop-color="#EBDEF3"/>
</linearGradient>
<linearGradient id="paint13_linear_4711_1932" x1="25.8588" y1="60.9978" x2="47.736" y2="102.417" gradientUnits="userSpaceOnUse">
<stop stop-color="#999999"/>
<stop offset="0.14" stop-color="#868686"/>
<stop offset="0.33" stop-color="#838383"/>
<stop offset="0.55" stop-color="#828282"/>
<stop offset="0.638542" stop-color="#848484"/>
<stop offset="0.76" stop-color="#939393"/>
<stop offset="1" stop-color="#A9A9A9"/>
</linearGradient>
<linearGradient id="paint14_linear_4711_1932" x1="53.0263" y1="82.6451" x2="-18.0874" y2="53.9428" gradientUnits="userSpaceOnUse">
<stop stop-color="#C7C7C7"/>
<stop offset="1" stop-color="#B1B1B1"/>
</linearGradient>
<linearGradient id="paint15_linear_4711_1932" x1="34.4386" y1="22.5102" x2="44.1922" y2="18.5885" gradientUnits="userSpaceOnUse">
<stop offset="0.04" stop-color="#9D9EB3"/>
<stop offset="0.58" stop-color="#D4D1D8"/>
<stop offset="1" stop-color="#EEEBF2"/>
</linearGradient>
<linearGradient id="paint16_linear_4711_1932" x1="26.7097" y1="23.5376" x2="39.7893" y2="21.0429" gradientUnits="userSpaceOnUse">
<stop offset="0.04" stop-color="#9D9EB3"/>
<stop offset="0.58" stop-color="#D4D1D8"/>
<stop offset="1" stop-color="#EEEBF2"/>
</linearGradient>
<linearGradient id="paint17_linear_4711_1932" x1="35.2125" y1="13.8603" x2="33.4703" y2="16.7507" gradientUnits="userSpaceOnUse">
<stop offset="0.04" stop-color="#9D9EB3"/>
<stop offset="0.58" stop-color="#D4D1D8"/>
<stop offset="1" stop-color="#EEEBF2"/>
</linearGradient>
<linearGradient id="paint18_linear_4711_1932" x1="55.2639" y1="72.2915" x2="72.8734" y2="91.2604" gradientUnits="userSpaceOnUse">
<stop stop-color="#999999"/>
<stop offset="0.14" stop-color="#868686"/>
<stop offset="0.33" stop-color="#838383"/>
<stop offset="0.55" stop-color="#828282"/>
<stop offset="0.638542" stop-color="#848484"/>
<stop offset="0.76" stop-color="#939393"/>
<stop offset="1" stop-color="#A9A9A9"/>
</linearGradient>
<linearGradient id="paint19_linear_4711_1932" x1="59.6509" y1="80.8872" x2="54.7766" y2="71.374" gradientUnits="userSpaceOnUse">
<stop offset="0.059958" stop-color="#A9A9A9"/>
<stop offset="0.204449" stop-color="#C4C4C4"/>
<stop offset="0.401123" stop-color="#C1C1C1"/>
<stop offset="0.55" stop-color="#D8D8D8"/>
<stop offset="0.76" stop-color="#E6E6E6"/>
<stop offset="1" stop-color="#F2F2F2"/>
</linearGradient>
<linearGradient id="paint20_linear_4711_1932" x1="69.8823" y1="57.7892" x2="57.6977" y2="78.3599" gradientUnits="userSpaceOnUse">
<stop stop-color="#9F79C8"/>
<stop offset="0.14" stop-color="#A580CB"/>
<stop offset="0.33" stop-color="#B492D3"/>
<stop offset="0.55" stop-color="#CDB0E1"/>
<stop offset="0.58" stop-color="#D1B4E3"/>
<stop offset="0.76" stop-color="#DBC4E9"/>
<stop offset="1" stop-color="#EBDEF3"/>
</linearGradient>
<linearGradient id="paint21_linear_4711_1932" x1="63.6013" y1="82.7128" x2="41.4154" y2="75.4155" gradientUnits="userSpaceOnUse">
<stop stop-color="#545454"/>
<stop offset="1" stop-color="#383838"/>
</linearGradient>
<linearGradient id="paint22_linear_4711_1932" x1="55.9999" y1="82.7123" x2="51.6406" y2="82.0171" gradientUnits="userSpaceOnUse">
<stop stop-color="#545454"/>
<stop offset="1" stop-color="#383838"/>
</linearGradient>
<linearGradient id="paint23_linear_4711_1932" x1="66.1211" y1="66.8092" x2="59.7627" y2="78.3749" gradientUnits="userSpaceOnUse">
<stop stop-color="#2E2E2E"/>
<stop offset="1" stop-color="#363636"/>
</linearGradient>
<linearGradient id="paint24_linear_4711_1932" x1="33.4313" y1="34.2532" x2="31.6314" y2="34.2532" gradientUnits="userSpaceOnUse">
<stop stop-color="#494949"/>
<stop offset="1" stop-color="#8D8D8D"/>
</linearGradient>
<linearGradient id="paint25_linear_4711_1932" x1="42.1082" y1="40.9804" x2="44.397" y2="40.9781" gradientUnits="userSpaceOnUse">
<stop offset="0.0555556" stop-color="#3E3D3E"/>
<stop offset="0.2575" stop-color="#686868"/>
<stop offset="0.3569" stop-color="#868686"/>
<stop offset="0.4338" stop-color="#646464"/>
<stop offset="0.4949" stop-color="#535353"/>
<stop offset="0.5067" stop-color="#585858"/>
<stop offset="0.5196" stop-color="#919191"/>
<stop offset="0.5329" stop-color="#D6D6D6"/>
<stop offset="0.5466" stop-color="#FCFCFC"/>
<stop offset="0.5556" stop-color="white"/>
<stop offset="0.5678" stop-color="#D3D3D3"/>
<stop offset="0.5801" stop-color="#BCBCBC"/>
<stop offset="0.5915" stop-color="#A5A3A6"/>
<stop offset="0.601" stop-color="#A3A3A3"/>
<stop offset="0.658" stop-color="#707070"/>
<stop offset="0.7155" stop-color="#575757"/>
<stop offset="0.7687" stop-color="#676767"/>
<stop offset="0.8131" stop-color="#6D6D6D"/>
<stop offset="1" stop-color="#111111"/>
</linearGradient>
<linearGradient id="paint26_linear_4711_1932" x1="39.0511" y1="39.1346" x2="45.9175" y2="39.1269" gradientUnits="userSpaceOnUse">
<stop offset="0.0555556" stop-color="#3E3D3E"/>
<stop offset="0.2575" stop-color="#686868"/>
<stop offset="0.3569" stop-color="#868686"/>
<stop offset="0.4338" stop-color="#646464"/>
<stop offset="0.4949" stop-color="#535353"/>
<stop offset="0.5067" stop-color="#585858"/>
<stop offset="0.5196" stop-color="#919191"/>
<stop offset="0.5329" stop-color="#D6D6D6"/>
<stop offset="0.5466" stop-color="#FCFCFC"/>
<stop offset="0.5556" stop-color="white"/>
<stop offset="0.5678" stop-color="#D3D3D3"/>
<stop offset="0.5801" stop-color="#BCBCBC"/>
<stop offset="0.5915" stop-color="#A5A3A6"/>
<stop offset="0.601" stop-color="#A3A3A3"/>
<stop offset="0.658" stop-color="#707070"/>
<stop offset="0.7155" stop-color="#575757"/>
<stop offset="0.7687" stop-color="#676767"/>
<stop offset="0.8131" stop-color="#6D6D6D"/>
<stop offset="1" stop-color="#111111"/>
</linearGradient>
<linearGradient id="paint27_linear_4711_1932" x1="32.7912" y1="23.5807" x2="47.2773" y2="18.9465" gradientUnits="userSpaceOnUse">
<stop offset="0.04" stop-color="#9D9EB3"/>
<stop offset="0.58" stop-color="#D4D1D8"/>
<stop offset="1" stop-color="#EEEBF2"/>
</linearGradient>
<linearGradient id="paint28_linear_4711_1932" x1="27.9382" y1="25.3359" x2="34.9051" y2="24.3078" gradientUnits="userSpaceOnUse">
<stop offset="0.04" stop-color="#9D9EB3"/>
<stop offset="0.58" stop-color="#D4D1D8"/>
<stop offset="1" stop-color="#EEEBF2"/>
</linearGradient>
<linearGradient id="paint29_linear_4711_1932" x1="37.492" y1="8.9874" x2="31.8502" y2="18.0081" gradientUnits="userSpaceOnUse">
<stop offset="0.04" stop-color="#9D9EB3"/>
<stop offset="0.58" stop-color="#D4D1D8"/>
<stop offset="1" stop-color="#EEEBF2"/>
</linearGradient>
<linearGradient id="paint30_linear_4711_1932" x1="78.6619" y1="14.0225" x2="22.259" y2="3.2685" gradientUnits="userSpaceOnUse">
<stop stop-color="#858585"/>
<stop offset="0.14" stop-color="#A0A0A0"/>
<stop offset="0.33" stop-color="#A7A7A7"/>
<stop offset="0.58" stop-color="#B3B3B3"/>
<stop offset="0.76" stop-color="#C4C4C4"/>
<stop offset="1" stop-color="#F7F7F7"/>
</linearGradient>
<linearGradient id="paint31_linear_4711_1932" x1="72.8168" y1="14.4008" x2="51.8805" y2="37.9064" gradientUnits="userSpaceOnUse">
<stop offset="0.059958" stop-color="#A9A9A9"/>
<stop offset="0.204449" stop-color="#C4C4C4"/>
<stop offset="0.401123" stop-color="#C1C1C1"/>
<stop offset="0.55" stop-color="#D8D8D8"/>
<stop offset="0.76" stop-color="#E6E6E6"/>
<stop offset="1" stop-color="#F2F2F2"/>
</linearGradient>
<linearGradient id="paint32_linear_4711_1932" x1="43.1871" y1="29.3597" x2="14.2589" y2="17.8265" gradientUnits="userSpaceOnUse">
<stop stop-color="#A8A8A8"/>
<stop offset="1" stop-color="#383838"/>
</linearGradient>
<linearGradient id="paint33_linear_4711_1932" x1="46.6335" y1="12.4348" x2="39.7498" y2="25.4895" gradientUnits="userSpaceOnUse">
<stop stop-color="#666666"/>
<stop offset="1" stop-color="#505050"/>
</linearGradient>
<linearGradient id="paint34_linear_4711_1932" x1="43.1871" y1="33.1039" x2="14.2589" y2="21.5706" gradientUnits="userSpaceOnUse">
<stop stop-color="#A8A8A8"/>
<stop offset="1" stop-color="#383838"/>
</linearGradient>
<linearGradient id="paint35_linear_4711_1932" x1="46.6338" y1="16.3338" x2="40.0534" y2="29.183" gradientUnits="userSpaceOnUse">
<stop stop-color="#666666"/>
<stop offset="1" stop-color="#505050"/>
</linearGradient>
<linearGradient id="paint36_linear_4711_1932" x1="29.7369" y1="55.9641" x2="57.0939" y2="105.647" gradientUnits="userSpaceOnUse">
<stop stop-color="#999999"/>
<stop offset="0.14" stop-color="#868686"/>
<stop offset="0.33" stop-color="#838383"/>
<stop offset="0.55" stop-color="#828282"/>
<stop offset="0.638542" stop-color="#848484"/>
<stop offset="0.76" stop-color="#939393"/>
<stop offset="1" stop-color="#A9A9A9"/>
</linearGradient>
<linearGradient id="paint37_linear_4711_1932" x1="53.1433" y1="82.7115" x2="-31.3535" y2="48.5057" gradientUnits="userSpaceOnUse">
<stop stop-color="#C7C7C7"/>
<stop offset="1" stop-color="#B1B1B1"/>
</linearGradient>
<linearGradient id="paint38_linear_4711_1932" x1="50.7412" y1="78.8185" x2="-16.758" y2="51.9076" gradientUnits="userSpaceOnUse">
<stop stop-color="#3A3A3A"/>
<stop offset="1" stop-color="#383838"/>
</linearGradient>
<linearGradient id="paint39_linear_4711_1932" x1="26.2463" y1="78.7215" x2="29.0727" y2="77.7598" gradientUnits="userSpaceOnUse">
<stop stop-color="#25054D"/>
<stop offset="1" stop-color="#45108A"/>
</linearGradient>
<linearGradient id="paint40_linear_4711_1932" x1="59.0401" y1="37.4771" x2="40.8661" y2="69.8494" gradientUnits="userSpaceOnUse">
<stop stop-color="#666666"/>
<stop offset="1" stop-color="#505050"/>
</linearGradient>
<linearGradient id="paint41_linear_4711_1932" x1="53.5029" y1="80.7325" x2="-13.9962" y2="53.8217" gradientUnits="userSpaceOnUse">
<stop stop-color="#3A3A3A"/>
<stop offset="1" stop-color="#383838"/>
</linearGradient>
<linearGradient id="paint42_linear_4711_1932" x1="28.8848" y1="80.3501" x2="31.9615" y2="79.8239" gradientUnits="userSpaceOnUse">
<stop stop-color="#25054D"/>
<stop offset="1" stop-color="#45108A"/>
</linearGradient>
<linearGradient id="paint43_linear_4711_1932" x1="61.6963" y1="39.3501" x2="43.5223" y2="71.7225" gradientUnits="userSpaceOnUse">
<stop stop-color="#666666"/>
<stop offset="1" stop-color="#505050"/>
</linearGradient>
<linearGradient id="paint44_linear_4711_1932" x1="62.526" y1="55.8342" x2="51.1076" y2="75.1926" gradientUnits="userSpaceOnUse">
<stop stop-color="#2E2E2E"/>
<stop offset="1" stop-color="#363636"/>
</linearGradient>
<linearGradient id="paint45_linear_4711_1932" x1="43.94" y1="55.8342" x2="32.5217" y2="75.1926" gradientUnits="userSpaceOnUse">
<stop stop-color="#A8F800"/>
<stop offset="1" stop-color="#363636"/>
</linearGradient>
<linearGradient id="paint46_linear_4711_1932" x1="50.4089" y1="74.7271" x2="89.5552" y2="63.281" gradientUnits="userSpaceOnUse">
<stop offset="0.04" stop-color="#9D9EB3"/>
<stop offset="0.58" stop-color="#D4D1D8"/>
<stop offset="1" stop-color="#EEEBF2"/>
</linearGradient>
<linearGradient id="paint47_linear_4711_1932" x1="9.72654" y1="79.6693" x2="61.1592" y2="68.5958" gradientUnits="userSpaceOnUse">
<stop offset="0.04" stop-color="#9D9EB3"/>
<stop offset="0.58" stop-color="#D4D1D8"/>
<stop offset="1" stop-color="#EEEBF2"/>
</linearGradient>
<linearGradient id="paint48_linear_4711_1932" x1="62.9881" y1="29.9844" x2="41.1053" y2="69.7574" gradientUnits="userSpaceOnUse">
<stop offset="0.04" stop-color="#9D9EB3"/>
<stop offset="0.58" stop-color="#D4D1D8"/>
<stop offset="1" stop-color="#EEEBF2"/>
</linearGradient>
<radialGradient id="paint49_radial_4711_1932" cx="0" cy="0" r="1" gradientUnits="userSpaceOnUse" gradientTransform="translate(38.9749 77.723) scale(13.6828 14.2435)">
<stop stop-color="white"/>
<stop offset="1"/>
</radialGradient>
<linearGradient id="paint50_linear_4711_1932" x1="49.715" y1="33.8699" x2="62.9639" y2="29.88" gradientUnits="userSpaceOnUse">
<stop offset="0.04" stop-color="#9D9EB3"/>
<stop offset="0.58" stop-color="#D4D1D8"/>
<stop offset="1" stop-color="#EEEBF2"/>
</linearGradient>
<linearGradient id="paint51_linear_4711_1932" x1="33.2055" y1="35.5551" x2="57.464" y2="30.6363" gradientUnits="userSpaceOnUse">
<stop offset="0.04" stop-color="#9D9EB3"/>
<stop offset="0.58" stop-color="#D4D1D8"/>
<stop offset="1" stop-color="#EEEBF2"/>
</linearGradient>
<linearGradient id="paint52_linear_4711_1932" x1="51.6733" y1="18.0308" x2="45.9969" y2="27.7713" gradientUnits="userSpaceOnUse">
<stop offset="0.04" stop-color="#9D9EB3"/>
<stop offset="0.58" stop-color="#D4D1D8"/>
<stop offset="1" stop-color="#EEEBF2"/>
</linearGradient>
<linearGradient id="paint53_linear_4711_1932" x1="31.4723" y1="76.712" x2="37.6885" y2="78.7991" gradientUnits="userSpaceOnUse">
<stop stop-color="#999999"/>
<stop offset="0.14" stop-color="#868686"/>
<stop offset="0.33" stop-color="#838383"/>
<stop offset="0.55" stop-color="#828282"/>
<stop offset="0.638542" stop-color="#848484"/>
<stop offset="0.76" stop-color="#939393"/>
<stop offset="1" stop-color="#A9A9A9"/>
</linearGradient>
<linearGradient id="paint54_linear_4711_1932" x1="44.4043" y1="77.3888" x2="42.0605" y2="62.7508" gradientUnits="userSpaceOnUse">
<stop offset="0.059958" stop-color="#A9A9A9"/>
<stop offset="0.204449" stop-color="#C4C4C4"/>
<stop offset="0.401123" stop-color="#C1C1C1"/>
<stop offset="0.55" stop-color="#D8D8D8"/>
<stop offset="0.76" stop-color="#E6E6E6"/>
<stop offset="1" stop-color="#F2F2F2"/>
</linearGradient>
<linearGradient id="paint55_linear_4711_1932" x1="32.9882" y1="80.8396" x2="28.6665" y2="80.0385" gradientUnits="userSpaceOnUse">
<stop stop-color="#545454"/>
<stop offset="1" stop-color="#383838"/>
</linearGradient>
<linearGradient id="paint56_linear_4711_1932" x1="29.8006" y1="80.8407" x2="13.5709" y2="75.6643" gradientUnits="userSpaceOnUse">
<stop stop-color="#545454"/>
<stop offset="1" stop-color="#383838"/>
</linearGradient>
<linearGradient id="paint57_linear_4711_1932" x1="33.3989" y1="69.1959" x2="29.0453" y2="77.7275" gradientUnits="userSpaceOnUse">
<stop stop-color="#2E2E2E"/>
<stop offset="1" stop-color="#363636"/>
</linearGradient>
<linearGradient id="paint58_linear_4711_1932" x1="63.2275" y1="59.8922" x2="67.6969" y2="58.7507" gradientUnits="userSpaceOnUse">
<stop stop-color="#25054D"/>
<stop offset="1" stop-color="#45108A"/>
</linearGradient>
<linearGradient id="paint59_linear_4711_1932" x1="60.5388" y1="61.1845" x2="42.7175" y2="54.7899" gradientUnits="userSpaceOnUse">
<stop stop-color="#545454"/>
<stop offset="1" stop-color="#383838"/>
</linearGradient>
<linearGradient id="paint60_linear_4711_1932" x1="64.3642" y1="48.453" x2="59.3581" y2="57.9894" gradientUnits="userSpaceOnUse">
<stop stop-color="#2E2E2E"/>
<stop offset="1" stop-color="#363636"/>
</linearGradient>
<linearGradient id="paint61_linear_4711_1932" x1="60.6519" y1="39.6546" x2="30.3674" y2="26.7758" gradientUnits="userSpaceOnUse">
<stop stop-color="#A8A8A8"/>
<stop offset="1" stop-color="#383838"/>
</linearGradient>
<linearGradient id="paint62_linear_4711_1932" x1="64.2092" y1="22.2045" x2="57.1271" y2="35.8609" gradientUnits="userSpaceOnUse">
<stop stop-color="#666666"/>
<stop offset="1" stop-color="#505050"/>
</linearGradient>
<linearGradient id="paint63_linear_4711_1932" x1="60.6519" y1="44.3348" x2="29.4597" y2="32.3964" gradientUnits="userSpaceOnUse">
<stop stop-color="#A8A8A8"/>
<stop offset="1" stop-color="#383838"/>
</linearGradient>
<linearGradient id="paint64_linear_4711_1932" x1="64.3299" y1="25.5184" x2="56.6908" y2="39.6294" gradientUnits="userSpaceOnUse">
<stop stop-color="#666666"/>
<stop offset="1" stop-color="#505050"/>
</linearGradient>
<linearGradient id="paint65_linear_4711_1932" x1="45.138" y1="36.5989" x2="54.6868" y2="33.9462" gradientUnits="userSpaceOnUse">
<stop offset="0.04" stop-color="#9D9EB3"/>
<stop offset="0.58" stop-color="#D4D1D8"/>
<stop offset="1" stop-color="#EEEBF2"/>
</linearGradient>
<linearGradient id="paint66_linear_4711_1932" x1="34.5132" y1="37.9507" x2="49.4795" y2="34.4168" gradientUnits="userSpaceOnUse">
<stop offset="0.04" stop-color="#9D9EB3"/>
<stop offset="0.58" stop-color="#D4D1D8"/>
<stop offset="1" stop-color="#EEEBF2"/>
</linearGradient>
<linearGradient id="paint67_linear_4711_1932" x1="46.6757" y1="36.8476" x2="38.2192" y2="34.8247" gradientUnits="userSpaceOnUse">
<stop stop-color="#545454"/>
<stop offset="1" stop-color="#383838"/>
</linearGradient>
<linearGradient id="paint68_linear_4711_1932" x1="42.8983" y1="36.8476" x2="32.64" y2="33.7802" gradientUnits="userSpaceOnUse">
<stop stop-color="#545454"/>
<stop offset="1" stop-color="#383838"/>
</linearGradient>
<linearGradient id="paint69_linear_4711_1932" x1="47.5583" y1="25.7294" x2="43.3495" y2="33.622" gradientUnits="userSpaceOnUse">
<stop stop-color="#2E2E2E"/>
<stop offset="1" stop-color="#363636"/>
</linearGradient>
<linearGradient id="paint70_linear_4711_1932" x1="60.1278" y1="3.40198" x2="83.9666" y2="6.37311" gradientUnits="userSpaceOnUse">
<stop stop-color="#999999"/>
<stop offset="0.14" stop-color="#868686"/>
<stop offset="0.33" stop-color="#838383"/>
<stop offset="0.55" stop-color="#828282"/>
<stop offset="0.638542" stop-color="#848484"/>
<stop offset="0.76" stop-color="#939393"/>
<stop offset="1" stop-color="#A9A9A9"/>
</linearGradient>
<linearGradient id="paint71_linear_4711_1932" x1="64.0728" y1="35.2286" x2="41.988" y2="29.7552" gradientUnits="userSpaceOnUse">
<stop offset="0.059958" stop-color="#A9A9A9"/>
<stop offset="0.204449" stop-color="#C4C4C4"/>
<stop offset="0.401123" stop-color="#C1C1C1"/>
<stop offset="0.55" stop-color="#D8D8D8"/>
<stop offset="0.76" stop-color="#E6E6E6"/>
<stop offset="1" stop-color="#F2F2F2"/>
</linearGradient>
<linearGradient id="paint72_linear_4711_1932" x1="81.3899" y1="24.3696" x2="80.8356" y2="16.7429" gradientUnits="userSpaceOnUse">
<stop offset="0.059958" stop-color="#A9A9A9"/>
<stop offset="0.204449" stop-color="#C4C4C4"/>
<stop offset="0.401123" stop-color="#C1C1C1"/>
<stop offset="0.55" stop-color="#D8D8D8"/>
<stop offset="0.76" stop-color="#E6E6E6"/>
<stop offset="1" stop-color="#F2F2F2"/>
</linearGradient>
<linearGradient id="paint73_linear_4711_1932" x1="27.4064" y1="80.6025" x2="26.1792" y2="80.6025" gradientUnits="userSpaceOnUse">
<stop offset="0.0965998" stop-color="#A8F800"/>
<stop offset="1" stop-color="#8FD004"/>
</linearGradient>
<linearGradient id="paint74_linear_4711_1932" x1="29.1838" y1="81.9424" x2="27.9565" y2="81.9424" gradientUnits="userSpaceOnUse">
<stop offset="0.0965998" stop-color="#A8F800"/>
<stop offset="1" stop-color="#8FD004"/>
</linearGradient>
<linearGradient id="paint75_linear_4711_1932" x1="64.4336" y1="29.1588" x2="65.311" y2="29.0692" gradientUnits="userSpaceOnUse">
<stop stop-color="#A8F800"/>
<stop offset="1" stop-color="#8FD004"/>
</linearGradient>
<linearGradient id="paint76_linear_4711_1932" x1="64.7539" y1="79.2349" x2="65.6313" y2="79.1454" gradientUnits="userSpaceOnUse">
<stop stop-color="#A8F800"/>
<stop offset="1" stop-color="#8FD004"/>
</linearGradient>
<linearGradient id="paint77_linear_4711_1932" x1="64.4336" y1="32.067" x2="65.311" y2="31.9774" gradientUnits="userSpaceOnUse">
<stop stop-color="#A8F800"/>
<stop offset="1" stop-color="#8FD004"/>
</linearGradient>
<linearGradient id="paint78_linear_4711_1932" x1="64.7539" y1="82.1431" x2="65.6313" y2="82.0536" gradientUnits="userSpaceOnUse">
<stop stop-color="#A8F800"/>
<stop offset="1" stop-color="#8FD004"/>
</linearGradient>
<linearGradient id="paint79_linear_4711_1932" x1="62.668" y1="30.0943" x2="63.5454" y2="30.0047" gradientUnits="userSpaceOnUse">
<stop stop-color="#A8F800"/>
<stop offset="1" stop-color="#8FD004"/>
</linearGradient>
<linearGradient id="paint80_linear_4711_1932" x1="62.9883" y1="80.1705" x2="63.8657" y2="80.0809" gradientUnits="userSpaceOnUse">
<stop stop-color="#A8F800"/>
<stop offset="1" stop-color="#8FD004"/>
</linearGradient>
<linearGradient id="paint81_linear_4711_1932" x1="62.668" y1="32.9009" x2="63.5454" y2="32.8114" gradientUnits="userSpaceOnUse">
<stop stop-color="#A8F800"/>
<stop offset="1" stop-color="#8FD004"/>
</linearGradient>
<linearGradient id="paint82_linear_4711_1932" x1="62.9883" y1="82.9791" x2="63.8657" y2="82.8895" gradientUnits="userSpaceOnUse">
<stop stop-color="#A8F800"/>
<stop offset="1" stop-color="#8FD004"/>
</linearGradient>
<radialGradient id="paint83_radial_4711_1932" cx="0" cy="0" r="1" gradientUnits="userSpaceOnUse" gradientTransform="translate(44.6022 26.8249) scale(1.80706 1.9188)">
<stop stop-color="white"/>
<stop offset="1"/>
</radialGradient>
</defs>
</svg>
