<svg width="240" height="200" viewBox="0 0 240 200" fill="none" xmlns="http://www.w3.org/2000/svg">
<g clip-path="url(#clip0_2664_82817)">
<g opacity="0.61">
<path opacity="0.41" d="M77.3666 116.269L72.59 119.024C71.8033 119.474 71.8033 120.599 72.59 121.105L83.2108 127.797C83.6042 128.022 84.0537 128.022 84.4471 127.797L127.211 103.11C127.998 102.66 127.998 101.535 127.211 101.029L116.253 94.1687L115.972 94L113.556 95.4059L82.7051 113.232L77.3666 116.269Z" fill="#E1E1E1"/>
<path opacity="0.4213" d="M77.5916 116.214L72.8713 118.913C72.0846 119.363 72.0846 120.487 72.8713 120.937L83.3797 127.517C83.773 127.742 84.2226 127.742 84.5598 127.517L126.93 103.055C127.717 102.605 127.717 101.48 126.93 101.03L116.141 94.282L115.86 94.1133L113.444 95.5191L82.9301 113.177L77.5916 116.214Z" fill="#E1E1E1"/>
<path opacity="0.4327" d="M77.8167 116.157L73.1525 118.856C72.3658 119.306 72.3658 120.43 73.1525 120.88L83.5485 127.403C83.9419 127.628 84.3915 127.628 84.7286 127.403L126.706 103.166C127.493 102.716 127.493 101.592 126.706 101.142L115.973 94.45L115.692 94.2812L113.332 95.6309L83.099 113.12L77.8167 116.157Z" fill="#E1E1E1"/>
<path opacity="0.444" d="M78.0417 116.157L73.4338 118.8C72.6471 119.25 72.6471 120.375 73.4338 120.825L83.7174 127.236C84.0546 127.461 84.5041 127.461 84.8975 127.236L126.425 103.223C127.212 102.774 127.212 101.649 126.425 101.199L115.861 94.5632L115.58 94.3945L113.22 95.7442L83.2678 113.064L78.0417 116.157Z" fill="#E1E1E1"/>
<path opacity="0.4554" d="M78.3215 116.101L73.7697 118.744C72.983 119.194 72.983 120.262 73.7697 120.712L83.8847 127.067C84.2219 127.292 84.6715 127.292 85.0648 127.067L126.199 103.279C126.986 102.829 126.986 101.761 126.199 101.311L115.747 94.7878L115.466 94.6191L113.106 95.9688L83.4352 113.12L78.3215 116.101Z" fill="#E1E1E1"/>
<path opacity="0.4667" d="M78.5467 116.1L73.9949 118.744C73.2644 119.193 73.2082 120.262 73.9949 120.712L83.9976 127.01C84.3347 127.235 84.7843 127.235 85.1777 127.01L125.919 103.448C126.649 102.998 126.705 101.929 125.919 101.479L115.579 95.0125L115.298 94.8438L112.994 96.1934L83.6042 113.176L78.5467 116.1Z" fill="#E1E1E1"/>
<path opacity="0.4781" d="M78.77 116.043L74.2745 118.63C73.5439 119.08 73.5439 120.148 74.2745 120.598L84.1647 126.784C84.5019 127.009 84.9514 127.009 85.2886 126.784L125.636 103.447C126.367 102.997 126.367 101.928 125.636 101.478L115.409 95.1238L115.128 94.9551L112.824 96.3047L83.7151 113.119L78.77 116.043Z" fill="#E1E1E1"/>
<path opacity="0.4894" d="M78.9951 116.043L74.5557 118.63C73.8252 119.08 73.8252 120.148 74.5557 120.542L84.3336 126.672C84.6707 126.896 85.1203 126.896 85.4575 126.672L125.412 103.615C126.142 103.165 126.142 102.097 125.412 101.703L115.353 95.405L115.072 95.2363L112.824 96.5297L83.9964 113.175L78.9951 116.043Z" fill="#E1E1E1"/>
<path opacity="0.5008" d="M79.2201 115.987L74.837 118.518C74.1064 118.968 74.1064 119.98 74.837 120.43L84.5024 126.447C84.8396 126.672 85.2891 126.672 85.6263 126.447L125.187 103.616C125.918 103.166 125.918 102.154 125.187 101.704L115.241 95.4617L114.96 95.293L112.712 96.5864L84.1653 113.063L79.2201 115.987Z" fill="#E1E1E1"/>
<path opacity="0.5121" d="M79.4452 115.931L75.1182 118.461C74.3877 118.855 74.3877 119.923 75.1182 120.373L84.6151 126.334C84.9523 126.559 85.4018 126.559 85.739 126.334L124.907 103.728C125.637 103.334 125.637 102.266 124.907 101.816L115.073 95.6863L114.792 95.5176L112.544 96.811L84.3341 113.119L79.4452 115.931Z" fill="#E1E1E1"/>
<path opacity="0.5235" d="M79.6718 115.932L75.3448 118.406C74.6142 118.8 74.6142 119.868 75.3448 120.262L84.7293 126.167C85.0664 126.392 85.4598 126.392 85.8532 126.167L124.627 103.785C125.358 103.392 125.358 102.323 124.627 101.93L114.962 95.8562L114.737 95.6875L112.546 96.9809L84.6169 113.12L79.6718 115.932Z" fill="#E1E1E1"/>
<path opacity="0.5348" d="M79.8968 115.875L75.626 118.349C74.8955 118.743 74.8955 119.811 75.626 120.205L84.8981 125.997C85.2353 126.222 85.6287 126.222 85.9658 125.997L124.347 103.841C125.077 103.447 125.077 102.379 124.347 101.985L114.794 96.0242L114.569 95.8555L112.377 97.0926L84.7295 113.063L79.8968 115.875Z" fill="#E1E1E1"/>
<path opacity="0.5462" d="M80.1219 115.876L75.9073 118.294C75.1767 118.688 75.1767 119.7 75.9073 120.15L85.067 125.886C85.4042 126.111 85.7975 126.111 86.1347 125.886L124.066 103.954C124.797 103.561 124.797 102.549 124.066 102.099L114.625 96.1941L114.401 96.0254L112.265 97.2626L84.8984 113.065L80.1219 115.876Z" fill="#E1E1E1"/>
<path opacity="0.5575" d="M80.4024 115.819L76.244 118.237C75.5697 118.631 75.5697 119.643 76.244 120.037L85.2914 125.66C85.6285 125.829 86.0219 125.885 86.3591 125.66L123.897 103.954C124.571 103.56 124.571 102.548 123.897 102.154L114.569 96.3621L114.344 96.1934L112.209 97.4305L85.1228 113.064L80.4024 115.819Z" fill="#E1E1E1"/>
<path opacity="0.5688" d="M80.6275 115.819L76.5253 118.18C75.8509 118.574 75.8509 119.586 76.5253 119.98L85.4602 125.547C85.7974 125.716 86.1907 125.716 86.5279 125.547L123.673 104.065C124.347 103.672 124.347 102.66 123.673 102.266L114.4 96.53L114.176 96.3613L112.04 97.5985L85.2354 113.063L80.6275 115.819Z" fill="#E1E1E1"/>
<path opacity="0.5802" d="M80.8501 115.764L76.7479 118.125C76.0736 118.519 76.0736 119.475 76.7479 119.925L85.5143 125.38C85.8515 125.548 86.2448 125.548 86.582 125.38L123.333 104.123C124.008 103.729 124.008 102.773 123.333 102.323L114.286 96.7L114.061 96.5312L111.982 97.7122L85.4581 113.008L80.8501 115.764Z" fill="#E1E1E1"/>
<path opacity="0.5915" d="M81.0752 115.707L77.0292 118.068C76.3549 118.462 76.3549 119.418 77.0292 119.812L85.6831 125.21C86.0203 125.379 86.4137 125.379 86.6946 125.21L123.053 104.178C123.727 103.785 123.727 102.829 123.053 102.435L114.118 96.8679L113.893 96.6992L111.814 97.8801L85.5708 113.007L81.0752 115.707Z" fill="#E1E1E1"/>
<path opacity="0.6029" d="M81.3003 115.707L77.3104 118.012C76.6361 118.406 76.6361 119.362 77.3104 119.756L85.852 125.098C86.1892 125.267 86.5825 125.267 86.8635 125.098L122.828 104.347C123.502 103.954 123.502 102.998 122.828 102.604L114.005 97.0929L113.781 96.9805L111.758 98.1614L85.852 113.12L81.3003 115.707Z" fill="#E1E1E1"/>
<path opacity="0.6142" d="M81.5253 115.65L77.5917 117.955C76.9174 118.349 76.9174 119.305 77.5917 119.699L86.0209 124.928C86.358 125.097 86.6952 125.097 87.0324 124.928L122.604 104.403C123.278 104.009 123.278 103.053 122.604 102.659L113.893 97.2609L113.669 97.1484L111.646 98.3294L86.0209 113.119L81.5253 115.65Z" fill="#E1E1E1"/>
<path opacity="0.6256" d="M81.748 115.651L77.8143 117.9C77.14 118.294 77.14 119.194 77.8143 119.587L86.1311 124.761C86.4121 124.93 86.8055 124.93 87.1426 124.761L122.32 104.46C122.995 104.067 122.995 103.167 122.32 102.773L113.723 97.4308L113.498 97.3184L111.475 98.4993L86.1311 113.12L81.748 115.651Z" fill="#E1E1E1"/>
<path opacity="0.6369" d="M81.9756 115.594L78.0982 117.843C77.48 118.237 77.4239 119.137 78.0982 119.53L86.3026 124.591C86.5836 124.76 86.9769 124.76 87.3141 124.591L122.099 104.516C122.717 104.122 122.773 103.222 122.099 102.829L113.669 97.5988L113.445 97.4863L111.478 98.611L86.415 113.12L81.9756 115.594Z" fill="#E1E1E1"/>
<path opacity="0.6483" d="M82.1989 115.537L78.3777 117.73C77.7595 118.124 77.7595 119.023 78.3777 119.417L86.4135 124.422C86.6945 124.591 87.0878 124.591 87.3688 124.422L121.704 104.571C122.322 104.178 122.322 103.278 121.704 102.884L113.387 97.7105L113.274 97.6543L111.308 98.779L86.5259 113.119L82.1989 115.537Z" fill="#E1E1E1"/>
<path opacity="0.6596" d="M82.4786 115.539L78.7136 117.732C78.0955 118.069 78.0955 119.025 78.7136 119.363L86.637 124.311C86.918 124.48 87.3114 124.48 87.5923 124.311L121.534 104.685C122.152 104.348 122.152 103.392 121.534 103.054L113.329 97.9933L113.105 97.8809L111.194 99.0056L86.6932 113.177L82.4786 115.539Z" fill="#E1E1E1"/>
<path opacity="0.671" d="M82.7037 115.481L78.9949 117.618C78.3767 117.955 78.3767 118.855 78.9949 119.249L86.8059 124.085C87.0869 124.253 87.4802 124.253 87.7612 124.085L121.309 104.684C121.927 104.346 121.927 103.447 121.309 103.053L113.217 98.048L112.993 97.9355L111.082 99.0602L86.8621 113.063L82.7037 115.481Z" fill="#E1E1E1"/>
<path opacity="0.6823" d="M82.9303 115.481L79.2214 117.618C78.6033 117.955 78.6033 118.855 79.2214 119.249L86.9201 124.029C87.201 124.197 87.5944 124.197 87.8754 124.029L121.03 104.852C121.648 104.515 121.648 103.615 121.03 103.222L113.107 98.3293L112.882 98.2168L111.028 99.2853L87.0887 113.119L82.9303 115.481Z" fill="#E1E1E1"/>
<path opacity="0.6937" d="M83.1553 115.425L79.5027 117.506C78.8845 117.843 78.8845 118.743 79.5027 119.08L87.0889 123.748C87.3699 123.916 87.7071 123.916 88.0442 123.748L120.806 104.797C121.424 104.459 121.424 103.559 120.806 103.222L112.995 98.3859L112.77 98.2734L110.915 99.3419L87.3137 113.007L83.1553 115.425Z" fill="#E1E1E1"/>
<path opacity="0.705" d="M83.3804 115.425L79.7839 117.506C79.1658 117.843 79.1658 118.743 79.7839 119.08L87.2016 123.692C87.4826 123.86 87.8197 123.86 88.1007 123.692L120.469 105.022C121.087 104.684 121.087 103.785 120.469 103.447L112.77 98.6672L112.545 98.5547L110.691 99.6231L87.3702 113.119L83.3804 115.425Z" fill="#E1E1E1"/>
<path opacity="0.7163" d="M83.6054 115.37L80.0652 117.394C79.447 117.732 79.447 118.575 80.0652 118.912L87.3705 123.411C87.6514 123.58 87.9886 123.58 88.2696 123.411L120.244 104.966C120.862 104.629 120.862 103.785 120.244 103.448L112.658 98.7804L112.433 98.668L110.635 99.7364L87.5952 113.064L83.6054 115.37Z" fill="#E1E1E1"/>
<path opacity="0.7277" d="M83.8292 115.313L80.3451 117.337C79.7832 117.675 79.727 118.518 80.3451 118.855L87.538 123.298C87.819 123.467 88.1562 123.467 88.4371 123.298L120.018 105.078C120.58 104.741 120.637 103.897 120.018 103.56L112.601 98.9484L112.376 98.8359L110.578 99.8482L87.819 113.007L83.8292 115.313Z" fill="#E1E1E1"/>
<path opacity="0.739" d="M84.054 115.313L80.5699 117.337C80.008 117.675 80.008 118.518 80.5699 118.856L87.6504 123.242C87.9314 123.411 88.2685 123.411 88.5495 123.242L119.737 105.247C120.299 104.909 120.299 104.066 119.737 103.728L112.432 99.2297L112.207 99.1172L110.465 100.129L87.9876 113.12L84.054 115.313Z" fill="#E1E1E1"/>
<path opacity="0.7504" d="M84.279 115.257L80.8511 117.225C80.2892 117.563 80.2892 118.35 80.8511 118.687L87.8193 122.961C88.1002 123.13 88.4374 123.13 88.7184 122.961L119.457 105.191C120.019 104.854 120.019 104.066 119.457 103.729L112.264 99.2863L112.039 99.1738L110.297 100.186L88.1002 113.008L84.279 115.257Z" fill="#E1E1E1"/>
<path opacity="0.7617" d="M84.5588 115.257L81.1871 117.225C80.6251 117.563 80.6251 118.35 81.1871 118.687L88.0428 122.905C88.3238 123.074 88.661 123.074 88.8857 122.905L119.231 105.36C119.793 105.022 119.793 104.235 119.231 103.898L112.15 99.5675L111.926 99.4551L110.183 100.467L88.2676 113.12L84.5588 115.257Z" fill="#E1E1E1"/>
<path opacity="0.7731" d="M84.7838 115.201L81.4683 117.113C80.9064 117.451 80.9064 118.238 81.4683 118.575L88.1555 122.68C88.4365 122.849 88.7174 122.849 88.9984 122.68L118.95 105.36C119.512 105.023 119.512 104.235 118.95 103.898L112.038 99.6242L111.87 99.5117L110.184 100.468L88.5488 113.064L84.7838 115.201Z" fill="#E1E1E1"/>
<path opacity="0.7844" d="M85.0089 115.145L81.7496 117.057C81.1876 117.394 81.1876 118.181 81.7496 118.462L88.3243 122.511C88.6053 122.68 88.8863 122.68 89.1673 122.511L118.726 105.416C119.288 105.079 119.288 104.291 118.726 104.01L111.926 99.8488L111.757 99.7363L110.072 100.692L88.7739 113.008L85.0089 115.145Z" fill="#E1E1E1"/>
<path opacity="0.7958" d="M85.2354 115.144L81.9761 117C81.4142 117.337 81.4142 118.068 81.9761 118.406L88.4385 122.398C88.7195 122.567 89.0005 122.567 89.2814 122.398L118.446 105.528C119.008 105.19 119.008 104.459 118.446 104.122L111.759 100.017L111.591 99.9043L109.961 100.86L88.9443 113.007L85.2354 115.144Z" fill="#E1E1E1"/>
<path opacity="0.8071" d="M85.4592 115.089L82.2561 116.945C81.7504 117.226 81.6942 118.013 82.2561 118.351L88.6061 122.231C88.8309 122.399 89.1681 122.399 89.3928 122.231L118.164 105.585C118.67 105.304 118.726 104.517 118.164 104.179L111.59 100.187L111.421 100.074L109.791 101.03L89.0557 113.008L85.4592 115.089Z" fill="#E1E1E1"/>
<path opacity="0.8185" d="M85.6825 115.089L82.5356 116.888C82.0298 117.169 82.0298 117.957 82.5356 118.238L88.7732 122.062C88.9979 122.23 89.3351 122.23 89.5599 122.062L117.938 105.697C118.444 105.416 118.444 104.629 117.938 104.348L111.532 100.411L111.363 100.299L109.734 101.255L89.2789 113.064L85.6825 115.089Z" fill="#E1E1E1"/>
<path opacity="0.8298" d="M85.9075 115.031L82.8168 116.831C82.3111 117.112 82.3111 117.899 82.8168 118.18L88.8858 121.892C89.1106 122.061 89.4478 122.061 89.6725 121.892L117.657 105.752C118.163 105.471 118.163 104.684 117.657 104.403L111.364 100.523L111.195 100.41L109.622 101.31L89.4478 112.95L85.9075 115.031Z" fill="#E1E1E1"/>
<path opacity="0.8412" d="M86.1341 115.031L83.0434 116.774C82.5376 117.055 82.5376 117.786 83.0434 118.124L89 121.779C89.2248 121.948 89.5619 121.948 89.7867 121.779L117.378 105.865C117.884 105.583 117.884 104.852 117.378 104.515L111.197 100.747L111.028 100.635L109.455 101.535L89.5619 113.006L86.1341 115.031Z" fill="#E1E1E1"/>
<path opacity="0.8525" d="M86.4138 114.975L83.3793 116.719C82.8736 117 82.8736 117.731 83.3793 118.012L89.2235 121.555C89.4483 121.724 89.7293 121.724 90.0103 121.555L117.152 105.865C117.658 105.584 117.658 104.853 117.152 104.572L111.083 100.861L110.915 100.748L109.397 101.648L89.7855 112.951L86.4138 114.975Z" fill="#E1E1E1"/>
<path opacity="0.8638" d="M86.6389 114.919L83.6606 116.662C83.1548 116.943 83.1548 117.674 83.6606 117.956L89.3924 121.442C89.6172 121.555 89.8982 121.611 90.1229 121.442L116.872 105.978C117.377 105.696 117.377 104.965 116.872 104.684L110.915 101.085L110.746 100.973L109.229 101.872L89.9544 113.007L86.6389 114.919Z" fill="#E1E1E1"/>
<path opacity="0.8752" d="M86.8639 114.92L83.9418 116.607C83.4361 116.888 83.4361 117.619 83.9418 117.901L89.5613 121.331C89.786 121.443 90.067 121.443 90.2918 121.331L116.647 106.091C117.153 105.81 117.153 105.079 116.647 104.798L110.859 101.255L110.69 101.143L109.173 101.986L90.1794 112.952L86.8639 114.92Z" fill="#E1E1E1"/>
<path opacity="0.8865" d="M87.089 114.863L84.2231 116.55C83.7173 116.831 83.7173 117.506 84.2231 117.787L89.7301 121.105C89.9549 121.218 90.2359 121.218 90.4607 121.105L116.423 106.09C116.928 105.809 116.928 105.135 116.423 104.853L110.747 101.423L110.578 101.311L109.117 102.154L90.4045 112.951L87.089 114.863Z" fill="#E1E1E1"/>
<path opacity="0.8979" d="M87.3143 114.862L84.4484 116.493C83.9988 116.774 83.9426 117.449 84.4484 117.73L89.7869 120.992C90.0117 121.104 90.2926 121.104 90.5174 120.992L116.086 106.202C116.535 105.921 116.592 105.246 116.086 104.965L110.523 101.591L110.354 101.479L108.893 102.322L90.4612 112.95L87.3143 114.862Z" fill="#E1E1E1"/>
<path opacity="0.9092" d="M87.5375 114.807L84.7278 116.438C84.2782 116.719 84.2782 117.394 84.7278 117.675L89.9539 120.824C90.1787 120.937 90.4596 120.937 90.6844 120.824L115.86 106.26C116.309 105.979 116.309 105.304 115.86 105.023L110.409 101.761L110.24 101.648L108.835 102.492L90.6844 112.952L87.5375 114.807Z" fill="#E1E1E1"/>
<path opacity="0.9206" d="M87.7626 114.807L85.009 116.382C84.5595 116.663 84.5595 117.281 85.009 117.563L90.1227 120.655C90.3475 120.768 90.6285 120.768 90.7971 120.655L115.579 106.372C116.028 106.091 116.028 105.472 115.579 105.191L110.297 101.986L110.128 101.873L108.723 102.66L90.8533 112.951L87.7626 114.807Z" fill="#E1E1E1"/>
<path opacity="0.9319" d="M87.9876 114.75L85.2903 116.325C84.8407 116.606 84.8407 117.224 85.2903 117.506L90.2916 120.542C90.5164 120.655 90.7412 120.655 90.9659 120.542L115.354 106.484C115.804 106.202 115.804 105.584 115.354 105.303L110.184 102.153L110.016 102.041L108.611 102.828L91.0221 113.007L87.9876 114.75Z" fill="#E1E1E1"/>
<path opacity="0.9433" d="M88.2127 114.695L85.5715 116.213C85.122 116.494 85.122 117.113 85.5715 117.394L90.4605 120.318C90.6852 120.431 90.91 120.431 91.1348 120.318L115.13 106.484C115.579 106.203 115.579 105.585 115.13 105.303L110.072 102.267L109.904 102.154L108.555 102.942L91.2472 112.951L88.2127 114.695Z" fill="#E1E1E1"/>
<path opacity="0.9546" d="M88.4939 114.694L85.8528 116.213C85.4032 116.438 85.4032 117.112 85.8528 117.337L90.5731 120.205C90.7979 120.318 91.0227 120.318 91.2475 120.205L114.793 106.597C115.243 106.372 115.243 105.697 114.793 105.472L109.848 102.491L109.679 102.379L108.331 103.166L91.3599 113.007L88.4939 114.694Z" fill="#E1E1E1"/>
<path opacity="0.966" d="M88.719 114.639L86.134 116.101C85.6845 116.326 85.6845 116.945 86.134 117.226L90.742 119.981C90.9668 120.094 91.1916 120.094 91.4163 119.981L114.568 106.597C115.018 106.372 115.018 105.754 114.568 105.473L109.792 102.605L109.623 102.492L108.331 103.279L91.6411 112.952L88.719 114.639Z" fill="#E1E1E1"/>
<path opacity="0.9773" d="M88.944 114.639L86.4153 116.101C85.9657 116.326 85.9657 116.944 86.4153 117.225L90.9109 119.925C91.1356 120.037 91.3604 120.037 91.529 119.925L114.288 106.766C114.737 106.541 114.737 105.922 114.288 105.641L109.624 102.829L109.455 102.717L108.163 103.448L91.7538 112.952L88.944 114.639Z" fill="#E1E1E1"/>
<path opacity="0.9887" d="M89.166 114.582L86.6935 116.044C86.3001 116.269 86.3001 116.887 86.6935 117.112L91.0766 119.699C91.2452 119.811 91.5262 119.811 91.6948 119.699L114.06 106.765C114.454 106.54 114.454 105.921 114.06 105.697L109.508 102.997L109.34 102.885L108.047 103.616L91.9196 112.951L89.166 114.582Z" fill="#E1E1E1"/>
<path d="M89.3911 114.526L86.9747 115.932C86.5813 116.157 86.5813 116.776 86.9747 117L91.2455 119.531C91.4141 119.644 91.6951 119.644 91.8636 119.531L113.836 106.822C114.229 106.597 114.229 105.978 113.836 105.754L109.396 103.111L109.228 102.998L107.991 103.729L92.1446 112.895L89.3911 114.526Z" fill="#E1E1E1"/>
</g>
<path d="M117.894 99.0448L117.613 98.7637C118.006 99.3823 117.894 100.113 117.22 100.507L84.683 119.402C84.2896 119.627 83.7277 119.627 83.3343 119.402L77.7711 116.084C76.9843 115.634 76.9281 114.566 77.5463 113.947L76.8158 114.397C76.3662 115.184 76.5348 116.984 76.872 117.659L83.3905 121.483C83.7839 121.707 84.3458 121.707 84.7392 121.483L117.276 102.7C118.063 102.25 118.568 100.17 117.894 99.0448Z" fill="url(#paint0_linear_2664_82817)"/>
<path d="M80.7467 111.978L77.0378 114.115C76.4197 114.453 76.4197 115.353 77.0378 115.746L83.444 119.57C83.725 119.739 84.1183 119.739 84.3993 119.57L117.61 100.394C118.228 100.057 118.228 99.157 117.61 98.7633L110.923 94.7707L110.698 94.6582L108.788 95.7267L84.8489 109.56L80.7467 111.978Z" fill="url(#paint1_linear_2664_82817)"/>
<path d="M67.5411 109.111V107.592V105.68V103.656L67.4287 68.959C67.4287 67.2158 68.665 65.1351 70.126 64.2353L125.309 32.3502C125.702 32.1253 126.04 32.0128 126.377 32.0128C126.545 32.0128 126.714 32.0128 126.826 32.0128C126.995 32.0691 127.107 32.0691 127.22 32.1815L124.579 30.5507C124.073 30.2696 123.398 30.3258 122.668 30.7194L67.5411 62.5483C66.0238 63.3918 64.8438 65.5287 64.8438 67.272L64.9561 102.025V104.05V105.961V107.48C64.9561 108.323 65.2371 108.942 65.7429 109.223C67.0353 110.01 67.0915 110.067 68.384 110.854C67.8783 110.573 67.5411 109.954 67.5411 109.111Z" fill="url(#paint2_linear_2664_82817)"/>
<path d="M111.093 97.0195L111.261 100.337L84.625 115.746L111.261 100.337L111.093 97.0195Z" fill="#082C44"/>
<path d="M81.0848 104.387L80.86 109.954L80.7476 111.979L80.6914 113.441L84.625 115.747L84.7936 112.204L84.906 109.561L85.2432 102.025L81.0848 104.387Z" fill="url(#paint3_linear_2664_82817)"/>
<path d="M111.093 97.0204L110.924 94.771L110.531 87.4043L85.2431 102.025L84.906 109.561L84.7936 112.204L84.625 115.747L111.261 100.338L111.093 97.0204Z" fill="url(#paint4_linear_2664_82817)"/>
<path d="M128.231 72.5577V70.6457V68.6213L128.118 33.8682C128.118 32.7998 127.613 32.1249 126.882 31.9562C126.713 31.9 126.601 31.9 126.432 31.9562C126.095 32.0125 125.758 32.1249 125.365 32.2936L70.1817 64.1787C68.6645 65.0223 67.4844 67.1592 67.4844 68.9025L67.5968 103.599V105.624V107.536V109.054C67.5968 109.898 67.8777 110.516 68.3835 110.797C68.8892 111.078 69.5636 111.022 70.2941 110.629L81.0835 104.387L85.2419 101.968L110.529 87.3474L125.477 78.6873C126.994 77.8438 128.174 75.7068 128.174 73.9636L128.231 72.5577Z" fill="url(#paint5_linear_2664_82817)"/>
<path d="M125.93 36.3993C125.93 35.3871 125.2 34.9372 124.301 35.4433L71.3093 66.0912C70.4102 66.5973 69.6797 67.8907 69.6797 68.903L69.7921 103.544C69.7921 105.062 71.4217 105.962 72.7142 105.231L125.088 74.9763C125.706 74.6389 126.043 73.9641 126.043 73.2893L125.93 36.3993Z" fill="#727272"/>
<path d="M99.0705 80.5418C100.251 79.867 101.262 80.4293 101.262 81.779C101.262 83.1848 100.307 84.8719 99.0705 85.5467C97.8904 86.2215 96.8789 85.6592 96.8789 84.3095C96.8789 82.9599 97.8342 81.2729 99.0705 80.5418Z" stroke="url(#paint6_linear_2664_82817)" stroke-width="1.06" stroke-miterlimit="10"/>
<path d="M99.0678 72.8937C101.428 71.5441 103.732 71.2067 105.474 72.2751C104.687 73.6248 103.901 74.9744 103.114 76.324C101.99 75.7617 100.641 75.8742 99.0678 76.7739C97.4944 77.6737 96.1457 79.1358 95.0218 81.0477C94.9094 80.9915 94.8532 80.9353 94.7409 80.9353C94.0103 80.5416 93.336 80.148 92.6055 79.7543C94.2913 76.6614 96.7077 74.2433 99.0678 72.8937Z" stroke="url(#paint7_linear_2664_82817)" stroke-width="1.06" stroke-miterlimit="10"/>
<path d="M99.0106 64.6287C103.169 62.2106 107.327 61.592 110.53 63.4477C109.744 64.7974 108.957 66.147 108.17 67.5529C105.642 66.2032 102.551 66.4844 99.0106 68.5088C95.4703 70.5895 92.4358 73.7949 89.907 78.0688C89.1203 77.6189 88.3336 77.169 87.5469 76.7191C90.5814 71.3768 94.7398 67.103 99.0106 64.6287Z" stroke="url(#paint8_linear_2664_82817)" stroke-width="1.06" stroke-miterlimit="10"/>
<path d="M99.1249 56.0803C105.475 52.425 110.982 51.9751 115.758 54.337C114.916 55.7991 114.185 57.1487 113.398 58.4983C109.521 56.249 104.295 56.98 99.0687 59.9604C93.8988 62.9409 88.6727 68.1707 84.7391 75.0313C83.9524 74.5815 83.1656 74.1316 82.3789 73.6255C86.3687 66.8773 91.1453 61.3663 96.7647 57.5424C97.4952 57.0362 98.3382 56.5301 99.1249 56.0803Z" stroke="url(#paint9_linear_2664_82817)" stroke-width="1.06" stroke-miterlimit="10"/>
<path d="M170.939 65.1357C169.702 64.4046 168.579 64.3484 167.736 64.7983L159.531 69.5782C160.374 69.1283 161.498 69.1846 162.734 69.9156C165.207 71.3215 167.23 74.808 167.23 77.676C167.23 79.0819 166.724 80.0941 165.937 80.544L174.142 75.764C174.929 75.3142 175.434 74.3019 175.434 72.8961C175.434 70.0281 173.411 66.5415 170.939 65.1357Z" fill="url(#paint10_linear_2664_82817)"/>
<path d="M162.679 69.9164C165.152 71.3222 167.175 74.8088 167.175 77.6767C167.175 80.5447 165.152 81.6694 162.679 80.2635C160.207 78.8577 158.184 75.3711 158.184 72.5031C158.184 69.6352 160.207 68.5105 162.679 69.9164Z" fill="url(#paint11_linear_2664_82817)"/>
<path d="M171.053 49.3325C166.277 46.577 161.444 45.846 157.904 47.9266L149.699 52.7066C153.239 50.6259 158.072 51.357 162.849 54.1125C167.681 56.9242 172.514 61.8166 175.998 68.0024L184.203 63.2225C180.662 57.0367 175.886 52.1442 171.053 49.3325Z" fill="url(#paint12_linear_2664_82817)"/>
<path d="M162.792 54.113C167.625 56.9247 172.458 61.8172 175.942 68.003C174.312 68.9027 172.683 69.8587 171.053 70.7585C168.749 66.9345 165.995 63.9541 162.736 62.0983C159.477 60.2426 156.723 60.0176 154.363 61.1986C154.138 60.8612 153.97 60.58 153.801 60.2988C152.34 57.8245 150.879 55.3502 149.418 52.8196C153.014 50.6264 157.903 51.3013 162.792 54.113Z" fill="url(#paint13_linear_2664_82817)"/>
<path d="M162.792 37.0171C171.334 41.9658 179.988 50.6259 186.506 62.0416C184.877 62.9975 183.247 63.8973 181.617 64.8533C176.391 56.0244 170.098 49.2763 162.792 45.0587C155.431 40.8411 149.193 40.2787 143.911 43.0342C142.281 40.2225 140.652 37.4108 139.078 34.6553C145.372 30.8313 154.026 31.956 162.792 37.0171Z" fill="url(#paint14_linear_2664_82817)"/>
<path d="M170.997 32.2389C162.343 27.234 153.801 26.053 147.564 29.7083L139.359 34.4882C145.597 30.833 154.195 32.0139 162.793 37.0188C171.334 41.9675 179.988 50.6276 186.507 62.0433L194.711 57.2633C188.192 45.8477 179.595 37.1875 170.997 32.2389Z" fill="url(#paint15_linear_2664_82817)"/>
<path d="M171.335 14.9178C169.705 13.9618 168.019 13.1182 166.334 12.331C154.758 6.87619 144.867 6.70748 136.607 11.15L128.402 15.93C136.663 11.4874 146.553 11.6561 158.129 17.1109C159.815 17.8982 161.501 18.7979 163.131 19.6977C176.168 27.2332 187.575 39.4361 197.353 55.7442L205.557 50.9642C195.78 34.7124 184.372 22.4532 171.335 14.9178Z" fill="url(#paint16_linear_2664_82817)"/>
<path d="M163.074 19.6975C176.112 27.2329 187.519 39.4358 197.297 55.7439C195.555 56.7561 193.981 57.6559 192.352 58.6119C184.428 44.7781 173.695 33.8686 162.906 27.6266C152.229 21.4407 141.439 19.8662 133.235 24.4774C131.662 21.7219 130.088 18.9102 128.402 15.986C136.663 11.5434 146.553 11.7121 158.129 17.1669C159.815 17.8979 161.445 18.7977 163.074 19.6975Z" fill="url(#paint17_linear_2664_82817)"/>
<g opacity="0.63">
<path d="M111.486 172.499L89.0642 185.545C87.8841 186.22 86.4792 186.22 85.2991 185.545L49.8966 165.076C47.3678 163.614 47.3678 160.015 49.8966 158.553L72.3182 145.506C73.4983 144.831 74.9031 144.831 76.0832 145.506L111.486 165.976C114.015 167.438 114.015 171.037 111.486 172.499Z" fill="#E1E1E1"/>
<path d="M111.262 172.442L89.0091 185.376C87.829 186.051 86.4241 186.051 85.244 185.376L50.1786 165.132C47.7061 163.67 47.7061 160.127 50.1786 158.665L72.4317 145.731C73.6118 145.056 75.0166 145.056 76.1967 145.731L111.262 165.975C113.735 167.381 113.735 170.98 111.262 172.442Z" fill="#E1E1E1"/>
<path d="M110.98 172.331L88.9516 185.152C87.8278 185.827 86.3667 185.827 85.2428 185.152L50.5146 165.076C48.042 163.67 48.042 160.071 50.5146 158.666L72.5428 145.844C73.6667 145.169 75.1278 145.169 76.2517 145.844L110.98 165.92C113.452 167.326 113.452 170.925 110.98 172.331Z" fill="#E1E1E1"/>
<path d="M110.755 172.217L88.9513 184.926C87.8274 185.601 86.4226 185.601 85.2987 184.926L50.9076 165.076C48.4913 163.67 48.4351 160.127 50.9076 158.721L72.6549 146.012C73.7788 145.337 75.1837 145.337 76.3076 146.012L110.699 165.863C113.171 167.325 113.171 170.811 110.755 172.217Z" fill="#E1E1E1"/>
<path d="M110.473 172.162L88.8938 184.703C87.7699 185.377 86.3651 185.377 85.2412 184.703L51.1873 165.021C48.7709 163.615 48.7709 160.128 51.1873 158.722L72.766 146.182C73.8899 145.507 75.2947 145.507 76.4186 146.182L110.473 165.864C112.889 167.27 112.889 170.756 110.473 172.162Z" fill="#E1E1E1"/>
<path d="M110.25 172.049L88.8403 184.477C87.7164 185.151 86.3677 185.151 85.2438 184.477L51.5271 164.963C49.1108 163.557 49.1108 160.127 51.5271 158.721L72.9372 146.293C74.0611 145.618 75.4098 145.618 76.5337 146.293L110.25 165.807C112.611 167.213 112.611 170.699 110.25 172.049Z" fill="#E1E1E1"/>
<path d="M109.968 171.993L88.7828 184.308C87.6589 184.927 86.3102 184.927 85.1864 184.308L51.7506 165.02C49.3904 163.67 49.3904 160.24 51.7506 158.834L72.9359 146.519C74.0598 145.9 75.4085 145.9 76.5324 146.519L109.968 165.807C112.328 167.157 112.328 170.587 109.968 171.993Z" fill="#E1E1E1"/>
<path d="M109.686 171.879L88.7254 184.082C87.6577 184.701 86.309 184.701 85.1851 184.082L52.0865 164.962C49.7264 163.613 49.7264 160.239 52.0865 158.833L73.0471 146.63C74.1148 146.011 75.4635 146.011 76.5874 146.63L109.686 165.75C112.046 167.156 112.046 170.53 109.686 171.879Z" fill="#E1E1E1"/>
<path d="M109.465 171.824L88.6727 183.915C87.605 184.533 86.2563 184.533 85.1886 183.915L52.4272 164.964C50.1232 163.614 50.1232 160.24 52.4272 158.89L73.2192 146.8C74.2869 146.181 75.6355 146.181 76.7032 146.8L109.465 165.751C111.769 167.101 111.769 170.475 109.465 171.824Z" fill="#E1E1E1"/>
<path d="M109.18 171.712L88.6129 183.69C87.5452 184.308 86.1965 184.308 85.1288 183.69L52.7045 164.963C50.4006 163.614 50.4006 160.296 52.7045 159.002L73.2717 147.024C74.3394 146.406 75.6881 146.406 76.7558 147.024L109.18 165.751C111.484 167.044 111.484 170.362 109.18 171.712Z" fill="#E1E1E1"/>
<path d="M108.956 171.6L88.614 183.409C87.5463 184.028 86.2539 184.028 85.1862 183.409L53.0991 164.852C50.7951 163.558 50.7951 160.24 53.0991 158.947L73.4415 147.138C74.5092 146.519 75.8017 146.519 76.8694 147.138L108.956 165.695C111.204 166.989 111.204 170.306 108.956 171.6Z" fill="#E1E1E1"/>
<path d="M108.675 171.543L88.5574 183.24C87.4897 183.859 86.1973 183.859 85.1858 183.24L53.4358 164.908C51.1881 163.614 51.1881 160.353 53.4358 159.059L73.5535 147.362C74.6212 146.744 75.9137 146.744 76.9252 147.362L108.675 165.695C110.923 166.988 110.923 170.25 108.675 171.543Z" fill="#E1E1E1"/>
<path d="M108.396 171.43L88.4468 183.014C87.4353 183.633 86.1428 183.633 85.0751 183.014L53.6624 164.85C51.4146 163.557 51.4146 160.351 53.6624 159.058L73.6115 147.474C74.623 146.855 75.9154 146.855 76.9831 147.474L108.396 165.638C110.644 166.931 110.644 170.136 108.396 171.43Z" fill="#E1E1E1"/>
<path d="M108.171 171.375L88.4464 182.847C87.4349 183.465 86.1424 183.465 85.1309 182.847L53.9992 164.851C51.8076 163.558 51.8076 160.409 53.9992 159.116L73.7234 147.644C74.7349 147.025 76.0274 147.025 77.0389 147.644L108.171 165.639C110.362 166.876 110.362 170.081 108.171 171.375Z" fill="#E1E1E1"/>
<path d="M107.89 171.261L88.3905 182.621C87.379 183.239 86.1427 183.239 85.075 182.621L54.2804 164.851C52.0888 163.614 52.0888 160.464 54.2804 159.171L73.8361 147.812C74.8476 147.193 76.0839 147.193 77.1516 147.812L107.946 165.582C110.082 166.875 110.082 170.024 107.89 171.261Z" fill="#E1E1E1"/>
<path d="M107.666 171.205L88.3355 182.452C87.324 183.015 86.0877 183.015 85.0762 182.452L54.6188 164.851C52.4834 163.614 52.4272 160.464 54.6188 159.227L73.9497 147.98C74.9612 147.418 76.1975 147.418 77.209 147.98L107.666 165.582C109.802 166.819 109.802 169.912 107.666 171.205Z" fill="#E1E1E1"/>
<path d="M107.383 171.092L88.2765 182.17C87.265 182.733 86.0287 182.733 85.0734 182.17L54.9531 164.794C52.8177 163.557 52.8177 160.464 54.9531 159.227L74.0593 148.148C75.0708 147.586 76.307 147.586 77.2623 148.148L107.383 165.525C109.518 166.762 109.518 169.855 107.383 171.092Z" fill="#E1E1E1"/>
<path d="M107.158 170.981L88.2206 182.003C87.209 182.565 86.029 182.565 85.0175 182.003L55.2344 164.795C53.099 163.558 53.099 160.521 55.2344 159.284L74.1157 148.318C75.1272 147.756 76.3073 147.756 77.3188 148.318L107.102 165.526C109.237 166.707 109.237 169.8 107.158 170.981Z" fill="#E1E1E1"/>
<path d="M106.879 170.923L88.2225 181.777C87.2672 182.339 86.031 182.339 85.0757 181.777L55.6297 164.738C53.5505 163.557 53.5505 160.52 55.6297 159.283L74.2863 148.43C75.2416 147.867 76.4779 147.867 77.4332 148.43L106.879 165.469C108.958 166.706 108.958 169.686 106.879 170.923Z" fill="#E1E1E1"/>
<path d="M106.598 170.812L88.1104 181.553C87.1551 182.115 85.975 182.115 85.0197 181.553L55.911 164.739C53.8318 163.558 53.8318 160.577 55.911 159.34L74.399 148.599C75.3543 148.037 76.5344 148.037 77.4897 148.599L106.598 165.414C108.678 166.651 108.678 169.631 106.598 170.812Z" fill="#E1E1E1"/>
<path d="M106.371 170.755L88.1076 181.384C87.1523 181.946 85.9722 181.946 85.0169 181.384L56.1891 164.738C54.1661 163.557 54.1661 160.633 56.1891 159.396L74.4524 148.767C75.4077 148.205 76.5877 148.205 77.5431 148.767L106.371 165.413C108.394 166.594 108.394 169.574 106.371 170.755Z" fill="#E1E1E1"/>
<path d="M106.093 170.644L88.0541 181.16C87.0988 181.722 85.9749 181.722 85.0196 181.16L56.529 164.683C54.506 163.502 54.506 160.578 56.529 159.453L74.5674 148.937C75.5227 148.375 76.6466 148.375 77.6019 148.937L106.093 165.414C108.116 166.539 108.116 169.463 106.093 170.644Z" fill="#E1E1E1"/>
<path d="M105.868 170.587L87.9982 180.991C87.0429 181.553 85.919 181.553 84.9637 180.991L56.8102 164.739C54.7872 163.558 54.7872 160.69 56.8102 159.565L74.6801 149.162C75.6354 148.6 76.7593 148.6 77.7146 149.162L105.868 165.414C107.835 166.539 107.835 169.406 105.868 170.587Z" fill="#E1E1E1"/>
<path d="M105.587 170.474L87.9416 180.709C87.0425 181.215 85.8624 181.272 84.9633 180.709L57.147 164.626C55.1802 163.501 55.1802 160.633 57.147 159.509L74.7921 149.274C75.6912 148.768 76.8713 148.712 77.7704 149.274L105.587 165.357C107.553 166.482 107.553 169.35 105.587 170.474Z" fill="#E1E1E1"/>
<path d="M105.304 170.361L87.8842 180.484C86.9851 180.99 85.8612 180.99 84.9621 180.484L57.4829 164.625C55.5161 163.501 55.5161 160.689 57.4829 159.564L74.9032 149.442C75.8023 148.936 76.9262 148.936 77.8253 149.442L105.304 165.3C107.271 166.425 107.271 169.237 105.304 170.361Z" fill="#E1E1E1"/>
<path d="M105.079 170.306L87.8838 180.316C86.9846 180.822 85.8608 180.822 84.9616 180.316L57.8197 164.627C55.9091 163.502 55.9091 160.746 57.8197 159.622L75.0152 149.612C75.9143 149.106 77.0382 149.106 77.9373 149.612L105.079 165.301C106.99 166.37 106.99 169.182 105.079 170.306Z" fill="#E1E1E1"/>
<path d="M104.799 170.193L87.7717 180.09C86.8725 180.597 85.8048 180.597 84.9057 180.09L58.1009 164.626C56.1903 163.501 56.1903 160.802 58.1009 159.677L75.1279 149.78C76.027 149.274 77.0947 149.274 77.9938 149.78L104.799 165.301C106.709 166.369 106.709 169.125 104.799 170.193Z" fill="#E1E1E1"/>
<path d="M104.575 170.138L87.7729 179.923C86.8738 180.429 85.8061 180.429 84.9631 179.923L58.4393 164.571C56.5849 163.502 56.5287 160.747 58.4393 159.678L75.2415 149.893C76.1406 149.387 77.2083 149.387 78.0512 149.893L104.575 165.189C106.429 166.314 106.429 169.013 104.575 170.138Z" fill="#E1E1E1"/>
<path d="M104.293 170.025L87.7153 179.697C86.8724 180.203 85.8047 180.203 84.9056 179.697L58.7189 164.57C56.8645 163.501 56.8645 160.802 58.7189 159.734L75.2963 150.061C76.1393 149.555 77.2069 149.555 78.1061 150.061L104.293 165.188C106.147 166.257 106.147 168.956 104.293 170.025Z" fill="#E1E1E1"/>
<path d="M104.067 169.911L87.6579 179.415C86.815 179.921 85.7473 179.921 84.9044 179.415L59.0549 164.513C57.2005 163.444 57.2005 160.801 59.0549 159.733L75.4637 150.229C76.3066 149.723 77.3743 149.723 78.2172 150.229L104.067 165.131C105.865 166.256 105.865 168.899 104.067 169.911Z" fill="#E1E1E1"/>
<path d="M103.785 169.856L87.6013 179.248C86.7584 179.754 85.7469 179.754 84.904 179.248L59.3916 164.514C57.5934 163.446 57.5934 160.859 59.3916 159.79L75.5195 150.399C76.3624 149.893 77.3739 149.893 78.2168 150.399L103.729 165.133C105.584 166.201 105.584 168.788 103.785 169.856Z" fill="#E1E1E1"/>
<path d="M103.505 169.743L87.5454 179.021C86.7025 179.528 85.691 179.528 84.848 179.021L59.6729 164.457C57.8747 163.444 57.8747 160.858 59.6729 159.789L75.6321 150.51C76.4751 150.004 77.4866 150.004 78.3295 150.51L103.505 165.075C105.303 166.144 105.303 168.73 103.505 169.743Z" fill="#E1E1E1"/>
<path d="M103.282 169.687L87.5474 178.853C86.7045 179.303 85.693 179.359 84.9062 178.853L60.0682 164.513C58.3262 163.501 58.3262 160.97 60.0682 159.902L75.8027 150.736C76.6456 150.286 77.6571 150.23 78.4439 150.736L103.282 165.076C105.024 166.088 105.024 168.675 103.282 169.687Z" fill="#E1E1E1"/>
<path d="M103.001 169.574L87.4915 178.628C86.7047 179.077 85.6932 179.077 84.8503 178.628L60.3495 164.456C58.6075 163.444 58.6075 160.914 60.3495 159.958L75.9154 150.904C76.7021 150.454 77.7136 150.454 78.5565 150.904L103.057 165.075C104.743 166.087 104.743 168.562 103.001 169.574Z" fill="#E1E1E1"/>
<path d="M102.777 169.519L87.4355 178.46C86.6488 178.91 85.6373 178.91 84.8506 178.46L60.6307 164.458C58.8887 163.445 58.8887 160.971 60.6307 160.015L75.9719 151.074C76.7586 150.624 77.7701 150.624 78.5568 151.074L102.777 165.076C104.462 166.032 104.462 168.506 102.777 169.519Z" fill="#E1E1E1"/>
<path d="M102.495 169.406L87.3789 178.178C86.5922 178.628 85.6369 178.628 84.8502 178.178L60.9675 164.401C59.2817 163.445 59.2817 160.97 60.9675 160.014L76.0838 151.242C76.8706 150.792 77.8259 150.792 78.6126 151.242L102.495 165.019C104.181 165.975 104.181 168.45 102.495 169.406Z" fill="#E1E1E1"/>
<path d="M102.271 169.294L87.323 178.011C86.5363 178.461 85.581 178.461 84.7943 178.011L61.2488 164.402C59.5629 163.446 59.5629 161.028 61.2488 160.072L76.1965 151.412C76.9832 150.962 77.9385 150.962 78.7253 151.412L102.271 165.02C103.9 165.92 103.9 168.338 102.271 169.294Z" fill="#E1E1E1"/>
<path d="M101.989 169.237L87.2664 177.785C86.4797 178.235 85.5806 178.235 84.7939 177.785L61.5855 164.401C59.9559 163.445 59.9559 161.083 61.5855 160.127L76.3085 151.58C77.0952 151.13 77.9943 151.13 78.781 151.58L101.989 164.963C103.619 165.919 103.619 168.281 101.989 169.237Z" fill="#E1E1E1"/>
<path d="M101.707 169.126L87.209 177.561C86.4785 178.011 85.5232 178.011 84.7926 177.561L61.9215 164.346C60.2918 163.39 60.2918 161.084 61.9215 160.128L76.4196 151.693C77.1502 151.243 78.1055 151.243 78.836 151.693L101.707 164.908C103.337 165.864 103.337 168.226 101.707 169.126Z" fill="#E1E1E1"/>
<path d="M101.484 169.069L87.2102 177.391C86.4797 177.841 85.5244 177.841 84.7939 177.391L62.2598 164.345C60.6864 163.445 60.6302 161.14 62.2598 160.184L76.5333 151.861C77.2638 151.411 78.2191 151.411 78.9496 151.861L101.484 164.907C103.057 165.807 103.057 168.113 101.484 169.069Z" fill="#E1E1E1"/>
</g>
<path d="M35.9611 146.956L83.3893 174.342C85.3561 175.467 88.503 175.467 90.4698 174.342L113.397 161.015C114.352 160.452 114.858 159.721 114.858 158.934C114.858 160.227 114.858 159.553 114.858 160.846C114.858 161.577 114.352 162.364 113.397 162.927L90.4698 176.254C88.503 177.379 85.3561 177.379 83.3893 176.254L35.9611 148.868C35.0058 148.306 34.5 147.575 34.5 146.844C34.5 145.55 34.5 146.225 34.5 144.932C34.5 145.663 35.0058 146.394 35.9611 146.956Z" fill="url(#paint18_linear_2664_82817)"/>
<path d="M58.8877 129.523C60.8545 128.399 64.0014 128.399 65.9682 129.523L113.396 156.91C115.363 158.034 115.307 159.89 113.396 161.015L90.469 174.342C88.5022 175.467 85.3553 175.467 83.3885 174.342L35.9603 146.956C34.0497 145.831 34.0497 143.976 35.9603 142.851L58.8877 129.523Z" fill="url(#paint19_linear_2664_82817)"/>
<path d="M110.083 157.36L64.734 131.21C63.9473 130.761 62.711 130.761 61.9243 131.21L56.2486 134.528L57.5973 135.316C58.1031 135.597 58.1031 136.384 57.5973 136.665L50.2358 140.939C49.0557 141.614 47.6509 141.614 46.4708 140.939L45.8526 140.602L38.8283 144.651C38.0416 145.1 38.0416 145.831 38.8283 146.281L84.1773 172.43C84.9641 172.88 86.2003 172.88 86.9871 172.43L110.083 158.99C110.87 158.541 110.87 157.809 110.083 157.36Z" fill="url(#paint20_linear_2664_82817)"/>
<path d="M65.2946 137.172C65.5756 137.003 65.8004 136.89 66.0814 136.722C66.1376 136.666 66.2499 136.666 66.3061 136.609C66.4747 136.497 66.6995 136.384 66.8681 136.328C66.9805 136.272 67.0929 136.216 67.2053 136.159C67.3738 136.103 67.5424 135.991 67.711 135.934C67.8234 135.878 67.9358 135.822 68.1044 135.766C68.2729 135.71 68.4415 135.597 68.6101 135.541C68.8911 135.428 69.1159 135.316 69.3968 135.26C69.453 135.203 69.5654 135.203 69.6216 135.147C69.8464 135.091 70.0712 134.978 70.296 134.922C70.3521 134.922 70.4645 134.866 70.5207 134.866C70.8017 134.754 71.0827 134.697 71.3636 134.641H71.4198C71.757 134.529 72.1504 134.416 72.5437 134.36C72.6561 134.36 72.7123 134.304 72.8247 134.304C73.1057 134.247 73.3866 134.191 73.6676 134.135C73.7238 134.135 73.7238 134.135 73.78 134.135C73.8924 134.135 74.0048 134.079 74.1172 134.079C74.2858 134.022 74.5105 134.022 74.6791 133.966C74.8477 133.91 75.0163 133.91 75.1849 133.854C75.4097 133.798 75.5782 133.798 75.803 133.741C75.8592 133.741 75.9154 133.741 75.9716 133.741C76.084 133.741 76.1964 133.685 76.365 133.685C76.5335 133.685 76.7021 133.629 76.8707 133.629C77.0393 133.629 77.2641 133.573 77.4327 133.573C77.6012 133.573 77.7698 133.516 77.9946 133.516C78.0508 133.516 78.107 133.516 78.1632 133.516C78.3318 133.516 78.4442 133.516 78.6127 133.46C78.7813 133.46 78.9499 133.46 79.1185 133.404C79.3433 133.404 79.5119 133.404 79.7366 133.348C79.9052 133.348 80.0738 133.348 80.2424 133.348C80.2986 133.348 80.3548 133.348 80.3548 133.348C80.6357 133.348 80.9729 133.348 81.2539 133.348V142.57C80.9167 142.57 80.5796 142.57 80.2424 142.57C80.0738 142.57 79.9052 142.57 79.7366 142.57C79.5119 142.57 79.3433 142.57 79.1185 142.626C78.9499 142.626 78.7813 142.626 78.6127 142.683C78.388 142.683 78.2194 142.739 77.9946 142.739C77.826 142.739 77.6574 142.795 77.4327 142.795C77.2641 142.795 77.0393 142.851 76.8707 142.851C76.7021 142.851 76.5335 142.908 76.365 142.908C76.1964 142.908 75.9716 142.964 75.803 142.964C75.5782 143.02 75.4097 143.02 75.1849 143.076C75.0163 143.076 74.8477 143.132 74.6791 143.189C74.4543 143.245 74.2858 143.245 74.1172 143.301C73.9486 143.357 73.78 143.357 73.6114 143.414C73.3305 143.47 73.0495 143.526 72.7685 143.582C72.6561 143.582 72.5999 143.639 72.4875 143.639C72.0942 143.751 71.757 143.807 71.3636 143.92C71.0827 143.976 70.8017 144.088 70.5207 144.201C70.4645 144.201 70.3521 144.257 70.296 144.257C70.0712 144.313 69.8464 144.426 69.6216 144.482C69.5654 144.538 69.453 144.538 69.3968 144.595C69.1159 144.707 68.8349 144.763 68.6101 144.876C68.4415 144.932 68.2729 145.044 68.1044 145.101C67.992 145.157 67.8796 145.213 67.7672 145.269C67.5986 145.326 67.43 145.438 67.2614 145.494C67.1491 145.551 67.0367 145.607 66.9243 145.663C66.6995 145.776 66.5309 145.832 66.3623 145.944C66.3061 146 66.1937 146 66.1376 146.057C65.8566 146.225 65.6318 146.338 65.3508 146.507C63.5526 147.575 62.0354 148.756 60.9115 150.106C60.3495 150.78 59.9 151.455 59.5066 152.186C59.4504 152.299 59.3942 152.411 59.338 152.524C59.1694 152.917 59.0008 153.367 58.8885 153.817C58.7761 154.154 58.7199 154.492 58.7199 154.773C58.6637 155.11 58.6637 155.448 58.6637 155.785V146.563C58.5513 142.851 61.1362 139.533 65.2946 137.172Z" fill="url(#paint21_linear_2664_82817)"/>
<path d="M58.6088 146.395V155.617C57.3725 155.617 56.1362 155.617 54.8438 155.617V146.395C56.1362 146.395 57.3725 146.395 58.6088 146.395Z" fill="url(#paint22_linear_2664_82817)"/>
<path d="M62.54 135.78C57.5387 138.704 55.0099 142.303 54.7852 146.52C56.0776 146.52 57.3139 146.52 58.5502 146.52C58.5502 142.978 61.0789 139.66 65.2373 137.298C69.3395 134.936 75.0152 133.418 81.2528 133.418C81.2528 132.687 81.2528 132.012 81.2528 131.225C75.0152 131.281 69.3957 132.406 64.563 134.711C63.8325 135.049 63.1581 135.442 62.54 135.78Z" fill="url(#paint23_linear_2664_82817)"/>
<path d="M71.9246 140.545C72.0932 140.432 72.2618 140.32 72.4304 140.264C72.4866 140.207 72.5428 140.207 72.599 140.151C72.7114 140.095 72.8237 140.039 72.9923 139.982C73.0485 139.926 73.1609 139.926 73.2171 139.87C73.3295 139.814 73.4419 139.758 73.5543 139.701C73.6105 139.645 73.7229 139.645 73.7791 139.589C73.8914 139.533 74.0038 139.476 74.06 139.476C74.2848 139.364 74.5658 139.308 74.7906 139.195C74.8467 139.195 74.9029 139.139 75.0153 139.139C75.1839 139.083 75.4087 139.026 75.6335 138.97C75.6897 138.97 75.7459 138.97 75.7459 138.914C75.7459 138.914 75.8021 138.914 75.8583 138.914C76.0268 138.858 76.1392 138.858 76.3078 138.802C76.364 138.802 76.4764 138.745 76.5326 138.745C76.7574 138.689 76.9821 138.633 77.1507 138.577H77.2069C77.4317 138.52 77.6565 138.464 77.8813 138.464C77.9374 138.464 78.0498 138.464 78.106 138.408C78.2746 138.408 78.4432 138.352 78.5556 138.352C78.5556 138.352 78.5556 138.352 78.6118 138.352C78.668 138.352 78.7804 138.352 78.8366 138.295C79.0051 138.295 79.1175 138.239 79.2861 138.239C79.3985 138.239 79.5109 138.239 79.5671 138.183C79.6795 138.183 79.8481 138.183 79.9605 138.127H80.0166C80.0728 138.127 80.1852 138.127 80.2414 138.127C80.41 138.127 80.5224 138.127 80.691 138.071C80.8034 138.071 80.9158 138.071 81.0282 138.071C81.1967 138.071 81.3091 138.071 81.4777 138.071C81.5339 138.071 81.5901 138.071 81.6463 138.071C81.7587 138.071 81.9273 138.071 82.0397 138.071C82.0397 137.339 82.0397 136.608 82.0397 135.934V145.156C82.0397 145.887 82.0397 146.562 82.0397 147.293C81.8711 147.293 81.6463 147.293 81.4777 147.293C81.3091 147.293 81.1967 147.293 81.0282 147.293C80.9158 147.293 80.8034 147.293 80.691 147.293C80.5224 147.293 80.3538 147.293 80.2414 147.349C80.129 147.349 80.0728 147.349 79.9605 147.349C79.8481 147.349 79.6795 147.349 79.5671 147.405C79.4547 147.405 79.3423 147.405 79.2861 147.462C79.1175 147.462 79.0051 147.518 78.8366 147.518C78.7242 147.518 78.668 147.518 78.5556 147.574C78.387 147.574 78.2184 147.63 78.106 147.63C78.0498 147.63 77.9374 147.63 77.8813 147.687C77.6565 147.743 77.4317 147.743 77.2069 147.799H77.1507C76.926 147.855 76.7012 147.912 76.5326 147.968C76.4764 147.968 76.364 148.024 76.3078 148.024C76.1392 148.08 76.0268 148.08 75.8583 148.137C75.8021 148.137 75.6897 148.193 75.6335 148.193C75.4087 148.249 75.2401 148.305 75.0153 148.361C74.9591 148.361 74.9029 148.418 74.7906 148.418C74.5658 148.53 74.2848 148.586 74.06 148.699C73.9476 148.755 73.8353 148.811 73.7229 148.811C73.6667 148.868 73.5543 148.868 73.4981 148.924C73.3857 148.98 73.2733 149.036 73.1609 149.093C73.1047 149.149 72.9923 149.149 72.9361 149.205C72.8237 149.261 72.7114 149.317 72.5428 149.374C72.4866 149.43 72.4304 149.43 72.3742 149.486C72.2056 149.599 72.037 149.655 71.8684 149.767C69.0587 151.398 67.6539 153.366 67.5977 155.672V146.449C67.7662 144.144 69.1149 142.119 71.9246 140.545Z" fill="url(#paint24_linear_2664_82817)"/>
<path d="M67.6542 146.449V155.672C66.4179 155.672 65.1816 155.672 63.9453 155.672V146.449C65.1816 146.449 66.4179 146.449 67.6542 146.449Z" fill="url(#paint25_linear_2664_82817)"/>
<path d="M69.2853 138.972C65.9698 140.884 63.8906 143.527 63.8906 146.451C65.1269 146.451 66.3632 146.451 67.5995 146.451C67.7119 144.145 69.0605 142.177 71.8703 140.546C74.68 138.916 78.1078 138.128 82.0415 138.072C82.0415 137.341 82.0415 136.61 82.0415 135.935C77.2649 135.823 72.657 137.004 69.2853 138.972Z" fill="url(#paint26_linear_2664_82817)"/>
<path d="M69.2853 138.972C65.9698 140.884 63.8906 143.527 63.8906 146.451C65.1269 146.451 66.3632 146.451 67.5995 146.451C67.7119 144.145 69.0605 142.177 71.8703 140.546C74.68 138.916 78.1078 138.128 82.0415 138.072C82.0415 137.341 82.0415 136.61 82.0415 135.935C77.2649 135.823 72.657 137.004 69.2853 138.972Z" fill="url(#paint27_linear_2664_82817)"/>
<path d="M78.5551 143.981C78.7237 143.869 78.8923 143.812 79.0609 143.756C79.1171 143.756 79.1733 143.7 79.2295 143.7C79.3419 143.644 79.4543 143.588 79.5667 143.588H79.6228C79.7352 143.531 79.9038 143.475 80.0162 143.419C80.0724 143.419 80.1286 143.363 80.1286 143.363C80.1848 143.363 80.1848 143.363 80.241 143.306C80.2972 143.306 80.3534 143.306 80.4096 143.25C80.522 143.194 80.6343 143.194 80.8029 143.138C80.8591 143.138 80.8591 143.138 80.9153 143.081C80.9715 143.081 81.0277 143.081 81.0839 143.081C81.1963 143.081 81.3087 143.025 81.4211 143.025C81.4773 143.025 81.5335 143.025 81.5897 143.025C81.6458 143.025 81.702 143.025 81.702 143.025C81.8144 143.025 81.9268 143.025 82.0392 142.969C82.0954 142.969 82.1516 142.969 82.2078 142.969C82.264 142.969 82.264 142.969 82.3202 142.969C82.4888 142.969 82.6012 142.969 82.7697 142.969C82.8259 142.969 82.8821 142.969 82.9383 142.969C82.9945 142.969 83.0507 142.969 83.1069 142.969C83.1069 142.856 83.1069 142.8 83.1069 142.744C83.1069 142.125 83.1631 141.451 83.1631 140.832V150.055C83.1631 150.673 83.1069 151.348 83.1069 151.967C83.1069 152.023 83.1069 152.135 83.1069 152.191C82.9945 152.191 82.8821 152.191 82.7697 152.191C82.6012 152.191 82.4888 152.191 82.3202 152.191C82.2078 152.191 82.1516 152.191 82.0392 152.191C81.9268 152.191 81.8144 152.191 81.702 152.248C81.5897 152.248 81.5335 152.248 81.4211 152.304C81.3087 152.304 81.1963 152.36 81.0839 152.36C80.9715 152.36 80.9153 152.416 80.8029 152.416C80.6905 152.416 80.5782 152.473 80.4096 152.529C80.2972 152.529 80.241 152.585 80.1286 152.585C80.0724 152.585 80.0162 152.585 80.0162 152.641C79.8476 152.698 79.7352 152.754 79.6228 152.81H79.5667C79.4543 152.866 79.3419 152.922 79.2295 152.979C79.1733 152.979 79.1171 153.035 79.0609 153.035C78.8923 153.091 78.7237 153.204 78.5551 153.26C77.3189 153.991 76.7007 154.834 76.6445 155.847V146.624C76.7007 145.612 77.3189 144.712 78.5551 143.981Z" fill="url(#paint28_linear_2664_82817)"/>
<path d="M72.9336 146.568C74.1699 146.568 75.4062 146.568 76.6424 146.568V155.79C75.4062 155.79 74.1699 155.79 72.9336 155.79V155.734V146.512C72.9336 146.512 72.9336 146.568 72.9336 146.568Z" fill="url(#paint29_linear_2664_82817)"/>
<path d="M75.9138 142.463C74.0594 143.532 72.8793 144.994 72.9355 146.568C74.1718 146.568 75.4081 146.568 76.6444 146.568C76.7005 145.556 77.3187 144.713 78.555 143.982C79.7913 143.251 81.3085 142.913 83.1067 142.857C83.1067 142.745 83.1067 142.688 83.1067 142.632C83.1067 142.013 83.1629 141.339 83.1629 140.72C80.3532 140.664 77.7682 141.339 75.9138 142.463Z" fill="url(#paint30_linear_2664_82817)"/>
<path d="M80.5234 146.392V146.448V146.505V146.561V146.617C80.5234 146.617 80.5234 146.673 80.5796 146.673C80.5796 146.673 80.5796 146.73 80.6358 146.73C80.6358 146.786 80.692 146.786 80.692 146.842C80.692 146.842 80.692 146.898 80.7482 146.898C80.8044 146.955 80.8044 146.955 80.8606 147.011C80.8606 147.011 80.8606 147.011 80.9168 147.067L80.973 147.123L81.0292 147.179C81.0292 147.179 81.0854 147.236 81.1416 147.236C81.1978 147.236 81.1978 147.292 81.254 147.292C81.3102 147.348 81.4225 147.348 81.4787 147.404C81.4787 147.404 81.5349 147.404 81.5349 147.461C81.5911 147.461 81.6473 147.517 81.7035 147.517H81.7597C81.8159 147.517 81.8159 147.517 81.8721 147.573C81.9283 147.573 81.9283 147.573 81.9845 147.573C82.0407 147.573 82.0969 147.573 82.0969 147.629C82.1531 147.629 82.1531 147.629 82.2093 147.629C82.3217 147.629 82.3779 147.686 82.4902 147.686C82.5464 147.686 82.5464 147.686 82.6026 147.686C82.6588 147.686 82.715 147.686 82.7712 147.686C82.8274 147.686 82.8274 147.686 82.8836 147.686C82.9398 147.686 82.996 147.686 82.996 147.686C83.0522 147.686 83.0522 147.686 83.1084 147.686C83.1646 147.686 83.1646 147.686 83.2208 147.686C83.277 147.686 83.277 147.686 83.3332 147.686C83.3894 147.686 83.3894 147.686 83.4456 147.686C83.5017 147.686 83.5017 147.686 83.5579 147.686C83.6141 147.686 83.6703 147.686 83.6703 147.686C83.7265 147.686 83.7265 147.686 83.7827 147.686C83.8389 147.686 83.8951 147.686 83.9513 147.629H84.0075C84.1199 147.629 84.1761 147.573 84.2885 147.517C84.2885 147.517 84.2885 147.517 84.3447 147.517C84.4571 147.461 84.5694 147.404 84.6818 147.348C85.1876 147.067 85.4124 146.73 85.4124 146.336V155.558C85.4124 155.896 85.1876 156.289 84.6818 156.571C84.5694 156.627 84.4571 156.683 84.3447 156.739C84.2323 156.796 84.1761 156.796 84.0637 156.852H84.0075C83.9513 156.852 83.8951 156.852 83.8389 156.908C83.8389 156.908 83.8389 156.908 83.7827 156.908H83.7265C83.6703 156.908 83.6141 156.908 83.6141 156.908H83.5579H83.5017C83.4456 156.908 83.4456 156.908 83.3894 156.908H83.3332H83.277C83.2208 156.908 83.2208 156.908 83.1646 156.908H83.1084H83.0522C82.996 156.908 82.9398 156.908 82.9398 156.908H82.8836C82.8836 156.908 82.8836 156.908 82.8274 156.908C82.7712 156.908 82.715 156.908 82.6588 156.908H82.6026C82.4902 156.908 82.4341 156.908 82.3217 156.852H82.2655C82.2093 156.852 82.1531 156.852 82.1531 156.796C82.0969 156.796 82.0969 156.796 82.0407 156.796C81.9845 156.796 81.9845 156.796 81.9283 156.739H81.8721C81.8159 156.739 81.7597 156.683 81.7035 156.683C81.7035 156.683 81.6473 156.683 81.6473 156.627C81.5911 156.571 81.4787 156.571 81.4225 156.514C81.4225 156.514 81.4226 156.514 81.3664 156.514L81.3102 156.458C81.254 156.458 81.254 156.402 81.1978 156.402L81.1416 156.346L81.0854 156.289C81.0292 156.233 81.0292 156.233 80.973 156.177C80.973 156.177 80.9168 156.121 80.9168 156.065C80.9168 156.065 80.9168 156.065 80.9168 156.008C80.9168 156.008 80.9168 155.952 80.8606 155.952V155.896V155.84V155.783V155.727V155.671V146.448C80.5234 146.336 80.5234 146.392 80.5234 146.392Z" fill="url(#paint31_linear_2664_82817)"/>
<path d="M81.3532 145.527C80.3979 146.09 80.3979 146.989 81.3532 147.495C82.3085 148.058 83.8258 148.058 84.7811 147.495C85.7364 146.933 85.7364 146.033 84.7811 145.527C83.8258 144.965 82.3085 144.965 81.3532 145.527Z" fill="url(#paint32_linear_2664_82817)"/>
<g opacity="0.63">
<path d="M190.902 155.305L163.704 171.107C162.299 171.95 160.557 171.95 159.152 171.107L116.276 146.364C113.241 144.62 113.241 140.234 116.276 138.435L143.474 122.633C144.879 121.789 146.621 121.789 148.026 122.633L190.902 147.376C193.937 149.119 193.937 153.505 190.902 155.305Z" fill="#E1E1E1"/>
<path d="M190.622 155.193L163.705 170.826C162.3 171.613 160.558 171.67 159.153 170.826L116.67 146.308C113.636 144.564 113.636 140.234 116.67 138.491L143.588 122.858C144.992 122.071 146.734 122.014 148.139 122.858L190.622 147.376C193.601 149.063 193.601 153.45 190.622 155.193Z" fill="#E1E1E1"/>
<path d="M190.285 155.08L163.592 170.601C162.188 171.388 160.502 171.388 159.097 170.601L117.007 146.307C114.029 144.564 114.029 140.29 117.007 138.547L143.7 123.026C145.104 122.239 146.79 122.239 148.195 123.026L190.285 147.319C193.263 149.063 193.263 153.337 190.285 155.08Z" fill="#E1E1E1"/>
<path d="M189.949 154.969L163.537 170.321C162.189 171.108 160.447 171.108 159.098 170.321L117.402 146.252C114.423 144.565 114.423 140.291 117.402 138.548L143.813 123.196C145.162 122.409 146.904 122.409 148.253 123.196L189.949 147.264C192.927 149.008 192.927 153.281 189.949 154.969Z" fill="#E1E1E1"/>
<path d="M189.664 154.856L163.478 170.095C162.129 170.883 160.443 170.883 159.095 170.095L117.848 146.252C114.926 144.565 114.926 140.347 117.848 138.66L144.034 123.421C145.383 122.633 147.069 122.633 148.418 123.421L189.664 147.264C192.587 148.951 192.587 153.169 189.664 154.856Z" fill="#E1E1E1"/>
<path d="M189.33 154.743L163.424 169.813C162.076 170.601 160.39 170.601 159.041 169.813L118.188 146.195C115.266 144.508 115.266 140.346 118.188 138.659L144.093 123.589C145.442 122.801 147.128 122.801 148.477 123.589L189.33 147.207C192.252 148.894 192.252 153.056 189.33 154.743Z" fill="#E1E1E1"/>
<path d="M189.047 154.629L163.366 169.532C162.018 170.319 160.388 170.319 159.039 169.532L118.579 146.138C115.713 144.507 115.713 140.346 118.579 138.659L144.26 123.756C145.609 122.969 147.238 122.969 148.587 123.756L189.047 147.15C191.913 148.837 191.913 152.999 189.047 154.629Z" fill="#E1E1E1"/>
<path d="M188.711 154.518L163.311 169.308C161.962 170.095 160.333 170.095 159.04 169.308L118.974 146.139C116.108 144.508 116.108 140.403 118.974 138.716L144.374 123.926C145.722 123.139 147.352 123.139 148.644 123.926L188.711 147.095C191.577 148.782 191.577 152.887 188.711 154.518Z" fill="#E1E1E1"/>
<path d="M188.428 154.462L163.253 169.083C161.961 169.87 160.331 169.87 159.038 169.083L119.365 146.139C116.555 144.508 116.555 140.459 119.365 138.829L144.54 124.208C145.833 123.42 147.462 123.42 148.755 124.208L188.428 147.151C191.238 148.726 191.238 152.775 188.428 154.462Z" fill="#E1E1E1"/>
<path d="M188.094 154.35L163.2 168.858C161.907 169.589 160.277 169.589 158.985 168.858L119.705 146.139C116.895 144.508 116.895 140.516 119.705 138.885L144.599 124.376C145.892 123.645 147.521 123.645 148.814 124.376L188.094 147.095C190.903 148.67 190.903 152.719 188.094 154.35Z" fill="#E1E1E1"/>
<path d="M187.811 154.237L163.141 168.577C161.849 169.308 160.276 169.308 158.983 168.577L120.096 146.139C117.343 144.564 117.343 140.572 120.096 138.941L144.766 124.601C146.058 123.87 147.632 123.87 148.924 124.601L187.811 147.039C190.564 148.613 190.564 152.606 187.811 154.237Z" fill="#E1E1E1"/>
<path d="M187.475 154.124L163.086 168.295C161.794 169.026 160.22 169.026 158.984 168.295L120.491 146.082C117.737 144.508 117.737 140.571 120.491 138.997L144.879 124.826C146.172 124.095 147.745 124.095 148.982 124.826L187.475 147.038C190.228 148.613 190.228 152.549 187.475 154.124Z" fill="#E1E1E1"/>
<path d="M187.192 154.011L163.028 168.069C161.792 168.8 160.219 168.8 158.982 168.069L120.882 146.082C118.185 144.507 118.185 140.627 120.882 139.052L145.046 124.994C146.282 124.263 147.856 124.263 149.092 124.994L187.192 146.981C189.833 148.556 189.889 152.436 187.192 154.011Z" fill="#E1E1E1"/>
<path d="M186.857 153.899L162.975 167.789C161.738 168.52 160.221 168.52 158.929 167.789L121.222 146.027C118.525 144.508 118.525 140.628 121.222 139.053L145.105 125.164C146.341 124.432 147.858 124.432 149.151 125.164L186.857 146.926C189.499 148.501 189.555 152.325 186.857 153.899Z" fill="#E1E1E1"/>
<path d="M186.521 153.787L162.919 167.565C161.683 168.296 160.166 168.296 158.929 167.565L121.672 146.027C119.031 144.508 119.031 140.684 121.672 139.166L145.33 125.445C146.566 124.714 148.084 124.714 149.32 125.445L186.521 146.926C189.162 148.445 189.162 152.269 186.521 153.787Z" fill="#E1E1E1"/>
<path d="M186.237 153.673L162.86 167.282C161.624 168.013 160.163 168.013 158.927 167.282L122.063 145.969C119.422 144.451 119.422 140.683 122.063 139.165L145.44 125.556C146.676 124.825 148.137 124.825 149.373 125.556L186.237 146.869C188.822 148.387 188.822 152.155 186.237 153.673Z" fill="#E1E1E1"/>
<path d="M185.899 153.561L162.747 167.001C161.567 167.676 160.05 167.676 158.87 167.001L122.4 145.913C119.815 144.395 119.815 140.683 122.4 139.165L145.552 125.725C146.732 125.05 148.249 125.05 149.429 125.725L185.899 146.813C188.484 148.331 188.484 152.099 185.899 153.561Z" fill="#E1E1E1"/>
<path d="M185.62 153.45L162.748 166.778C161.568 167.453 160.107 167.453 158.871 166.778L122.794 145.915C120.209 144.453 120.209 140.741 122.794 139.279L145.665 125.951C146.845 125.277 148.307 125.277 149.543 125.951L185.62 146.815C188.148 148.277 188.148 151.988 185.62 153.45Z" fill="#E1E1E1"/>
<path d="M185.282 153.337L162.636 166.496C161.456 167.171 159.995 167.171 158.814 166.496L123.131 145.858C120.602 144.396 120.602 140.74 123.131 139.278L145.777 126.119C146.957 125.445 148.418 125.445 149.599 126.119L185.282 146.758C187.811 148.22 187.811 151.875 185.282 153.337Z" fill="#E1E1E1"/>
<path d="M185.001 153.28L162.635 166.271C161.455 166.945 160.05 166.945 158.87 166.271L123.58 145.857C121.051 144.395 121.051 140.796 123.58 139.334L145.946 126.344C147.126 125.669 148.531 125.669 149.711 126.344L185.001 146.757C187.473 148.163 187.473 151.818 185.001 153.28Z" fill="#E1E1E1"/>
<path d="M184.663 153.168L162.523 166.045C161.399 166.72 159.938 166.72 158.814 166.045L123.917 145.913C121.444 144.507 121.444 140.908 123.917 139.446L146.058 126.569C147.181 125.894 148.643 125.894 149.766 126.569L184.663 146.701C187.136 148.163 187.136 151.706 184.663 153.168Z" fill="#E1E1E1"/>
<path d="M184.383 153.055L162.524 165.764C161.4 166.439 159.995 166.439 158.815 165.764L124.311 145.857C121.839 144.451 121.839 140.908 124.311 139.502L146.171 126.793C147.295 126.118 148.7 126.118 149.88 126.793L184.383 146.7C186.8 148.106 186.8 151.593 184.383 153.055Z" fill="#E1E1E1"/>
<path d="M184.048 152.943L162.413 165.484C161.289 166.158 159.885 166.158 158.761 165.484L124.707 145.801C122.29 144.396 122.29 140.909 124.707 139.503L146.342 126.907C147.466 126.232 148.87 126.232 149.994 126.907L184.104 146.589C186.465 148.051 186.465 151.537 184.048 152.943Z" fill="#E1E1E1"/>
<path d="M183.765 152.83L162.411 165.258C161.287 165.933 159.938 165.933 158.814 165.258L125.097 145.801C122.681 144.395 122.681 140.965 125.097 139.559L146.451 127.131C147.575 126.456 148.924 126.456 150.048 127.131L183.765 146.588C186.125 147.994 186.125 151.425 183.765 152.83Z" fill="#E1E1E1"/>
<path d="M183.429 152.718L162.3 164.978C161.176 165.596 159.828 165.596 158.76 164.978L125.493 145.745C123.133 144.396 123.133 140.965 125.493 139.616L146.622 127.357C147.746 126.738 149.094 126.738 150.162 127.357L183.429 146.589C185.79 147.938 185.79 151.369 183.429 152.718Z" fill="#E1E1E1"/>
<path d="M183.091 152.605L162.243 164.752C161.175 165.37 159.826 165.37 158.703 164.752L125.829 145.745C123.469 144.395 123.469 141.021 125.829 139.671L146.677 127.524C147.745 126.906 149.093 126.906 150.217 127.524L183.091 146.532C185.451 147.881 185.451 151.256 183.091 152.605Z" fill="#E1E1E1"/>
<path d="M182.812 152.494L162.189 164.472C161.121 165.09 159.772 165.09 158.705 164.472L126.224 145.69C123.92 144.34 123.92 141.022 126.224 139.672L146.847 127.694C147.915 127.076 149.264 127.076 150.332 127.694L182.812 146.477C185.116 147.826 185.116 151.144 182.812 152.494Z" fill="#E1E1E1"/>
<path d="M182.472 152.381L162.13 164.19C161.062 164.809 159.769 164.809 158.702 164.19L126.615 145.633C124.311 144.34 124.311 141.022 126.615 139.728L146.957 127.919C148.025 127.3 149.317 127.3 150.385 127.919L182.472 146.476C184.776 147.77 184.776 151.088 182.472 152.381Z" fill="#E1E1E1"/>
<path d="M182.193 152.268L162.075 163.965C161.008 164.583 159.715 164.583 158.704 163.965L127.01 145.632C124.762 144.339 124.762 141.077 127.01 139.784L147.128 128.087C148.195 127.468 149.488 127.468 150.499 128.087L182.193 146.42C184.441 147.713 184.441 150.975 182.193 152.268Z" fill="#E1E1E1"/>
<path d="M181.855 152.157L162.018 163.685C161.007 164.303 159.714 164.303 158.646 163.685L127.346 145.577C125.098 144.284 125.098 141.078 127.346 139.785L147.183 128.257C148.194 127.638 149.487 127.638 150.554 128.257L181.855 146.364C184.102 147.658 184.102 150.863 181.855 152.157Z" fill="#E1E1E1"/>
<path d="M181.576 152.099L161.964 163.515C160.952 164.133 159.66 164.133 158.648 163.515L127.741 145.688C125.55 144.395 125.55 141.246 127.741 140.008L147.353 128.593C148.365 127.974 149.657 127.974 150.669 128.593L181.576 146.419C183.767 147.656 183.767 150.806 181.576 152.099Z" fill="#E1E1E1"/>
<path d="M181.238 151.987L161.907 163.233C160.896 163.796 159.66 163.796 158.648 163.233L128.134 145.632C125.999 144.395 125.943 141.246 128.134 140.009L147.465 128.762C148.477 128.199 149.713 128.199 150.725 128.762L181.238 146.363C183.43 147.6 183.43 150.693 181.238 151.987Z" fill="#E1E1E1"/>
<path d="M180.957 151.875L161.851 162.954C160.839 163.516 159.603 163.516 158.648 162.954L128.527 145.577C126.392 144.34 126.392 141.247 128.527 140.01L147.633 128.932C148.645 128.369 149.881 128.369 150.837 128.932L180.957 146.308C183.036 147.545 183.092 150.638 180.957 151.875Z" fill="#E1E1E1"/>
<path d="M180.619 151.762L161.794 162.728C160.839 163.291 159.603 163.291 158.647 162.728L128.92 145.577C126.841 144.34 126.785 141.303 128.92 140.122L147.746 129.156C148.701 128.594 149.937 128.594 150.892 129.156L180.619 146.308C182.699 147.489 182.755 150.525 180.619 151.762Z" fill="#E1E1E1"/>
<path d="M180.338 151.649L161.738 162.446C160.782 163.009 159.602 163.009 158.591 162.446L129.313 145.52C127.234 144.339 127.234 141.302 129.313 140.121L147.914 129.324C148.869 128.762 150.049 128.762 151.061 129.324L180.338 146.251C182.361 147.432 182.361 150.412 180.338 151.649Z" fill="#E1E1E1"/>
<path d="M180 151.538L161.681 162.223C160.726 162.785 159.546 162.785 158.59 162.223L129.706 145.521C127.683 144.34 127.627 141.36 129.706 140.179L148.026 129.494C148.981 128.932 150.161 128.932 151.116 129.494L180 146.196C182.023 147.377 182.023 150.357 180 151.538Z" fill="#E1E1E1"/>
<path d="M179.664 151.425L161.57 161.941C160.614 162.503 159.491 162.503 158.535 161.941L130.045 145.464C128.022 144.283 128.022 141.359 130.045 140.178L148.139 129.662C149.095 129.1 150.218 129.1 151.174 129.662L179.664 146.139C181.687 147.32 181.687 150.244 179.664 151.425Z" fill="#E1E1E1"/>
<path d="M179.382 151.312L161.568 161.659C160.613 162.222 159.489 162.222 158.59 161.659L130.492 145.407C128.526 144.283 128.469 141.358 130.492 140.234L148.306 129.887C149.261 129.324 150.385 129.324 151.284 129.887L179.382 146.138C181.348 147.263 181.348 150.187 179.382 151.312Z" fill="#E1E1E1"/>
<path d="M179.047 151.2L161.458 161.434C160.559 161.94 159.435 161.94 158.48 161.434L130.776 145.407C128.809 144.283 128.809 141.415 130.776 140.29L148.365 130.055C149.264 129.549 150.388 129.549 151.343 130.055L179.047 146.082C181.014 147.207 181.014 150.075 179.047 151.2Z" fill="#E1E1E1"/>
<path d="M178.764 151.088L161.456 161.154C160.557 161.66 159.433 161.66 158.534 161.154L131.224 145.352C129.313 144.228 129.257 141.416 131.224 140.291L148.532 130.225C149.431 129.719 150.555 129.719 151.454 130.225L178.764 146.027C180.675 147.208 180.675 149.964 178.764 151.088Z" fill="#E1E1E1"/>
</g>
<path d="M196.565 127.668V142.064L159.477 163.602L159.533 149.206L196.565 127.668Z" fill="url(#paint33_linear_2664_82817)"/>
<path d="M159.534 149.207L159.477 163.603L106.43 132.955V118.559L159.534 149.207Z" fill="url(#paint34_linear_2664_82817)"/>
<path d="M156.724 151.399L156.668 158.991C156.668 159.328 156.331 159.553 155.994 159.384L109.408 132.448C109.296 132.392 109.184 132.223 109.184 132.054L109.24 124.463C109.24 124.125 109.577 123.9 109.914 124.069L156.499 151.006C156.668 151.118 156.724 151.287 156.724 151.399Z" fill="url(#paint35_linear_2664_82817)"/>
<path d="M110.363 131.38V126.431C110.363 126.094 110.7 125.869 111.038 126.038L155.319 151.625C155.431 151.681 155.544 151.85 155.544 152.018V156.967C155.544 157.304 155.207 157.529 154.869 157.361L110.588 131.774C110.476 131.718 110.363 131.549 110.363 131.38Z" fill="url(#paint36_linear_2664_82817)"/>
<path d="M110.363 131.38V126.431C110.363 126.094 110.7 125.869 111.038 126.038L155.319 151.625C155.431 151.681 155.544 151.85 155.544 152.018V156.967C155.544 157.304 155.207 157.529 154.869 157.361L110.588 131.774C110.476 131.718 110.363 131.549 110.363 131.38Z" fill="url(#paint37_linear_2664_82817)" fill-opacity="0.5"/>
<path d="M196.566 127.667L159.534 149.205L106.43 118.557L143.518 97.0195L196.566 127.667Z" fill="url(#paint38_linear_2664_82817)"/>
<path d="M147.113 136.271C147.9 135.821 149.249 135.821 150.036 136.271C150.822 136.721 150.822 137.508 150.036 137.958C149.249 138.408 147.9 138.408 147.113 137.958C146.327 137.508 146.327 136.777 147.113 136.271Z" fill="#A8F800"/>
<path d="M152.004 139.084C152.791 138.634 154.139 138.634 154.926 139.084C155.713 139.533 155.713 140.321 154.926 140.771C154.139 141.22 152.791 141.22 152.004 140.771C151.217 140.321 151.217 139.533 152.004 139.084Z" fill="#A8F800"/>
<path d="M157.621 142.289C158.408 141.839 159.757 141.839 160.543 142.289C161.33 142.738 161.33 143.526 160.543 143.976C159.757 144.425 158.408 144.425 157.621 143.976C156.835 143.526 156.835 142.738 157.621 142.289Z" fill="#A8F800"/>
<path d="M136.606 130.255C137.392 129.805 138.741 129.805 139.528 130.255C140.315 130.705 140.315 131.493 139.528 131.942C138.741 132.392 137.392 132.392 136.606 131.942C135.819 131.493 135.819 130.761 136.606 130.255Z" fill="#EBF4FB"/>
<path d="M141.496 133.066C142.283 132.616 143.632 132.616 144.418 133.066C145.205 133.516 145.205 134.303 144.418 134.753C143.632 135.203 142.283 135.203 141.496 134.753C140.71 134.303 140.71 133.516 141.496 133.066Z" fill="#EBF4FB"/>
<path opacity="0.7" d="M183.473 128.23L190.329 124.068L186.227 121.65L179.09 125.756L183.473 128.23Z" fill="url(#paint39_linear_2664_82817)"/>
<path d="M183.642 80.1484C183.642 80.4858 183.361 80.767 183.08 80.9357C182.743 81.1607 182.35 81.2731 182.013 81.2731C181.732 81.3294 181.451 81.3294 181.17 81.2731C180.776 81.2169 180.327 81.1044 179.99 80.8795C179.765 80.7108 179.54 80.4296 179.54 80.1484L178.191 126.542C178.191 126.655 178.191 126.767 178.248 126.879V126.936C178.304 127.104 178.416 127.329 178.585 127.498L178.641 127.554L178.697 127.611C178.81 127.723 178.922 127.779 179.091 127.892C179.259 128.004 179.428 128.06 179.596 128.117C179.652 128.117 179.709 128.173 179.765 128.173C179.877 128.229 180.046 128.285 180.158 128.285C180.214 128.285 180.271 128.285 180.327 128.342C180.495 128.398 180.72 128.398 180.889 128.454C180.889 128.454 180.889 128.454 180.945 128.454C181.114 128.454 181.338 128.51 181.507 128.51C181.563 128.51 181.619 128.51 181.675 128.51C181.844 128.51 181.956 128.51 182.125 128.51C182.181 128.51 182.237 128.51 182.294 128.51C182.462 128.51 182.687 128.454 182.856 128.398C183.024 128.342 183.137 128.342 183.305 128.285C183.361 128.285 183.418 128.229 183.474 128.229C183.642 128.173 183.867 128.06 184.036 127.948C184.71 127.554 185.047 127.048 185.047 126.542L183.642 80.1484Z" fill="url(#paint40_linear_2664_82817)"/>
<path d="M180.101 79.362C179.258 79.8119 179.258 80.5992 180.101 81.049C180.888 81.4989 182.236 81.4989 183.023 81.049C183.866 80.5992 183.866 79.8119 183.023 79.362C182.236 78.8559 180.944 78.8559 180.101 79.362Z" fill="url(#paint41_linear_2664_82817)"/>
<path opacity="0.7" d="M146.723 106.972L153.579 102.867L149.477 100.449L142.34 104.498L146.723 106.972Z" fill="url(#paint42_linear_2664_82817)"/>
<path d="M146.666 59.0605C146.666 59.398 146.385 59.6791 146.104 59.8478C145.767 60.0728 145.373 60.1852 145.036 60.1852C144.755 60.2415 144.474 60.2415 144.193 60.1852C143.8 60.129 143.35 60.0165 143.013 59.7916C142.788 59.6229 142.564 59.3417 142.564 59.0605L141.215 105.454C141.215 105.567 141.215 105.679 141.271 105.792V105.848C141.327 106.017 141.44 106.241 141.608 106.41L141.664 106.466L141.721 106.523C141.833 106.635 141.945 106.691 142.114 106.804C142.283 106.916 142.451 106.973 142.62 107.029C142.676 107.029 142.732 107.085 142.788 107.085C142.901 107.141 143.069 107.197 143.182 107.197C143.238 107.197 143.294 107.197 143.35 107.254C143.519 107.31 143.744 107.31 143.912 107.366C143.912 107.366 143.912 107.366 143.968 107.366C144.137 107.366 144.362 107.422 144.53 107.422C144.587 107.422 144.643 107.422 144.699 107.422C144.867 107.422 144.98 107.422 145.148 107.422C145.205 107.422 145.261 107.422 145.317 107.422C145.486 107.422 145.71 107.366 145.879 107.31C146.048 107.254 146.16 107.254 146.329 107.197C146.385 107.197 146.441 107.141 146.497 107.141C146.666 107.085 146.89 106.973 147.059 106.86C147.733 106.466 148.071 105.96 148.071 105.454L146.666 59.0605Z" fill="url(#paint43_linear_2664_82817)"/>
<path d="M143.183 58.2741C142.34 58.724 142.34 59.5113 143.183 59.9612C143.97 60.411 145.318 60.411 146.105 59.9612C146.948 59.5113 146.948 58.724 146.105 58.2741C145.318 57.768 143.97 57.768 143.183 58.2741Z" fill="url(#paint44_linear_2664_82817)"/>
<path d="M161.389 152.974C161.276 152.974 161.164 152.917 161.108 152.805C161.052 152.636 161.052 152.467 161.22 152.411L194.825 133.291C194.993 133.235 195.162 133.235 195.218 133.404C195.274 133.573 195.274 133.741 195.106 133.798L161.501 152.917C161.501 152.974 161.445 152.974 161.389 152.974Z" fill="url(#paint45_linear_2664_82817)"/>
<path d="M161.389 155.278C161.276 155.278 161.164 155.222 161.108 155.11C161.052 154.941 161.052 154.772 161.22 154.716L194.825 135.596C194.993 135.54 195.162 135.54 195.218 135.709C195.274 135.877 195.274 136.046 195.106 136.102L161.501 155.222C161.501 155.278 161.445 155.278 161.389 155.278Z" fill="url(#paint46_linear_2664_82817)"/>
<path d="M161.389 157.528C161.276 157.528 161.164 157.472 161.108 157.36C161.052 157.191 161.052 157.022 161.22 156.966L194.825 137.846C194.993 137.79 195.162 137.79 195.218 137.959C195.274 138.127 195.274 138.296 195.106 138.352L161.501 157.472C161.501 157.528 161.445 157.528 161.389 157.528Z" fill="url(#paint47_linear_2664_82817)"/>
<path d="M88.9535 158.26C88.7849 158.26 88.6163 158.148 88.6163 157.979C88.5601 157.586 81.8168 117.153 98.5066 94.7152C104.744 86.3362 113.454 81.3876 124.468 80.0942C133.741 78.9695 141.776 81.1064 148.464 86.3925C163.917 98.7641 166.671 124.463 166.727 124.688C166.727 124.913 166.614 125.082 166.39 125.082C166.165 125.082 165.996 124.969 165.996 124.745C165.996 124.463 163.186 99.0453 148.014 86.8986C141.495 81.725 133.628 79.6443 124.581 80.7128C113.791 82.0062 105.194 86.8424 99.1247 95.0526C82.6035 117.265 89.2907 157.361 89.3468 157.754C89.403 157.979 89.2345 158.148 89.0659 158.204C89.0097 158.26 88.9535 158.26 88.9535 158.26Z" fill="url(#paint48_linear_2664_82817)"/>
<path d="M155.486 73.908C153.969 57.1501 150.991 43.5975 146.607 33.5877C141.1 21.0474 133.289 14.1305 123.511 13.0058C115.251 12.0498 108.564 14.0743 103.675 18.9667C95.7513 26.8396 94.1217 40.6171 93.9531 49.1085C94.1217 49.0523 94.3465 48.9961 94.5713 48.8836C94.7398 40.4484 96.3695 27.0083 104.124 19.3604C108.901 14.6366 115.419 12.6684 123.511 13.5682C133.121 14.6366 140.707 21.441 146.158 33.8127C150.541 43.7662 153.519 57.2063 154.98 73.908C157.509 102.363 154.868 130.593 154.812 130.874C154.812 131.043 154.924 131.155 155.093 131.211C155.093 131.211 155.093 131.211 155.149 131.211C155.318 131.211 155.43 131.099 155.43 130.93C155.318 130.705 158.015 102.419 155.486 73.908Z" fill="url(#paint49_linear_2664_82817)"/>
<path d="M47.9309 140.096C48.1557 140.209 48.4367 140.209 48.6614 140.04L55.742 135.935L55.461 135.71C55.2362 135.598 54.9552 135.541 54.7867 135.71L47.5938 139.928L47.9309 140.096Z" fill="url(#paint50_linear_2664_82817)"/>
</g>
<defs>
<linearGradient id="paint0_linear_2664_82817" x1="118.203" y1="110.202" x2="76.5587" y2="110.202" gradientUnits="userSpaceOnUse">
<stop offset="0.0405405" stop-color="#3D3D3D"/>
<stop offset="0.4189" stop-color="#3E3E3E"/>
<stop offset="0.9757" stop-color="#383739"/>
</linearGradient>
<linearGradient id="paint1_linear_2664_82817" x1="82.4422" y1="106.731" x2="120.03" y2="107.798" gradientUnits="userSpaceOnUse">
<stop offset="0.0388601" stop-color="#8F8F8F"/>
<stop offset="1" stop-color="#6B6B6B"/>
</linearGradient>
<linearGradient id="paint2_linear_2664_82817" x1="127.211" y1="70.5941" x2="64.8672" y2="70.5941" gradientUnits="userSpaceOnUse">
<stop offset="0.0405405" stop-color="#4B4B4B"/>
<stop offset="0.4189" stop-color="#606060"/>
<stop offset="0.9757" stop-color="#616161"/>
</linearGradient>
<linearGradient id="paint3_linear_2664_82817" x1="85.2426" y1="108.883" x2="80.6931" y2="108.883" gradientUnits="userSpaceOnUse">
<stop offset="0.0405405" stop-color="#1A1A1A"/>
<stop offset="0.4189" stop-color="#1D1D1D"/>
<stop offset="0.9757" stop-color="#383739"/>
</linearGradient>
<linearGradient id="paint4_linear_2664_82817" x1="111.258" y1="101.568" x2="84.635" y2="101.568" gradientUnits="userSpaceOnUse">
<stop offset="0.0405405" stop-color="#3D3D3D"/>
<stop offset="0.4189" stop-color="#3E3E3E"/>
<stop offset="0.9757" stop-color="#383739"/>
</linearGradient>
<linearGradient id="paint5_linear_2664_82817" x1="128.223" y1="71.4235" x2="67.5072" y2="71.4235" gradientUnits="userSpaceOnUse">
<stop offset="0.0405405" stop-color="#3D3D3D"/>
<stop offset="0.4189" stop-color="#3E3E3E"/>
<stop offset="0.9757" stop-color="#383739"/>
</linearGradient>
<linearGradient id="paint6_linear_2664_82817" x1="96.8179" y1="83.0643" x2="101.313" y2="83.0643" gradientUnits="userSpaceOnUse">
<stop stop-color="#ABFA04"/>
<stop offset="1" stop-color="#84BC0C"/>
</linearGradient>
<linearGradient id="paint7_linear_2664_82817" x1="92.4263" y1="76.379" x2="105.624" y2="76.379" gradientUnits="userSpaceOnUse">
<stop stop-color="#ABFA04"/>
<stop offset="1" stop-color="#84BC0C"/>
</linearGradient>
<linearGradient id="paint8_linear_2664_82817" x1="87.2269" y1="70.2735" x2="110.798" y2="70.2735" gradientUnits="userSpaceOnUse">
<stop stop-color="#ABFA04"/>
<stop offset="1" stop-color="#84BC0C"/>
</linearGradient>
<linearGradient id="paint9_linear_2664_82817" x1="81.9142" y1="64.0339" x2="116.147" y2="64.0339" gradientUnits="userSpaceOnUse">
<stop stop-color="#ABFA04"/>
<stop offset="1" stop-color="#84BC0C"/>
</linearGradient>
<linearGradient id="paint10_linear_2664_82817" x1="164.224" y1="67.0921" x2="179.97" y2="75.4456" gradientUnits="userSpaceOnUse">
<stop offset="0.00777202" stop-color="#989898"/>
<stop offset="0.3549" stop-color="#A7A7A7"/>
<stop offset="0.7487" stop-color="#919191"/>
</linearGradient>
<linearGradient id="paint11_linear_2664_82817" x1="158.181" y1="75.081" x2="167.175" y2="75.081" gradientUnits="userSpaceOnUse">
<stop stop-color="#94DA00"/>
<stop offset="1" stop-color="#9BDE0B"/>
</linearGradient>
<linearGradient id="paint12_linear_2664_82817" x1="159.88" y1="50.1525" x2="184.862" y2="71.8221" gradientUnits="userSpaceOnUse">
<stop offset="0.00777202" stop-color="#989898"/>
<stop offset="0.3549" stop-color="#A7A7A7"/>
<stop offset="0.7487" stop-color="#919191"/>
</linearGradient>
<linearGradient id="paint13_linear_2664_82817" x1="149.409" y1="61.1231" x2="175.942" y2="61.1231" gradientUnits="userSpaceOnUse">
<stop stop-color="#94DA00"/>
<stop offset="1" stop-color="#9BDE0B"/>
</linearGradient>
<linearGradient id="paint14_linear_2664_82817" x1="139.062" y1="48.5898" x2="186.506" y2="48.5898" gradientUnits="userSpaceOnUse">
<stop stop-color="#94DA00"/>
<stop offset="1" stop-color="#9BDE0B"/>
</linearGradient>
<linearGradient id="paint15_linear_2664_82817" x1="155.691" y1="33.1253" x2="196.106" y2="67.8385" gradientUnits="userSpaceOnUse">
<stop offset="0.00777202" stop-color="#989898"/>
<stop offset="0.3549" stop-color="#A7A7A7"/>
<stop offset="0.7487" stop-color="#919191"/>
</linearGradient>
<linearGradient id="paint16_linear_2664_82817" x1="151.167" y1="15.6942" x2="207.194" y2="64.1274" gradientUnits="userSpaceOnUse">
<stop offset="0.00777202" stop-color="#989898"/>
<stop offset="0.3549" stop-color="#A7A7A7"/>
<stop offset="0.7487" stop-color="#919191"/>
</linearGradient>
<linearGradient id="paint17_linear_2664_82817" x1="128.379" y1="35.6942" x2="197.297" y2="35.6942" gradientUnits="userSpaceOnUse">
<stop stop-color="#94DA00"/>
<stop offset="1" stop-color="#9BDE0B"/>
</linearGradient>
<linearGradient id="paint18_linear_2664_82817" x1="70.1199" y1="160.727" x2="88.2499" y2="160.154" gradientUnits="userSpaceOnUse">
<stop offset="0.0388601" stop-color="#A2A2A2"/>
<stop offset="1" stop-color="#686868"/>
</linearGradient>
<linearGradient id="paint19_linear_2664_82817" x1="114.84" y1="151.921" x2="34.5576" y2="151.921" gradientUnits="userSpaceOnUse">
<stop offset="0.0405405" stop-color="#3D3D3D"/>
<stop offset="0.4189" stop-color="#3E3E3E"/>
<stop offset="0.9757" stop-color="#383739"/>
</linearGradient>
<linearGradient id="paint20_linear_2664_82817" x1="59.0634" y1="156.492" x2="102.076" y2="143.432" gradientUnits="userSpaceOnUse">
<stop stop-color="#515151"/>
<stop offset="0.2208" stop-color="#525252"/>
<stop offset="0.4401" stop-color="#545454"/>
<stop offset="0.6588" stop-color="#464646"/>
<stop offset="0.8759" stop-color="#494949"/>
<stop offset="1" stop-color="#4E4E4E"/>
</linearGradient>
<linearGradient id="paint21_linear_2664_82817" x1="62.232" y1="149.567" x2="60.9788" y2="87.7724" gradientUnits="userSpaceOnUse">
<stop stop-color="#505050"/>
<stop offset="0.5259" stop-color="white"/>
<stop offset="0.7203" stop-color="#DADCFF"/>
<stop offset="1" stop-color="#CFD0FF"/>
</linearGradient>
<linearGradient id="paint22_linear_2664_82817" x1="57.1954" y1="155.265" x2="54.0843" y2="127.719" gradientUnits="userSpaceOnUse">
<stop stop-color="#505050"/>
<stop offset="0.5259" stop-color="white"/>
<stop offset="0.7203" stop-color="#DADCFF"/>
<stop offset="1" stop-color="#CFD0FF"/>
</linearGradient>
<linearGradient id="paint23_linear_2664_82817" x1="54.7539" y1="138.875" x2="81.2544" y2="138.875" gradientUnits="userSpaceOnUse">
<stop stop-color="#C3FF43"/>
<stop offset="1" stop-color="#8ED100"/>
</linearGradient>
<linearGradient id="paint24_linear_2664_82817" x1="70.0012" y1="152.361" x2="68.5841" y2="95.8658" gradientUnits="userSpaceOnUse">
<stop stop-color="#505050"/>
<stop offset="0.5259" stop-color="white"/>
<stop offset="0.7203" stop-color="#DADCFF"/>
<stop offset="1" stop-color="#CFD0FF"/>
</linearGradient>
<linearGradient id="paint25_linear_2664_82817" x1="66.2618" y1="155.32" x2="63.1048" y2="127.785" gradientUnits="userSpaceOnUse">
<stop stop-color="#505050"/>
<stop offset="0.5259" stop-color="white"/>
<stop offset="0.7203" stop-color="#DADCFF"/>
<stop offset="1" stop-color="#CFD0FF"/>
</linearGradient>
<linearGradient id="paint26_linear_2664_82817" x1="63.8692" y1="141.191" x2="82.0426" y2="141.191" gradientUnits="userSpaceOnUse">
<stop stop-color="#F1FFD2"/>
<stop offset="1" stop-color="#A8F800"/>
</linearGradient>
<linearGradient id="paint27_linear_2664_82817" x1="63.8692" y1="141.191" x2="82.0426" y2="141.191" gradientUnits="userSpaceOnUse">
<stop stop-color="#C3FF43"/>
<stop offset="1" stop-color="#8ED100"/>
</linearGradient>
<linearGradient id="paint28_linear_2664_82817" x1="77.7294" y1="153.328" x2="75.9148" y2="110.403" gradientUnits="userSpaceOnUse">
<stop stop-color="#505050"/>
<stop offset="0.5259" stop-color="white"/>
<stop offset="0.7203" stop-color="#DADCFF"/>
<stop offset="1" stop-color="#CFD0FF"/>
</linearGradient>
<linearGradient id="paint29_linear_2664_82817" x1="75.2501" y1="155.437" x2="72.055" y2="127.738" gradientUnits="userSpaceOnUse">
<stop stop-color="#505050"/>
<stop offset="0.5259" stop-color="white"/>
<stop offset="0.7203" stop-color="#DADCFF"/>
<stop offset="1" stop-color="#CFD0FF"/>
</linearGradient>
<linearGradient id="paint30_linear_2664_82817" x1="72.9215" y1="143.643" x2="83.1636" y2="143.643" gradientUnits="userSpaceOnUse">
<stop stop-color="#C3FF43"/>
<stop offset="1" stop-color="#8ED100"/>
</linearGradient>
<linearGradient id="paint31_linear_2664_82817" x1="81.3371" y1="155.135" x2="80.1373" y2="124.904" gradientUnits="userSpaceOnUse">
<stop stop-color="#505050"/>
<stop offset="0.5259" stop-color="white"/>
<stop offset="0.7203" stop-color="#DADCFF"/>
<stop offset="1" stop-color="#CFD0FF"/>
</linearGradient>
<linearGradient id="paint32_linear_2664_82817" x1="80.631" y1="146.512" x2="85.4978" y2="146.512" gradientUnits="userSpaceOnUse">
<stop stop-color="#C3FF43"/>
<stop offset="1" stop-color="#8ED100"/>
</linearGradient>
<linearGradient id="paint33_linear_2664_82817" x1="155.181" y1="159.832" x2="199.212" y2="169.098" gradientUnits="userSpaceOnUse">
<stop offset="0.00777202" stop-color="#CBCBCB"/>
<stop offset="0.3549" stop-color="#979797"/>
<stop offset="0.7487" stop-color="#878787"/>
<stop offset="1" stop-color="#7B7B7B"/>
</linearGradient>
<linearGradient id="paint34_linear_2664_82817" x1="108.352" y1="138.311" x2="156.539" y2="126.37" gradientUnits="userSpaceOnUse">
<stop offset="0.00777202" stop-color="#9E9E9E"/>
<stop offset="0.3549" stop-color="#6A6A6A"/>
<stop offset="0.7487" stop-color="#5E5E5E"/>
<stop offset="1" stop-color="#5B5B5B"/>
</linearGradient>
<linearGradient id="paint35_linear_2664_82817" x1="167.242" y1="158.041" x2="123.46" y2="145.593" gradientUnits="userSpaceOnUse">
<stop offset="0.2565" stop-color="#3D3C3C"/>
<stop offset="1" stop-color="#777777"/>
</linearGradient>
<linearGradient id="paint36_linear_2664_82817" x1="110.378" y1="141.743" x2="155.568" y2="141.743" gradientUnits="userSpaceOnUse">
<stop stop-color="#C9C9C9"/>
<stop offset="0.1791" stop-color="#C5C5C5"/>
<stop offset="0.2632" stop-color="#CDCDCD"/>
<stop offset="0.3274" stop-color="#D3D3D3"/>
<stop offset="0.3816" stop-color="#DFDFDF"/>
<stop offset="0.4294" stop-color="#E4E7E8"/>
<stop offset="0.4722" stop-color="#F3F3F3"/>
<stop offset="0.5078" stop-color="white"/>
<stop offset="0.5393" stop-color="#F7F7F7"/>
<stop offset="0.5865" stop-color="#EEEEEE"/>
<stop offset="0.6385" stop-color="#E7E7E7"/>
<stop offset="0.6962" stop-color="#DCDCDC"/>
<stop offset="0.7628" stop-color="#CFCFCF"/>
<stop offset="0.8463" stop-color="#D2D2D2"/>
<stop offset="1" stop-color="#BCBCBC"/>
</linearGradient>
<linearGradient id="paint37_linear_2664_82817" x1="110.31" y1="141.704" x2="155.546" y2="141.704" gradientUnits="userSpaceOnUse">
<stop stop-color="#C3FF43"/>
<stop offset="1" stop-color="#8ED100"/>
</linearGradient>
<linearGradient id="paint38_linear_2664_82817" x1="109.692" y1="119.904" x2="186.395" y2="92.0567" gradientUnits="userSpaceOnUse">
<stop offset="0.00777202" stop-color="#929292"/>
<stop offset="0.3549" stop-color="#8C8C8C"/>
<stop offset="0.7487" stop-color="#6C6B6B"/>
<stop offset="1" stop-color="#5E5E5E"/>
</linearGradient>
<linearGradient id="paint39_linear_2664_82817" x1="188.553" y1="120.859" x2="182.127" y2="127.606" gradientUnits="userSpaceOnUse">
<stop stop-color="white"/>
<stop offset="1" stop-color="#231F20"/>
</linearGradient>
<linearGradient id="paint40_linear_2664_82817" x1="177.128" y1="104.083" x2="182.334" y2="104.335" gradientUnits="userSpaceOnUse">
<stop stop-color="white"/>
<stop offset="0.5259" stop-color="#D8D8D8"/>
<stop offset="0.7203" stop-color="#CDCDCD"/>
<stop offset="1" stop-color="#A6A6A6"/>
</linearGradient>
<linearGradient id="paint41_linear_2664_82817" x1="178.819" y1="80.1722" x2="181.175" y2="81.5711" gradientUnits="userSpaceOnUse">
<stop stop-color="white"/>
<stop offset="0.5259" stop-color="#D8D8D8"/>
<stop offset="0.7203" stop-color="#CDCDCD"/>
<stop offset="1" stop-color="#A6A6A6"/>
</linearGradient>
<linearGradient id="paint42_linear_2664_82817" x1="151.811" y1="99.6347" x2="145.385" y2="106.382" gradientUnits="userSpaceOnUse">
<stop stop-color="white"/>
<stop offset="1" stop-color="#231F20"/>
</linearGradient>
<linearGradient id="paint43_linear_2664_82817" x1="140.151" y1="82.9953" x2="145.357" y2="83.247" gradientUnits="userSpaceOnUse">
<stop stop-color="white"/>
<stop offset="0.5259" stop-color="#D8D8D8"/>
<stop offset="0.7203" stop-color="#CDCDCD"/>
<stop offset="1" stop-color="#A6A6A6"/>
</linearGradient>
<linearGradient id="paint44_linear_2664_82817" x1="141.901" y1="59.0843" x2="144.257" y2="60.4833" gradientUnits="userSpaceOnUse">
<stop stop-color="white"/>
<stop offset="0.5259" stop-color="#D8D8D8"/>
<stop offset="0.7203" stop-color="#CDCDCD"/>
<stop offset="1" stop-color="#A6A6A6"/>
</linearGradient>
<linearGradient id="paint45_linear_2664_82817" x1="202.813" y1="152.194" x2="172.838" y2="141.184" gradientUnits="userSpaceOnUse">
<stop offset="0.2565" stop-color="#2C2C2C"/>
<stop offset="1" stop-color="#242424"/>
</linearGradient>
<linearGradient id="paint46_linear_2664_82817" x1="202.813" y1="154.499" x2="172.838" y2="143.488" gradientUnits="userSpaceOnUse">
<stop offset="0.2565" stop-color="#2C2C2C"/>
<stop offset="1" stop-color="#242424"/>
</linearGradient>
<linearGradient id="paint47_linear_2664_82817" x1="202.813" y1="156.749" x2="172.838" y2="145.738" gradientUnits="userSpaceOnUse">
<stop offset="0.2565" stop-color="#2C2C2C"/>
<stop offset="1" stop-color="#242424"/>
</linearGradient>
<linearGradient id="paint48_linear_2664_82817" x1="129.071" y1="142.539" x2="120.376" y2="118.458" gradientUnits="userSpaceOnUse">
<stop stop-color="#757575" stop-opacity="0"/>
<stop offset="1" stop-color="#89C903"/>
</linearGradient>
<linearGradient id="paint49_linear_2664_82817" x1="126.913" y1="107.479" x2="107.685" y2="79.6945" gradientUnits="userSpaceOnUse">
<stop stop-color="#757575" stop-opacity="0"/>
<stop offset="1" stop-color="#89C903"/>
</linearGradient>
<linearGradient id="paint50_linear_2664_82817" x1="49.8942" y1="138.993" x2="60.1264" y2="132.91" gradientUnits="userSpaceOnUse">
<stop stop-color="#0E0E0E"/>
<stop offset="1" stop-color="#3D3D3D"/>
</linearGradient>
<clipPath id="clip0_2664_82817">
<rect width="171" height="184" fill="white" transform="translate(34.5 8)"/>
</clipPath>
</defs>
</svg>
