<svg width="240" height="200" viewBox="0 0 240 200" fill="none" xmlns="http://www.w3.org/2000/svg">
<path d="M209.296 138.617L208.128 137.932C208.089 137.909 208.056 137.879 208.029 137.844C208.002 137.808 207.983 137.767 207.972 137.724C207.961 137.681 207.958 137.636 207.964 137.592C207.971 137.548 207.986 137.506 208.008 137.467C208.03 137.428 208.06 137.394 208.096 137.367C208.131 137.339 208.172 137.32 208.215 137.309C208.259 137.297 208.304 137.295 208.348 137.302C208.393 137.309 208.435 137.324 208.473 137.348L209.641 138.032C209.704 138.071 209.753 138.129 209.78 138.198C209.807 138.266 209.81 138.342 209.79 138.413C209.771 138.484 209.728 138.546 209.669 138.591C209.611 138.636 209.539 138.66 209.466 138.661C209.406 138.66 209.348 138.645 209.296 138.617ZM206.959 137.241L205.791 136.55C205.752 136.528 205.718 136.498 205.691 136.463C205.663 136.427 205.644 136.387 205.633 136.343C205.621 136.3 205.619 136.255 205.626 136.21C205.633 136.166 205.648 136.123 205.672 136.085C205.718 136.01 205.791 135.955 205.877 135.932C205.962 135.91 206.053 135.922 206.13 135.966L207.305 136.657C207.381 136.704 207.436 136.778 207.458 136.865C207.481 136.952 207.468 137.044 207.424 137.122C207.394 137.172 207.35 137.214 207.298 137.243C207.247 137.271 207.188 137.286 207.129 137.285C207.07 137.286 207.011 137.271 206.959 137.241ZM204.623 135.865L203.448 135.175C203.41 135.152 203.376 135.122 203.35 135.086C203.323 135.051 203.303 135.01 203.292 134.967C203.281 134.924 203.279 134.879 203.285 134.835C203.291 134.791 203.306 134.748 203.329 134.71C203.352 134.671 203.382 134.638 203.417 134.611C203.453 134.584 203.493 134.565 203.537 134.554C203.58 134.543 203.625 134.54 203.669 134.547C203.713 134.553 203.755 134.568 203.794 134.59L204.962 135.281C205.024 135.32 205.073 135.377 205.1 135.445C205.127 135.513 205.131 135.588 205.112 135.659C205.093 135.729 205.051 135.792 204.994 135.837C204.936 135.882 204.866 135.908 204.792 135.909C204.733 135.911 204.674 135.895 204.623 135.865ZM202.28 134.484L201.112 133.799C201.035 133.752 200.98 133.677 200.958 133.591C200.936 133.504 200.948 133.412 200.992 133.334C201.014 133.295 201.044 133.261 201.08 133.234C201.115 133.207 201.156 133.187 201.199 133.176C201.243 133.164 201.288 133.162 201.332 133.169C201.377 133.176 201.419 133.191 201.457 133.215L202.625 133.887C202.688 133.925 202.736 133.983 202.763 134.051C202.79 134.119 202.795 134.194 202.775 134.264C202.756 134.335 202.715 134.398 202.657 134.443C202.6 134.488 202.529 134.513 202.456 134.515C202.398 134.53 202.338 134.53 202.28 134.515V134.484ZM199.943 133.108L198.775 132.423C198.698 132.378 198.642 132.303 198.619 132.216C198.597 132.129 198.61 132.036 198.656 131.959C198.702 131.881 198.776 131.825 198.864 131.803C198.951 131.78 199.043 131.793 199.121 131.839L200.289 132.524C200.327 132.547 200.361 132.577 200.388 132.612C200.414 132.648 200.434 132.688 200.445 132.732C200.456 132.775 200.458 132.82 200.452 132.864C200.446 132.908 200.431 132.95 200.408 132.989C200.378 133.04 200.335 133.083 200.283 133.112C200.231 133.142 200.173 133.158 200.113 133.158C200.053 133.156 199.995 133.139 199.943 133.108ZM197.607 131.733L196.439 131.042C196.4 131.02 196.365 130.99 196.338 130.954C196.311 130.919 196.291 130.878 196.28 130.835C196.269 130.791 196.267 130.746 196.273 130.702C196.28 130.657 196.296 130.615 196.319 130.577C196.342 130.538 196.372 130.505 196.408 130.478C196.443 130.451 196.484 130.432 196.527 130.421C196.57 130.41 196.615 130.407 196.659 130.414C196.703 130.42 196.746 130.435 196.784 130.457L197.952 131.148C198.029 131.195 198.084 131.27 198.106 131.357C198.128 131.443 198.116 131.535 198.072 131.613C198.041 131.664 197.998 131.705 197.946 131.734C197.894 131.763 197.836 131.777 197.776 131.776C197.717 131.778 197.658 131.762 197.607 131.733Z" fill="#BFD393"/>
<path d="M172.868 158.96L171.693 158.269C171.616 158.224 171.56 158.149 171.537 158.062C171.515 157.975 171.528 157.882 171.574 157.805C171.62 157.727 171.695 157.671 171.782 157.649C171.869 157.626 171.961 157.639 172.039 157.685L173.207 158.376C173.246 158.398 173.28 158.428 173.308 158.463C173.335 158.499 173.355 158.539 173.367 158.582C173.378 158.626 173.381 158.671 173.376 158.715C173.37 158.759 173.355 158.802 173.333 158.841C173.302 158.891 173.258 158.933 173.206 158.961C173.155 158.99 173.097 159.005 173.038 159.004C172.978 159.005 172.919 158.99 172.868 158.96ZM170.525 157.579L169.357 156.894C169.281 156.847 169.225 156.772 169.203 156.686C169.181 156.599 169.193 156.507 169.237 156.429C169.26 156.391 169.29 156.357 169.326 156.33C169.361 156.304 169.402 156.284 169.445 156.273C169.488 156.262 169.533 156.26 169.577 156.266C169.621 156.272 169.664 156.287 169.702 156.31L170.871 156.994C170.91 157.016 170.944 157.046 170.971 157.082C170.998 157.117 171.018 157.158 171.029 157.201C171.04 157.245 171.043 157.29 171.036 157.334C171.029 157.379 171.013 157.421 170.99 157.459C170.961 157.51 170.918 157.552 170.868 157.582C170.817 157.612 170.76 157.628 170.701 157.629C170.639 157.631 170.577 157.613 170.525 157.579ZM168.188 156.203L167.02 155.518C166.982 155.496 166.948 155.466 166.922 155.43C166.895 155.394 166.875 155.354 166.864 155.311C166.853 155.267 166.851 155.223 166.857 155.178C166.863 155.134 166.878 155.092 166.901 155.054C166.923 155.015 166.953 154.98 166.988 154.953C167.024 154.926 167.064 154.906 167.108 154.895C167.151 154.884 167.196 154.882 167.241 154.888C167.285 154.895 167.328 154.911 167.366 154.934L168.534 155.619C168.596 155.657 168.645 155.715 168.672 155.783C168.699 155.851 168.703 155.926 168.684 155.996C168.665 156.067 168.623 156.13 168.566 156.175C168.508 156.22 168.438 156.245 168.364 156.247C168.303 156.248 168.242 156.232 168.188 156.203ZM165.852 154.827L164.684 154.136C164.645 154.114 164.612 154.084 164.585 154.048C164.558 154.013 164.539 153.972 164.528 153.929C164.517 153.886 164.514 153.841 164.52 153.797C164.527 153.752 164.542 153.71 164.564 153.672C164.611 153.595 164.686 153.54 164.773 153.518C164.859 153.496 164.951 153.508 165.029 153.552L166.197 154.243C166.274 154.29 166.329 154.365 166.351 154.452C166.373 154.538 166.361 154.63 166.317 154.708C166.286 154.759 166.243 154.8 166.191 154.829C166.139 154.858 166.081 154.872 166.022 154.871C165.962 154.872 165.904 154.857 165.852 154.827ZM163.515 153.452L162.347 152.761C162.308 152.739 162.274 152.709 162.247 152.674C162.219 152.638 162.2 152.597 162.188 152.554C162.177 152.511 162.175 152.465 162.182 152.421C162.189 152.377 162.204 152.334 162.228 152.296C162.25 152.258 162.28 152.224 162.316 152.197C162.352 152.171 162.392 152.151 162.435 152.14C162.479 152.129 162.524 152.127 162.568 152.133C162.612 152.139 162.654 152.154 162.693 152.177L163.861 152.868C163.937 152.915 163.992 152.989 164.014 153.076C164.037 153.163 164.024 153.255 163.98 153.332C163.949 153.383 163.906 153.425 163.854 153.453C163.803 153.482 163.744 153.497 163.685 153.496C163.625 153.497 163.567 153.482 163.515 153.452ZM161.179 152.07L160.004 151.385C159.928 151.338 159.873 151.264 159.851 151.177C159.828 151.09 159.841 150.998 159.885 150.921C159.908 150.882 159.938 150.849 159.973 150.822C160.009 150.795 160.049 150.776 160.093 150.765C160.136 150.753 160.181 150.751 160.225 150.757C160.269 150.764 160.311 150.779 160.35 150.801L161.518 151.486C161.557 151.508 161.591 151.538 161.618 151.573C161.646 151.609 161.665 151.649 161.677 151.693C161.688 151.736 161.69 151.781 161.683 151.826C161.677 151.87 161.661 151.913 161.637 151.951C161.608 152.002 161.566 152.044 161.515 152.074C161.465 152.103 161.407 152.119 161.348 152.12C161.291 152.129 161.233 152.122 161.179 152.101V152.07Z" fill="#BFD393"/>
<path d="M139.275 178.483L138.107 177.799C138.03 177.752 137.975 177.677 137.953 177.59C137.931 177.504 137.943 177.412 137.987 177.334C138.01 177.296 138.04 177.262 138.076 177.235C138.111 177.208 138.152 177.189 138.195 177.178C138.238 177.167 138.283 177.164 138.327 177.171C138.371 177.177 138.414 177.192 138.452 177.215L139.62 177.899C139.659 177.921 139.693 177.951 139.721 177.986C139.748 178.022 139.768 178.063 139.779 178.106C139.79 178.15 139.792 178.195 139.786 178.239C139.779 178.283 139.763 178.326 139.74 178.364C139.71 178.415 139.668 178.457 139.618 178.487C139.567 178.517 139.509 178.533 139.451 178.534C139.389 178.532 139.328 178.515 139.275 178.483ZM136.926 177.114L135.757 176.423C135.687 176.374 135.639 176.299 135.623 176.215C135.606 176.13 135.623 176.043 135.669 175.971C135.692 175.932 135.721 175.898 135.757 175.87C135.792 175.843 135.833 175.823 135.876 175.811C135.919 175.8 135.964 175.797 136.008 175.802C136.053 175.808 136.096 175.823 136.134 175.845L137.303 176.536C137.365 176.574 137.413 176.632 137.44 176.7C137.467 176.768 137.472 176.843 137.453 176.914C137.433 176.984 137.392 177.047 137.334 177.092C137.277 177.137 137.206 177.163 137.133 177.164C137.06 177.169 136.988 177.151 136.926 177.114ZM134.589 175.738L133.421 175.048C133.383 175.025 133.349 174.995 133.322 174.959C133.295 174.924 133.276 174.883 133.265 174.84C133.254 174.797 133.251 174.752 133.258 174.708C133.264 174.664 133.279 174.621 133.302 174.583C133.324 174.544 133.354 174.511 133.39 174.484C133.425 174.457 133.466 174.438 133.509 174.427C133.552 174.416 133.597 174.413 133.641 174.42C133.686 174.426 133.728 174.441 133.766 174.463L134.935 175.154C134.997 175.193 135.046 175.251 135.073 175.32C135.1 175.388 135.103 175.464 135.084 175.535C135.064 175.606 135.021 175.668 134.963 175.713C134.904 175.758 134.832 175.782 134.759 175.782C134.704 175.781 134.65 175.766 134.602 175.738H134.589ZM132.253 174.363L131.084 173.672C131.045 173.65 131.011 173.62 130.984 173.585C130.957 173.549 130.937 173.508 130.926 173.465C130.915 173.422 130.912 173.376 130.919 173.332C130.926 173.288 130.941 173.245 130.965 173.207C130.988 173.169 131.018 173.135 131.053 173.109C131.089 173.082 131.129 173.062 131.173 173.051C131.216 173.04 131.261 173.038 131.305 173.044C131.349 173.05 131.391 173.065 131.43 173.088L132.598 173.772C132.674 173.819 132.729 173.894 132.752 173.981C132.774 174.067 132.762 174.159 132.717 174.237C132.688 174.29 132.645 174.333 132.593 174.363C132.541 174.393 132.482 174.408 132.422 174.407C132.367 174.406 132.313 174.391 132.265 174.363H132.253ZM129.916 172.981L128.76 172.296C128.717 172.277 128.679 172.248 128.648 172.213C128.617 172.177 128.594 172.136 128.579 172.091C128.565 172.046 128.561 171.998 128.566 171.951C128.571 171.904 128.586 171.859 128.61 171.818C128.633 171.778 128.665 171.742 128.703 171.714C128.741 171.687 128.785 171.667 128.831 171.657C128.877 171.647 128.925 171.647 128.971 171.656C129.017 171.666 129.061 171.685 129.099 171.712L130.268 172.397C130.307 172.419 130.341 172.449 130.368 172.484C130.395 172.52 130.415 172.561 130.426 172.604C130.437 172.647 130.44 172.693 130.433 172.737C130.426 172.781 130.411 172.824 130.387 172.862C130.358 172.913 130.316 172.955 130.265 172.985C130.214 173.014 130.157 173.03 130.098 173.031C130.038 173.03 129.98 173.013 129.929 172.981H129.916ZM127.573 171.606L126.405 170.915C126.367 170.892 126.333 170.862 126.306 170.826C126.28 170.791 126.26 170.75 126.249 170.707C126.238 170.664 126.235 170.619 126.242 170.575C126.248 170.531 126.263 170.488 126.286 170.45C126.308 170.411 126.338 170.378 126.374 170.351C126.41 170.324 126.45 170.305 126.493 170.294C126.536 170.283 126.581 170.28 126.625 170.287C126.67 170.293 126.712 170.308 126.75 170.33L127.919 171.021C127.957 171.044 127.991 171.074 128.017 171.11C128.044 171.145 128.064 171.186 128.075 171.229C128.086 171.272 128.088 171.317 128.082 171.361C128.076 171.405 128.061 171.448 128.038 171.486C128.008 171.536 127.966 171.578 127.915 171.606C127.865 171.635 127.807 171.65 127.749 171.649C127.692 171.649 127.636 171.633 127.586 171.606H127.573Z" fill="#BFD393"/>
<path d="M177.497 108.035L158.81 118.813L140.162 108.041L158.848 97.2688L177.497 108.035ZM178.891 108.035L158.842 96.4648L138.742 108.053L158.791 119.63L178.891 108.035Z" fill="#C2C2C2"/>
<path d="M155.997 121.169L136.023 109.637L136.84 109.172L156.808 120.698L155.997 121.169Z" fill="#C2C2C2"/>
<path d="M153.679 122.505L133.711 110.973L134.521 110.502L154.489 122.034L153.679 122.505Z" fill="#C2C2C2"/>
<path d="M142.002 118.479L131.355 112.33L132.166 111.865L142.812 118.008L142.002 118.479Z" fill="#C2C2C2"/>
<path d="M203.375 122.97L184.664 133.761L166.015 122.995L184.702 112.204L203.35 122.97H203.375ZM204.77 122.97L184.721 111.4L164.621 122.995L184.67 134.565L204.77 122.976V122.97Z" fill="#C2C2C2"/>
<path d="M181.876 136.104L161.902 124.579L162.713 124.107L182.686 135.64L181.876 136.104Z" fill="#C2C2C2"/>
<path d="M179.56 137.442L159.586 125.916L160.402 125.445L180.37 136.977L179.56 137.442Z" fill="#C2C2C2"/>
<path d="M167.873 133.417L157.227 127.274L158.043 126.803L168.683 132.952L167.873 133.417Z" fill="#C2C2C2"/>
<path d="M142.75 128.095L124.064 138.911L105.416 128.145L124.102 117.354L142.75 128.12V128.095ZM144.145 128.095L124.096 116.525L103.996 128.114L124.039 139.69L144.139 128.095H144.145Z" fill="#C2C2C2"/>
<path d="M121.247 141.229L101.273 129.697L102.084 129.232L122.058 140.758L121.247 141.229Z" fill="#C2C2C2"/>
<path d="M118.931 142.567L98.957 131.035L99.7673 130.57L119.741 142.096L118.931 142.567Z" fill="#C2C2C2"/>
<path d="M107.248 138.542L96.6016 132.399L97.4118 131.928L108.058 138.077L107.248 138.542Z" fill="#C2C2C2"/>
<path d="M168.629 143.039L149.937 153.824L131.276 143.058L149.962 132.267L168.617 143.039H168.629ZM170.024 143.039L149.974 131.463L129.875 143.058L149.943 154.615L170.043 143.026L170.024 143.039Z" fill="#C2C2C2"/>
<path d="M147.12 156.167L127.152 144.641L127.963 144.17L147.93 155.702L147.12 156.167Z" fill="#C2C2C2"/>
<path d="M144.81 157.505L124.836 145.979L125.646 145.508L145.614 157.04L144.81 157.505Z" fill="#C2C2C2"/>
<path d="M133.127 153.483L122.48 147.334L123.291 146.869L133.937 153.012L133.127 153.483Z" fill="#C2C2C2"/>
<path d="M107.844 148.246L89.1893 159.011L70.5094 148.271L89.1893 137.48L107.838 148.246H107.844ZM109.239 148.246L89.1893 136.676L69.0898 148.271L89.1893 159.84L109.289 148.252L109.239 148.246Z" fill="#C2C2C2"/>
<path d="M86.3489 161.38L66.375 149.854L67.1852 149.383L87.1591 160.915L86.3489 161.38Z" fill="#C2C2C2"/>
<path d="M84.0285 162.718L64.0547 151.186L64.8649 150.721L84.8388 162.253L84.0285 162.718Z" fill="#C2C2C2"/>
<path d="M72.3457 158.698L61.6992 152.549L62.5095 152.078L73.1559 158.227L72.3457 158.698Z" fill="#C2C2C2"/>
<path d="M133.727 163.189L115.034 173.98L96.3859 163.208L115.072 152.423L133.727 163.189ZM135.121 163.189L115.072 151.619L94.9727 163.208L115.022 174.784L135.121 163.189Z" fill="#C2C2C2"/>
<path d="M112.218 176.322L92.25 164.789L93.0603 164.318L113.028 175.85L112.218 176.322Z" fill="#C2C2C2"/>
<path d="M109.901 177.659L89.9336 166.127L90.7439 165.656L110.711 177.188L109.901 177.659Z" fill="#C2C2C2"/>
<path d="M98.2285 173.634L87.582 167.484L88.3923 167.02L99.0388 173.169L98.2285 173.634Z" fill="#C2C2C2"/>
<path d="M169.1 87.9468L175.928 91.8914C176.085 91.9719 176.259 92.0138 176.436 92.0138C176.613 92.0138 176.788 91.9719 176.945 91.8914C177.228 91.7343 177.222 91.4705 176.945 91.3072L170.118 87.3627C169.96 87.2822 169.786 87.2402 169.609 87.2402C169.432 87.2402 169.258 87.2822 169.1 87.3627C169.039 87.3831 168.985 87.4223 168.948 87.4747C168.91 87.5271 168.889 87.5901 168.889 87.6548C168.889 87.7194 168.91 87.7824 168.948 87.8348C168.985 87.8873 169.039 87.9265 169.1 87.9468ZM175.23 92.2934L168.403 88.3551C168.245 88.2761 168.071 88.2349 167.894 88.2349C167.717 88.2349 167.543 88.2761 167.385 88.3551C167.325 88.3771 167.272 88.4172 167.235 88.4701C167.198 88.5229 167.178 88.5858 167.178 88.6503C167.178 88.7148 167.198 88.7777 167.235 88.8306C167.272 88.8834 167.325 88.9235 167.385 88.9455L174.213 92.8901C174.371 92.9691 174.545 93.0102 174.722 93.0102C174.898 93.0102 175.072 92.9691 175.23 92.8901C175.294 92.8708 175.349 92.832 175.389 92.7792C175.429 92.7264 175.451 92.6624 175.453 92.5962C175.454 92.5301 175.435 92.4652 175.397 92.4108C175.359 92.3564 175.305 92.3153 175.243 92.2934H175.23ZM173.516 93.2858L166.688 89.3412C166.531 89.2607 166.356 89.2188 166.179 89.2188C166.002 89.2188 165.828 89.2607 165.671 89.3412C165.388 89.4983 165.394 89.7621 165.671 89.9254L172.498 93.8699C172.656 93.9504 172.83 93.9924 173.007 93.9924C173.184 93.9924 173.358 93.9504 173.516 93.8699C173.798 93.6877 173.798 93.4491 173.516 93.2858Z" fill="#C2C2C2"/>
<path d="M98.4059 186.02L49.6206 157.868C46.4047 156.015 46.3921 153.007 49.5829 151.16L164.477 84.8193C167.667 82.979 172.881 82.9852 176.097 84.8193L224.894 112.99C228.11 114.874 228.123 117.858 224.932 119.698L110.026 186.064C106.835 187.905 101.622 187.905 98.4059 186.02ZM175.663 85.0831C172.705 83.3747 167.912 83.3684 164.985 85.0831L50.0352 151.43C47.1019 153.126 47.1145 155.896 50.0729 157.605L98.8707 185.775C101.823 187.484 106.622 187.49 109.549 185.775L224.467 119.441C227.401 117.745 227.388 114.981 224.43 113.273L175.663 85.0831Z" fill="#C2C2C2"/>
<path d="M215.772 116.375C215.772 116.589 215.477 116.758 215.144 116.752C214.811 116.746 214.484 116.582 214.484 116.375C214.484 116.168 214.78 115.992 215.144 115.998C215.508 116.004 215.766 116.168 215.772 116.375Z" fill="#C2C2C2"/>
<path d="M214.771 113.342H214.664V113.719H214.771C217.491 113.719 219.708 115.006 219.72 116.577H220.38C220.367 114.799 217.849 113.342 214.771 113.342Z" fill="#C2C2C2"/>
<path d="M214.775 114.855H214.668V115.239H214.812C216.069 115.239 217.111 115.835 217.118 116.57H217.746C217.739 115.628 216.408 114.862 214.775 114.855Z" fill="#C2C2C2"/>
<path d="M214.777 114.096H214.664V114.473H214.771C216.762 114.473 218.389 115.415 218.395 116.564H219.023C219.055 115.214 217.133 114.102 214.777 114.096Z" fill="#C2C2C2"/>
<path d="M202.08 109.385L182.383 98.0161L183.658 97.2812L203.355 108.65L202.08 109.385Z" fill="#C2C2C2"/>
<g opacity="0.2">
<path opacity="0.09" d="M151.579 54.5321L27.2516 126.093C24.111 127.895 22.3586 130.734 22.3712 133.875C22.3712 137.304 24.5381 140.514 28.3005 142.668L79.5102 172.24C79.5982 172.284 82.098 173.716 82.1923 173.747C85.5498 175.51 89.3139 176.353 93.1025 176.191C96.1798 176.125 99.196 175.319 101.896 173.841L225.539 102.689C228.68 100.887 230.432 98.0475 230.42 94.9069C230.42 91.4775 228.253 88.2678 224.49 86.1134L171.189 55.3361C169.931 54.6274 168.608 54.0405 167.238 53.5836C165.045 52.8769 162.759 52.5022 160.455 52.4719C157.366 52.3626 154.304 53.0734 151.579 54.5321Z" fill="#8E8E8E"/>
<path opacity="0.18" d="M151.685 54.7443L27.357 126.305C24.3609 128.038 22.6839 130.702 22.7153 133.71C22.7467 136.951 24.8006 139.991 28.4059 142.083L79.8606 171.786C80.0239 171.887 82.3731 173.212 82.5678 173.275C85.9615 174.976 89.7572 175.713 93.5408 175.404C96.3234 175.404 100.224 174.01 102.215 172.854L225.167 102.085C228.17 100.351 229.841 97.6567 229.809 94.6795C229.809 91.4384 227.724 88.3984 224.156 86.3068L171.169 55.7179C169.919 55.0141 168.612 54.4174 167.262 53.9341C165.095 53.2054 162.832 52.8032 160.548 52.7406C157.467 52.5994 154.405 53.2916 151.685 54.7443Z" fill="#8E8E8E"/>
<path opacity="0.27" d="M151.784 54.9582L27.4565 126.519C24.5861 128.177 23.0095 130.733 23.0598 133.547C23.1037 136.6 25.0634 139.489 28.5117 141.474L80.2051 171.322C80.4501 171.466 82.6547 172.697 82.9437 172.785C86.3777 174.425 90.2069 175.057 93.9858 174.607C96.4606 174.607 100.763 172.879 102.534 171.856L224.802 101.507C227.673 99.8491 229.249 97.2864 229.199 94.4725C229.155 91.4199 227.195 88.5369 223.747 86.5458L171.086 56.139C169.841 55.4458 168.548 54.8413 167.217 54.33C165.077 53.5833 162.837 53.1599 160.572 53.0738C157.526 52.8886 154.487 53.5402 151.784 54.9582Z" fill="#8E8E8E"/>
<path opacity="0.36" d="M151.885 55.1713L27.5569 126.732C24.8121 128.315 23.3297 130.739 23.3925 133.39C23.4554 136.254 25.3146 138.974 28.5996 140.87L80.5379 170.856C80.8708 171.045 82.9247 172.175 83.3079 172.295C86.7837 173.876 90.6477 174.4 94.4191 173.802C96.5798 173.802 101.291 171.755 102.842 170.856L224.425 100.872C227.164 99.2897 228.646 96.8714 228.59 94.2208C228.527 91.3566 226.661 88.6306 223.376 86.74L171.03 56.5154C169.795 55.8244 168.52 55.2098 167.211 54.6751C165.094 53.8992 162.873 53.442 160.622 53.3184C157.594 53.1142 154.569 53.7557 151.885 55.1713Z" fill="#8E8E8E"/>
<path opacity="0.45" d="M152.001 55.3724L27.6356 126.977C25.0227 128.491 23.6346 130.745 23.7099 133.258C23.7853 135.934 25.5566 138.49 28.6783 140.299L80.8616 170.448C81.7644 170.97 82.6954 171.442 83.6504 171.861C87.1786 173.371 91.0828 173.77 94.8433 173.005C96.7276 173.005 101.809 170.624 103.134 169.864L224.052 100.27C226.665 98.7622 228.059 96.501 227.977 93.9885C227.902 91.3191 226.131 88.7564 223.009 86.9537L170.983 56.9175C169.76 56.2248 168.502 55.5958 167.214 55.0332C165.124 54.2328 162.927 53.748 160.694 53.5948C157.687 53.3624 154.676 53.9782 152.001 55.3724Z" fill="#8E8E8E"/>
<path opacity="0.55" d="M152.081 55.5982L27.759 127.159C25.2465 128.597 23.9903 130.745 24.0657 133.069C24.1599 135.582 25.837 137.95 28.8016 139.664L81.2236 169.927C82.1336 170.448 83.0756 170.912 84.0438 171.315C87.6065 172.789 91.5439 173.099 95.2933 172.2C96.8384 172.2 102.359 169.493 103.459 168.853L223.679 99.6664C226.191 98.228 227.447 96.0799 227.366 93.7621C227.272 91.2497 225.601 88.8817 222.63 87.167L170.93 57.313C170.371 56.9926 167.827 55.6548 167.193 55.4286C165.127 54.6073 162.951 54.0951 160.736 53.9086C157.501 53.7013 154.386 54.2729 152.081 55.5982Z" fill="#8E8E8E"/>
<path opacity="0.64" d="M152.181 55.8117L27.8596 127.378C25.4979 128.735 24.2982 130.745 24.405 132.906C24.5118 135.198 26.0946 137.434 28.9023 139.055L81.5629 169.462C82.4777 169.987 83.4309 170.443 84.4145 170.825C88.0513 172.251 92.4355 172.489 95.7205 171.403C96.9767 171.403 102.881 168.369 103.767 167.86L223.302 99.0633C225.664 97.7003 226.863 95.6903 226.757 93.5296C226.65 91.237 225.067 89.001 222.259 87.3804L170.874 57.7148C170.428 57.4573 167.683 55.9875 167.18 55.7865C165.142 54.9406 162.989 54.4008 160.793 54.1849C157.583 53.9525 154.461 54.4989 152.181 55.8117Z" fill="#8E8E8E"/>
<path opacity="0.73" d="M152.281 56.0315L27.959 127.605C25.7292 128.892 24.6238 130.745 24.7431 132.755C24.8687 134.859 26.3511 136.932 29.0017 138.465L81.9073 169.01C82.8317 169.522 83.7958 169.959 84.7903 170.316C88.515 171.685 92.9558 171.817 96.1842 170.58C97.1138 170.58 103.439 167.219 104.105 166.811L222.943 98.4038C225.173 97.1161 226.278 95.2632 226.153 93.2533C226.033 91.1428 224.551 89.0764 221.894 87.5438L170.841 58.1106C170.508 57.9222 167.563 56.3142 167.186 56.1635C165.173 55.2877 163.041 54.7182 160.861 54.4738C157.651 54.21 154.51 54.7439 152.281 56.0315Z" fill="#8E8E8E"/>
<path opacity="0.82" d="M152.382 56.2457L28.0537 127.806C25.9559 129.018 24.9446 130.752 25.0828 132.586C25.221 134.42 26.6091 136.405 29.1027 137.85L82.2784 168.533C83.2039 169.059 84.1751 169.501 85.1803 169.852C88.9803 171.171 93.5153 171.196 96.6432 169.802C97.2714 169.802 103.992 166.115 104.432 165.863L222.56 97.8517C224.658 96.6394 225.669 94.9058 225.531 93.0718C225.393 91.2377 224.005 89.2466 221.511 87.8082L170.766 58.5132C170.547 58.3813 167.412 56.6289 167.161 56.5347C165.167 55.635 163.05 55.038 160.88 54.7634C157.746 54.4682 154.611 54.9518 152.382 56.2457Z" fill="#8E8E8E"/>
<path opacity="0.91" d="M152.482 56.4589L28.1546 128.019C26.1823 129.156 25.2716 130.758 25.4223 132.416C25.5731 134.074 26.867 135.89 29.191 137.234L82.5802 168.061C83.5117 168.591 84.4945 169.024 85.5135 169.355C89.3952 170.611 94.0055 170.542 97.0393 168.997C97.3533 168.997 104.489 164.984 104.708 164.858L222.165 97.2421C224.137 96.0989 225.054 94.5035 224.903 92.8453C224.753 91.1871 223.459 89.3781 221.135 88.0277L170.716 58.9086C170.603 58.8458 167.274 56.9551 167.149 56.9049C165.187 55.974 163.098 55.339 160.949 55.0206C157.828 54.7442 154.687 55.1839 152.482 56.4589Z" fill="#8E8E8E"/>
<path d="M97.4873 168.392L221.815 96.8256C225.546 94.6712 225.075 90.9088 220.766 88.4215L167.138 57.4431C162.83 54.9307 156.316 54.6857 152.585 56.815L28.2634 128.419C24.5325 130.574 25.0036 134.336 29.3124 136.824L82.9089 167.783C87.2366 170.277 93.7564 170.547 97.4873 168.392Z" fill="#8E8E8E"/>
</g>
<path d="M80.2117 155.092L30.0761 126.142C24.4231 122.876 25.1265 117.173 31.6589 113.404L149.549 45.3236C156.081 41.555 165.961 41.1467 171.614 44.4129L221.75 73.3561C227.403 76.6223 226.699 82.3255 220.167 86.0942L102.277 154.175C95.7448 157.944 85.8647 158.383 80.2117 155.092Z" fill="url(#paint0_linear_2664_83229)"/>
<path d="M80.2124 154.231L30.0767 125.281C27.5643 123.824 26.3081 121.877 26.2578 119.836C26.2578 119.654 26.2578 115.728 26.2578 115.546C26.4651 113.178 28.2866 114.484 31.6407 112.543L149.549 44.4815C156.082 40.7128 165.962 40.2983 171.615 43.5645L221.75 72.5077C224.263 73.9712 225.519 71.4023 225.569 73.4436C225.569 73.6195 225.569 78.3115 225.569 78.4685C225.368 80.8365 223.547 83.2924 220.187 85.2332L102.278 153.314C95.7455 157.083 85.8654 157.497 80.2124 154.231Z" fill="url(#paint1_linear_2664_83229)"/>
<path d="M80.2117 149.936L30.0761 120.987C24.4231 117.72 25.1265 112.017 31.6589 108.248L149.549 40.1866C156.081 36.4179 165.961 36.0034 171.614 39.2695L221.75 68.2191C227.403 71.479 226.699 77.1822 220.167 80.9571L102.277 149.019C95.7448 152.788 85.8647 153.202 80.2117 149.936Z" fill="url(#paint2_linear_2664_83229)"/>
<path d="M30.0775 120.427L80.2131 149.371C85.8661 152.637 95.7463 152.228 102.279 148.454L220.168 80.3916C223.604 78.4068 225.432 75.8881 225.564 73.4824C225.702 76.064 223.874 78.8276 220.168 80.9695L102.279 149.019C95.7463 152.787 85.8661 153.202 80.2131 149.936L30.0775 120.986C27.3955 119.441 26.1518 117.35 26.2649 115.17C26.3779 117.142 27.6342 119.014 30.0775 120.427Z" fill="white"/>
<path d="M32.9876 109.096L151.022 40.9274C156.744 37.6236 165.406 37.2656 170.368 40.1297L220.233 68.9223C225.195 71.7864 224.573 76.7862 218.845 80.0901L100.811 148.252C95.0887 151.563 86.4271 151.921 81.4713 149.056L31.5995 120.264C26.6437 117.4 27.2655 112.4 32.9876 109.096Z" fill="url(#paint3_linear_2664_83229)"/>
<path d="M35.2734 110.083L152.73 42.2468C157.522 39.4768 164.771 39.1753 168.922 41.5747L217.726 69.7517C221.878 72.1511 221.357 76.3343 216.564 79.0979L99.1081 146.934C94.3156 149.704 87.0672 149.999 82.9217 147.606L34.1114 119.441C29.9596 117.029 30.4809 112.846 35.2734 110.083Z" fill="url(#paint4_linear_2664_83229)"/>
<path d="M168.49 42.4971C164.577 40.2359 158.258 40.2296 154.37 42.4971L35.6574 111.055C31.7694 113.298 31.7882 116.947 35.7014 119.221L83.3748 146.744C87.288 148.999 93.6067 149.012 97.4947 146.744L216.207 78.1737C220.095 75.9313 220.077 72.282 216.163 70.0083L168.49 42.4971Z" fill="url(#paint5_linear_2664_83229)"/>
<path d="M90.4433 147.441C92.7168 147.492 94.9654 146.96 96.9756 145.896L215.72 77.3571C217.284 76.4589 218.138 75.3157 218.138 74.1412C218.138 72.9666 217.265 71.7983 215.676 70.8813L168.002 43.3512C165.966 42.2714 163.687 41.7308 161.382 41.781C159.108 41.7278 156.859 42.2598 154.85 43.3261L36.137 111.884C34.5793 112.782 33.7188 113.926 33.7188 115.1C33.7188 116.275 34.5918 117.443 36.1809 118.36L83.8544 145.89C85.8834 146.958 88.1509 147.492 90.4433 147.441Z" fill="url(#paint6_linear_2664_83229)"/>
<path d="M197.901 97.5769L203.365 94.4363C203.745 94.169 204.057 93.8159 204.276 93.4056C204.494 92.9953 204.612 92.5393 204.622 92.0746C204.622 91.1702 204.069 90.7493 203.365 91.145L197.901 94.2856C197.521 94.5536 197.21 94.9069 196.992 95.3171C196.774 95.7272 196.655 96.1828 196.645 96.6473C196.67 97.5518 197.222 97.9663 197.901 97.5769Z" fill="url(#paint7_linear_2664_83229)"/>
<path d="M197.901 97.5769L203.365 94.4363C203.745 94.169 204.057 93.8159 204.276 93.4056C204.494 92.9953 204.612 92.5393 204.622 92.0746C204.622 91.1702 204.069 90.7493 203.365 91.145L197.901 94.2856C197.521 94.5536 197.21 94.9069 196.992 95.3171C196.774 95.7272 196.655 96.1828 196.645 96.6473C196.67 97.5518 197.222 97.9663 197.901 97.5769Z" fill="#444444"/>
<path d="M197.417 97.3993C197.535 97.3923 197.65 97.3556 197.75 97.2925L203.214 94.152C203.541 93.9094 203.807 93.5954 203.993 93.2339C204.18 92.8725 204.28 92.4732 204.288 92.0666C204.288 91.7212 204.175 91.3066 203.861 91.3066C203.745 91.3139 203.633 91.3506 203.535 91.4134L198.07 94.554C197.743 94.7942 197.476 95.1069 197.289 95.4675C197.103 95.8282 197.003 96.2271 196.996 96.633C196.996 96.991 197.109 97.3993 197.417 97.3993Z" fill="#9E9E9E"/>
<path d="M188.147 103.205L193.611 100.064C193.992 99.7969 194.303 99.4438 194.522 99.0335C194.74 98.6231 194.858 98.1672 194.868 97.7025C194.868 96.7918 194.315 96.3772 193.611 96.7729L188.147 99.9135C187.767 100.181 187.455 100.534 187.237 100.944C187.018 101.355 186.9 101.81 186.891 102.275C186.909 103.18 187.462 103.6 188.147 103.205Z" fill="url(#paint8_linear_2664_83229)"/>
<path d="M188.147 103.205L193.611 100.064C193.992 99.7969 194.303 99.4438 194.522 99.0335C194.74 98.6231 194.858 98.1672 194.868 97.7025C194.868 96.7918 194.315 96.3772 193.611 96.7729L188.147 99.9135C187.767 100.181 187.455 100.534 187.237 100.944C187.018 101.355 186.9 101.81 186.891 102.275C186.909 103.18 187.462 103.6 188.147 103.205Z" fill="#444444"/>
<path d="M187.655 103.034C187.771 103.027 187.884 102.99 187.982 102.927L193.446 99.7867C193.773 99.5445 194.04 99.2306 194.226 98.869C194.412 98.5075 194.513 98.108 194.52 97.7014C194.52 97.3497 194.414 96.9414 194.1 96.9414C193.983 96.9487 193.871 96.9854 193.773 97.0482L188.308 100.189C187.982 100.431 187.715 100.745 187.529 101.106C187.343 101.468 187.242 101.867 187.234 102.274C187.234 102.62 187.341 103.034 187.655 103.034Z" fill="#9E9E9E"/>
<path d="M62.6524 123.989L47.3768 115.195C45.8694 114.322 46.0578 112.796 47.8039 111.791L62.0997 103.538C63.8396 102.533 66.4965 102.426 67.9851 103.293L83.2544 112.086C84.7682 112.959 84.5734 114.479 82.8336 115.484L68.5378 123.738C66.798 124.755 64.1599 124.862 62.6524 123.989Z" fill="url(#paint9_linear_2664_83229)"/>
<path d="M82.8341 114.956L68.5383 123.209C66.7985 124.214 64.1416 124.321 62.653 123.454L47.3773 114.661C47.1385 114.544 46.9271 114.377 46.7572 114.173C46.5872 113.968 46.4625 113.73 46.3912 113.474C46.3477 113.829 46.4202 114.19 46.5979 114.501C46.7756 114.812 47.0489 115.057 47.3773 115.201L62.653 123.994C64.1604 124.867 66.7985 124.761 68.5383 123.749L82.8341 115.496C83.927 114.868 84.4044 114.033 84.2411 113.285C84.1414 113.649 83.9639 113.987 83.721 114.275C83.4781 114.563 83.1755 114.796 82.8341 114.956Z" fill="#E9E6E6" style="mix-blend-mode:color-dodge"/>
<path d="M50.5642 136.763L59.5399 141.939C59.5399 140.299 58.5412 138.396 57.3101 137.686L52.7626 135.08C51.5064 134.37 50.5391 135.124 50.5391 136.763H50.5642Z" fill="black"/>
<path d="M116.444 120.07L108.128 115.271C107.192 114.731 107.192 113.858 108.128 113.324L114.534 109.624C115.025 109.38 115.563 109.245 116.111 109.23C116.659 109.215 117.203 109.319 117.706 109.536L120.018 108.198C121.038 107.683 122.166 107.414 123.309 107.414C124.452 107.414 125.58 107.683 126.6 108.198L128.679 109.398C130.495 110.453 130.507 112.155 128.679 113.198L126.368 114.536C127.128 115.076 127.071 115.868 126.211 116.364L119.811 120.07C119.289 120.334 118.712 120.472 118.127 120.472C117.542 120.472 116.965 120.334 116.444 120.07ZM117.323 109.957C116.976 109.784 116.593 109.695 116.205 109.695C115.817 109.695 115.435 109.784 115.087 109.957L108.662 113.638C108.526 113.683 108.409 113.769 108.325 113.885C108.242 114 108.197 114.139 108.197 114.282C108.197 114.424 108.242 114.563 108.325 114.679C108.409 114.794 108.526 114.88 108.662 114.925L116.984 119.724C117.329 119.901 117.711 119.993 118.099 119.993C118.487 119.993 118.869 119.901 119.214 119.724L125.621 116.025C126.249 115.673 126.249 115.095 125.621 114.768L125.231 114.542L128.102 112.89C129.596 112.023 129.59 110.617 128.102 109.75L126.023 108.55C125.178 108.123 124.246 107.9 123.3 107.9C122.354 107.9 121.421 108.123 120.577 108.55L117.706 110.202L117.323 109.957ZM124.069 113.858L118.887 110.868L121.236 109.511C121.854 109.197 122.537 109.033 123.231 109.033C123.924 109.033 124.607 109.197 125.225 109.511L126.406 110.189C127.511 110.818 127.517 111.86 126.406 112.495L124.069 113.858ZM120.024 110.868L124.069 113.204L125.853 112.174C126.638 111.722 126.632 110.981 125.853 110.522L124.672 109.844C124.23 109.619 123.742 109.502 123.246 109.502C122.751 109.502 122.262 109.619 121.82 109.844L120.024 110.868Z" fill="#A8F800"/>
<path d="M115.409 116.771L113.801 115.841L115.428 114.905C115.271 114.497 115.478 114.064 115.993 113.769C116.457 113.533 116.97 113.41 117.491 113.41C118.012 113.41 118.525 113.533 118.989 113.769C119.824 114.246 119.824 115.025 118.989 115.502C118.383 115.81 117.696 115.924 117.023 115.829L115.409 116.771Z" fill="#A8F800"/>
<path d="M72.3993 108.713C69.5027 107.51 66.2519 107.483 63.3357 108.637C61.3321 109.517 60.2454 110.898 60.4213 112.343C60.4333 112.706 60.3362 113.065 60.1426 113.373C59.9489 113.681 59.6675 113.924 59.3347 114.07L58.248 114.698C57.6702 115.031 57.576 115.534 57.9403 115.955L56.8788 116.583C56.7406 116.632 56.6209 116.722 56.5363 116.842C56.4517 116.962 56.4062 117.105 56.4062 117.252C56.4062 117.398 56.4517 117.541 56.5363 117.661C56.6209 117.781 56.7406 117.872 56.8788 117.921L57.7393 118.417C58.0994 118.599 58.4975 118.695 58.9013 118.695C59.3051 118.695 59.7032 118.599 60.0633 118.417L61.1248 117.789C61.8347 118.008 62.602 117.945 63.2666 117.613L64.347 116.985C65.2904 116.501 66.3481 116.284 67.4059 116.357C69.369 116.455 71.3222 116.021 73.0589 115.1C76.1806 113.329 75.9544 110.333 72.3993 108.713ZM67.4561 115.879C66.1847 115.8 64.9155 116.065 63.7817 116.646L62.6951 117.274C62.4729 117.385 62.2277 117.443 61.979 117.443C61.7304 117.443 61.4852 117.385 61.263 117.274L60.3962 116.771L65.4211 113.882H68.392C68.4606 113.887 68.5295 113.876 68.5935 113.851C68.6576 113.826 68.7154 113.787 68.7626 113.737C68.8254 113.649 68.7626 113.549 68.6747 113.486L65.3896 111.602C65.254 111.532 65.0978 111.514 64.95 111.552C64.7992 111.589 64.705 111.671 64.705 111.765V113.649L59.8309 116.457L58.8322 115.886C58.4365 115.653 58.4302 115.257 58.8322 115.056L59.9188 114.428C60.8547 113.888 61.3321 113.128 61.2378 112.337C61.0808 111.049 62.0544 109.824 63.8382 109.033C66.4348 108.003 69.3309 108.028 71.9094 109.102C72.1119 109.191 72.309 109.292 72.4998 109.403C75.0876 110.898 75.1002 113.323 72.4998 114.805C70.946 115.611 69.2034 115.982 67.4561 115.879Z" fill="white"/>
<path d="M100.985 125.137L99.9235 124.509C99.3899 124.24 98.8004 124.1 98.2025 124.1C97.6047 124.1 97.0152 124.24 96.4815 124.509L89.2897 128.661C87.6278 128.462 85.9444 128.768 84.4595 129.541C82.3177 130.797 82.3239 132.8 84.4595 134.044C85.6688 134.656 87.0049 134.974 88.3601 134.974C89.7152 134.974 91.0513 134.656 92.2606 134.044C93.5168 133.309 94.0884 132.279 93.7806 131.255L100.972 127.103C101.94 126.576 101.933 125.684 100.985 125.137ZM100.432 126.796L92.9578 131.123L93.0018 131.243C93.341 132.153 92.8699 133.089 91.7456 133.755C90.7094 134.278 89.5648 134.551 88.404 134.551C87.2432 134.551 86.0986 134.278 85.0625 133.755C83.2096 132.687 83.1782 130.954 85.0625 129.892C86.3921 129.206 87.9027 128.951 89.3839 129.164H89.5974L97.0845 124.842C97.4446 124.66 97.8427 124.564 98.2465 124.564C98.6503 124.564 99.0484 124.66 99.4085 124.842L100.47 125.47C101.067 125.828 101.073 126.431 100.432 126.796Z" fill="#A8F800"/>
<path d="M97.1594 127.341L96.0979 126.713C95.967 126.645 95.8215 126.609 95.6739 126.609C95.5263 126.609 95.3808 126.645 95.2499 126.713L89.8922 129.804L89.1322 129.709C87.9764 129.54 86.7966 129.738 85.7592 130.275C84.3271 131.104 84.3334 132.454 85.7592 133.283C86.5662 133.692 87.4581 133.905 88.3627 133.905C89.2674 133.905 90.1593 133.692 90.9662 133.283C91.8456 132.775 92.2224 132.027 91.9524 131.336L91.7891 130.896L97.1405 127.8C97.3918 127.699 97.3918 127.48 97.1594 127.341Z" fill="#A8F800"/>
<path d="M101.751 94.9453L100.916 94.4616L101.506 94.1161C101.595 94.0853 101.672 94.0276 101.726 93.951C101.781 93.8745 101.81 93.7829 101.81 93.689C101.81 93.5951 101.781 93.5036 101.726 93.427C101.672 93.3505 101.595 93.2928 101.506 93.2619L100.25 92.5459C100.021 92.4314 99.7681 92.3718 99.5119 92.3718C99.2558 92.3718 99.0031 92.4314 98.7739 92.5459L98.1772 92.8913L97.0089 92.213C96.5332 92.0009 96.0151 91.9008 95.4946 91.9204C94.9741 91.94 94.465 92.0788 94.0066 92.326L84.3463 97.9037C84.1189 98.0077 83.9231 98.17 83.7786 98.374C83.6341 98.5781 83.5461 98.8167 83.5234 99.0656C83.5312 99.2669 83.5938 99.4622 83.7045 99.6305C83.8152 99.7987 83.9698 99.9336 84.1515 100.02L84.9869 100.504L84.3588 100.875C83.9505 101.107 83.9568 101.503 84.3588 101.729L85.615 102.445C85.8431 102.559 86.0948 102.619 86.3499 102.619C86.6051 102.619 86.8567 102.559 87.0848 102.445L87.7129 102.074L88.8812 102.753C89.2892 102.967 89.7456 103.073 90.2065 103.06C90.7923 103.066 91.3698 102.921 91.8836 102.64L101.544 97.062C101.771 96.9579 101.967 96.7957 102.112 96.5916C102.256 96.3876 102.344 96.149 102.367 95.9C102.359 95.7002 102.298 95.5061 102.19 95.3381C102.082 95.17 101.93 95.0343 101.751 94.9453ZM101.23 96.4904L91.5695 102.068C91.2103 102.259 90.8132 102.367 90.407 102.386C90.0007 102.404 89.5954 102.332 89.2204 102.175L84.497 99.4488C84.3839 99.386 84.1955 99.2478 84.1955 99.0656C84.1955 98.8835 84.3777 98.6511 84.6854 98.4752L94.3457 92.8976C94.7604 92.6739 95.2251 92.5593 95.6962 92.5647C96.0423 92.5521 96.386 92.6277 96.6949 92.7846L101.418 95.5168C101.531 95.5796 101.72 95.7178 101.72 95.9C101.72 96.0821 101.512 96.2768 101.205 96.459L101.23 96.4904Z" fill="#A8F800"/>
<path d="M89.9918 96.245L92.9187 97.9346L87.5547 99.3856L96.1535 98.2424L93.5092 96.7161L98.4461 95.5918L89.9918 96.245Z" fill="#A8F800"/>
<path d="M92.6246 109.122C91.6812 109.148 90.7468 108.932 89.9111 108.494L74.6355 99.7C74.3004 99.5419 74.0144 99.2962 73.8076 98.9888C73.6008 98.6814 73.481 98.3238 73.4609 97.9538C73.4609 97.1436 74.0451 96.3459 75.0626 95.7555L89.3584 87.5021C90.4277 86.9205 91.6272 86.6201 92.8444 86.629C93.7877 86.6031 94.7219 86.8193 95.5578 87.2572L110.827 96.0507C111.163 96.2098 111.449 96.4567 111.656 96.7651C111.863 97.0736 111.982 97.4323 112.002 97.8031C112.002 98.6071 111.424 99.4111 110.406 99.9952L96.098 108.249C95.0332 108.83 93.8378 109.131 92.6246 109.122ZM92.8444 87.232C91.737 87.2216 90.6452 87.494 89.6724 88.0234L75.3704 96.2768C74.5539 96.7479 74.0828 97.3509 74.0828 97.9287C74.1072 98.1877 74.1997 98.4357 74.3508 98.6475C74.5019 98.8593 74.7063 99.0274 74.9433 99.1347L90.2189 107.928C90.9591 108.312 91.785 108.5 92.6183 108.475C93.7149 108.478 94.7949 108.206 95.7588 107.683L110.055 99.4299C110.871 98.9588 111.311 98.3621 111.311 97.7843C111.29 97.5241 111.199 97.2744 111.048 97.062C110.896 96.8495 110.69 96.6823 110.45 96.5783L95.181 87.7848C94.4598 87.4101 93.657 87.2201 92.8444 87.232Z" fill="#A8F800"/>
<path d="M119.816 124.717C118.873 124.744 117.938 124.528 117.103 124.089L101.827 115.296C101.492 115.138 101.206 114.892 100.999 114.585C100.792 114.277 100.672 113.92 100.652 113.55C100.652 112.739 101.236 111.942 102.254 111.358L116.55 103.104C117.617 102.518 118.818 102.215 120.036 102.225C120.979 102.198 121.914 102.414 122.749 102.853L138.019 111.647C138.355 111.805 138.642 112.052 138.85 112.36C139.058 112.669 139.178 113.028 139.199 113.399C139.199 114.209 138.615 115.007 137.598 115.591L123.302 123.838C122.234 124.424 121.034 124.726 119.816 124.717ZM120.036 102.822C118.928 102.811 117.837 103.084 116.864 103.613L102.568 111.866C101.752 112.337 101.28 112.94 101.28 113.518C101.304 113.778 101.396 114.026 101.547 114.238C101.698 114.45 101.903 114.618 102.141 114.724L117.417 123.518C118.157 123.901 118.983 124.089 119.816 124.064C120.923 124.074 122.015 123.802 122.988 123.273L137.284 115.045C138.1 114.574 138.571 113.971 138.571 113.393C138.548 113.133 138.455 112.884 138.302 112.672C138.15 112.459 137.943 112.292 137.704 112.187L122.435 103.393C121.697 103.002 120.871 102.805 120.036 102.822Z" fill="#A8F800"/>
<path d="M92.398 140.482C91.4549 140.506 90.5213 140.29 89.6845 139.854L74.4152 131.06C74.0794 130.903 73.7924 130.657 73.5846 130.35C73.3767 130.043 73.2557 129.685 73.2344 129.314C73.2344 128.504 73.8185 127.706 74.836 127.116L89.1318 118.812C90.2011 118.231 91.4006 117.93 92.6178 117.939C93.5609 117.916 94.4945 118.132 95.3312 118.567L110.601 127.361C110.936 127.519 111.223 127.765 111.43 128.072C111.638 128.379 111.759 128.737 111.781 129.107C111.781 129.917 111.197 130.721 110.18 131.305L95.884 139.559C94.8194 140.158 93.6196 140.476 92.398 140.482ZM92.6178 118.592C91.521 118.587 90.4407 118.86 89.4773 119.384L75.1815 127.637C74.365 128.108 73.9253 128.711 73.9253 129.289C73.9475 129.549 74.0399 129.798 74.1925 130.009C74.3452 130.22 74.5524 130.386 74.7921 130.489L90.0614 139.282C90.8019 139.665 91.6276 139.853 92.4608 139.829C93.5682 139.839 94.6598 139.566 95.6327 139.037L109.928 130.784C110.745 130.313 111.216 129.71 111.216 129.132C111.191 128.873 111.098 128.626 110.946 128.415C110.793 128.204 110.587 128.037 110.349 127.932L95.08 119.139C94.3208 118.746 93.4721 118.557 92.6178 118.592Z" fill="#A8F800"/>
<path d="M66.9469 111.816C66.8636 111.816 66.7837 111.783 66.7248 111.724C66.6659 111.665 66.6328 111.585 66.6328 111.502V111.426C66.6344 111.344 66.668 111.265 66.7266 111.206C66.7851 111.148 66.8641 111.114 66.9469 111.112C67.0302 111.112 67.11 111.145 67.1689 111.204C67.2278 111.263 67.2609 111.343 67.2609 111.426V111.502C67.2609 111.585 67.2278 111.665 67.1689 111.724C67.11 111.783 67.0302 111.816 66.9469 111.816ZM66.9469 110.484C66.8636 110.484 66.7837 110.451 66.7248 110.392C66.6659 110.333 66.6328 110.253 66.6328 110.17V108.914C66.6344 108.831 66.668 108.752 66.7266 108.694C66.7851 108.635 66.8641 108.601 66.9469 108.6C67.0302 108.6 67.11 108.633 67.1689 108.692C67.2278 108.751 67.2609 108.831 67.2609 108.914V110.17C67.2609 110.253 67.2278 110.333 67.1689 110.392C67.11 110.451 67.0302 110.484 66.9469 110.484ZM66.9469 107.972C66.8636 107.972 66.7837 107.939 66.7248 107.88C66.6659 107.821 66.6328 107.741 66.6328 107.658V106.402C66.6344 106.319 66.668 106.24 66.7266 106.181C66.7851 106.123 66.8641 106.089 66.9469 106.087C67.0302 106.087 67.11 106.121 67.1689 106.179C67.2278 106.238 67.2609 106.318 67.2609 106.402V107.658C67.2609 107.741 67.2278 107.821 67.1689 107.88C67.11 107.939 67.0302 107.972 66.9469 107.972ZM66.9469 105.459C66.8636 105.459 66.7837 105.426 66.7248 105.367C66.6659 105.308 66.6328 105.229 66.6328 105.145V103.889C66.6344 103.806 66.668 103.727 66.7266 103.669C66.7851 103.61 66.8641 103.577 66.9469 103.575C67.0302 103.575 67.11 103.608 67.1689 103.667C67.2278 103.726 67.2609 103.806 67.2609 103.889V105.145C67.2609 105.229 67.2278 105.308 67.1689 105.367C67.11 105.426 67.0302 105.459 66.9469 105.459ZM66.9469 102.947C66.8636 102.947 66.7837 102.914 66.7248 102.855C66.6659 102.796 66.6328 102.716 66.6328 102.633V101.377C66.6344 101.294 66.668 101.215 66.7266 101.156C66.7851 101.098 66.8641 101.064 66.9469 101.063C67.0302 101.063 67.11 101.096 67.1689 101.155C67.2278 101.213 67.2609 101.293 67.2609 101.377V102.633C67.2609 102.716 67.2278 102.796 67.1689 102.855C67.11 102.914 67.0302 102.947 66.9469 102.947ZM66.9469 100.434C66.8636 100.434 66.7837 100.401 66.7248 100.342C66.6659 100.284 66.6328 100.204 66.6328 100.12V98.8642C66.6344 98.7814 66.668 98.7025 66.7266 98.6439C66.7851 98.5854 66.8641 98.5518 66.9469 98.5501C67.0302 98.5501 67.11 98.5832 67.1689 98.6421C67.2278 98.701 67.2609 98.7809 67.2609 98.8642V100.12C67.2609 100.204 67.2278 100.284 67.1689 100.342C67.11 100.401 67.0302 100.434 66.9469 100.434ZM66.9469 97.922C66.8636 97.922 66.7837 97.8889 66.7248 97.83C66.6659 97.7711 66.6328 97.6913 66.6328 97.608V96.3518C66.6344 96.269 66.668 96.19 66.7266 96.1315C66.7851 96.0729 66.8641 96.0393 66.9469 96.0377C67.0302 96.0377 67.11 96.0708 67.1689 96.1297C67.2278 96.1886 67.2609 96.2685 67.2609 96.3518V97.608C67.2609 97.6913 67.2278 97.7711 67.1689 97.83C67.11 97.8889 67.0302 97.922 66.9469 97.922ZM66.9469 95.4096C66.8636 95.4096 66.7837 95.3765 66.7248 95.3176C66.6659 95.2587 66.6328 95.1788 66.6328 95.0955V93.8393C66.6344 93.7565 66.668 93.6776 66.7266 93.619C66.7851 93.5605 66.8641 93.5269 66.9469 93.5253C67.0302 93.5253 67.11 93.5584 67.1689 93.6173C67.2278 93.6761 67.2609 93.756 67.2609 93.8393V95.0955C67.2609 95.1788 67.2278 95.2587 67.1689 95.3176C67.11 95.3765 67.0302 95.4096 66.9469 95.4096ZM66.9469 92.8972C66.8636 92.8972 66.7837 92.8641 66.7248 92.8052C66.6659 92.7463 66.6328 92.6664 66.6328 92.5831V91.3269C66.6344 91.2441 66.668 91.1651 66.7266 91.1066C66.7851 91.048 66.8641 91.0144 66.9469 91.0128C67.0302 91.0128 67.11 91.0459 67.1689 91.1048C67.2278 91.1637 67.2609 91.2436 67.2609 91.3269V92.5831C67.2609 92.6664 67.2278 92.7463 67.1689 92.8052C67.11 92.8641 67.0302 92.8972 66.9469 92.8972ZM66.9469 90.3847C66.8636 90.3847 66.7837 90.3516 66.7248 90.2927C66.6659 90.2338 66.6328 90.154 66.6328 90.0707V88.8145C66.6344 88.7317 66.668 88.6527 66.7266 88.5942C66.7851 88.5356 66.8641 88.502 66.9469 88.5004C67.0302 88.5004 67.11 88.5335 67.1689 88.5924C67.2278 88.6513 67.2609 88.7312 67.2609 88.8145V90.0707C67.2609 90.154 67.2278 90.2338 67.1689 90.2927C67.11 90.3516 67.0302 90.3847 66.9469 90.3847ZM66.9469 87.8723C66.8636 87.8723 66.7837 87.8392 66.7248 87.7803C66.6659 87.7214 66.6328 87.6415 66.6328 87.5582V86.302C66.6344 86.2192 66.668 86.1403 66.7266 86.0817C66.7851 86.0232 66.8641 85.9896 66.9469 85.988C67.0302 85.988 67.11 86.021 67.1689 86.0799C67.2278 86.1388 67.2609 86.2187 67.2609 86.302V87.5582C67.2609 87.6415 67.2278 87.7214 67.1689 87.7803C67.11 87.8392 67.0302 87.8723 66.9469 87.8723ZM66.9469 85.3599C66.8636 85.3599 66.7837 85.3268 66.7248 85.2679C66.6659 85.209 66.6328 85.1291 66.6328 85.0458V83.7896C66.6344 83.7068 66.668 83.6278 66.7266 83.5693C66.7851 83.5107 66.8641 83.4771 66.9469 83.4755C67.0302 83.4755 67.11 83.5086 67.1689 83.5675C67.2278 83.6264 67.2609 83.7063 67.2609 83.7896V85.0458C67.2609 85.1291 67.2278 85.209 67.1689 85.2679C67.11 85.3268 67.0302 85.3599 66.9469 85.3599ZM66.9469 82.8474C66.8636 82.8474 66.7837 82.8143 66.7248 82.7554C66.6659 82.6965 66.6328 82.6167 66.6328 82.5334V81.2771C66.6344 81.1944 66.668 81.1154 66.7266 81.0569C66.7851 80.9983 66.8641 80.9647 66.9469 80.9631C67.0302 80.9631 67.11 80.9962 67.1689 81.0551C67.2278 81.114 67.2609 81.1939 67.2609 81.2771V82.5334C67.2609 82.6167 67.2278 82.6965 67.1689 82.7554C67.11 82.8143 67.0302 82.8474 66.9469 82.8474ZM66.9469 80.335C66.8636 80.335 66.7837 80.3019 66.7248 80.243C66.6659 80.1841 66.6328 80.1042 66.6328 80.0209V78.7647C66.6344 78.6819 66.668 78.603 66.7266 78.5444C66.7851 78.4859 66.8641 78.4523 66.9469 78.4507C67.0302 78.4507 67.11 78.4837 67.1689 78.5426C67.2278 78.6015 67.2609 78.6814 67.2609 78.7647V80.0209C67.2609 80.1042 67.2278 80.1841 67.1689 80.243C67.11 80.3019 67.0302 80.335 66.9469 80.335ZM66.9469 77.8225C66.8636 77.8225 66.7837 77.7895 66.7248 77.7306C66.6659 77.6717 66.6328 77.5918 66.6328 77.5085V76.2523C66.6344 76.1695 66.668 76.0905 66.7266 76.032C66.7851 75.9734 66.8641 75.9398 66.9469 75.9382C67.0302 75.9382 67.11 75.9713 67.1689 76.0302C67.2278 76.0891 67.2609 76.169 67.2609 76.2523V77.5085C67.2609 77.5918 67.2278 77.6717 67.1689 77.7306C67.11 77.7895 67.0302 77.8225 66.9469 77.8225ZM66.9469 75.3101C66.8636 75.3101 66.7837 75.277 66.7248 75.2181C66.6659 75.1592 66.6328 75.0793 66.6328 74.9961V73.7398C66.6344 73.657 66.668 73.5781 66.7266 73.5195C66.7851 73.461 66.8641 73.4274 66.9469 73.4258C67.0302 73.4258 67.11 73.4589 67.1689 73.5178C67.2278 73.5767 67.2609 73.6565 67.2609 73.7398V74.9961C67.2609 75.0793 67.2278 75.1592 67.1689 75.2181C67.11 75.277 67.0302 75.3101 66.9469 75.3101Z" fill="#BFD393"/>
<g style="mix-blend-mode:multiply">
<path d="M104.773 77.948L116.777 84.8195L116.865 88.7138L132.806 97.9847L155.707 107.08L199.492 96.6405L195.648 94.8504L211.175 71.6293L163.495 42.9121L104.773 77.948Z" fill="url(#paint10_linear_2664_83229)"/>
</g>
<path d="M131.406 22.127L177.754 49.0917L204.399 52.898L158.019 26.4672L131.406 22.127Z" fill="url(#paint11_linear_2664_83229)"/>
<path d="M177.734 49.0918V94.5795L182.527 91.8723L182.533 90.8736L199.561 80.7925L200.598 81.1756L204.398 78.927V52.8981L177.734 49.0918Z" fill="url(#paint12_linear_2664_83229)"/>
<path d="M177.754 49.0917V94.5793L131.406 67.5958V22.127L177.754 49.0917Z" fill="url(#paint13_linear_2664_83229)"/>
<path d="M181.434 68.5388L201.715 56.3535V80.5169L200.597 81.1764L199.561 80.7932L182.533 90.8744L182.526 91.8731L181.434 92.52V68.5388Z" fill="#6A6A6A"/>
<path d="M199.563 80.7922V58.9277L182.535 69.1596V90.8734L199.563 80.7922Z" fill="url(#paint14_linear_2664_83229)"/>
<g style="mix-blend-mode:multiply">
<path d="M199.563 60.5922V58.9277L182.535 69.1596V70.6734L199.563 60.5922Z" fill="#E6E7E8"/>
</g>
<g style="mix-blend-mode:multiply">
<path d="M199.563 60.913V60.0273L182.535 70.2592V70.9941L199.563 60.913Z" fill="#E6E7E8"/>
</g>
<g style="mix-blend-mode:multiply">
<path d="M199.563 62.6337V61.748L182.535 71.9799V72.7148L199.563 62.6337Z" fill="#E6E7E8"/>
</g>
<g style="mix-blend-mode:multiply">
<path d="M199.563 64.3622V63.4766L182.535 73.7085V74.4434L199.563 64.3622Z" fill="#E6E7E8"/>
</g>
<g style="mix-blend-mode:multiply">
<path d="M199.563 66.0829V65.1973L182.535 75.4292V76.1641L199.563 66.0829Z" fill="#E6E7E8"/>
</g>
<g style="mix-blend-mode:multiply">
<path d="M199.563 67.8095V66.9238L182.535 77.1557V77.8906L199.563 67.8095Z" fill="#E6E7E8"/>
</g>
<g style="mix-blend-mode:multiply">
<path d="M199.563 69.5302V68.6445L182.535 78.8764V79.6113L199.563 69.5302Z" fill="#E6E7E8"/>
</g>
<g style="mix-blend-mode:multiply">
<path d="M199.563 71.2587V70.373L182.535 80.5987V81.3398L199.563 71.2587Z" fill="#E6E7E8"/>
</g>
<g style="mix-blend-mode:multiply">
<path d="M199.563 72.9794V72.0938L182.535 82.3257V83.0605L199.563 72.9794Z" fill="#E6E7E8"/>
</g>
<g style="mix-blend-mode:multiply">
<path d="M199.563 74.7059V73.8203L182.535 84.0459V84.7808L199.563 74.7059Z" fill="#E6E7E8"/>
</g>
<g style="mix-blend-mode:multiply">
<path d="M199.563 76.4286V75.543L182.535 85.7749V86.5098L199.563 76.4286Z" fill="#E6E7E8"/>
</g>
<g style="mix-blend-mode:multiply">
<path d="M199.563 78.1493V77.2637L182.535 87.4956V88.2305L199.563 78.1493Z" fill="#E6E7E8"/>
</g>
<g style="mix-blend-mode:multiply">
<path d="M199.563 79.8759V78.9902L182.535 89.2221V89.957L199.563 79.8759Z" fill="#E6E7E8"/>
</g>
<path d="M152.196 76.0512V105.013L104.773 77.9481V48.8164L152.196 76.0512Z" fill="url(#paint15_linear_2664_83229)"/>
<path d="M152.196 76.321L174.437 38.0691L127.015 11.0039L104.773 49.0924L152.196 76.321Z" fill="url(#paint16_linear_2664_83229)"/>
<path d="M108.09 79.712V54.3301L118.221 60.272V85.6036L108.09 79.712Z" fill="#D1D1D1"/>
<path d="M117.121 60.9V83.694L109.188 79.0837V56.252L117.121 60.9Z" fill="#6A6A6A"/>
<path d="M152.195 105.012V76.3201L174.342 37.7793V92.6195L152.195 105.012Z" fill="url(#paint17_linear_2664_83229)"/>
<path d="M153.294 40.1797L132.805 52.164V97.9846L136.14 96.0311V67.0376L153.294 40.1797Z" fill="url(#paint18_linear_2664_83229)"/>
<path opacity="0.5" d="M110.199 78.5763L117.121 60.9013L110.199 56.8438V78.5763Z" fill="url(#paint19_linear_2664_83229)"/>
<path opacity="0.5" d="M110.199 56.8438V78.5763L117.108 82.6025V60.9013L110.199 56.8438ZM116.568 81.6478L110.746 78.2623V57.8048L116.568 61.2154V81.6478Z" fill="url(#paint20_linear_2664_83229)"/>
<path d="M132.805 52.1646V97.9852L116.863 88.7143V42.8184L132.805 52.1646Z" fill="url(#paint21_linear_2664_83229)"/>
<path d="M119.773 90.2897V64.9141L129.899 70.8497V96.1813L119.773 90.2897Z" fill="#D1D1D1"/>
<path d="M128.798 71.4781V94.2722L120.871 89.6618V66.8301L128.798 71.4781Z" fill="#6A6A6A"/>
<path d="M138.938 97.2549V71.873L149.069 77.8087V103.147L138.938 97.2549Z" fill="#D1D1D1"/>
<path d="M147.968 78.4449V101.239L140.035 96.6224V73.7969L147.968 78.4449Z" fill="#6A6A6A"/>
<path d="M119.773 61.5803V47.875L129.899 53.8169V67.472L119.773 61.5803Z" fill="#D1D1D1"/>
<path d="M128.798 54.4429V65.5605L120.871 60.9439V49.7949L128.798 54.4429Z" fill="#6A6A6A"/>
<path d="M121.875 89.1588L128.797 71.4775L121.875 67.4199V89.1588Z" fill="url(#paint22_linear_2664_83229)"/>
<path opacity="0.5" d="M141.047 96.1193L147.969 78.4443L141.047 74.3867V96.1193Z" fill="url(#paint23_linear_2664_83229)"/>
<path opacity="0.5" d="M141.047 74.3867V96.1193L147.956 100.145V78.4443L141.047 74.3867ZM147.416 99.1907L141.593 95.8052V75.3414L147.416 78.7584V99.1907Z" fill="url(#paint24_linear_2664_83229)"/>
<path d="M121.875 60.4427L128.797 54.4443L121.875 50.3867V60.4427Z" fill="url(#paint25_linear_2664_83229)"/>
<path opacity="0.5" d="M121.852 50.3867V60.4365L128.761 64.4626V54.4129L121.852 50.3867ZM128.246 63.5393L122.429 60.1538V51.3603L128.246 54.7709V63.5393Z" fill="url(#paint26_linear_2664_83229)"/>
<path opacity="0.5" d="M121.852 67.4199V89.1588L128.761 93.185V71.4775L121.852 67.4199ZM128.221 92.2302L122.404 88.8384V68.3809L128.221 71.7916V92.2302Z" fill="url(#paint27_linear_2664_83229)"/>
<path d="M158.137 73.2811L159.877 72.2824L170.083 66.3405V51.5234L158.137 73.2811Z" fill="#6A6A6A"/>
<path d="M161.059 70.3216L168.985 65.7113V55.9316L161.059 70.3216Z" fill="#D1D1D1"/>
<path d="M158.32 76.2958L170.085 69.5625V94.9444L158.32 101.627V76.2958Z" fill="#6A6A6A"/>
<path d="M159.422 76.9238V99.7179L168.988 94.3099V71.4844L159.422 76.9238Z" fill="#D1D1D1"/>
<path d="M168.071 93.8067V72.0176L159.422 76.9231V98.6808L168.071 93.8067Z" fill="url(#paint28_linear_2664_83229)"/>
<path d="M159.422 76.9231V98.7122L168.071 93.8381V72.0176L159.422 76.9231ZM167.524 93.4863L159.987 97.7386V77.2435L167.524 72.9597V93.4863Z" fill="url(#paint29_linear_2664_83229)"/>
<path d="M168.066 57.5977L161.898 68.7968L168.066 65.2103V57.5977Z" fill="url(#paint30_linear_2664_83229)"/>
<path d="M132.805 52.1634L153.294 40.1791L137.352 30.9082L116.863 42.8172L132.805 52.1634Z" fill="url(#paint31_linear_2664_83229)"/>
<path d="M155.699 105.741V107.079L177.765 94.5605V93.2227L155.699 105.741Z" fill="#6A6A6A"/>
<path d="M155.709 105.741V107.079L152.191 105.013V103.688L155.709 105.741Z" fill="url(#paint32_linear_2664_83229)"/>
<path d="M152.191 103.688L155.709 105.742L177.768 93.2239L174.332 91.2266L152.191 103.688Z" fill="url(#paint33_linear_2664_83229)"/>
<path d="M161.42 85.7686C161.408 85.9637 161.35 86.1532 161.252 86.3223C161.154 86.4913 161.018 86.635 160.854 86.7422C160.54 86.9243 160.289 86.7799 160.289 86.4218C160.3 86.2257 160.357 86.0349 160.455 85.8647C160.553 85.6945 160.69 85.5497 160.854 85.442C161.162 85.2661 161.42 85.4106 161.42 85.7686Z" fill="url(#paint34_linear_2664_83229)"/>
<path style="mix-blend-mode:multiply" d="M136.141 67.0376L153.294 40.1797L140.964 69.8013L136.141 67.0376Z" fill="url(#paint35_linear_2664_83229)"/>
<path d="M152.191 103.688L177.768 93.2239L174.332 91.2266L152.191 103.688Z" fill="url(#paint36_linear_2664_83229)"/>
<path d="M199.562 58.9282V80.7926L200.599 81.1758V58.3691L199.562 58.9282Z" fill="#F1E8F6"/>
<path d="M156.398 144.282L148.232 139.54L141.122 143.642L149.287 148.371L156.398 144.282ZM149.287 147.856L142.026 143.661L148.213 140.093L155.474 144.282L149.287 147.856ZM160.964 142.128L151.944 136.921C151.433 136.662 150.868 136.527 150.296 136.527C149.723 136.527 149.158 136.662 148.647 136.921L137.473 143.372L149.802 150.494L160.977 144.044C161.868 143.51 161.868 142.681 160.951 142.128H160.964ZM149.802 149.954L138.396 143.365L147.855 137.901L159.268 144.49L149.802 149.954ZM159.727 144.226L148.301 137.656L149.093 137.197C149.462 137.012 149.87 136.915 150.283 136.915C150.696 136.915 151.104 137.012 151.473 137.197L160.493 142.404C160.635 142.454 160.759 142.547 160.847 142.671C160.934 142.794 160.981 142.941 160.981 143.092C160.981 143.243 160.934 143.391 160.847 143.514C160.759 143.637 160.635 143.73 160.493 143.78L159.727 144.226ZM158.678 142.009C158.523 141.931 158.352 141.891 158.178 141.891C158.005 141.891 157.834 141.931 157.679 142.009C157.403 142.172 157.403 142.43 157.679 142.587C157.835 142.666 158.007 142.707 158.181 142.707C158.356 142.707 158.528 142.666 158.684 142.587C158.948 142.43 158.948 142.172 158.665 142.009H158.678ZM156.504 140.753C156.348 140.675 156.176 140.635 156.002 140.635C155.828 140.635 155.656 140.675 155.499 140.753C155.223 140.91 155.229 141.173 155.499 141.33C155.654 141.411 155.825 141.453 155.999 141.453C156.173 141.453 156.344 141.411 156.498 141.33C156.768 141.173 156.768 140.916 156.492 140.753H156.504ZM154.325 139.496C154.17 139.419 153.999 139.379 153.825 139.379C153.652 139.379 153.481 139.419 153.326 139.496C153.05 139.653 153.05 139.911 153.326 140.074C153.481 140.155 153.654 140.197 153.829 140.197C154.003 140.197 154.176 140.155 154.331 140.074C154.589 139.917 154.589 139.66 154.312 139.496H154.325ZM152.145 138.24C151.991 138.161 151.82 138.12 151.646 138.12C151.472 138.12 151.301 138.161 151.147 138.24C150.87 138.397 150.87 138.655 151.147 138.818C151.303 138.895 151.475 138.936 151.649 138.936C151.823 138.936 151.995 138.895 152.152 138.818C152.415 138.661 152.415 138.403 152.133 138.24H152.145Z" fill="#7DB704"/>
<path d="M120.64 166.455L122.493 165.387C123.36 164.885 123.354 164.062 122.493 163.56L114.454 158.918C113.966 158.673 113.429 158.545 112.883 158.545C112.338 158.545 111.8 158.673 111.313 158.918L109.429 159.986C108.589 159.839 107.724 159.971 106.966 160.363L102.695 162.825L103.135 163.076L105.019 162.002L117.173 169.018L115.289 170.098L115.729 170.349L120 167.881C120.653 167.492 120.867 166.945 120.64 166.455ZM111.715 159.163C112.069 158.982 112.461 158.888 112.858 158.888C113.256 158.888 113.647 158.982 114.001 159.163L122.047 163.805C122.185 163.852 122.304 163.941 122.389 164.059C122.473 164.177 122.518 164.319 122.518 164.464C122.518 164.609 122.473 164.751 122.389 164.869C122.304 164.988 122.185 165.076 122.047 165.124L120.377 166.091C120.257 165.968 120.122 165.863 119.975 165.777L119.824 165.689L120.163 165.494C120.791 165.13 120.791 164.533 120.163 164.163L117.883 162.844C117.278 162.543 116.581 162.486 115.936 162.687C116.275 162.328 116.193 161.87 115.659 161.562L113.386 160.268C113.027 160.087 112.631 159.993 112.23 159.993C111.829 159.993 111.433 160.087 111.074 160.268L110.735 160.463L110.584 160.381C110.414 160.284 110.232 160.206 110.044 160.149L111.715 159.163ZM114.893 162.85L111.175 160.702L111.514 160.507C111.736 160.394 111.981 160.335 112.23 160.335C112.479 160.335 112.724 160.394 112.946 160.507L115.226 161.82C115.622 162.052 115.628 162.448 115.226 162.649L114.893 162.85ZM119.39 165.444L115.672 163.296L116.011 163.101C116.233 162.989 116.479 162.931 116.727 162.931C116.976 162.931 117.221 162.989 117.443 163.101L119.723 164.42C119.809 164.45 119.883 164.507 119.936 164.581C119.988 164.655 120.017 164.744 120.017 164.835C120.017 164.926 119.988 165.014 119.936 165.089C119.883 165.163 119.809 165.219 119.723 165.249L119.39 165.444ZM105.434 161.744L107.4 160.607C107.826 160.391 108.297 160.278 108.775 160.278C109.254 160.278 109.725 160.391 110.151 160.607L119.541 166.028C120.307 166.468 120.307 167.184 119.541 167.617L117.575 168.754L105.434 161.744Z" fill="#7DB704"/>
<path d="M193.018 124.836L192.352 119.754C192.264 119.126 191.309 118.561 190.198 118.498L181.404 118.115C180.777 118.073 180.151 118.205 179.595 118.498L172.391 122.656L185.16 130.03L192.365 125.872C192.564 125.784 192.733 125.638 192.849 125.454C192.965 125.269 193.024 125.054 193.018 124.836ZM188.929 125.269L180.644 120.483L181.222 120.15L189.507 124.936L188.929 125.269ZM180.211 120.734L188.502 125.521L183.339 128.504L175.048 123.718L180.211 120.734ZM185.141 129.528L183.766 128.73L190.373 124.918L181.216 119.635L174.614 123.467L173.239 122.675L180.016 118.762C180.427 118.546 180.89 118.448 181.354 118.479L190.147 118.863C190.97 118.9 191.674 119.309 191.736 119.78L192.402 124.861C192.409 125.024 192.365 125.186 192.278 125.324C192.19 125.462 192.063 125.57 191.912 125.634L185.141 129.528Z" fill="#7DB704"/>
<path d="M53.8772 67.8931C46.1891 63.4523 46.1515 56.2542 53.7893 51.8449C61.4271 47.4355 73.8887 47.4481 81.5831 51.8951C89.2774 56.3421 89.3088 63.5403 81.6459 67.937C73.983 72.3338 61.5464 72.3338 53.8772 67.8931ZM80.6598 52.429C73.4868 48.2898 61.8479 48.2647 54.7252 52.385C47.6024 56.5054 47.6275 63.2136 54.8005 67.3592C61.9735 71.5047 73.6124 71.5172 80.7414 67.4031C87.8705 63.289 87.8265 56.5683 80.6598 52.429Z" fill="#91BC34"/>
<path opacity="0.4" d="M49.9752 70.1463C40.1201 64.4556 40.0699 55.2287 49.8621 49.5694C59.6543 43.9102 75.6146 43.9165 85.4947 49.6385C95.3749 55.3606 95.4 64.5561 85.6078 70.2091C75.8155 75.8621 59.8302 75.837 49.9752 70.1463ZM84.1066 50.4425C75.0241 45.1978 60.2887 45.1664 51.2628 50.3797C42.2368 55.593 42.2808 64.0976 51.3633 69.3423C60.4457 74.587 75.1812 74.6121 84.2071 69.4051C93.233 64.1981 93.1891 55.6809 84.1066 50.4425Z" fill="#91BC34"/>
<path opacity="0.1" d="M45.8026 72.5528C33.6361 65.5305 33.5733 54.1303 45.6644 47.1521C57.7555 40.1738 77.497 40.2052 89.6634 47.2274C101.83 54.2497 101.893 65.6499 89.8016 72.6344C77.7105 79.619 57.969 79.5813 45.8026 72.5528ZM87.8105 48.3015C76.6678 41.8697 58.5971 41.8382 47.5299 48.2261C36.4626 54.614 36.5128 65.0532 47.6555 71.4661C58.7981 77.8791 76.8688 77.9294 87.9361 71.5352C99.0034 65.1411 98.9532 54.7459 87.8105 48.3015Z" fill="#91BC34"/>
<path d="M71.5494 61.4417C73.6472 60.2294 73.4902 58.2006 71.0783 57.0951C69.1134 56.2777 66.907 56.2597 64.9291 57.0449C63.4907 57.673 62.8312 58.6277 62.9443 59.5573C62.9573 59.846 62.8818 60.1318 62.7281 60.3765C62.5743 60.6212 62.3495 60.8131 62.0837 60.9266L61.3049 61.3788C61.2191 61.4091 61.1449 61.4653 61.0924 61.5395C61.0399 61.6138 61.0117 61.7025 61.0117 61.7934C61.0117 61.8843 61.0399 61.973 61.0924 62.0473C61.1449 62.1215 61.2191 62.1776 61.3049 62.2079L63.051 63.2192C63.275 63.3324 63.5224 63.3913 63.7734 63.3913C64.0243 63.3913 64.2717 63.3324 64.4957 63.2192L65.2683 62.767C66.0154 62.3881 66.8505 62.2167 67.6865 62.2708C69.0255 62.3503 70.3609 62.0636 71.5494 61.4417Z" fill="#91BC34"/>
<path d="M60.6381 63.6081C60.1168 63.3128 60.1796 62.7852 60.7826 62.4398L60.8894 62.377L62.7737 63.4636L62.6606 63.5264C62.3539 63.6986 62.0107 63.7958 61.6592 63.8099C61.3077 63.8241 60.9578 63.755 60.6381 63.6081Z" fill="#91BC34"/>
<path d="M67.5156 55.7384C67.8046 55.7384 68.0935 55.7384 68.3824 55.7384V53.9231C68.3824 53.7849 68.1877 53.6719 67.949 53.6719C67.7103 53.6719 67.5219 53.7849 67.5219 53.9231L67.5156 55.7384Z" fill="#91BC34"/>
<path d="M63.7983 56.6294L61.5811 55.3732C61.4856 55.3181 61.3773 55.2891 61.267 55.2891C61.1568 55.2891 61.0485 55.3181 60.953 55.3732C60.7834 55.4674 60.7897 55.6245 60.953 55.725L63.1702 56.9812C63.372 56.8508 63.5818 56.7334 63.7983 56.6294Z" fill="#91BC34"/>
<path d="M74.2891 59.6388H77.4296C77.6683 59.6388 77.863 59.532 77.863 59.3938C77.863 59.2556 77.6683 59.1426 77.4296 59.1426H74.2891C74.3105 59.3073 74.3105 59.4741 74.2891 59.6388Z" fill="#91BC34"/>
<path d="M72.4407 56.7927L72.7297 56.9812L74.9281 55.725C75.0976 55.6245 75.0914 55.4674 74.9281 55.3732C74.8326 55.3181 74.7243 55.2891 74.614 55.2891C74.5037 55.2891 74.3954 55.3181 74.2999 55.3732L72.1016 56.6294L72.4407 56.7927Z" fill="#91BC34"/>
<path d="M74.9647 63.0629L72.7538 61.8066C72.6596 61.8695 72.5654 61.9323 72.4649 61.9888C72.3644 62.0453 72.2513 62.1019 72.1445 62.1584L74.3555 63.4146C74.451 63.4697 74.5593 63.4987 74.6695 63.4987C74.7798 63.4987 74.8881 63.4697 74.9836 63.4146C75.1343 63.3204 75.1343 63.1634 74.9647 63.0629Z" fill="#91BC34"/>
<path d="M60.9685 63.0742C60.8554 63.1684 60.8617 63.3003 61.0124 63.3883C61.0994 63.4271 61.1936 63.4471 61.2888 63.4471C61.384 63.4471 61.4782 63.4271 61.5652 63.3883L60.9685 63.0742Z" fill="#91BC34"/>
<path d="M212.394 135.129L216.736 132.623L219.568 134.258L219.113 134.521L216.842 133.21L212.956 135.453L212.394 135.129Z" fill="#7DB704"/>
<path d="M216.496 136.386C217.15 136.008 217.908 136.069 218.77 136.566C219.047 136.726 219.304 136.898 219.541 137.082L219.842 136.908C220.208 136.697 220.105 136.426 219.532 136.095C219.204 135.906 218.817 135.741 218.372 135.601L218.828 135.338C219.273 135.478 219.659 135.643 219.987 135.832C220.934 136.379 221.078 136.843 220.418 137.224L218.22 138.493L217.905 138.31L218.026 138.016C217.498 137.954 217.046 137.815 216.672 137.599C215.913 137.161 215.854 136.756 216.496 136.386ZM218.314 136.829C217.827 136.548 217.411 136.506 217.067 136.705C216.723 136.904 216.743 137.114 217.127 137.336C217.516 137.56 217.948 137.691 218.424 137.727L219.086 137.345C218.849 137.161 218.592 136.989 218.314 136.829Z" fill="#7DB704"/>
<path d="M220.346 138.969C220.457 139.16 220.648 139.333 220.919 139.49C221.642 139.907 222.401 139.886 223.196 139.427C223.89 139.026 223.878 138.618 223.16 138.203C222.876 138.04 222.604 137.911 222.343 137.816L220.346 138.969ZM222.191 137.255C222.701 137.449 223.182 137.676 223.633 137.937C224.716 138.562 224.753 139.166 223.743 139.749C222.628 140.393 221.525 140.401 220.437 139.772C220.182 139.625 219.985 139.453 219.848 139.257L218.542 140.011L217.98 139.686L222.191 137.255Z" fill="#7DB704"/>
<path d="M223.643 140.512C224.296 140.135 225.054 140.195 225.916 140.692C226.194 140.853 226.451 141.024 226.688 141.208L226.988 141.034C227.354 140.823 227.251 140.552 226.678 140.221C226.351 140.032 225.964 139.867 225.519 139.727L225.974 139.464C226.419 139.604 226.806 139.769 227.134 139.958C228.081 140.505 228.225 140.969 227.565 141.35L225.367 142.619L225.051 142.437L225.173 142.142C224.644 142.08 224.193 141.941 223.819 141.725C223.06 141.287 223.001 140.882 223.643 140.512ZM225.461 140.955C224.973 140.674 224.557 140.632 224.213 140.831C223.869 141.03 223.889 141.24 224.274 141.462C224.663 141.686 225.095 141.817 225.57 141.853L226.232 141.471C225.995 141.287 225.738 141.115 225.461 140.955Z" fill="#7DB704"/>
<path d="M230.322 145.479L230.622 144.791C230.823 144.329 230.783 144.018 230.504 143.856L230.877 143.641C231.201 143.828 231.664 143.839 232.265 143.674C232.87 143.509 233.363 143.537 233.743 143.756L234.068 143.944L233.564 144.235L233.324 144.096C233.106 143.97 232.797 143.963 232.398 144.074C232 144.185 231.624 144.196 231.272 144.107C231.468 144.269 231.467 144.601 231.269 145.101L230.971 145.854L230.322 145.479ZM231.922 142.698L228.713 144.55L228.151 144.226L231.36 142.373L231.922 142.698ZM225.901 142.927L227.207 142.756C228.073 142.641 228.647 142.64 228.928 142.754C228.774 142.55 228.794 142.334 228.986 142.103C229.178 141.873 229.165 141.695 228.946 141.569L228.707 141.43L229.21 141.139L229.535 141.327C229.916 141.547 229.962 141.831 229.675 142.179C229.392 142.527 229.412 142.795 229.736 142.982L229.362 143.197C229.083 143.036 228.544 143.013 227.744 143.129L226.551 143.302L225.901 142.927Z" fill="#7DB704"/>
<path d="M181.83 156.803C182.237 155.775 182.428 155.166 182.404 154.974C182.382 154.782 182.292 154.64 182.134 154.548L182.538 154.315C182.861 154.502 183.494 154.515 184.435 154.352C185.378 154.191 186.04 154.22 186.421 154.44L186.745 154.627L186.26 154.908L186.02 154.769C185.801 154.643 185.317 154.64 184.566 154.761C183.817 154.88 183.287 154.895 182.975 154.806C183.1 154.909 183.153 155.071 183.133 155.293C183.114 155.514 182.907 156.148 182.51 157.195L181.83 156.803ZM184.007 153.046L179.666 155.553L179.104 155.229L183.445 152.722L184.007 153.046Z" fill="#7DB704"/>
<path d="M185.853 155.444L186.463 155.796L184.875 157.754L188.297 156.855L188.892 157.199L184.286 158.329C183.473 158.528 182.759 158.533 182.146 158.345L182.328 157.991C182.84 158.107 183.353 158.11 183.867 158L185.853 155.444Z" fill="#7DB704"/>
<path d="M186.506 159.502L185.853 159.125L188.716 158.937L189.041 157.285L189.693 157.661L189.451 158.888L191.576 158.748L192.228 159.125L189.365 159.313L189.041 160.965L188.388 160.589L188.631 159.362L186.506 159.502Z" fill="#7DB704"/>
<path d="M189.572 161.272L192.76 159.432L193.321 159.756L191.986 160.527L193.67 161.5L195.006 160.729L195.568 161.053L192.38 162.894L191.819 162.569L193.215 161.763L191.53 160.79L190.134 161.596L189.572 161.272Z" fill="#7DB704"/>
<path d="M195.298 164.578L198.021 163.006L196.934 162.378C196.655 162.217 196.396 162.205 196.157 162.343C195.874 162.507 195.99 162.813 196.506 163.263L196.108 163.493L193.625 163.612L192.915 163.202L195.571 163.092C195.132 162.611 195.126 162.248 195.553 162.001C196.105 161.682 196.724 161.72 197.408 162.115L199.047 163.062L195.859 164.902L195.298 164.578Z" fill="#7DB704"/>
<path d="M149.245 176.505C148.749 176.359 148.284 176.161 147.849 175.909C146.331 175.033 146.326 174.159 147.834 173.289C149.26 172.465 150.733 172.491 152.251 173.368C152.686 173.619 153.03 173.888 153.283 174.174L152.797 174.455C152.565 174.157 152.251 173.894 151.856 173.666C150.672 172.982 149.519 172.965 148.395 173.613C147.191 174.308 147.181 174.998 148.365 175.681C148.76 175.909 149.215 176.09 149.731 176.225L149.245 176.505Z" fill="#7DB704"/>
<path d="M149.962 177.094L153.15 175.254L155.958 176.875L152.77 178.716L152.208 178.391L154.941 176.814L153.256 175.841L150.523 177.419L149.962 177.094Z" fill="#7DB704"/>
<path d="M154.494 178.6C155.148 178.222 155.906 178.283 156.768 178.78C157.046 178.941 157.303 179.112 157.539 179.296L157.84 179.122C158.206 178.911 158.103 178.64 157.53 178.309C157.202 178.12 156.816 177.955 156.371 177.815L156.826 177.552C157.271 177.692 157.658 177.857 157.986 178.046C158.933 178.593 159.077 179.057 158.417 179.438L156.219 180.707L155.903 180.524L156.025 180.23C155.496 180.168 155.045 180.029 154.671 179.813C153.912 179.375 153.853 178.97 154.494 178.6ZM156.313 179.043C155.825 178.762 155.409 178.72 155.065 178.919C154.721 179.118 154.741 179.328 155.126 179.55C155.514 179.774 155.947 179.905 156.422 179.941L157.084 179.559C156.847 179.375 156.59 179.203 156.313 179.043Z" fill="#7DB704"/>
<path d="M157.133 180.709C157.612 180.985 158.125 180.966 158.672 180.651L160.585 179.546L163.013 180.949L159.826 182.789L159.264 182.465L161.996 180.887L160.691 180.134L159.234 180.975C158.383 181.466 157.531 181.465 156.677 180.971L157.133 180.709Z" fill="#7DB704"/>
<path d="M164.489 181.801L161.766 183.373L162.731 183.93C163.091 184.138 163.442 184.143 163.784 183.946C164.062 183.786 164.016 183.599 163.648 183.387L163.107 183.075L163.563 182.812L164.131 183.14C164.859 183.56 164.924 183.944 164.325 184.29C163.691 184.655 163.022 184.635 162.318 184.228L160.739 183.317L163.927 181.476L164.489 181.801Z" fill="#7DB704"/>
<path d="M164.285 185.364L167.473 183.524L168.035 183.848L166.699 184.619L168.384 185.592L169.72 184.821L170.281 185.145L167.094 186.985L166.532 186.661L167.928 185.855L166.244 184.882L164.847 185.688L164.285 185.364Z" fill="#7DB704"/>
<path d="M170.011 188.67L172.734 187.098L171.648 186.47C171.368 186.309 171.109 186.297 170.87 186.435C170.587 186.599 170.703 186.905 171.219 187.355L170.822 187.585L168.338 187.704L167.628 187.294L170.284 187.183C169.845 186.703 169.839 186.34 170.266 186.093C170.819 185.774 171.437 185.812 172.121 186.207L173.761 187.154L170.573 188.994L170.011 188.67Z" fill="#7DB704"/>
<path d="M8.74185 61.7512L12.6188 59.5129L11.3801 58.7978C10.9186 58.5313 10.4875 58.5138 10.0868 58.7452C9.58078 59.0373 9.67692 59.4609 10.3752 60.016L9.97748 60.2456L6.64401 60.54L5.93359 60.1299L9.40976 59.8617C8.8734 59.2272 8.88757 58.7469 9.45226 58.4209C10.187 57.9967 10.9874 58.0347 11.8537 58.5348L13.6449 59.569L9.3035 62.0755L8.74185 61.7512Z" fill="#7DB704"/>
<path d="M11.4894 62.5873C11.6007 62.7778 11.792 62.9513 12.0632 63.1079C12.7857 63.5251 13.5447 63.504 14.3401 63.0448C15.0344 62.644 15.0222 62.2362 14.3037 61.8213C14.0203 61.6577 13.7481 61.5286 13.487 61.434L11.4894 62.5873ZM13.3352 60.8731C13.8453 61.0671 14.326 61.2943 14.7773 61.5549C15.8601 62.1801 15.8966 62.7842 14.8866 63.3673C13.7714 64.0112 12.6694 64.0188 11.5805 63.3901C11.3254 63.2429 11.1291 63.0711 10.9915 62.8748L9.68603 63.6285L9.12438 63.3042L13.3352 60.8731Z" fill="#7DB704"/>
<path d="M16.1465 66.0263L16.4471 65.3375C16.6475 64.8759 16.608 64.5645 16.3287 64.4032L16.7021 64.1876C17.0259 64.3746 17.4864 64.3869 18.0835 64.2244C18.6826 64.0632 19.1724 64.0924 19.5529 64.3121L19.8777 64.4996L19.392 64.7801L19.1521 64.6416C18.9335 64.5154 18.6239 64.5084 18.2231 64.6206C17.8244 64.7316 17.4489 64.7427 17.0968 64.6539C17.2931 64.8163 17.2921 65.1476 17.0937 65.6477L16.7962 66.4014L16.1465 66.0263ZM17.7252 63.2569L14.5375 65.0973L13.9758 64.7731L17.1636 62.9326L17.7252 63.2569Z" fill="#7DB704"/>
<path d="M18.7696 65.7003C19.8524 65.0751 20.92 65.0664 21.9725 65.674C23.025 66.2816 23.0098 66.8981 21.927 67.5232C20.8442 68.1484 19.7765 68.1572 18.724 67.5495C17.6756 66.9442 17.6908 66.3278 18.7696 65.7003ZM19.3434 66.0176C18.5561 66.4721 18.5014 66.8951 19.1794 67.2866C19.8575 67.6781 20.5901 67.6465 21.3775 67.1919C22.1486 66.7467 22.1951 66.3284 21.5171 65.9369C20.8391 65.5455 20.1145 65.5723 19.3434 66.0176Z" fill="#7DB704"/>
<path d="M23.5816 70.2138C23.2577 70.0969 22.944 69.9509 22.6404 69.7756C21.507 69.1212 21.4918 68.4756 22.5949 67.8387C23.617 67.2486 24.6947 67.2807 25.8282 67.9351C26.1318 68.1104 26.3848 68.2915 26.5872 68.4785L26.1318 68.7414C25.9294 68.5545 25.6663 68.3675 25.3424 68.1805C24.6037 67.754 23.875 67.7482 23.1565 68.163C22.3571 68.6246 22.3267 69.0686 23.0655 69.4951C23.3893 69.6821 23.7131 69.834 24.037 69.9509L23.5816 70.2138Z" fill="#7DB704"/>
<path d="M29.7476 70.198L29.2922 70.4609L28.1689 69.8124L25.4365 71.3899L24.8749 71.0656L27.6072 69.4881L26.4839 68.8396L26.9393 68.5767L29.7476 70.198Z" fill="#7DB704"/>
<path d="M30.7677 70.7869L28.0444 72.3592L29.0098 72.9166C29.3701 73.1246 29.7213 73.1299 30.0633 72.9324C30.3406 72.7723 30.2951 72.5859 29.9267 72.3732L29.3863 72.0612L29.8417 71.7983L30.4094 72.1261C31.138 72.5468 31.2028 72.93 30.6037 73.2759C29.9702 73.6417 29.3013 73.6212 28.597 73.2146L27.0183 72.3031L30.206 70.4627L30.7677 70.7869Z" fill="#7DB704"/>
<defs>
<linearGradient id="paint0_linear_2664_83229" x1="225.575" y1="99.7556" x2="26.2571" y2="99.7556" gradientUnits="userSpaceOnUse">
<stop stop-color="#444444"/>
<stop offset="1" stop-color="#A5A5A5"/>
</linearGradient>
<linearGradient id="paint1_linear_2664_83229" x1="228.314" y1="125.093" x2="-29.0715" y2="159.811" gradientUnits="userSpaceOnUse">
<stop offset="0.0555556" stop-color="#3E3D3E"/>
<stop offset="0.157789" stop-color="#111111"/>
<stop offset="0.2575" stop-color="#686868"/>
<stop offset="0.3569" stop-color="#868686"/>
<stop offset="0.4338" stop-color="#646464"/>
<stop offset="0.4949" stop-color="#535353"/>
<stop offset="0.5067" stop-color="#585858"/>
<stop offset="0.5196" stop-color="#919191"/>
<stop offset="0.5329" stop-color="#D6D6D6"/>
<stop offset="0.5466" stop-color="#FCFCFC"/>
<stop offset="0.5556" stop-color="white"/>
<stop offset="0.5678" stop-color="#D3D3D3"/>
<stop offset="0.5801" stop-color="#BCBCBC"/>
<stop offset="0.5915" stop-color="#A5A3A6"/>
<stop offset="0.601" stop-color="#A3A3A3"/>
<stop offset="0.658" stop-color="#707070"/>
<stop offset="0.7155" stop-color="#575757"/>
<stop offset="0.7687" stop-color="#676767"/>
<stop offset="0.8131" stop-color="#6D6D6D"/>
</linearGradient>
<linearGradient id="paint2_linear_2664_83229" x1="-130.365" y1="126.657" x2="-52.1339" y2="-51.1746" gradientUnits="userSpaceOnUse">
<stop stop-color="#B0B0B0"/>
<stop offset="0.14" stop-color="#9F9F9F"/>
<stop offset="0.27" stop-color="#999999"/>
<stop offset="0.4" stop-color="#A6A6A6"/>
<stop offset="0.52" stop-color="#9D9D9D"/>
<stop offset="0.65" stop-color="#9E9E9E"/>
<stop offset="0.9" stop-color="#DADADA"/>
<stop offset="1" stop-color="white"/>
</linearGradient>
<linearGradient id="paint3_linear_2664_83229" x1="-125.241" y1="126.013" x2="-48.5488" y2="-48.2888" gradientUnits="userSpaceOnUse">
<stop stop-color="#B0B0B0"/>
<stop offset="0.14" stop-color="#9F9F9F"/>
<stop offset="0.27" stop-color="#999999"/>
<stop offset="0.4" stop-color="#A6A6A6"/>
<stop offset="0.52" stop-color="#9D9D9D"/>
<stop offset="0.65" stop-color="#9E9E9E"/>
<stop offset="0.9" stop-color="#DADADA"/>
<stop offset="1" stop-color="white"/>
</linearGradient>
<linearGradient id="paint4_linear_2664_83229" x1="30.8429" y1="94.5794" x2="220.141" y2="94.5794" gradientUnits="userSpaceOnUse">
<stop stop-color="#252525"/>
<stop offset="1" stop-color="#222222"/>
</linearGradient>
<linearGradient id="paint5_linear_2664_83229" x1="32.2953" y1="94.6101" x2="218.729" y2="94.6101" gradientUnits="userSpaceOnUse">
<stop stop-color="#5A5A5A"/>
<stop offset="1" stop-color="#222222"/>
</linearGradient>
<linearGradient id="paint6_linear_2664_83229" x1="27.8925" y1="49.3027" x2="45.8343" y2="190.397" gradientUnits="userSpaceOnUse">
<stop offset="0.01" stop-color="#999999"/>
<stop offset="0.43" stop-color="#7C7C7C"/>
<stop offset="0.9" stop-color="#4A4A4A"/>
</linearGradient>
<linearGradient id="paint7_linear_2664_83229" x1="181.106" y1="93.8401" x2="175.134" y2="91.7664" gradientUnits="userSpaceOnUse">
<stop stop-color="#3D065F"/>
<stop offset="1" stop-color="#5F27BD"/>
</linearGradient>
<linearGradient id="paint8_linear_2664_83229" x1="171.303" y1="99.4743" x2="165.335" y2="97.4019" gradientUnits="userSpaceOnUse">
<stop stop-color="#3D065F"/>
<stop offset="1" stop-color="#5F27BD"/>
</linearGradient>
<linearGradient id="paint9_linear_2664_83229" x1="46.3593" y1="113.631" x2="84.272" y2="113.631" gradientUnits="userSpaceOnUse">
<stop offset="0.0572917" stop-color="#90C029"/>
<stop offset="0.23" stop-color="#91C129"/>
<stop offset="0.59" stop-color="#93D800"/>
<stop offset="1" stop-color="#A8F800"/>
</linearGradient>
<linearGradient id="paint10_linear_2664_83229" x1="81.2396" y1="20.6335" x2="111.848" y2="209.847" gradientUnits="userSpaceOnUse">
<stop stop-color="#8B8B8B"/>
<stop offset="0.14" stop-color="#939393"/>
<stop offset="0.33" stop-color="#ADADAD"/>
<stop offset="0.503125" stop-color="#BABABA"/>
<stop offset="0.76" stop-color="#D7D7D7"/>
<stop offset="1" stop-color="#F4F4F4"/>
</linearGradient>
<linearGradient id="paint11_linear_2664_83229" x1="157.598" y1="69.6345" x2="160.517" y2="24.5482" gradientUnits="userSpaceOnUse">
<stop offset="0.1" stop-color="#1C1C1C"/>
<stop offset="1" stop-color="#494949"/>
</linearGradient>
<linearGradient id="paint12_linear_2664_83229" x1="195.05" y1="82.6454" x2="223.789" y2="147.165" gradientUnits="userSpaceOnUse">
<stop stop-color="#8B8B8B"/>
<stop offset="0.14" stop-color="#939393"/>
<stop offset="0.33" stop-color="#ADADAD"/>
<stop offset="0.503125" stop-color="#BABABA"/>
<stop offset="0.76" stop-color="#D7D7D7"/>
<stop offset="1" stop-color="#F4F4F4"/>
</linearGradient>
<linearGradient id="paint13_linear_2664_83229" x1="121.155" y1="-3.02803" x2="199.338" y2="183.421" gradientUnits="userSpaceOnUse">
<stop stop-color="#8B8B8B"/>
<stop offset="0.14" stop-color="#939393"/>
<stop offset="0.33" stop-color="#ADADAD"/>
<stop offset="0.503125" stop-color="#BABABA"/>
<stop offset="0.76" stop-color="#D7D7D7"/>
<stop offset="1" stop-color="#F4F4F4"/>
</linearGradient>
<linearGradient id="paint14_linear_2664_83229" x1="178.614" y1="49.4028" x2="218.293" y2="124.448" gradientUnits="userSpaceOnUse">
<stop stop-color="#8B8B8B"/>
<stop offset="0.14" stop-color="#939393"/>
<stop offset="0.33" stop-color="#ADADAD"/>
<stop offset="0.503125" stop-color="#BABABA"/>
<stop offset="0.76" stop-color="#D7D7D7"/>
<stop offset="1" stop-color="#F4F4F4"/>
</linearGradient>
<linearGradient id="paint15_linear_2664_83229" x1="94.2846" y1="29.3052" x2="143.378" y2="183.746" gradientUnits="userSpaceOnUse">
<stop stop-color="#8B8B8B"/>
<stop offset="0.14" stop-color="#939393"/>
<stop offset="0.33" stop-color="#ADADAD"/>
<stop offset="0.503125" stop-color="#BABABA"/>
<stop offset="0.76" stop-color="#D7D7D7"/>
<stop offset="1" stop-color="#F4F4F4"/>
</linearGradient>
<linearGradient id="paint16_linear_2664_83229" x1="129.771" y1="111.847" x2="143.328" y2="17.6944" gradientUnits="userSpaceOnUse">
<stop offset="0.1" stop-color="#1C1C1C"/>
<stop offset="1" stop-color="#494949"/>
</linearGradient>
<linearGradient id="paint17_linear_2664_83229" x1="166.578" y1="87.373" x2="222.211" y2="157.562" gradientUnits="userSpaceOnUse">
<stop stop-color="#8B8B8B"/>
<stop offset="0.14" stop-color="#939393"/>
<stop offset="0.33" stop-color="#ADADAD"/>
<stop offset="0.503125" stop-color="#BABABA"/>
<stop offset="0.76" stop-color="#D7D7D7"/>
<stop offset="1" stop-color="#F4F4F4"/>
</linearGradient>
<linearGradient id="paint18_linear_2664_83229" x1="146.11" y1="82.8189" x2="193.03" y2="146.515" gradientUnits="userSpaceOnUse">
<stop stop-color="#8B8B8B"/>
<stop offset="0.14" stop-color="#939393"/>
<stop offset="0.33" stop-color="#ADADAD"/>
<stop offset="0.503125" stop-color="#BABABA"/>
<stop offset="0.76" stop-color="#D7D7D7"/>
<stop offset="1" stop-color="#F4F4F4"/>
</linearGradient>
<linearGradient id="paint19_linear_2664_83229" x1="110.893" y1="69.1348" x2="130.768" y2="65.6917" gradientUnits="userSpaceOnUse">
<stop stop-color="#A3A3A3"/>
<stop offset="0.62" stop-color="#4F667B"/>
<stop offset="1" stop-color="#4C9DE9"/>
</linearGradient>
<linearGradient id="paint20_linear_2664_83229" x1="97.1583" y1="73.4383" x2="131.037" y2="65.8481" gradientUnits="userSpaceOnUse">
<stop offset="0.1" stop-color="#171717"/>
<stop offset="1" stop-color="#2B2B2B"/>
</linearGradient>
<linearGradient id="paint21_linear_2664_83229" x1="113.337" y1="23.6648" x2="196.571" y2="113.329" gradientUnits="userSpaceOnUse">
<stop stop-color="#8B8B8B"/>
<stop offset="0.14" stop-color="#939393"/>
<stop offset="0.33" stop-color="#ADADAD"/>
<stop offset="0.503125" stop-color="#BABABA"/>
<stop offset="0.76" stop-color="#D7D7D7"/>
<stop offset="1" stop-color="#F4F4F4"/>
</linearGradient>
<linearGradient id="paint22_linear_2664_83229" x1="122.569" y1="79.7146" x2="142.444" y2="76.2724" gradientUnits="userSpaceOnUse">
<stop stop-color="#A3A3A3"/>
<stop offset="0.62" stop-color="#4F667B"/>
<stop offset="1" stop-color="#4C9DE9"/>
</linearGradient>
<linearGradient id="paint23_linear_2664_83229" x1="141.741" y1="86.6778" x2="161.616" y2="83.2347" gradientUnits="userSpaceOnUse">
<stop stop-color="#A3A3A3"/>
<stop offset="0.62" stop-color="#4F667B"/>
<stop offset="1" stop-color="#4C9DE9"/>
</linearGradient>
<linearGradient id="paint24_linear_2664_83229" x1="128.006" y1="90.9813" x2="161.884" y2="83.391" gradientUnits="userSpaceOnUse">
<stop offset="0.1" stop-color="#171717"/>
<stop offset="1" stop-color="#2B2B2B"/>
</linearGradient>
<linearGradient id="paint25_linear_2664_83229" x1="122.569" y1="56.074" x2="140.524" y2="49.3519" gradientUnits="userSpaceOnUse">
<stop stop-color="#A3A3A3"/>
<stop offset="0.62" stop-color="#4F667B"/>
<stop offset="1" stop-color="#4C9DE9"/>
</linearGradient>
<linearGradient id="paint26_linear_2664_83229" x1="108.811" y1="59.4549" x2="139.269" y2="46.9668" gradientUnits="userSpaceOnUse">
<stop offset="0.1" stop-color="#171717"/>
<stop offset="1" stop-color="#2B2B2B"/>
</linearGradient>
<linearGradient id="paint27_linear_2664_83229" x1="108.811" y1="84.0185" x2="142.69" y2="76.43" gradientUnits="userSpaceOnUse">
<stop offset="0.1" stop-color="#171717"/>
<stop offset="1" stop-color="#2B2B2B"/>
</linearGradient>
<linearGradient id="paint28_linear_2664_83229" x1="159.422" y1="86.6416" x2="188.699" y2="77.876" gradientUnits="userSpaceOnUse">
<stop offset="0.1" stop-color="#6F6F6F"/>
<stop offset="1" stop-color="#D7D7D7"/>
</linearGradient>
<linearGradient id="paint29_linear_2664_83229" x1="143.097" y1="89.2151" x2="184.596" y2="77.9843" gradientUnits="userSpaceOnUse">
<stop offset="0.1" stop-color="#4A4A4A"/>
<stop offset="1" stop-color="#747474"/>
</linearGradient>
<linearGradient id="paint30_linear_2664_83229" x1="162.517" y1="63.9315" x2="179.257" y2="58.9167" gradientUnits="userSpaceOnUse">
<stop stop-color="#A3A3A3"/>
<stop offset="0.62" stop-color="#4F667B"/>
<stop offset="1" stop-color="#4C9DE9"/>
</linearGradient>
<linearGradient id="paint31_linear_2664_83229" x1="111.012" y1="59.3629" x2="126.269" y2="40.0819" gradientUnits="userSpaceOnUse">
<stop offset="0.1" stop-color="#1C1C1C"/>
<stop offset="1" stop-color="#494949"/>
</linearGradient>
<linearGradient id="paint32_linear_2664_83229" x1="151.381" y1="102.676" x2="153.962" y2="112.17" gradientUnits="userSpaceOnUse">
<stop stop-color="#8B8B8B"/>
<stop offset="0.14" stop-color="#939393"/>
<stop offset="0.33" stop-color="#ADADAD"/>
<stop offset="0.503125" stop-color="#BABABA"/>
<stop offset="0.76" stop-color="#D7D7D7"/>
<stop offset="1" stop-color="#F4F4F4"/>
</linearGradient>
<linearGradient id="paint33_linear_2664_83229" x1="142.219" y1="90.4443" x2="153.879" y2="133.918" gradientUnits="userSpaceOnUse">
<stop stop-color="#8B8B8B"/>
<stop offset="0.14" stop-color="#939393"/>
<stop offset="0.33" stop-color="#ADADAD"/>
<stop offset="0.503125" stop-color="#BABABA"/>
<stop offset="0.76" stop-color="#D7D7D7"/>
<stop offset="1" stop-color="#F4F4F4"/>
</linearGradient>
<linearGradient id="paint34_linear_2664_83229" x1="168.725" y1="81.2839" x2="160.616" y2="86.2333" gradientUnits="userSpaceOnUse">
<stop offset="0.02" stop-color="#45108A"/>
<stop offset="0.29" stop-color="#3D065F"/>
<stop offset="1" stop-color="#10054D"/>
</linearGradient>
<linearGradient id="paint35_linear_2664_83229" x1="150.198" y1="57.9552" x2="140.029" y2="49.8903" gradientUnits="userSpaceOnUse">
<stop stop-color="white"/>
<stop offset="1" stop-color="#BCBEC0"/>
</linearGradient>
<linearGradient id="paint36_linear_2664_83229" x1="142.219" y1="90.555" x2="150.967" y2="128.548" gradientUnits="userSpaceOnUse">
<stop stop-color="#8B8B8B"/>
<stop offset="0.14" stop-color="#939393"/>
<stop offset="0.33" stop-color="#ADADAD"/>
<stop offset="0.503125" stop-color="#BABABA"/>
<stop offset="0.76" stop-color="#D7D7D7"/>
<stop offset="1" stop-color="#F4F4F4"/>
</linearGradient>
</defs>
</svg>
