<svg width="90" height="91" viewBox="0 0 90 91" fill="none" xmlns="http://www.w3.org/2000/svg">
<path d="M47.3977 81.6692L8.37952 58.7532C7.70679 58.3796 7.33984 57.8191 7.33984 57.2587C7.33984 57.2587 7.33984 55.3282 7.33984 55.266C7.33984 54.581 7.8291 55.7641 8.80761 55.2037L30.9465 42.1889C32.72 41.1303 35.4109 41.0057 36.9398 41.9398L75.958 64.8558C76.4473 65.1672 76.8754 63.8595 76.9977 64.2954C77.0589 64.4199 76.9977 66.2258 76.9977 66.3504C76.9977 67.0353 76.5084 67.7826 75.5299 68.4053L53.3911 81.4201C51.6175 82.4787 48.9266 82.6033 47.3977 81.6692Z" fill="url(#paint0_linear_4711_8919)"/>
<path d="M47.4008 79.7395L8.38265 56.8235C6.85372 55.8894 7.03718 54.3327 8.81073 53.274L30.9496 40.2592C32.7231 39.2006 35.414 39.0761 36.943 40.0101L75.9612 62.9262C77.4901 63.8602 77.3066 65.417 75.5331 66.4756L53.3942 79.4904C51.6207 80.5491 48.9297 80.6113 47.4008 79.7395Z" fill="url(#paint1_linear_4711_8919)"/>
<path d="M50.0293 79.5511C49.1731 79.5511 48.378 79.3642 47.8276 79.0529L8.80943 56.1369C8.5648 56.0123 8.13672 55.701 8.13672 55.2651C8.13672 54.8292 8.56481 54.331 9.23754 53.9574L31.3764 40.9426C32.1714 40.4444 33.2723 40.1953 34.3731 40.1953C35.2293 40.1953 36.0243 40.3821 36.5747 40.6935L75.5929 63.6095C75.8375 63.734 76.2656 64.0454 76.2656 64.4813C76.2656 64.9172 75.8375 65.4154 75.1648 65.789L53.026 78.8038C52.2309 79.302 51.1301 79.5511 50.0293 79.5511Z" fill="url(#paint2_linear_4711_8919)"/>
<path d="M75.5336 66.1647L53.3948 79.1795C51.6212 80.2381 48.9303 80.3626 47.4014 79.4286L8.38319 56.5125C7.77162 56.1389 7.40467 55.6408 7.34351 55.1426C7.28236 55.7653 7.58815 56.388 8.38319 56.8862L47.4014 79.8022C48.9303 80.7363 51.6212 80.6117 53.3948 79.5531L75.5336 66.5383C76.5733 65.9156 77.0625 65.1061 77.0014 64.4211C76.9402 64.9815 76.451 65.6042 75.5336 66.1647Z" fill="white"/>
<path d="M54.3697 71.2708L22.6904 52.6516C22.0789 52.2779 22.14 51.6552 22.8739 51.2193L34.7384 44.2449C35.4722 43.809 36.5731 43.7467 37.1846 44.1203L68.864 62.7396C69.4755 63.1132 69.4144 63.7359 68.6805 64.1718L56.816 71.1463C56.0821 71.6444 54.9813 71.6444 54.3697 71.2708Z" fill="url(#paint3_linear_4711_8919)"/>
<path opacity="0.3" d="M35.4146 45.5523L37.4328 46.7355C37.6774 46.86 38.1055 46.86 38.3501 46.7355C38.5948 46.6109 38.5948 46.3618 38.3501 46.175L36.3319 44.9918C36.0873 44.8673 35.6592 44.8673 35.4146 44.9918C35.17 45.1787 35.17 45.4277 35.4146 45.5523ZM38.9005 47.6073L39.8791 48.1677C40.1237 48.2923 40.5518 48.2923 40.7964 48.1677C41.041 48.0432 41.041 47.7941 40.7964 47.6073L39.8179 47.0468C39.5733 46.9223 39.1452 46.9223 38.9005 47.0468C38.6559 47.2336 38.6559 47.4827 38.9005 47.6073ZM41.2857 49.0395L42.2642 49.6C42.5088 49.7245 42.9369 49.7245 43.1815 49.6C43.4262 49.4754 43.4262 49.2263 43.1815 49.0395L42.2642 48.4791C42.0196 48.3545 41.5915 48.3545 41.3468 48.4791C41.041 48.6659 41.041 48.915 41.2857 49.0395ZM43.732 50.4718L44.7105 51.0322C44.9551 51.1568 45.3832 51.1568 45.6278 51.0322C45.8724 50.9077 45.8724 50.6586 45.6278 50.4718L44.6493 49.9113C44.4047 49.7868 43.9766 49.7868 43.732 49.9113C43.4873 50.0359 43.4873 50.285 43.732 50.4718ZM46.1171 51.8417L47.0956 52.4022C47.3402 52.5267 47.7683 52.5267 48.0129 52.4022C48.2576 52.2776 48.2576 52.0286 48.0129 51.8417L47.0344 51.2813C46.7898 51.1568 46.3617 51.1568 46.1171 51.2813C45.8724 51.4681 45.8724 51.7172 46.1171 51.8417ZM48.5634 53.274L49.5419 53.8344C49.7865 53.959 50.2146 53.959 50.4592 53.8344C50.7038 53.7099 50.7038 53.4608 50.4592 53.274L49.4807 52.7135C49.2361 52.589 48.808 52.589 48.5634 52.7135C48.3187 52.8381 48.2576 53.1495 48.5634 53.274ZM50.9485 54.7062L51.927 55.2667C52.1716 55.3912 52.5997 55.3912 52.8443 55.2667C53.089 55.1421 53.089 54.8931 52.8443 54.7062L51.8658 54.1458C51.6212 54.0213 51.1931 54.0213 50.9485 54.1458C50.7039 54.2703 50.7039 54.5194 50.9485 54.7062ZM53.3336 56.1385L54.3121 56.6989C54.5568 56.8235 54.9849 56.8235 55.2295 56.6989C55.4741 56.5744 55.4741 56.3253 55.2295 56.1385L54.251 55.578C54.0063 55.4535 53.5782 55.4535 53.3336 55.578C53.089 55.7026 53.089 55.9517 53.3336 56.1385ZM55.7799 57.5085L56.7584 58.0689C57.003 58.1935 57.4311 58.1935 57.6758 58.0689C57.9204 57.9444 57.9204 57.6953 57.6758 57.5085L56.6972 56.948C56.4526 56.8235 56.0245 56.8235 55.7799 56.948C55.4741 57.1348 55.4741 57.3839 55.7799 57.5085ZM58.165 58.9407L59.1435 59.5012C59.3882 59.6257 59.8163 59.6257 60.0609 59.5012C60.3055 59.3766 60.3055 59.1275 60.0609 58.9407L59.0824 58.3803C58.8377 58.2557 58.4096 58.2557 58.165 58.3803C57.9204 58.5671 57.9204 58.8162 58.165 58.9407ZM60.5501 60.373L61.5286 60.9334C61.7733 61.058 62.2014 61.058 62.446 60.9334C62.6906 60.8089 62.6906 60.5598 62.446 60.373L61.4675 59.8125C61.2229 59.688 60.7948 59.688 60.5501 59.8125C60.3055 59.9371 60.3055 60.1862 60.5501 60.373ZM62.9964 61.8052L63.9749 62.3657C64.2196 62.4902 64.6477 62.4902 64.8923 62.3657C65.1369 62.2411 65.1369 61.992 64.8923 61.8052L63.9138 61.2448C63.6691 61.1202 63.241 61.1202 62.9964 61.2448C62.6906 61.3693 62.6906 61.6184 62.9964 61.8052ZM65.4427 63.2375L66.4212 63.7979C66.6658 63.9225 67.0939 63.9225 67.3386 63.7979C67.5832 63.6734 67.5832 63.4243 67.3386 63.2375L66.36 62.677C66.1154 62.5525 65.6873 62.5525 65.4427 62.677C65.1981 62.8016 65.1981 63.0507 65.4427 63.2375ZM33.2741 46.9223L34.1303 47.4204C34.4361 47.6073 34.9253 47.6073 35.17 47.4204L36.0262 46.9223C36.3319 46.7355 36.3319 46.4864 36.0262 46.2996L35.17 45.8014C34.8642 45.6146 34.3749 45.6146 34.1303 45.8014L33.2741 46.2996C32.9683 46.4864 32.9683 46.7355 33.2741 46.9223ZM37.5551 48.8527L38.4113 48.3545C38.7171 48.1677 38.7171 47.9186 38.4113 47.7318L37.5551 47.2336C37.2493 47.0468 36.7601 47.0468 36.5154 47.2336L35.6592 47.7318C35.3534 47.9186 35.3534 48.1677 35.6592 48.3545L36.5154 48.8527C36.8212 48.9772 37.2493 48.9772 37.5551 48.8527ZM38.1055 49.7868L38.9617 50.2849C39.2675 50.4718 39.7567 50.4718 40.0014 50.2849L40.8576 49.7868C41.1634 49.6 41.1634 49.3509 40.8576 49.1641L40.0014 48.6659C39.6956 48.4791 39.2063 48.4791 38.9617 48.6659L38.1055 49.1641C37.7997 49.2886 37.7997 49.6 38.1055 49.7868ZM40.4906 51.1567L41.3468 51.6549C41.6526 51.8417 42.1419 51.8417 42.3865 51.6549L43.2427 51.1567C43.5485 50.9699 43.5485 50.7208 43.2427 50.534L42.3865 50.0359C42.0807 49.849 41.5915 49.849 41.3468 50.0359L40.4906 50.534C40.1849 50.7208 40.1849 50.9699 40.4906 51.1567ZM45.6278 51.9663L44.7716 51.4681C44.4658 51.2813 43.9766 51.2813 43.732 51.4681L42.8758 51.9663C42.57 52.1531 42.57 52.4022 42.8758 52.589L43.732 53.0872C44.0377 53.274 44.527 53.274 44.7716 53.0872L45.6278 52.589C45.9336 52.4022 45.9336 52.1531 45.6278 51.9663ZM48.0129 53.3985L47.1567 52.9004C46.851 52.7136 46.3617 52.7136 46.1171 52.9004L45.2609 53.3985C44.9551 53.5853 44.9551 53.8344 45.2609 54.0213L46.1171 54.5194C46.4229 54.7063 46.9121 54.7063 47.1567 54.5194L48.0129 54.0213C48.3187 53.8344 48.3187 53.5853 48.0129 53.3985ZM50.3981 54.8308L49.5419 54.3326C49.2361 54.1458 48.7468 54.1458 48.5022 54.3326L47.646 54.8308C47.3402 55.0176 47.3402 55.2667 47.646 55.4535L48.5022 55.9517C48.808 56.1385 49.2972 56.1385 49.5419 55.9517L50.3981 55.4535C50.7038 55.2667 50.7038 54.9553 50.3981 54.8308ZM52.8443 56.2008L51.9881 55.7026C51.6824 55.5158 51.1931 55.5158 50.9485 55.7026L50.0923 56.2008C49.7865 56.3876 49.7865 56.6367 50.0923 56.8235L50.9485 57.3217C51.2543 57.5085 51.7435 57.5085 51.9881 57.3217L52.8443 56.8235C53.1501 56.6367 53.1501 56.3876 52.8443 56.2008ZM55.2295 57.633L54.3733 57.1348C54.0675 56.948 53.5782 56.948 53.3336 57.1348L52.4774 57.633C52.1716 57.8198 52.1716 58.0689 52.4774 58.2557L53.3336 58.7539C53.6394 58.9407 54.1286 58.9407 54.3733 58.7539L55.2295 58.2557C55.5353 58.0689 55.5353 57.8198 55.2295 57.633ZM57.6758 59.0653L56.8195 58.5671C56.5138 58.3803 56.0245 58.3803 55.7799 58.5671L54.9237 59.0653C54.6179 59.2521 54.6179 59.5012 54.9237 59.688L55.7799 60.1862C56.0857 60.373 56.5749 60.373 56.8195 60.1862L57.6758 59.688C57.9204 59.5012 57.9204 59.1898 57.6758 59.0653ZM57.3088 61.058L58.165 61.5561C58.4708 61.743 58.9601 61.743 59.2047 61.5561L60.0609 61.058C60.3667 60.8712 60.3667 60.6221 60.0609 60.4353L59.2047 59.9371C58.8989 59.7503 58.4096 59.7503 58.165 59.9371L57.3088 60.4353C57.0642 60.6221 57.0642 60.9334 57.3088 61.058ZM62.446 61.8675L61.5898 61.3693C61.284 61.1825 60.7948 61.1825 60.5501 61.3693L59.6939 61.8675C59.3881 62.0543 59.3881 62.3034 59.6939 62.4902L60.5501 62.9884C60.8559 63.1752 61.3452 63.1752 61.5898 62.9884L62.446 62.4902C62.7518 62.3034 62.7518 62.0543 62.446 61.8675ZM65.9931 63.9225L64.0972 62.8016C63.7915 62.6148 63.3022 62.6148 63.0576 62.8016L62.2014 63.2997C61.8956 63.4866 61.8956 63.7356 62.2014 63.9225L64.0972 65.0434C64.403 65.2302 64.8923 65.2302 65.1369 65.0434L65.9931 64.5452C66.2989 64.4206 66.2989 64.1093 65.9931 63.9225ZM31.0113 48.23L32.9072 49.3509C33.213 49.5377 33.7022 49.5377 33.9468 49.3509L34.803 48.8527C35.1088 48.6659 35.1088 48.4168 34.803 48.23L32.9072 47.1091C32.6014 46.9223 32.1121 46.9223 31.8675 47.1091L31.0113 47.6073C30.7667 47.7941 30.7667 48.0432 31.0113 48.23ZM34.4972 50.2849L35.3534 50.7831C35.6592 50.9699 36.1485 50.9699 36.3931 50.7831L37.2493 50.2849C37.5551 50.0981 37.5551 49.849 37.2493 49.6622L36.3931 49.1641C36.0873 48.9772 35.5981 48.9772 35.3534 49.1641L34.4972 49.6622C34.1915 49.849 34.1915 50.0981 34.4972 50.2849ZM37.7386 52.2154C38.0444 52.4022 38.5336 52.4022 38.7782 52.2154L39.6344 51.7172C39.9402 51.5304 39.9402 51.2813 39.6344 51.0945L38.7782 50.5963C38.4724 50.4095 37.9832 50.4095 37.7386 50.5963L36.8824 51.0945C36.5766 51.2813 36.5766 51.5304 36.8824 51.7172L37.7386 52.2154ZM40.1849 53.5854C40.4906 53.7722 40.9799 53.7722 41.2245 53.5854L42.0807 53.0872C42.3865 52.9004 42.3865 52.6513 42.0807 52.4645L41.2245 51.9663C40.9187 51.7795 40.4295 51.7795 40.1849 51.9663L39.3287 52.4645C39.0229 52.6513 39.0229 52.9004 39.3287 53.0872L40.1849 53.5854ZM42.57 53.3985L41.7138 53.8967C41.408 54.0835 41.408 54.3326 41.7138 54.5194L42.57 55.0176C42.8758 55.2044 43.365 55.2044 43.6096 55.0176L44.4658 54.5194C44.7716 54.3326 44.7716 54.0835 44.4658 53.8967L43.6096 53.3985C43.3039 53.274 42.8758 53.274 42.57 53.3985ZM45.0163 54.8308L44.0989 55.329C43.8543 55.4535 43.8543 55.7649 44.0989 55.8894L45.0163 56.4498C45.2609 56.6367 45.689 56.6367 45.9948 56.4498L46.9121 55.8894C47.1568 55.7649 47.1568 55.4535 46.9121 55.329L45.9948 54.7685C45.689 54.644 45.2609 54.644 45.0163 54.8308ZM47.4014 56.2008L46.484 56.7612C46.2394 56.8857 46.2394 57.1971 46.484 57.3217L47.4014 57.8821C47.646 58.0689 48.0741 58.0689 48.3799 57.8821L49.2972 57.3217C49.5419 57.1971 49.5419 56.8857 49.2972 56.7612L48.3799 56.2008C48.1353 56.0762 47.7072 56.0762 47.4014 56.2008ZM49.8477 57.633L48.9303 58.1935C48.6857 58.318 48.6857 58.6294 48.9303 58.7539L49.8477 59.3144C50.0923 59.5012 50.5204 59.5012 50.8262 59.3144L51.7435 58.7539C51.9882 58.6294 51.9882 58.318 51.7435 58.1935L50.8262 57.633C50.5204 57.5085 50.0923 57.5085 49.8477 57.633ZM52.2328 59.0653L51.3154 59.6257C51.0708 59.7503 51.0708 60.0616 51.3154 60.1862L52.2328 60.7466C52.4774 60.9334 52.9055 60.9334 53.2113 60.7466L54.1286 60.1862C54.3733 60.0616 54.3733 59.7503 54.1286 59.6257L53.2113 59.0653C52.9055 58.8785 52.4774 58.8785 52.2328 59.0653ZM54.6179 60.4353L53.7006 60.9957C53.4559 61.1202 53.4559 61.4316 53.7006 61.5561L54.6179 62.1166C54.8625 62.3034 55.2906 62.3034 55.5964 62.1166L56.5138 61.5561C56.7584 61.4316 56.7584 61.1202 56.5138 60.9957L55.5964 60.4353C55.3518 60.3107 54.9237 60.3107 54.6179 60.4353ZM58.0427 63.5488L58.96 62.9884C59.2047 62.8638 59.2047 62.5525 58.96 62.4279L58.0427 61.8675C57.7981 61.6807 57.37 61.6807 57.0642 61.8675L56.1468 62.4279C55.9022 62.5525 55.9022 62.8638 56.1468 62.9884L57.0642 63.5488C57.3088 63.6734 57.7369 63.6734 58.0427 63.5488ZM60.4278 64.9811L61.3452 64.4206C61.5898 64.2961 61.5898 63.9847 61.3452 63.8602L60.4278 63.2997C60.1832 63.1129 59.7551 63.1129 59.4493 63.2997L58.532 63.8602C58.2873 63.9847 58.2873 64.2961 58.532 64.4206L59.4493 64.9811C59.7551 65.1056 60.1832 65.1056 60.4278 64.9811ZM63.7915 65.2924L62.8741 64.732C62.6295 64.5452 62.2014 64.5452 61.8956 64.732L60.9782 65.2924C60.7336 65.417 60.7336 65.7283 60.9782 65.8529L61.8956 66.4133C62.1402 66.6001 62.5683 66.6001 62.8741 66.4133L63.7915 65.8529C64.0972 65.7283 64.0972 65.417 63.7915 65.2924ZM28.7485 49.5377L31.7452 51.2813C31.9898 51.4681 32.4179 51.4681 32.7237 51.2813L33.641 50.7209C33.8857 50.5963 33.8857 50.285 33.641 50.1604L30.6444 48.4168C30.3997 48.23 29.9716 48.23 29.6658 48.4168L28.7485 48.9772C28.5039 49.1018 28.5039 49.3509 28.7485 49.5377ZM33.213 52.1531L34.1303 52.7135C34.3749 52.9004 34.803 52.9004 35.1088 52.7135L36.0262 52.1531C36.2708 52.0286 36.2708 51.7172 36.0262 51.5927L35.1088 51.0322C34.8642 50.8454 34.4361 50.8454 34.1303 51.0322L33.213 51.5927C32.9683 51.7795 32.9683 52.0286 33.213 52.1531ZM35.6592 53.5854L36.5766 54.1458C36.8212 54.3326 37.2493 54.3326 37.5551 54.1458L38.4724 53.5854C38.7171 53.4608 38.7171 53.1494 38.4724 53.0249L37.5551 52.4645C37.3105 52.2776 36.8824 52.2776 36.5766 52.4645L35.6592 53.0249C35.3534 53.1494 35.4146 53.3985 35.6592 53.5854ZM38.0444 55.0176L38.9617 55.578C39.2063 55.7649 39.6344 55.7649 39.9402 55.578L40.8576 55.0176C41.1022 54.8931 41.1022 54.5817 40.8576 54.4572L39.9402 53.8967C39.6956 53.7099 39.2675 53.7099 38.9617 53.8967L38.0444 54.4572C37.7997 54.5817 37.7997 54.8308 38.0444 55.0176ZM42.3865 56.948L43.3039 56.3876C43.5485 56.263 43.5485 55.9517 43.3039 55.8271L42.3865 55.2667C42.1419 55.0799 41.7138 55.0799 41.408 55.2667L40.4906 55.8271C40.246 55.9517 40.246 56.263 40.4906 56.3876L41.408 56.948C41.6526 57.1348 42.0807 57.1348 42.3865 56.948ZM44.7716 58.3803L45.689 57.8198C45.9336 57.6953 45.9336 57.3839 45.689 57.2594L44.7716 56.6989C44.527 56.5121 44.0989 56.5121 43.7931 56.6989L42.8758 57.2594C42.6311 57.3839 42.6311 57.6953 42.8758 57.8198L43.7931 58.3803C44.0989 58.5048 44.527 58.5048 44.7716 58.3803ZM47.1567 59.8125L48.0741 59.2521C48.3187 59.1275 48.3187 58.8162 48.0741 58.6916L47.1567 58.1312C46.9121 57.9444 46.484 57.9444 46.1782 58.1312L45.2609 58.6916C45.0162 58.8162 45.0162 59.1275 45.2609 59.2521L46.1782 59.8125C46.484 59.9371 46.9121 59.9371 47.1567 59.8125ZM49.603 61.1825L50.5204 60.6221C50.765 60.4975 50.765 60.1862 50.5204 60.0616L49.603 59.5012C49.3584 59.3144 48.9303 59.3144 48.6245 59.5012L47.7072 60.0616C47.4625 60.1862 47.4625 60.4975 47.7072 60.6221L48.6245 61.1825C48.8691 61.3693 49.2972 61.3693 49.603 61.1825ZM51.9881 62.6148L52.9055 62.0543C53.1501 61.9298 53.1501 61.6184 52.9055 61.4939L51.9881 60.9334C51.7435 60.7466 51.3154 60.7466 51.0096 60.9334L50.0923 61.4939C49.8476 61.6184 49.8476 61.9298 50.0923 62.0543L51.0096 62.6148C51.3154 62.8016 51.7435 62.8016 51.9881 62.6148ZM54.3733 64.047L55.2906 63.4866C55.5353 63.362 55.5353 63.0507 55.2906 62.9261L54.3733 62.3657C54.1286 62.1788 53.7006 62.1788 53.3948 62.3657L52.4774 62.9261C52.2328 63.0507 52.2328 63.362 52.4774 63.4866L53.3948 64.047C53.7006 64.1716 54.1286 64.1716 54.3733 64.047ZM54.9237 64.9188L55.8411 65.4793C56.0857 65.6661 56.5138 65.6661 56.8195 65.4793L57.7369 64.9188C57.9815 64.7943 57.9815 64.4829 57.7369 64.3584L56.8195 63.7979C56.5749 63.6111 56.1468 63.6111 55.8411 63.7979L54.9237 64.3584C54.6179 64.4829 54.6179 64.732 54.9237 64.9188ZM61.5898 66.6002L59.2047 65.2302C58.9601 65.0434 58.532 65.0434 58.2262 65.2302L57.3088 65.7906C57.0642 65.9152 57.0642 66.2265 57.3088 66.3511L59.6939 67.721C59.9386 67.9079 60.3667 67.9079 60.6725 67.721L61.5898 67.1606C61.8344 67.0361 61.8344 66.787 61.5898 66.6002ZM26.5468 50.9077L30.8278 53.3985C31.1336 53.5853 31.6229 53.5853 31.9287 53.3985L32.7237 52.9004C33.0295 52.7136 33.0295 52.4645 32.7237 52.2776L28.4427 49.7868C28.1369 49.6 27.6477 49.6 27.3419 49.7868L26.5468 50.2849C26.241 50.4095 26.241 50.7208 26.5468 50.9077ZM32.4179 54.3326L33.213 54.8308C33.5187 55.0176 34.008 55.0176 34.3138 54.8308L35.1088 54.3326C35.4146 54.1458 35.4146 53.8967 35.1088 53.7099L34.3138 53.2117C34.008 53.0249 33.5187 53.0249 33.213 53.2117L32.4179 53.7099C32.1121 53.8967 32.1121 54.2081 32.4179 54.3326ZM34.803 55.7649L35.5981 56.263C35.9039 56.4499 36.3931 56.4499 36.6989 56.263L37.4939 55.7649C37.7997 55.5781 37.7997 55.329 37.4939 55.1422L36.6989 54.644C36.3931 54.4572 35.9039 54.4572 35.5981 54.644L34.803 55.1422C34.4972 55.329 34.4972 55.5781 34.803 55.7649ZM37.2493 57.1971L38.0444 57.6953C38.3501 57.8821 38.8394 57.8821 39.1452 57.6953L39.9402 57.1971C40.246 57.0103 40.246 56.7612 39.9402 56.5744L39.1452 56.0762C38.8394 55.8894 38.3501 55.8894 38.0444 56.0762L37.2493 56.5744C36.9435 56.6989 36.9435 57.0103 37.2493 57.1971ZM39.6344 58.6294L40.4295 59.1275C40.7353 59.3144 41.2245 59.3144 41.5303 59.1275L42.3253 58.6294C42.6311 58.4425 42.6311 58.1935 42.3253 58.0066L41.5303 57.5085C41.2245 57.3217 40.7353 57.3217 40.4295 57.5085L39.6344 58.0066C39.3287 58.1312 39.3287 58.4425 39.6344 58.6294ZM42.0196 59.9993L42.8146 60.4975C43.1204 60.6843 43.6096 60.6843 43.9154 60.4975L44.7105 59.9993C45.0163 59.8125 45.0163 59.5634 44.7105 59.3766L43.9154 58.8785C43.6096 58.6916 43.1204 58.6916 42.8146 58.8785L42.0196 59.3766C41.7138 59.5634 41.7138 59.8125 42.0196 59.9993ZM44.4658 61.4316L45.2609 61.9298C45.5667 62.1166 46.0559 62.1166 46.3617 61.9298L47.1567 61.4316C47.4625 61.2448 47.4625 60.9957 47.1567 60.8089L46.3617 60.3107C46.0559 60.1239 45.5667 60.1239 45.2609 60.3107L44.4658 60.8089C44.1601 60.9957 44.1601 61.2448 44.4658 61.4316ZM46.851 62.8638L47.646 63.362C47.9518 63.5488 48.441 63.5488 48.7468 63.362L49.5419 62.8638C49.8477 62.677 49.8477 62.4279 49.5419 62.2411L48.7468 61.7429C48.441 61.5561 47.9518 61.5561 47.646 61.7429L46.851 62.2411C46.5452 62.3657 46.5452 62.677 46.851 62.8638ZM49.2361 64.2338L50.0311 64.732C50.3369 64.9188 50.8262 64.9188 51.132 64.732L51.927 64.2338C52.2328 64.047 52.2328 63.7979 51.927 63.6111L51.132 63.1129C50.8262 62.9261 50.3369 62.9261 50.0311 63.1129L49.2361 63.6111C48.9915 63.7979 48.9915 64.1093 49.2361 64.2338ZM51.6824 65.6661L52.4774 66.1642C52.7832 66.3511 53.2724 66.3511 53.5782 66.1642L54.3733 65.6661C54.6791 65.4793 54.6791 65.2302 54.3733 65.0434L53.5782 64.5452C53.2724 64.3584 52.7832 64.3584 52.4774 64.5452L51.6824 65.0434C51.3766 65.2302 51.3766 65.4793 51.6824 65.6661ZM54.0675 67.0983L54.8625 67.5965C55.1683 67.7833 55.6576 67.7833 55.9634 67.5965L56.7584 67.0983C57.0642 66.9115 57.0642 66.6624 56.7584 66.4756L55.9634 65.9774C55.6576 65.7906 55.1683 65.7906 54.8625 65.9774L54.0675 66.4756C53.7617 66.6001 53.7617 66.9115 54.0675 67.0983ZM59.2047 67.9079L58.4096 67.4097C58.1039 67.2229 57.6146 67.2229 57.3088 67.4097L56.5138 67.9079C56.208 68.0947 56.208 68.3438 56.5138 68.5306L57.3088 69.0288C57.6146 69.2156 58.1039 69.2156 58.4096 69.0288L59.2047 68.5306C59.5105 68.3438 59.5105 68.0947 59.2047 67.9079ZM28.0758 52.2154L26.1799 51.0945C25.8741 50.9077 25.3848 50.9077 25.0791 51.0945L24.284 51.5927C23.9782 51.7795 23.9782 52.0286 24.284 52.2154L26.1799 53.3363C26.4857 53.5231 26.9749 53.5231 27.2807 53.3363L28.0758 52.8381C28.3815 52.6513 28.3815 52.4022 28.0758 52.2154ZM30.4609 53.6476L29.6658 53.1495C29.3601 52.9626 28.8708 52.9626 28.565 53.1495L27.77 53.6476C27.4642 53.8344 27.4642 54.0835 27.77 54.2703L28.565 54.7685C28.8708 54.9553 29.3601 54.9553 29.6658 54.7685L30.4609 54.2703C30.7667 54.0835 30.7667 53.7722 30.4609 53.6476ZM32.9072 55.0176L32.1121 54.5194C31.8063 54.3326 31.3171 54.3326 31.0113 54.5194L30.2162 55.0176C29.9105 55.2044 29.9105 55.4535 30.2162 55.6403L31.0113 56.1385C31.3171 56.3253 31.8063 56.3253 32.1121 56.1385L32.9072 55.6403C33.1518 55.5158 33.1518 55.2044 32.9072 55.0176ZM49.7253 64.9188L34.4972 55.9517C34.1915 55.7649 33.7022 55.7649 33.3964 55.9517L32.6014 56.4498C32.2956 56.6367 32.2956 56.8857 32.6014 57.0726L47.8295 66.0397C48.1353 66.2265 48.6245 66.2265 48.9303 66.0397L49.7253 65.5415C50.0311 65.417 50.0311 65.1056 49.7253 64.9188ZM52.1105 66.3511L51.3154 65.8529C51.0096 65.6661 50.5204 65.6661 50.2146 65.8529L49.4196 66.3511C49.1138 66.5379 49.1138 66.787 49.4196 66.9738L50.2146 67.472C50.5204 67.6588 51.0096 67.6588 51.3154 67.472L52.1105 66.9738C52.4163 66.8492 52.4163 66.5379 52.1105 66.3511ZM54.5567 67.7833L53.7617 67.2852C53.4559 67.0983 52.9667 67.0983 52.6609 67.2852L51.8658 67.7833C51.5601 67.9701 51.5601 68.2192 51.8658 68.406L52.6609 68.9042C52.9667 69.091 53.4559 69.091 53.7617 68.9042L54.5567 68.406C54.8625 68.2192 54.8625 67.9701 54.5567 67.7833ZM57.003 69.2156L56.208 68.7174C55.9022 68.5306 55.4129 68.5306 55.1072 68.7174L54.3121 69.2156C54.0063 69.4024 54.0063 69.6515 54.3121 69.8383L55.1072 70.3365C55.4129 70.5233 55.9022 70.5233 56.208 70.3365L57.003 69.8383C57.3088 69.6515 57.3088 69.4024 57.003 69.2156Z" fill="#B8B8B8"/>
<path d="M75.3507 62.6146L37.7391 40.5082C36.2714 39.6364 35.1094 37.3323 35.1094 35.4019V5.38688C35.1094 3.39418 36.2714 2.52238 37.7391 3.33191L75.3507 25.4384C76.8185 26.3102 77.9805 28.6143 77.9805 30.5447V60.5597C77.9805 62.5524 76.8185 63.4865 75.3507 62.6146Z" fill="url(#paint4_linear_4711_8919)"/>
<path d="M75.72 61.0567L38.5365 39.1993C37.3745 38.452 36.6406 36.9575 36.6406 35.4007V5.26116C36.6406 4.88753 37.0076 4.63843 37.3745 4.82525C37.4357 4.82525 37.4357 4.88752 37.4357 4.88752L74.6803 26.8072C76.0869 27.6167 76.5762 29.049 76.5762 30.6058V60.683C76.5762 61.0567 76.1481 61.3057 75.8423 61.1189C75.7811 61.1189 75.72 61.1189 75.72 61.0567Z" fill="url(#paint5_linear_4711_8919)"/>
<path d="M74.6191 26.7449L37.4357 4.88752C37.4357 4.88752 37.3745 4.88752 37.3745 4.82525C37.0687 4.63843 36.6406 4.88753 36.6406 5.26116V35.4007C36.6406 36.9575 37.3745 38.452 38.5365 39.1993L75.72 61.0567C75.72 61.0567 75.7811 61.0566 75.7811 61.1189C76.0869 61.3057 76.515 61.0567 76.515 60.683V30.6058C76.515 29.049 76.0258 27.5544 74.6191 26.7449ZM76.2092 60.683C76.2092 60.8076 76.0869 60.8698 76.0258 60.8698C75.9646 60.8698 75.9646 60.8698 75.9034 60.8698L38.6588 38.9502C37.6191 38.2652 36.8853 36.8952 36.8853 35.4007V5.26116C36.8853 5.13661 36.9464 5.07433 37.0687 5.07433H37.1299L74.4357 26.994C75.9035 27.8658 76.2092 29.4226 76.2092 30.5435V60.683Z" fill="#121212"/>
<path d="M76.1451 25.0641L38.5336 2.95766C37.9831 2.6463 37.4327 2.58403 37.0046 2.70858C36.9435 2.70858 36.2096 3.14449 36.1484 3.14449C36.5765 2.8954 37.1881 2.95766 37.7997 3.33129L75.4113 25.4378C76.879 26.3096 78.041 28.6136 78.041 30.5441V60.559C78.041 61.8045 77.5517 62.614 76.879 62.8631C76.9402 62.8631 77.0013 62.8631 77.1236 62.8008C77.1848 62.8008 77.9798 62.3027 77.9798 62.3027C78.4691 61.929 78.7749 61.1818 78.7749 60.1854V30.1704C78.7749 28.1777 77.5517 25.8737 76.1451 25.0641Z" fill="url(#paint6_linear_4711_8919)"/>
<path d="M75.4751 25.375L37.8635 3.26851C37.2519 2.89487 36.7015 2.89488 36.2734 3.0817C36.6404 3.01943 37.0685 3.14397 37.5577 3.39306L75.1693 25.4995C76.6371 26.3713 77.7991 28.6754 77.7991 30.6058V60.6208C77.7991 61.804 77.3709 62.5512 76.7594 62.8626C77.5544 62.7381 78.1048 61.8662 78.1048 60.5585V30.5436C78.166 28.5509 76.9428 26.2468 75.4751 25.375Z" fill="url(#paint7_radial_4711_8919)"/>
<defs>
<linearGradient id="paint0_linear_4711_8919" x1="90.018" y1="114.043" x2="23.0486" y2="120.05" gradientUnits="userSpaceOnUse">
<stop offset="0.0555556" stop-color="#3E3D3E"/>
<stop offset="0.157789" stop-color="#111111"/>
<stop offset="0.2575" stop-color="#686868"/>
<stop offset="0.3569" stop-color="#868686"/>
<stop offset="0.4338" stop-color="#646464"/>
<stop offset="0.4949" stop-color="#535353"/>
<stop offset="0.5067" stop-color="#585858"/>
<stop offset="0.5196" stop-color="#919191"/>
<stop offset="0.5329" stop-color="#D6D6D6"/>
<stop offset="0.5466" stop-color="#FCFCFC"/>
<stop offset="0.5556" stop-color="white"/>
<stop offset="0.5678" stop-color="#D3D3D3"/>
<stop offset="0.5801" stop-color="#BCBCBC"/>
<stop offset="0.5915" stop-color="#A5A3A6"/>
<stop offset="0.601" stop-color="#A3A3A3"/>
<stop offset="0.658" stop-color="#707070"/>
<stop offset="0.7155" stop-color="#575757"/>
<stop offset="0.7687" stop-color="#676767"/>
<stop offset="0.8131" stop-color="#6D6D6D"/>
</linearGradient>
<linearGradient id="paint1_linear_4711_8919" x1="7.35759" y1="59.868" x2="77.0316" y2="59.868" gradientUnits="userSpaceOnUse">
<stop stop-color="#4F4F4F"/>
<stop offset="0.1367" stop-color="#747474"/>
<stop offset="0.3288" stop-color="#898989"/>
<stop offset="0.5529" stop-color="#595959"/>
<stop offset="0.7644" stop-color="#444343"/>
<stop offset="1" stop-color="#484848"/>
</linearGradient>
<linearGradient id="paint2_linear_4711_8919" x1="57.5171" y1="20.3343" x2="-7.8992" y2="87.3505" gradientUnits="userSpaceOnUse">
<stop stop-color="#2B2B2B"/>
<stop offset="0.2" stop-color="#555555"/>
<stop offset="0.4" stop-color="#626262"/>
<stop offset="0.6" stop-color="#4D4D4D"/>
<stop offset="0.8" stop-color="#424242"/>
<stop offset="1" stop-color="#FEFEFE"/>
</linearGradient>
<linearGradient id="paint3_linear_4711_8919" x1="41.9325" y1="68.1838" x2="42.9257" y2="44.6418" gradientUnits="userSpaceOnUse">
<stop stop-color="#404040"/>
<stop offset="1" stop-color="#1F1F1F"/>
</linearGradient>
<linearGradient id="paint4_linear_4711_8919" x1="35.1155" y1="32.995" x2="78.0023" y2="32.995" gradientUnits="userSpaceOnUse">
<stop stop-color="#505050"/>
<stop offset="0.1367" stop-color="#747474"/>
<stop offset="0.3288" stop-color="#898989"/>
<stop offset="0.5529" stop-color="#858585"/>
<stop offset="0.7644" stop-color="#878787"/>
<stop offset="1" stop-color="#7C7C7C"/>
</linearGradient>
<linearGradient id="paint5_linear_4711_8919" x1="24.1258" y1="-5.94584" x2="81.511" y2="66.9689" gradientUnits="userSpaceOnUse">
<stop offset="0.010101" stop-color="#797979"/>
<stop offset="1" stop-color="#555555"/>
</linearGradient>
<linearGradient id="paint6_linear_4711_8919" x1="113.247" y1="4.90124" x2="72.2974" y2="-11.7001" gradientUnits="userSpaceOnUse">
<stop stop-color="#686868"/>
<stop offset="0.0555556" stop-color="#3E3D3E"/>
<stop offset="0.0938962" stop-color="#646464"/>
<stop offset="0.157789" stop-color="#111111"/>
<stop offset="0.3569" stop-color="#868686"/>
<stop offset="0.4949" stop-color="#535353"/>
<stop offset="0.5067" stop-color="#585858"/>
<stop offset="0.5196" stop-color="#919191"/>
<stop offset="0.5329" stop-color="#D6D6D6"/>
<stop offset="0.5466" stop-color="#FCFCFC"/>
<stop offset="0.5556" stop-color="white"/>
<stop offset="0.5678" stop-color="#D3D3D3"/>
<stop offset="0.5801" stop-color="#BCBCBC"/>
<stop offset="0.5915" stop-color="#A5A3A6"/>
<stop offset="0.601" stop-color="#A3A3A3"/>
<stop offset="0.658" stop-color="#707070"/>
<stop offset="0.7155" stop-color="#575757"/>
<stop offset="0.7687" stop-color="#676767"/>
<stop offset="0.8131" stop-color="#6D6D6D"/>
</linearGradient>
<radialGradient id="paint7_radial_4711_8919" cx="0" cy="0" r="1" gradientUnits="userSpaceOnUse" gradientTransform="translate(77.1016 28.6715) scale(6.05528 6.16565)">
<stop stop-color="white"/>
<stop offset="1"/>
</radialGradient>
</defs>
</svg>
