<svg width="90" height="91" viewBox="0 0 90 91" fill="none" xmlns="http://www.w3.org/2000/svg">
<path opacity="0.2" d="M82.4049 46.7506L40.2857 72.5582C36.7547 74.7222 32.7573 75.8547 28.6918 75.843C24.6262 75.8313 20.6346 74.6757 17.1144 72.4913L7.27725 66.4072C7.05129 66.2646 6.864 66.061 6.73384 65.8167C6.60367 65.5723 6.53516 65.2958 6.53516 65.0143C6.53516 64.7328 6.60367 64.4562 6.73384 64.2119C6.864 63.9676 7.05129 63.7641 7.27725 63.6214L59.9496 30.8493C60.1784 30.7075 60.4379 30.6328 60.702 30.6328C60.9661 30.6328 61.2255 30.7075 61.4543 30.8493L82.4153 43.9648C82.6408 44.1085 82.8273 44.3128 82.9566 44.5577C83.0858 44.8026 83.1533 45.0795 83.1522 45.3609C83.1512 45.6424 83.0817 45.9187 82.9506 46.1625C82.8195 46.4062 82.6314 46.609 82.4049 46.7506Z" fill="#16032E"/>
<path d="M80.7588 42.5747L75.8945 39.6374L78.0789 36.6035C78.0789 36.6035 81.6487 40.2698 81.5375 40.57C81.4262 40.8702 80.7588 42.5747 80.7588 42.5747Z" fill="#161616"/>
<path d="M43.9986 65.6069L36.375 60.8382C36.375 60.8382 41.6182 57.9297 41.8384 57.9297C42.0586 57.9297 45.2464 60.1844 45.2464 60.1844L43.9986 65.6069Z" fill="#161616"/>
<path d="M32.3572 68.0175C32.3074 68.5627 32.3964 69.1118 32.6159 69.6126C32.8355 70.1134 33.1782 70.5493 33.6117 70.8792L36.0887 72.3154C36.8966 72.7762 36.3757 71.7473 37.5982 71.0292C38.8985 70.1809 39.9816 69.0349 40.7593 67.6846C41.537 66.3343 41.9874 64.8178 42.0737 63.2588C42.0737 61.8441 43.3601 61.8334 42.5734 61.3618L39.9795 59.8934C39.4726 59.675 38.9183 59.5928 38.3705 59.6548C37.8228 59.7168 37.3003 59.9209 36.854 60.2471C35.5498 61.0931 34.4626 62.2381 33.6811 63.5885C32.8996 64.939 32.4459 66.4566 32.3572 68.0175Z" fill="#121212"/>
<path d="M34.7617 69.9946C34.7617 72.9351 36.7554 74.129 39.2027 72.6477C40.4898 71.7702 41.5616 70.5873 42.3313 69.195C43.101 67.8026 43.547 66.2399 43.6332 64.6333C43.6332 61.6818 41.65 60.499 39.2027 61.9802C37.9142 62.8572 36.8409 64.0397 36.0694 65.4319C35.2979 66.8242 34.8499 68.3873 34.7617 69.9946Z" fill="url(#paint0_linear_4711_1862)"/>
<path style="mix-blend-mode:screen" d="M39.0778 61.9277C39.4983 61.6217 39.9885 61.428 40.5029 61.3647C41.0173 61.3013 41.5392 61.3702 42.0202 61.5651C41.5794 61.4725 41.1248 61.4697 40.6829 61.5568C40.2411 61.644 39.8208 61.8193 39.4469 62.0727C38.196 62.895 37.1544 64.0033 36.4063 65.3081C35.6583 66.6128 35.2248 68.0771 35.141 69.5825C35.0776 70.138 35.1709 70.7003 35.4104 71.2043C35.6499 71.7084 36.0257 72.1337 36.4943 72.4311C35.4691 72.1307 34.7617 71.0742 34.7617 69.4376C34.845 67.9308 35.2793 66.4652 36.0293 65.1602C36.7794 63.8551 37.8239 62.7476 39.0778 61.9277Z" fill="url(#paint1_radial_4711_1862)"/>
<path style="mix-blend-mode:multiply" d="M36.375 68.9967C36.375 71.258 37.821 72.253 39.606 71.0884C40.5435 70.3965 41.3239 69.4635 41.8836 68.3653C42.4432 67.2671 42.7665 66.0347 42.827 64.7682C42.827 62.5069 41.391 61.5232 39.606 62.6877C38.6673 63.3766 37.8854 64.3071 37.324 65.4034C36.7625 66.4998 36.4374 67.731 36.375 68.9967ZM38.509 67.5382V67.6739C38.5042 67.8201 38.4549 67.96 38.3694 68.0696L37.3722 69.4829C37.2226 69.6977 37.0232 69.7203 36.9833 69.4829C36.9119 69.2038 36.8782 68.9141 36.8835 68.6236C36.8827 68.2887 36.9162 67.9548 36.9833 67.6286C36.9833 67.3799 37.2226 67.1538 37.3722 67.1651L38.3694 67.2668C38.4592 67.3234 38.509 67.4365 38.509 67.5382ZM37.6714 65.6613C37.997 65.0083 38.4147 64.4202 38.9079 63.9202C39.0774 63.7506 39.2469 63.8071 39.2469 64.0332V65.537C39.24 65.6882 39.1872 65.832 39.0974 65.944L39.0076 66.0683C38.9784 66.1238 38.9378 66.1703 38.8891 66.2038C38.8404 66.2373 38.7853 66.2568 38.7284 66.2606L37.7312 66.1588C37.5816 66.1475 37.5517 65.8988 37.6714 65.6613ZM40.304 63.0157C40.5048 62.9409 40.7167 62.9123 40.9274 62.9318C41.138 62.9512 41.3431 63.0181 41.5306 63.1287C41.6602 63.2079 41.6203 63.5018 41.4708 63.7167L40.4735 65.1186C40.4432 65.172 40.402 65.2162 40.3534 65.2477C40.3048 65.2792 40.2502 65.297 40.1943 65.2995H40.1046C40.0148 65.2995 39.965 65.2091 39.965 65.0734V63.581C39.9628 63.463 39.9908 63.3467 40.0457 63.2464C40.1005 63.146 40.1799 63.0659 40.2741 63.0157H40.304ZM42.2287 64.2367C42.2917 64.5213 42.3218 64.814 42.3184 65.1073C42.3172 65.4415 42.2871 65.7748 42.2287 66.1023C42.1788 66.351 41.9893 66.5771 41.8397 66.5545L40.8425 66.4641C40.799 66.4533 40.7611 66.4235 40.7368 66.3812C40.7126 66.3389 40.704 66.2874 40.7129 66.238V66.1023C40.715 65.9541 40.7606 65.8109 40.8425 65.6953L41.8397 64.2932C41.9893 64.0445 42.1788 64.0445 42.2685 64.2367H42.2287ZM41.5306 68.1148C41.2058 68.762 40.7917 69.346 40.304 69.8447C40.1345 70.0143 39.965 69.9578 39.965 69.7317V68.2279C39.9714 68.0787 40.0204 67.9358 40.1046 67.8209L40.1943 67.6965C40.2246 67.6431 40.2658 67.5989 40.3144 67.5674C40.363 67.5359 40.4176 67.5182 40.4735 67.5156L41.4708 67.6061C41.6203 67.6287 41.6602 67.8774 41.5306 68.1148ZM38.9079 70.7605C38.7052 70.8365 38.491 70.8646 38.2783 70.8432C38.0657 70.8218 37.8591 70.7514 37.6714 70.6362C37.5517 70.557 37.5816 70.2744 37.7312 70.0595L38.7284 68.6576C38.7593 68.6049 38.8007 68.5611 38.8492 68.5297C38.8976 68.4983 38.9519 68.4801 39.0076 68.4766H39.0974C39.1871 68.4766 39.2469 68.5671 39.2469 68.6914V70.1952C39.2429 70.316 39.2089 70.4331 39.149 70.533C39.089 70.633 39.0055 70.7118 38.9079 70.7605Z" fill="url(#paint2_linear_4711_1862)"/>
<path d="M36.375 69.2325C36.375 71.286 37.8188 72.1895 39.601 71.132C40.539 70.5048 41.32 69.6581 41.8806 68.6607C42.4412 67.6633 42.7654 66.5435 42.827 65.3924C42.827 63.2876 41.3833 62.4457 39.601 63.5033C38.6638 64.1288 37.8831 64.9738 37.3225 65.9694C36.762 66.965 36.4373 68.0831 36.375 69.2325ZM38.5057 67.908V68.0312C38.4993 68.1667 38.4504 68.2965 38.3663 68.4009L37.3707 69.674C37.2213 69.8691 37.0222 69.8896 36.9824 69.674C36.916 69.4196 36.8825 69.1572 36.8828 68.8937C36.887 68.5899 36.9204 68.2872 36.9824 67.9901C36.9824 67.7643 37.2213 67.5589 37.3707 67.5692L38.3663 67.6616C38.4559 67.7335 38.5057 67.7848 38.5057 67.908ZM37.6694 66.2036C37.9945 65.6106 38.4116 65.0765 38.904 64.6224C39.0733 64.4684 39.2425 64.5198 39.2425 64.7354V66.0907C39.2356 66.228 39.1829 66.3586 39.0932 66.4603L39.0036 66.5732C38.9754 66.6222 38.9363 66.6636 38.8896 66.6939C38.8428 66.7243 38.7897 66.7427 38.7347 66.7478L37.7391 66.6554C37.5798 66.6451 37.5499 66.4192 37.6694 66.2036ZM40.2979 63.801C40.4984 63.7331 40.71 63.7072 40.9203 63.7249C41.1307 63.7425 41.3354 63.8033 41.5226 63.9037C41.6521 63.9756 41.6222 64.2425 41.4728 64.4376L40.4771 65.7108C40.4482 65.7605 40.4074 65.8017 40.3586 65.8304C40.3098 65.8592 40.2546 65.8746 40.1984 65.8751H40.0689C39.9793 65.8751 39.9196 65.7929 39.9196 65.6697V64.3144C39.9257 64.1996 39.965 64.0894 40.0324 63.9978C40.0999 63.9063 40.1923 63.8378 40.2979 63.801ZM42.2196 64.9099C42.2858 65.1679 42.3193 65.4337 42.3192 65.7005C42.3144 66.0043 42.281 66.3069 42.2196 66.6041C42.2196 66.8299 41.9806 67.0353 41.8313 67.0147L40.8356 66.9326C40.746 66.9326 40.6863 66.8505 40.6962 66.7273V66.6041C40.6978 66.4675 40.7474 66.3362 40.8356 66.2344L41.8313 64.9612C41.9806 64.7662 42.1698 64.7456 42.2196 64.9099ZM41.5226 68.4316C41.1983 69.0193 40.7848 69.5497 40.2979 70.0026C40.1287 70.1566 39.9594 70.1052 39.9594 69.8999V68.5343C39.9694 68.3978 40.0217 68.2681 40.1088 68.1647C40.1408 68.1315 40.1677 68.0934 40.1884 68.0517C40.2193 68.0039 40.2606 67.9641 40.309 67.9356C40.3574 67.9071 40.4116 67.8906 40.4672 67.8875L41.4629 67.9696C41.6222 67.9901 41.6521 68.216 41.5226 68.4316ZM38.904 70.8137C38.7016 70.8827 38.4877 70.9083 38.2754 70.8888C38.063 70.8694 37.8569 70.8054 37.6694 70.7008C37.5499 70.6289 37.5798 70.3722 37.7292 70.1771L38.7248 68.904C38.7529 68.8557 38.7921 68.8154 38.8391 68.7867C38.886 68.758 38.9391 68.7419 38.9936 68.7396H39.0733C39.1629 68.7396 39.2227 68.8218 39.2227 68.9347V70.3003C39.2204 70.4078 39.1895 70.5126 39.1333 70.6031C39.0771 70.6937 38.9977 70.7666 38.904 70.8137Z" fill="url(#paint3_linear_4711_1862)"/>
<path d="M36.375 69.2325C36.375 71.286 37.8188 72.1895 39.601 71.132C40.539 70.5048 41.32 69.6581 41.8806 68.6607C42.4412 67.6633 42.7654 66.5435 42.827 65.3924C42.827 63.2876 41.3833 62.4457 39.601 63.5033C38.6638 64.1288 37.8831 64.9738 37.3225 65.9694C36.762 66.965 36.4373 68.0831 36.375 69.2325ZM38.5057 67.908V68.0312C38.4993 68.1667 38.4504 68.2965 38.3663 68.4009L37.3707 69.674C37.2213 69.8691 37.0222 69.8896 36.9824 69.674C36.916 69.4196 36.8825 69.1572 36.8828 68.8937C36.887 68.5899 36.9204 68.2872 36.9824 67.9901C36.9824 67.7643 37.2213 67.5589 37.3707 67.5692L38.3663 67.6616C38.4559 67.7335 38.5057 67.7848 38.5057 67.908ZM37.6694 66.2036C37.9945 65.6106 38.4116 65.0765 38.904 64.6224C39.0733 64.4684 39.2425 64.5198 39.2425 64.7354V66.0907C39.2356 66.228 39.1829 66.3586 39.0932 66.4603L39.0036 66.5732C38.9754 66.6222 38.9363 66.6636 38.8896 66.6939C38.8428 66.7243 38.7897 66.7427 38.7347 66.7478L37.7391 66.6554C37.5798 66.6451 37.5499 66.4192 37.6694 66.2036ZM40.2979 63.801C40.4984 63.7331 40.71 63.7072 40.9203 63.7249C41.1307 63.7425 41.3354 63.8033 41.5226 63.9037C41.6521 63.9756 41.6222 64.2425 41.4728 64.4376L40.4771 65.7108C40.4482 65.7605 40.4074 65.8017 40.3586 65.8304C40.3098 65.8592 40.2546 65.8746 40.1984 65.8751H40.0689C39.9793 65.8751 39.9196 65.7929 39.9196 65.6697V64.3144C39.9257 64.1996 39.965 64.0894 40.0324 63.9978C40.0999 63.9063 40.1923 63.8378 40.2979 63.801ZM42.2196 64.9099C42.2858 65.1679 42.3193 65.4337 42.3192 65.7005C42.3144 66.0043 42.281 66.3069 42.2196 66.6041C42.2196 66.8299 41.9806 67.0353 41.8313 67.0147L40.8356 66.9326C40.746 66.9326 40.6863 66.8505 40.6962 66.7273V66.6041C40.6978 66.4675 40.7474 66.3362 40.8356 66.2344L41.8313 64.9612C41.9806 64.7662 42.1698 64.7456 42.2196 64.9099ZM41.5226 68.4316C41.1983 69.0193 40.7848 69.5497 40.2979 70.0026C40.1287 70.1566 39.9594 70.1052 39.9594 69.8999V68.5343C39.9694 68.3978 40.0217 68.2681 40.1088 68.1647C40.1408 68.1315 40.1677 68.0934 40.1884 68.0517C40.2193 68.0039 40.2606 67.9641 40.309 67.9356C40.3574 67.9071 40.4116 67.8906 40.4672 67.8875L41.4629 67.9696C41.6222 67.9901 41.6521 68.216 41.5226 68.4316ZM38.904 70.8137C38.7016 70.8827 38.4877 70.9083 38.2754 70.8888C38.063 70.8694 37.8569 70.8054 37.6694 70.7008C37.5499 70.6289 37.5798 70.3722 37.7292 70.1771L38.7248 68.904C38.7529 68.8557 38.7921 68.8154 38.8391 68.7867C38.886 68.758 38.9391 68.7419 38.9936 68.7396H39.0733C39.1629 68.7396 39.2227 68.8218 39.2227 68.9347V70.3003C39.2204 70.4078 39.1895 70.5126 39.1333 70.6031C39.0771 70.6937 38.9977 70.7666 38.904 70.8137Z" fill="#8CCC03"/>
<path d="M69.4549 46.392C69.405 46.9735 69.4941 47.5591 69.7136 48.0933C69.9331 48.6276 70.2758 49.0927 70.7093 49.4445L73.1863 50.9879C73.9943 51.4681 73.4733 50.3706 74.6959 49.6046C75.9941 48.7001 77.0759 47.4792 77.8535 46.0411C78.6311 44.603 79.0826 42.988 79.1715 41.3271C79.1715 39.818 80.4578 39.8066 79.6711 39.3035L77.0453 37.7372C76.5393 37.5027 75.9854 37.413 75.4377 37.4772C74.89 37.5413 74.367 37.757 73.9198 38.1031C72.6227 39.0107 71.5426 40.234 70.7669 41.674C69.9912 43.114 69.5417 44.7303 69.4549 46.392Z" fill="#121212"/>
<path d="M71.8594 47.8129C71.8594 50.7645 73.8426 51.9473 76.3004 50.466C77.5875 49.5885 78.6593 48.4056 79.429 47.0133C80.1987 45.6209 80.6447 44.0582 80.7308 42.4516C80.7308 39.5112 78.7477 38.3173 76.3004 39.7985C75.0102 40.6735 73.9354 41.8555 73.1637 43.2482C72.3919 44.6409 71.9451 46.205 71.8594 47.8129Z" fill="url(#paint4_linear_4711_1862)"/>
<path style="mix-blend-mode:screen" d="M76.1652 39.7862C76.5897 39.4611 77.0813 39.2553 77.5965 39.1871C78.1116 39.119 78.6342 39.1906 79.1178 39.3955C78.6764 39.2979 78.2214 39.297 77.7796 39.3928C77.3378 39.4886 76.918 39.6793 76.5446 39.9536C75.2926 40.8367 74.2493 42.0286 73.4994 43.4326C72.7495 44.8367 72.3141 46.4134 72.2284 48.0349C72.166 48.6345 72.2609 49.2412 72.5023 49.7845C72.7436 50.3278 73.1214 50.7854 73.592 51.1044C72.5668 50.7919 71.8594 49.6534 71.8594 47.8786C71.9431 46.2564 72.3765 44.6784 73.1246 43.2725C73.8727 41.8666 74.9144 40.6723 76.1652 39.7862Z" fill="url(#paint5_radial_4711_1862)"/>
<path style="mix-blend-mode:multiply" d="M72.668 47.6722C72.668 49.9875 74.1139 50.9137 75.8989 49.7504C76.8346 49.0597 77.6138 48.1293 78.1733 47.0345C78.7328 45.9397 79.0571 44.7112 79.1199 43.4482C79.1199 41.1893 77.674 40.1955 75.8989 41.3588C74.9595 42.0487 74.1772 42.9801 73.6158 44.0772C73.0543 45.1743 72.7296 46.4061 72.668 47.6722ZM74.802 46.204C74.802 46.204 74.802 46.204 74.802 46.2717C74.802 46.3395 74.802 46.2717 74.802 46.3395C74.7955 46.4886 74.7466 46.6313 74.6624 46.7461L73.6652 48.1465C73.5156 48.3611 73.3161 48.3837 73.2763 48.1465C73.2049 47.8639 73.1713 47.5708 73.1765 47.2769C73.1763 46.9424 73.2098 46.609 73.2763 46.283C73.2763 46.0346 73.5156 45.8087 73.6652 45.8313L74.6624 45.9216C74.7522 45.9894 74.802 46.0684 74.802 46.204ZM73.9643 44.3292C74.2927 43.6823 74.7102 43.099 75.2009 42.6011C75.3704 42.4317 75.53 42.4882 75.53 42.714V44.2162C75.5236 44.3653 75.4745 44.5079 75.3904 44.6228L75.2607 44.7922C75.2317 44.8469 75.1908 44.8922 75.1419 44.9238C75.093 44.9554 75.0378 44.9723 74.9815 44.9729L73.9842 44.8826C73.8745 44.7922 73.8447 44.5663 73.9643 44.3292ZM76.597 41.6863C76.7981 41.6107 77.0107 41.5828 77.2217 41.6041C77.4327 41.6255 77.6375 41.6957 77.8236 41.8105C77.9432 41.8896 77.9133 42.1719 77.7637 42.3865L76.7665 43.787C76.7362 43.8403 76.695 43.8845 76.6464 43.916C76.5978 43.9474 76.5432 43.9652 76.4873 43.9677H76.3976C76.3078 43.9677 76.2579 43.8774 76.2579 43.7532V42.251C76.262 42.1303 76.296 42.0134 76.3559 41.9135C76.4159 41.8136 76.4994 41.7349 76.597 41.6863ZM78.5216 42.9174C78.5846 43.1978 78.6147 43.4864 78.6113 43.7757C78.6106 44.1095 78.5806 44.4425 78.5216 44.7696C78.5216 45.0181 78.2823 45.244 78.1327 45.2327L77.1355 45.131C77.0557 45.131 76.9959 45.0406 77.0058 44.9051V44.7922C77.008 44.6441 77.0536 44.5011 77.1355 44.3856L78.1327 42.9852C78.2524 42.748 78.4718 42.7254 78.5216 42.9174ZM77.8236 46.78C77.4988 47.4298 77.0848 48.0169 76.597 48.5193C76.4275 48.6887 76.2579 48.6322 76.2579 48.3951V46.9042C76.2604 46.7542 76.3099 46.6101 76.3976 46.4976L76.4873 46.3734C76.5171 46.3187 76.558 46.2727 76.6065 46.2393C76.655 46.206 76.7099 46.1861 76.7665 46.1814L77.7637 46.283C77.9133 46.2943 77.9432 46.5428 77.8236 46.78ZM75.2009 49.4228C74.9984 49.4972 74.7848 49.5255 74.5726 49.5061C74.3604 49.4868 74.1537 49.4201 73.9643 49.3099C73.8447 49.2308 73.8746 48.9372 74.0242 48.7226L75.0214 47.3221C75.0523 47.2695 75.0937 47.2257 75.1421 47.1944C75.1906 47.163 75.2448 47.1449 75.3006 47.1414H75.3904C75.4801 47.1414 75.53 47.2318 75.53 47.3673V48.8581C75.5292 48.9782 75.4977 49.0954 75.4393 49.1957C75.3809 49.2959 75.2981 49.3748 75.2009 49.4228Z" fill="url(#paint6_linear_4711_1862)"/>
<path d="M72.668 47.6796C72.668 49.9409 74.2947 50.9245 76.3028 49.76C77.3574 49.0705 78.2352 48.1396 78.865 47.0432C79.4947 45.9468 79.8584 44.716 79.9264 43.451C79.9264 41.1897 78.311 40.1947 76.3028 41.3593C75.2466 42.0506 74.367 42.9833 73.7355 44.0814C73.1039 45.1796 72.7382 46.4123 72.668 47.6796ZM75.0688 46.2098V46.3455C75.0615 46.4947 75.0064 46.6375 74.9117 46.7525L73.7898 48.1545C73.6215 48.3693 73.3972 48.3919 73.3524 48.211C73.2777 47.9269 73.2399 47.6343 73.2401 47.3404C73.2455 47.0059 73.2831 46.6727 73.3524 46.3455C73.3524 46.0967 73.6215 45.8706 73.7898 45.8932L74.9117 45.9837C75.0127 45.995 75.0688 46.0854 75.0688 46.2098ZM74.1264 44.3329C74.4959 43.6854 74.9655 43.1014 75.5175 42.603C75.7082 42.4335 75.8989 42.49 75.8989 42.7161V44.2199C75.8877 44.3702 75.8288 44.513 75.7307 44.6269L75.6297 44.7512C75.5981 44.8044 75.5538 44.8488 75.501 44.8803C75.4481 44.9119 75.3882 44.9297 75.3268 44.9322L74.2049 44.8417C74.0254 44.8191 73.9918 44.5703 74.1264 44.3329ZM77.0881 41.6872C77.3143 41.6116 77.5535 41.5835 77.7909 41.6049C78.0283 41.6263 78.2588 41.6967 78.468 41.8116C78.6139 41.8907 78.569 42.1734 78.4007 42.3882L77.2789 43.7902C77.2447 43.8435 77.1984 43.8878 77.1437 43.9193C77.089 43.9508 77.0276 43.9685 76.9647 43.9711H76.8638C76.7628 43.9711 76.7067 43.8806 76.7067 43.7563V42.2526C76.7113 42.1318 76.7494 42.0147 76.8169 41.9147C76.8843 41.8147 76.9783 41.7359 77.0881 41.6872ZM79.2533 42.9196C79.3241 43.2003 79.358 43.4892 79.3543 43.7789C79.3534 44.1131 79.3196 44.4464 79.2533 44.7739C79.1972 45.0226 78.9841 45.2487 78.8158 45.2374L77.6939 45.1357C77.6042 45.1357 77.5369 45.0452 77.5481 44.9095V44.7739C77.5485 44.6287 77.6002 44.4884 77.6939 44.3782L78.8158 42.9649C78.9841 42.75 79.1972 42.7274 79.2533 42.9196ZM78.468 46.7864C78.1064 47.4395 77.6401 48.0278 77.0881 48.5276C76.8974 48.6972 76.7067 48.6407 76.7067 48.4146V46.9673C76.7095 46.8172 76.7652 46.6729 76.8638 46.5603L76.9647 46.4359C76.9983 46.3812 77.0442 46.3351 77.0988 46.3017C77.1535 46.2683 77.2151 46.2484 77.2789 46.2437L78.4007 46.3455C78.569 46.3002 78.6139 46.549 78.468 46.7864ZM75.5175 49.4321C75.2897 49.5066 75.0495 49.5349 74.8108 49.5155C74.572 49.4961 74.3395 49.4294 74.1264 49.3191C73.9918 49.2399 74.0255 48.9459 74.1937 48.7311L75.3156 47.3291C75.3472 47.276 75.3915 47.2317 75.4443 47.2001C75.4972 47.1685 75.557 47.1506 75.6185 47.1482H75.7195C75.8204 47.1482 75.8877 47.2386 75.8877 47.3743V48.8668C75.8883 48.9873 75.8534 49.1054 75.7875 49.206C75.7216 49.3066 75.6277 49.3852 75.5175 49.4321Z" fill="#8CCC03"/>
<path d="M25.0835 34.958C25.0835 34.958 24.1491 32.3964 23.2473 33.4424C22.3455 34.4884 22.7584 38.3096 22.7584 38.3096L25.0835 34.958Z" fill="url(#paint7_radial_4711_1862)"/>
<path d="M7.81085 52.3882C9.21532 49.6184 23.8114 36.0115 31.5411 29.6038C37.9226 24.5904 44.9231 20.5226 52.3481 17.5136C54.8449 16.6234 61.7112 16.0518 65.1547 16.1398C69.1601 16.2387 80.9888 24.383 82.5493 25.7679C82.5493 25.7679 84.7652 35.0004 84.7652 35.9896C84.1225 38.4982 82.8501 40.7768 81.0824 42.5842C81.0824 42.4303 81.0824 42.2874 81.0824 42.1335C81.0824 38.7373 78.804 37.3634 75.9951 39.078C74.5207 40.0913 73.2928 41.4572 72.4109 43.0649C71.5289 44.6727 71.0175 46.4772 70.9182 48.3325C70.9182 48.5193 70.9182 48.6952 70.9182 48.871C63.1572 53.5862 52.3585 60.0709 44.2334 64.9509C44.3596 64.348 44.4258 63.7329 44.431 63.1154C44.431 59.7192 42.1527 58.3453 39.3542 60.0599C37.8769 61.0699 36.6467 62.435 35.7644 64.0434C34.882 65.6518 34.3724 67.4581 34.2773 69.3144C34.2731 69.8223 34.3325 70.3287 34.4541 70.8202L33.0705 71.6335C28.9091 74.0845 20.5863 70.5344 12.4196 65.7203C4.48174 61.0821 6.40639 55.1579 7.81085 52.3882Z" fill="url(#paint8_linear_4711_1862)" style="mix-blend-mode:screen"/>
<path d="M40.7716 52.7505C44.5105 48.7301 47.0204 42.2357 50.2281 37.0335C53.4358 31.8314 65.0482 26.6955 67.4436 26.3311C69.6307 25.9887 78.3582 26.3862 82.5449 25.5137C82.5449 25.5137 84.7633 34.7915 84.7633 35.7855C84.1199 38.3065 82.846 40.5962 81.0764 42.4124C81.0764 42.2578 81.0764 42.1142 81.0764 41.9596C81.0764 38.5467 78.7957 37.1661 75.9837 38.8891C74.5077 39.9074 73.2785 41.2798 72.3955 42.8955C71.5126 44.5111 71.0007 46.3245 70.9013 48.1889C70.9013 48.3767 70.9013 48.5534 70.9013 48.7301C63.1319 53.4684 52.3215 59.9849 44.1876 64.8888C44.3139 64.283 44.3802 63.6648 44.3855 63.0443C44.3855 59.6315 42.1046 58.2508 39.3031 59.9738C37.8242 60.9888 36.5927 62.3605 35.7094 63.9769C34.8261 65.5932 34.316 67.4082 34.2207 69.2736C34.2165 69.7841 34.2761 70.2929 34.3978 70.7868L33.0126 71.6041C31.5941 72.3349 29.999 72.5892 28.4406 72.3331C28.2323 69.7927 28.1385 66.1148 29.2008 64.7894C30.9713 62.7792 37.0327 56.7708 40.7716 52.7505Z" fill="url(#paint9_linear_4711_1862)" style="mix-blend-mode:screen"/>
<path style="mix-blend-mode:screen" d="M28.4233 64.8495C30.1072 62.7426 36.1672 56.7529 39.8572 52.7156C43.5473 48.6783 46.5409 41.8723 49.7424 36.6768C52.9439 31.4813 64.0764 26.7491 66.4671 26.3299C68.6499 25.988 77.3709 26.3851 81.5391 25.5137C81.5391 25.5137 69.9181 26.1865 67.9432 26.4954C65.5524 26.8594 53.921 31.5365 50.7195 36.7209C47.518 41.9054 45.0129 48.4025 41.2813 52.4177C37.5497 56.433 31.5416 62.897 29.8473 65.0039C28.8079 66.3056 28.8703 69.8905 29.0782 72.4276C28.5888 72.4377 28.0993 72.4156 27.6126 72.3614C27.4462 69.8905 27.3215 66.1621 28.4233 64.8495Z" fill="url(#paint10_radial_4711_1862)"/>
<path d="M67.6856 25.2304L55.7305 17.6824C59.1891 16.6842 62.8283 16.7578 66.2518 17.8952C71.4519 19.8326 76.1168 23.7522 75.8845 24.7489C75.6523 25.7456 69.0285 25.6112 67.6856 25.2304Z" fill="url(#paint11_linear_4711_1862)"/>
<path d="M64.3581 17.9114C63.1285 17.4504 61.8586 17.1401 60.5703 16.9856C62.4538 16.9618 64.328 17.2863 66.1189 17.9461C71.3911 19.9482 76.1207 23.9986 75.8853 25.0286C75.8853 25.2369 75.527 25.3989 75.0561 25.5146C74.8923 24.1606 69.9579 19.9945 64.3581 17.9114Z" fill="#363636"/>
<path d="M47.6377 37.8371C47.2059 35.918 35.3029 28.9935 34.203 28.9261C33.1032 28.8588 21.416 38.7462 21.8683 41.1254C22.3205 43.5047 35.3954 52.7636 39.7536 50.8445C44.5334 48.7234 47.9974 39.4644 47.6377 37.8371Z" fill="#363636"/>
<path d="M46.8307 38.3504C46.4113 36.505 34.9566 29.8351 33.8418 29.7795C32.727 29.724 21.4767 39.2842 21.8653 41.5075C22.254 43.7308 34.9565 52.7019 39.1703 50.8566C43.834 48.8222 47.1886 39.9178 46.8307 38.3504Z" fill="url(#paint12_linear_4711_1862)"/>
<path d="M23.6582 38.3105C23.4431 38.6291 23.3304 39.0115 23.3364 39.4021C23.7619 41.7927 37.0465 50.8528 42.0179 49.4556C41.3989 50.0316 40.6987 50.5029 39.9421 50.8528C35.5416 52.7194 22.2985 43.7248 21.8834 41.3997C21.6966 40.7884 22.4646 39.6532 23.6582 38.3105Z" fill="#373737"/>
<path d="M45.2461 51.1044L76.6994 32.1855C76.6994 32.1855 69.6704 27.4612 64.2996 29.3875C58.9287 31.3138 50.8777 37.1143 49.4176 40.6334C47.9576 44.1524 45.2461 51.1044 45.2461 51.1044Z" fill="#363636"/>
<path d="M46.0547 50.2514L75.895 32.0558C75.895 32.0558 69.2301 27.5123 64.1242 29.3735C59.0183 31.2346 51.3803 36.851 49.9887 40.223C48.5971 43.595 46.0547 50.2514 46.0547 50.2514Z" fill="url(#paint13_linear_4711_1862)"/>
<path d="M23.4721 63.3994C23.4721 63.3994 21.8883 66.4254 21.0861 66.4575C20.284 66.4896 18.1721 65.709 13.9788 63.132C11.2882 61.4854 10.1002 60.3412 9.82607 59.4431C9.55193 58.5449 10.2423 55.3691 10.2423 55.3691C11.9698 57.2085 13.9645 58.7461 16.1516 59.9242C18.5017 61.2825 20.9494 62.4444 23.4721 63.3994Z" fill="#161616"/>
<path style="mix-blend-mode:screen" d="M9.47673 55.3691C9.47673 55.3691 9.56456 55.4761 9.7512 55.6579C9.4572 56.7963 9.34977 57.9729 9.43284 59.144C9.71829 60.0423 11.0028 61.1865 13.9122 62.8333C18.4685 65.3998 20.7521 66.1911 21.5975 66.159C21.6895 66.1512 21.779 66.1257 21.861 66.0841C21.6892 66.2755 21.4579 66.407 21.2022 66.4585C20.3239 66.4585 18.0513 65.7099 13.517 63.1327C10.6076 61.4859 9.32305 60.3417 9.02662 59.4434C8.73019 58.5451 9.47673 55.3691 9.47673 55.3691Z" fill="url(#paint14_radial_4711_1862)"/>
<path d="M24.7763 63.2629L22.6641 66.7522C24.1249 67.1124 25.6198 67.3007 27.1209 67.3135C27.8747 67.251 28.6046 67.0092 29.2546 66.6066C29.9046 66.2039 30.4573 65.6512 30.8701 64.991C31.2508 64.1082 31.4762 63.1612 31.5355 62.1953C30.3115 62.7702 29.0289 63.1985 27.7123 63.4721C26.7306 63.622 25.7294 63.5506 24.7763 63.2629Z" fill="url(#paint15_linear_4711_1862)"/>
<path style="mix-blend-mode:multiply" d="M24.7763 63.3945L22.6641 67.3135C24.553 66.9971 26.3924 66.3598 28.1242 65.4219C29.4607 64.6724 30.6288 63.5674 31.5355 62.1953C30.3115 62.841 29.0289 63.3221 27.7123 63.6293C26.7306 63.7977 25.7294 63.7176 24.7763 63.3945Z" fill="url(#paint16_linear_4711_1862)"/>
<path d="M8.95464 54.9251L8.55982 58.7817C8.55982 58.7817 6.62627 57.1054 6.53516 55.7139C6.5617 54.6671 6.88316 53.6542 7.45641 52.8105C7.78255 53.6412 8.29802 54.3687 8.95464 54.9251Z" fill="url(#paint17_linear_4711_1862)"/>
<path style="mix-blend-mode:multiply" d="M8.95283 54.9251L8.52489 58.7817C8.00564 57.6246 7.63689 56.4058 7.42762 55.1552C7.34838 54.3763 7.32277 53.5929 7.35087 52.8105C7.69818 53.6388 8.24915 54.3661 8.95283 54.9251Z" fill="url(#paint18_linear_4711_1862)"/>
<path d="M81.6962 25.5137C82.244 25.7171 82.7261 26.0344 83.1003 26.4377C83.5109 28.1021 83.7969 29.7881 83.9565 31.4848C83.9565 31.4848 80.9884 27.2325 80.7601 26.8152C80.5318 26.3979 81.6962 25.5137 81.6962 25.5137Z" fill="url(#paint19_radial_4711_1862)"/>
<path d="M24.2773 65.3241L25.1278 67.313C25.1278 67.313 27.7437 65.5371 27.4854 64.9452C27.227 64.3533 24.2773 65.3241 24.2773 65.3241Z" fill="url(#paint20_linear_4711_1862)"/>
<path d="M25.0838 66.6054C25.0838 67.2443 24.9033 67.4969 24.6806 67.17C24.5637 66.9836 24.4662 66.7317 24.3962 66.4349C24.3261 66.138 24.2854 65.8044 24.2773 65.4614C24.2773 64.8225 24.4579 64.57 24.6806 64.8969C24.7975 65.0833 24.895 65.3352 24.965 65.632C25.0351 65.9289 25.0758 66.2624 25.0838 66.6054Z" fill="url(#paint21_linear_4711_1862)"/>
<path d="M26.6992 65.2991L27.3387 67.313C27.3387 67.313 29.2973 65.5242 29.1055 64.9438C28.9136 64.3633 26.6992 65.2991 26.6992 65.2991Z" fill="url(#paint22_linear_4711_1862)"/>
<path d="M27.5036 66.6148C27.5036 67.2329 27.1451 67.4979 26.7031 67.1741C26.4656 66.9882 26.2678 66.7347 26.1265 66.4351C25.9851 66.1354 25.9042 65.7983 25.8906 65.4521C25.8906 64.834 26.249 64.569 26.7031 64.8928C26.937 65.0821 27.1314 65.3367 27.2705 65.6359C27.4096 65.9351 27.4895 66.2705 27.5036 66.6148Z" fill="url(#paint23_linear_4711_1862)"/>
<path d="M27.5039 64.2927L28.3631 65.6064C28.3631 65.6064 30.9771 64.4328 30.7108 64.0299C30.4446 63.627 27.5039 64.2927 27.5039 64.2927Z" fill="url(#paint24_radial_4711_1862)"/>
<path d="M29.1169 65.1271C29.1169 65.5585 28.7509 65.7288 28.3036 65.5131C28.0765 65.3868 27.8866 65.219 27.748 65.0224C27.6095 64.8257 27.5261 64.6053 27.5039 64.3777C27.5039 63.9576 27.8698 63.776 28.3036 63.9917C28.5339 64.1161 28.727 64.2832 28.868 64.48C29.0091 64.6769 29.0942 64.8983 29.1169 65.1271Z" fill="url(#paint25_radial_4711_1862)"/>
<path d="M7.33984 55.579L8.12861 57.0752C8.12861 57.0752 9.15401 56.0777 8.91738 55.589C8.68076 55.1002 7.33984 55.579 7.33984 55.579Z" fill="url(#paint26_linear_4711_1862)"/>
<path d="M8.14634 56.5964C8.14634 57.0273 7.97015 57.1974 7.7465 56.9819C7.63099 56.8583 7.53416 56.6916 7.46361 56.4948C7.39306 56.2981 7.35068 56.0766 7.33984 55.8479C7.33984 55.417 7.52285 55.2469 7.7465 55.4624C7.86112 55.5866 7.9569 55.7537 8.0263 55.9505C8.09569 56.1473 8.13677 56.3685 8.14634 56.5964Z" fill="url(#paint27_linear_4711_1862)"/>
<path d="M7.33984 53.688L7.71208 55.3701C7.71208 55.3701 8.23999 54.551 8.1317 54.0391C8.02341 53.5271 7.33984 53.688 7.33984 53.688Z" fill="url(#paint28_linear_4711_1862)"/>
<path d="M8.14815 54.9003C8.14815 55.3197 7.7937 55.4933 7.33283 55.2764C7.09868 55.1509 6.90425 54.9819 6.7656 54.7833C6.62695 54.5847 6.548 54.3621 6.53516 54.1338C6.53516 53.7144 6.88969 53.5409 7.33283 53.7578C7.57027 53.8817 7.768 54.0499 7.90981 54.2486C8.05161 54.4473 8.13334 54.6707 8.14815 54.9003Z" fill="url(#paint29_linear_4711_1862)"/>
<g style="mix-blend-mode:multiply">
<path style="mix-blend-mode:multiply" d="M81.03 42.8436C81.03 42.6895 81.03 42.5465 81.03 42.3925C81.03 40.357 80.2185 39.0918 78.9492 38.6957L84.5466 35.252C84.6118 35.5601 84.657 35.8725 84.6818 36.1871C84.0566 38.7145 82.7944 41.0151 81.03 42.8436Z" fill="url(#paint30_linear_4711_1862)"/>
<path style="mix-blend-mode:multiply" d="M7.03516 60.293C8.72501 62.0007 10.5108 63.5989 12.3828 65.079C16.1179 67.9506 25.3982 71.0643 28.8628 69.2709C29.487 68.9408 31.8071 67.5655 35.1052 65.5411C34.547 66.8152 34.2424 68.1971 34.2105 69.6009C34.2063 70.1094 34.2658 70.6163 34.3873 71.1083L33.0036 71.9224C28.842 74.3759 20.5188 70.8222 12.3516 66.0031C9.34484 64.1987 7.80505 62.1854 7.03516 60.293Z" fill="url(#paint31_linear_4711_1862)"/>
<path style="mix-blend-mode:multiply" d="M44.2205 65.2338C44.3467 64.6302 44.4129 64.0144 44.4182 63.3963C44.4784 62.3298 44.1593 61.278 43.5234 60.4477C52.5957 54.9465 64.1026 47.85 72.9148 42.4258C71.6665 44.2244 70.9432 46.3701 70.834 48.5982C70.834 48.7852 70.834 48.9612 70.834 49.1373C63.1454 53.8573 52.346 60.3487 44.2205 65.2338Z" fill="url(#paint32_linear_4711_1862)"/>
</g>
<path d="M31.7452 66.0997C31.7452 66.0997 27.9998 68.5882 26.4461 68.6332C24.0178 68.6332 19.1715 67.3946 14.2943 64.1292C6.76249 59.051 6.49495 55.7969 6.49495 55.7969C6.20013 57.712 6.08289 59.6548 6.14508 61.5957C6.38174 63.4649 7.884 65.8407 14.4486 69.6128C20.7766 73.2385 25.9213 73.9592 28.4011 73.6439C29.89 73.4558 31.3499 73.0545 32.7433 72.4504L31.7452 66.0997Z" fill="url(#paint33_radial_4711_1862)"/>
<path style="mix-blend-mode:color-dodge" d="M26.6184 69.015C24.1575 69.0836 19.2462 67.7578 14.3036 64.4435C8.44339 60.4778 6.92097 57.5863 6.53516 56.4434C6.60815 55.792 6.67072 55.3691 6.67072 55.3691C6.67072 55.3691 6.94185 58.6721 14.5747 63.8264C19.5173 67.175 24.4286 68.4893 26.8895 68.3979C28.464 68.3979 32.2596 65.8264 32.2596 65.8264L32.343 66.3407C30.6642 67.3464 27.7132 69.015 26.6184 69.015Z" fill="url(#paint34_radial_4711_1862)"/>
<path style="mix-blend-mode:multiply" d="M5.76721 61.5536C5.71301 60.9152 5.71301 60.2731 5.76721 59.6348C7.75815 61.6623 9.87973 63.549 12.1175 65.2821C15.917 68.1275 25.3578 71.2128 28.8822 69.4358C29.3161 69.2178 30.5544 68.5091 32.3748 67.4407L33.1474 72.0632C31.7141 72.6481 30.2126 73.0366 28.6811 73.2188C26.1304 73.5241 20.8385 72.8264 14.3295 69.3159C7.5559 65.6855 6.01064 63.3633 5.76721 61.5536Z" fill="url(#paint35_linear_4711_1862)"/>
<path style="mix-blend-mode:multiply" d="M5.76721 61.5536C5.71301 60.9152 5.71301 60.2731 5.76721 59.6348C7.75815 61.6623 9.87973 63.549 12.1175 65.2821C15.917 68.1275 25.3578 71.2128 28.8822 69.4358C29.3161 69.2178 30.5544 68.5091 32.3748 67.4407L33.1474 72.0632C31.7141 72.6481 30.2126 73.0366 28.6811 73.2188C26.1304 73.5241 20.8385 72.8264 14.3295 69.3159C7.5559 65.6855 6.01064 63.3633 5.76721 61.5536Z" fill="url(#paint36_linear_4711_1862)"/>
<path d="M49.2786 48.761L45.2461 51.1049C45.2461 51.1049 46.9004 47.0285 48.4054 43.4277L49.2786 48.761Z" fill="#363636"/>
<path d="M67.0195 28.0742C71.8155 28.1823 76.6975 31.6785 76.6975 31.6785L70.4391 35.7514C70.2993 34.8984 70.095 33.757 69.8692 32.6397C69.4821 30.9096 67.7077 28.8311 67.0195 28.0742Z" fill="#363636"/>
<path style="mix-blend-mode:screen" d="M46.0524 35.8386C37.2712 38.5269 28.0451 38.4501 22.6641 38.1867C25.8418 34.489 33.0342 28.8821 33.9346 28.926C34.8349 28.9699 42.5463 33.1394 46.0524 35.8386Z" fill="url(#paint37_linear_4711_1862)"/>
<path d="M15.2695 69.1216C9.34434 66.0684 6.86501 63.4732 6.60237 62.5791C6.33973 61.6849 6.85454 62.5136 8.01015 63.4296C10.4591 65.2419 13.0449 66.8464 15.7423 68.2274C22.2452 71.7822 26.5 71.575 26.6891 71.9785C26.8782 72.3819 23.9261 73.5814 15.2695 69.1216Z" fill="#202020"/>
<path d="M20.3015 41.7227C20.3015 41.7227 9.11362 51.0852 10.7252 53.4993C12.3367 55.9133 23.0597 63.4164 27.2539 62.0245C31.4481 60.6326 37.9873 52.5967 37.9873 52.5967C37.9873 52.5967 30.415 50.7264 25.5907 47.1597C20.7664 43.593 20.3015 41.7227 20.3015 41.7227Z" fill="url(#paint38_linear_4711_1862)" style="mix-blend-mode:screen"/>
<path style="mix-blend-mode:screen" d="M24.2773 63.3059C24.2773 63.3059 25.4132 66.7408 29.6502 65.218C30.7861 64.8173 31.5358 62.1953 31.5358 62.1953C30.2194 62.7933 28.8399 63.2389 27.4238 63.5234C26.3716 63.6777 25.2988 63.6035 24.2773 63.3059Z" fill="url(#paint39_radial_4711_1862)"/>
<path style="mix-blend-mode:screen" d="M48.0009 35.7499C48.0009 35.7499 35.6817 28.6351 35.567 28.2154C35.4524 27.7956 51.5029 18.6895 53.6707 18.6895C55.8386 18.6895 65.052 25.1477 64.583 25.7397C64.1139 26.3317 56.9851 29.2379 54.6609 30.7448C52.3055 32.212 50.0772 33.8866 48.0009 35.7499Z" fill="url(#paint40_linear_4711_1862)"/>
<path d="M61.3762 41.3612L58.3853 43.4287L57.3438 32.7337L58.9873 31.4863L61.3762 41.3612Z" fill="#363636"/>
<path d="M44.9308 51.1616C45.5554 53.0034 45.9093 54.9331 45.9805 56.8853C46.117 59.4024 46.1484 61.3614 46.1589 62.1822L59.8888 53.9304C59.9765 50.6049 59.8959 47.277 59.6474 43.9604C59.2483 40.0754 58.5248 36.234 57.4851 32.4802L57.9364 32.3379C58.9838 36.1244 59.7143 39.9985 60.1197 43.9167C60.4556 48.2286 60.4032 52.2232 60.3717 53.6349L68.2338 48.9181C68.4542 48.4147 69.8293 45.2847 71.3829 41.7935C72.3341 39.6598 72.436 37.2201 71.6662 35.0082L72.0861 34.8003C72.5103 35.9555 72.7049 37.1886 72.658 38.4246C72.6111 39.6607 72.3236 40.8738 71.8132 41.9905C70.1862 45.7881 68.6642 49.1588 68.6642 49.1917V49.2682L45.6551 63.0468V62.6199C45.6551 62.6199 45.6551 60.256 45.4872 56.929C45.4028 55.0319 45.0491 53.1584 44.4375 51.3695L44.9308 51.1616Z" fill="#535353" style="mix-blend-mode:screen"/>
<path style="mix-blend-mode:multiply" d="M45.2461 50.9684C45.2461 50.9684 49.7187 54.6434 52.0237 53.4107C54.3288 52.1779 47.597 49.3984 47.597 49.3984L45.2461 50.9684Z" fill="url(#paint41_linear_4711_1862)"/>
<path d="M48.1245 47.7024C48.7848 47.6376 51.9521 47.897 52.4781 49.2377C53.0041 50.5783 45.5168 51.3351 45.2706 51.0432C45.0244 50.7513 46.6807 47.8322 48.1245 47.7024Z" fill="url(#paint42_radial_4711_1862)"/>
<path style="mix-blend-mode:screen" d="M48.3598 47.6934C48.869 47.6934 51.3264 47.7936 51.6806 48.807C52.0348 49.8204 46.2566 50.4218 46.0685 50.2102C45.8803 49.9986 47.2308 47.7936 48.3598 47.6934Z" fill="url(#paint43_linear_4711_1862)"/>
<path style="mix-blend-mode:screen" d="M75.0885 31.7989C69.0236 33.482 62.7827 34.2249 56.5391 34.0068C58.9009 32.1099 61.4664 30.5563 64.1746 29.383C68.2339 27.8224 73.3106 30.666 75.0885 31.7989Z" fill="url(#paint44_linear_4711_1862)"/>
<defs>
<linearGradient id="paint0_linear_4711_1862" x1="43.6332" y1="67.3084" x2="34.7617" y2="67.3084" gradientUnits="userSpaceOnUse">
<stop stop-color="#3C3C3C"/>
<stop offset="1" stop-color="#1D1D1D"/>
</linearGradient>
<radialGradient id="paint1_radial_4711_1862" cx="0" cy="0" r="1" gradientUnits="userSpaceOnUse" gradientTransform="translate(38.3909 66.879) rotate(180) scale(4.65444 4.70272)">
<stop stop-color="white"/>
<stop offset="1"/>
</radialGradient>
<linearGradient id="paint2_linear_4711_1862" x1="42.827" y1="66.8824" x2="36.375" y2="66.8824" gradientUnits="userSpaceOnUse">
<stop stop-color="#BCBEC0"/>
<stop offset="1" stop-color="#E6E7E8"/>
</linearGradient>
<linearGradient id="paint3_linear_4711_1862" x1="42.817" y1="67.3125" x2="36.375" y2="67.3125" gradientUnits="userSpaceOnUse">
<stop stop-color="#BCBEC0"/>
<stop offset="1" stop-color="#E6E7E8"/>
</linearGradient>
<linearGradient id="paint4_linear_4711_1862" x1="80.7308" y1="45.1288" x2="71.8594" y2="45.1288" gradientUnits="userSpaceOnUse">
<stop stop-color="#3C3C3C"/>
<stop offset="1" stop-color="#1D1D1D"/>
</linearGradient>
<radialGradient id="paint5_radial_4711_1862" cx="0" cy="0" r="1" gradientUnits="userSpaceOnUse" gradientTransform="translate(75.4886 45.1328) rotate(180) scale(4.65444 5.06755)">
<stop stop-color="white"/>
<stop offset="1"/>
</radialGradient>
<linearGradient id="paint6_linear_4711_1862" x1="79.1199" y1="45.5602" x2="72.668" y2="45.5602" gradientUnits="userSpaceOnUse">
<stop stop-color="#BCBEC0"/>
<stop offset="1" stop-color="#E6E7E8"/>
</linearGradient>
<radialGradient id="paint7_radial_4711_1862" cx="0" cy="0" r="1" gradientUnits="userSpaceOnUse" gradientTransform="translate(25.6485 33.6772) rotate(180) scale(4.09619 4.02394)">
<stop stop-color="#BFBFBF"/>
<stop offset="1" stop-color="#424242"/>
</radialGradient>
<linearGradient id="paint8_linear_4711_1862" x1="6.53516" y1="54.4098" x2="99.1804" y2="24.905" gradientUnits="userSpaceOnUse">
<stop offset="0.01" stop-color="#B6B6B6"/>
<stop offset="0.22" stop-color="#A5A5A5"/>
<stop offset="0.42" stop-color="#898989"/>
<stop offset="0.6" stop-color="#858585"/>
<stop offset="0.76" stop-color="#898989"/>
<stop offset="0.9" stop-color="#848484"/>
<stop offset="1" stop-color="#808080"/>
</linearGradient>
<linearGradient id="paint9_linear_4711_1862" x1="6.92024" y1="61.4478" x2="80.1706" y2="47.5467" gradientUnits="userSpaceOnUse">
<stop offset="0.01" stop-color="#B6B6B6"/>
<stop offset="0.22" stop-color="#A5A5A5"/>
<stop offset="0.42" stop-color="#898989"/>
<stop offset="0.6" stop-color="#858585"/>
<stop offset="0.76" stop-color="#898989"/>
<stop offset="0.9" stop-color="#848484"/>
<stop offset="1" stop-color="#808080"/>
</linearGradient>
<radialGradient id="paint10_radial_4711_1862" cx="0" cy="0" r="1" gradientUnits="userSpaceOnUse" gradientTransform="translate(54.555 48.9872) rotate(180) scale(24.6869 26.1981)">
<stop stop-color="white"/>
<stop offset="1"/>
</radialGradient>
<linearGradient id="paint11_linear_4711_1862" x1="74.8902" y1="27.3985" x2="62.2515" y2="1.19954" gradientUnits="userSpaceOnUse">
<stop offset="0.03" stop-color="#E7E7E7"/>
<stop offset="0.21" stop-color="#E3E3E3"/>
<stop offset="0.62" stop-color="#AAAAAA"/>
<stop offset="1" stop-color="#2AF6FF"/>
</linearGradient>
<linearGradient id="paint12_linear_4711_1862" x1="45.6136" y1="55.8145" x2="17.362" y2="22.2236" gradientUnits="userSpaceOnUse">
<stop offset="0.03" stop-color="#E7E7E7"/>
<stop offset="0.21" stop-color="#E3E3E3"/>
<stop offset="0.62" stop-color="#AAAAAA"/>
<stop offset="1" stop-color="#2AF6FF"/>
</linearGradient>
<linearGradient id="paint13_linear_4711_1862" x1="70.8833" y1="35.4387" x2="36.8118" y2="44.0367" gradientUnits="userSpaceOnUse">
<stop stop-color="#C1C1C1"/>
<stop offset="0.62" stop-color="#C2C2C2"/>
<stop offset="1" stop-color="#4C9DE9"/>
</linearGradient>
<radialGradient id="paint14_radial_4711_1862" cx="0" cy="0" r="1" gradientUnits="userSpaceOnUse" gradientTransform="translate(15.4163 60.9191) rotate(180) scale(6.08231 5.92428)">
<stop stop-color="white"/>
<stop offset="1"/>
</radialGradient>
<linearGradient id="paint15_linear_4711_1862" x1="26.9414" y1="63.1639" x2="27.4112" y2="67.155" gradientUnits="userSpaceOnUse">
<stop stop-color="#BCBEC0"/>
<stop offset="1" stop-color="#E6E7E8"/>
</linearGradient>
<linearGradient id="paint16_linear_4711_1862" x1="27.0575" y1="66.8684" x2="27.1733" y2="59.9335" gradientUnits="userSpaceOnUse">
<stop stop-color="#9D9D9D"/>
<stop offset="0.31" stop-color="#C7C7C7"/>
<stop offset="0.59" stop-color="#E6E6E6"/>
<stop offset="0.83" stop-color="#F8F8F8"/>
<stop offset="1" stop-color="white"/>
</linearGradient>
<linearGradient id="paint17_linear_4711_1862" x1="8.91415" y1="55.8345" x2="6.49404" y2="55.7409" gradientUnits="userSpaceOnUse">
<stop stop-color="#BCBEC0"/>
<stop offset="1" stop-color="#E6E7E8"/>
</linearGradient>
<linearGradient id="paint18_linear_4711_1862" x1="7.28503" y1="51.1671" x2="8.81686" y2="58.1582" gradientUnits="userSpaceOnUse">
<stop stop-color="#9D9D9D"/>
<stop offset="0.31" stop-color="#C7C7C7"/>
<stop offset="0.59" stop-color="#E6E6E6"/>
<stop offset="0.83" stop-color="#F8F8F8"/>
<stop offset="1" stop-color="white"/>
</linearGradient>
<radialGradient id="paint19_radial_4711_1862" cx="0" cy="0" r="1" gradientUnits="userSpaceOnUse" gradientTransform="translate(84.7098 26.0805) rotate(180) scale(5.46158 4.6946)">
<stop stop-color="#BFBFBF"/>
<stop offset="1" stop-color="#424242"/>
</radialGradient>
<linearGradient id="paint20_linear_4711_1862" x1="27.4961" y1="66.0225" x2="24.2666" y2="66.0225" gradientUnits="userSpaceOnUse">
<stop stop-color="#BCBEC0"/>
<stop offset="1" stop-color="#E6E7E8"/>
</linearGradient>
<linearGradient id="paint21_linear_4711_1862" x1="24.2773" y1="66.0409" x2="25.0838" y2="66.0409" gradientUnits="userSpaceOnUse">
<stop stop-color="#BCBEC0"/>
<stop offset="0.69" stop-color="#E9EAEA"/>
<stop offset="1" stop-color="white"/>
</linearGradient>
<linearGradient id="paint22_linear_4711_1862" x1="29.1135" y1="66.0099" x2="26.6912" y2="66.0099" gradientUnits="userSpaceOnUse">
<stop stop-color="#BCBEC0"/>
<stop offset="1" stop-color="#E6E7E8"/>
</linearGradient>
<linearGradient id="paint23_linear_4711_1862" x1="25.8906" y1="66.0261" x2="27.5036" y2="66.0261" gradientUnits="userSpaceOnUse">
<stop stop-color="#BCBEC0"/>
<stop offset="0.69" stop-color="#E9EAEA"/>
<stop offset="1" stop-color="white"/>
</linearGradient>
<radialGradient id="paint24_radial_4711_1862" cx="0" cy="0" r="1" gradientUnits="userSpaceOnUse" gradientTransform="translate(29.1134 64.7569) rotate(180) scale(1.4159 1.02474)">
<stop offset="0.16" stop-color="#FF9900"/>
<stop offset="0.34" stop-color="#FD9500"/>
<stop offset="0.52" stop-color="#F68900"/>
<stop offset="0.69" stop-color="#EA7600"/>
<stop offset="0.87" stop-color="#DB5A00"/>
<stop offset="0.99" stop-color="#CC4100"/>
</radialGradient>
<radialGradient id="paint25_radial_4711_1862" cx="0" cy="0" r="1" gradientUnits="userSpaceOnUse" gradientTransform="translate(28.3036 64.741) scale(0.935264 0.783411)">
<stop offset="0.16" stop-color="#FF9900"/>
<stop offset="0.34" stop-color="#FD9500"/>
<stop offset="0.52" stop-color="#F68900"/>
<stop offset="0.69" stop-color="#EA7600"/>
<stop offset="0.87" stop-color="#DB5A00"/>
<stop offset="0.99" stop-color="#CC4100"/>
</radialGradient>
<linearGradient id="paint26_linear_4711_1862" x1="8.95119" y1="56.2274" x2="7.32858" y2="56.2274" gradientUnits="userSpaceOnUse">
<stop stop-color="#BCBEC0"/>
<stop offset="1" stop-color="#E6E7E8"/>
</linearGradient>
<linearGradient id="paint27_linear_4711_1862" x1="7.33984" y1="56.2108" x2="8.14634" y2="56.2108" gradientUnits="userSpaceOnUse">
<stop stop-color="#BCBEC0"/>
<stop offset="0.69" stop-color="#E9EAEA"/>
<stop offset="1" stop-color="white"/>
</linearGradient>
<linearGradient id="paint28_linear_4711_1862" x1="8.14523" y1="54.5218" x2="7.33984" y2="54.5218" gradientUnits="userSpaceOnUse">
<stop stop-color="#BCBEC0"/>
<stop offset="1" stop-color="#E6E7E8"/>
</linearGradient>
<linearGradient id="paint29_linear_4711_1862" x1="6.51743" y1="54.5099" x2="8.14815" y2="54.5099" gradientUnits="userSpaceOnUse">
<stop stop-color="#BCBEC0"/>
<stop offset="0.69" stop-color="#E9EAEA"/>
<stop offset="1" stop-color="white"/>
</linearGradient>
<linearGradient id="paint30_linear_4711_1862" x1="84.1304" y1="42.2824" x2="81.5786" y2="37.133" gradientUnits="userSpaceOnUse">
<stop stop-color="#9D9D9D"/>
<stop offset="0.31" stop-color="#C7C7C7"/>
<stop offset="0.59" stop-color="#E6E6E6"/>
<stop offset="0.83" stop-color="#F8F8F8"/>
<stop offset="1" stop-color="white"/>
</linearGradient>
<linearGradient id="paint31_linear_4711_1862" x1="26.4595" y1="75.0471" x2="23.9076" y2="69.8977" gradientUnits="userSpaceOnUse">
<stop stop-color="#9D9D9D"/>
<stop offset="0.31" stop-color="#C7C7C7"/>
<stop offset="0.59" stop-color="#E6E6E6"/>
<stop offset="0.83" stop-color="#F8F8F8"/>
<stop offset="1" stop-color="white"/>
</linearGradient>
<linearGradient id="paint32_linear_4711_1862" x1="60.0971" y1="56.6409" x2="57.1137" y2="51.7574" gradientUnits="userSpaceOnUse">
<stop stop-color="#9D9D9D"/>
<stop offset="0.31" stop-color="#C7C7C7"/>
<stop offset="0.59" stop-color="#E6E6E6"/>
<stop offset="0.83" stop-color="#F8F8F8"/>
<stop offset="1" stop-color="white"/>
</linearGradient>
<radialGradient id="paint33_radial_4711_1862" cx="0" cy="0" r="1" gradientUnits="userSpaceOnUse" gradientTransform="translate(18.8114 60.8976) rotate(180) scale(11.0611 12.1045)">
<stop stop-color="#DCDCDC"/>
<stop offset="1" stop-color="#5F5F5F"/>
</radialGradient>
<radialGradient id="paint34_radial_4711_1862" cx="0" cy="0" r="1" gradientUnits="userSpaceOnUse" gradientTransform="translate(11.7801 67.6893) rotate(180) scale(10.8758 11.9201)">
<stop stop-color="#FFE4A7"/>
<stop offset="1"/>
</radialGradient>
<linearGradient id="paint35_linear_4711_1862" x1="18.2878" y1="73.753" x2="19.443" y2="66.2187" gradientUnits="userSpaceOnUse">
<stop stop-color="#9D9D9D"/>
<stop offset="0.31" stop-color="#C7C7C7"/>
<stop offset="0.59" stop-color="#E6E6E6"/>
<stop offset="0.83" stop-color="#F8F8F8"/>
<stop offset="1" stop-color="white"/>
</linearGradient>
<linearGradient id="paint36_linear_4711_1862" x1="25.8975" y1="76.8165" x2="23.089" y2="72.1686" gradientUnits="userSpaceOnUse">
<stop stop-color="#9D9D9D"/>
<stop offset="0.31" stop-color="#C7C7C7"/>
<stop offset="0.59" stop-color="#E6E6E6"/>
<stop offset="0.83" stop-color="#F8F8F8"/>
<stop offset="1" stop-color="white"/>
</linearGradient>
<linearGradient id="paint37_linear_4711_1862" x1="23.7763" y1="21.6952" x2="38.7833" y2="41.9435" gradientUnits="userSpaceOnUse">
<stop stop-color="#9C9C9C"/>
<stop offset="0.01" stop-color="#999999"/>
<stop offset="0.26" stop-color="#636363"/>
<stop offset="0.49" stop-color="#383838"/>
<stop offset="0.7" stop-color="#191919"/>
<stop offset="0.88" stop-color="#070707"/>
<stop offset="1"/>
</linearGradient>
<linearGradient id="paint38_linear_4711_1862" x1="0.177776" y1="57.403" x2="35.4634" y2="49.9494" gradientUnits="userSpaceOnUse">
<stop offset="0.01" stop-color="#B6B6B6"/>
<stop offset="0.22" stop-color="#A5A5A5"/>
<stop offset="0.42" stop-color="#898989"/>
<stop offset="0.6" stop-color="#858585"/>
<stop offset="0.76" stop-color="#898989"/>
<stop offset="0.9" stop-color="#848484"/>
<stop offset="1" stop-color="#808080"/>
</linearGradient>
<radialGradient id="paint39_radial_4711_1862" cx="0" cy="0" r="1" gradientUnits="userSpaceOnUse" gradientTransform="translate(27.9009 63.9013) rotate(180) scale(2.82841 2.85096)">
<stop stop-color="white"/>
<stop offset="1"/>
</radialGradient>
<linearGradient id="paint40_linear_4711_1862" x1="24.5667" y1="31.7564" x2="60.9725" y2="21.9852" gradientUnits="userSpaceOnUse">
<stop offset="0.01" stop-color="#B6B6B6"/>
<stop offset="0.22" stop-color="#A5A5A5"/>
<stop offset="0.42" stop-color="#898989"/>
<stop offset="0.6" stop-color="#858585"/>
<stop offset="0.76" stop-color="#898989"/>
<stop offset="0.9" stop-color="#848484"/>
<stop offset="1" stop-color="#808080"/>
</linearGradient>
<linearGradient id="paint41_linear_4711_1862" x1="45.6704" y1="50.4916" x2="53.3961" y2="52.8837" gradientUnits="userSpaceOnUse">
<stop stop-color="#696969"/>
<stop offset="0.24" stop-color="#9C9C9C"/>
<stop offset="0.48" stop-color="#C7C7C7"/>
<stop offset="0.69" stop-color="#E6E6E6"/>
<stop offset="0.87" stop-color="#F8F8F8"/>
<stop offset="1" stop-color="white"/>
</linearGradient>
<radialGradient id="paint42_radial_4711_1862" cx="0" cy="0" r="1" gradientUnits="userSpaceOnUse" gradientTransform="translate(54.1995 48.0172) rotate(180) scale(12.2886 2.68263)">
<stop stop-color="#BFBFBF"/>
<stop offset="1" stop-color="#424242"/>
</radialGradient>
<linearGradient id="paint43_linear_4711_1862" x1="49.1679" y1="47.1143" x2="48.8318" y2="50.1429" gradientUnits="userSpaceOnUse">
<stop stop-color="#9C9C9C"/>
<stop offset="0.01" stop-color="#999999"/>
<stop offset="0.26" stop-color="#636363"/>
<stop offset="0.49" stop-color="#383838"/>
<stop offset="0.7" stop-color="#191919"/>
<stop offset="0.88" stop-color="#070707"/>
<stop offset="1"/>
</linearGradient>
<linearGradient id="paint44_linear_4711_1862" x1="58.3991" y1="21.2566" x2="70.3786" y2="36.1496" gradientUnits="userSpaceOnUse">
<stop stop-color="#9C9C9C"/>
<stop offset="0.01" stop-color="#999999"/>
<stop offset="0.26" stop-color="#636363"/>
<stop offset="0.49" stop-color="#383838"/>
<stop offset="0.7" stop-color="#191919"/>
<stop offset="0.88" stop-color="#070707"/>
<stop offset="1"/>
</linearGradient>
</defs>
</svg>
