<svg width="90" height="91" viewBox="0 0 90 91" fill="none" xmlns="http://www.w3.org/2000/svg">
<path style="mix-blend-mode:multiply" d="M44.242 86.2262C54.7849 86.2262 63.3317 81.8025 63.3317 76.3456C63.3317 70.8886 54.7849 66.4648 44.242 66.4648C33.6991 66.4648 25.1523 70.8886 25.1523 76.3456C25.1523 81.8025 33.6991 86.2262 44.242 86.2262Z" fill="url(#paint0_radial_4711_1782)"/>
<path d="M26.53 72.0918H52.0051V74.962V75.0728C52.0051 79.4059 46.3043 82.9188 39.2623 82.9188C32.2202 82.9188 26.5195 79.4059 26.5195 75.0728V74.962L26.53 72.0918Z" fill="url(#paint1_linear_4711_1782)"/>
<path d="M39.274 80.2701C46.3116 80.2701 52.0168 76.7573 52.0168 72.4241C52.0168 68.0908 46.3116 64.5781 39.274 64.5781C32.2364 64.5781 26.5312 68.0908 26.5312 72.4241C26.5312 76.7573 32.2364 80.2701 39.274 80.2701Z" fill="url(#paint2_linear_4711_1782)"/>
<path d="M27.6016 54.3496H50.9598V71.3493C50.9649 71.3823 50.9649 71.416 50.9598 71.4491C50.9598 75.4164 45.7202 78.6412 39.2859 78.6412C32.8517 78.6412 27.612 75.4164 27.612 71.4491C27.612 71.4491 27.612 71.3825 27.612 71.3493L27.6016 54.3496Z" fill="url(#paint3_linear_4711_1782)"/>
<path style="mix-blend-mode:color-dodge" d="M39.2754 61.9312C45.7227 61.9312 50.9493 58.7111 50.9493 54.739C50.9493 50.7669 45.7227 47.5469 39.2754 47.5469C32.8281 47.5469 27.6016 50.7669 27.6016 54.739C27.6016 58.7111 32.8281 61.9312 39.2754 61.9312Z" fill="url(#paint4_radial_4711_1782)"/>
<path d="M39.2754 61.5874C45.7227 61.5874 50.9493 58.3674 50.9493 54.3953C50.9493 50.4232 45.7227 47.2031 39.2754 47.2031C32.8281 47.2031 27.6016 50.4232 27.6016 54.3953C27.6016 58.3674 32.8281 61.5874 39.2754 61.5874Z" fill="url(#paint5_linear_4711_1782)"/>
<path style="mix-blend-mode:color-dodge" d="M46.5137 58.6387C45.5392 58.6387 44.7742 61.7305 44.8056 65.5205C44.8371 69.3105 45.6544 72.3691 46.629 72.358C47.6036 72.347 48.3686 69.2773 48.3371 65.4873C48.3057 61.6973 47.4988 58.6276 46.5137 58.6387Z" fill="url(#paint6_radial_4711_1782)"/>
<path d="M13.0968 10.9878C13.0738 11.2164 13.1081 11.4474 13.1964 11.6576C13.2847 11.8677 13.4239 12.0495 13.5998 12.1846L16.2406 13.8248C16.555 14.0132 16.3559 13.592 16.8379 13.2928C17.3565 12.9355 17.7888 12.4547 18.1 11.8889C18.4112 11.3231 18.5926 10.6881 18.6299 10.0347C18.6299 9.44736 19.1433 9.4474 18.829 9.24793L16.1253 7.58564C15.9222 7.49693 15.701 7.4646 15.4827 7.49176C15.2645 7.51891 15.0564 7.6046 14.8783 7.74073C14.3601 8.09486 13.9285 8.57373 13.6189 9.13808C13.3093 9.70243 13.1304 10.3363 13.0968 10.9878Z" fill="#89C900"/>
<path d="M14.4586 12.5151C14.4273 12.8271 14.4748 13.1422 14.5963 13.4284C14.7178 13.7146 14.909 13.9616 15.1502 14.1442L18.7551 16.3606C19.1952 16.6265 18.9123 16.0281 19.5829 15.6181C20.2892 15.1334 20.8774 14.4793 21.2998 13.7091C21.7222 12.9389 21.9669 12.0743 22.0141 11.1853C22.0141 10.3764 22.7162 10.3653 22.2866 10.0771L18.5979 7.86076C18.3222 7.73891 18.0217 7.69329 17.7247 7.72818C17.4277 7.76308 17.1439 7.87734 16.9002 8.06022C16.1899 8.54655 15.5984 9.20367 15.174 9.97791C14.7497 10.7522 14.5045 11.6215 14.4586 12.5151Z" fill="url(#paint7_linear_4711_1782)"/>
<path d="M31.8221 9.77829L31.7173 9.50125L32.3879 9.13552C32.5504 9.01267 32.731 8.91906 32.9224 8.85848L33.0272 8.80308C33.2725 8.73126 33.5278 8.70501 33.7817 8.7255C35.8775 8.8474 38.3716 11.4849 39.3357 14.6322L48.8613 49.1856C49.6368 51.7233 49.1757 53.8067 47.8134 54.4495L47.1741 54.8373L47.1008 54.649H46.7654C44.6696 54.5271 42.1755 51.8785 41.2219 48.7423L31.7068 14.2554C31.4232 13.5435 31.2867 12.7758 31.3066 12.0037C31.3265 11.2315 31.5022 10.4728 31.8221 9.77829Z" fill="url(#paint8_linear_4711_1782)"/>
<path d="M45.9704 55.0594C48.0662 55.1813 49.0094 52.7322 48.0662 49.596L38.5511 15.1091C37.587 11.9619 35.1034 9.32434 32.9971 9.20243C30.9012 9.06945 29.9581 11.5185 30.9012 14.6658L40.4792 49.186C41.3805 52.2889 43.864 54.9375 45.9704 55.0594Z" fill="url(#paint9_linear_4711_1782)"/>
<path d="M45.9704 55.0594C48.0662 55.1813 49.0094 52.7322 48.0662 49.596L38.5511 15.1091C37.587 11.9619 35.1034 9.32434 32.9971 9.20243C30.9012 9.06945 29.9581 11.5185 30.9012 14.6658L40.4792 49.186C41.3805 52.2889 43.864 54.9375 45.9704 55.0594Z" fill="url(#paint10_linear_4711_1782)"/>
<path style="mix-blend-mode:color-dodge" d="M47.9627 49.7179L38.4475 15.231C37.4834 12.0948 34.9999 9.44629 32.8935 9.32439C32.4136 9.28217 31.9341 9.41085 31.5312 9.69005C31.7468 9.4833 32.0006 9.32633 32.2766 9.22902C32.5527 9.13172 32.8449 9.0962 33.1346 9.12486C35.2304 9.24676 37.7245 11.8954 38.6781 15.0315L48.1932 49.5184C48.9058 51.8678 48.5705 53.8294 47.4806 54.6162C48.3819 53.7296 48.6229 51.89 47.9627 49.7179Z" fill="url(#paint11_radial_4711_1782)"/>
<path d="M39.0763 51.9573V59.3489L32.1914 55.1267V47.6797L39.0763 51.9573Z" fill="url(#paint12_linear_4711_1782)"/>
<path d="M39.0742 51.956V59.3476L45.9172 55.1476V47.6895L39.0742 51.956Z" fill="url(#paint13_linear_4711_1782)"/>
<path d="M45.9192 47.691L39.0763 51.9575L32.1914 47.6799L39.0658 43.4355L45.9192 47.691Z" fill="url(#paint14_linear_4711_1782)"/>
<path d="M71.3498 35.3564L44.2086 18.7335C43.3388 18.2126 42.6367 18.7334 42.6367 19.9968V20.573C42.6464 21.196 42.7936 21.8079 43.0665 22.3601C43.3394 22.9123 43.7305 23.3895 44.2086 23.7536L71.3498 40.3764C72.2196 40.9084 72.9217 40.3764 72.9217 39.1131V38.5479C72.9153 37.9228 72.7696 37.3079 72.4965 36.7534C72.2234 36.1989 71.8306 35.7203 71.3498 35.3564Z" fill="url(#paint15_linear_4711_1782)"/>
<path d="M71.3498 35.3564L44.2086 18.7335C43.3388 18.2126 42.6367 18.7334 42.6367 19.9968V20.573C42.6464 21.196 42.7936 21.8079 43.0665 22.3601C43.3394 22.9123 43.7305 23.3895 44.2086 23.7536L71.3498 40.3764C72.2196 40.9084 72.9217 40.3764 72.9217 39.1131V38.5479C72.9153 37.9228 72.7696 37.3079 72.4965 36.7534C72.2234 36.1989 71.8306 35.7203 71.3498 35.3564Z" fill="url(#paint16_linear_4711_1782)"/>
<path d="M72.1653 34.8466L45.024 18.2237C44.8812 18.1208 44.7165 18.0568 44.5447 18.0375C44.3728 18.0181 44.1991 18.0441 44.039 18.1129L43.1797 18.6449C43.3454 18.5591 43.5295 18.5211 43.7135 18.5347C43.8975 18.5484 44.0748 18.6131 44.2276 18.7224L71.3688 35.3453C71.8482 35.7082 72.2401 36.185 72.5132 36.7375C72.7862 37.2899 72.9327 37.9025 72.9407 38.5258V39.091C72.9583 39.3235 72.9291 39.5572 72.855 39.7769C72.781 39.9965 72.6637 40.1971 72.5111 40.3654L72.9827 40.0218C73.231 39.8912 73.4371 39.6857 73.5751 39.4313C73.7131 39.1769 73.7768 38.8849 73.7581 38.5923V38.016C73.7444 37.393 73.5932 36.7821 73.3167 36.2319C73.0401 35.6816 72.6459 35.2072 72.1653 34.8466Z" fill="url(#paint17_linear_4711_1782)"/>
<path style="mix-blend-mode:color-dodge" d="M71.4474 35.2784L44.3061 18.6001C44.1396 18.49 43.9471 18.4316 43.7507 18.4316C43.5543 18.4316 43.3619 18.49 43.1953 18.6001C43.3491 18.5473 43.5124 18.5327 43.6724 18.5577C43.8324 18.5827 43.9847 18.6466 44.1175 18.7442L71.2482 35.3671C71.7283 35.73 72.1214 36.2066 72.3962 36.7588C72.6709 37.3111 72.8197 37.9237 72.8306 38.5476V39.1238C72.8527 39.3638 72.8216 39.606 72.7397 39.831C72.6579 40.0561 72.5275 40.2579 72.359 40.4204C72.5899 40.283 72.7763 40.0752 72.8941 39.8242C73.0118 39.5732 73.0554 39.2906 73.0192 39.013V38.4478C73.0104 37.8262 72.8635 37.2155 72.5904 36.665C72.3174 36.1145 71.9258 35.6395 71.4474 35.2784Z" fill="url(#paint18_radial_4711_1782)"/>
<path d="M68.8353 36.2969L68.7829 36.1528L69.1182 35.9755C69.321 35.8636 69.5311 35.7673 69.747 35.6874C69.8713 35.6589 69.9999 35.6589 70.1242 35.6874C71.1722 35.7539 72.4821 37.1058 72.9746 38.7127L75.4896 46.9023C75.8878 48.2099 75.6573 49.2738 74.9761 49.6063L74.295 49.9498V49.85H74.1168C73.0689 49.7835 71.759 48.4316 71.2665 46.8247L68.7515 38.624C68.6035 38.2533 68.5343 37.8528 68.5488 37.4507C68.5632 37.0485 68.6611 36.6546 68.8353 36.2969Z" fill="url(#paint19_linear_4711_1782)"/>
<path d="M73.7299 50.029C74.7778 50.029 75.2808 48.8321 74.7778 47.2252L72.2628 39.0358C71.7703 37.4289 70.4918 36.0658 69.4124 36.0103C68.3645 35.9439 67.8615 37.1961 68.3645 38.803L70.869 46.9704C71.372 48.6105 72.6505 49.9625 73.7299 50.029Z" fill="url(#paint20_linear_4711_1782)"/>
<path d="M73.7299 50.029C74.7778 50.029 75.2808 48.8321 74.7778 47.2252L72.2628 39.0358C71.7703 37.4289 70.4918 36.0658 69.4124 36.0103C68.3645 35.9439 67.8615 37.1961 68.3645 38.803L70.869 46.9704C71.372 48.6105 72.6505 49.9625 73.7299 50.029Z" fill="url(#paint21_linear_4711_1782)"/>
<path style="mix-blend-mode:color-dodge" d="M74.7433 47.2904L72.2178 39.0898C71.7252 37.483 70.4572 36.1309 69.3779 36.0644C69.1309 36.0474 68.8852 36.1134 68.6758 36.2529C68.7849 36.1463 68.9143 36.0655 69.0552 36.0159C69.1961 35.9662 69.3454 35.9488 69.4932 35.9647C70.5411 36.0312 71.851 37.3832 72.3435 38.9901L74.8585 47.1907C75.2253 48.3876 75.0576 49.4071 74.4918 49.7949C74.7442 49.4407 74.901 49.0206 74.9453 48.5795C74.9896 48.1384 74.9197 47.6928 74.7433 47.2904Z" fill="url(#paint22_radial_4711_1782)"/>
<path d="M71.2859 57.9395H70.5V67.2926C70.5 67.4256 70.6782 67.5364 70.8877 67.5364C71.0973 67.5364 71.2859 67.4256 71.2859 67.2926V57.9395Z" fill="url(#paint23_linear_4711_1782)"/>
<path d="M69.4023 54.4609H72.3889V59.3148C72.3889 59.8246 71.7183 60.2457 70.8904 60.2457C70.0625 60.2457 69.4023 59.8246 69.4023 59.3259V54.4609Z" fill="url(#paint24_linear_4711_1782)"/>
<path d="M68.2188 47.6016H73.5736V54.0512C73.5736 54.96 72.3685 55.7024 70.891 55.7024C69.4134 55.7024 68.2188 54.96 68.2188 54.0512V47.6016Z" fill="url(#paint25_linear_4711_1782)"/>
<path d="M73.5736 47.6121C73.5736 48.5208 72.3685 49.2633 70.891 49.2633C69.4134 49.2633 68.2188 48.5208 68.2188 47.6121C68.2188 46.7034 69.4134 45.9609 70.891 45.9609C72.3685 45.9609 73.5736 46.7034 73.5736 47.6121Z" fill="url(#paint26_linear_4711_1782)"/>
<path d="M70.8904 48.7654C71.9495 48.7654 72.8081 48.2395 72.8081 47.5907C72.8081 46.9419 71.9495 46.416 70.8904 46.416C69.8312 46.416 68.9727 46.9419 68.9727 47.5907C68.9727 48.2395 69.8312 48.7654 70.8904 48.7654Z" fill="url(#paint27_linear_4711_1782)"/>
<path d="M68.9703 51.6021C68.9703 52.4887 68.373 52.8434 67.6395 52.4001C67.2524 52.1352 66.93 51.7772 66.6988 51.3554C66.4675 50.9336 66.3338 50.46 66.3086 49.9731C66.3086 49.0866 66.9059 48.7319 67.6395 49.1752C68.0265 49.4401 68.3489 49.7981 68.5802 50.2199C68.8115 50.6417 68.9452 51.1153 68.9703 51.6021Z" fill="url(#paint28_linear_4711_1782)"/>
<g style="mix-blend-mode:screen">
<path d="M67.7254 49.1865C67.5963 49.0895 67.4464 49.0275 67.2893 49.0063C67.1321 48.985 66.9723 49.0051 66.8242 49.0647C67.0967 49.0077 67.3794 49.0675 67.6102 49.2308C67.9955 49.4977 68.3165 49.8562 68.5476 50.2776C68.7787 50.6989 68.9134 51.1716 68.941 51.6578C68.9622 51.8375 68.9339 52.0199 68.8595 52.183C68.7852 52.3461 68.6679 52.4831 68.5218 52.5776C68.7009 52.5045 68.8512 52.3693 68.9483 52.1942C69.0453 52.0191 69.0834 51.8144 69.0563 51.6135C69.0311 51.1266 68.8974 50.653 68.6661 50.2312C68.4348 49.8094 68.1125 49.4514 67.7254 49.1865Z" fill="#E6E7E8"/>
</g>
<path d="M34.1279 19.4412V29.3374L17.5078 19.1752V9.44531L34.1279 19.4412Z" fill="url(#paint29_linear_4711_1782)"/>
<path d="M34.1172 19.4427V29.3389L41.9871 24.8397V14.8438L34.1172 19.4427Z" fill="url(#paint30_linear_4711_1782)"/>
<path d="M41.9873 14.8435L34.1174 19.4424L17.5078 9.4466L25.3987 4.88086L41.9873 14.8435Z" fill="url(#paint31_linear_4711_1782)"/>
<path d="M42.4609 24.4961V32.464L34.832 27.7542V19.9082L42.4609 24.4961Z" fill="url(#paint32_linear_4711_1782)"/>
<path d="M42.4492 24.4956V32.4635L48.7891 28.8398V20.7832L42.4492 24.4956Z" fill="url(#paint33_linear_4711_1782)"/>
<path d="M48.7904 20.7832L42.4504 24.4956L34.832 19.9077L41.1929 16.2285L48.7904 20.7832Z" fill="url(#paint34_linear_4711_1782)"/>
<path d="M42.918 28.5182C42.918 30.391 44.165 31.1446 45.7054 30.2026C46.519 29.6465 47.1965 28.8948 47.6828 28.0089C48.1691 27.1229 48.4503 26.1278 48.5034 25.105C48.5034 23.2211 47.2564 22.4675 45.7054 23.4094C44.8942 23.9698 44.2192 24.7243 43.7349 25.6119C43.2507 26.4994 42.9708 27.495 42.918 28.5182Z" fill="#414141"/>
<path d="M43.4539 28.2296C43.4248 28.5331 43.4702 28.8395 43.5859 29.1191C43.7015 29.3986 43.8835 29.6419 44.1141 29.8254L66.1205 43.1237C66.5501 43.3785 66.2672 42.8023 66.9169 42.4033C67.6027 41.9304 68.1741 41.2941 68.5854 40.5455C68.9967 39.7968 69.2364 38.9567 69.2852 38.0924C69.2852 37.3056 69.9768 37.2945 69.5577 36.9842L47.4779 23.6859C47.2092 23.5648 46.9154 23.5195 46.6251 23.5544C46.3349 23.5894 46.0582 23.7034 45.8222 23.8854C45.1323 24.3616 44.5583 25.0032 44.1468 25.758C43.7353 26.5128 43.4979 27.3595 43.4539 28.2296Z" fill="url(#paint35_linear_4711_1782)"/>
<path style="mix-blend-mode:multiply" d="M43.4539 28.2296C43.4248 28.5331 43.4702 28.8395 43.5859 29.1191C43.7015 29.3986 43.8835 29.6419 44.1141 29.8254L66.1205 43.1237C66.5501 43.3785 66.2672 42.8023 66.9169 42.4033C67.6027 41.9304 68.1741 41.2941 68.5854 40.5455C68.9967 39.7968 69.2364 38.9567 69.2852 38.0924C69.2852 37.3056 69.9768 37.2945 69.5577 36.9842L47.4779 23.6859C47.2092 23.5648 46.9154 23.5195 46.6251 23.5544C46.3349 23.5894 46.0582 23.7034 45.8222 23.8854C45.1323 24.3616 44.5583 25.0032 44.1468 25.758C43.7353 26.5128 43.4979 27.3595 43.4539 28.2296Z" fill="url(#paint36_linear_4711_1782)"/>
<path d="M43.4539 28.2296C43.4248 28.5331 43.4702 28.8395 43.5859 29.1191C43.7015 29.3986 43.8835 29.6419 44.1141 29.8254L66.1205 43.1237C66.5501 43.3785 66.2672 42.8023 66.9169 42.4033C67.6027 41.9304 68.1741 41.2941 68.5854 40.5455C68.9967 39.7968 69.2364 38.9567 69.2852 38.0924C69.2852 37.3056 69.9768 37.2945 69.5577 36.9842L47.4779 23.6859C47.2092 23.5648 46.9154 23.5195 46.6251 23.5544C46.3349 23.5894 46.0582 23.7034 45.8222 23.8854C45.1323 24.3616 44.5583 25.0032 44.1468 25.758C43.7353 26.5128 43.4979 27.3595 43.4539 28.2296Z" fill="url(#paint37_linear_4711_1782)"/>
<path d="M65.5117 41.5388C65.5117 43.1346 66.5596 43.7552 67.88 42.9684C68.5672 42.4944 69.1395 41.8563 69.5509 41.1056C69.9622 40.355 70.2011 39.5126 70.2483 38.6464C70.2483 37.0617 69.2004 36.4301 67.88 37.228C67.1942 37.7009 66.6228 38.3372 66.2115 39.0858C65.8002 39.8344 65.5605 40.6745 65.5117 41.5388Z" fill="url(#paint38_linear_4711_1782)"/>
<path d="M66.2695 41.0754C66.2695 42.1836 66.9821 42.5825 67.8729 42.0395C68.3395 41.7203 68.728 41.2888 69.0067 40.7803C69.2853 40.2718 69.4462 39.7007 69.4762 39.1139C69.4762 38.0057 68.7636 37.5957 67.8729 38.1387C67.4054 38.4597 67.0165 38.8931 66.7378 39.4035C66.4592 39.9139 66.2987 40.4868 66.2695 41.0754Z" fill="url(#paint39_linear_4711_1782)"/>
<path d="M66.2695 41.0754C66.2695 42.1836 66.9821 42.5825 67.8729 42.0395C68.3395 41.7203 68.728 41.2888 69.0067 40.7803C69.2853 40.2718 69.4462 39.7007 69.4762 39.1139C69.4762 38.0057 68.7636 37.5957 67.8729 38.1387C67.4054 38.4597 67.0165 38.8931 66.7378 39.4035C66.4592 39.9139 66.2987 40.4868 66.2695 41.0754Z" fill="url(#paint40_linear_4711_1782)"/>
<path style="mix-blend-mode:color-dodge" d="M67.7238 37.1617C67.9574 36.9884 68.2278 36.8785 68.511 36.8418C68.7943 36.8051 69.0818 36.8427 69.3481 36.9512C68.8576 36.8499 68.3492 36.9574 67.9334 37.2503C67.2476 37.7232 66.6761 38.3595 66.2648 39.1082C65.8535 39.8568 65.6139 40.6969 65.5651 41.5612C65.5289 41.8811 65.5797 42.2052 65.7115 42.4957C65.8432 42.7862 66.0505 43.0309 66.3091 43.2013C65.7327 43.0351 65.3555 42.4256 65.3555 41.4836C65.4027 40.6174 65.6416 39.7751 66.053 39.0244C66.4643 38.2737 67.0366 37.6357 67.7238 37.1617Z" fill="url(#paint41_radial_4711_1782)"/>
<path d="M22.6641 15.0978L22.5593 14.8208L23.2195 14.4662C23.3836 14.3435 23.5636 14.2465 23.7539 14.178H23.8587C24.1041 14.1062 24.3593 14.08 24.6132 14.1005C26.709 14.2224 29.2031 16.8709 30.1567 20.0071L39.6719 54.494C40.4473 57.0318 39.9862 59.1152 38.6763 59.7579L38.0266 60.1569L37.9533 59.9574H37.597C35.5011 59.8355 32.9966 57.1981 32.043 54.0508L22.5278 19.5639C22.2483 18.8522 22.1159 18.0855 22.1394 17.3153C22.1629 16.5451 22.3418 15.789 22.6641 15.0978Z" fill="url(#paint42_linear_4711_1782)"/>
<path d="M36.7568 60.3789C38.8526 60.5008 39.7853 58.0517 38.8526 54.9156L29.3375 20.4286C28.3838 17.2814 25.9003 14.6439 23.7939 14.522C21.6981 14.4001 20.755 16.8381 21.6981 19.9854L31.2132 54.4723C32.1669 57.6085 34.6504 60.2681 36.7568 60.3789Z" fill="url(#paint43_linear_4711_1782)"/>
<path style="mix-blend-mode:color-dodge" d="M38.7413 55.0373L29.2261 20.5503C28.2725 17.4142 25.7889 14.7656 23.6826 14.6437C23.2022 14.5962 22.7211 14.7253 22.3203 15.0094C22.5346 14.8041 22.7867 14.6479 23.0608 14.5507C23.335 14.4534 23.6252 14.4172 23.9132 14.4443C26.009 14.5662 28.5031 17.2147 29.4672 20.3509L38.9718 54.8378C39.6949 57.1872 39.3491 59.1487 38.2592 59.9355C39.1605 59.049 39.4329 57.2094 38.7413 55.0373Z" fill="url(#paint44_radial_4711_1782)"/>
<path d="M37.3326 56.733C37.3326 58.085 36.4314 58.628 35.3206 57.952C34.7357 57.5515 34.2485 57.0104 33.8989 56.373C33.5492 55.7355 33.347 55.0197 33.3086 54.2839C33.3086 52.943 34.2098 52.4 35.3206 53.076C35.9042 53.4754 36.3905 54.0148 36.7401 54.6502C37.0896 55.2856 37.2926 55.9991 37.3326 56.733Z" fill="#414141"/>
<path d="M26.4859 22.327C27.2654 21.8451 27.2579 20.298 26.4693 18.8714C25.6807 17.4448 24.4095 16.6789 23.63 17.1607C22.8506 17.6426 22.8581 19.1897 23.6467 20.6163C24.4353 22.0429 25.7065 22.8088 26.4859 22.327Z" fill="#414141"/>
<path d="M26.5439 20.8815C26.5619 21.0924 26.529 21.3047 26.4484 21.4985C26.3678 21.6923 26.242 21.8613 26.0828 21.9897L25.2445 22.5105C24.9406 22.6878 25.1397 22.2889 24.6786 22.0118C24.1999 21.6786 23.8017 21.2313 23.516 20.7059C23.2303 20.1805 23.065 19.5916 23.0333 18.9865C23.0333 18.4435 22.5513 18.4435 22.8447 18.2551L23.7354 17.7231C23.9231 17.6405 24.1278 17.6104 24.3296 17.6356C24.5315 17.6608 24.7239 17.7406 24.8882 17.8672C25.3703 18.1949 25.7719 18.6391 26.0598 19.1632C26.3477 19.6873 26.5136 20.2763 26.5439 20.8815Z" fill="url(#paint45_linear_4711_1782)"/>
<path d="M25.6603 21.414C25.6603 22.5222 24.9268 22.9655 24.0046 22.4114C23.5261 22.0805 23.128 21.6352 22.8422 21.1116C22.5564 20.588 22.391 20.0007 22.3594 19.3971C22.3594 18.2889 23.0929 17.8345 24.0046 18.3997C24.4868 18.7273 24.8884 19.1716 25.1762 19.6957C25.4641 20.2198 25.63 20.8087 25.6603 21.414Z" fill="url(#paint46_linear_4711_1782)"/>
<path style="mix-blend-mode:color-dodge" d="M24.0927 18.3546C23.9299 18.2337 23.7414 18.1573 23.544 18.1322C23.3465 18.107 23.1462 18.134 22.9609 18.2106C23.1294 18.1719 23.3035 18.1696 23.4727 18.2039C23.642 18.2382 23.803 18.3083 23.946 18.41C24.4346 18.7438 24.84 19.1969 25.1282 19.7312C25.4164 20.2654 25.5788 20.8652 25.6017 21.4798C25.6171 21.6973 25.5766 21.9152 25.4843 22.1103C25.3921 22.3054 25.2516 22.4705 25.0777 22.5879C25.304 22.4991 25.4942 22.3304 25.6164 22.1103C25.7386 21.8902 25.7852 21.6322 25.7484 21.38C25.7172 20.7734 25.551 20.1833 25.2633 19.6576C24.9756 19.1318 24.5745 18.6854 24.0927 18.3546Z" fill="url(#paint47_radial_4711_1782)"/>
<path d="M36.7236 56.6782C36.7446 56.8893 36.7132 57.1027 36.6323 57.2971C36.5515 57.4914 36.424 57.6601 36.2625 57.7864L35.4241 58.3072C35.1202 58.4845 35.3193 58.0856 34.8583 57.8085C34.3786 57.479 33.9796 57.034 33.6936 56.5101C33.4077 55.9863 33.243 55.3983 33.213 54.7942C33.213 54.2512 32.731 54.2402 33.0244 54.0628L33.9151 53.5309C34.1023 53.4487 34.3061 53.4179 34.5076 53.4411C34.7091 53.4644 34.9018 53.541 35.0678 53.6638C35.5494 53.9922 35.9505 54.4366 36.2383 54.9605C36.5261 55.4845 36.6924 56.0731 36.7236 56.6782Z" fill="url(#paint48_linear_4711_1782)"/>
<path d="M35.8478 57.2209C35.8478 58.3291 35.1143 58.7724 34.1921 58.2072C33.7125 57.8777 33.3134 57.4327 33.0275 56.9088C32.7415 56.385 32.5768 55.797 32.5469 55.1929C32.5469 54.0847 33.2804 53.6415 34.1921 54.1956C34.6739 54.5263 35.075 54.9728 35.3627 55.4985C35.6504 56.0242 35.8167 56.6144 35.8478 57.2209Z" fill="url(#paint49_linear_4711_1782)"/>
<path style="mix-blend-mode:color-dodge" d="M34.2763 54.1626C34.1145 54.0399 33.9264 53.9615 33.7289 53.9344C33.5314 53.9073 33.3306 53.9324 33.1445 54.0075C33.4863 53.9388 33.8399 54.0144 34.1296 54.218C34.61 54.5477 35.0102 54.9924 35.2979 55.5161C35.5855 56.0398 35.7525 56.6277 35.7853 57.2323C35.8043 57.4503 35.7653 57.6696 35.6727 57.8654C35.5801 58.0612 35.4377 58.2258 35.2613 58.3405C35.4856 58.252 35.6744 58.085 35.7964 57.8673C35.9184 57.6495 35.9663 57.3942 35.932 57.1437C35.8944 56.5448 35.7252 55.9634 35.4377 55.4459C35.1503 54.9284 34.7526 54.489 34.2763 54.1626Z" fill="url(#paint50_radial_4711_1782)"/>
<path d="M66.1617 42.4143C66.1617 43.3119 65.5644 43.6665 64.8309 43.2233C64.4455 42.9564 64.1245 42.598 63.8934 42.1766C63.6624 41.7552 63.5276 41.2825 63.5 40.7963C63.5 39.9098 64.0973 39.5441 64.8309 39.9984C65.2171 40.2616 65.5391 40.6176 65.7704 41.0375C66.0017 41.4574 66.1358 41.9292 66.1617 42.4143Z" fill="url(#paint51_linear_4711_1782)"/>
<g style="mix-blend-mode:screen">
<path d="M64.8961 39.9661C64.7661 39.8662 64.6144 39.8027 64.455 39.7814C64.2956 39.7601 64.1337 39.7817 63.9844 39.8442C64.1209 39.8145 64.2617 39.8139 64.3984 39.8425C64.5352 39.871 64.6652 39.9281 64.7808 40.0104C65.1671 40.2736 65.489 40.6297 65.7203 41.0496C65.9516 41.4694 66.0857 41.9412 66.1117 42.4263C66.1328 42.606 66.1045 42.7884 66.0302 42.9515C65.9558 43.1146 65.8386 43.2516 65.6925 43.3461C66.0173 43.2574 66.2269 42.9139 66.2269 42.382C66.201 41.8968 66.0669 41.4251 65.8356 41.0052C65.6043 40.5853 65.2824 40.2293 64.8961 39.9661Z" fill="#E6E7E8"/>
</g>
<path d="M62.9257 39.7986V39.6546L63.2715 39.4772C63.4724 39.3613 63.6829 39.2649 63.9002 39.1891C64.0286 39.1661 64.1596 39.1661 64.288 39.1891C65.3359 39.2445 66.6353 40.6076 67.1278 42.2145L69.6533 50.404C70.0411 51.7006 69.8105 52.7755 69.1398 53.108L68.4482 53.4405V53.3407H68.2596C67.2117 53.2742 65.9018 51.9222 65.4197 50.3043L62.8942 42.1147C62.7425 41.7488 62.6667 41.3526 62.6721 40.953C62.6776 40.5535 62.764 40.1598 62.9257 39.7986Z" fill="url(#paint52_linear_4711_1782)"/>
<path d="M67.8189 53.5186C68.8668 53.5851 69.3698 52.3329 68.8668 50.726L66.3623 42.5364C65.8697 40.9185 64.6018 39.5665 63.5224 39.5C62.4745 39.5 61.961 40.6968 62.4745 42.3037L65 50.4932C65.4715 52.1112 66.7395 53.4632 67.8189 53.5186Z" fill="url(#paint53_linear_4711_1782)"/>
<path d="M67.8189 53.5186C68.8668 53.5851 69.3698 52.3329 68.8668 50.726L66.3623 42.5364C65.8697 40.9185 64.6018 39.5665 63.5224 39.5C62.4745 39.5 61.961 40.6968 62.4745 42.3037L65 50.4932C65.4715 52.1112 66.7395 53.4632 67.8189 53.5186Z" fill="url(#paint54_linear_4711_1782)"/>
<path style="mix-blend-mode:color-dodge" d="M68.8343 50.7813L66.3193 42.5918C65.8268 40.9849 64.5483 39.6329 63.469 39.5665C63.2253 39.5495 62.9829 39.6155 62.7773 39.7548C62.8865 39.6483 63.0158 39.5675 63.1567 39.5178C63.2977 39.4681 63.447 39.4507 63.5947 39.4667C64.6426 39.5332 65.9421 40.8852 66.4346 42.4921L68.9601 50.6816C69.3269 51.8895 69.1487 52.898 68.5829 53.297C68.8384 52.9421 68.9969 52.5199 69.0413 52.0764C69.0856 51.6328 69.014 51.1849 68.8343 50.7813Z" fill="url(#paint55_radial_4711_1782)"/>
<path d="M64.1416 39.7439L37.0003 23.121C36.1306 22.5891 35.418 23.121 35.418 24.3844V24.9496C35.4281 25.5736 35.5765 26.1865 35.8513 26.7389C36.1261 27.2913 36.5197 27.7678 37.0003 28.1301L64.1416 44.7529C65.0113 45.2738 65.7135 44.7529 65.7135 43.4896V42.9134C65.7021 42.2923 65.5542 41.6825 65.2813 41.1324C65.0085 40.5822 64.6183 40.1068 64.1416 39.7439Z" fill="url(#paint56_linear_4711_1782)"/>
<path d="M64.1416 39.7439L37.0003 23.121C36.1306 22.5891 35.418 23.121 35.418 24.3844V24.9496C35.4281 25.5736 35.5765 26.1865 35.8513 26.7389C36.1261 27.2913 36.5197 27.7678 37.0003 28.1301L64.1416 44.7529C65.0113 45.2738 65.7135 44.7529 65.7135 43.4896V42.9134C65.7021 42.2923 65.5542 41.6825 65.2813 41.1324C65.0085 40.5822 64.6183 40.1068 64.1416 39.7439Z" fill="url(#paint57_linear_4711_1782)"/>
<path d="M64.9465 39.2118L37.8053 22.589C37.6625 22.486 37.4978 22.422 37.3259 22.4027C37.1541 22.3834 36.9803 22.4093 36.8202 22.4782L35.9609 23.0101C36.1266 22.9244 36.3107 22.8864 36.4947 22.9C36.6788 22.9136 36.8561 22.9784 37.0089 23.0877L64.1501 39.7106C64.6282 40.0746 65.0193 40.5518 65.2922 41.104C65.5651 41.6562 65.7123 42.2681 65.722 42.8911V43.4673C65.7415 43.6992 65.7122 43.9328 65.6361 44.1513C65.56 44.3698 65.439 44.5676 65.2818 44.7306L65.7639 44.3982C66.0094 44.2648 66.2126 44.0584 66.3485 43.8044C66.4844 43.5504 66.5471 43.2599 66.5289 42.9686V42.3924C66.5196 41.7681 66.3715 41.1549 66.0966 40.6024C65.8218 40.0498 65.4278 39.5735 64.9465 39.2118Z" fill="url(#paint58_linear_4711_1782)"/>
<path style="mix-blend-mode:color-dodge" d="M64.2247 39.6679L37.0835 23.045C36.9203 22.9254 36.7266 22.8613 36.5281 22.8613C36.3295 22.8613 36.1358 22.9254 35.9727 23.045C36.1265 22.9922 36.2898 22.9777 36.4497 23.0027C36.6097 23.0277 36.7621 23.0915 36.8948 23.1891L64.0361 39.812C64.5142 40.1761 64.9053 40.6532 65.1782 41.2054C65.4511 41.7576 65.5982 42.3695 65.608 42.9925V43.5688C65.63 43.8071 65.5989 44.0476 65.517 44.2709C65.435 44.4942 65.3047 44.694 65.1364 44.8543C65.5346 44.6992 65.7966 44.2005 65.7966 43.458V42.8817C65.7918 42.2531 65.6469 41.6345 65.3738 41.0761C65.1007 40.5178 64.707 40.0353 64.2247 39.6679Z" fill="url(#paint59_radial_4711_1782)"/>
<path d="M64.5797 42.6246C64.5797 43.3781 64.0872 43.6773 63.4689 43.3005C63.1435 43.0779 62.8723 42.7772 62.6775 42.4229C62.4826 42.0686 62.3696 41.6706 62.3477 41.2614C62.3477 40.5189 62.8507 40.2198 63.4689 40.5965C63.7922 40.818 64.0614 41.1171 64.2544 41.4696C64.4475 41.822 64.559 42.2178 64.5797 42.6246Z" fill="#414141"/>
<path d="M70.1045 48.6542H71.6135C71.6135 46.4379 73.0596 45.1191 74.4533 43.8669C75.8471 42.6146 77.7543 40.8858 76.13 38.3259C75.9129 37.9135 75.6126 37.5566 75.2504 37.2808C74.8881 37.005 74.4729 36.817 74.0342 36.7301C72.6823 36.5417 71.5191 37.6499 70.4922 38.6362C70.094 39.0019 69.1718 39.8773 68.9622 39.7443C68.34 39.5363 67.7423 39.2537 67.1807 38.9021L66.1328 40.0769C66.8281 40.5891 67.5955 40.9818 68.4068 41.2404C69.4547 41.6726 70.5027 40.7085 71.4877 39.7776C72.2736 39.0351 73.1539 38.1818 73.8246 38.2705C74.1599 38.3148 74.5092 38.614 74.8725 39.1681C75.6794 40.4647 75.1974 41.0742 73.4683 42.6146C71.9697 43.9887 70.1045 45.6732 70.1045 48.6542Z" fill="#86C205"/>
<path d="M64.2258 42.5375C64.2358 42.6559 64.2169 42.7752 64.1711 42.8838C64.1252 42.9924 64.0539 43.0868 63.9639 43.158L63.4923 43.4462C63.3246 43.5459 63.4294 43.3243 63.1779 43.1691C62.9099 42.9811 62.6863 42.7304 62.5246 42.4364C62.3628 42.1424 62.2673 41.8129 62.2453 41.4736C62.2453 41.1633 61.9728 41.1633 62.1405 41.0525L62.6435 40.7644C62.7482 40.716 62.8628 40.6967 62.9765 40.7084C63.0902 40.72 63.1992 40.7622 63.2932 40.8309C63.5626 41.02 63.787 41.2724 63.9488 41.5685C64.1106 41.8645 64.2054 42.1962 64.2258 42.5375Z" fill="url(#paint60_linear_4711_1782)"/>
<path d="M63.7325 42.87C63.7325 43.4906 63.3133 43.7455 62.7998 43.4241C62.5283 43.24 62.3022 42.9902 62.14 42.6954C61.9778 42.4006 61.8843 42.0692 61.8672 41.7286C61.8672 41.108 62.2864 40.8532 62.7998 41.1745C63.0679 41.3625 63.2915 41.6132 63.4532 41.9073C63.6149 42.2013 63.7105 42.5307 63.7325 42.87Z" fill="url(#paint61_linear_4711_1782)"/>
<path style="mix-blend-mode:color-dodge" d="M62.8424 41.1406C62.7497 41.0739 62.6432 41.032 62.5318 41.0184C62.4204 41.0049 62.3076 41.0202 62.2031 41.063C62.3948 41.0225 62.594 41.0622 62.7585 41.1739C63.0279 41.363 63.2523 41.6154 63.4141 41.9115C63.5759 42.2075 63.6707 42.5392 63.6912 42.8805C63.7038 43.0059 63.6831 43.1325 63.6312 43.2461C63.5794 43.3597 63.4985 43.4557 63.3978 43.5232C63.5235 43.4721 63.6292 43.3774 63.6977 43.2547C63.7662 43.132 63.7934 42.9884 63.775 42.8473C63.7546 42.506 63.6598 42.1743 63.498 41.8783C63.3362 41.5822 63.1118 41.3297 62.8424 41.1406Z" fill="url(#paint62_radial_4711_1782)"/>
<path d="M68.2907 52.0005C68.2907 52.743 67.7877 53.1088 67.1694 52.6766C66.8459 52.4528 66.5768 52.1515 66.3838 51.7973C66.1908 51.443 66.0794 51.0457 66.0586 50.6375C66.0586 49.8839 66.5511 49.5847 67.1694 49.9615C67.4948 50.1841 67.766 50.4848 67.9609 50.8391C68.1557 51.1934 68.2687 51.5913 68.2907 52.0005Z" fill="#414141"/>
<path d="M67.9129 51.9346C67.925 52.0533 67.9071 52.1733 67.8611 52.2823C67.815 52.3913 67.7425 52.4855 67.6509 52.5552L67.1899 52.8545C67.0117 52.9542 67.127 52.7215 66.865 52.5663C66.5969 52.3783 66.3734 52.1276 66.2117 51.8336C66.0499 51.5396 65.9544 51.2102 65.9324 50.8708C65.9324 50.5605 65.6704 50.5605 65.8276 50.4608L66.3306 50.1616C66.4375 50.1128 66.5546 50.0943 66.6704 50.1079C66.7862 50.1215 66.8966 50.1667 66.9908 50.2391C67.2569 50.4283 67.4784 50.6795 67.6383 50.9735C67.7982 51.2674 67.8921 51.5963 67.9129 51.9346Z" fill="url(#paint63_linear_4711_1782)"/>
<path d="M67.42 52.2321C67.42 52.8527 67.0008 53.1076 66.4874 52.7973C66.2193 52.6093 65.9957 52.3586 65.834 52.0646C65.6723 51.7706 65.5767 51.4411 65.5547 51.1018C65.5547 50.4701 65.9739 50.2263 66.4874 50.5366C66.7554 50.7246 66.979 50.9753 67.1407 51.2693C67.3024 51.5633 67.398 51.8928 67.42 52.2321Z" fill="url(#paint64_linear_4711_1782)"/>
<path style="mix-blend-mode:color-dodge" d="M66.5416 50.5158C66.4506 50.4454 66.3444 50.4004 66.2327 50.3849C66.121 50.3694 66.0074 50.3839 65.9023 50.4271C65.9979 50.4068 66.0964 50.4071 66.1918 50.4281C66.2873 50.449 66.3777 50.4902 66.4577 50.549C66.7258 50.737 66.9494 50.9877 67.1111 51.2818C67.2728 51.5758 67.3684 51.9052 67.3904 52.2446C67.4031 52.37 67.3823 52.4967 67.3304 52.6102C67.2786 52.7238 67.1977 52.8198 67.097 52.8874C67.2208 52.8343 67.3242 52.7388 67.3907 52.6163C67.4572 52.4937 67.4829 52.3511 67.4638 52.2113C67.4429 51.8729 67.349 51.5441 67.1891 51.2502C67.0292 50.9562 66.8077 50.705 66.5416 50.5158Z" fill="url(#paint65_radial_4711_1782)"/>
<path d="M38.8024 26.6558C38.8024 27.3982 38.2994 27.6975 37.6916 27.3207C37.3669 27.0999 37.0962 26.8011 36.9013 26.4487C36.7065 26.0963 36.5931 25.7002 36.5703 25.2927C36.5703 24.5391 37.0733 24.1845 37.6916 24.6167C38.0145 24.8412 38.2832 25.1425 38.4761 25.4966C38.669 25.8507 38.7807 26.2477 38.8024 26.6558Z" fill="#414141"/>
<path d="M38.4329 26.5889C38.4428 26.7074 38.424 26.8266 38.3781 26.9352C38.3323 27.0439 38.2609 27.1382 38.1709 27.2095L37.6993 27.4977C37.5317 27.6085 37.6365 27.3758 37.385 27.2206C37.1129 27.0372 36.8862 26.7876 36.724 26.4926C36.5617 26.1977 36.4686 25.8659 36.4523 25.5251C36.4523 25.2148 36.1798 25.2148 36.3475 25.1151L36.84 24.8159C36.947 24.7671 37.0641 24.7486 37.1798 24.7622C37.2956 24.7758 37.406 24.821 37.5002 24.8934C37.7683 25.0814 37.9918 25.3321 38.1536 25.6262C38.3153 25.9202 38.4109 26.2496 38.4329 26.5889Z" fill="url(#paint66_linear_4711_1782)"/>
<path d="M37.933 26.8896C37.933 27.5102 37.5243 27.7651 37.0108 27.4548C36.7414 27.2657 36.517 27.0132 36.3552 26.7172C36.1934 26.4211 36.0986 26.0894 36.0781 25.7482C36.0781 25.1276 36.4868 24.8727 37.0108 25.1941C37.2769 25.3832 37.4984 25.6345 37.6583 25.9285C37.8182 26.2224 37.9121 26.5512 37.933 26.8896Z" fill="url(#paint67_linear_4711_1782)"/>
<path style="mix-blend-mode:color-dodge" d="M37.0533 25.1721C36.9624 25.1017 36.8561 25.0567 36.7444 25.0412C36.6327 25.0257 36.5191 25.0402 36.4141 25.0834C36.5096 25.0631 36.6081 25.0634 36.7035 25.0843C36.799 25.1053 36.8894 25.1464 36.9695 25.2053C37.2375 25.3933 37.4611 25.644 37.6228 25.938C37.7845 26.232 37.8801 26.5615 37.9021 26.9008C37.9148 27.0263 37.894 27.1529 37.8422 27.2665C37.7903 27.3801 37.7094 27.476 37.6087 27.5435C37.7345 27.4924 37.8402 27.3978 37.9087 27.2751C37.9772 27.1524 38.0044 27.0087 37.9859 26.8676C37.9639 26.5282 37.8684 26.1988 37.7066 25.9048C37.5449 25.6108 37.3214 25.36 37.0533 25.1721Z" fill="url(#paint68_radial_4711_1782)"/>
<defs>
<radialGradient id="paint0_radial_4711_1782" cx="0" cy="0" r="1" gradientUnits="userSpaceOnUse" gradientTransform="translate(43.5328 82.4742) scale(19.0802 9.84328)">
<stop stop-color="#5F5C5D"/>
<stop offset="1" stop-color="white"/>
</radialGradient>
<linearGradient id="paint1_linear_4711_1782" x1="-24.6582" y1="82.0351" x2="61.1387" y2="81.1607" gradientUnits="userSpaceOnUse">
<stop offset="0.0555556" stop-color="#3E3D3E"/>
<stop offset="0.2575" stop-color="#686868"/>
<stop offset="0.3569" stop-color="#868686"/>
<stop offset="0.4338" stop-color="#646464"/>
<stop offset="0.4949" stop-color="#535353"/>
<stop offset="0.5067" stop-color="#585858"/>
<stop offset="0.5196" stop-color="#919191"/>
<stop offset="0.5329" stop-color="#D6D6D6"/>
<stop offset="0.5466" stop-color="#FCFCFC"/>
<stop offset="0.5556" stop-color="white"/>
<stop offset="0.5678" stop-color="#D3D3D3"/>
<stop offset="0.5801" stop-color="#BCBCBC"/>
<stop offset="0.5915" stop-color="#A5A3A6"/>
<stop offset="0.601" stop-color="#A3A3A3"/>
<stop offset="0.658" stop-color="#707070"/>
<stop offset="0.7155" stop-color="#575757"/>
<stop offset="0.7687" stop-color="#676767"/>
<stop offset="0.8131" stop-color="#6D6D6D"/>
<stop offset="1" stop-color="#111111"/>
</linearGradient>
<linearGradient id="paint2_linear_4711_1782" x1="22.1891" y1="36.7768" x2="43.3117" y2="73.5495" gradientUnits="userSpaceOnUse">
<stop stop-color="#C6C6C6"/>
<stop offset="0.14" stop-color="#ADADAD"/>
<stop offset="0.33" stop-color="#A6A6A6"/>
<stop offset="0.55" stop-color="#B3B3B3"/>
<stop offset="0.638542" stop-color="#AEAEAE"/>
<stop offset="0.76" stop-color="#ADADAD"/>
<stop offset="1" stop-color="#D8D8D8"/>
</linearGradient>
<linearGradient id="paint3_linear_4711_1782" x1="-19.312" y1="76.6586" x2="59.343" y2="76.331" gradientUnits="userSpaceOnUse">
<stop offset="0.0555556" stop-color="#3E3D3E"/>
<stop offset="0.2575" stop-color="#686868"/>
<stop offset="0.3569" stop-color="#868686"/>
<stop offset="0.4338" stop-color="#646464"/>
<stop offset="0.4949" stop-color="#535353"/>
<stop offset="0.5067" stop-color="#585858"/>
<stop offset="0.5196" stop-color="#919191"/>
<stop offset="0.5329" stop-color="#D6D6D6"/>
<stop offset="0.5466" stop-color="#FCFCFC"/>
<stop offset="0.5556" stop-color="white"/>
<stop offset="0.5678" stop-color="#D3D3D3"/>
<stop offset="0.5801" stop-color="#BCBCBC"/>
<stop offset="0.5915" stop-color="#A5A3A6"/>
<stop offset="0.601" stop-color="#A3A3A3"/>
<stop offset="0.658" stop-color="#707070"/>
<stop offset="0.7155" stop-color="#575757"/>
<stop offset="0.7687" stop-color="#676767"/>
<stop offset="0.8131" stop-color="#6D6D6D"/>
<stop offset="1" stop-color="#111111"/>
</linearGradient>
<radialGradient id="paint4_radial_4711_1782" cx="0" cy="0" r="1" gradientUnits="userSpaceOnUse" gradientTransform="translate(39.2754 54.739) rotate(180) scale(9.54659 10.0956)">
<stop stop-color="white"/>
<stop offset="1"/>
</radialGradient>
<linearGradient id="paint5_linear_4711_1782" x1="23.6237" y1="21.7186" x2="42.9918" y2="55.4169" gradientUnits="userSpaceOnUse">
<stop stop-color="#C6C6C6"/>
<stop offset="0.14" stop-color="#ADADAD"/>
<stop offset="0.33" stop-color="#A6A6A6"/>
<stop offset="0.55" stop-color="#B3B3B3"/>
<stop offset="0.638542" stop-color="#AEAEAE"/>
<stop offset="0.76" stop-color="#ADADAD"/>
<stop offset="1" stop-color="#D8D8D8"/>
</linearGradient>
<radialGradient id="paint6_radial_4711_1782" cx="0" cy="0" r="1" gradientUnits="userSpaceOnUse" gradientTransform="translate(103.331 20.0401) rotate(-90.3264) scale(6.84338 1.75419)">
<stop stop-color="#DC3DAA"/>
<stop offset="0.07" stop-color="#BD3492"/>
<stop offset="0.2" stop-color="#8B276B"/>
<stop offset="0.33" stop-color="#601B4A"/>
<stop offset="0.46" stop-color="#3E1130"/>
<stop offset="0.59" stop-color="#230A1B"/>
<stop offset="0.72" stop-color="#0F040C"/>
<stop offset="0.86" stop-color="#040103"/>
<stop offset="1"/>
</radialGradient>
<linearGradient id="paint7_linear_4711_1782" x1="17.4199" y1="20.6108" x2="31.0097" y2="3.76309" gradientUnits="userSpaceOnUse">
<stop offset="0.0555556" stop-color="#3E3D3E"/>
<stop offset="0.2575" stop-color="#686868"/>
<stop offset="0.3569" stop-color="#868686"/>
<stop offset="0.4338" stop-color="#646464"/>
<stop offset="0.4949" stop-color="#535353"/>
<stop offset="0.5067" stop-color="#585858"/>
<stop offset="0.5196" stop-color="#919191"/>
<stop offset="0.5329" stop-color="#D6D6D6"/>
<stop offset="0.5466" stop-color="#FCFCFC"/>
<stop offset="0.5556" stop-color="white"/>
<stop offset="0.5678" stop-color="#D3D3D3"/>
<stop offset="0.5801" stop-color="#BCBCBC"/>
<stop offset="0.5915" stop-color="#A5A3A6"/>
<stop offset="0.601" stop-color="#A3A3A3"/>
<stop offset="0.658" stop-color="#707070"/>
<stop offset="0.7155" stop-color="#575757"/>
<stop offset="0.7687" stop-color="#676767"/>
<stop offset="0.8131" stop-color="#6D6D6D"/>
<stop offset="1" stop-color="#111111"/>
</linearGradient>
<linearGradient id="paint8_linear_4711_1782" x1="27.3643" y1="-11.3309" x2="75.8608" y2="1.51436" gradientUnits="userSpaceOnUse">
<stop stop-color="#8E8E8E"/>
<stop offset="0.14" stop-color="#949494"/>
<stop offset="0.27" stop-color="#A2A2A2"/>
<stop offset="0.4" stop-color="#B4B4B4"/>
<stop offset="0.52" stop-color="#C1C1C1"/>
<stop offset="0.65" stop-color="#D3D3D3"/>
<stop offset="0.9" stop-color="#E1E1E1"/>
<stop offset="1" stop-color="white"/>
</linearGradient>
<linearGradient id="paint9_linear_4711_1782" x1="30.0931" y1="6.20633" x2="2.80057" y2="8.72543" gradientUnits="userSpaceOnUse">
<stop stop-color="#9F79C8"/>
<stop offset="0.14" stop-color="#A580CB"/>
<stop offset="0.33" stop-color="#B492D3"/>
<stop offset="0.55" stop-color="#CDB0E1"/>
<stop offset="0.58" stop-color="#D1B4E3"/>
<stop offset="0.76" stop-color="#DBC4E9"/>
<stop offset="1" stop-color="#EBDEF3"/>
</linearGradient>
<linearGradient id="paint10_linear_4711_1782" x1="27.2993" y1="36.9789" x2="57.4628" y2="31.419" gradientUnits="userSpaceOnUse">
<stop stop-color="#ADADAD"/>
<stop offset="0.106774" stop-color="#626262"/>
<stop offset="0.33" stop-color="#828282"/>
<stop offset="0.55" stop-color="#808080"/>
<stop offset="0.638542" stop-color="#949494"/>
<stop offset="0.76" stop-color="#ADADAD"/>
<stop offset="1" stop-color="#D8D8D8"/>
</linearGradient>
<radialGradient id="paint11_radial_4711_1782" cx="0" cy="0" r="1" gradientUnits="userSpaceOnUse" gradientTransform="translate(46.0869 8.8589) rotate(180) scale(12.9628 13.7083)">
<stop stop-color="white"/>
<stop offset="1"/>
</radialGradient>
<linearGradient id="paint12_linear_4711_1782" x1="37.0014" y1="53.941" x2="18.9037" y2="48.8229" gradientUnits="userSpaceOnUse">
<stop stop-color="#9F79C8"/>
<stop offset="0.14" stop-color="#A580CB"/>
<stop offset="0.33" stop-color="#B492D3"/>
<stop offset="0.55" stop-color="#CDB0E1"/>
<stop offset="0.58" stop-color="#D1B4E3"/>
<stop offset="0.76" stop-color="#DBC4E9"/>
<stop offset="1" stop-color="#EBDEF3"/>
</linearGradient>
<linearGradient id="paint13_linear_4711_1782" x1="65.6764" y1="42.5365" x2="80.6316" y2="83.8734" gradientUnits="userSpaceOnUse">
<stop stop-color="#C6C6C6"/>
<stop offset="0.14" stop-color="#ADADAD"/>
<stop offset="0.33" stop-color="#A6A6A6"/>
<stop offset="0.55" stop-color="#B3B3B3"/>
<stop offset="0.638542" stop-color="#AEAEAE"/>
<stop offset="0.76" stop-color="#ADADAD"/>
<stop offset="1" stop-color="#D8D8D8"/>
</linearGradient>
<linearGradient id="paint14_linear_4711_1782" x1="29.8525" y1="28.3372" x2="41.3709" y2="48.2263" gradientUnits="userSpaceOnUse">
<stop stop-color="#C6C6C6"/>
<stop offset="0.14" stop-color="#ADADAD"/>
<stop offset="0.33" stop-color="#A6A6A6"/>
<stop offset="0.55" stop-color="#B3B3B3"/>
<stop offset="0.638542" stop-color="#AEAEAE"/>
<stop offset="0.76" stop-color="#ADADAD"/>
<stop offset="1" stop-color="#D8D8D8"/>
</linearGradient>
<linearGradient id="paint15_linear_4711_1782" x1="38.8884" y1="10.9393" x2="69.1213" y2="62.5545" gradientUnits="userSpaceOnUse">
<stop stop-color="#C6C6C6"/>
<stop offset="0.14" stop-color="#ADADAD"/>
<stop offset="0.33" stop-color="#A6A6A6"/>
<stop offset="0.55" stop-color="#B3B3B3"/>
<stop offset="0.638542" stop-color="#AEAEAE"/>
<stop offset="0.76" stop-color="#ADADAD"/>
<stop offset="1" stop-color="#D8D8D8"/>
</linearGradient>
<linearGradient id="paint16_linear_4711_1782" x1="37.1612" y1="31.888" x2="74.3006" y2="7.78954" gradientUnits="userSpaceOnUse">
<stop stop-color="#ADADAD"/>
<stop offset="0.106774" stop-color="#626262"/>
<stop offset="0.33" stop-color="#828282"/>
<stop offset="0.55" stop-color="#808080"/>
<stop offset="0.638542" stop-color="#949494"/>
<stop offset="0.76" stop-color="#ADADAD"/>
<stop offset="1" stop-color="#D8D8D8"/>
</linearGradient>
<linearGradient id="paint17_linear_4711_1782" x1="50.8741" y1="14.1345" x2="68.9698" y2="43.3666" gradientUnits="userSpaceOnUse">
<stop stop-color="#8E8E8E"/>
<stop offset="0.14" stop-color="#949494"/>
<stop offset="0.27" stop-color="#A2A2A2"/>
<stop offset="0.4" stop-color="#B4B4B4"/>
<stop offset="0.52" stop-color="#C1C1C1"/>
<stop offset="0.65" stop-color="#D3D3D3"/>
<stop offset="0.9" stop-color="#E1E1E1"/>
<stop offset="1" stop-color="white"/>
</linearGradient>
<radialGradient id="paint18_radial_4711_1782" cx="0" cy="0" r="1" gradientUnits="userSpaceOnUse" gradientTransform="translate(61.2615 29.4604) scale(12.3131 13.0213)">
<stop stop-color="white"/>
<stop offset="1"/>
</radialGradient>
<linearGradient id="paint19_linear_4711_1782" x1="70.3428" y1="33.1739" x2="81.6562" y2="39.8437" gradientUnits="userSpaceOnUse">
<stop stop-color="#8E8E8E"/>
<stop offset="0.14" stop-color="#949494"/>
<stop offset="0.27" stop-color="#A2A2A2"/>
<stop offset="0.4" stop-color="#B4B4B4"/>
<stop offset="0.52" stop-color="#C1C1C1"/>
<stop offset="0.65" stop-color="#D3D3D3"/>
<stop offset="0.9" stop-color="#E1E1E1"/>
<stop offset="1" stop-color="white"/>
</linearGradient>
<linearGradient id="paint20_linear_4711_1782" x1="67.3256" y1="31.1786" x2="86.8258" y2="42.9442" gradientUnits="userSpaceOnUse">
<stop stop-color="#C6C6C6"/>
<stop offset="0.14" stop-color="#ADADAD"/>
<stop offset="0.33" stop-color="#A6A6A6"/>
<stop offset="0.55" stop-color="#B3B3B3"/>
<stop offset="0.638542" stop-color="#AEAEAE"/>
<stop offset="0.76" stop-color="#ADADAD"/>
<stop offset="1" stop-color="#D8D8D8"/>
</linearGradient>
<linearGradient id="paint21_linear_4711_1782" x1="66.9374" y1="44.5005" x2="78.2059" y2="41.9165" gradientUnits="userSpaceOnUse">
<stop stop-color="#ADADAD"/>
<stop offset="0.106774" stop-color="#626262"/>
<stop offset="0.33" stop-color="#828282"/>
<stop offset="0.55" stop-color="#808080"/>
<stop offset="0.638542" stop-color="#949494"/>
<stop offset="0.76" stop-color="#ADADAD"/>
<stop offset="1" stop-color="#D8D8D8"/>
</linearGradient>
<radialGradient id="paint22_radial_4711_1782" cx="0" cy="0" r="1" gradientUnits="userSpaceOnUse" gradientTransform="translate(74.125 35.8872) rotate(180) scale(4.04498 4.27761)">
<stop stop-color="white"/>
<stop offset="1"/>
</radialGradient>
<linearGradient id="paint23_linear_4711_1782" x1="68.9217" y1="66.7531" x2="72.9543" y2="66.7512" gradientUnits="userSpaceOnUse">
<stop offset="0.0555556" stop-color="#3E3D3E"/>
<stop offset="0.2575" stop-color="#686868"/>
<stop offset="0.3569" stop-color="#868686"/>
<stop offset="0.4338" stop-color="#646464"/>
<stop offset="0.4949" stop-color="#535353"/>
<stop offset="0.5067" stop-color="#585858"/>
<stop offset="0.5196" stop-color="#919191"/>
<stop offset="0.5329" stop-color="#D6D6D6"/>
<stop offset="0.5466" stop-color="#FCFCFC"/>
<stop offset="0.5556" stop-color="white"/>
<stop offset="0.5678" stop-color="#D3D3D3"/>
<stop offset="0.5801" stop-color="#BCBCBC"/>
<stop offset="0.5915" stop-color="#A5A3A6"/>
<stop offset="0.601" stop-color="#A3A3A3"/>
<stop offset="0.658" stop-color="#707070"/>
<stop offset="0.7155" stop-color="#575757"/>
<stop offset="0.7687" stop-color="#676767"/>
<stop offset="0.8131" stop-color="#6D6D6D"/>
<stop offset="1" stop-color="#111111"/>
</linearGradient>
<linearGradient id="paint24_linear_4711_1782" x1="63.405" y1="59.7735" x2="78.7286" y2="59.7289" gradientUnits="userSpaceOnUse">
<stop offset="0.0555556" stop-color="#3E3D3E"/>
<stop offset="0.2575" stop-color="#686868"/>
<stop offset="0.3569" stop-color="#868686"/>
<stop offset="0.4338" stop-color="#646464"/>
<stop offset="0.4949" stop-color="#535353"/>
<stop offset="0.5067" stop-color="#585858"/>
<stop offset="0.5196" stop-color="#919191"/>
<stop offset="0.5329" stop-color="#D6D6D6"/>
<stop offset="0.5466" stop-color="#FCFCFC"/>
<stop offset="0.5556" stop-color="white"/>
<stop offset="0.5678" stop-color="#D3D3D3"/>
<stop offset="0.5801" stop-color="#BCBCBC"/>
<stop offset="0.5915" stop-color="#A5A3A6"/>
<stop offset="0.601" stop-color="#A3A3A3"/>
<stop offset="0.658" stop-color="#707070"/>
<stop offset="0.7155" stop-color="#575757"/>
<stop offset="0.7687" stop-color="#676767"/>
<stop offset="0.8131" stop-color="#6D6D6D"/>
<stop offset="1" stop-color="#111111"/>
</linearGradient>
<linearGradient id="paint25_linear_4711_1782" x1="57.4655" y1="55.0413" x2="84.9404" y2="54.9388" gradientUnits="userSpaceOnUse">
<stop offset="0.0555556" stop-color="#3E3D3E"/>
<stop offset="0.2575" stop-color="#686868"/>
<stop offset="0.3569" stop-color="#868686"/>
<stop offset="0.4338" stop-color="#646464"/>
<stop offset="0.4949" stop-color="#535353"/>
<stop offset="0.5067" stop-color="#585858"/>
<stop offset="0.5196" stop-color="#919191"/>
<stop offset="0.5329" stop-color="#D6D6D6"/>
<stop offset="0.5466" stop-color="#FCFCFC"/>
<stop offset="0.5556" stop-color="white"/>
<stop offset="0.5678" stop-color="#D3D3D3"/>
<stop offset="0.5801" stop-color="#BCBCBC"/>
<stop offset="0.5915" stop-color="#A5A3A6"/>
<stop offset="0.601" stop-color="#A3A3A3"/>
<stop offset="0.658" stop-color="#707070"/>
<stop offset="0.7155" stop-color="#575757"/>
<stop offset="0.7687" stop-color="#676767"/>
<stop offset="0.8131" stop-color="#6D6D6D"/>
<stop offset="1" stop-color="#111111"/>
</linearGradient>
<linearGradient id="paint26_linear_4711_1782" x1="67.3064" y1="40.1101" x2="71.7552" y2="47.8428" gradientUnits="userSpaceOnUse">
<stop stop-color="#C6C6C6"/>
<stop offset="0.14" stop-color="#ADADAD"/>
<stop offset="0.33" stop-color="#A6A6A6"/>
<stop offset="0.55" stop-color="#B3B3B3"/>
<stop offset="0.638542" stop-color="#AEAEAE"/>
<stop offset="0.76" stop-color="#ADADAD"/>
<stop offset="1" stop-color="#D8D8D8"/>
</linearGradient>
<linearGradient id="paint27_linear_4711_1782" x1="56.6081" y1="47.3392" x2="80.8638" y2="48.5323" gradientUnits="userSpaceOnUse">
<stop stop-color="#3E3D3E"/>
<stop offset="0.0555556" stop-color="#3E3D3E"/>
<stop offset="0.2575" stop-color="#686868"/>
<stop offset="0.3569" stop-color="#868686"/>
<stop offset="0.4338" stop-color="#646464"/>
<stop offset="0.4949" stop-color="#535353"/>
<stop offset="0.5067" stop-color="#585858"/>
<stop offset="0.5196" stop-color="#919191"/>
<stop offset="0.5329" stop-color="#D6D6D6"/>
<stop offset="0.5466" stop-color="#FCFCFC"/>
<stop offset="0.5556" stop-color="white"/>
<stop offset="0.5678" stop-color="#D3D3D3"/>
<stop offset="0.5801" stop-color="#BCBCBC"/>
<stop offset="0.5915" stop-color="#A5A3A6"/>
<stop offset="0.601" stop-color="#A3A3A3"/>
<stop offset="0.658" stop-color="#707070"/>
<stop offset="0.7155" stop-color="#575757"/>
<stop offset="0.7687" stop-color="#676767"/>
<stop offset="0.8131" stop-color="#6D6D6D"/>
<stop offset="1" stop-color="#111111"/>
</linearGradient>
<linearGradient id="paint28_linear_4711_1782" x1="67.0212" y1="50.9816" x2="71.2498" y2="49.782" gradientUnits="userSpaceOnUse">
<stop stop-color="#9F79C8"/>
<stop offset="0.14" stop-color="#A580CB"/>
<stop offset="0.33" stop-color="#B492D3"/>
<stop offset="0.55" stop-color="#CDB0E1"/>
<stop offset="0.58" stop-color="#D1B4E3"/>
<stop offset="0.76" stop-color="#DBC4E9"/>
<stop offset="1" stop-color="#EBDEF3"/>
</linearGradient>
<linearGradient id="paint29_linear_4711_1782" x1="14.5029" y1="21.4941" x2="39.5621" y2="11.6035" gradientUnits="userSpaceOnUse">
<stop stop-color="#ADADAD"/>
<stop offset="0.106774" stop-color="#626262"/>
<stop offset="0.33" stop-color="#828282"/>
<stop offset="0.55" stop-color="#808080"/>
<stop offset="0.638542" stop-color="#949494"/>
<stop offset="0.76" stop-color="#ADADAD"/>
<stop offset="1" stop-color="#D8D8D8"/>
</linearGradient>
<linearGradient id="paint30_linear_4711_1782" x1="32.7763" y1="-10.8372" x2="56.952" y2="2.88852" gradientUnits="userSpaceOnUse">
<stop stop-color="#A0A0A0"/>
<stop offset="0.14" stop-color="#878686"/>
<stop offset="0.33" stop-color="#8E8E8E"/>
<stop offset="0.55" stop-color="#C8C8C8"/>
<stop offset="0.638542" stop-color="white"/>
<stop offset="0.76" stop-color="#A2A2A2"/>
<stop offset="1" stop-color="#D8D8D8"/>
</linearGradient>
<linearGradient id="paint31_linear_4711_1782" x1="13.3371" y1="-20.9177" x2="32.592" y2="13.7797" gradientUnits="userSpaceOnUse">
<stop stop-color="#C6C6C6"/>
<stop offset="0.14" stop-color="#ADADAD"/>
<stop offset="0.33" stop-color="#A6A6A6"/>
<stop offset="0.55" stop-color="#B3B3B3"/>
<stop offset="0.638542" stop-color="#AEAEAE"/>
<stop offset="0.76" stop-color="#ADADAD"/>
<stop offset="1" stop-color="#D8D8D8"/>
</linearGradient>
<linearGradient id="paint32_linear_4711_1782" x1="29.8547" y1="1.75835" x2="48.971" y2="12.055" gradientUnits="userSpaceOnUse">
<stop stop-color="#C6C6C6"/>
<stop offset="0.14" stop-color="#ADADAD"/>
<stop offset="0.33" stop-color="#A6A6A6"/>
<stop offset="0.55" stop-color="#B3B3B3"/>
<stop offset="0.638542" stop-color="#AEAEAE"/>
<stop offset="0.76" stop-color="#ADADAD"/>
<stop offset="1" stop-color="#D8D8D8"/>
</linearGradient>
<linearGradient id="paint33_linear_4711_1782" x1="41.2923" y1="6.85386" x2="57.4753" y2="15.1358" gradientUnits="userSpaceOnUse">
<stop stop-color="#BEBEBE"/>
<stop offset="0.14" stop-color="#878686"/>
<stop offset="0.33" stop-color="#8E8E8E"/>
<stop offset="0.55" stop-color="#C8C8C8"/>
<stop offset="0.638542" stop-color="#C0C0C0"/>
<stop offset="0.76" stop-color="#A2A2A2"/>
<stop offset="1" stop-color="#D8D8D8"/>
</linearGradient>
<linearGradient id="paint34_linear_4711_1782" x1="32.4539" y1="1.58184" x2="43.3603" y2="21.3209" gradientUnits="userSpaceOnUse">
<stop stop-color="#C6C6C6"/>
<stop offset="0.14" stop-color="#ADADAD"/>
<stop offset="0.33" stop-color="#A6A6A6"/>
<stop offset="0.55" stop-color="#B3B3B3"/>
<stop offset="0.638542" stop-color="#AEAEAE"/>
<stop offset="0.76" stop-color="#ADADAD"/>
<stop offset="1" stop-color="#D8D8D8"/>
</linearGradient>
<linearGradient id="paint35_linear_4711_1782" x1="58.282" y1="29.8032" x2="53.4418" y2="37.4099" gradientUnits="userSpaceOnUse">
<stop offset="0.01" stop-color="#C1A1D5"/>
<stop offset="0.05" stop-color="#C8ABDA"/>
<stop offset="0.11" stop-color="#DAC6E6"/>
<stop offset="0.2" stop-color="#F7F2F9"/>
<stop offset="0.22" stop-color="white"/>
<stop offset="0.25" stop-color="#F9F5FB"/>
<stop offset="0.3" stop-color="#E9DBF2"/>
<stop offset="0.36" stop-color="#D1B4E3"/>
<stop offset="0.43" stop-color="#B395D6"/>
<stop offset="0.49" stop-color="#9C7DCB"/>
<stop offset="0.56" stop-color="#8E6EC5"/>
<stop offset="0.61" stop-color="#8969C3"/>
<stop offset="0.76" stop-color="#9471C6"/>
<stop offset="1" stop-color="#B086CC"/>
</linearGradient>
<linearGradient id="paint36_linear_4711_1782" x1="46.2099" y1="35.5658" x2="72.1589" y2="30.6204" gradientUnits="userSpaceOnUse">
<stop offset="0.01" stop-color="#C1A1D5"/>
<stop offset="0.13" stop-color="#C8ABDA"/>
<stop offset="0.33" stop-color="#DAC6E6"/>
<stop offset="0.6" stop-color="#F7F2F9"/>
<stop offset="0.67" stop-color="white"/>
</linearGradient>
<linearGradient id="paint37_linear_4711_1782" x1="49.8083" y1="58.0944" x2="75.0501" y2="16.197" gradientUnits="userSpaceOnUse">
<stop offset="0.0555556" stop-color="#3E3D3E"/>
<stop offset="0.2575" stop-color="#686868"/>
<stop offset="0.3569" stop-color="#868686"/>
<stop offset="0.4338" stop-color="#646464"/>
<stop offset="0.4949" stop-color="#535353"/>
<stop offset="0.5067" stop-color="#585858"/>
<stop offset="0.5196" stop-color="#919191"/>
<stop offset="0.5329" stop-color="#D6D6D6"/>
<stop offset="0.5466" stop-color="#FCFCFC"/>
<stop offset="0.5556" stop-color="white"/>
<stop offset="0.5678" stop-color="#D3D3D3"/>
<stop offset="0.5801" stop-color="#BCBCBC"/>
<stop offset="0.5915" stop-color="#A5A3A6"/>
<stop offset="0.601" stop-color="#A3A3A3"/>
<stop offset="0.658" stop-color="#707070"/>
<stop offset="0.7155" stop-color="#575757"/>
<stop offset="0.7687" stop-color="#676767"/>
<stop offset="0.8131" stop-color="#6D6D6D"/>
<stop offset="1" stop-color="#111111"/>
</linearGradient>
<linearGradient id="paint38_linear_4711_1782" x1="66.7035" y1="35.7617" x2="72.4637" y2="40.7711" gradientUnits="userSpaceOnUse">
<stop stop-color="#8E8E8E"/>
<stop offset="0.14" stop-color="#949494"/>
<stop offset="0.27" stop-color="#A2A2A2"/>
<stop offset="0.4" stop-color="#B4B4B4"/>
<stop offset="0.52" stop-color="#C1C1C1"/>
<stop offset="0.65" stop-color="#D3D3D3"/>
<stop offset="0.9" stop-color="#E1E1E1"/>
<stop offset="1" stop-color="white"/>
</linearGradient>
<linearGradient id="paint39_linear_4711_1782" x1="66.5629" y1="42.3609" x2="69.4355" y2="37.916" gradientUnits="userSpaceOnUse">
<stop offset="0.01" stop-color="#C1A1D5"/>
<stop offset="0.05" stop-color="#C8ABDA"/>
<stop offset="0.11" stop-color="#DAC6E6"/>
<stop offset="0.2" stop-color="#F7F2F9"/>
<stop offset="0.22" stop-color="white"/>
<stop offset="0.25" stop-color="#F9F5FB"/>
<stop offset="0.3" stop-color="#E9DBF2"/>
<stop offset="0.36" stop-color="#D1B4E3"/>
<stop offset="0.43" stop-color="#B395D6"/>
<stop offset="0.49" stop-color="#9C7DCB"/>
<stop offset="0.56" stop-color="#8E6EC5"/>
<stop offset="0.61" stop-color="#8969C3"/>
<stop offset="0.76" stop-color="#9471C6"/>
<stop offset="1" stop-color="#B086CC"/>
</linearGradient>
<linearGradient id="paint40_linear_4711_1782" x1="79.5631" y1="22.3974" x2="61.0661" y2="49.6401" gradientUnits="userSpaceOnUse">
<stop stop-color="#3E3D3E"/>
<stop offset="0.2575" stop-color="#686868"/>
<stop offset="0.3569" stop-color="#868686"/>
<stop offset="0.4338" stop-color="#646464"/>
<stop offset="0.4949" stop-color="#535353"/>
<stop offset="0.5067" stop-color="#585858"/>
<stop offset="0.5196" stop-color="#919191"/>
<stop offset="0.5329" stop-color="#D6D6D6"/>
<stop offset="0.5466" stop-color="#FCFCFC"/>
<stop offset="0.5556" stop-color="white"/>
<stop offset="0.5678" stop-color="#D3D3D3"/>
<stop offset="0.5801" stop-color="#BCBCBC"/>
<stop offset="0.5915" stop-color="#A5A3A6"/>
<stop offset="0.601" stop-color="#A3A3A3"/>
<stop offset="0.658" stop-color="#707070"/>
<stop offset="0.7155" stop-color="#575757"/>
<stop offset="0.7687" stop-color="#676767"/>
<stop offset="0.8131" stop-color="#6D6D6D"/>
<stop offset="1" stop-color="#111111"/>
</linearGradient>
<radialGradient id="paint41_radial_4711_1782" cx="0" cy="0" r="1" gradientUnits="userSpaceOnUse" gradientTransform="translate(66.5396 38.9348) rotate(180) scale(2.55693 2.70399)">
<stop stop-color="white"/>
<stop offset="0.02" stop-color="#F7F7F7"/>
<stop offset="0.13" stop-color="#BEBEBE"/>
<stop offset="0.25" stop-color="#8B8B8B"/>
<stop offset="0.37" stop-color="#606060"/>
<stop offset="0.49" stop-color="#3E3E3E"/>
<stop offset="0.62" stop-color="#232323"/>
<stop offset="0.74" stop-color="#0F0F0F"/>
<stop offset="0.87" stop-color="#040404"/>
<stop offset="1"/>
</radialGradient>
<linearGradient id="paint42_linear_4711_1782" x1="18.2006" y1="-5.93178" x2="50.4978" y2="1.78268" gradientUnits="userSpaceOnUse">
<stop stop-color="#8E8E8E"/>
<stop offset="0.14" stop-color="#949494"/>
<stop offset="0.27" stop-color="#A2A2A2"/>
<stop offset="0.4" stop-color="#B4B4B4"/>
<stop offset="0.52" stop-color="#C1C1C1"/>
<stop offset="0.65" stop-color="#D3D3D3"/>
<stop offset="0.9" stop-color="#E1E1E1"/>
<stop offset="1" stop-color="white"/>
</linearGradient>
<linearGradient id="paint43_linear_4711_1782" x1="19.1188" y1="-1.27969" x2="75.7122" y2="26.1449" gradientUnits="userSpaceOnUse">
<stop stop-color="#C6C6C6"/>
<stop offset="0.14" stop-color="#ADADAD"/>
<stop offset="0.33" stop-color="#A6A6A6"/>
<stop offset="0.55" stop-color="#B3B3B3"/>
<stop offset="0.638542" stop-color="#AEAEAE"/>
<stop offset="0.76" stop-color="#ADADAD"/>
<stop offset="1" stop-color="#D8D8D8"/>
</linearGradient>
<radialGradient id="paint44_radial_4711_1782" cx="0" cy="0" r="1" gradientUnits="userSpaceOnUse" gradientTransform="translate(34.3505 19.3535) rotate(180) scale(12.9838 13.7305)">
<stop stop-color="white"/>
<stop offset="1"/>
</radialGradient>
<linearGradient id="paint45_linear_4711_1782" x1="13.2794" y1="11.1629" x2="23.7719" y2="29.5566" gradientUnits="userSpaceOnUse">
<stop offset="0.0555556" stop-color="#3E3D3E"/>
<stop offset="0.2575" stop-color="#686868"/>
<stop offset="0.3569" stop-color="#868686"/>
<stop offset="0.4338" stop-color="#646464"/>
<stop offset="0.4949" stop-color="#535353"/>
<stop offset="0.5067" stop-color="#585858"/>
<stop offset="0.5196" stop-color="#919191"/>
<stop offset="0.5329" stop-color="#D6D6D6"/>
<stop offset="0.5466" stop-color="#FCFCFC"/>
<stop offset="0.5556" stop-color="white"/>
<stop offset="0.5678" stop-color="#D3D3D3"/>
<stop offset="0.5801" stop-color="#BCBCBC"/>
<stop offset="0.5915" stop-color="#A5A3A6"/>
<stop offset="0.601" stop-color="#A3A3A3"/>
<stop offset="0.658" stop-color="#707070"/>
<stop offset="0.7155" stop-color="#575757"/>
<stop offset="0.7687" stop-color="#676767"/>
<stop offset="0.8131" stop-color="#6D6D6D"/>
<stop offset="1" stop-color="#111111"/>
</linearGradient>
<linearGradient id="paint46_linear_4711_1782" x1="21.797" y1="10.1949" x2="28.6041" y2="15.5549" gradientUnits="userSpaceOnUse">
<stop stop-color="#C6C6C6"/>
<stop offset="0.14" stop-color="#ADADAD"/>
<stop offset="0.33" stop-color="#A6A6A6"/>
<stop offset="0.55" stop-color="#B3B3B3"/>
<stop offset="0.638542" stop-color="#AEAEAE"/>
<stop offset="0.76" stop-color="#ADADAD"/>
<stop offset="1" stop-color="#D8D8D8"/>
</linearGradient>
<radialGradient id="paint47_radial_4711_1782" cx="0" cy="0" r="1" gradientUnits="userSpaceOnUse" gradientTransform="translate(24.952 19.5958) scale(1.78147 1.88392)">
<stop stop-color="white"/>
<stop offset="0.02" stop-color="#F7F7F7"/>
<stop offset="0.13" stop-color="#BEBEBE"/>
<stop offset="0.25" stop-color="#8B8B8B"/>
<stop offset="0.37" stop-color="#606060"/>
<stop offset="0.49" stop-color="#3E3E3E"/>
<stop offset="0.62" stop-color="#232323"/>
<stop offset="0.74" stop-color="#0F0F0F"/>
<stop offset="0.87" stop-color="#040404"/>
<stop offset="1"/>
</radialGradient>
<linearGradient id="paint48_linear_4711_1782" x1="23.4551" y1="46.9827" x2="33.9133" y2="65.3611" gradientUnits="userSpaceOnUse">
<stop offset="0.0555556" stop-color="#3E3D3E"/>
<stop offset="0.2575" stop-color="#686868"/>
<stop offset="0.3569" stop-color="#868686"/>
<stop offset="0.4338" stop-color="#646464"/>
<stop offset="0.4949" stop-color="#535353"/>
<stop offset="0.5067" stop-color="#585858"/>
<stop offset="0.5196" stop-color="#919191"/>
<stop offset="0.5329" stop-color="#D6D6D6"/>
<stop offset="0.5466" stop-color="#FCFCFC"/>
<stop offset="0.5556" stop-color="white"/>
<stop offset="0.5678" stop-color="#D3D3D3"/>
<stop offset="0.5801" stop-color="#BCBCBC"/>
<stop offset="0.5915" stop-color="#A5A3A6"/>
<stop offset="0.601" stop-color="#A3A3A3"/>
<stop offset="0.658" stop-color="#707070"/>
<stop offset="0.7155" stop-color="#575757"/>
<stop offset="0.7687" stop-color="#676767"/>
<stop offset="0.8131" stop-color="#6D6D6D"/>
<stop offset="1" stop-color="#111111"/>
</linearGradient>
<linearGradient id="paint49_linear_4711_1782" x1="31.9845" y1="45.9917" x2="38.7942" y2="51.3511" gradientUnits="userSpaceOnUse">
<stop stop-color="#C6C6C6"/>
<stop offset="0.14" stop-color="#ADADAD"/>
<stop offset="0.33" stop-color="#A6A6A6"/>
<stop offset="0.55" stop-color="#B3B3B3"/>
<stop offset="0.638542" stop-color="#AEAEAE"/>
<stop offset="0.76" stop-color="#ADADAD"/>
<stop offset="1" stop-color="#D8D8D8"/>
</linearGradient>
<radialGradient id="paint50_radial_4711_1782" cx="0" cy="0" r="1" gradientUnits="userSpaceOnUse" gradientTransform="translate(35.1356 55.3927) scale(1.78147 1.88393)">
<stop stop-color="white"/>
<stop offset="0.02" stop-color="#F7F7F7"/>
<stop offset="0.13" stop-color="#BEBEBE"/>
<stop offset="0.25" stop-color="#8B8B8B"/>
<stop offset="0.37" stop-color="#606060"/>
<stop offset="0.49" stop-color="#3E3E3E"/>
<stop offset="0.62" stop-color="#232323"/>
<stop offset="0.74" stop-color="#0F0F0F"/>
<stop offset="0.87" stop-color="#040404"/>
<stop offset="1"/>
</radialGradient>
<linearGradient id="paint51_linear_4711_1782" x1="64.2126" y1="41.8048" x2="68.4412" y2="40.6052" gradientUnits="userSpaceOnUse">
<stop stop-color="#9F79C8"/>
<stop offset="0.14" stop-color="#A580CB"/>
<stop offset="0.33" stop-color="#B492D3"/>
<stop offset="0.55" stop-color="#CDB0E1"/>
<stop offset="0.58" stop-color="#D1B4E3"/>
<stop offset="0.76" stop-color="#DBC4E9"/>
<stop offset="1" stop-color="#EBDEF3"/>
</linearGradient>
<linearGradient id="paint52_linear_4711_1782" x1="64.4758" y1="36.6824" x2="75.8071" y2="43.3997" gradientUnits="userSpaceOnUse">
<stop stop-color="#8E8E8E"/>
<stop offset="0.14" stop-color="#949494"/>
<stop offset="0.27" stop-color="#A2A2A2"/>
<stop offset="0.4" stop-color="#B4B4B4"/>
<stop offset="0.52" stop-color="#C1C1C1"/>
<stop offset="0.65" stop-color="#D3D3D3"/>
<stop offset="0.9" stop-color="#E1E1E1"/>
<stop offset="1" stop-color="white"/>
</linearGradient>
<linearGradient id="paint53_linear_4711_1782" x1="61.4331" y1="34.6708" x2="80.9112" y2="46.3947" gradientUnits="userSpaceOnUse">
<stop stop-color="#C6C6C6"/>
<stop offset="0.14" stop-color="#ADADAD"/>
<stop offset="0.33" stop-color="#A6A6A6"/>
<stop offset="0.55" stop-color="#B3B3B3"/>
<stop offset="0.638542" stop-color="#AEAEAE"/>
<stop offset="0.76" stop-color="#ADADAD"/>
<stop offset="1" stop-color="#D8D8D8"/>
</linearGradient>
<linearGradient id="paint54_linear_4711_1782" x1="61.0458" y1="47.9927" x2="72.2898" y2="45.4205" gradientUnits="userSpaceOnUse">
<stop stop-color="#ADADAD"/>
<stop offset="0.106774" stop-color="#626262"/>
<stop offset="0.33" stop-color="#828282"/>
<stop offset="0.55" stop-color="#808080"/>
<stop offset="0.638542" stop-color="#949494"/>
<stop offset="0.76" stop-color="#ADADAD"/>
<stop offset="1" stop-color="#D8D8D8"/>
</linearGradient>
<radialGradient id="paint55_radial_4711_1782" cx="0" cy="0" r="1" gradientUnits="userSpaceOnUse" gradientTransform="translate(68.2161 39.378) rotate(180) scale(4.04498 4.27763)">
<stop stop-color="white"/>
<stop offset="1"/>
</radialGradient>
<linearGradient id="paint56_linear_4711_1782" x1="31.6684" y1="15.3259" x2="61.8736" y2="66.9376" gradientUnits="userSpaceOnUse">
<stop stop-color="#C6C6C6"/>
<stop offset="0.14" stop-color="#ADADAD"/>
<stop offset="0.33" stop-color="#A6A6A6"/>
<stop offset="0.55" stop-color="#B3B3B3"/>
<stop offset="0.638542" stop-color="#AEAEAE"/>
<stop offset="0.76" stop-color="#ADADAD"/>
<stop offset="1" stop-color="#D8D8D8"/>
</linearGradient>
<linearGradient id="paint57_linear_4711_1782" x1="29.9405" y1="36.2641" x2="67.0741" y2="12.149" gradientUnits="userSpaceOnUse">
<stop stop-color="#ADADAD"/>
<stop offset="0.106774" stop-color="#626262"/>
<stop offset="0.33" stop-color="#828282"/>
<stop offset="0.55" stop-color="#808080"/>
<stop offset="0.638542" stop-color="#949494"/>
<stop offset="0.76" stop-color="#ADADAD"/>
<stop offset="1" stop-color="#D8D8D8"/>
</linearGradient>
<linearGradient id="paint58_linear_4711_1782" x1="43.6527" y1="18.4997" x2="61.7512" y2="47.7262" gradientUnits="userSpaceOnUse">
<stop stop-color="#8E8E8E"/>
<stop offset="0.14" stop-color="#949494"/>
<stop offset="0.27" stop-color="#A2A2A2"/>
<stop offset="0.4" stop-color="#B4B4B4"/>
<stop offset="0.52" stop-color="#C1C1C1"/>
<stop offset="0.65" stop-color="#D3D3D3"/>
<stop offset="0.9" stop-color="#E1E1E1"/>
<stop offset="1" stop-color="white"/>
</linearGradient>
<radialGradient id="paint59_radial_4711_1782" cx="0" cy="0" r="1" gradientUnits="userSpaceOnUse" gradientTransform="translate(54.0389 33.861) scale(12.3131 13.0213)">
<stop stop-color="white"/>
<stop offset="1"/>
</radialGradient>
<linearGradient id="paint60_linear_4711_1782" x1="56.7444" y1="37.0765" x2="62.6201" y2="47.4257" gradientUnits="userSpaceOnUse">
<stop offset="0.0555556" stop-color="#3E3D3E"/>
<stop offset="0.2575" stop-color="#686868"/>
<stop offset="0.3569" stop-color="#868686"/>
<stop offset="0.4338" stop-color="#646464"/>
<stop offset="0.4949" stop-color="#535353"/>
<stop offset="0.5067" stop-color="#585858"/>
<stop offset="0.5196" stop-color="#919191"/>
<stop offset="0.5329" stop-color="#D6D6D6"/>
<stop offset="0.5466" stop-color="#FCFCFC"/>
<stop offset="0.5556" stop-color="white"/>
<stop offset="0.5678" stop-color="#D3D3D3"/>
<stop offset="0.5801" stop-color="#BCBCBC"/>
<stop offset="0.5915" stop-color="#A5A3A6"/>
<stop offset="0.601" stop-color="#A3A3A3"/>
<stop offset="0.658" stop-color="#707070"/>
<stop offset="0.7155" stop-color="#575757"/>
<stop offset="0.7687" stop-color="#676767"/>
<stop offset="0.8131" stop-color="#6D6D6D"/>
<stop offset="1" stop-color="#111111"/>
</linearGradient>
<linearGradient id="paint61_linear_4711_1782" x1="61.5494" y1="36.5557" x2="65.3832" y2="39.5876" gradientUnits="userSpaceOnUse">
<stop stop-color="#C6C6C6"/>
<stop offset="0.14" stop-color="#ADADAD"/>
<stop offset="0.33" stop-color="#A6A6A6"/>
<stop offset="0.55" stop-color="#B3B3B3"/>
<stop offset="0.638542" stop-color="#AEAEAE"/>
<stop offset="0.76" stop-color="#ADADAD"/>
<stop offset="1" stop-color="#D8D8D8"/>
</linearGradient>
<radialGradient id="paint62_radial_4711_1782" cx="0" cy="0" r="1" gradientUnits="userSpaceOnUse" gradientTransform="translate(63.3244 41.8388) scale(1.00601 1.06387)">
<stop stop-color="white"/>
<stop offset="0.02" stop-color="#F7F7F7"/>
<stop offset="0.13" stop-color="#BEBEBE"/>
<stop offset="0.25" stop-color="#8B8B8B"/>
<stop offset="0.37" stop-color="#606060"/>
<stop offset="0.49" stop-color="#3E3E3E"/>
<stop offset="0.62" stop-color="#232323"/>
<stop offset="0.74" stop-color="#0F0F0F"/>
<stop offset="0.87" stop-color="#040404"/>
<stop offset="1"/>
</radialGradient>
<linearGradient id="paint63_linear_4711_1782" x1="60.4439" y1="46.4632" x2="66.3531" y2="56.8218" gradientUnits="userSpaceOnUse">
<stop offset="0.0555556" stop-color="#3E3D3E"/>
<stop offset="0.2575" stop-color="#686868"/>
<stop offset="0.3569" stop-color="#868686"/>
<stop offset="0.4338" stop-color="#646464"/>
<stop offset="0.4949" stop-color="#535353"/>
<stop offset="0.5067" stop-color="#585858"/>
<stop offset="0.5196" stop-color="#919191"/>
<stop offset="0.5329" stop-color="#D6D6D6"/>
<stop offset="0.5466" stop-color="#FCFCFC"/>
<stop offset="0.5556" stop-color="white"/>
<stop offset="0.5678" stop-color="#D3D3D3"/>
<stop offset="0.5801" stop-color="#BCBCBC"/>
<stop offset="0.5915" stop-color="#A5A3A6"/>
<stop offset="0.601" stop-color="#A3A3A3"/>
<stop offset="0.658" stop-color="#707070"/>
<stop offset="0.7155" stop-color="#575757"/>
<stop offset="0.7687" stop-color="#676767"/>
<stop offset="0.8131" stop-color="#6D6D6D"/>
<stop offset="1" stop-color="#111111"/>
</linearGradient>
<linearGradient id="paint64_linear_4711_1782" x1="65.2369" y1="45.9249" x2="69.0694" y2="48.9572" gradientUnits="userSpaceOnUse">
<stop stop-color="#C6C6C6"/>
<stop offset="0.14" stop-color="#ADADAD"/>
<stop offset="0.33" stop-color="#A6A6A6"/>
<stop offset="0.55" stop-color="#B3B3B3"/>
<stop offset="0.638542" stop-color="#AEAEAE"/>
<stop offset="0.76" stop-color="#ADADAD"/>
<stop offset="1" stop-color="#D8D8D8"/>
</linearGradient>
<radialGradient id="paint65_radial_4711_1782" cx="0" cy="0" r="1" gradientUnits="userSpaceOnUse" gradientTransform="translate(67.0236 51.214) scale(1.00601 1.06387)">
<stop stop-color="white"/>
<stop offset="0.02" stop-color="#F7F7F7"/>
<stop offset="0.13" stop-color="#BEBEBE"/>
<stop offset="0.25" stop-color="#8B8B8B"/>
<stop offset="0.37" stop-color="#606060"/>
<stop offset="0.49" stop-color="#3E3E3E"/>
<stop offset="0.62" stop-color="#232323"/>
<stop offset="0.74" stop-color="#0F0F0F"/>
<stop offset="0.87" stop-color="#040404"/>
<stop offset="1"/>
</radialGradient>
<linearGradient id="paint66_linear_4711_1782" x1="30.9514" y1="21.1257" x2="36.8359" y2="31.4801" gradientUnits="userSpaceOnUse">
<stop offset="0.0555556" stop-color="#3E3D3E"/>
<stop offset="0.2575" stop-color="#686868"/>
<stop offset="0.3569" stop-color="#868686"/>
<stop offset="0.4338" stop-color="#646464"/>
<stop offset="0.4949" stop-color="#535353"/>
<stop offset="0.5067" stop-color="#585858"/>
<stop offset="0.5196" stop-color="#919191"/>
<stop offset="0.5329" stop-color="#D6D6D6"/>
<stop offset="0.5466" stop-color="#FCFCFC"/>
<stop offset="0.5556" stop-color="white"/>
<stop offset="0.5678" stop-color="#D3D3D3"/>
<stop offset="0.5801" stop-color="#BCBCBC"/>
<stop offset="0.5915" stop-color="#A5A3A6"/>
<stop offset="0.601" stop-color="#A3A3A3"/>
<stop offset="0.658" stop-color="#707070"/>
<stop offset="0.7155" stop-color="#575757"/>
<stop offset="0.7687" stop-color="#676767"/>
<stop offset="0.8131" stop-color="#6D6D6D"/>
<stop offset="1" stop-color="#111111"/>
</linearGradient>
<linearGradient id="paint67_linear_4711_1782" x1="35.7621" y1="20.5681" x2="39.5956" y2="23.5779" gradientUnits="userSpaceOnUse">
<stop stop-color="#C6C6C6"/>
<stop offset="0.14" stop-color="#ADADAD"/>
<stop offset="0.33" stop-color="#A6A6A6"/>
<stop offset="0.55" stop-color="#B3B3B3"/>
<stop offset="0.638542" stop-color="#AEAEAE"/>
<stop offset="0.76" stop-color="#ADADAD"/>
<stop offset="1" stop-color="#D8D8D8"/>
</linearGradient>
<radialGradient id="paint68_radial_4711_1782" cx="0" cy="0" r="1" gradientUnits="userSpaceOnUse" gradientTransform="translate(37.5353 25.8702) scale(1.00601 1.06384)">
<stop stop-color="white"/>
<stop offset="0.02" stop-color="#F7F7F7"/>
<stop offset="0.13" stop-color="#BEBEBE"/>
<stop offset="0.25" stop-color="#8B8B8B"/>
<stop offset="0.37" stop-color="#606060"/>
<stop offset="0.49" stop-color="#3E3E3E"/>
<stop offset="0.62" stop-color="#232323"/>
<stop offset="0.74" stop-color="#0F0F0F"/>
<stop offset="0.87" stop-color="#040404"/>
<stop offset="1"/>
</radialGradient>
</defs>
</svg>
