<svg width="90" height="91" viewBox="0 0 90 91" fill="none" xmlns="http://www.w3.org/2000/svg">
<path d="M26.4602 84.8442L62.0101 63.393L54.9873 59.1484L19.4375 80.5996L26.4602 84.8442Z" fill="url(#paint0_linear_4711_6923)"/>
<path d="M25.5865 84.342L61.1364 62.8452L55.8584 59.6504L20.3086 81.1472L25.5865 84.342Z" fill="url(#paint1_linear_4711_6923)"/>
<g opacity="0.9">
<path d="M48.1836 26.4683V63.3004L58.6959 56.9564V20.1699L48.1836 26.4683Z" fill="url(#paint2_linear_4711_6923)"/>
<path d="M48.1822 26.4683V63.3004L37.8008 56.9564V20.1699L48.1822 26.4683Z" fill="url(#paint3_linear_4711_6923)"/>
<path d="M40.9857 23.5935L39.8516 22.8633V56.9113L40.9857 57.5959V23.5935Z" fill="#303030"/>
<path d="M43.4271 25.0538L42.293 24.3691V58.4172L43.4271 59.1018V25.0538Z" fill="#303030"/>
<path d="M45.8724 26.5596L44.7383 25.875V59.8774L45.8724 60.6076V26.5596Z" fill="#303030"/>
<path d="M55.3789 23.5928L56.513 22.9082V56.9106L55.3789 57.5952V23.5928Z" fill="#303030"/>
<path d="M52.9805 25.0538L54.1146 24.3691V58.4172L52.9805 59.1018V25.0538Z" fill="#303030"/>
<path d="M50.582 26.5596L51.7161 25.875V59.8774L50.582 60.562V26.5596Z" fill="#303030"/>
<path d="M37.8008 20.1702L48.1822 26.4687L58.6945 20.1702L48.3131 13.8262L37.8008 20.1702Z" fill="url(#paint4_linear_4711_6923)"/>
<path d="M48.1836 19.4864V24.4156L54.7701 20.4905V15.5156L48.1836 19.4864Z" fill="url(#paint5_linear_4711_6923)"/>
<path d="M48.1822 19.4864V24.4156L41.7266 20.4905V15.5156L48.1822 19.4864Z" fill="url(#paint6_linear_4711_6923)"/>
<path d="M43.5599 17.5692L42.6875 17.0215V20.2163L43.5599 20.764V17.5692Z" fill="#303030"/>
<path d="M45.3489 18.6649L44.4766 18.1172V21.312L45.3489 21.8597V18.6649Z" fill="#303030"/>
<path d="M47.0911 19.7149L46.2188 19.2129V22.4077L47.0911 22.9554V19.7149Z" fill="#303030"/>
<path d="M52.8945 17.5235L53.7669 17.0215V20.2163L52.8945 20.7184V17.5235Z" fill="#303030"/>
<path d="M51.1055 18.6192L51.9779 18.1172V21.312L51.1055 21.8597V18.6192Z" fill="#303030"/>
<path d="M49.3164 19.7149L50.1888 19.2129V22.4077L49.3164 22.9554V19.7149Z" fill="#303030"/>
<path d="M41.7266 15.515L48.1822 19.4857L54.7688 15.515L48.2695 11.5898L41.7266 15.515Z" fill="url(#paint7_linear_4711_6923)"/>
<path d="M48.2266 16.2003V17.6152L51.6289 15.607V14.1465L48.2266 16.2003Z" fill="url(#paint8_linear_4711_6923)"/>
<path d="M48.2259 16.2003V17.6152L44.8672 15.607V14.1465L48.2259 16.2003Z" fill="url(#paint9_linear_4711_6923)"/>
<path d="M48.2266 16.2003V16.4742L51.6289 14.4203V14.1465L48.2266 16.2003Z" fill="#2B2B2B"/>
<path d="M48.2259 16.2003V16.4742L44.8672 14.4203V14.1465L48.2259 16.2003Z" fill="url(#paint10_linear_4711_6923)"/>
<path d="M48.2259 16.2003V16.4742L44.8672 14.4203V14.1465L48.2259 16.2003Z" fill="#2B2B2B"/>
<path d="M44.8672 14.1456L48.2259 16.1995L51.6282 14.1456L48.2695 12.0918L44.8672 14.1456Z" fill="url(#paint11_linear_4711_6923)"/>
<path d="M48.2266 9.99219V15.0583L49.7532 14.1455L48.2266 9.99219Z" fill="url(#paint12_linear_4711_6923)"/>
<path d="M48.2253 9.99219V15.0583L46.7422 14.1455L48.2253 9.99219Z" fill="url(#paint13_linear_4711_6923)"/>
<path d="M30.0391 37.3766V74.2086L40.5513 67.8646V31.0781L30.0391 37.3766Z" fill="url(#paint14_linear_4711_6923)"/>
<path d="M30.0377 37.3766V74.2086L19.6562 67.8646V31.0781L30.0377 37.3766Z" fill="url(#paint15_linear_4711_6923)"/>
<path d="M27.9889 37.3771V38.6094L28.9921 39.2484V38.0161L27.9889 37.3771ZM26.1569 37.514L27.1601 38.153V36.9207L26.1569 36.2817V37.514ZM20.6172 34.1366L21.6204 34.7756V33.5433L20.6172 32.9043V34.1366ZM22.4492 35.2776L23.4524 35.9166V34.6843L22.4492 34.0453V35.2776ZM24.2812 36.373L25.2845 37.012V35.7797L24.2812 35.1407V36.373Z" fill="#303030"/>
<path d="M27.9889 39.9787V41.211L28.9921 41.8499V40.6176L27.9889 39.9787ZM26.1569 40.0699L27.1601 40.7089V39.4766L26.1569 38.8376V40.0699ZM20.6172 36.7382L21.6204 37.3771V36.1448L20.6172 35.5059V36.7382ZM22.4492 37.8792L23.4524 38.5182V37.2858L22.4492 36.6469V37.8792ZM24.2812 38.9746L25.2845 39.6135V38.3812L24.2812 37.7423V38.9746Z" fill="#303030"/>
<path d="M27.9889 42.5802V43.8125L28.9921 44.4515V43.2192L27.9889 42.5802ZM26.1569 42.6715L27.1601 43.3105V42.0782L26.1569 41.4392V42.6715ZM20.6172 39.3397L21.6204 39.9787V38.7464L20.6172 38.1074V39.3397ZM22.4492 40.4351L23.4524 41.0741V39.8418L22.4492 39.2028V40.4351ZM24.2812 41.5761L25.2845 42.2151V40.9828L24.2812 40.3438V41.5761Z" fill="#303030"/>
<path d="M27.9889 45.1361V46.3684L28.9921 47.0074V45.7751L27.9889 45.1361ZM26.1569 45.2731L27.1601 45.912V44.6797L26.1569 44.0408V45.2731ZM20.6172 41.9413L21.6204 42.5803V41.348L20.6172 40.709V41.9413ZM22.4492 43.0367L23.4524 43.6756V42.489L22.4492 41.85V43.0367ZM24.2812 44.132L25.2845 44.771V43.5387L24.2812 42.9454V44.132Z" fill="#303030"/>
<path d="M27.9889 47.7377V48.97L28.9921 49.609V48.3767L27.9889 47.7377ZM26.1569 47.8746L27.1601 48.5136V47.2813L26.1569 46.6423V47.8746ZM20.6172 44.5428L21.6204 45.1818V43.9495L20.6172 43.3105V44.5428ZM22.4492 45.6382L23.4524 46.2772V45.0449L22.4492 44.4059V45.6382ZM24.2812 46.7336L25.2845 47.3726V46.1403L24.2812 45.5469V46.7336Z" fill="#303030"/>
<path d="M27.9889 50.34V51.5723L28.9921 52.2113V50.979L27.9889 50.34ZM26.1569 50.4313L27.1601 51.0702V49.8379L26.1569 49.199V50.4313ZM20.6172 47.0995L21.6204 47.7385V46.5062L20.6172 45.8672V47.0995ZM22.4492 48.2405L23.4524 48.8795V47.6472L22.4492 47.0082V48.2405ZM24.2812 49.3359L25.2845 49.9749V48.7426L24.2812 48.1036V49.3359Z" fill="#303030"/>
<path d="M27.9889 52.9415V54.1738L28.9921 54.8128V53.5805L27.9889 52.9415ZM26.1569 53.0328L27.1601 53.6718V52.4395L26.1569 51.8005V53.0328ZM20.6172 49.7011L21.6204 50.34V49.1077L20.6172 48.4688V49.7011ZM22.4492 50.7964L23.4524 51.4354V50.2487L22.4492 49.6098V50.7964ZM24.2812 51.9374L25.2845 52.5764V51.3441L24.2812 50.7051V51.9374Z" fill="#303030"/>
<path d="M27.9889 55.5412V56.7735L28.9921 57.4124V56.1801L27.9889 55.5412ZM26.1569 55.6324L27.1601 56.2714V55.0391L26.1569 54.4001V55.6324ZM20.6172 52.3007L21.6204 52.9396V51.7073L20.6172 51.0684V52.3007ZM22.4492 53.396L23.4524 54.035V52.8027L22.4492 52.1637V53.396ZM24.2812 54.5371L25.2845 55.176V53.9437L24.2812 53.3048V54.5371Z" fill="#303030"/>
<path d="M27.9889 58.0971V59.3294L28.9921 59.9683V58.7361L27.9889 58.0971ZM26.1569 58.234L27.1601 58.873V57.6407L26.1569 57.0017V58.234ZM20.6172 54.9022L21.6204 55.5412V54.3089L20.6172 53.6699V54.9022ZM22.4492 55.9976L23.4524 56.6366V55.4043L22.4492 54.7653V55.9976ZM24.2812 57.093L25.2845 57.732V56.4996L24.2812 55.8607V57.093Z" fill="#303030"/>
<path d="M27.9889 60.6994V61.9317L28.9921 62.5706V61.3383L27.9889 60.6994ZM26.1569 60.7906L27.1601 61.4296V60.1973L26.1569 59.5583V60.7906ZM20.6172 57.4589L21.6204 58.0978V56.8655L20.6172 56.2266V57.4589ZM22.4492 58.5999L23.4524 59.2389V58.0066L22.4492 57.3676V58.5999ZM24.2812 59.6953L25.2845 60.3342V59.1019L24.2812 58.463V59.6953Z" fill="#303030"/>
<path d="M27.9889 63.3009V64.5332L28.9921 65.1722V63.9399L27.9889 63.3009ZM26.1569 63.3922L27.1601 64.0312V62.7989L26.1569 62.1599V63.3922ZM20.6172 60.0604L21.6204 60.6994V59.4671L20.6172 58.8281V60.0604ZM22.4492 61.2014L23.4524 61.8404V60.6081L22.4492 59.9691V61.2014ZM24.2812 62.2968L25.2845 62.9358V61.7035L24.2812 61.0645V62.2968Z" fill="#303030"/>
<path d="M27.9889 65.9025V67.1348L28.9921 67.7737V66.5414L27.9889 65.9025ZM26.1569 65.9938L27.1601 66.6327V65.4004L26.1569 64.7615V65.9938ZM20.6172 62.662L21.6204 63.301V62.0687L20.6172 61.4297V62.662ZM22.4492 63.7574L23.4524 64.3963V63.164L22.4492 62.5251V63.7574ZM24.2812 64.8984L25.2845 65.5374V64.3051L24.2812 63.6661V64.8984Z" fill="url(#paint16_linear_4711_6923)"/>
<path d="M27.9889 68.4584V69.6907L28.9921 70.3297V69.0974L27.9889 68.4584ZM26.1569 68.5953L27.1601 69.2343V68.002L26.1569 67.363V68.5953ZM20.6172 65.2635L21.6204 65.9025V64.6702L20.6172 64.0312V65.2635ZM22.4492 66.3589L23.4524 66.9979V65.7656L22.4492 65.1266V66.3589ZM24.2812 67.4543L25.2845 68.0933V66.861L24.2812 66.222V67.4543Z" fill="url(#paint17_linear_4711_6923)"/>
<path d="M39.5475 32.9492L38.5442 33.5882V34.8205L39.5475 34.1815V32.9492ZM37.6718 34.0446L36.6686 34.6836V35.9159L37.6718 35.2769V34.0446ZM35.8398 35.14L34.8366 35.7789V37.0112L35.8398 36.3723V35.14ZM31.1289 38.0153V39.2476L32.1322 38.6087V37.3764L31.1289 38.0153ZM34.0078 36.281L33.0045 36.92V38.1523L34.0078 37.5133V36.281Z" fill="#303030"/>
<path d="M39.5475 35.5059L38.5442 36.1448V37.3771L39.5475 36.7382V35.5059ZM37.6718 36.6469L36.6686 37.2858V38.5182L37.6718 37.8792V36.6469ZM35.8398 37.7423L34.8366 38.3812V39.6135L35.8398 38.9746V37.7423ZM31.1289 40.6176V41.8499L32.1322 41.211V39.9787L31.1289 40.6176ZM34.0078 38.8833L33.0045 39.5222V40.7545L34.0078 40.1156V38.8833Z" fill="#303030"/>
<path d="M39.5475 38.1074L38.5442 38.7464V39.9787L39.5475 39.3397V38.1074ZM37.6718 39.2484L36.6686 39.8874V41.1197L37.6718 40.4807V39.2484ZM35.8398 40.3438L34.8366 40.9828V42.2151L35.8398 41.5761V40.3438ZM31.1289 43.2192V44.4515L32.1322 43.8125V42.5802L31.1289 43.2192ZM34.0078 41.4392L33.0045 42.1238V43.3561L34.0078 42.7171V41.4392Z" fill="#303030"/>
<path d="M39.5475 40.709L38.5442 41.348V42.5803L39.5475 41.9413V40.709ZM37.6718 41.8044L36.6686 42.489V43.7213L37.6718 43.0823V41.8044ZM35.8398 42.9454L34.8366 43.5844V44.8167L35.8398 44.1777V42.9454ZM31.1289 45.8208V47.0531L32.1322 46.4141V45.1818L31.1289 45.8208ZM34.0078 44.0408L33.0045 44.6797V45.912L34.0078 45.2731V44.0408Z" fill="#303030"/>
<path d="M39.5475 43.3105L38.5442 43.9495V45.1818L39.5475 44.5428V43.3105ZM37.6718 44.4059L36.6686 45.0449V46.2772L37.6718 45.6382V44.4059ZM35.8398 45.5469L34.8366 46.1859V47.4182L35.8398 46.7792V45.5469ZM31.1289 48.3767V49.609L32.1322 48.97V47.7377L31.1289 48.3767ZM34.0078 46.6423L33.0045 47.2813V48.5136L34.0078 47.8746V46.6423Z" fill="#303030"/>
<path d="M39.5475 45.9121L38.5442 46.5511V47.7834L39.5475 47.1444V45.9121ZM37.6718 47.0075L36.6686 47.6465V48.8788L37.6718 48.2398V47.0075ZM35.8398 48.1029L34.8366 48.7418V49.9741L35.8398 49.3352V48.1029ZM31.1289 50.9782V52.2105L32.1322 51.5716V50.3393L31.1289 50.9782ZM34.0078 49.2439L33.0045 49.8829V51.1152L34.0078 50.4762V49.2439Z" fill="#303030"/>
<path d="M39.5475 48.4668L38.5442 49.1058V50.3381L39.5475 49.6991V48.4668ZM37.6718 49.6078L36.6686 50.2468V51.4791L37.6718 50.8401V49.6078ZM35.8398 50.7032L34.8366 51.3422V52.5745L35.8398 51.9355V50.7032ZM31.1289 53.5786V54.8109L32.1322 54.1719V52.9396L31.1289 53.5786ZM34.0078 51.7986L33.0045 52.4375V53.6698L34.0078 53.0309V51.7986Z" fill="#303030"/>
<path d="M39.5475 51.0684L38.5442 51.7073V52.9396L39.5475 52.3007V51.0684ZM37.6718 52.1637L36.6686 52.8027V54.035L37.6718 53.396V52.1637ZM35.8398 53.3048L34.8366 53.9437V55.176L35.8398 54.5371V53.3048ZM31.1289 56.1801V57.4124L32.1322 56.7735V55.5412L31.1289 56.1801ZM34.0078 54.4001L33.0045 55.0391V56.2714L34.0078 55.6324V54.4001Z" fill="#303030"/>
<path d="M39.5475 53.6699L38.5442 54.3089V55.5412L39.5475 54.9022V53.6699ZM37.6718 54.7653L36.6686 55.4043V56.6366L37.6718 55.9976V54.7653ZM35.8398 55.9063L34.8366 56.5453V57.7776L35.8398 57.1386V55.9063ZM31.1289 58.7817V60.014L32.1322 59.375V58.1427L31.1289 58.7817ZM34.0078 57.0017L33.0045 57.6407V58.873L34.0078 58.234V57.0017Z" fill="#303030"/>
<path d="M39.5475 56.2715L38.5442 56.9105V58.1428L39.5475 57.5038V56.2715ZM37.6718 57.3669L36.6686 58.0058V59.2381L37.6718 58.5992V57.3669ZM35.8398 58.4622L34.8366 59.1012V60.3335L35.8398 59.6945V58.4622ZM31.1289 61.3376V62.5699L32.1322 61.9309V60.6986L31.1289 61.3376ZM34.0078 59.6033L33.0045 60.2422V61.4745L34.0078 60.8356V59.6033Z" fill="#303030"/>
<path d="M39.5475 58.8281L38.5442 59.4671V60.6994L39.5475 60.0604V58.8281ZM37.6718 59.9691L36.6686 60.6081V61.8404L37.6718 61.2014V59.9691ZM35.8398 61.0645L34.8366 61.7035V62.9358L35.8398 62.2968V61.0645ZM31.1289 63.9399V65.1722L32.1322 64.5332V63.3009L31.1289 63.9399ZM34.0078 62.2055L33.0045 62.8445V64.0768L34.0078 63.4378V62.2055Z" fill="#303030"/>
<path d="M39.5475 61.4297L38.5442 62.0687V63.301L39.5475 62.662V61.4297ZM37.6718 62.5707L36.6686 63.2097V64.442L37.6718 63.803V62.5707ZM35.8398 63.6661L34.8366 64.3051V65.5374L35.8398 64.8984V63.6661ZM31.1289 66.5415V67.7738L32.1322 67.1348V65.9025L31.1289 66.5415ZM34.0078 64.7615L33.0045 65.4004V66.6327L34.0078 65.9938V64.7615Z" fill="#303030"/>
<path d="M39.5475 64.0312L38.5442 64.6702V65.9025L39.5475 65.2635V64.0312ZM37.6718 65.1266L36.6686 65.7656V66.9979L37.6718 66.3589V65.1266ZM35.8398 66.2677L34.8366 66.9066V68.1389L35.8398 67.5V66.2677ZM31.1289 69.143V70.3753L32.1322 69.7363V68.504L31.1289 69.143ZM34.0078 67.363L33.0045 68.002V69.2343L34.0078 68.5953V67.363Z" fill="#303030"/>
<path d="M19.6562 31.0784L30.0377 37.3769L40.55 31.0784L30.1685 24.7344L19.6562 31.0784Z" fill="url(#paint18_linear_4711_6923)"/>
<path d="M25.0625 69.4627V77.2217L30.0351 74.2094V66.4961L25.0625 69.4627Z" fill="url(#paint19_linear_4711_6923)"/>
<path d="M25.0644 69.4625V77.2214L14.7266 70.8773V63.1641L25.0644 69.4625Z" fill="url(#paint20_linear_4711_6923)"/>
<path d="M25.0625 70.6502V71.3349L30.0351 68.3682V67.6836L25.0625 70.6502Z" fill="#B6B6B6"/>
<path d="M25.0644 70.65V71.3346L14.7266 65.0362V64.3516L25.0644 70.65Z" fill="#B6B6B6"/>
<path d="M14.7266 63.1646L25.0644 69.4631L30.037 66.4964L19.6556 60.1523L14.7266 63.1646Z" fill="url(#paint21_linear_4711_6923)"/>
<path d="M14.7266 63.1646L25.0644 69.4631L30.037 66.4964L19.6556 60.1523L14.7266 63.1646Z" fill="url(#paint22_linear_4711_6923)"/>
<path d="M23.0123 71.4721V75.8536L24.0156 76.4926V72.111L23.0123 71.4721ZM15.6406 71.4264L16.6439 72.0654V67.6839L15.6406 67.0449V71.4264ZM17.5163 72.5218L18.5195 73.1608V68.7793L17.5163 68.1403V72.5218ZM19.3483 73.6628L20.3515 74.3018V69.8746L19.3483 69.2357V73.6628ZM21.1803 74.7582L22.1835 75.3972V71.0157L21.1803 70.3767V74.7582Z" fill="#303030"/>
<path d="M26.1992 72.1093V76.4909L27.2025 75.8519V71.4704L26.1992 72.1093ZM29.0345 70.375L28.0312 71.014V75.3955L29.0345 74.7565V70.375Z" fill="#303030"/>
<path d="M74.9199 68.5956V32.7676H54.1134V68.8238C53.9826 69.8279 54.506 70.7863 55.6401 71.4709L60.3946 74.3463C62.6628 75.7155 66.6758 75.533 69.293 73.9812L72.6953 71.9274C74.3092 70.9689 75.0508 69.7366 74.9199 68.5956Z" fill="url(#paint23_linear_4711_6923)"/>
<path d="M74.9192 67.4551C74.832 68.4592 74.0905 69.4633 72.7383 70.2392L69.336 72.293C66.6752 73.8904 62.7058 74.073 60.4376 72.6581L55.6831 69.7828C54.7671 69.2351 54.2436 68.5048 54.1564 67.6833V68.7787C54.0255 69.7828 54.549 70.7412 55.6831 71.4258L60.4376 74.3012C62.7058 75.6704 66.7188 75.4879 69.336 73.9361L72.7383 71.8822C74.3086 70.9238 75.0501 69.6915 74.9192 68.5505V67.4551Z" fill="#939598"/>
<path d="M60.4401 37.9703L55.6856 35.0949C53.4174 33.7257 53.6791 31.3067 56.3399 29.7093L59.7422 27.6555C62.403 26.058 66.3724 25.8755 68.6406 27.2903L73.3951 30.1657C75.6633 31.5349 75.4016 33.9539 72.7408 35.5513L69.3385 37.6052C66.6777 39.1569 62.7083 39.3395 60.4401 37.9703Z" fill="url(#paint24_linear_4711_6923)"/>
<path d="M72.1275 31.7642V30.1211H56.8607V31.9467C56.7734 32.677 57.1224 33.3616 57.9948 33.8636L61.4843 35.9631C63.1419 36.9672 66.108 36.8303 68.0272 35.6893L70.5135 34.1831C71.6913 33.4985 72.2583 32.5857 72.1275 31.7642Z" fill="#303030"/>
<path d="M72.1275 30.4862V30.1211H56.8607V30.6688C56.7734 31.399 57.1224 32.0836 57.9948 32.5857L61.4843 34.6852C63.1419 35.6893 66.108 35.5523 68.0272 34.4113L70.5135 32.9052C71.6913 32.2206 72.2583 31.3078 72.1275 30.4862Z" fill="#303030"/>
<path d="M61.5285 33.9546L58.039 31.8551C56.3814 30.851 56.5559 29.071 58.5188 27.8844L61.0051 26.3782C62.9244 25.1916 65.8905 25.1003 67.548 26.1044L71.0376 28.2039C72.6951 29.208 72.5206 30.9879 70.5578 32.1746L68.0714 33.6807C66.1086 34.8218 63.1861 34.9587 61.5285 33.9546Z" fill="url(#paint25_linear_4711_6923)"/>
<path d="M61.5285 33.9546L58.039 31.8551C56.3814 30.851 56.5559 29.071 58.5188 27.8844L61.0051 26.3782C62.9244 25.1916 65.8905 25.1003 67.548 26.1044L71.0376 28.2039C72.6951 29.208 72.5206 30.9879 70.5578 32.1746L68.0714 33.6807C66.1086 34.8218 63.1861 34.9587 61.5285 33.9546Z" fill="url(#paint26_linear_4711_6923)"/>
<path d="M74.9192 35.507V35.1875C74.7884 36.146 74.0905 37.1501 72.7383 37.9716L69.336 40.0254C66.6752 41.6228 62.7058 41.8054 60.4376 40.3905L55.6831 37.5152C54.7671 36.9675 54.2436 36.2372 54.1564 35.4613V35.7808C54.0255 36.7849 54.549 37.7434 55.6831 38.428L60.4376 41.3034C62.7058 42.6726 66.7188 42.49 69.336 40.9382L72.7383 38.8844C74.3086 37.8803 75.0501 36.648 74.9192 35.507Z" fill="#303030"/>
<path d="M74.9192 38.0636V37.7441C74.7884 38.7026 74.0905 39.7067 72.7383 40.5282L69.336 42.5821C66.6752 44.1795 62.7058 44.3621 60.4376 42.9472L55.6831 40.0718C54.7671 39.5241 54.2436 38.7939 54.1564 38.018V38.3375C54.0255 39.3416 54.549 40.3 55.6831 40.9846L60.4376 43.86C62.7058 45.2292 66.7188 45.0467 69.336 43.4949L72.7383 41.441C74.3086 40.3913 75.0501 39.159 74.9192 38.0636Z" fill="#303030"/>
<path d="M74.9192 40.5734V40.2539C74.7884 41.2124 74.0905 42.2165 72.7383 43.038L69.336 45.0918C66.6752 46.6893 62.7058 46.8718 60.4376 45.457L55.6831 42.5816C54.7671 42.0339 54.2436 41.3036 54.1564 40.5278V40.8472C54.0255 41.8513 54.549 42.8098 55.6831 43.4944L60.4376 46.3698C62.7058 47.739 66.7188 47.5564 69.336 46.0046L72.7383 43.9508C74.3086 42.9467 75.0501 41.7144 74.9192 40.5734Z" fill="#303030"/>
<path d="M74.9192 43.0832V42.7637C74.7884 43.7221 74.0905 44.7262 72.7383 45.5478L69.336 47.6016C66.6752 49.199 62.7058 49.3816 60.4376 47.9667L55.6831 45.0913C54.7671 44.5437 54.2436 43.8134 54.1564 43.0375V43.357C54.0255 44.3611 54.549 45.3196 55.6831 46.0042L60.4376 48.8795C62.7058 50.2488 66.7188 50.0662 69.336 48.5144L72.7383 46.4606C74.3086 45.4565 75.0501 44.2242 74.9192 43.0832Z" fill="#303030"/>
<path d="M74.9192 45.5929V45.2734C74.7884 46.2319 74.0905 47.236 72.7383 48.0575L69.336 50.1114C66.6752 51.7088 62.7058 51.8913 60.4376 50.4765L55.6831 47.6011C54.7671 47.0534 54.2436 46.3232 54.1564 45.5473V45.8668C54.0255 46.8709 54.549 47.8293 55.6831 48.5139L60.4376 51.3893C62.7058 52.7585 66.7188 52.576 69.336 51.0242L72.7383 48.9703C74.3086 47.9662 75.0501 46.7339 74.9192 45.5929Z" fill="#303030"/>
<path d="M74.9192 48.1496V47.8301C74.7884 48.7885 74.0905 49.7926 72.7383 50.6142L69.336 52.668C66.6752 54.2654 62.7058 54.448 60.4376 53.0331L55.6831 50.1578C54.7671 49.6101 54.2436 48.8798 54.1564 48.1039V48.4234C54.0255 49.4275 54.549 50.386 55.6831 51.0706L60.4376 53.9459C62.7058 55.3152 66.7188 55.1326 69.336 53.5808L72.7383 51.527C74.3086 50.5229 75.0501 49.2906 74.9192 48.1496Z" fill="#303030"/>
<path d="M74.9192 50.6593V50.3398C74.7884 51.2983 74.0905 52.3024 72.7383 53.1239L69.336 55.1778C66.6752 56.7752 62.7058 56.9578 60.4376 55.5429L55.6831 52.6675C54.7671 52.1198 54.2436 51.3896 54.1564 50.6137V50.9332C54.0255 51.9373 54.549 52.8957 55.6831 53.5803L60.4376 56.4557C62.7058 57.8249 66.7188 57.6424 69.336 56.0906L72.7383 54.0367C74.3086 53.0327 75.0501 51.8004 74.9192 50.6593Z" fill="#303030"/>
<path d="M74.9192 53.1691V52.8496C74.7884 53.8081 74.0905 54.8122 72.7383 55.6337L69.336 57.6875C66.6752 59.285 62.7058 59.4675 60.4376 58.0527L55.6831 55.1773C54.7671 54.6296 54.2436 53.8993 54.1564 53.1235V53.4429C54.0255 54.447 54.549 55.4055 55.6831 56.0901L60.4376 58.9655C62.7058 60.3347 66.7188 60.1521 69.336 58.6003L72.7383 56.5465C74.3086 55.5424 75.0501 54.3101 74.9192 53.1691Z" fill="#303030"/>
<path d="M74.9192 55.7257V55.4062C74.7884 56.3647 74.0905 57.3688 72.7383 58.1903L69.336 60.2442C66.6752 61.8416 62.7058 62.0242 60.4376 60.6093L55.6831 57.7339C54.7671 57.1862 54.2436 56.456 54.1564 55.6801V55.9996C54.0255 57.0037 54.549 57.9621 55.6831 58.6467L60.4376 61.5221C62.7058 62.8913 66.7188 62.7088 69.336 61.157L72.7383 59.1031C74.3086 58.0991 75.0501 56.8211 74.9192 55.7257Z" fill="#303030"/>
<path d="M74.9192 58.2355V57.916C74.7884 58.8745 74.0905 59.8786 72.7383 60.7001L69.336 62.7539C66.6752 64.3514 62.7058 64.5339 60.4376 63.1191L55.6831 60.2437C54.7671 59.696 54.2436 58.9658 54.1564 58.1899V58.5093C54.0255 59.5134 54.549 60.4719 55.6831 61.1565L60.4376 64.0319C62.7058 65.4011 66.7188 65.2185 69.336 63.6667L72.7383 61.6129C74.3086 60.6088 75.0501 59.3765 74.9192 58.2355Z" fill="#303030"/>
<path d="M74.9192 60.7472V60.4277C74.7884 61.3862 74.0905 62.3903 72.7383 63.2118L69.336 65.2656C66.6752 66.8631 62.7058 67.0456 60.4376 65.6308L55.6831 62.7554C54.7671 62.2077 54.2436 61.4775 54.1564 60.7016V61.0211C54.0255 62.0252 54.549 62.9836 55.6831 63.6682L60.4376 66.5436C62.7058 67.9128 66.7188 67.7302 69.336 66.1785L72.7383 64.1246C74.3086 63.1205 75.0501 61.8882 74.9192 60.7472Z" fill="#303030"/>
<path d="M74.9192 63.257V62.9375C74.7884 63.896 74.0905 64.9 72.7383 65.7216L69.336 67.7754C66.6752 69.3728 62.7058 69.5554 60.4376 68.1405L55.6831 65.2652C54.7671 64.7175 54.2436 63.9872 54.1564 63.2113V63.5308C54.0255 64.5349 54.549 65.4934 55.6831 66.178L60.4376 69.0534C62.7058 70.4226 66.7188 70.24 69.336 68.6882L72.7383 66.6344C74.3086 65.6303 75.0501 64.398 74.9192 63.257Z" fill="#303030"/>
<path d="M74.9192 65.8117V65.4922C74.7884 66.4506 74.0905 67.4547 72.7383 68.2763L69.336 70.3301C66.6752 71.9275 62.7058 72.1101 60.4376 70.6952L55.6831 67.8199C54.7671 67.2722 54.2436 66.5419 54.1564 65.766V66.0855C54.0255 67.0896 54.549 68.0481 55.6831 68.7327L60.4376 71.6081C62.7058 72.9773 66.7188 72.7947 69.336 71.2429L72.7383 69.1891C74.3086 68.185 75.0501 66.9527 74.9192 65.8117Z" fill="#303030"/>
<path d="M67.9407 29.71V27.291H61.0925V29.8013C61.0489 30.1207 61.2233 30.4402 61.6159 30.6684L63.1862 31.6269C63.9277 32.0833 65.2799 32.0377 66.1087 31.49L67.2428 30.8054C67.7663 30.5315 67.9844 30.1207 67.9407 29.71Z" fill="#303030"/>
<path d="M67.9407 28.0662V27.3359H61.0925V28.1575C61.0489 28.477 61.2233 28.7964 61.6159 29.0246L63.1862 29.9831C63.9277 30.4395 65.2799 30.3939 66.1087 29.8462L67.2428 29.1616C67.7663 28.8421 67.9844 28.4313 67.9407 28.0662Z" fill="#B6B6B6"/>
<path d="M63.1852 29.0255L61.6149 28.067C60.8733 27.6106 60.9606 26.8347 61.833 26.287L62.9671 25.6024C63.8395 25.0547 65.148 25.0091 65.8896 25.4655L67.4599 26.4239C68.2014 26.8803 68.1142 27.6562 67.2418 28.2039L66.1077 28.8885C65.2353 29.4362 63.9267 29.4819 63.1852 29.0255Z" fill="url(#paint27_linear_4711_6923)"/>
<path d="M74.9192 33.8625V33.543C74.7884 34.5014 74.0905 35.5055 72.7383 36.3271L69.336 38.3809C66.6752 39.9783 62.7058 40.1609 60.4376 38.746L55.6831 35.8706C54.7671 35.323 54.2436 34.5927 54.1564 33.8168V34.1363C54.0255 35.1404 54.549 36.0989 55.6831 36.7835L60.4376 39.6588C62.7058 41.0281 66.7188 40.8455 69.336 39.2937L72.7383 37.2399C74.3086 36.2358 75.0501 35.0035 74.9192 33.8625Z" fill="#A7A9AC"/>
<path d="M74.9192 33.0421V32.7227C74.7884 33.6811 74.0905 34.6852 72.7383 35.5067L69.336 37.5606C66.6752 39.158 62.7058 39.3406 60.4376 37.9257L55.6831 35.0503C54.7671 34.5026 54.2436 33.7724 54.1564 32.9965V33.316C54.0255 34.3201 54.549 35.2785 55.6831 35.9632L60.4376 38.8385C62.7058 40.2077 66.7188 40.0252 69.336 38.4734L72.7383 36.4196C74.3086 35.4155 75.0501 34.1832 74.9192 33.0421Z" fill="#303030"/>
<path d="M48.9688 83.658V85.8487L61.0949 78.5462V76.3555L48.9688 83.658Z" fill="url(#paint28_linear_4711_6923)"/>
<path d="M48.968 83.658V85.8487L36.9727 78.5462V76.3555L48.968 83.658Z" fill="url(#paint29_linear_4711_6923)"/>
<path d="M36.9727 76.3553L48.968 83.6578L61.0942 76.3553L49.0989 69.0527L36.9727 76.3553Z" fill="url(#paint30_linear_4711_6923)"/>
<path d="M48.9688 48.1937V82.6524L59.481 76.3084V41.8496L48.9688 48.1937Z" fill="url(#paint31_linear_4711_6923)"/>
<path d="M48.9674 48.1937V82.6524L38.5859 76.3084V41.8496L48.9674 48.1937Z" fill="url(#paint32_linear_4711_6923)"/>
<path d="M48.0963 48.787L39.5469 43.584V44.8163L48.0963 50.065V48.787Z" fill="#303030"/>
<path d="M48.0963 51.3437L39.5469 46.1406V47.3729L48.0963 52.576V51.3437Z" fill="#303030"/>
<path d="M48.0963 53.8534L39.5469 48.6504V49.9283L48.0963 55.1314V53.8534Z" fill="#303030"/>
<path d="M48.0963 56.4081L39.5469 51.2051V52.4374L48.0963 57.6404V56.4081Z" fill="#303030"/>
<path d="M48.0963 58.9198L39.5469 53.7168V54.9947L48.0963 60.1978V58.9198Z" fill="#303030"/>
<path d="M48.0963 61.4745L39.5469 56.2715V57.5038L48.0963 62.7068V61.4745Z" fill="#303030"/>
<path d="M48.0963 64.0312L39.5469 58.8281V60.0604L48.0963 65.2635V64.0312Z" fill="#303030"/>
<path d="M48.0963 66.5409L39.5469 61.3379V62.5702L48.0963 67.8189V66.5409Z" fill="#303030"/>
<path d="M48.0963 69.0976L39.5469 63.8945V65.1268L48.0963 70.3299V69.0976Z" fill="#303030"/>
<path d="M48.0963 71.6073L39.5469 66.4043V67.6822L48.0963 72.8853V71.6073Z" fill="#303030"/>
<path d="M48.0963 74.164L39.5469 68.9609V70.1932L48.0963 75.3963V74.164Z" fill="#303030"/>
<path d="M48.0963 76.7194L39.5469 71.4707V72.7486L48.0963 77.9517V76.7194Z" fill="#303030"/>
<path d="M48.0963 79.2304L39.5469 74.0273V75.2596L48.0963 80.4627V79.2304Z" fill="#303030"/>
<path d="M50.0156 48.787L58.565 43.584V44.8163L50.0156 50.065V48.787Z" fill="#303030"/>
<path d="M50.0156 51.3437L58.565 46.1406V47.3729L50.0156 52.576V51.3437Z" fill="#303030"/>
<path d="M50.0156 53.8534L58.565 48.6504V49.9283L50.0156 55.1314V53.8534Z" fill="#303030"/>
<path d="M50.0156 56.4081L58.565 51.2051V52.4374L50.0156 57.6404V56.4081Z" fill="#303030"/>
<path d="M50.0156 58.9198L58.565 53.7168V54.9947L50.0156 60.1978V58.9198Z" fill="#303030"/>
<path d="M50.0156 61.4745L58.565 56.2715V57.5038L50.0156 62.7068V61.4745Z" fill="#303030"/>
<path d="M50.0156 64.0312L58.565 58.8281V60.0604L50.0156 65.2635V64.0312Z" fill="#303030"/>
<path d="M50.0156 66.5409L58.565 61.3379V62.5702L50.0156 67.8189V66.5409Z" fill="#303030"/>
<path d="M50.0156 69.0976L58.565 63.8945V65.1268L50.0156 70.3299V69.0976Z" fill="#303030"/>
<path d="M50.0156 71.6073L58.565 66.4043V67.6822L50.0156 72.8853V71.6073Z" fill="#303030"/>
<path d="M50.0156 74.164L58.565 68.9609V70.1932L50.0156 75.3963V74.164Z" fill="#303030"/>
<path d="M50.0156 76.7194L58.565 71.4707V72.7486L50.0156 77.9517V76.7194Z" fill="#303030"/>
<path d="M50.0156 79.2304L58.565 74.0273V75.2596L50.0156 80.4627V79.2304Z" fill="#303030"/>
<path d="M38.5859 41.8499L48.9674 48.194L59.4796 41.8499L49.0982 35.5059L38.5859 41.8499Z" fill="url(#paint33_linear_4711_6923)"/>
<path d="M56.4276 41.8048L49.0995 37.332L41.6406 41.8505L49.0123 46.3233L56.4276 41.8048Z" fill="url(#paint34_linear_4711_6923)"/>
<path d="M49.0995 38.6556V37.3777V37.332L41.6406 41.8505L42.7311 42.4894L49.0995 38.6556Z" fill="#2B2B2B"/>
<path d="M49.0977 38.6556L55.3352 42.4894L56.4257 41.8048L49.0977 37.332V38.6556Z" fill="#2B2B2B"/>
<path d="M49.0117 42.5351V44.4064L51.847 42.7177V40.8008L49.0117 42.5351Z" fill="#2B2B2B"/>
<path d="M49.0104 42.5344V44.4057L46.2188 42.717V40.8457L49.0104 42.5344Z" fill="#2B2B2B"/>
<path d="M49.0117 42.5351V43.2197L51.847 41.531V40.8008L49.0117 42.5351Z" fill="url(#paint35_linear_4711_6923)"/>
<path d="M49.0117 42.5351V43.2197L51.847 41.531V40.8008L49.0117 42.5351Z" fill="#B6B6B6"/>
<path d="M49.0104 42.5344V43.219L46.2188 41.5303V40.8457L49.0104 42.5344Z" fill="#B6B6B6"/>
<path d="M46.2188 40.8457L49.0104 42.5344L51.8457 40.8L49.054 39.1113L46.2188 40.8457Z" fill="url(#paint36_linear_4711_6923)"/>
<path d="M30.0352 34.0439V35.2762L36.927 31.1229V29.8906L30.0352 34.0439Z" fill="#3E3E3E"/>
<path d="M30.0351 34.0439V35.2762L23.2305 31.1229V29.8906L30.0351 34.0439Z" fill="#646464"/>
<path d="M30.0352 34.0439V34.3178L36.927 30.2101V29.8906L30.0352 34.0439Z" fill="#2B2B2B"/>
<path d="M30.0351 34.0439V34.3178L23.2305 30.2101V29.8906L30.0351 34.0439Z" fill="#2B2B2B"/>
<path d="M23.2305 29.8916L30.0351 34.0449L36.927 29.8916L30.1223 25.7383L23.2305 29.8916Z" fill="url(#paint37_linear_4711_6923)"/>
<path d="M30.082 30.0754V31.9467L32.8737 30.258V28.3867L30.082 30.0754Z" fill="#2B2B2B"/>
<path d="M30.0807 30.0754V31.9467L27.2891 30.258V28.3867L30.0807 30.0754Z" fill="#2B2B2B"/>
<path d="M30.082 30.302V31.0322L32.8737 29.2979V28.6133L30.082 30.302Z" fill="#848484"/>
<path d="M30.0807 30.302V31.0322L27.2891 29.2979V28.6133L30.0807 30.302Z" fill="#B6B6B6"/>
<path d="M27.2891 28.386L30.0807 30.0747L32.8723 28.386L30.0807 26.6973L27.2891 28.386Z" fill="url(#paint38_linear_4711_6923)"/>
<path d="M29.9473 23.8684C30.1641 23.8684 30.3398 23.6845 30.3398 23.4576C30.3398 23.2308 30.1641 23.0469 29.9473 23.0469C29.7304 23.0469 29.5547 23.2308 29.5547 23.4576C29.5547 23.6845 29.7304 23.8684 29.9473 23.8684Z" fill="#7DB704"/>
<path d="M33.1757 20.3536C32.3033 19.4864 31.1692 18.9844 29.9479 18.9844C28.7265 18.9844 27.5488 19.4864 26.6764 20.3992L26.6328 20.4449L26.9381 20.7644L26.9818 20.7187C27.7669 19.8972 28.8574 19.4408 29.9915 19.4408C31.082 19.4408 32.1289 19.8972 32.914 20.6731L32.9576 20.7187L33.1757 20.3536Z" fill="#7DB704"/>
<path d="M29.9479 21.3125C29.2936 21.3125 28.6829 21.5863 28.2467 22.0428L28.2031 22.0884L28.5085 22.4079L28.5521 22.3622C28.9447 21.9971 29.4245 21.7689 29.9479 21.7689C30.4713 21.7689 30.9511 21.9515 31.3001 22.3166L31.3437 22.3622L31.6491 22.0428L31.6054 21.9971C31.1692 21.5863 30.5586 21.3125 29.9479 21.3125Z" fill="#7DB704"/>
<path d="M29.9479 20.1719C28.9883 20.1719 28.1159 20.537 27.4616 21.2216L27.418 21.2673L27.7233 21.5867L27.7669 21.5411C28.3776 20.9478 29.1191 20.5826 29.9915 20.5826C30.7767 20.5826 31.5618 20.9021 32.1289 21.4498L32.1725 21.4955L32.4778 21.176L32.4342 21.1303C31.7363 20.537 30.8639 20.1719 29.9479 20.1719Z" fill="#7DB704"/>
<path d="M29.9922 24.0957V29.1618L31.4752 28.249L29.9922 24.0957Z" fill="url(#paint39_linear_4711_6923)"/>
<path d="M29.9909 24.0957V29.1618L28.5078 28.249L29.9909 24.0957Z" fill="url(#paint40_linear_4711_6923)"/>
<path d="M48.2246 9.76489C48.4414 9.76489 48.6172 9.58099 48.6172 9.35413C48.6172 9.12727 48.4414 8.94336 48.2246 8.94336C48.0078 8.94336 47.832 9.12727 47.832 9.35413C47.832 9.58099 48.0078 9.76489 48.2246 9.76489Z" fill="#7DB704"/>
<path d="M51.4531 6.25008C50.5807 5.38291 49.4466 4.88086 48.2252 4.88086C47.0039 4.88086 45.8262 5.38291 44.9538 6.29572L44.9102 6.34136L45.2155 6.66085L45.2591 6.61521C46.0443 5.79367 47.1347 5.33727 48.2689 5.33727C49.3593 5.33727 50.4062 5.79367 51.1914 6.56957L51.235 6.61521L51.4531 6.25008Z" fill="#7DB704"/>
<path d="M48.2252 7.20898C47.571 7.20898 46.9603 7.48283 46.5241 7.93924L46.4805 7.98488L46.7858 8.30436L46.8294 8.25872C47.222 7.8936 47.7018 7.66539 48.2252 7.66539C48.7487 7.66539 49.2285 7.84796 49.5774 8.21308L49.6211 8.25872L49.9264 7.93924L49.8828 7.8936C49.403 7.43719 48.8359 7.20898 48.2252 7.20898Z" fill="#7DB704"/>
<path d="M48.2252 6.06836C47.2656 6.06836 46.3932 6.43349 45.7389 7.1181L45.6953 7.16374L46.0007 7.48322L46.0443 7.43758C46.6549 6.84425 47.3965 6.47913 48.2689 6.47913C49.054 6.47913 49.8392 6.79861 50.4062 7.3463L50.4498 7.39194L50.7552 7.07246L50.7115 7.02682C50.0136 6.38784 49.1412 6.06836 48.2252 6.06836Z" fill="#7DB704"/>
<path d="M64.4512 22.8176C64.668 22.8176 64.8437 22.6337 64.8437 22.4069C64.8437 22.18 64.668 21.9961 64.4512 21.9961C64.2344 21.9961 64.0586 22.18 64.0586 22.4069C64.0586 22.6337 64.2344 22.8176 64.4512 22.8176Z" fill="#7DB704"/>
<path d="M67.6796 19.3028C66.8072 18.4356 65.6731 17.9336 64.4518 17.9336C63.2305 17.9336 62.0527 18.4356 61.1803 19.3485L61.1367 19.3941L61.4421 19.7136L61.4857 19.6679C62.2708 18.8464 63.3613 18.39 64.4954 18.39C65.5859 18.39 66.6328 18.8464 67.4179 19.6223L67.4615 19.6679L67.6796 19.3028Z" fill="#7DB704"/>
<path d="M64.4518 20.2617C63.7975 20.2617 63.1868 20.5356 62.7506 20.992L62.707 21.0376L63.0124 21.3571L63.056 21.3115C63.4486 20.9463 63.9284 20.7181 64.4518 20.7181C64.9752 20.7181 65.455 20.9007 65.804 21.2658L65.8476 21.3115L66.153 20.992L66.1093 20.9463C65.6295 20.5356 65.0625 20.2617 64.4518 20.2617Z" fill="#7DB704"/>
<path d="M64.4518 19.1211C63.4922 19.1211 62.6198 19.4862 61.9655 20.1708L61.9219 20.2165L62.2272 20.536L62.2708 20.4903C62.8815 19.897 63.623 19.5319 64.4954 19.5319C65.2806 19.5319 66.0657 19.8513 66.6328 20.399L66.6764 20.4447L66.9817 20.1252L66.9381 20.0796C66.2402 19.4862 65.3678 19.1211 64.4518 19.1211Z" fill="#7DB704"/>
<path d="M64.4531 23.0449V28.111L65.9798 27.1982L64.4531 23.0449Z" fill="url(#paint41_linear_4711_6923)"/>
<path d="M64.4518 23.0449V28.111L62.9688 27.1982L64.4518 23.0449Z" fill="url(#paint42_linear_4711_6923)"/>
<path d="M48.8809 36.054C49.0977 36.054 49.2734 35.87 49.2734 35.6432C49.2734 35.4163 49.0977 35.2324 48.8809 35.2324C48.664 35.2324 48.4883 35.4163 48.4883 35.6432C48.4883 35.87 48.664 36.054 48.8809 36.054Z" fill="#9FEA00"/>
<path d="M52.1093 32.5391C51.2369 31.672 50.1028 31.1699 48.8815 31.1699C47.6601 31.1699 46.4824 31.672 45.61 32.5848L45.5664 32.6304L45.8717 32.9499L45.9154 32.9043C46.7005 32.0827 47.791 31.6263 48.9251 31.6263C50.0156 31.6263 51.0624 32.0827 51.8476 32.8586L51.8912 32.9043L52.1093 32.5391Z" fill="#9FEA00"/>
<path d="M48.8815 33.498C48.2272 33.498 47.6165 33.7719 47.1803 34.2283L47.1367 34.2739L47.4421 34.5934L47.4857 34.5478C47.8782 34.1827 48.3581 33.9545 48.8815 33.9545C49.4049 33.9545 49.8847 34.137 50.2337 34.5021L50.2773 34.5478L50.5827 34.2283L50.539 34.1827C50.1028 33.7719 49.4922 33.498 48.8815 33.498Z" fill="#9FEA00"/>
<path d="M48.8815 32.3574C47.9219 32.3574 47.0495 32.7225 46.3952 33.4072L46.3516 33.4528L46.6569 33.7723L46.7005 33.7266C47.3112 33.1333 48.0527 32.7682 48.9251 32.7682C49.7103 32.7682 50.4954 33.0877 51.0625 33.6354L51.1061 33.681L51.4114 33.3615H51.3242C50.6699 32.7225 49.7975 32.3574 48.8815 32.3574Z" fill="#9FEA00"/>
<path d="M48.8828 36.2812V41.3474L50.4095 40.4346L48.8828 36.2812Z" fill="url(#paint43_linear_4711_6923)"/>
<path d="M48.8815 36.2812V41.3474L47.3984 40.4346L48.8815 36.2812Z" fill="url(#paint44_linear_4711_6923)"/>
</g>
<defs>
<linearGradient id="paint0_linear_4711_6923" x1="40.7241" y1="62.2664" x2="-11.2317" y2="91.2439" gradientUnits="userSpaceOnUse">
<stop stop-color="#858585"/>
<stop offset="0.14" stop-color="#A0A0A0"/>
<stop offset="0.33" stop-color="#A7A7A7"/>
<stop offset="0.58" stop-color="#B3B3B3"/>
<stop offset="0.76" stop-color="#C4C4C4"/>
<stop offset="1" stop-color="#F7F7F7"/>
</linearGradient>
<linearGradient id="paint1_linear_4711_6923" x1="40.7228" y1="62.6465" x2="-9.15055" y2="90.4074" gradientUnits="userSpaceOnUse">
<stop stop-color="#858585"/>
<stop offset="0.14" stop-color="#A0A0A0"/>
<stop offset="0.33" stop-color="#A7A7A7"/>
<stop offset="0.58" stop-color="#B3B3B3"/>
<stop offset="0.76" stop-color="#C4C4C4"/>
<stop offset="1" stop-color="#F7F7F7"/>
</linearGradient>
<linearGradient id="paint2_linear_4711_6923" x1="56.05" y1="18.5644" x2="31.4826" y2="19.3815" gradientUnits="userSpaceOnUse">
<stop stop-color="#575656"/>
<stop offset="0.14" stop-color="#575757"/>
<stop offset="0.33" stop-color="#4F4F4F"/>
<stop offset="0.58" stop-color="#B3B3B3"/>
<stop offset="0.76" stop-color="#C4C4C4"/>
<stop offset="1" stop-color="#F7F7F7"/>
</linearGradient>
<linearGradient id="paint3_linear_4711_6923" x1="35.2578" y1="8.1932" x2="13.392" y2="14.1934" gradientUnits="userSpaceOnUse">
<stop stop-color="#858585"/>
<stop offset="0.14" stop-color="#A0A0A0"/>
<stop offset="0.33" stop-color="#A7A7A7"/>
<stop offset="0.58" stop-color="#B3B3B3"/>
<stop offset="0.76" stop-color="#C4C4C4"/>
<stop offset="1" stop-color="#F7F7F7"/>
</linearGradient>
<linearGradient id="paint4_linear_4711_6923" x1="48.2478" y1="15.3602" x2="22.7188" y2="29.5631" gradientUnits="userSpaceOnUse">
<stop stop-color="#858585"/>
<stop offset="0.14" stop-color="#A0A0A0"/>
<stop offset="0.33" stop-color="#A7A7A7"/>
<stop offset="0.58" stop-color="#B3B3B3"/>
<stop offset="0.76" stop-color="#C4C4C4"/>
<stop offset="1" stop-color="#F7F7F7"/>
</linearGradient>
<linearGradient id="paint5_linear_4711_6923" x1="53.1124" y1="15.1843" x2="37.858" y2="16.7247" gradientUnits="userSpaceOnUse">
<stop stop-color="#575656"/>
<stop offset="0.14" stop-color="#575757"/>
<stop offset="0.33" stop-color="#4F4F4F"/>
<stop offset="0.58" stop-color="#B3B3B3"/>
<stop offset="0.76" stop-color="#C4C4C4"/>
<stop offset="1" stop-color="#F7F7F7"/>
</linearGradient>
<linearGradient id="paint6_linear_4711_6923" x1="40.1452" y1="13.0442" x2="31.4621" y2="20.2248" gradientUnits="userSpaceOnUse">
<stop stop-color="#858585"/>
<stop offset="0.14" stop-color="#A0A0A0"/>
<stop offset="0.33" stop-color="#A7A7A7"/>
<stop offset="0.58" stop-color="#B3B3B3"/>
<stop offset="0.76" stop-color="#C4C4C4"/>
<stop offset="1" stop-color="#F7F7F7"/>
</linearGradient>
<linearGradient id="paint7_linear_4711_6923" x1="48.2478" y1="12.5479" x2="32.3081" y2="21.4111" gradientUnits="userSpaceOnUse">
<stop stop-color="#858585"/>
<stop offset="0.14" stop-color="#A0A0A0"/>
<stop offset="0.33" stop-color="#A7A7A7"/>
<stop offset="0.58" stop-color="#B3B3B3"/>
<stop offset="0.76" stop-color="#C4C4C4"/>
<stop offset="1" stop-color="#F7F7F7"/>
</linearGradient>
<linearGradient id="paint8_linear_4711_6923" x1="50.7725" y1="14.0174" x2="42.9526" y2="15.064" gradientUnits="userSpaceOnUse">
<stop stop-color="#575656"/>
<stop offset="0.14" stop-color="#575757"/>
<stop offset="0.33" stop-color="#4F4F4F"/>
<stop offset="0.58" stop-color="#B3B3B3"/>
<stop offset="0.76" stop-color="#C4C4C4"/>
<stop offset="1" stop-color="#F7F7F7"/>
</linearGradient>
<linearGradient id="paint9_linear_4711_6923" x1="44.0445" y1="13.1833" x2="34.0785" y2="20.9805" gradientUnits="userSpaceOnUse">
<stop stop-color="#858585"/>
<stop offset="0.14" stop-color="#A0A0A0"/>
<stop offset="0.33" stop-color="#A7A7A7"/>
<stop offset="0.58" stop-color="#B3B3B3"/>
<stop offset="0.76" stop-color="#C4C4C4"/>
<stop offset="1" stop-color="#F7F7F7"/>
</linearGradient>
<linearGradient id="paint10_linear_4711_6923" x1="42.0266" y1="16.3604" x2="51.3149" y2="14.3704" gradientUnits="userSpaceOnUse">
<stop offset="0.0353535" stop-color="#6B24D6"/>
<stop offset="0.2945" stop-color="#7733DC"/>
<stop offset="0.7943" stop-color="#975CED"/>
<stop offset="1" stop-color="#A56EF4"/>
</linearGradient>
<linearGradient id="paint11_linear_4711_6923" x1="52.2205" y1="9.70224" x2="46.6135" y2="15.4544" gradientUnits="userSpaceOnUse">
<stop stop-color="#858585"/>
<stop offset="0.14" stop-color="#A0A0A0"/>
<stop offset="0.33" stop-color="#A7A7A7"/>
<stop offset="0.58" stop-color="#B3B3B3"/>
<stop offset="0.76" stop-color="#C4C4C4"/>
<stop offset="1" stop-color="#F7F7F7"/>
</linearGradient>
<linearGradient id="paint12_linear_4711_6923" x1="49.7527" y1="9.99219" x2="47.7069" y2="10.0988" gradientUnits="userSpaceOnUse">
<stop stop-color="#858585"/>
<stop offset="0.14" stop-color="#A0A0A0"/>
<stop offset="0.33" stop-color="#A7A7A7"/>
<stop offset="0.58" stop-color="#B3B3B3"/>
<stop offset="0.76" stop-color="#C4C4C4"/>
<stop offset="1" stop-color="#F7F7F7"/>
</linearGradient>
<linearGradient id="paint13_linear_4711_6923" x1="48.3552" y1="7.04507" x2="43.7378" y2="7.70931" gradientUnits="userSpaceOnUse">
<stop stop-color="#858585"/>
<stop offset="0.14" stop-color="#A0A0A0"/>
<stop offset="0.33" stop-color="#A7A7A7"/>
<stop offset="0.58" stop-color="#B3B3B3"/>
<stop offset="0.76" stop-color="#C4C4C4"/>
<stop offset="1" stop-color="#F7F7F7"/>
</linearGradient>
<linearGradient id="paint14_linear_4711_6923" x1="43.9215" y1="20.8265" x2="15.9042" y2="17.4053" gradientUnits="userSpaceOnUse">
<stop stop-color="#575656"/>
<stop offset="0.14" stop-color="#575757"/>
<stop offset="0.33" stop-color="#4F4F4F"/>
<stop offset="0.58" stop-color="#B3B3B3"/>
<stop offset="0.76" stop-color="#C4C4C4"/>
<stop offset="1" stop-color="#F7F7F7"/>
</linearGradient>
<linearGradient id="paint15_linear_4711_6923" x1="17.1133" y1="19.1014" x2="-4.75249" y2="25.1016" gradientUnits="userSpaceOnUse">
<stop stop-color="#858585"/>
<stop offset="0.14" stop-color="#A0A0A0"/>
<stop offset="0.33" stop-color="#A7A7A7"/>
<stop offset="0.58" stop-color="#B3B3B3"/>
<stop offset="0.76" stop-color="#C4C4C4"/>
<stop offset="1" stop-color="#F7F7F7"/>
</linearGradient>
<linearGradient id="paint16_linear_4711_6923" x1="24.7997" y1="69.0701" x2="24.7997" y2="37.0041" gradientUnits="userSpaceOnUse">
<stop offset="0.030303" stop-color="#7C1DC9"/>
<stop offset="0.2138" stop-color="#6E41D2"/>
<stop offset="0.6184" stop-color="#4C9BE8"/>
<stop offset="1" stop-color="#2AF6FF"/>
</linearGradient>
<linearGradient id="paint17_linear_4711_6923" x1="24.7997" y1="69.0702" x2="24.7997" y2="37.0042" gradientUnits="userSpaceOnUse">
<stop offset="0.030303" stop-color="#7C1DC9"/>
<stop offset="0.2138" stop-color="#6E41D2"/>
<stop offset="0.6184" stop-color="#4C9BE8"/>
<stop offset="1" stop-color="#2AF6FF"/>
</linearGradient>
<linearGradient id="paint18_linear_4711_6923" x1="30.1032" y1="26.2684" x2="4.57427" y2="40.4713" gradientUnits="userSpaceOnUse">
<stop stop-color="#858585"/>
<stop offset="0.14" stop-color="#A0A0A0"/>
<stop offset="0.33" stop-color="#A7A7A7"/>
<stop offset="0.58" stop-color="#B3B3B3"/>
<stop offset="0.76" stop-color="#C4C4C4"/>
<stop offset="1" stop-color="#F7F7F7"/>
</linearGradient>
<linearGradient id="paint19_linear_4711_6923" x1="28.7835" y1="66.0968" x2="18.0797" y2="68.1948" gradientUnits="userSpaceOnUse">
<stop stop-color="#858585"/>
<stop offset="0.14" stop-color="#A0A0A0"/>
<stop offset="0.33" stop-color="#A7A7A7"/>
<stop offset="0.58" stop-color="#B3B3B3"/>
<stop offset="0.76" stop-color="#C4C4C4"/>
<stop offset="1" stop-color="#F7F7F7"/>
</linearGradient>
<linearGradient id="paint20_linear_4711_6923" x1="12.1943" y1="59.2605" x2="-1.55471" y2="70.7878" gradientUnits="userSpaceOnUse">
<stop stop-color="#858585"/>
<stop offset="0.14" stop-color="#A0A0A0"/>
<stop offset="0.33" stop-color="#A7A7A7"/>
<stop offset="0.58" stop-color="#B3B3B3"/>
<stop offset="0.76" stop-color="#C4C4C4"/>
<stop offset="1" stop-color="#F7F7F7"/>
</linearGradient>
<linearGradient id="paint21_linear_4711_6923" x1="27.7717" y1="54.0463" x2="21.5288" y2="65.4172" gradientUnits="userSpaceOnUse">
<stop stop-color="#25054D"/>
<stop offset="1" stop-color="#45108A"/>
</linearGradient>
<linearGradient id="paint22_linear_4711_6923" x1="22.3819" y1="61.2821" x2="3.63059" y2="71.662" gradientUnits="userSpaceOnUse">
<stop stop-color="#858585"/>
<stop offset="0.14" stop-color="#A0A0A0"/>
<stop offset="0.33" stop-color="#A7A7A7"/>
<stop offset="0.58" stop-color="#B3B3B3"/>
<stop offset="0.76" stop-color="#C4C4C4"/>
<stop offset="1" stop-color="#F7F7F7"/>
</linearGradient>
<linearGradient id="paint23_linear_4711_6923" x1="48.9887" y1="20.9656" x2="13.0266" y2="41.07" gradientUnits="userSpaceOnUse">
<stop stop-color="#858585"/>
<stop offset="0.14" stop-color="#A0A0A0"/>
<stop offset="0.33" stop-color="#A7A7A7"/>
<stop offset="0.58" stop-color="#B3B3B3"/>
<stop offset="0.76" stop-color="#C4C4C4"/>
<stop offset="1" stop-color="#F7F7F7"/>
</linearGradient>
<linearGradient id="paint24_linear_4711_6923" x1="64.5405" y1="27.8579" x2="39.1623" y2="41.9963" gradientUnits="userSpaceOnUse">
<stop stop-color="#858585"/>
<stop offset="0.14" stop-color="#A0A0A0"/>
<stop offset="0.33" stop-color="#A7A7A7"/>
<stop offset="0.58" stop-color="#B3B3B3"/>
<stop offset="0.76" stop-color="#C4C4C4"/>
<stop offset="1" stop-color="#F7F7F7"/>
</linearGradient>
<linearGradient id="paint25_linear_4711_6923" x1="73.5029" y1="20.0532" x2="60.9259" y2="33.0308" gradientUnits="userSpaceOnUse">
<stop stop-color="#858585"/>
<stop offset="0.14" stop-color="#A0A0A0"/>
<stop offset="0.33" stop-color="#A7A7A7"/>
<stop offset="0.58" stop-color="#B3B3B3"/>
<stop offset="0.76" stop-color="#C4C4C4"/>
<stop offset="1" stop-color="#F7F7F7"/>
</linearGradient>
<linearGradient id="paint26_linear_4711_6923" x1="64.5384" y1="26.5323" x2="45.9128" y2="36.9124" gradientUnits="userSpaceOnUse">
<stop stop-color="#858585"/>
<stop offset="0.14" stop-color="#A0A0A0"/>
<stop offset="0.33" stop-color="#A7A7A7"/>
<stop offset="0.58" stop-color="#B3B3B3"/>
<stop offset="0.76" stop-color="#C4C4C4"/>
<stop offset="1" stop-color="#F7F7F7"/>
</linearGradient>
<linearGradient id="paint27_linear_4711_6923" x1="68.5614" y1="22.7213" x2="62.8518" y2="28.5483" gradientUnits="userSpaceOnUse">
<stop stop-color="#858585"/>
<stop offset="0.14" stop-color="#A0A0A0"/>
<stop offset="0.33" stop-color="#A7A7A7"/>
<stop offset="0.58" stop-color="#B3B3B3"/>
<stop offset="0.76" stop-color="#C4C4C4"/>
<stop offset="1" stop-color="#F7F7F7"/>
</linearGradient>
<linearGradient id="paint28_linear_4711_6923" x1="58.0429" y1="76.0021" x2="37.0573" y2="87.3345" gradientUnits="userSpaceOnUse">
<stop stop-color="#858585"/>
<stop offset="0.14" stop-color="#A0A0A0"/>
<stop offset="0.33" stop-color="#A7A7A7"/>
<stop offset="0.58" stop-color="#B3B3B3"/>
<stop offset="0.76" stop-color="#C4C4C4"/>
<stop offset="1" stop-color="#F7F7F7"/>
</linearGradient>
<linearGradient id="paint29_linear_4711_6923" x1="34.0343" y1="73.7193" x2="25.1998" y2="86.4458" gradientUnits="userSpaceOnUse">
<stop stop-color="#858585"/>
<stop offset="0.14" stop-color="#A0A0A0"/>
<stop offset="0.33" stop-color="#A7A7A7"/>
<stop offset="0.58" stop-color="#B3B3B3"/>
<stop offset="0.76" stop-color="#C4C4C4"/>
<stop offset="1" stop-color="#F7F7F7"/>
</linearGradient>
<linearGradient id="paint30_linear_4711_6923" x1="49.0336" y1="70.8249" x2="19.5517" y2="87.2163" gradientUnits="userSpaceOnUse">
<stop stop-color="#858585"/>
<stop offset="0.14" stop-color="#A0A0A0"/>
<stop offset="0.33" stop-color="#A7A7A7"/>
<stop offset="0.58" stop-color="#B3B3B3"/>
<stop offset="0.76" stop-color="#C4C4C4"/>
<stop offset="1" stop-color="#F7F7F7"/>
</linearGradient>
<linearGradient id="paint31_linear_4711_6923" x1="56.8352" y1="40.3307" x2="33.613" y2="42.8601" gradientUnits="userSpaceOnUse">
<stop stop-color="#858585"/>
<stop offset="0.14" stop-color="#A0A0A0"/>
<stop offset="0.33" stop-color="#A7A7A7"/>
<stop offset="0.58" stop-color="#B3B3B3"/>
<stop offset="0.76" stop-color="#C4C4C4"/>
<stop offset="1" stop-color="#F7F7F7"/>
</linearGradient>
<linearGradient id="paint32_linear_4711_6923" x1="36.043" y1="30.5192" x2="14.3554" y2="36.8101" gradientUnits="userSpaceOnUse">
<stop stop-color="#858585"/>
<stop offset="0.14" stop-color="#A0A0A0"/>
<stop offset="0.33" stop-color="#A7A7A7"/>
<stop offset="0.58" stop-color="#B3B3B3"/>
<stop offset="0.76" stop-color="#C4C4C4"/>
<stop offset="1" stop-color="#F7F7F7"/>
</linearGradient>
<linearGradient id="paint33_linear_4711_6923" x1="61.31" y1="28.1248" x2="43.9909" y2="45.9006" gradientUnits="userSpaceOnUse">
<stop stop-color="#858585"/>
<stop offset="0.14" stop-color="#A0A0A0"/>
<stop offset="0.33" stop-color="#A7A7A7"/>
<stop offset="0.58" stop-color="#B3B3B3"/>
<stop offset="0.76" stop-color="#C4C4C4"/>
<stop offset="1" stop-color="#F7F7F7"/>
</linearGradient>
<linearGradient id="paint34_linear_4711_6923" x1="57.723" y1="32.1016" x2="29.2979" y2="55.0741" gradientUnits="userSpaceOnUse">
<stop stop-color="#858585"/>
<stop offset="0.14" stop-color="#A0A0A0"/>
<stop offset="0.33" stop-color="#A7A7A7"/>
<stop offset="0.58" stop-color="#B3B3B3"/>
<stop offset="0.76" stop-color="#C4C4C4"/>
<stop offset="1" stop-color="#F7F7F7"/>
</linearGradient>
<linearGradient id="paint35_linear_4711_6923" x1="49.9669" y1="42.1698" x2="56.1963" y2="40.3871" gradientUnits="userSpaceOnUse">
<stop offset="0.0353535" stop-color="#6B24D6"/>
<stop offset="0.2945" stop-color="#7733DC"/>
<stop offset="0.7943" stop-color="#975CED"/>
<stop offset="1" stop-color="#A56EF4"/>
</linearGradient>
<linearGradient id="paint36_linear_4711_6923" x1="52.3386" y1="37.12" x2="49.9716" y2="39.0068" gradientUnits="userSpaceOnUse">
<stop stop-color="#858585"/>
<stop offset="0.14" stop-color="#A0A0A0"/>
<stop offset="0.33" stop-color="#A7A7A7"/>
<stop offset="0.58" stop-color="#B3B3B3"/>
<stop offset="0.76" stop-color="#C4C4C4"/>
<stop offset="1" stop-color="#F7F7F7"/>
</linearGradient>
<linearGradient id="paint37_linear_4711_6923" x1="38.1268" y1="20.9061" x2="25.3657" y2="30.8175" gradientUnits="userSpaceOnUse">
<stop stop-color="#858585"/>
<stop offset="0.14" stop-color="#A0A0A0"/>
<stop offset="0.33" stop-color="#A7A7A7"/>
<stop offset="0.58" stop-color="#B3B3B3"/>
<stop offset="0.76" stop-color="#C4C4C4"/>
<stop offset="1" stop-color="#F7F7F7"/>
</linearGradient>
<linearGradient id="paint38_linear_4711_6923" x1="33.3615" y1="24.7325" x2="28.1696" y2="28.7754" gradientUnits="userSpaceOnUse">
<stop stop-color="#858585"/>
<stop offset="0.14" stop-color="#A0A0A0"/>
<stop offset="0.33" stop-color="#A7A7A7"/>
<stop offset="0.58" stop-color="#B3B3B3"/>
<stop offset="0.76" stop-color="#C4C4C4"/>
<stop offset="1" stop-color="#F7F7F7"/>
</linearGradient>
<linearGradient id="paint39_linear_4711_6923" x1="31.4747" y1="24.0957" x2="29.487" y2="24.1963" gradientUnits="userSpaceOnUse">
<stop stop-color="#858585"/>
<stop offset="0.14" stop-color="#A0A0A0"/>
<stop offset="0.33" stop-color="#A7A7A7"/>
<stop offset="0.58" stop-color="#B3B3B3"/>
<stop offset="0.76" stop-color="#C4C4C4"/>
<stop offset="1" stop-color="#F7F7F7"/>
</linearGradient>
<linearGradient id="paint40_linear_4711_6923" x1="30.1208" y1="21.1486" x2="25.5034" y2="21.8128" gradientUnits="userSpaceOnUse">
<stop stop-color="#858585"/>
<stop offset="0.14" stop-color="#A0A0A0"/>
<stop offset="0.33" stop-color="#A7A7A7"/>
<stop offset="0.58" stop-color="#B3B3B3"/>
<stop offset="0.76" stop-color="#C4C4C4"/>
<stop offset="1" stop-color="#F7F7F7"/>
</linearGradient>
<linearGradient id="paint41_linear_4711_6923" x1="65.9792" y1="23.0449" x2="63.9334" y2="23.1515" gradientUnits="userSpaceOnUse">
<stop stop-color="#858585"/>
<stop offset="0.14" stop-color="#A0A0A0"/>
<stop offset="0.33" stop-color="#A7A7A7"/>
<stop offset="0.58" stop-color="#B3B3B3"/>
<stop offset="0.76" stop-color="#C4C4C4"/>
<stop offset="1" stop-color="#F7F7F7"/>
</linearGradient>
<linearGradient id="paint42_linear_4711_6923" x1="64.5817" y1="20.0978" x2="59.9643" y2="20.7621" gradientUnits="userSpaceOnUse">
<stop stop-color="#858585"/>
<stop offset="0.14" stop-color="#A0A0A0"/>
<stop offset="0.33" stop-color="#A7A7A7"/>
<stop offset="0.58" stop-color="#B3B3B3"/>
<stop offset="0.76" stop-color="#C4C4C4"/>
<stop offset="1" stop-color="#F7F7F7"/>
</linearGradient>
<linearGradient id="paint43_linear_4711_6923" x1="50.4089" y1="36.2813" x2="48.3631" y2="36.3879" gradientUnits="userSpaceOnUse">
<stop stop-color="#858585"/>
<stop offset="0.14" stop-color="#A0A0A0"/>
<stop offset="0.33" stop-color="#A7A7A7"/>
<stop offset="0.58" stop-color="#B3B3B3"/>
<stop offset="0.76" stop-color="#C4C4C4"/>
<stop offset="1" stop-color="#F7F7F7"/>
</linearGradient>
<linearGradient id="paint44_linear_4711_6923" x1="49.0114" y1="33.3341" x2="44.394" y2="33.9984" gradientUnits="userSpaceOnUse">
<stop stop-color="#858585"/>
<stop offset="0.14" stop-color="#A0A0A0"/>
<stop offset="0.33" stop-color="#A7A7A7"/>
<stop offset="0.58" stop-color="#B3B3B3"/>
<stop offset="0.76" stop-color="#C4C4C4"/>
<stop offset="1" stop-color="#F7F7F7"/>
</linearGradient>
</defs>
</svg>
