<svg width="600" height="430" viewBox="0 0 600 430" fill="none" xmlns="http://www.w3.org/2000/svg">
<g style="mix-blend-mode:multiply" opacity="0.5">
<path d="M519.58 299.803H515.24L464.663 281.695L485.42 272.943L519.58 299.803ZM426.432 301.412L477.032 319.52H481.349L447.212 292.64L426.432 301.412ZM388.201 321.15L438.801 339.258H443.119L408.981 312.458L388.201 321.15ZM349.97 340.887L400.57 358.995H404.91L370.75 332.095L349.97 340.887ZM311.74 360.625L362.339 378.733H366.657L332.519 351.833L311.74 360.625ZM276.073 379.296L132.46 213.188L24.8515 268.778L48.4871 280.991L22.5352 294.35L33.4647 299.984H36.9504L51.9504 282.681L86.6954 300.628L60.6985 314.048L71.628 319.701H75.1137L90.1137 302.398L124.836 320.506L98.8393 333.946L109.791 339.58H113.277L128.254 322.277L162.91 340.183L136.913 353.603L147.842 359.257H151.35L166.35 341.934L201.073 359.88L175.076 373.3L185.983 378.853H189.581L204.581 361.55L239.056 379.457L213.172 392.937L224.101 398.591H227.587L242.587 381.288L243.149 381.569H276.882L324.266 398.571H328.606L294.446 371.691L276.073 379.296Z" fill="#434C54"/>
</g>
<path d="M261.974 166.91L220.258 145.361V141.82L261.974 155.321V166.91Z" fill="#BCBCBC"/>
<path d="M272.591 161.439L261.977 166.911V155.322L272.591 149.85V161.439Z" fill="#D1D1D1"/>
<path d="M261.974 155.322L220.258 141.822L230.872 136.35L272.589 149.85L261.974 155.322Z" fill="#E7E7E7"/>
<path d="M223.767 186.648L182.051 165.1V161.559L223.767 175.059V186.648Z" fill="#BCBCBC"/>
<path d="M234.362 181.177L223.77 186.649V175.06L234.362 169.588V181.177Z" fill="#D1D1D1"/>
<path d="M223.767 175.061L182.051 161.56L192.643 156.088L234.359 169.588L223.767 175.061Z" fill="#E7E7E7"/>
<path d="M185.53 206.386L143.836 184.838V181.297L185.53 194.797V206.386Z" fill="#BCBCBC"/>
<path d="M196.142 200.917L185.527 206.39V194.801L196.142 189.328V200.917Z" fill="#D1D1D1"/>
<path d="M185.53 194.799L143.836 181.299L154.428 175.826L196.145 189.327L185.53 194.799Z" fill="#E7E7E7"/>
<path d="M147.326 226.123L105.609 204.574V201.033L147.326 214.554V226.123Z" fill="#BCBCBC"/>
<path d="M157.92 220.653L147.328 226.126V214.557L157.92 209.064V220.653Z" fill="#D1D1D1"/>
<path d="M147.326 214.556L105.609 201.035L116.202 195.562L157.918 209.063L147.326 214.556Z" fill="#E7E7E7"/>
<path d="M109.123 245.859L67.4062 224.311V220.77L109.123 234.29V245.859Z" fill="#BCBCBC"/>
<path d="M119.717 240.389L109.125 245.862V234.293L119.717 228.82V240.389Z" fill="#D1D1D1"/>
<path d="M109.123 234.292L67.4062 220.771L77.9984 215.299L119.715 228.819L109.123 234.292Z" fill="#E7E7E7"/>
<path d="M70.8923 265.619L29.1758 244.07V240.529L70.8923 254.03V265.619Z" fill="#BCBCBC"/>
<path d="M81.4867 260.127L70.8945 265.62V254.031L81.4867 248.559V260.127Z" fill="#D1D1D1"/>
<path d="M70.8923 254.03L29.1758 240.53L39.7904 235.037L81.4845 248.558L70.8923 254.03Z" fill="#E7E7E7"/>
<path d="M485.426 265.355L527.142 243.807V240.266L485.426 253.766V265.355Z" fill="#D1D1D1"/>
<path d="M474.832 259.884L485.424 265.356V253.767L474.832 248.295V259.884Z" fill="#D1D1D1"/>
<path d="M485.424 253.768L527.141 240.267L516.549 234.795L474.832 248.295L485.424 253.768Z" fill="#E7E7E7"/>
<path d="M447.32 245.658L489.014 224.109V220.568L447.32 234.069V245.658Z" fill="#D1D1D1"/>
<path d="M436.707 240.187L447.322 245.659V234.07L436.707 228.598V240.187Z" fill="#D1D1D1"/>
<path d="M447.322 234.071L489.016 220.57L478.424 215.098L436.707 228.598L447.322 234.071Z" fill="#E7E7E7"/>
<path d="M409.211 225.982L450.927 204.434V200.893L409.211 214.393V225.982Z" fill="#D1D1D1"/>
<path d="M398.617 220.511L409.209 225.983V214.394L398.617 208.922V220.511Z" fill="#D1D1D1"/>
<path d="M409.209 214.395L450.926 200.894L440.334 195.422L398.617 208.922L409.209 214.395Z" fill="#E7E7E7"/>
<path d="M371.09 206.285L412.806 184.736V181.195L371.09 194.716V206.285Z" fill="#D1D1D1"/>
<path d="M360.496 200.816L371.088 206.288V194.719L360.496 189.227V200.816Z" fill="#D1D1D1"/>
<path d="M371.088 194.718L412.805 181.197L402.213 175.725L360.496 189.225L371.088 194.718Z" fill="#E7E7E7"/>
<path d="M332.973 186.607L374.689 165.059V161.518L332.973 175.018V186.607Z" fill="#D1D1D1"/>
<path d="M322.379 181.136L332.971 186.608V175.019L322.379 169.547V181.136Z" fill="#D1D1D1"/>
<path d="M332.971 175.02L374.688 161.519L364.095 156.047L322.379 169.547L332.971 175.02Z" fill="#E7E7E7"/>
<path d="M294.879 166.91L336.595 145.382V141.82L294.879 155.341V166.91Z" fill="#D1D1D1"/>
<path d="M284.262 161.44L294.876 166.913V155.344L284.262 149.871V161.44Z" fill="#D1D1D1"/>
<path d="M294.876 155.343L336.593 141.822L325.978 136.35L284.262 149.87L294.876 155.343Z" fill="#E7E7E7"/>
<path d="M278.055 381.509L62.0508 269.945V239.906L278.055 252.803V381.509Z" fill="#4E4E4E"/>
<path d="M494.059 269.945L278.055 381.509V252.803L494.059 239.906V269.945Z" fill="#5B5B5B"/>
<path d="M279.312 355.735L63.3086 244.171L279.312 132.607L495.316 244.171L279.312 355.735Z" fill="#7A7A7A"/>
<path d="M119.398 239.907L278.056 157.959L436.714 239.907L278.056 321.854L119.398 239.907Z" fill="#201323"/>
<path d="M227.59 398.529L269.306 376.981V365.412L227.59 394.988V398.529Z" fill="#D1D1D1"/>
<path d="M216.996 393.059L227.588 398.531V394.99L216.996 389.518V393.059Z" fill="#BCBCBC"/>
<path d="M227.588 394.989L269.305 365.413L258.713 359.92L216.996 389.516L227.588 394.989Z" fill="#E7E7E7"/>
<path d="M189.473 378.852L231.189 357.304V345.715L189.473 375.311V378.852Z" fill="#D1D1D1"/>
<path d="M178.879 373.38L189.471 378.852V375.311L178.879 369.818V373.38Z" fill="#BCBCBC"/>
<path d="M189.471 375.313L231.188 345.717L220.595 340.244L178.879 369.82L189.471 375.313Z" fill="#E7E7E7"/>
<path d="M151.352 359.154L193.068 337.606V326.037L151.352 355.613V359.154Z" fill="#D1D1D1"/>
<path d="M140.758 353.682L151.35 359.154V355.613L140.758 350.141V353.682Z" fill="#BCBCBC"/>
<path d="M151.35 355.615L193.067 326.039L182.474 320.566L140.758 350.142L151.35 355.615Z" fill="#E7E7E7"/>
<path d="M113.262 339.479L154.978 317.931V306.342L113.262 335.938V339.479Z" fill="#D1D1D1"/>
<path d="M102.645 334.008L113.259 339.48V335.939L102.645 330.467V334.008Z" fill="#BCBCBC"/>
<path d="M113.259 335.94L154.976 306.344L144.361 300.871L102.645 330.467L113.259 335.94Z" fill="#E7E7E7"/>
<path d="M75.1367 319.781L116.853 298.253V286.664L75.1367 316.24V319.781Z" fill="#D1D1D1"/>
<path d="M64.543 314.309L75.1351 319.781V316.24L64.543 310.768V314.309Z" fill="#BCBCBC"/>
<path d="M75.1351 316.242L116.852 286.666L106.259 281.193L64.543 310.769L75.1351 316.242Z" fill="#E7E7E7"/>
<path d="M37.0234 300.102L78.74 278.554V266.965L37.0234 296.561V300.102Z" fill="#D1D1D1"/>
<path d="M26.4297 294.631L37.0219 300.103V296.562L26.4297 291.09V294.631Z" fill="#BCBCBC"/>
<path d="M37.0219 296.563L78.7384 266.967L68.1462 261.494L26.4297 291.09L37.0219 296.563Z" fill="#E7E7E7"/>
<path d="M519.584 299.803L477.867 278.254V266.686L519.584 296.262V299.803Z" fill="#BCBCBC"/>
<path d="M530.178 294.33L519.586 299.803V296.262L530.178 290.789V294.33Z" fill="#D1D1D1"/>
<path d="M519.584 296.263L477.867 266.687L488.459 261.215L530.176 290.791L519.584 296.263Z" fill="#E7E7E7"/>
<path d="M481.354 319.539L439.66 297.991V286.422L481.354 315.998V319.539Z" fill="#BCBCBC"/>
<path d="M491.966 314.066L481.352 319.539V315.998L491.966 310.525V314.066Z" fill="#D1D1D1"/>
<path d="M481.354 316L439.66 286.424L450.252 280.951L491.969 310.527L481.354 316Z" fill="#E7E7E7"/>
<path d="M443.146 339.295L401.43 317.747V306.158L443.146 335.734V339.295Z" fill="#BCBCBC"/>
<path d="M453.741 333.823L443.148 339.295V335.734L453.741 330.262V333.823Z" fill="#D1D1D1"/>
<path d="M443.146 335.736L401.43 306.16L412.022 300.688L453.738 330.264L443.146 335.736Z" fill="#E7E7E7"/>
<path d="M404.917 359.032L363.223 337.484V325.895L404.917 355.491V359.032Z" fill="#BCBCBC"/>
<path d="M415.529 353.559L404.914 359.032V355.491L415.529 349.998V353.559Z" fill="#D1D1D1"/>
<path d="M404.917 355.492L363.223 325.896L373.815 320.424L415.531 350L404.917 355.492Z" fill="#E7E7E7"/>
<path d="M366.705 378.772L324.988 357.224V345.635L366.705 375.231V378.772Z" fill="#BCBCBC"/>
<path d="M377.299 373.301L366.707 378.773V375.232L377.299 369.76V373.301Z" fill="#D1D1D1"/>
<path d="M366.705 375.233L324.988 345.637L335.603 340.164L377.297 369.76L366.705 375.233Z" fill="#E7E7E7"/>
<path d="M328.498 398.51L286.781 376.961V365.393L328.498 394.969V398.51Z" fill="#BCBCBC"/>
<path d="M339.092 393.037L328.5 398.51V394.969L339.092 389.496V393.037Z" fill="#D1D1D1"/>
<path d="M328.498 394.969L286.781 365.393L297.373 359.9L339.09 389.497L328.498 394.969Z" fill="#E7E7E7"/>
<path opacity="0.1" d="M189.245 251.032L262.086 288.656C263.795 289.541 263.795 290.407 262.086 291.292L251.786 296.604C251.027 297.037 250.146 297.267 249.245 297.267C248.345 297.267 247.463 297.037 246.704 296.604L173.84 258.98C172.131 258.114 172.131 257.229 173.84 256.364L184.14 251.032C184.902 250.595 185.788 250.362 186.693 250.362C187.598 250.362 188.484 250.595 189.245 251.032ZM255.317 219.545C262.306 219.537 269.167 221.219 275.174 224.414L313.608 244.272C319.994 247.572 323.15 250.992 323.075 254.533C323 258.074 319.762 261.495 313.36 264.794L299.867 271.816C293.858 275.025 287.007 276.753 280.01 276.826C273.01 276.836 266.139 275.146 260.13 271.937L221.606 252.099C215.242 248.799 212.071 245.379 212.161 241.838C212.251 238.297 215.467 234.856 221.854 231.556L235.347 224.555C241.39 221.332 248.282 219.603 255.317 219.545ZM260.512 232.744C258.414 231.435 255.918 230.733 253.36 230.733C250.803 230.733 248.307 231.435 246.209 232.744L237.596 237.19C235.01 238.518 233.75 239.745 233.795 240.852C233.84 241.958 235.145 243.186 237.731 244.514L274.702 263.607C276.83 264.813 279.27 265.507 281.786 265.619C284.308 265.535 286.756 264.84 288.87 263.607L297.483 259.161C300.069 257.833 301.374 256.605 301.374 255.479C301.374 254.352 300.092 253.125 297.483 251.777L260.512 232.744ZM311.899 185.04L266.044 208.7C264.335 209.586 264.335 210.471 266.044 211.336L274.275 215.602C275.04 216.03 275.925 216.257 276.827 216.257C277.73 216.257 278.615 216.03 279.38 215.602L293.188 208.479C293.588 208.252 294.052 208.131 294.526 208.131C295 208.131 295.464 208.252 295.864 208.479L356.584 239.846C357.363 240.279 358.263 240.508 359.181 240.508C360.099 240.508 360.999 240.279 361.778 239.846L371.966 234.574C373.652 233.709 373.652 232.824 371.966 231.959L311.246 200.592C310.347 200.129 310.392 199.647 311.359 199.144L325.167 192.001C326.853 191.136 326.853 190.251 325.167 189.386L316.936 185.12C316.185 184.696 315.318 184.464 314.43 184.45C313.542 184.436 312.666 184.64 311.899 185.04Z" fill="#93D309"/>
<path opacity="0.2" d="M189.245 240.953L262.086 278.576C263.795 279.442 263.795 280.327 262.086 281.192L251.786 286.524C251.027 286.957 250.146 287.188 249.245 287.188C248.345 287.188 247.463 286.957 246.704 286.524L173.84 248.9C172.131 248.015 172.131 247.149 173.84 246.264L184.14 240.953C184.902 240.515 185.788 240.282 186.693 240.282C187.598 240.282 188.484 240.515 189.245 240.953ZM255.317 209.445C262.309 209.435 269.173 211.125 275.174 214.334L313.608 234.192C319.994 237.472 323.143 240.912 323.075 244.453C323.008 247.994 319.747 251.415 313.36 254.714L299.867 261.736C293.858 264.945 287.007 266.673 280.01 266.746C273.01 266.756 266.139 265.067 260.13 261.857L221.606 242.039C215.242 238.739 212.071 235.319 212.161 231.758C212.251 228.197 215.467 224.796 221.854 221.497L235.347 214.475C241.393 211.255 248.281 209.52 255.317 209.445ZM260.512 222.664C258.414 221.355 255.918 220.653 253.36 220.653C250.803 220.653 248.307 221.355 246.209 222.664L237.596 227.11C235.01 228.438 233.75 229.665 233.795 230.772C233.84 231.878 235.145 233.106 237.731 234.434L274.702 253.527C276.83 254.734 279.27 255.427 281.786 255.539C284.306 255.447 286.752 254.752 288.87 253.527L297.483 249.081C300.069 247.753 301.374 246.526 301.374 245.379C301.374 244.232 300.092 243.025 297.483 241.697L260.512 222.664ZM311.899 174.96L266.044 198.621C264.335 199.506 264.335 200.371 266.044 201.256L274.275 205.502C275.038 205.934 275.924 206.164 276.827 206.164C277.731 206.164 278.616 205.934 279.38 205.502L293.188 198.379C293.588 198.152 294.052 198.031 294.526 198.031C295 198.031 295.464 198.152 295.864 198.379L356.584 229.726C357.36 230.168 358.261 230.403 359.181 230.403C360.101 230.403 361.002 230.168 361.778 229.726L371.966 224.474C373.652 223.609 373.652 222.724 371.966 221.839L311.246 190.472C310.347 190.029 310.392 189.547 311.359 189.044L325.167 181.901C326.853 181.016 326.853 180.151 325.167 179.265L316.936 175.02C316.186 174.59 315.317 174.357 314.427 174.346C313.537 174.335 312.661 174.548 311.899 174.96Z" fill="#93D309"/>
<path opacity="0.3" d="M189.245 230.852L262.086 268.476C263.795 269.361 263.795 270.247 262.086 271.112L251.786 276.444C251.023 276.868 250.143 277.093 249.245 277.093C248.347 277.093 247.467 276.868 246.704 276.444L173.84 238.82C172.131 237.934 172.131 237.049 173.84 236.184L184.14 230.852C184.906 230.424 185.79 230.197 186.693 230.197C187.595 230.197 188.48 230.424 189.245 230.852ZM255.317 199.365C262.309 199.355 269.173 201.045 275.174 204.254L313.608 224.092C319.994 227.392 323.15 230.819 323.075 234.373C323 237.928 319.762 241.348 313.36 244.634L299.867 251.656C293.852 254.85 287.004 256.57 280.01 256.646C273.014 256.653 266.146 254.971 260.13 251.777L221.606 231.979C215.242 228.679 212.071 225.259 212.161 221.718C212.251 218.177 215.467 214.757 221.854 211.457L235.347 204.435C241.384 201.191 248.276 199.441 255.317 199.365ZM260.512 212.563C258.409 211.266 255.915 210.571 253.36 210.571C250.806 210.571 248.312 211.266 246.209 212.563L237.596 217.03C235.01 218.358 233.75 219.585 233.795 220.692C233.84 221.798 235.145 223.006 237.731 224.354L274.702 243.447C276.834 244.645 279.272 245.338 281.786 245.459C284.306 245.366 286.752 244.672 288.87 243.447L297.483 239.001C300.069 237.653 301.374 236.425 301.374 235.299C301.374 234.172 300.092 232.945 297.483 231.617L260.512 212.563ZM311.899 164.88L266.044 188.541C264.335 189.406 264.335 190.291 266.044 191.176L274.275 195.421C275.038 195.854 275.924 196.084 276.827 196.084C277.731 196.084 278.616 195.854 279.38 195.421L293.188 188.279C293.588 188.052 294.052 187.931 294.526 187.931C295 187.931 295.464 188.052 295.864 188.279L356.584 219.646C357.36 220.088 358.261 220.323 359.181 220.323C360.101 220.323 361.002 220.088 361.778 219.646L371.966 214.394C373.652 213.509 373.652 212.644 371.966 211.759L311.246 180.392C310.347 179.929 310.392 179.446 311.359 178.943L325.167 171.821C326.853 170.936 326.853 170.071 325.167 169.185L316.936 164.94C316.186 164.51 315.317 164.277 314.427 164.266C313.537 164.255 312.661 164.468 311.899 164.88Z" fill="#93D309"/>
<path opacity="0.4" d="M189.245 220.775L262.086 258.398C263.795 259.284 263.795 260.149 262.086 261.034L251.786 266.346C251.027 266.779 250.146 267.01 249.245 267.01C248.345 267.01 247.463 266.779 246.704 266.346L173.84 228.722C172.131 227.857 172.131 226.971 173.84 226.106L184.14 220.775C184.902 220.337 185.788 220.104 186.693 220.104C187.598 220.104 188.484 220.337 189.245 220.775ZM255.317 189.287C262.309 189.277 269.173 190.967 275.174 194.176L313.608 214.014C319.994 217.314 323.15 220.734 323.075 224.275C323 227.816 319.732 231.244 313.27 234.557L299.777 241.558C293.768 244.767 286.917 246.495 279.92 246.568C272.92 246.578 266.049 244.889 260.04 241.679L221.606 221.921C215.242 218.622 212.071 215.201 212.161 211.66C212.251 208.119 215.467 204.679 221.854 201.379L235.347 194.377C241.381 191.126 248.274 189.369 255.317 189.287ZM260.512 202.486C258.409 201.188 255.915 200.493 253.36 200.493C250.806 200.493 248.312 201.188 246.209 202.486L237.596 206.932C235.01 208.28 233.75 209.487 233.795 210.594C233.84 211.701 235.145 212.928 237.731 214.256L274.702 233.369C276.834 234.568 279.272 235.26 281.786 235.381C284.306 235.289 286.752 234.594 288.87 233.369L297.528 228.963C300.114 227.635 301.419 226.408 301.419 225.281C301.419 224.155 300.137 222.927 297.528 221.579L260.512 202.486ZM311.899 154.782L266.044 178.443C264.335 179.328 264.335 180.213 266.044 181.078L274.275 185.344C275.04 185.772 275.925 185.999 276.827 185.999C277.73 185.999 278.615 185.772 279.38 185.344L293.188 178.221C293.588 177.994 294.052 177.873 294.526 177.873C295 177.873 295.464 177.994 295.864 178.221L356.584 209.588C357.363 210.021 358.263 210.251 359.181 210.251C360.099 210.251 360.999 210.021 361.778 209.588L371.966 204.337C373.652 203.451 373.652 202.566 371.966 201.701L311.246 170.334C310.347 169.872 310.392 169.389 311.359 168.886L325.167 161.743C326.853 160.878 326.853 159.993 325.167 159.128L316.936 154.862C316.185 154.438 315.318 154.206 314.43 154.192C313.542 154.178 312.666 154.382 311.899 154.782Z" fill="#93D309"/>
<path opacity="0.5" d="M189.245 210.692L262.086 248.316C263.795 249.181 263.795 250.067 262.086 250.952L251.786 256.264C251.027 256.697 250.146 256.927 249.245 256.927C248.345 256.927 247.463 256.697 246.704 256.264L173.84 218.64C172.131 217.754 172.131 216.889 173.84 216.004L184.14 210.692C184.902 210.255 185.788 210.022 186.693 210.022C187.598 210.022 188.484 210.255 189.245 210.692ZM255.317 179.185C262.309 179.175 269.173 180.865 275.174 184.074L313.608 203.932C319.994 207.232 323.15 210.652 323.075 214.193C323 217.734 319.762 221.155 313.36 224.454L299.867 231.476C293.858 234.685 287.007 236.413 280.01 236.486C273.01 236.496 266.139 234.807 260.13 231.597L221.606 211.859C215.242 208.56 212.071 205.139 212.161 201.578C212.251 198.017 215.467 194.617 221.854 191.317L235.347 184.295C241.388 181.056 248.275 179.293 255.317 179.185ZM260.512 192.404C258.414 191.095 255.918 190.393 253.36 190.393C250.803 190.393 248.307 191.095 246.209 192.404L237.596 196.85C235.01 198.178 233.75 199.405 233.795 200.512C233.84 201.618 235.145 202.846 237.731 204.174L274.702 223.267C276.83 224.474 279.27 225.167 281.786 225.279C284.308 225.195 286.756 224.5 288.87 223.267L297.483 218.821C300.069 217.493 301.374 216.266 301.374 215.139C301.374 214.012 300.092 212.785 297.483 211.437L260.512 192.404ZM311.899 144.7L266.044 168.361C264.335 169.246 264.335 170.111 266.044 170.996L274.275 175.241C275.038 175.674 275.924 175.904 276.827 175.904C277.731 175.904 278.616 175.674 279.38 175.241L293.188 168.119C293.588 167.892 294.052 167.771 294.526 167.771C295 167.771 295.464 167.892 295.864 168.119L356.584 199.486C357.363 199.919 358.263 200.148 359.181 200.148C360.099 200.148 360.999 199.919 361.778 199.486L371.966 194.214C373.652 193.349 373.652 192.464 371.966 191.599L311.246 160.232C310.347 159.769 310.392 159.287 311.359 158.784L325.167 151.641C326.853 150.776 326.853 149.891 325.167 149.025L316.936 144.76C316.183 144.339 315.315 144.111 314.427 144.1C313.539 144.089 312.664 144.297 311.899 144.7Z" fill="#93D309"/>
<path opacity="0.6" d="M189.245 200.593L262.086 238.237C263.795 239.102 263.795 239.987 262.086 240.852L251.786 246.184C251.023 246.608 250.143 246.833 249.245 246.833C248.347 246.833 247.467 246.608 246.704 246.184L173.84 208.56C172.131 207.675 172.131 206.81 173.84 205.924L184.14 200.593C184.906 200.164 185.79 199.937 186.693 199.937C187.595 199.937 188.48 200.164 189.245 200.593ZM255.317 169.105C262.309 169.095 269.173 170.785 275.174 173.994L313.608 193.752C319.994 197.051 323.15 200.479 323.075 204.033C323 207.588 319.762 211.008 313.36 214.294L299.867 221.316C293.858 224.524 287.007 226.253 280.01 226.326C273.01 226.336 266.139 224.646 260.13 221.437L221.696 201.578C215.332 198.299 212.161 194.858 212.251 191.317C212.341 187.776 215.557 184.356 221.944 181.056L235.437 174.035C241.463 170.853 248.321 169.153 255.317 169.105ZM260.512 182.324C258.414 181.015 255.918 180.314 253.36 180.314C250.803 180.314 248.307 181.015 246.209 182.324L237.596 186.77C235.01 188.098 233.75 189.326 233.795 190.432C233.84 191.539 235.145 192.746 237.731 194.094L274.702 213.188C276.83 214.394 279.27 215.087 281.786 215.199C284.306 215.107 286.752 214.412 288.87 213.188L297.483 208.741C300.069 207.413 301.374 206.186 301.374 205.039C301.374 203.892 300.092 202.685 297.483 201.357L260.512 182.324ZM311.899 134.62L266.044 158.281C264.335 159.166 264.335 160.031 266.044 160.916L274.275 165.162C275.038 165.595 275.924 165.824 276.827 165.824C277.731 165.824 278.616 165.595 279.38 165.162L293.188 158.019C293.592 157.803 294.055 157.689 294.526 157.689C294.997 157.689 295.46 157.803 295.864 158.019L356.584 189.386C357.36 189.828 358.261 190.063 359.181 190.063C360.101 190.063 361.002 189.828 361.778 189.386L371.966 184.135C373.652 183.249 373.652 182.384 371.966 181.499L311.246 150.132C310.347 149.69 310.392 149.187 311.359 148.684L325.167 141.561C326.853 140.676 326.853 139.811 325.167 138.926L316.936 134.68C316.186 134.25 315.317 134.017 314.427 134.006C313.537 133.996 312.661 134.208 311.899 134.62Z" fill="#93D309"/>
<path opacity="0.7" d="M189.245 190.515L262.086 228.139C263.795 229.024 263.795 229.889 262.086 230.774L251.786 236.106C251.023 236.53 250.143 236.755 249.245 236.755C248.347 236.755 247.467 236.53 246.704 236.106L173.84 198.462C172.131 197.597 172.131 196.712 173.84 195.846L184.14 190.515C184.906 190.086 185.79 189.859 186.693 189.859C187.595 189.859 188.48 190.086 189.245 190.515ZM255.317 159.027C262.309 159.018 269.173 160.707 275.174 163.916L313.608 183.694C319.994 186.994 323.15 190.414 323.075 193.955C323 197.496 319.732 200.943 313.27 204.297L299.777 211.298C293.768 214.507 286.917 216.235 279.92 216.308C272.92 216.319 266.049 214.629 260.04 211.419L221.606 191.581C215.242 188.281 212.071 184.861 212.161 181.32C212.251 177.779 215.467 174.338 221.854 171.059L235.347 164.037C241.39 160.814 248.282 159.085 255.317 159.027ZM260.512 172.226C258.409 170.928 255.915 170.233 253.36 170.233C250.806 170.233 248.312 170.928 246.209 172.226L237.596 176.672C235.01 178.02 233.75 179.228 233.795 180.334C233.84 181.441 235.145 182.668 237.731 184.016L274.702 203.11C276.834 204.308 279.272 205 281.786 205.122C284.306 205.029 286.752 204.334 288.87 203.11L297.483 198.663C300.069 197.315 301.374 196.088 301.374 194.961C301.374 193.834 300.092 192.607 297.483 191.259L260.512 172.226ZM311.899 124.522L266.044 148.203C264.335 149.068 264.335 149.953 266.044 150.818L274.275 155.084C275.042 155.508 275.926 155.732 276.827 155.732C277.729 155.732 278.613 155.508 279.38 155.084L293.188 147.941C293.588 147.714 294.052 147.593 294.526 147.593C295 147.593 295.464 147.714 295.864 147.941L356.584 179.308C357.36 179.75 358.261 179.985 359.181 179.985C360.101 179.985 361.002 179.75 361.778 179.308L371.966 174.057C373.652 173.172 373.652 172.306 371.966 171.421L311.246 140.054C310.347 139.592 310.392 139.109 311.359 138.606L325.167 131.483C326.853 130.598 326.853 129.713 325.167 128.848L316.936 124.582C316.183 124.161 315.315 123.933 314.427 123.922C313.539 123.912 312.664 124.119 311.899 124.522Z" fill="#93D309"/>
<path opacity="0.8" d="M189.245 180.433L262.086 218.057C263.795 218.942 263.795 219.807 262.086 220.692L251.786 225.944C251.027 226.377 250.146 226.607 249.245 226.607C248.345 226.607 247.463 226.377 246.704 225.944L173.84 188.38C172.131 187.515 172.131 186.63 173.84 185.764L184.14 180.433C184.902 179.995 185.788 179.762 186.693 179.762C187.598 179.762 188.484 179.995 189.245 180.433ZM255.317 148.945C262.306 148.937 269.167 150.62 275.174 153.814L313.608 173.632C319.994 176.932 323.15 180.352 323.075 183.893C323 187.434 319.762 190.855 313.36 194.154L299.867 201.176C293.858 204.385 287.007 206.113 280.01 206.186C273.01 206.196 266.139 204.507 260.13 201.297L221.696 181.459C215.332 178.159 212.161 174.739 212.251 171.198C212.341 167.657 215.557 164.216 221.944 160.917L235.437 153.915C241.458 150.72 248.317 149.005 255.317 148.945ZM260.512 162.144C258.414 160.835 255.918 160.134 253.36 160.134C250.803 160.134 248.307 160.835 246.209 162.144L237.596 166.59C235.01 167.918 233.75 169.146 233.795 170.252C233.84 171.359 235.145 172.586 237.731 173.914L274.702 193.008C276.83 194.214 279.27 194.907 281.786 195.02C284.308 194.936 286.756 194.24 288.87 193.008L297.483 188.561C300.069 187.233 301.374 186.006 301.374 184.879C301.374 183.753 300.092 182.525 297.483 181.177L260.512 162.144ZM311.899 114.44L266.044 138.101C264.335 138.986 264.335 139.871 266.044 140.737L274.275 145.002C275.04 145.43 275.925 145.657 276.827 145.657C277.73 145.657 278.615 145.43 279.38 145.002L293.188 137.88C293.588 137.652 294.052 137.532 294.526 137.532C295 137.532 295.464 137.652 295.864 137.88L356.584 169.246C357.363 169.679 358.263 169.909 359.181 169.909C360.099 169.909 360.999 169.679 361.778 169.246L371.966 163.975C373.652 163.11 373.652 162.224 371.966 161.359L311.246 129.993C310.347 129.53 310.392 129.047 311.359 128.544L325.167 121.401C326.853 120.536 326.853 119.651 325.167 118.786L316.936 114.521C316.185 114.096 315.318 113.864 314.43 113.85C313.542 113.836 312.666 114.04 311.899 114.44Z" fill="#93D309"/>
<path opacity="0.9" d="M189.245 170.353L262.086 207.977C263.795 208.842 263.795 209.727 262.086 210.592L251.786 215.884C251.027 216.317 250.146 216.548 249.245 216.548C248.345 216.548 247.463 216.317 246.704 215.884L173.84 178.3C172.131 177.415 172.131 176.55 173.84 175.664L184.14 170.353C184.902 169.915 185.788 169.683 186.693 169.683C187.598 169.683 188.484 169.915 189.245 170.353ZM255.317 138.845C262.309 138.836 269.173 140.525 275.174 143.734L313.608 163.573C319.994 166.852 323.143 170.293 323.075 173.834C323.008 177.375 319.747 180.795 313.36 184.095L299.867 191.116C293.858 194.325 287.007 196.053 280.01 196.126C273.01 196.137 266.139 194.447 260.13 191.237L221.696 171.399C215.332 168.099 212.161 164.679 212.251 161.118C212.341 157.557 215.557 154.156 221.944 150.857L235.437 143.835C241.461 140.643 248.316 138.922 255.317 138.845ZM260.512 152.064C258.414 150.755 255.918 150.054 253.36 150.054C250.803 150.054 248.307 150.755 246.209 152.064L237.596 156.511C235.01 157.838 233.75 159.066 233.795 160.172C233.84 161.279 235.145 162.506 237.731 163.834L274.702 182.928C276.83 184.134 279.27 184.827 281.786 184.94C284.306 184.847 286.752 184.152 288.87 182.928L297.483 178.481C300.069 177.153 301.374 175.926 301.374 174.779C301.374 173.632 300.092 172.425 297.483 171.097L260.512 152.064ZM311.899 104.36L266.044 128.021C264.335 128.906 264.335 129.771 266.044 130.657L274.275 134.902C275.038 135.335 275.924 135.565 276.827 135.565C277.731 135.565 278.616 135.335 279.38 134.902L293.188 127.78C293.588 127.552 294.052 127.432 294.526 127.432C295 127.432 295.464 127.552 295.864 127.78L356.584 159.126C357.36 159.568 358.261 159.803 359.181 159.803C360.101 159.803 361.002 159.568 361.778 159.126L371.966 153.875C373.652 153.01 373.652 152.124 371.966 151.239L311.246 119.872C310.347 119.43 310.392 118.947 311.359 118.444L325.167 111.302C326.853 110.416 326.853 109.551 325.167 108.666L316.936 104.421C316.186 103.991 315.317 103.757 314.427 103.746C313.537 103.736 312.661 103.948 311.899 104.36Z" fill="#93D309"/>
<path opacity="0.9" d="M189.245 160.255L262.086 197.879C263.795 198.764 263.795 199.649 262.086 200.514L251.786 205.826C251.023 206.25 250.143 206.475 249.245 206.475C248.347 206.475 247.467 206.25 246.704 205.826L173.84 168.222C172.131 167.337 172.131 166.472 173.84 165.586L184.14 160.255C184.906 159.826 185.79 159.599 186.693 159.599C187.595 159.599 188.48 159.826 189.245 160.255ZM255.317 128.767C262.309 128.757 269.173 130.447 275.174 133.656L313.608 153.515C319.994 156.814 323.15 160.241 323.075 163.796C323 167.35 319.732 170.764 313.27 174.037L299.777 181.058C293.762 184.252 286.914 185.973 279.92 186.048C272.924 186.056 266.056 184.373 260.04 181.179L221.606 161.321C215.242 158.021 212.071 154.601 212.161 151.06C212.251 147.519 215.467 144.098 221.854 140.799L235.347 133.777C241.39 130.554 248.282 128.825 255.317 128.767ZM260.512 141.966C258.409 140.668 255.915 139.973 253.36 139.973C250.806 139.973 248.312 140.668 246.209 141.966L237.596 146.432C235.01 147.76 233.75 148.988 233.795 150.094C233.84 151.201 235.145 152.408 237.731 153.756L274.702 172.85C276.834 174.048 279.272 174.74 281.786 174.862C284.306 174.769 286.752 174.074 288.87 172.85L297.483 168.403C300.069 167.055 301.374 165.828 301.374 164.701C301.374 163.574 300.092 162.347 297.483 161.019L260.512 141.966ZM311.899 94.2821L266.044 117.943C264.335 118.808 264.335 119.693 266.044 120.579L274.275 124.824C275.038 125.257 275.924 125.487 276.827 125.487C277.731 125.487 278.616 125.257 279.38 124.824L293.188 117.681C293.588 117.454 294.052 117.333 294.526 117.333C295 117.333 295.464 117.454 295.864 117.681L356.584 149.048C357.36 149.49 358.261 149.725 359.181 149.725C360.101 149.725 361.002 149.49 361.778 149.048L371.966 143.797C373.652 142.911 373.652 142.046 371.966 141.161L311.246 109.794C310.347 109.332 310.392 108.849 311.359 108.346L325.167 101.223C326.853 100.338 326.853 99.473 325.167 98.5877L316.936 94.3424C316.186 93.9125 315.317 93.679 314.427 93.6684C313.537 93.6577 312.661 93.8703 311.899 94.2821Z" fill="#93D309"/>
<path d="M189.245 150.173L262.086 187.716C263.795 188.602 263.795 189.467 262.086 190.352L251.786 195.764C251.027 196.198 250.146 196.428 249.245 196.428C248.345 196.428 247.463 196.198 246.704 195.764L173.84 158.12C172.131 157.255 172.131 156.37 173.84 155.505L184.14 150.173C184.902 149.735 185.788 149.503 186.693 149.503C187.598 149.503 188.484 149.735 189.245 150.173ZM255.317 118.686C262.309 118.676 269.173 120.366 275.174 123.575L313.608 143.453C319.994 146.753 323.15 150.173 323.075 153.714C323 157.255 319.732 160.669 313.27 163.955L299.777 170.957C293.768 174.165 286.917 175.894 279.92 175.966C272.92 175.977 266.049 174.287 260.04 171.077L221.606 151.239C215.242 147.94 212.071 144.519 212.161 140.978C212.251 137.437 215.467 133.997 221.854 130.697L235.347 123.695C241.39 120.472 248.282 118.744 255.317 118.686ZM260.512 131.884C258.409 130.586 255.915 129.891 253.36 129.891C250.806 129.891 248.312 130.586 246.209 131.884L237.596 136.331C235.01 137.679 233.75 138.886 233.795 139.992C233.84 141.099 235.145 142.326 237.731 143.654L274.702 162.768C276.834 163.966 279.272 164.658 281.786 164.78C284.306 164.687 286.752 163.992 288.87 162.768L297.483 158.301C300.069 156.973 301.374 155.746 301.374 154.619C301.374 153.493 300.092 152.265 297.483 150.917L260.512 131.884ZM311.899 84.1802L266.044 107.841C264.335 108.726 264.335 109.612 266.044 110.477L274.275 114.742C275.042 115.166 275.926 115.39 276.827 115.39C277.729 115.39 278.613 115.166 279.38 114.742L293.188 107.6C293.588 107.372 294.052 107.252 294.526 107.252C295 107.252 295.464 107.372 295.864 107.6L356.584 138.966C357.363 139.399 358.263 139.629 359.181 139.629C360.099 139.629 360.999 139.399 361.778 138.966L371.966 133.715C373.652 132.83 373.652 131.944 371.966 131.079L311.246 99.7126C310.347 99.2499 310.392 98.767 311.359 98.264L325.167 91.1215C326.853 90.2564 326.853 89.3711 325.167 88.506L316.936 84.2406C316.183 83.8194 315.315 83.5911 314.427 83.5805C313.539 83.5698 312.664 83.7773 311.899 84.1802Z" fill="#AFFF05"/>
<path d="M360.272 54.9463L355.707 57.3004V55.3286L360.272 52.9746V54.9463Z" fill="#7DB704"/>
<path d="M369.895 48.0059L363.238 51.4463V53.4181L369.895 49.9776V48.0059Z" fill="#7DB704"/>
<path d="M391.237 36.9805L372.863 46.4569V48.4487L391.237 38.9522V36.9805Z" fill="#7DB704"/>
<path d="M401.486 31.6895L394.199 35.4518V37.4236L401.486 33.6612V31.6895Z" fill="#7DB704"/>
<path d="M365.962 55.3906L355.707 60.6821V62.674L365.962 57.3825V55.3906Z" fill="#7DB704"/>
<path d="M375.581 50.4199L368.902 53.8604V55.8321L375.581 52.3916V50.4199Z" fill="#7DB704"/>
<path d="M386.714 44.666L378.551 48.8912V50.8629L386.714 46.6579V44.666Z" fill="#7DB704"/>
<path d="M394.717 40.541L389.68 43.1365V45.1082L394.717 42.5128V40.541Z" fill="#7DB704"/>
<path d="M360.272 63.6992L355.707 66.0532V68.025L360.272 65.6709V63.6992Z" fill="#7DB704"/>
<path d="M369.895 58.709L363.238 62.1696V64.1413L369.895 60.6807V58.709Z" fill="#7DB704"/>
<path d="M379.79 53.5996L372.863 57.1809V59.1527L379.79 55.5915V53.5996Z" fill="#7DB704"/>
<path d="M365.962 66.1152L355.707 71.4067V73.3785L365.962 68.087V66.1152Z" fill="#7DB704"/>
<path d="M375.581 61.1426L368.902 64.5831V66.5548L375.581 63.1143V61.1426Z" fill="#7DB704"/>
<path d="M386.714 55.3906L378.551 59.6158V61.5875L386.714 57.3623V55.3906Z" fill="#7DB704"/>
<path d="M360.272 74.4219L355.707 76.7759V78.7476L360.272 76.3936V74.4219Z" fill="#7DB704"/>
<path d="M369.895 69.4336L363.238 72.8741V74.8659L369.895 71.4053V69.4336Z" fill="#7DB704"/>
<path d="M360.272 90.5176L355.707 92.8716V94.8433L360.272 92.4893V90.5176Z" fill="#7DB704"/>
<path d="M369.895 85.5488L363.238 88.9893V90.961L369.895 87.5206V85.5488Z" fill="#7DB704"/>
<path d="M391.237 74.5234L372.863 83.9998V85.9716L391.237 76.4952V74.5234Z" fill="#7DB704"/>
<path d="M365.962 92.9316L355.707 98.2231V100.195L365.962 94.9235V92.9316Z" fill="#7DB704"/>
<path d="M375.581 87.9629L368.902 91.4034V93.3751L375.581 89.9346V87.9629Z" fill="#7DB704"/>
<path d="M360.272 22.998L355.707 25.3521V27.3238L360.272 24.9698V22.998Z" fill="#7DB704"/>
<path d="M404.776 0L400.211 2.35402V4.32574L404.776 1.97174V0Z" fill="#7DB704"/>
<path d="M367.331 19.3359L363.238 21.4485V23.4202L367.331 21.3077V19.3359Z" fill="#7DB704"/>
<path d="M380.466 12.5547L370.301 17.8059V19.7777L380.466 14.5264V12.5547Z" fill="#7DB704"/>
<path d="M363.376 26.7383L355.707 30.7019V32.6736L363.376 28.71V26.7383Z" fill="#7DB704"/>
<path d="M372.502 22.0117L366.34 25.2108V27.1825L372.502 24.0036V22.0117Z" fill="#7DB704"/>
<path d="M377.474 19.4551L375.473 20.4812V22.4529L377.474 21.4268V19.4551Z" fill="#7DB704"/>
<path d="M404.729 5.37305L402.75 6.39914V8.37088L404.729 7.34477V5.37305Z" fill="#7DB704"/>
<path d="M543.953 266.166L539.41 268.52V270.512L543.953 268.138V266.166Z" fill="#7DB704"/>
<path d="M588.465 243.186L583.922 245.54V247.511L588.465 245.157V243.186Z" fill="#7DB704"/>
<path d="M551.037 262.523L546.922 264.636V266.608L551.037 264.495V262.523Z" fill="#7DB704"/>
<path d="M564.173 255.742L554.008 260.993V262.965L564.173 257.714V255.742Z" fill="#7DB704"/>
<path d="M547.079 269.926L539.41 273.889V275.861L547.079 271.898V269.926Z" fill="#7DB704"/>
<path d="M556.213 265.195L550.051 268.394V270.366L556.213 267.187V265.195Z" fill="#7DB704"/>
<path d="M561.185 262.643L559.184 263.669V265.64L561.185 264.614V262.643Z" fill="#7DB704"/>
<path d="M588.439 248.559L586.438 249.585V251.577L588.439 250.53V248.559Z" fill="#7DB704"/>
<path d="M74.0974 378.633L69.5547 380.987V382.979L74.0974 380.625V378.633Z" fill="#7DB704"/>
<path d="M118.608 355.656L114.043 358.01V359.982L118.608 357.628V355.656Z" fill="#7DB704"/>
<path d="M81.1857 374.992L77.0703 377.105V379.076L81.1857 376.964V374.992Z" fill="#7DB704"/>
<path d="M94.3172 368.211L84.1523 373.462V375.434L94.3172 370.183V368.211Z" fill="#7DB704"/>
<path d="M77.2233 382.395L69.5547 386.358V388.33L77.2233 384.366V382.395Z" fill="#7DB704"/>
<path d="M86.3572 377.688L80.1953 380.866V382.838L86.3572 379.659V377.688Z" fill="#7DB704"/>
<path d="M91.3296 375.113L89.3281 376.139V378.111L91.3296 377.085V375.113Z" fill="#7DB704"/>
<path d="M118.584 361.027L116.582 362.053V364.025L118.584 362.999V361.027Z" fill="#7DB704"/>
<path d="M442.124 127.579L437.559 129.933V127.961L442.124 125.607V127.579Z" fill="#7DB704"/>
<path d="M451.754 120.615L445.098 124.056V126.027L451.754 122.587V120.615Z" fill="#7DB704"/>
<path d="M473.092 109.592L454.719 119.088V121.06L473.092 111.564V109.592Z" fill="#7DB704"/>
<path d="M483.349 104.301L476.062 108.063V110.035L483.349 106.293V104.301Z" fill="#7DB704"/>
<path d="M447.813 128.021L437.559 133.313V135.285L447.813 129.993V128.021Z" fill="#7DB704"/>
<path d="M457.441 123.051L450.762 126.491V128.463L457.441 125.023V123.051Z" fill="#7DB704"/>
<path d="M468.577 117.297L460.414 121.502V123.474L468.577 119.269V117.297Z" fill="#7DB704"/>
<path d="M476.58 113.154L471.543 115.77V117.742L476.58 115.126V113.154Z" fill="#7DB704"/>
<path d="M442.124 136.311L437.559 138.665V140.656L442.124 138.302V136.311Z" fill="#7DB704"/>
<path d="M451.754 131.34L445.098 134.78V136.752L451.754 133.312V131.34Z" fill="#7DB704"/>
<path d="M461.645 126.23L454.719 129.812V131.784L461.645 128.202V126.23Z" fill="#7DB704"/>
<path d="M447.813 138.744L437.559 144.036V146.007L447.813 140.716V138.744Z" fill="#7DB704"/>
<path d="M457.441 133.756L450.762 137.216V139.188L457.441 135.728V133.756Z" fill="#7DB704"/>
<path d="M468.577 128.021L460.414 132.226V134.198L468.577 129.993V128.021Z" fill="#7DB704"/>
<path d="M442.124 147.035L437.559 149.389V151.361L442.124 149.007V147.035Z" fill="#7DB704"/>
<path d="M451.754 142.066L445.098 145.507V147.479L451.754 144.038V142.066Z" fill="#7DB704"/>
<path d="M442.124 163.131L437.559 165.505V167.477L442.124 165.123V163.131Z" fill="#7DB704"/>
<path d="M451.754 158.16L445.098 161.601V163.572L451.754 160.132V158.16Z" fill="#7DB704"/>
<path d="M473.092 147.137L454.719 156.633V158.605L473.092 149.108V147.137Z" fill="#7DB704"/>
<path d="M447.813 165.564L437.559 170.856V172.828L447.813 167.536V165.564Z" fill="#7DB704"/>
<path d="M457.441 160.576L450.762 164.037V166.009L457.441 162.568V160.576Z" fill="#7DB704"/>
<path d="M442.124 95.6074L437.559 97.9614V99.9332L442.124 97.5791V95.6074Z" fill="#7DB704"/>
<path d="M486.632 72.6328L482.066 74.9868V76.9585L486.632 74.6045V72.6328Z" fill="#7DB704"/>
<path d="M449.191 91.9668L445.098 94.0794V96.0511L449.191 93.9385V91.9668Z" fill="#7DB704"/>
<path d="M462.321 85.168L452.156 90.4192V92.391L462.321 87.1598V85.168Z" fill="#7DB704"/>
<path d="M445.25 99.3516L437.559 103.335V105.307L445.25 101.323V99.3516Z" fill="#7DB704"/>
<path d="M454.361 94.6426L448.199 97.8215V99.7932L454.361 96.6143V94.6426Z" fill="#7DB704"/>
<path d="M459.33 92.0879L457.328 93.114V95.0857L459.33 94.0596V92.0879Z" fill="#7DB704"/>
<path d="M486.588 78.0039L484.609 79.03V81.0017L486.588 79.9756V78.0039Z" fill="#7DB704"/>
<path d="M121.638 70.8613L106.953 78.4465V80.4383L121.638 72.8532V70.8613Z" fill="#7DB704"/>
<path d="M134.1 64.4434L124.609 69.3325V71.3042L134.1 66.4151V64.4434Z" fill="#7DB704"/>
<path d="M137.07 62.9147V64.8864L146.381 60.0577V58.0859L137.07 62.9147Z" fill="#7DB704"/>
<path d="M115.297 79.5117L107.156 83.7167V85.6885L115.297 81.4834V79.5117Z" fill="#7DB704"/>
<path d="M127.329 73.2969L118.266 77.9647V79.9364L127.329 75.2686V73.2969Z" fill="#7DB704"/>
<path d="M130.301 71.7482V73.74L138.352 69.5752V67.6035L130.301 71.7482Z" fill="#7DB704"/>
<path d="M146.403 63.4375L141.32 66.0732V68.0449L146.403 65.4293V63.4375Z" fill="#7DB704"/>
<path d="M109.202 88.0254L106.953 89.1722V91.144L109.202 89.9971V88.0254Z" fill="#7DB704"/>
<path d="M134.102 75.166L112.176 86.4934V88.4652L134.102 77.1378V75.166Z" fill="#7DB704"/>
<path d="M137.07 73.6393V75.611L146.381 70.7823V68.8105L137.07 73.6393Z" fill="#7DB704"/>
<path d="M115.297 90.2168L107.156 94.4419V96.4137L115.297 92.1885V90.2168Z" fill="#7DB704"/>
<path d="M127.329 83.998L118.266 88.6859V90.6577L127.329 85.9899V83.998Z" fill="#7DB704"/>
<path d="M130.301 82.4708V84.4426L138.352 80.2979V78.3262L130.301 82.4708Z" fill="#7DB704"/>
<path d="M122.808 91.707L106.953 99.8958V101.867L122.808 93.6788V91.707Z" fill="#7DB704"/>
<path d="M111.503 130.638L106.938 132.992V131.02L111.503 128.666V130.638Z" fill="#7DB704"/>
<path d="M121.125 123.697L114.469 127.138V129.109L121.125 125.669V123.697Z" fill="#7DB704"/>
<path d="M142.467 112.672L124.094 122.168V124.14L142.467 114.644V112.672Z" fill="#7DB704"/>
<path d="M152.724 107.381L145.438 111.143V113.115L152.724 109.353V107.381Z" fill="#7DB704"/>
<path d="M155.691 105.85V107.822L167.498 101.726V99.7539L155.691 105.85Z" fill="#7DB704"/>
<path d="M117.192 131.102L106.938 136.393V138.365L117.192 133.073V131.102Z" fill="#7DB704"/>
<path d="M126.816 126.111L120.137 129.572V131.544L126.816 128.083V126.111Z" fill="#7DB704"/>
<path d="M137.945 120.377L129.781 124.582V126.554L137.945 122.349V120.377Z" fill="#7DB704"/>
<path d="M145.951 116.232L140.891 118.848V120.82L145.951 118.204V116.232Z" fill="#7DB704"/>
<path d="M148.922 114.701V116.673L163.517 109.128V107.156L148.922 114.701Z" fill="#7DB704"/>
<path d="M111.503 139.391L106.938 141.745V143.716L111.503 141.362V139.391Z" fill="#7DB704"/>
<path d="M121.125 134.42L114.469 137.86V139.832L121.125 136.392V134.42Z" fill="#7DB704"/>
<path d="M131.02 129.309L124.094 132.87V134.862L131.02 131.28V129.309Z" fill="#7DB704"/>
<path d="M152.721 118.104L133.988 127.781V129.753L152.721 120.075V118.104Z" fill="#7DB704"/>
<path d="M155.691 116.573V118.545L167.498 112.449V110.457L155.691 116.573Z" fill="#7DB704"/>
<path d="M117.192 141.826L106.938 147.098V149.089L117.192 143.798V141.826Z" fill="#7DB704"/>
<path d="M126.816 136.834L120.137 140.274V142.266L126.816 138.806V136.834Z" fill="#7DB704"/>
<path d="M137.945 131.08L129.781 135.305V137.277L137.945 133.072V131.08Z" fill="#7DB704"/>
<path d="M145.951 126.955L140.891 129.551V131.522L145.951 128.927V126.955Z" fill="#7DB704"/>
<path d="M148.922 125.406V127.398L163.517 119.853V117.881L148.922 125.406Z" fill="#7DB704"/>
<path d="M111.503 150.113L106.938 152.467V154.439L111.503 152.085V150.113Z" fill="#7DB704"/>
<path d="M121.125 145.125L114.469 148.586V150.557L121.125 147.097V145.125Z" fill="#7DB704"/>
<path d="M143.861 133.395L124.094 143.595V145.567L143.861 135.366V133.395Z" fill="#7DB704"/>
<path d="M111.503 166.209L106.938 168.563V170.535L111.503 168.181V166.209Z" fill="#7DB704"/>
<path d="M121.125 161.238L114.469 164.679V166.65L121.125 163.21V161.238Z" fill="#7DB704"/>
<path d="M142.467 150.215L124.094 159.711V161.683L142.467 152.187V150.215Z" fill="#7DB704"/>
<path d="M152.724 144.924L145.438 148.686V150.658L152.724 146.896V144.924Z" fill="#7DB704"/>
<path d="M117.192 168.643L106.938 173.934V175.906L117.192 170.614V168.643Z" fill="#7DB704"/>
<path d="M126.816 163.654L120.137 167.095V169.087L126.816 165.626V163.654Z" fill="#7DB704"/>
<path d="M137.945 157.92L129.781 162.125V164.097L137.945 159.892V157.92Z" fill="#7DB704"/>
<path d="M145.951 153.775L140.891 156.391V158.363L145.951 155.747V153.775Z" fill="#7DB704"/>
<path d="M116.985 109.432L106.91 114.643V116.614L116.985 111.403V109.432Z" fill="#7DB704"/>
<path d="M110.648 118.062L107.117 119.893V121.885L110.648 120.054V118.062Z" fill="#7DB704"/>
<path d="M288.777 13.3201L303.462 5.71484V7.70669L288.777 15.2918V13.3201Z" fill="#7DB704"/>
<path d="M276.316 19.7368L285.807 14.8477V16.8194L276.316 21.7085V19.7368Z" fill="#7DB704"/>
<path d="M273.349 21.2676V23.2393L264.039 28.0681V26.0963L273.349 21.2676Z" fill="#7DB704"/>
<path d="M295.117 15.3925L303.258 11.1875V13.1592L295.117 17.3643V15.3925Z" fill="#7DB704"/>
<path d="M283.09 21.6098L292.153 16.9219V18.9137L283.09 23.5815V21.6098Z" fill="#7DB704"/>
<path d="M280.121 23.1387V25.1104L272.07 29.2752V27.3035L280.121 23.1387Z" fill="#7DB704"/>
<path d="M264.016 31.4456L269.098 28.8301V30.8018L264.016 33.4174V31.4456Z" fill="#7DB704"/>
<path d="M301.211 17.6044L303.46 16.4375V18.4092L301.211 19.5762V17.6044Z" fill="#7DB704"/>
<path d="M276.316 30.4622L298.243 19.1348V21.1065L276.316 32.4339V30.4622Z" fill="#7DB704"/>
<path d="M273.349 31.9902V33.962L264.039 38.7907V36.819L273.349 31.9902Z" fill="#7DB704"/>
<path d="M295.117 26.1152L303.258 21.9102V23.8819L295.117 28.0869V26.1152Z" fill="#7DB704"/>
<path d="M283.09 32.3324L292.153 27.6445V29.6163L283.09 34.3042V32.3324Z" fill="#7DB704"/>
<path d="M280.121 33.8633V35.835L272.07 39.9998V38.0079L280.121 33.8633Z" fill="#7DB704"/>
<path d="M287.609 35.3508L303.464 27.1621V29.1338L287.609 37.3226V35.3508Z" fill="#7DB704"/>
<path d="M293.434 47.0587L303.509 41.8477V43.8194L293.434 49.0304V47.0587Z" fill="#7DB704"/>
<path d="M299.777 49.1532L303.308 47.3223V49.294L299.777 51.1249V49.1532Z" fill="#7DB704"/>
<path d="M267.191 404.527L281.877 396.922V398.894L267.191 406.499V404.527Z" fill="#7DB704"/>
<path d="M254.73 410.946L264.221 406.057V408.028L254.73 412.917V410.946Z" fill="#7DB704"/>
<path d="M251.762 412.475V414.446L242.43 419.275V417.303L251.762 412.475Z" fill="#7DB704"/>
<path d="M273.508 406.602L281.671 402.396V404.368L273.508 408.573V406.602Z" fill="#7DB704"/>
<path d="M261.473 412.814L270.536 408.146V410.118L261.473 414.786V412.814Z" fill="#7DB704"/>
<path d="M258.531 414.346V416.317L250.48 420.482V418.51L258.531 414.346Z" fill="#7DB704"/>
<path d="M242.43 422.655L247.512 420.039V422.011L242.43 424.626V422.655Z" fill="#7DB704"/>
<path d="M279.621 408.813L281.87 407.646V409.618L279.621 410.785V408.813Z" fill="#7DB704"/>
<path d="M254.73 421.667L276.657 410.34V412.312L254.73 423.639V421.667Z" fill="#7DB704"/>
<path d="M251.762 423.199V425.171L242.43 430V428.028L251.762 423.199Z" fill="#7DB704"/>
<path d="M554.146 137.176L539.461 144.761V146.733L554.146 139.148V137.176Z" fill="#7DB704"/>
<path d="M566.604 130.736L557.113 135.646V137.617L566.604 132.708V130.736Z" fill="#7DB704"/>
<path d="M569.551 129.209V131.181L578.884 126.372V124.4L569.551 129.209Z" fill="#7DB704"/>
<path d="M547.805 145.807L539.664 150.012V151.983L547.805 147.778V145.807Z" fill="#7DB704"/>
<path d="M559.836 139.592L550.773 144.28V146.251L559.836 141.564V139.592Z" fill="#7DB704"/>
<path d="M562.801 138.063V140.035L570.852 135.89V133.898L562.801 138.063Z" fill="#7DB704"/>
<path d="M578.903 129.752L573.82 132.368V134.339L578.903 131.724V129.752Z" fill="#7DB704"/>
<path d="M541.71 154.32L539.461 155.487V157.459L541.71 156.292V154.32Z" fill="#7DB704"/>
<path d="M566.602 141.461L544.676 152.788V154.76L566.602 143.433V141.461Z" fill="#7DB704"/>
<path d="M569.551 139.93V141.902L578.884 137.093V135.102L569.551 139.93Z" fill="#7DB704"/>
<path d="M547.805 156.529L539.664 160.734V162.706L547.805 158.501V156.529Z" fill="#7DB704"/>
<path d="M559.836 150.314L550.773 155.002V156.974L559.836 152.286V150.314Z" fill="#7DB704"/>
<path d="M562.801 148.786V150.758L570.852 146.593V144.621L562.801 148.786Z" fill="#7DB704"/>
<path d="M555.316 158.02L539.461 166.208V168.18L555.316 159.991V158.02Z" fill="#7DB704"/>
<path d="M543.999 196.952L539.434 199.306V197.334L543.999 194.98V196.952Z" fill="#7DB704"/>
<path d="M553.625 189.992L546.969 193.453V195.425L553.625 191.964V189.992Z" fill="#7DB704"/>
<path d="M574.971 178.967L556.598 188.463V190.435L574.971 180.959V178.967Z" fill="#7DB704"/>
<path d="M585.224 173.693L577.938 177.436V179.407L585.224 175.665V173.693Z" fill="#7DB704"/>
<path d="M588.191 172.143V174.115L599.998 168.019V166.047L588.191 172.143Z" fill="#7DB704"/>
<path d="M549.688 197.395L539.434 202.686V204.658L549.688 199.366V197.395Z" fill="#7DB704"/>
<path d="M559.316 192.426L552.637 195.866V197.838L559.316 194.398V192.426Z" fill="#7DB704"/>
<path d="M570.448 186.67L562.285 190.895V192.867L570.448 188.642V186.67Z" fill="#7DB704"/>
<path d="M578.455 182.525L573.418 185.141V187.113L578.455 184.497V182.525Z" fill="#7DB704"/>
<path d="M581.418 180.995V182.967L596.013 175.442V173.471L581.418 180.995Z" fill="#7DB704"/>
<path d="M543.999 205.705L539.434 208.059V210.031L543.999 207.677V205.705Z" fill="#7DB704"/>
<path d="M553.625 200.715L546.969 204.155V206.147L553.625 202.687V200.715Z" fill="#7DB704"/>
<path d="M563.524 195.604L556.598 199.185V201.157L563.524 197.575V195.604Z" fill="#7DB704"/>
<path d="M585.221 184.396L566.488 194.074V196.046L585.221 186.368V184.396Z" fill="#7DB704"/>
<path d="M588.191 182.866V184.838L599.998 178.741V176.77L588.191 182.866Z" fill="#7DB704"/>
<path d="M549.688 208.117L539.434 213.409V215.38L549.688 210.089V208.117Z" fill="#7DB704"/>
<path d="M559.316 203.129L552.637 206.59V208.561L559.316 205.121V203.129Z" fill="#7DB704"/>
<path d="M570.448 197.395L562.285 201.6V203.571L570.448 199.366V197.395Z" fill="#7DB704"/>
<path d="M578.455 193.25L573.418 195.866V197.837L578.455 195.222V193.25Z" fill="#7DB704"/>
<path d="M581.418 191.722V193.694L596.013 186.169V184.197L581.418 191.722Z" fill="#7DB704"/>
<path d="M543.999 216.408L539.434 218.762V220.734L543.999 218.38V216.408Z" fill="#7DB704"/>
<path d="M553.625 211.439L546.969 214.88V216.852L553.625 213.411V211.439Z" fill="#7DB704"/>
<path d="M576.365 199.688L556.598 209.908V211.88L576.365 201.659V199.688Z" fill="#7DB704"/>
<path d="M543.999 232.523L539.434 234.877V236.849L543.999 234.495V232.523Z" fill="#7DB704"/>
<path d="M553.625 227.533L546.969 230.974V232.966L553.625 229.505V227.533Z" fill="#7DB704"/>
<path d="M574.971 216.51L556.598 226.006V227.978L574.971 218.481V216.51Z" fill="#7DB704"/>
<path d="M585.224 211.217L577.938 214.979V216.951L585.224 213.189V211.217Z" fill="#7DB704"/>
<path d="M549.688 234.938L539.434 240.229V242.201L549.688 236.909V234.938Z" fill="#7DB704"/>
<path d="M559.316 229.969L552.637 233.409V235.381L559.316 231.94V229.969Z" fill="#7DB704"/>
<path d="M570.448 224.215L562.285 228.44V230.412L570.448 226.187V224.215Z" fill="#7DB704"/>
<path d="M578.455 220.07L573.418 222.686V224.658L578.455 222.042V220.07Z" fill="#7DB704"/>
<path d="M549.485 175.746L539.41 180.937V182.929L549.485 177.718V175.746Z" fill="#7DB704"/>
<path d="M543.147 184.377L539.594 186.208V188.18L543.147 186.349V184.377Z" fill="#7DB704"/>
<path d="M53.6523 155.748L58.2175 153.394V151.422L53.6523 153.776V155.748Z" fill="#7DB704"/>
<path d="M44.0312 158.765L50.7104 155.305V157.297L44.0312 160.737V158.765Z" fill="#7DB704"/>
<path d="M22.6914 169.789L41.0647 160.293V162.265L22.6914 171.761V169.789Z" fill="#7DB704"/>
<path d="M12.4336 175.081L19.7199 171.318V173.29L12.4336 177.052V175.081Z" fill="#7DB704"/>
<path d="M47.9883 162.086L58.2206 156.795V158.767L47.9883 164.058V162.086Z" fill="#7DB704"/>
<path d="M38.3438 167.054L45.0229 163.613V165.585L38.3438 169.025V167.054Z" fill="#7DB704"/>
<path d="M27.2305 172.809L35.3714 168.584V170.556L27.2305 174.781V172.809Z" fill="#7DB704"/>
<path d="M19.207 176.953L24.267 174.338V176.31L19.207 178.925V176.953Z" fill="#7DB704"/>
<path d="M53.6523 164.499L58.2175 162.145V164.116L53.6523 166.47V164.499Z" fill="#7DB704"/>
<path d="M44.0312 169.488L50.7104 166.027V167.999L44.0312 171.46V169.488Z" fill="#7DB704"/>
<path d="M34.1328 174.577L41.0593 171.016V172.987L34.1328 176.549V174.577Z" fill="#7DB704"/>
<path d="M47.9883 172.79L58.2206 167.498V169.49L47.9883 174.761V172.79Z" fill="#7DB704"/>
<path d="M38.3438 177.779L45.0229 174.318V176.31L38.3438 179.751V177.779Z" fill="#7DB704"/>
<path d="M53.6523 175.223L58.2175 172.869V174.841L53.6523 177.195V175.223Z" fill="#7DB704"/>
<path d="M44.0312 180.192L50.7104 176.752V178.724L44.0312 182.164V180.192Z" fill="#7DB704"/>
<path d="M53.6523 191.319L58.2175 188.965V190.937L53.6523 193.291V191.319Z" fill="#7DB704"/>
<path d="M44.0312 196.308L50.7104 192.848V194.819L44.0312 198.28V196.308Z" fill="#7DB704"/>
<path d="M22.6914 207.312L41.0647 197.836V199.808L22.6914 209.304V207.312Z" fill="#7DB704"/>
<path d="M47.9883 199.608L58.2206 194.316V196.308L47.9883 201.6V199.608Z" fill="#7DB704"/>
<path d="M38.3438 204.597L45.0229 201.156V203.128L38.3438 206.568V204.597Z" fill="#7DB704"/>
<path d="M41.2227 316.08L45.7879 313.726V311.754L41.2227 314.108V316.08Z" fill="#7DB704"/>
<path d="M31.5703 319.081L38.2495 315.641V317.612L31.5703 321.073V319.081Z" fill="#7DB704"/>
<path d="M10.2344 330.105L28.6076 320.629V322.601L10.2344 332.077V330.105Z" fill="#7DB704"/>
<path d="M0 335.397L7.28635 331.635V333.627L0 337.369V335.397Z" fill="#7DB704"/>
<path d="M35.5312 322.397L45.7861 317.105V319.077L35.5312 324.389V322.397Z" fill="#7DB704"/>
<path d="M25.8828 327.388L32.562 323.947V325.919L25.8828 329.359V327.388Z" fill="#7DB704"/>
<path d="M14.7734 333.123L22.9368 328.918V330.89L14.7734 335.095V333.123Z" fill="#7DB704"/>
<path d="M6.74219 337.266L11.8021 334.65V336.642L6.74219 339.238V337.266Z" fill="#7DB704"/>
<path d="M41.2227 324.833L45.7879 322.479V324.45L41.2227 326.804V324.833Z" fill="#7DB704"/>
<path d="M31.5703 329.804L38.2495 326.363V328.335L31.5703 331.775V329.804Z" fill="#7DB704"/>
<path d="M21.7031 334.911L28.6072 331.33V333.322L21.7031 336.883V334.911Z" fill="#7DB704"/>
<path d="M35.5312 333.124L45.7861 327.832V329.804L35.5312 335.095V333.124Z" fill="#7DB704"/>
<path d="M25.8828 338.111L32.562 334.65V336.622L25.8828 340.083V338.111Z" fill="#7DB704"/>
<path d="M14.7734 343.848L22.9368 339.643V341.614L14.7734 345.819V343.848Z" fill="#7DB704"/>
<path d="M6.74219 347.991L11.8021 345.375V347.347L6.74219 349.962V347.991Z" fill="#7DB704"/>
<path d="M41.2227 335.555L45.7879 333.201V335.173L41.2227 337.527V335.555Z" fill="#7DB704"/>
<path d="M31.5703 340.526L38.2495 337.086V339.058L31.5703 342.498V340.526Z" fill="#7DB704"/>
<path d="M8.83594 352.275L28.6035 342.055V344.026L8.83594 354.247V352.275Z" fill="#7DB704"/>
<path d="M41.2227 351.653L45.7879 349.299V351.271L41.2227 353.625V351.653Z" fill="#7DB704"/>
<path d="M31.5703 356.644L38.2495 353.184V355.155L31.5703 358.616V356.644Z" fill="#7DB704"/>
<path d="M35.5312 359.94L45.7861 354.648V356.64L35.5312 361.932V359.94Z" fill="#7DB704"/>
<path d="M189.241 150.175L262.082 187.718C263.791 188.604 263.791 189.469 262.082 190.354L251.782 195.766C251.023 196.2 250.142 196.43 249.241 196.43C248.341 196.43 247.459 196.2 246.7 195.766L173.837 158.122C172.127 157.257 172.127 156.372 173.837 155.507L184.136 150.175C184.898 149.737 185.784 149.505 186.689 149.505C187.594 149.505 188.48 149.737 189.241 150.175ZM255.313 118.688C262.305 118.678 269.169 120.368 275.171 123.577L313.604 143.455C319.991 146.755 323.146 150.175 323.072 153.716C322.997 157.257 319.728 160.671 313.266 163.957L299.773 170.959C293.764 174.167 286.913 175.896 279.916 175.968C272.917 175.979 266.045 174.289 260.036 171.079L221.603 151.241C215.238 147.942 212.067 144.521 212.157 140.98C212.247 137.439 215.463 133.999 221.85 130.699L235.343 123.697C241.386 120.474 248.278 118.745 255.313 118.688ZM260.508 131.886C258.405 130.588 255.911 129.893 253.357 129.893C250.802 129.893 248.308 130.588 246.205 131.886L237.592 136.333C235.006 137.681 233.746 138.888 233.791 139.994C233.836 141.101 235.141 142.328 237.727 143.656L274.698 162.77C276.83 163.968 279.268 164.66 281.782 164.782C284.302 164.689 286.748 163.994 288.866 162.77L297.479 158.303C300.066 156.975 301.37 155.748 301.37 154.621C301.37 153.495 300.088 152.267 297.479 150.919L260.508 131.886ZM311.895 84.1822L266.04 107.843C264.331 108.728 264.331 109.614 266.04 110.479L274.271 114.744C275.038 115.168 275.922 115.392 276.824 115.392C277.725 115.392 278.609 115.168 279.376 114.744L293.184 107.602C293.584 107.374 294.048 107.254 294.522 107.254C294.996 107.254 295.46 107.374 295.86 107.602L356.58 138.968C357.36 139.401 358.259 139.631 359.177 139.631C360.095 139.631 360.995 139.401 361.775 138.968L371.962 133.717C373.649 132.832 373.649 131.946 371.962 131.081L311.242 99.7146C310.343 99.2518 310.388 98.769 311.355 98.266L325.163 91.1235C326.85 90.2583 326.85 89.3731 325.163 88.5079L316.932 84.2425C316.179 83.8214 315.311 83.5931 314.423 83.5824C313.535 83.5718 312.66 83.7792 311.895 84.1822Z" fill="#71A20A"/>
</svg>
