<svg width="90" height="91" viewBox="0 0 90 91" fill="none" xmlns="http://www.w3.org/2000/svg">
<path style="mix-blend-mode:multiply" d="M5.75391 60.0516L14.5196 65.3564L14.5842 68.3507L26.2201 75.5149L42.9499 82.5425L74.9226 74.4758L72.1171 73.0949L83.4556 55.1706L48.6385 32.9941L5.75391 60.0516Z" fill="url(#paint0_linear_4711_16717)"/>
<path d="M25.1992 16.9297L59.0466 37.7662L78.5044 40.7058L44.6311 20.2794L25.1992 16.9297Z" fill="url(#paint1_linear_4711_16717)"/>
<path d="M59.0352 37.7656V72.8897L62.5388 70.7979V70.0322L74.9763 62.239L75.7391 62.5398L78.5058 60.8034V40.7052L59.0352 37.7656Z" fill="url(#paint2_linear_4711_16717)"/>
<path d="M59.0466 37.7662V72.8903L25.1992 52.0538V16.9297L59.0466 37.7662Z" fill="url(#paint3_linear_4711_16717)"/>
<path d="M61.7383 52.7776L76.5546 43.3711V62.0338L75.7401 62.5396L74.9773 62.2388L62.5399 70.032V70.7977L61.7383 71.3036V52.7776Z" fill="#6A6A6A"/>
<path d="M74.9765 62.2408V45.3555L62.5391 53.258V70.034L74.9765 62.2408Z" fill="url(#paint4_linear_4711_16717)"/>
<g style="mix-blend-mode:multiply">
<path d="M74.9765 46.6407V45.3555L62.5391 53.258V54.4339L74.9765 46.6407Z" fill="#E6E7E8"/>
</g>
<g style="mix-blend-mode:multiply">
<path d="M74.9765 46.8848V46.2012L62.5391 54.1038V54.678L74.9765 46.8848Z" fill="#E6E7E8"/>
</g>
<g style="mix-blend-mode:multiply">
<path d="M74.9765 48.2266V47.543L62.5391 55.4455V56.0061L74.9765 48.2266Z" fill="#E6E7E8"/>
</g>
<g style="mix-blend-mode:multiply">
<path d="M74.9765 49.5508V48.8672L62.5391 56.7698V57.3303L74.9765 49.5508Z" fill="#E6E7E8"/>
</g>
<g style="mix-blend-mode:multiply">
<path d="M74.9765 50.8789V50.1953L62.5391 58.0979V58.6721L74.9765 50.8789Z" fill="#E6E7E8"/>
</g>
<g style="mix-blend-mode:multiply">
<path d="M74.9765 52.2188V51.5352L62.5391 59.4377V59.9983L74.9765 52.2188Z" fill="#E6E7E8"/>
</g>
<g style="mix-blend-mode:multiply">
<path d="M74.9765 53.5449V52.8613L62.5391 60.7639V61.3381L74.9765 53.5449Z" fill="#E6E7E8"/>
</g>
<g style="mix-blend-mode:multiply">
<path d="M74.9765 54.8692V54.1855L62.5391 62.0881V62.6623L74.9765 54.8692Z" fill="#E6E7E8"/>
</g>
<g style="mix-blend-mode:multiply">
<path d="M74.9765 56.209V55.5254L62.5391 63.428V63.9885L74.9765 56.209Z" fill="#E6E7E8"/>
</g>
<g style="mix-blend-mode:multiply">
<path d="M74.9765 57.5352V56.8516L62.5391 64.7541V65.3284L74.9765 57.5352Z" fill="#E6E7E8"/>
</g>
<g style="mix-blend-mode:multiply">
<path d="M74.9765 58.875V58.1914L62.5391 66.0803V66.6546L74.9765 58.875Z" fill="#E6E7E8"/>
</g>
<g style="mix-blend-mode:multiply">
<path d="M74.9765 60.2031V59.5195L62.5391 67.4221V67.9827L74.9765 60.2031Z" fill="#E6E7E8"/>
</g>
<g style="mix-blend-mode:multiply">
<path d="M74.9765 61.5293V60.8457L62.5391 68.7483V69.3225L74.9765 61.5293Z" fill="#E6E7E8"/>
</g>
<path d="M40.3771 58.5749V80.9427L5.75391 60.0514V37.5469L40.3771 58.5749Z" fill="url(#paint5_linear_4711_16717)"/>
<path d="M40.3771 58.7945L56.6285 29.2486L21.9924 8.34375L5.75391 37.7665L40.3771 58.7945Z" fill="url(#paint6_linear_4711_16717)"/>
<path d="M8.17188 61.4049V41.8125L15.5671 46.3927V65.9578L8.17188 61.4049Z" fill="#D1D1D1"/>
<path d="M14.7647 46.8848V64.4811L8.97266 60.9263V43.2891L14.7647 46.8848Z" fill="#6A6A6A"/>
<path d="M40.375 80.943V58.7939L56.5489 29.0293V71.3724L40.375 80.943Z" fill="url(#paint7_linear_4711_16717)"/>
<path d="M41.1773 30.875L26.2188 40.1312V75.515L28.6494 74.0111V51.6159L41.1773 30.875Z" fill="url(#paint8_linear_4711_16717)"/>
<path d="M9.71094 60.5298L14.7661 63.6471V46.8848L9.71094 43.7402V60.5298Z" fill="url(#paint9_linear_4711_16717)"/>
<path opacity="0.5" d="M9.71094 60.5298L14.7661 46.8848L9.71094 43.7402V60.5298Z" fill="url(#paint10_linear_4711_16717)"/>
<path d="M9.65625 43.7402V60.5298L14.7114 63.6471V46.8848L9.65625 43.7402ZM14.3106 62.8814L10.057 60.2564V44.4922L14.3106 47.1173V62.8814Z" fill="url(#paint11_linear_4711_16717)"/>
<path d="M26.2179 40.1311V75.5149L14.582 68.3507V32.9121L26.2179 40.1311Z" fill="url(#paint12_linear_4711_16717)"/>
<path d="M16.7031 69.5826V49.9766L24.0984 54.5705V74.1355L16.7031 69.5826Z" fill="#D1D1D1"/>
<path d="M23.2999 55.047V72.6569L17.5078 69.0884V51.4648L23.2999 55.047Z" fill="#6A6A6A"/>
<path d="M30.707 74.9557V55.3633L38.1023 59.9435V79.5085L30.707 74.9557Z" fill="#D1D1D1"/>
<path d="M37.287 60.42V78.0299L31.5078 74.4614V56.8379L37.287 60.42Z" fill="#6A6A6A"/>
<path d="M16.7031 47.4046V36.8223L24.0984 41.4025V51.9575L16.7031 47.4046Z" fill="#D1D1D1"/>
<path d="M23.2999 41.8946V50.4808L17.5078 46.9124V38.2988L23.2999 41.8946Z" fill="#D1B4E3"/>
<path d="M23.2999 41.8946V50.4808L17.5078 46.9124V38.2988L23.2999 41.8946Z" fill="#6A6A6A"/>
<path d="M18.2422 68.7075L23.2973 71.8111V55.0489L18.2422 51.918V68.7075Z" fill="url(#paint13_linear_4711_16717)"/>
<path d="M18.2422 68.7075L23.2973 55.0489L18.2422 51.918V68.7075Z" fill="url(#paint14_linear_4711_16717)"/>
<path d="M32.2461 74.0806L37.2883 77.1842V60.422L32.2461 57.291V74.0806Z" fill="url(#paint15_linear_4711_16717)"/>
<path opacity="0.5" d="M32.2461 74.0806L37.2883 60.422L32.2461 57.291V74.0806Z" fill="url(#paint16_linear_4711_16717)"/>
<path d="M18.2422 46.5295L23.2973 49.6331V41.8946L18.2422 38.7637V46.5295Z" fill="url(#paint17_linear_4711_16717)"/>
<path d="M32.2461 57.291V74.0806L37.2883 77.1842V60.4083L32.2461 57.291ZM36.8875 76.4322L32.6469 73.8208V58.0293L36.8875 60.6681V76.4322Z" fill="url(#paint18_linear_4711_16717)"/>
<path d="M18.2422 46.5295L23.2973 41.8946L18.2422 38.7637V46.5295Z" fill="url(#paint19_linear_4711_16717)"/>
<path d="M18.2422 38.7637V46.5295L23.2973 49.6331V41.8946L18.2422 38.7637ZM22.8965 48.8948L18.7076 46.2834V39.4473L22.9612 42.086L22.8965 48.8948Z" fill="url(#paint20_linear_4711_16717)"/>
<path d="M18.2422 51.918V68.7075L23.2973 71.8111V55.0489L18.2422 51.918ZM22.8965 71.0592L18.7076 68.4614V52.6562L22.9612 55.295L22.8965 71.0592Z" fill="url(#paint21_linear_4711_16717)"/>
<path d="M44.7227 56.4419L45.9897 55.6626L53.4496 51.0824V39.6387L44.7227 56.4419Z" fill="#6A6A6A"/>
<path d="M46.8555 54.1605L52.6475 50.592V43.0449L46.8555 54.1605Z" fill="#D1D1D1"/>
<path d="M44.8516 58.7658L53.4492 53.5703V73.1627L44.8516 78.3308V58.7658Z" fill="#6A6A6A"/>
<path d="M45.6523 59.2599V76.8561L52.6468 72.6861V55.0488L45.6523 59.2599Z" fill="#D1D1D1"/>
<path d="M51.9745 72.2896V55.4727L45.6523 59.2599V76.0631L51.9745 72.2896Z" fill="url(#paint22_linear_4711_16717)"/>
<path d="M45.6523 59.2599V76.0631L51.9745 72.2896V55.4727L45.6523 59.2599ZM51.5737 72.0435L46.0531 75.3385V59.506L51.5737 56.1973V72.0435Z" fill="url(#paint23_linear_4711_16717)"/>
<path d="M51.9731 44.3281L47.4609 52.9827L51.9731 50.2072V44.3281Z" fill="url(#paint24_linear_4711_16717)"/>
<path d="M47.4609 52.9827L51.9731 50.2482V44.3691L47.4609 52.9827ZM51.5723 49.9611L48.5211 51.8342L51.5723 45.9825V49.9611Z" fill="url(#paint25_linear_4711_16717)"/>
<path d="M26.2179 40.1314L41.1764 30.8752L29.5406 23.7109L14.582 32.9124L26.2179 40.1314Z" fill="url(#paint26_linear_4711_16717)"/>
<path d="M42.9492 81.5179V82.5433L59.0584 72.877V71.8379L42.9492 81.5179Z" fill="#6A6A6A"/>
<path d="M42.9478 81.5176V82.5431L40.375 80.9434V79.918L42.9478 81.5176Z" fill="url(#paint27_linear_4711_16717)"/>
<path d="M40.375 79.9183L42.9478 81.5179L59.057 71.8379L56.5489 70.3066L40.375 79.9183Z" fill="url(#paint28_linear_4711_16717)"/>
<path d="M47.1517 66.0813C47.1448 66.2325 47.1037 66.3798 47.0317 66.5107C46.9596 66.6416 46.8589 66.7523 46.7379 66.8333C46.5181 66.97 46.3242 66.8333 46.3242 66.5872C46.3341 66.4367 46.3765 66.2906 46.4483 66.1602C46.52 66.0298 46.6191 65.9186 46.7379 65.8352C46.9319 65.6985 47.1517 65.8762 47.1517 66.0813Z" fill="#363636"/>
<path style="mix-blend-mode:multiply" d="M28.6523 51.6159L41.1803 30.875L32.1819 53.7487L28.6523 51.6159Z" fill="url(#paint29_linear_4711_16717)"/>
<path d="M40.375 79.9183L59.057 71.8379L56.5489 70.3066L40.375 79.9183Z" fill="url(#paint30_linear_4711_16717)"/>
<path d="M74.9727 45.3535V62.2388L75.7355 62.5396V44.9297L74.9727 45.3535Z" fill="#F1E8F6"/>
<defs>
<linearGradient id="paint0_linear_4711_16717" x1="82.2403" y1="89.6247" x2="6.20438" y2="32.6241" gradientUnits="userSpaceOnUse">
<stop stop-color="white"/>
<stop offset="1" stop-color="#939598"/>
</linearGradient>
<linearGradient id="paint1_linear_4711_16717" x1="44.3268" y1="53.6376" x2="46.7119" y2="18.8179" gradientUnits="userSpaceOnUse">
<stop offset="0.1" stop-color="#1C1C1C"/>
<stop offset="1" stop-color="#494949"/>
</linearGradient>
<linearGradient id="paint2_linear_4711_16717" x1="71.6795" y1="63.6746" x2="94.6949" y2="112.539" gradientUnits="userSpaceOnUse">
<stop stop-color="#8B8B8B"/>
<stop offset="0.14" stop-color="#939393"/>
<stop offset="0.33" stop-color="#ADADAD"/>
<stop offset="0.503125" stop-color="#BABABA"/>
<stop offset="0.76" stop-color="#D7D7D7"/>
<stop offset="1" stop-color="#F4F4F4"/>
</linearGradient>
<linearGradient id="paint3_linear_4711_16717" x1="17.7129" y1="-2.49948" x2="80.4672" y2="139.001" gradientUnits="userSpaceOnUse">
<stop stop-color="#8B8B8B"/>
<stop offset="0.14" stop-color="#939393"/>
<stop offset="0.33" stop-color="#ADADAD"/>
<stop offset="0.503125" stop-color="#BABABA"/>
<stop offset="0.76" stop-color="#D7D7D7"/>
<stop offset="1" stop-color="#F4F4F4"/>
</linearGradient>
<linearGradient id="paint4_linear_4711_16717" x1="67.8351" y1="30.6331" x2="73.5218" y2="108.446" gradientUnits="userSpaceOnUse">
<stop stop-color="#8B8B8B"/>
<stop offset="0.14" stop-color="#939393"/>
<stop offset="0.33" stop-color="#ADADAD"/>
<stop offset="0.503125" stop-color="#BABABA"/>
<stop offset="0.76" stop-color="#D7D7D7"/>
<stop offset="1" stop-color="#F4F4F4"/>
</linearGradient>
<linearGradient id="paint5_linear_4711_16717" x1="-2.21968" y1="24.6079" x2="38.7471" y2="140.581" gradientUnits="userSpaceOnUse">
<stop stop-color="#8B8B8B"/>
<stop offset="0.14" stop-color="#939393"/>
<stop offset="0.33" stop-color="#ADADAD"/>
<stop offset="0.503125" stop-color="#BABABA"/>
<stop offset="0.76" stop-color="#D7D7D7"/>
<stop offset="1" stop-color="#F4F4F4"/>
</linearGradient>
<linearGradient id="paint6_linear_4711_16717" x1="24.0093" y1="86.2347" x2="35.058" y2="13.6863" gradientUnits="userSpaceOnUse">
<stop offset="0.1" stop-color="#1C1C1C"/>
<stop offset="1" stop-color="#494949"/>
</linearGradient>
<linearGradient id="paint7_linear_4711_16717" x1="50.8783" y1="67.323" x2="94.3208" y2="119.161" gradientUnits="userSpaceOnUse">
<stop stop-color="#8B8B8B"/>
<stop offset="0.14" stop-color="#939393"/>
<stop offset="0.33" stop-color="#ADADAD"/>
<stop offset="0.503125" stop-color="#BABABA"/>
<stop offset="0.76" stop-color="#D7D7D7"/>
<stop offset="1" stop-color="#F4F4F4"/>
</linearGradient>
<linearGradient id="paint8_linear_4711_16717" x1="35.9329" y1="63.8033" x2="72.7219" y2="111.019" gradientUnits="userSpaceOnUse">
<stop stop-color="#8B8B8B"/>
<stop offset="0.14" stop-color="#939393"/>
<stop offset="0.33" stop-color="#ADADAD"/>
<stop offset="0.503125" stop-color="#BABABA"/>
<stop offset="0.76" stop-color="#D7D7D7"/>
<stop offset="1" stop-color="#F4F4F4"/>
</linearGradient>
<linearGradient id="paint9_linear_4711_16717" x1="0.0802464" y1="56.5737" x2="25.0508" y2="51.2672" gradientUnits="userSpaceOnUse">
<stop stop-color="#363636"/>
<stop offset="0.62" stop-color="#7C7C7C"/>
<stop offset="1" stop-color="#4C9DE9"/>
</linearGradient>
<linearGradient id="paint10_linear_4711_16717" x1="10.2179" y1="53.2358" x2="24.778" y2="50.8512" gradientUnits="userSpaceOnUse">
<stop stop-color="#A3A3A3"/>
<stop offset="0.62" stop-color="#4F667B"/>
<stop offset="1" stop-color="#4C9DE9"/>
</linearGradient>
<linearGradient id="paint11_linear_4711_16717" x1="0.114834" y1="56.5648" x2="25.0255" y2="51.281" gradientUnits="userSpaceOnUse">
<stop offset="0.1" stop-color="#A8F800"/>
<stop offset="1" stop-color="#A8F800"/>
</linearGradient>
<linearGradient id="paint12_linear_4711_16717" x1="9.17138" y1="22.801" x2="73.3808" y2="84.4724" gradientUnits="userSpaceOnUse">
<stop stop-color="#8B8B8B"/>
<stop offset="0.14" stop-color="#939393"/>
<stop offset="0.33" stop-color="#ADADAD"/>
<stop offset="0.503125" stop-color="#BABABA"/>
<stop offset="0.76" stop-color="#D7D7D7"/>
<stop offset="1" stop-color="#F4F4F4"/>
</linearGradient>
<linearGradient id="paint13_linear_4711_16717" x1="8.61149" y1="64.7426" x2="33.5805" y2="59.4328" gradientUnits="userSpaceOnUse">
<stop stop-color="#363636"/>
<stop offset="0.62" stop-color="#7C7C7C"/>
<stop offset="1" stop-color="#4C9DE9"/>
</linearGradient>
<linearGradient id="paint14_linear_4711_16717" x1="18.7492" y1="61.4135" x2="33.3092" y2="59.0289" gradientUnits="userSpaceOnUse">
<stop stop-color="#A3A3A3"/>
<stop offset="0.62" stop-color="#4F667B"/>
<stop offset="1" stop-color="#4C9DE9"/>
</linearGradient>
<linearGradient id="paint15_linear_4711_16717" x1="22.6401" y1="70.1156" x2="47.5507" y2="64.8318" gradientUnits="userSpaceOnUse">
<stop stop-color="#363636"/>
<stop offset="0.62" stop-color="#7C7C7C"/>
<stop offset="1" stop-color="#4C9DE9"/>
</linearGradient>
<linearGradient id="paint16_linear_4711_16717" x1="32.7518" y1="66.7865" x2="47.2765" y2="64.4139" gradientUnits="userSpaceOnUse">
<stop stop-color="#A3A3A3"/>
<stop offset="0.62" stop-color="#4F667B"/>
<stop offset="1" stop-color="#4C9DE9"/>
</linearGradient>
<linearGradient id="paint17_linear_4711_16717" x1="8.61149" y1="45.7709" x2="31.2765" y2="36.9497" gradientUnits="userSpaceOnUse">
<stop stop-color="#363636"/>
<stop offset="0.62" stop-color="#7C7C7C"/>
<stop offset="1" stop-color="#4C9DE9"/>
</linearGradient>
<linearGradient id="paint18_linear_4711_16717" x1="22.7291" y1="70.1068" x2="47.58" y2="64.8455" gradientUnits="userSpaceOnUse">
<stop offset="0.1" stop-color="#A8F800"/>
<stop offset="1" stop-color="#A8F800"/>
</linearGradient>
<linearGradient id="paint19_linear_4711_16717" x1="18.7492" y1="43.1557" x2="32.0343" y2="38.4519" gradientUnits="userSpaceOnUse">
<stop stop-color="#A3A3A3"/>
<stop offset="0.62" stop-color="#4F667B"/>
<stop offset="1" stop-color="#4C9DE9"/>
</linearGradient>
<linearGradient id="paint20_linear_4711_16717" x1="8.70077" y1="45.7661" x2="31.3189" y2="36.9796" gradientUnits="userSpaceOnUse">
<stop offset="0.1" stop-color="#A8F800"/>
<stop offset="1" stop-color="#A8F800"/>
</linearGradient>
<linearGradient id="paint21_linear_4711_16717" x1="8.70077" y1="64.7338" x2="33.61" y2="59.4466" gradientUnits="userSpaceOnUse">
<stop offset="0.1" stop-color="#A8F800"/>
<stop offset="1" stop-color="#A8F800"/>
</linearGradient>
<linearGradient id="paint22_linear_4711_16717" x1="45.6523" y1="66.766" x2="67.2376" y2="60.6487" gradientUnits="userSpaceOnUse">
<stop offset="0.1" stop-color="#6F6F6F"/>
<stop offset="1" stop-color="#D7D7D7"/>
</linearGradient>
<linearGradient id="paint23_linear_4711_16717" x1="33.7195" y1="68.7377" x2="64.2662" y2="60.9035" gradientUnits="userSpaceOnUse">
<stop offset="0.1" stop-color="#A8F800"/>
<stop offset="1" stop-color="#A8F800"/>
</linearGradient>
<linearGradient id="paint24_linear_4711_16717" x1="47.9134" y1="49.2228" x2="60.2648" y2="45.7202" gradientUnits="userSpaceOnUse">
<stop stop-color="#A3A3A3"/>
<stop offset="0.62" stop-color="#4F667B"/>
<stop offset="1" stop-color="#4C9DE9"/>
</linearGradient>
<linearGradient id="paint25_linear_4711_16717" x1="38.9445" y1="49.9183" x2="58.446" y2="41.3854" gradientUnits="userSpaceOnUse">
<stop offset="0.1" stop-color="#A8F800"/>
<stop offset="1" stop-color="#A8F800"/>
</linearGradient>
<linearGradient id="paint26_linear_4711_16717" x1="10.3105" y1="45.6932" x2="22.2336" y2="31.4554" gradientUnits="userSpaceOnUse">
<stop offset="0.1" stop-color="#1C1C1C"/>
<stop offset="1" stop-color="#494949"/>
</linearGradient>
<linearGradient id="paint27_linear_4711_16717" x1="39.7825" y1="79.1353" x2="41.8783" y2="86.4234" gradientUnits="userSpaceOnUse">
<stop stop-color="#8B8B8B"/>
<stop offset="0.14" stop-color="#939393"/>
<stop offset="0.33" stop-color="#ADADAD"/>
<stop offset="0.503125" stop-color="#BABABA"/>
<stop offset="0.76" stop-color="#D7D7D7"/>
<stop offset="1" stop-color="#F4F4F4"/>
</linearGradient>
<linearGradient id="paint28_linear_4711_16717" x1="-5.0682" y1="70.9935" x2="25.3868" y2="122.448" gradientUnits="userSpaceOnUse">
<stop stop-color="#8B8B8B"/>
<stop offset="0.14" stop-color="#939393"/>
<stop offset="0.33" stop-color="#ADADAD"/>
<stop offset="0.503125" stop-color="#BABABA"/>
<stop offset="0.76" stop-color="#D7D7D7"/>
<stop offset="1" stop-color="#F4F4F4"/>
</linearGradient>
<linearGradient id="paint29_linear_4711_16717" x1="38.9178" y1="44.602" x2="31.1808" y2="38.8025" gradientUnits="userSpaceOnUse">
<stop stop-color="white"/>
<stop offset="1" stop-color="#BCBEC0"/>
</linearGradient>
<linearGradient id="paint30_linear_4711_16717" x1="33.0911" y1="69.7887" x2="40.1745" y2="98.9235" gradientUnits="userSpaceOnUse">
<stop stop-color="#8B8B8B"/>
<stop offset="0.14" stop-color="#939393"/>
<stop offset="0.33" stop-color="#ADADAD"/>
<stop offset="0.503125" stop-color="#BABABA"/>
<stop offset="0.76" stop-color="#D7D7D7"/>
<stop offset="1" stop-color="#F4F4F4"/>
</linearGradient>
</defs>
</svg>
