<svg width="90" height="91" viewBox="0 0 90 91" fill="none" xmlns="http://www.w3.org/2000/svg">
<g clip-path="url(#clip0_4711_25062)">
<path d="M90 34.7715H0V51.2501H90V34.7715Z" fill="url(#paint0_linear_4711_25062)"/>
<path d="M70.4998 54.4762H19.5027C17.5181 54.4762 15.9648 52.9068 15.9648 50.9015V35.2075C15.9648 33.2022 17.5181 31.6328 19.5027 31.6328H70.4998C72.4845 31.6328 74.0377 33.2022 74.0377 35.2075V50.9887C74.0377 52.9068 72.4845 54.4762 70.4998 54.4762Z" fill="url(#paint1_linear_4711_25062)"/>
<path d="M45.0442 67.5547C58.4357 67.5547 69.2916 56.5857 69.2916 43.0547C69.2916 29.5237 58.4357 18.5547 45.0442 18.5547C31.6528 18.5547 20.7969 29.5237 20.7969 43.0547C20.7969 56.5857 31.6528 67.5547 45.0442 67.5547Z" fill="#A6A6A6"/>
<path d="M45.0422 64.1544C56.5751 64.1544 65.9243 54.7077 65.9243 43.0547C65.9243 31.4017 56.5751 21.9551 45.0422 21.9551C33.5094 21.9551 24.1602 31.4017 24.1602 43.0547C24.1602 54.7077 33.5094 64.1544 45.0422 64.1544Z" fill="url(#paint2_linear_4711_25062)"/>
<path d="M58.7607 31.7207H31.2344V38.8702H58.7607V31.7207Z" fill="white"/>
<path d="M59.1939 39.2193H30.8047V31.2852H59.1939V39.2193ZM31.5813 38.4346H58.3311V32.0699H31.5813V38.4346Z" fill="#575756"/>
<path d="M35.2073 32.6797H32.2734V37.8238H35.2073V32.6797Z" fill="#C3FF42"/>
<path d="M39.0003 32.6797H36.0664V37.8238H39.0003V32.6797Z" fill="#C3FF42"/>
<path d="M42.7112 32.6797H39.7773V37.8238H42.7112V32.6797Z" fill="#C3FF42"/>
<path d="M46.5081 32.6797H43.5742V37.8238H46.5081V32.6797Z" fill="#C3FF42"/>
<path d="M50.219 32.6797H47.2852V37.8238H50.219V32.6797Z" fill="#C3FF42"/>
<path d="M53.9299 32.6797H50.9961V37.8238H53.9299V32.6797Z" fill="#C3FF42"/>
<path d="M57.7268 32.6797H54.793V37.8238H57.7268V32.6797Z" fill="#C3FF42"/>
<path d="M53.0673 54.3016C56.3556 54.3016 59.0212 51.6081 59.0212 48.2855C59.0212 44.963 56.3556 42.2695 53.0673 42.2695C49.779 42.2695 47.1133 44.963 47.1133 48.2855C47.1133 51.6081 49.779 54.3016 53.0673 54.3016Z" fill="white"/>
<path d="M53.0671 53.7787C52.9808 53.7787 52.8945 53.6915 52.8945 53.6044V42.9673C52.8945 42.8802 52.9808 42.793 53.0671 42.793C53.1534 42.793 53.2397 42.8802 53.2397 42.9673V53.6044C53.2397 53.6915 53.1534 53.7787 53.0671 53.7787Z" fill="#7CB600"/>
<path d="M58.3327 48.4601H47.8054C47.7191 48.4601 47.6328 48.3729 47.6328 48.2857C47.6328 48.1985 47.7191 48.1113 47.8054 48.1113H58.3327C58.419 48.1113 58.5053 48.1985 58.5053 48.2857C58.5053 48.3729 58.419 48.4601 58.3327 48.4601Z" fill="#7CB600"/>
<path d="M56.7793 52.2099C56.693 52.2099 56.693 52.2099 56.6067 52.1228L49.1858 44.7117C49.0995 44.6245 49.0995 44.5373 49.1858 44.4502C49.2721 44.363 49.3584 44.363 49.4447 44.4502L56.8656 51.9484C56.9519 52.0356 56.9519 52.1228 56.8656 52.2099H56.7793Z" fill="#7CB600"/>
<path d="M49.3584 52.2092C49.2721 52.2092 49.2721 52.2092 49.1858 52.1221C49.0995 52.0349 49.0995 51.9477 49.1858 51.8605L56.6067 44.3623C56.693 44.2751 56.7793 44.2751 56.8656 44.3623C56.9519 44.4495 56.9519 44.5366 56.8656 44.6238L49.4447 52.1221C49.4447 52.2092 49.3584 52.2092 49.3584 52.2092Z" fill="#7CB600"/>
<path d="M53.0684 52.6446C55.4512 52.6446 57.3829 50.6929 57.3829 48.2852C57.3829 45.8776 55.4512 43.9258 53.0684 43.9258C50.6856 43.9258 48.7539 45.8776 48.7539 48.2852C48.7539 50.6929 50.6856 52.6446 53.0684 52.6446Z" fill="white"/>
<path d="M53.0681 49.6807C53.8306 49.6807 54.4488 49.0561 54.4488 48.2856C54.4488 47.5152 53.8306 46.8906 53.0681 46.8906C52.3056 46.8906 51.6875 47.5152 51.6875 48.2856C51.6875 49.0561 52.3056 49.6807 53.0681 49.6807Z" fill="#565656"/>
<path d="M57.6398 45.7578L53.0664 47.4144L53.7567 48.7222L57.6398 45.7578Z" fill="#565656"/>
<path d="M45.8198 43.3164H30.6328V44.7114H45.8198V43.3164Z" fill="#878787"/>
<path d="M44.3529 46.2812H30.6328V47.6763H44.3529V46.2812Z" fill="#878787"/>
<path d="M41.5053 49.332H30.6328V50.7271H41.5053V49.332Z" fill="#878787"/>
<path d="M43.3174 52.2969H30.6328V53.6919H43.3174V52.2969Z" fill="#878787"/>
<path d="M49.6161 59.0967C49.6161 59.9686 48.9258 60.6661 48.0629 60.6661H41.8501C40.9872 60.6661 40.2969 59.9686 40.2969 59.0967C40.2969 58.2249 40.9872 57.5273 41.8501 57.5273H48.0629C48.9258 57.5273 49.6161 58.2249 49.6161 59.0967Z" fill="#C6C6C6"/>
</g>
<defs>
<linearGradient id="paint0_linear_4711_25062" x1="29.1214" y1="-99.4814" x2="28.0844" y2="154.489" gradientUnits="userSpaceOnUse">
<stop offset="0.0555556" stop-color="#3E3D3E"/>
<stop offset="0.2575" stop-color="#686868"/>
<stop offset="0.3569" stop-color="#868686"/>
<stop offset="0.4338" stop-color="#646464"/>
<stop offset="0.4949" stop-color="#535353"/>
<stop offset="0.5067" stop-color="#585858"/>
<stop offset="0.5196" stop-color="#919191"/>
<stop offset="0.5329" stop-color="#D6D6D6"/>
<stop offset="0.5466" stop-color="#FCFCFC"/>
<stop offset="0.5556" stop-color="white"/>
<stop offset="0.5678" stop-color="#D3D3D3"/>
<stop offset="0.5801" stop-color="#BCBCBC"/>
<stop offset="0.5915" stop-color="#A5A3A6"/>
<stop offset="0.601" stop-color="#A3A3A3"/>
<stop offset="0.658" stop-color="#707070"/>
<stop offset="0.7155" stop-color="#575757"/>
<stop offset="0.7687" stop-color="#676767"/>
<stop offset="0.8131" stop-color="#6D6D6D"/>
<stop offset="1" stop-color="#111111"/>
</linearGradient>
<linearGradient id="paint1_linear_4711_25062" x1="53.0397" y1="72.0541" x2="64.3467" y2="41.6305" gradientUnits="userSpaceOnUse">
<stop stop-color="#161616"/>
<stop offset="1" stop-color="#5C5C5C"/>
</linearGradient>
<linearGradient id="paint2_linear_4711_25062" x1="139.329" y1="-123.491" x2="-16.8243" y2="-31.4893" gradientUnits="userSpaceOnUse">
<stop stop-color="#858585"/>
<stop offset="0.14" stop-color="#A0A0A0"/>
<stop offset="0.33" stop-color="#A7A7A7"/>
<stop offset="0.58" stop-color="#B3B3B3"/>
<stop offset="0.76" stop-color="#C4C4C4"/>
<stop offset="1" stop-color="#F7F7F7"/>
</linearGradient>
<clipPath id="clip0_4711_25062">
<rect width="90" height="49" fill="white" transform="translate(0 18.5547)"/>
</clipPath>
</defs>
</svg>
