<svg width="90" height="91" viewBox="0 0 90 91" fill="none" xmlns="http://www.w3.org/2000/svg">
<path d="M47.6725 83.4243L46.5469 65.7342L55.284 64.827C57.7497 64.4301 60.805 64.7703 63.8604 66.0177C70.0782 68.4558 74.0448 73.4453 72.7583 77.1874C72.1151 79.0585 70.239 80.2491 67.7733 80.646L47.6725 83.4243Z" fill="#9A9898" fill-opacity="0.2"/>
<path d="M28 29.9006L61.6086 29.7305V73.3886C61.555 75.9968 59.9469 78.6049 56.6772 80.6461C50.0841 84.6717 39.4709 84.6717 32.9314 80.7028C29.6617 78.7183 28 76.0535 28.0536 73.4453V29.9006H28Z" fill="url(#paint0_linear_4711_2955)"/>
<path d="M28 60.6896L61.6086 60.5195V69.0811C61.555 71.6892 59.9469 74.2974 56.6772 76.3385C50.0841 80.3641 39.4709 80.3641 32.9314 76.3952C29.6617 74.4108 28 71.7459 28.0536 69.1378V60.6896H28Z" fill="#3B3B3D"/>
<path d="M28 60.4045L61.6086 60.2344V68.7959C61.555 71.4041 59.9469 74.0122 56.6772 76.0534C50.0841 80.079 39.4709 80.079 32.9314 76.1101C29.6617 74.1256 28 71.4607 28.0536 68.8526V60.4045H28Z" fill="#131315"/>
<path d="M28 24.6857L61.6086 24.5156V68.1738C61.555 70.7819 59.9469 73.3901 56.6772 75.4312C50.0841 79.4568 39.4709 79.4568 32.9314 75.4879C29.6617 73.5035 28 70.8386 28.0536 68.2305V24.6857H28Z" fill="url(#paint1_linear_4711_2955)"/>
<path d="M28 18.1642L61.6086 17.9941V26.5557C61.555 29.1638 59.9469 31.772 56.6772 33.8131C50.0841 37.8388 39.4709 37.8388 32.9314 33.8698C29.6617 31.8854 28 29.2205 28.0536 26.6124V18.1642H28Z" fill="url(#paint2_linear_4711_2955)"/>
<path d="M28 19.1291L61.6086 18.959V27.5772C61.555 30.1854 59.9469 32.7935 56.6772 34.8347C50.0841 38.8603 39.4709 38.8603 32.9314 34.8914C29.6617 32.9069 28 30.2421 28.0536 27.6339V19.1291H28Z" fill="#3B3B3D"/>
<path d="M28 18.7892L61.6086 18.6191V27.1807C61.555 29.7888 59.9469 32.397 56.6772 34.4381C50.0841 38.4638 39.4709 38.4638 32.9314 34.4948C29.6617 32.5104 28 29.8455 28.0536 27.2374V18.7892H28Z" fill="#131315"/>
<path d="M28 18.1642L61.6086 17.9941V26.5557C61.555 29.1638 59.9469 31.772 56.6772 33.8131C50.0841 37.8388 39.4709 37.8388 32.9314 33.8698C29.6617 31.8854 28 29.2205 28.0536 26.6124V18.1642H28Z" fill="url(#paint3_linear_4711_2955)"/>
<path d="M28 18.1642L61.6086 17.9941V26.5557C61.555 29.1638 59.9469 31.772 56.6772 33.8131C50.0841 37.8388 39.4709 37.8388 32.9314 33.8698C29.6617 31.8854 28 29.2205 28.0536 26.6124V18.1642H28Z" fill="url(#paint4_linear_4711_2955)"/>
<path d="M32.8779 25.4221C39.4173 29.391 50.0306 29.391 56.6236 25.3654C63.2167 21.3398 63.2167 14.8761 56.6772 10.8505C50.1378 6.88158 39.5245 6.88158 32.9315 10.9072C26.392 14.9328 26.3384 21.4532 32.8779 25.4221Z" fill="#505052"/>
<path d="M33.2534 25.196C39.5784 29.0515 49.9236 29.0515 56.3023 25.1393C62.681 21.2271 62.7346 14.9335 56.3559 11.078C50.0308 7.22243 39.6856 7.22243 33.307 11.1347C26.9283 15.0469 26.8747 21.3405 33.2534 25.196Z" fill="#A8F800"/>
<path d="M34.1639 24.6287C40.0065 28.2008 49.4941 28.2008 55.3903 24.572C61.2866 21 61.2866 15.16 55.4439 11.588C49.6013 8.01596 40.1137 8.01596 34.2175 11.6447C28.3748 15.2734 28.3212 21.0567 34.1639 24.6287Z" fill="#242426"/>
<path d="M35.0219 23.5517C40.3822 26.8403 49.1193 26.8403 54.5331 23.495C59.947 20.2065 59.947 14.8768 54.5867 11.5883C49.2265 8.29973 40.4894 8.29973 35.0755 11.645C29.6617 14.9335 29.6081 20.2632 35.0219 23.5517Z" fill="#7A7A7B"/>
<path d="M35.4487 23.2691C40.7017 26.5009 49.2781 26.4442 54.5847 23.2124C59.8913 19.9806 59.8913 14.7643 54.6383 11.5324C49.3853 8.30059 40.8089 8.3573 35.5023 11.5891C30.1957 14.821 30.1957 20.094 35.4487 23.2691Z" fill="#505052"/>
<path d="M53.8378 23.2684C55.0707 22.5314 55.0707 21.3407 53.8914 20.6036C52.7122 19.8665 50.7289 19.8665 49.5496 20.6036C48.3168 21.3407 48.3168 22.5314 49.5496 23.2684C50.6753 24.0055 52.605 24.0055 53.8378 23.2684Z" fill="#2E2E30"/>
<path d="M49.9766 21.1147C50.9414 20.5477 52.4959 20.5477 53.4607 21.1147C54.4256 21.6817 54.3719 22.6456 53.4071 23.2126C52.4423 23.7795 50.8878 23.7795 49.923 23.2126C49.0117 22.6456 49.0117 21.7384 49.9766 21.1147Z" fill="#575758"/>
<path d="M50.9474 21.737C51.0546 21.6803 51.2154 21.5669 51.3762 21.5102C51.6443 21.3968 51.9659 21.3401 52.2875 21.2834C52.4483 21.2834 52.6091 21.2834 52.7699 21.2834C52.8235 21.2834 52.9307 21.2834 52.9307 21.2267C52.9843 21.17 52.9843 21.17 52.9307 21.1133C52.8771 21.0566 52.8235 21.0566 52.7699 21.0566C52.6091 21.0566 52.3947 21.0566 52.2339 21.0566C52.0195 21.0566 51.8051 21.1133 51.5907 21.17C51.4298 21.2267 51.269 21.2834 51.1082 21.3401C50.9474 21.3968 50.8402 21.4535 50.733 21.5102C50.6258 21.5669 50.5186 21.6803 50.4114 21.737C50.3042 21.8504 50.197 21.9638 50.0898 22.0772C49.9826 22.1906 49.929 22.3607 49.8754 22.5308C49.8754 22.6442 49.8218 22.7576 49.8754 22.871C49.8754 22.9277 49.9826 22.9844 50.0898 22.9844C50.197 22.9844 50.2506 22.9277 50.2506 22.871C50.2506 22.7576 50.2506 22.7009 50.2506 22.5875C50.2506 22.4741 50.3042 22.3607 50.4114 22.1906C50.465 22.0772 50.5186 22.0205 50.6258 21.9638C50.733 21.9071 50.8402 21.8504 50.9474 21.737Z" fill="#DCDADB"/>
<path d="M51.2157 21.9065C50.9477 22.0766 50.7869 22.2467 50.7333 22.4735C50.6797 22.5869 50.6797 22.7003 50.6797 22.8704C50.6797 22.9271 50.7869 22.9838 50.8941 22.9838C51.0013 22.9838 51.0549 22.9271 51.0549 22.8704C51.0549 22.8137 51.0549 22.8137 51.0549 22.757C51.0549 22.5869 51.1085 22.4735 51.2693 22.3034C51.3765 22.19 51.4837 22.0766 51.6981 22.0199C51.9661 21.9065 52.2341 21.8498 52.5558 21.8498C52.6094 21.8498 52.7166 21.8498 52.7702 21.8498C52.8238 21.8498 52.8774 21.8498 52.931 21.7931C52.9846 21.7364 52.9846 21.7364 52.931 21.6797C52.8774 21.6231 52.8238 21.623 52.7702 21.623C52.5022 21.623 52.1805 21.6231 51.9125 21.6797C51.7517 21.7364 51.5909 21.7364 51.4837 21.8498C51.3765 21.8498 51.3229 21.8498 51.2157 21.9065Z" fill="#DCDADB"/>
<path d="M51.7513 22.3049C51.5369 22.4183 51.4297 22.5884 51.4297 22.8152C51.4297 22.8719 51.4297 22.8719 51.4833 22.8719C51.5369 22.9286 51.6441 22.9286 51.7513 22.9286C51.8049 22.9286 51.8585 22.8719 51.8585 22.8152C51.8585 22.7018 51.8585 22.5884 51.9657 22.5317C52.0729 22.4183 52.2873 22.3616 52.5017 22.3049C52.5553 22.3049 52.6089 22.3049 52.6625 22.3049C52.7697 22.3049 52.8233 22.2482 52.8769 22.2482C52.9305 22.1915 52.877 22.1348 52.8233 22.1348C52.7697 22.1348 52.7697 22.1348 52.7161 22.1348C52.5017 22.1348 52.2873 22.1348 52.1265 22.1915C51.9657 22.1348 51.8585 22.1915 51.7513 22.3049Z" fill="#DCDADB"/>
<path d="M52.8754 22.9272C53.0362 22.8138 53.0362 22.7004 52.8754 22.587C52.7146 22.4736 52.5002 22.4736 52.3394 22.587C52.1785 22.7004 52.1785 22.8138 52.3394 22.9272C52.4466 23.0406 52.7146 23.0406 52.8754 22.9272Z" fill="#DCDADB"/>
<path d="M35.9923 13.005C36.3676 13.2318 37.0108 13.2318 37.386 13.005C37.7612 12.7782 37.7612 12.3813 37.386 12.1545C37.0108 11.9277 36.3676 11.9277 35.9923 12.1545C35.6171 12.438 35.6171 12.7782 35.9923 13.005Z" fill="#160C0D"/>
<path d="M42.2122 17.881C42.7482 17.9377 43.2842 17.7109 43.3914 17.3707C43.4986 17.0305 43.1234 16.747 42.5874 16.6903C42.0514 16.6336 41.5154 16.8604 41.4081 17.2006C41.3545 17.5408 41.6762 17.8243 42.2122 17.881Z" fill="#160C0D"/>
<path d="M43.5496 16.1813C43.6568 16.5214 44.1392 16.7482 44.6752 16.6916C45.2113 16.6349 45.5865 16.3514 45.4793 16.0112C45.3721 15.671 44.8896 15.4442 44.3536 15.5009C43.8176 15.5009 43.4424 15.8411 43.5496 16.1813Z" fill="#160C0D"/>
<path d="M46.6606 16.2928C46.1782 16.4629 46.0173 16.8031 46.2854 17.0866C46.5534 17.3701 47.143 17.4835 47.6254 17.3134C48.1078 17.1433 48.2686 16.8031 48.0006 16.5196C47.7326 16.2361 47.143 16.1227 46.6606 16.2928Z" fill="#160C0D"/>
<path d="M47.3003 18.3922C46.9787 18.1087 46.3354 18.1087 45.9066 18.3355C45.4778 18.5623 45.4242 18.9025 45.7458 19.186C46.0674 19.4695 46.7107 19.4695 47.1395 19.2427C47.5683 19.0726 47.6219 18.6757 47.3003 18.3922Z" fill="#160C0D"/>
<path d="M44.4607 19.2429C44.7287 18.9594 44.5679 18.5625 44.1391 18.3924C43.6566 18.2223 43.067 18.3357 42.799 18.6192C42.531 18.9027 42.6918 19.2996 43.1206 19.4697C43.5494 19.6398 44.1927 19.5264 44.4607 19.2429Z" fill="#160C0D"/>
<path d="M39.3164 18.1086C39.8524 18.1086 40.3348 17.8252 40.3348 17.5417C40.3348 17.2015 39.906 16.918 39.37 16.918C38.834 16.918 38.3516 17.2015 38.3516 17.485C38.3516 17.8252 38.7804 18.1086 39.3164 18.1086Z" fill="#160C0D"/>
<path d="M40.4379 19.6962C40.9203 19.5261 41.0811 19.1859 40.8131 18.9024C40.5451 18.6189 39.9555 18.5055 39.4731 18.6756C38.9907 18.8457 38.8298 19.1859 39.0979 19.4694C39.3659 19.7529 40.0091 19.8663 40.4379 19.6962Z" fill="#160C0D"/>
<path d="M42.8013 20.7722C43.0694 20.4887 42.9621 20.0918 42.4797 19.9217C41.9973 19.7516 41.4077 19.865 41.1397 20.1485C40.8717 20.432 40.9789 20.8289 41.4613 20.999C41.8901 21.1124 42.5333 21.0557 42.8013 20.7722Z" fill="#160C0D"/>
<path d="M45.6434 20.9421C45.6434 20.6019 45.2146 20.3184 44.6786 20.3184C44.1426 20.3184 43.6602 20.6019 43.6602 20.8853C43.6602 21.2255 44.089 21.509 44.625 21.509C45.2146 21.509 45.6434 21.2822 45.6434 20.9421Z" fill="#160C0D"/>
<path d="M48.3209 20.2051C48.0529 19.9217 47.4633 19.8083 46.9809 19.9784C46.4985 20.1485 46.3377 20.4886 46.6057 20.7721C46.8737 21.0556 47.4633 21.169 47.9457 20.9989C48.3745 20.8855 48.5889 20.4886 48.3209 20.2051Z" fill="#160C0D"/>
<path d="M50.0383 18.7889C49.5559 18.6188 48.9663 18.7322 48.6983 19.0157C48.4303 19.2992 48.5375 19.6961 49.0199 19.8662C49.5023 20.0363 50.0919 19.9229 50.3599 19.6394C50.6279 19.2992 50.4671 18.959 50.0383 18.7889Z" fill="#160C0D"/>
<path d="M50.3036 17.0312C49.7676 17.0312 49.2852 17.3147 49.2852 17.5982C49.2852 17.9384 49.714 18.2219 50.25 18.2219C50.786 18.2219 51.2684 17.9384 51.2684 17.6549C51.322 17.3147 50.8932 17.0312 50.3036 17.0312Z" fill="#160C0D"/>
<path d="M49.1801 15.4432C48.6977 15.6133 48.5369 15.9535 48.8049 16.237C49.0729 16.5205 49.6625 16.6339 50.1449 16.4638C50.6274 16.2937 50.7882 15.9535 50.5202 15.67C50.2521 15.3865 49.6625 15.2731 49.1801 15.4432Z" fill="#160C0D"/>
<path d="M46.8194 14.3655C46.5513 14.649 46.6585 15.0459 47.141 15.216C47.6234 15.3861 48.213 15.2727 48.481 14.9892C48.749 14.7057 48.6418 14.3088 48.1594 14.1387C47.7306 14.0253 47.141 14.082 46.8194 14.3655Z" fill="#160C0D"/>
<path d="M43.9805 14.1959C43.9805 14.5361 44.4093 14.8196 44.9453 14.8196C45.4813 14.8196 45.9637 14.5361 45.9637 14.2526C45.9637 13.9124 45.5349 13.6289 44.9989 13.6289C44.4093 13.6289 43.9805 13.8557 43.9805 14.1959Z" fill="#160C0D"/>
<path d="M36.8486 19.5264C37.3846 19.413 37.7062 19.1295 37.5454 18.7893C37.3846 18.4491 36.8486 18.279 36.3126 18.3924C35.7766 18.5058 35.4549 18.7893 35.6158 19.1295C35.7766 19.413 36.3126 19.5831 36.8486 19.5264Z" fill="#160C0D"/>
<path d="M38.4018 21.0557C38.8306 20.8856 38.9378 20.4887 38.6698 20.2052C38.3482 19.9217 37.7585 19.865 37.2761 20.0351C36.7937 20.2052 36.7401 20.6021 37.0081 20.8856C37.3297 21.1691 37.9194 21.2258 38.4018 21.0557Z" fill="#160C0D"/>
<path d="M40.7091 22.1903C41.0307 21.9068 40.9235 21.5666 40.4947 21.3398C40.0659 21.1697 39.4227 21.2264 39.1011 21.5099C38.7794 21.7934 38.8867 22.1336 39.3155 22.3604C39.7979 22.5305 40.3875 22.4738 40.7091 22.1903Z" fill="#160C0D"/>
<path d="M43.5493 22.7576C43.7102 22.4174 43.3885 22.1339 42.8525 22.0205C42.3165 21.9638 41.7805 22.1339 41.6197 22.4741C41.4589 22.8143 41.7805 23.0978 42.3165 23.2112C42.8525 23.2679 43.3885 23.0411 43.5493 22.7576Z" fill="#160C0D"/>
<path d="M46.4995 22.6998C46.4459 22.3596 45.9635 22.1328 45.4275 22.1328C44.8915 22.1895 44.4626 22.473 44.5163 22.8132C44.5699 23.1534 45.0523 23.3802 45.5883 23.3802C46.1779 23.3235 46.5531 23.04 46.4995 22.6998Z" fill="#160C0D"/>
<path d="M53.3578 17.4277C52.8218 17.4277 52.3394 17.6545 52.2858 17.9947C52.2322 18.3349 52.661 18.6184 53.197 18.6184C53.733 18.6184 54.2155 18.3916 54.2691 18.0514C54.3227 17.7112 53.8938 17.4277 53.3578 17.4277Z" fill="#160C0D"/>
<path d="M52.7657 15.6124C52.2297 15.7258 51.9081 16.0093 52.0689 16.3495C52.2297 16.6897 52.7657 16.8598 53.3017 16.7464C53.8378 16.633 54.1594 16.3495 53.9986 16.0093C53.8378 15.7258 53.3017 15.5557 52.7657 15.6124Z" fill="#160C0D"/>
<path d="M51.2149 14.082C50.7861 14.2521 50.6789 14.649 50.9469 14.9325C51.2685 15.216 51.8581 15.2727 52.3406 15.1026C52.823 14.9325 52.8766 14.5356 52.6086 14.2521C52.2869 13.9686 51.6973 13.9119 51.2149 14.082Z" fill="#160C0D"/>
<path d="M48.9097 12.9494C48.588 13.2329 48.6952 13.5731 49.1241 13.7999C49.5529 13.97 50.1961 13.9132 50.5177 13.6298C50.8393 13.3463 50.7321 13.0061 50.3033 12.7793C49.8209 12.6092 49.2313 12.6659 48.9097 12.9494Z" fill="#160C0D"/>
<path d="M46.0689 12.3823C45.9081 12.7225 46.2297 13.006 46.7657 13.1194C47.3017 13.2328 47.8378 13.006 47.9986 12.6658C48.1594 12.3256 47.8378 12.0421 47.3017 11.9287C46.7657 11.872 46.2297 12.0421 46.0689 12.3823Z" fill="#160C0D"/>
<path d="M34.3291 14.5927C34.8116 14.7628 35.4012 14.6494 35.6692 14.3659C35.9372 14.0825 35.7764 13.6856 35.294 13.5155C34.8116 13.3454 34.2219 13.4588 33.9539 13.7423C33.7395 14.0258 33.9003 14.4227 34.3291 14.5927Z" fill="#160C0D"/>
<path d="M33.4181 16.351C33.9541 16.4077 34.4901 16.2376 34.6509 15.8974C34.8117 15.5572 34.4901 15.2738 33.9541 15.1604C33.4181 15.047 32.882 15.2737 32.7212 15.6139C32.5604 15.9541 32.882 16.2376 33.4181 16.351Z" fill="#160C0D"/>
<path d="M33.2578 18.1653C33.7938 18.1653 34.2226 17.8819 34.2226 17.5417C34.2226 17.2015 33.7938 16.918 33.2578 16.918C32.7218 16.918 32.293 17.2015 32.293 17.5417C32.293 17.9386 32.7218 18.1653 33.2578 18.1653Z" fill="#160C0D"/>
<path d="M33.8994 19.9795C34.4354 19.8661 34.757 19.5826 34.5962 19.2424C34.4354 18.9022 33.8994 18.7321 33.3634 18.8455C32.8273 18.9589 32.5057 19.2424 32.6665 19.5826C32.8273 19.8661 33.3634 20.0929 33.8994 19.9795Z" fill="#160C0D"/>
<path d="M35.2934 21.624C35.7758 21.4539 35.9366 21.1137 35.6686 20.7735C35.4006 20.49 34.811 20.3766 34.3285 20.5467C33.8461 20.7168 33.6853 21.057 33.9533 21.3972C34.2213 21.6807 34.811 21.7941 35.2934 21.624Z" fill="#160C0D"/>
<path d="M37.3313 22.9835C37.7065 22.7567 37.7065 22.3598 37.3313 22.133C36.9561 21.9062 36.3129 21.9062 35.9377 22.133C35.5624 22.3598 35.5624 22.7567 35.9377 22.9835C36.3129 23.2103 36.9561 23.2103 37.3313 22.9835Z" fill="#160C0D"/>
<path d="M39.8522 24.0046C40.1202 23.7211 39.9594 23.3242 39.477 23.1541C38.9946 22.984 38.4049 23.0974 38.1369 23.3809C37.8689 23.6644 38.0297 24.0613 38.5121 24.2314C38.9946 24.3448 39.5842 24.2881 39.8522 24.0046Z" fill="#160C0D"/>
<path d="M42.7486 24.5154C42.9094 24.1752 42.5878 23.8917 42.0517 23.7783C41.5157 23.7216 40.9797 23.8917 40.8189 24.2319C40.6581 24.5721 40.9797 24.8556 41.5157 24.969C42.0517 25.0257 42.5878 24.8556 42.7486 24.5154Z" fill="#160C0D"/>
<path d="M45.75 24.6276C45.75 24.2874 45.3212 24.0039 44.7852 24.0039C44.2491 24.0039 43.8203 24.2874 43.8203 24.6276C43.8203 24.9678 44.2491 25.2513 44.7852 25.2513C45.3212 25.1946 45.75 24.9678 45.75 24.6276Z" fill="#160C0D"/>
<path d="M48.6939 24.2307C48.5331 23.8905 47.997 23.7204 47.461 23.8338C46.925 23.9472 46.6034 24.2307 46.7642 24.5709C46.925 24.9111 47.461 25.0812 47.997 24.9678C48.5331 24.8544 48.8547 24.5142 48.6939 24.2307Z" fill="#160C0D"/>
<path d="M56.2002 18.7893C55.6641 18.6759 55.1281 18.9027 54.9673 19.2429C54.8065 19.583 55.1281 19.8665 55.6641 19.9799C56.2002 20.0933 56.7362 19.8665 56.897 19.5264C57.0578 19.1862 56.7362 18.846 56.2002 18.7893Z" fill="#160C0D"/>
<path d="M56.3594 16.918C55.8233 16.918 55.3945 17.2015 55.3945 17.5417C55.3945 17.8819 55.8233 18.1653 56.3594 18.1653C56.8954 18.1653 57.3242 17.8819 57.3242 17.5417C57.3242 17.2015 56.8954 16.918 56.3594 16.918Z" fill="#160C0D"/>
<path d="M55.7188 15.16C55.1828 15.2734 54.8612 15.5569 55.022 15.8971C55.1828 16.2373 55.7188 16.4074 56.2549 16.294C56.7909 16.1806 57.1125 15.8971 56.9517 15.5569C56.7909 15.2167 56.2549 15.0466 55.7188 15.16Z" fill="#160C0D"/>
<path d="M54.3207 13.5155C53.8383 13.6856 53.6775 14.0258 53.9455 14.3659C54.2135 14.6494 54.8031 14.7628 55.2856 14.5927C55.768 14.4227 55.9288 14.0825 55.6608 13.7423C55.3928 13.4588 54.8032 13.3454 54.3207 13.5155Z" fill="#160C0D"/>
<path d="M52.2853 12.1545C51.9101 12.3813 51.9101 12.7782 52.2853 13.005C52.6605 13.2318 53.3038 13.2318 53.679 13.005C54.0542 12.7782 54.0542 12.3813 53.679 12.1545C53.3038 11.9277 52.6605 11.9277 52.2853 12.1545Z" fill="#160C0D"/>
<path d="M49.7658 11.1331C49.4978 11.4166 49.6586 11.8135 50.141 11.9836C50.6235 12.1537 51.2131 12.0403 51.4811 11.7568C51.7491 11.4733 51.5883 11.0764 51.1059 10.9063C50.6235 10.7929 50.0338 10.8496 49.7658 11.1331Z" fill="#160C0D"/>
<path d="M46.8736 10.6245C46.7128 10.9647 47.0344 11.2482 47.5704 11.3616C48.1064 11.475 48.6424 11.2482 48.8033 10.908C48.9641 10.5678 48.6424 10.2843 48.1064 10.1709C47.5704 10.1142 47.0344 10.2843 46.8736 10.6245Z" fill="#160C0D"/>
<path d="M43.8711 10.5104C43.8711 10.8506 44.2999 11.1341 44.8359 11.1341C45.372 11.1341 45.8008 10.8506 45.8008 10.5104C45.8008 10.1702 45.372 9.88672 44.8359 9.88672C44.2999 9.94342 43.8711 10.1702 43.8711 10.5104Z" fill="#160C0D"/>
<path d="M40.9244 10.9068C41.0852 11.247 41.6212 11.4171 42.1572 11.3037C42.6932 11.1903 43.0148 10.9068 42.854 10.5666C42.6932 10.2264 42.1572 10.0564 41.6212 10.1698C41.0852 10.2831 40.7635 10.6233 40.9244 10.9068Z" fill="#160C0D"/>
<path d="M38.2424 11.7585C38.5104 12.042 39.1 12.1554 39.5824 11.9853C40.0649 11.8152 40.2257 11.475 39.9577 11.1348C39.6896 10.8513 39.1 10.7379 38.6176 10.908C38.1352 11.1348 37.9744 11.475 38.2424 11.7585Z" fill="#160C0D"/>
<path d="M38.342 16.9737L43.7559 13.6852C44.4527 13.2883 44.3455 12.5512 43.5414 12.0409C42.7374 11.5873 41.5582 11.5306 40.9149 11.9275L35.5011 15.2161C34.8043 15.613 34.9115 16.35 35.7155 16.8603C36.466 17.3139 37.6452 17.3706 38.342 16.9737Z" fill="#2E2E30"/>
<path d="M38.1797 16.917L43.6471 13.5717C44.2904 13.1748 44.1832 12.5512 43.4863 12.0976C42.7895 11.644 41.6639 11.5873 41.0742 11.9842L35.6068 15.3294C34.9636 15.7263 35.0708 16.35 35.7676 16.8036C36.4644 17.2572 37.5365 17.2572 38.1797 16.917Z" fill="#424244"/>
<path d="M40.7547 13.7411C41.3443 14.138 42.3628 14.0813 42.9524 13.7411C43.542 13.3442 43.542 12.7772 42.9524 12.3803C42.3628 11.9834 41.3443 12.0401 40.7547 12.3803C40.1651 12.7772 40.1651 13.3442 40.7547 13.7411Z" fill="#2E2E30"/>
<path d="M36.2 16.5204C36.7897 16.9173 37.8081 16.8606 38.3977 16.5204C38.9873 16.1235 38.9873 15.5565 38.3977 15.1596C37.8081 14.7627 36.7897 14.8194 36.2 15.1596C35.6104 15.5565 35.6104 16.1235 36.2 16.5204Z" fill="#2E2E30"/>
<path d="M36.3044 16.52C36.8404 16.8602 37.698 16.8602 38.234 16.52C38.7701 16.1799 38.7701 15.6696 38.234 15.3294C37.698 14.9892 36.8404 14.9892 36.3044 15.3294C35.7683 15.6696 35.7683 16.1799 36.3044 16.52Z" fill="#484849"/>
<path d="M40.9137 13.7427C41.4498 14.0829 42.3074 14.0829 42.8434 13.7427C43.3794 13.4025 43.3794 12.8922 42.8434 12.552C42.3074 12.2118 41.4498 12.2118 40.9137 12.552C40.3777 12.8922 40.3777 13.4025 40.9137 13.7427Z" fill="#484849"/>
<path d="M41.022 13.5711C41.5044 13.8546 42.2548 13.8546 42.7372 13.5711C43.2197 13.2876 43.2197 12.834 42.7372 12.5505C42.2548 12.267 41.5044 12.267 41.022 12.5505C40.5396 12.834 40.5396 13.2876 41.022 13.5711Z" fill="#575758"/>
<path d="M36.4115 16.407C36.8939 16.6905 37.6443 16.6905 38.1267 16.407C38.6091 16.1235 38.6091 15.6699 38.1267 15.3864C37.6443 15.103 36.8939 15.103 36.4115 15.3864C35.9826 15.6132 35.9826 16.1235 36.4115 16.407Z" fill="#575758"/>
<path d="M41.7732 13.5145L42.47 13.0609L41.8804 12.7207L41.1836 13.1176L41.7732 13.5145Z" fill="#DCDADB"/>
<path d="M37.2185 16.3504L37.9154 15.8968L37.3257 15.5566L36.6289 15.9535L37.2185 16.3504Z" fill="#DCDADB"/>
<path d="M61.1302 47.1382C61.3078 47.1382 61.4518 46.8082 61.4518 46.4011C61.4518 45.9941 61.3078 45.6641 61.1302 45.6641C60.9526 45.6641 60.8086 45.9941 60.8086 46.4011C60.8086 46.8082 60.9526 47.1382 61.1302 47.1382Z" fill="black"/>
<path d="M61.1302 49.4058C61.3078 49.4058 61.4518 49.0758 61.4518 48.6687C61.4518 48.2616 61.3078 47.9316 61.1302 47.9316C60.9526 47.9316 60.8086 48.2616 60.8086 48.6687C60.8086 49.0758 60.9526 49.4058 61.1302 49.4058Z" fill="black"/>
<path d="M61.1302 51.6734C61.3078 51.6734 61.4518 51.3434 61.4518 50.9363C61.4518 50.5292 61.3078 50.1992 61.1302 50.1992C60.9526 50.1992 60.8086 50.5292 60.8086 50.9363C60.8086 51.3434 60.9526 51.6734 61.1302 51.6734Z" fill="black"/>
<path d="M61.1302 53.9429C61.3078 53.9429 61.4518 53.6129 61.4518 53.2058C61.4518 52.7988 61.3078 52.4688 61.1302 52.4688C60.9526 52.4688 60.8086 52.7988 60.8086 53.2058C60.8086 53.6129 60.9526 53.9429 61.1302 53.9429Z" fill="black"/>
<path d="M61.1302 56.1539C61.3078 56.1539 61.4518 55.8239 61.4518 55.4168C61.4518 55.0097 61.3078 54.6797 61.1302 54.6797C60.9526 54.6797 60.8086 55.0097 60.8086 55.4168C60.8086 55.8239 60.9526 56.1539 61.1302 56.1539Z" fill="black"/>
<path d="M61.1302 58.4214C61.3078 58.4214 61.4518 58.0914 61.4518 57.6844C61.4518 57.2773 61.3078 56.9473 61.1302 56.9473C60.9526 56.9473 60.8086 57.2773 60.8086 57.6844C60.8086 58.0914 60.9526 58.4214 61.1302 58.4214Z" fill="black"/>
<path d="M61.1302 60.689C61.3078 60.689 61.4518 60.359 61.4518 59.9519C61.4518 59.5449 61.3078 59.2148 61.1302 59.2148C60.9526 59.2148 60.8086 59.5449 60.8086 59.9519C60.8086 60.359 60.9526 60.689 61.1302 60.689Z" fill="black"/>
<path d="M61.1302 62.9566C61.3078 62.9566 61.4518 62.6266 61.4518 62.2195C61.4518 61.8124 61.3078 61.4824 61.1302 61.4824C60.9526 61.4824 60.8086 61.8124 60.8086 62.2195C60.8086 62.6266 60.9526 62.9566 61.1302 62.9566Z" fill="black"/>
<path d="M61.1302 65.2261C61.3078 65.2261 61.4518 64.8961 61.4518 64.489C61.4518 64.082 61.3078 63.752 61.1302 63.752C60.9526 63.752 60.8086 64.082 60.8086 64.489C60.8086 64.8961 60.9526 65.2261 61.1302 65.2261Z" fill="black"/>
<path d="M60.3255 50.9937C60.5031 50.9937 60.6471 50.6637 60.6471 50.2566C60.6471 49.8495 60.5031 49.5195 60.3255 49.5195C60.1479 49.5195 60.0039 49.8495 60.0039 50.2566C60.0039 50.6637 60.1479 50.9937 60.3255 50.9937Z" fill="black"/>
<path d="M60.3255 53.2613C60.5031 53.2613 60.6471 52.9313 60.6471 52.5242C60.6471 52.1171 60.5031 51.7871 60.3255 51.7871C60.1479 51.7871 60.0039 52.1171 60.0039 52.5242C60.0039 52.9313 60.1479 53.2613 60.3255 53.2613Z" fill="black"/>
<path d="M60.3255 55.5289C60.5031 55.5289 60.6471 55.1989 60.6471 54.7918C60.6471 54.3847 60.5031 54.0547 60.3255 54.0547C60.1479 54.0547 60.0039 54.3847 60.0039 54.7918C60.0039 55.1989 60.1479 55.5289 60.3255 55.5289Z" fill="black"/>
<path d="M60.3255 57.7984C60.5031 57.7984 60.6471 57.4684 60.6471 57.0613C60.6471 56.6542 60.5031 56.3242 60.3255 56.3242C60.1479 56.3242 60.0039 56.6542 60.0039 57.0613C60.0039 57.4684 60.1479 57.7984 60.3255 57.7984Z" fill="black"/>
<path d="M60.3255 60.066C60.5031 60.066 60.6471 59.736 60.6471 59.3289C60.6471 58.9218 60.5031 58.5918 60.3255 58.5918C60.1479 58.5918 60.0039 58.9218 60.0039 59.3289C60.0039 59.736 60.1479 60.066 60.3255 60.066Z" fill="black"/>
<path d="M60.3255 62.3335C60.5031 62.3335 60.6471 62.0035 60.6471 61.5965C60.6471 61.1894 60.5031 60.8594 60.3255 60.8594C60.1479 60.8594 60.0039 61.1894 60.0039 61.5965C60.0039 62.0035 60.1479 62.3335 60.3255 62.3335Z" fill="black"/>
<path d="M60.3255 64.6011C60.5031 64.6011 60.6471 64.2711 60.6471 63.864C60.6471 63.457 60.5031 63.127 60.3255 63.127C60.1479 63.127 60.0039 63.457 60.0039 63.864C60.0039 64.2711 60.1479 64.6011 60.3255 64.6011Z" fill="black"/>
<path d="M60.3255 66.8687C60.5031 66.8687 60.6471 66.5387 60.6471 66.1316C60.6471 65.7245 60.5031 65.3945 60.3255 65.3945C60.1479 65.3945 60.0039 65.7245 60.0039 66.1316C60.0039 66.5387 60.1479 66.8687 60.3255 66.8687Z" fill="black"/>
<path d="M59.5208 50.314C59.6985 50.314 59.8424 49.984 59.8424 49.5769C59.8424 49.1698 59.6985 48.8398 59.5208 48.8398C59.3432 48.8398 59.1992 49.1698 59.1992 49.5769C59.1992 49.984 59.3432 50.314 59.5208 50.314Z" fill="black"/>
<path d="M59.5208 52.5816C59.6985 52.5816 59.8424 52.2516 59.8424 51.8445C59.8424 51.4374 59.6985 51.1074 59.5208 51.1074C59.3432 51.1074 59.1992 51.4374 59.1992 51.8445C59.1992 52.2516 59.3432 52.5816 59.5208 52.5816Z" fill="black"/>
<path d="M59.5208 54.8492C59.6985 54.8492 59.8424 54.5192 59.8424 54.1121C59.8424 53.705 59.6985 53.375 59.5208 53.375C59.3432 53.375 59.1992 53.705 59.1992 54.1121C59.1992 54.5192 59.3432 54.8492 59.5208 54.8492Z" fill="black"/>
<path d="M59.5208 57.1187C59.6985 57.1187 59.8424 56.7887 59.8424 56.3816C59.8424 55.9745 59.6985 55.6445 59.5208 55.6445C59.3432 55.6445 59.1992 55.9745 59.1992 56.3816C59.1992 56.7887 59.3432 57.1187 59.5208 57.1187Z" fill="black"/>
<path d="M59.5208 59.3863C59.6985 59.3863 59.8424 59.0563 59.8424 58.6492C59.8424 58.2421 59.6985 57.9121 59.5208 57.9121C59.3432 57.9121 59.1992 58.2421 59.1992 58.6492C59.1992 59.0563 59.3432 59.3863 59.5208 59.3863Z" fill="black"/>
<path d="M59.5208 61.6539C59.6985 61.6539 59.8424 61.3239 59.8424 60.9168C59.8424 60.5097 59.6985 60.1797 59.5208 60.1797C59.3432 60.1797 59.1992 60.5097 59.1992 60.9168C59.1992 61.3239 59.3432 61.6539 59.5208 61.6539Z" fill="black"/>
<path d="M59.5208 63.9214C59.6985 63.9214 59.8424 63.5914 59.8424 63.1844C59.8424 62.7773 59.6985 62.4473 59.5208 62.4473C59.3432 62.4473 59.1992 62.7773 59.1992 63.1844C59.1992 63.5914 59.3432 63.9214 59.5208 63.9214Z" fill="black"/>
<path d="M59.5208 66.189C59.6985 66.189 59.8424 65.859 59.8424 65.4519C59.8424 65.0448 59.6985 64.7148 59.5208 64.7148C59.3432 64.7148 59.1992 65.0448 59.1992 65.4519C59.1992 65.859 59.3432 66.189 59.5208 66.189Z" fill="black"/>
<path d="M59.5208 68.4585C59.6985 68.4585 59.8424 68.1285 59.8424 67.7215C59.8424 67.3144 59.6985 66.9844 59.5208 66.9844C59.3432 66.9844 59.1992 67.3144 59.1992 67.7215C59.1992 68.1285 59.3432 68.4585 59.5208 68.4585Z" fill="black"/>
<path d="M58.6096 52.0718C58.8168 52.0718 58.9848 51.7418 58.9848 51.3347C58.9848 50.9277 58.8168 50.5977 58.6096 50.5977C58.4024 50.5977 58.2344 50.9277 58.2344 51.3347C58.2344 51.7418 58.4024 52.0718 58.6096 52.0718Z" fill="black"/>
<path d="M58.6096 54.3394C58.8168 54.3394 58.9848 54.0094 58.9848 53.6023C58.9848 53.1952 58.8168 52.8652 58.6096 52.8652C58.4024 52.8652 58.2344 53.1952 58.2344 53.6023C58.2344 54.0094 58.4024 54.3394 58.6096 54.3394Z" fill="black"/>
<path d="M58.6096 56.607C58.8168 56.607 58.9848 56.277 58.9848 55.8699C58.9848 55.4628 58.8168 55.1328 58.6096 55.1328C58.4024 55.1328 58.2344 55.4628 58.2344 55.8699C58.2344 56.277 58.4024 56.607 58.6096 56.607Z" fill="black"/>
<path d="M58.6096 58.8765C58.8168 58.8765 58.9848 58.5465 58.9848 58.1394C58.9848 57.7323 58.8168 57.4023 58.6096 57.4023C58.4024 57.4023 58.2344 57.7323 58.2344 58.1394C58.2344 58.5465 58.4024 58.8765 58.6096 58.8765Z" fill="black"/>
<path d="M58.6096 61.1441C58.8168 61.1441 58.9848 60.8141 58.9848 60.407C58.9848 59.9999 58.8168 59.6699 58.6096 59.6699C58.4024 59.6699 58.2344 59.9999 58.2344 60.407C58.2344 60.8141 58.4024 61.1441 58.6096 61.1441Z" fill="black"/>
<path d="M58.6096 63.4117C58.8168 63.4117 58.9848 63.0817 58.9848 62.6746C58.9848 62.2675 58.8168 61.9375 58.6096 61.9375C58.4024 61.9375 58.2344 62.2675 58.2344 62.6746C58.2344 63.0817 58.4024 63.4117 58.6096 63.4117Z" fill="black"/>
<path d="M58.6096 65.7359C58.8168 65.7359 58.9848 65.4059 58.9848 64.9988C58.9848 64.5917 58.8168 64.2617 58.6096 64.2617C58.4024 64.2617 58.2344 64.5917 58.2344 64.9988C58.2344 65.4059 58.4024 65.7359 58.6096 65.7359Z" fill="black"/>
<path d="M58.6096 68.0034C58.8168 68.0034 58.9848 67.6735 58.9848 67.2664C58.9848 66.8593 58.8168 66.5293 58.6096 66.5293C58.4024 66.5293 58.2344 66.8593 58.2344 67.2664C58.2344 67.6735 58.4024 68.0034 58.6096 68.0034Z" fill="black"/>
<path d="M57.6994 51.73C57.9067 51.73 58.0747 51.4 58.0747 50.9929C58.0747 50.5859 57.9067 50.2559 57.6994 50.2559C57.4922 50.2559 57.3242 50.5859 57.3242 50.9929C57.3242 51.4 57.4922 51.73 57.6994 51.73Z" fill="black"/>
<path d="M57.6994 53.9976C57.9067 53.9976 58.0747 53.6676 58.0747 53.2605C58.0747 52.8534 57.9067 52.5234 57.6994 52.5234C57.4922 52.5234 57.3242 52.8534 57.3242 53.2605C57.3242 53.6676 57.4922 53.9976 57.6994 53.9976Z" fill="black"/>
<path d="M57.6994 56.2652C57.9067 56.2652 58.0747 55.9352 58.0747 55.5281C58.0747 55.121 57.9067 54.791 57.6994 54.791C57.4922 54.791 57.3242 55.121 57.3242 55.5281C57.3242 55.9352 57.4922 56.2652 57.6994 56.2652Z" fill="black"/>
<path d="M57.6994 58.5347C57.9067 58.5347 58.0747 58.2047 58.0747 57.7976C58.0747 57.3906 57.9067 57.0605 57.6994 57.0605C57.4922 57.0605 57.3242 57.3906 57.3242 57.7976C57.3242 58.2047 57.4922 58.5347 57.6994 58.5347Z" fill="black"/>
<path d="M57.6994 60.8023C57.9067 60.8023 58.0747 60.4723 58.0747 60.0652C58.0747 59.6581 57.9067 59.3281 57.6994 59.3281C57.4922 59.3281 57.3242 59.6581 57.3242 60.0652C57.3242 60.4723 57.4922 60.8023 57.6994 60.8023Z" fill="black"/>
<path d="M57.6994 63.0699C57.9067 63.0699 58.0747 62.7399 58.0747 62.3328C58.0747 61.9257 57.9067 61.5957 57.6994 61.5957C57.4922 61.5957 57.3242 61.9257 57.3242 62.3328C57.3242 62.7399 57.4922 63.0699 57.6994 63.0699Z" fill="black"/>
<path d="M57.6994 65.3375C57.9067 65.3375 58.0747 65.0074 58.0747 64.6004C58.0747 64.1933 57.9067 63.8633 57.6994 63.8633C57.4922 63.8633 57.3242 64.1933 57.3242 64.6004C57.3242 65.0074 57.4922 65.3375 57.6994 65.3375Z" fill="black"/>
<path d="M57.6994 67.605C57.9067 67.605 58.0747 67.275 58.0747 66.8679C58.0747 66.4609 57.9067 66.1309 57.6994 66.1309C57.4922 66.1309 57.3242 66.4609 57.3242 66.8679C57.3242 67.275 57.4922 67.605 57.6994 67.605Z" fill="black"/>
<path d="M57.6994 69.8746C57.9067 69.8746 58.0747 69.5446 58.0747 69.1375C58.0747 68.7304 57.9067 68.4004 57.6994 68.4004C57.4922 68.4004 57.3242 68.7304 57.3242 69.1375C57.3242 69.5446 57.4922 69.8746 57.6994 69.8746Z" fill="black"/>
<path d="M56.5204 53.9429C56.8164 53.9429 57.0564 53.6129 57.0564 53.2058C57.0564 52.7988 56.8164 52.4688 56.5204 52.4688C56.2244 52.4688 55.9844 52.7988 55.9844 53.2058C55.9844 53.6129 56.2244 53.9429 56.5204 53.9429Z" fill="black"/>
<path d="M56.5204 56.2105C56.8164 56.2105 57.0564 55.8805 57.0564 55.4734C57.0564 55.0663 56.8164 54.7363 56.5204 54.7363C56.2244 54.7363 55.9844 55.0663 55.9844 55.4734C55.9844 55.8805 56.2244 56.2105 56.5204 56.2105Z" fill="black"/>
<path d="M56.5204 58.4781C56.8164 58.4781 57.0564 58.1481 57.0564 57.741C57.0564 57.3339 56.8164 57.0039 56.5204 57.0039C56.2244 57.0039 55.9844 57.3339 55.9844 57.741C55.9844 58.1481 56.2244 58.4781 56.5204 58.4781Z" fill="black"/>
<path d="M56.5204 60.7476C56.8164 60.7476 57.0564 60.4176 57.0564 60.0105C57.0564 59.6034 56.8164 59.2734 56.5204 59.2734C56.2244 59.2734 55.9844 59.6034 55.9844 60.0105C55.9844 60.4176 56.2244 60.7476 56.5204 60.7476Z" fill="black"/>
<path d="M56.5204 63.0152C56.8164 63.0152 57.0564 62.6852 57.0564 62.2781C57.0564 61.871 56.8164 61.541 56.5204 61.541C56.2244 61.541 55.9844 61.871 55.9844 62.2781C55.9844 62.6852 56.2244 63.0152 56.5204 63.0152Z" fill="black"/>
<path d="M56.5204 65.2828C56.8164 65.2828 57.0564 64.9528 57.0564 64.5457C57.0564 64.1386 56.8164 63.8086 56.5204 63.8086C56.2244 63.8086 55.9844 64.1386 55.9844 64.5457C55.9844 64.9528 56.2244 65.2828 56.5204 65.2828Z" fill="black"/>
<path d="M56.5204 67.5503C56.8164 67.5503 57.0564 67.2203 57.0564 66.8133C57.0564 66.4062 56.8164 66.0762 56.5204 66.0762C56.2244 66.0762 55.9844 66.4062 55.9844 66.8133C55.9844 67.2203 56.2244 67.5503 56.5204 67.5503Z" fill="black"/>
<path d="M56.5204 69.8179C56.8164 69.8179 57.0564 69.4879 57.0564 69.0808C57.0564 68.6738 56.8164 68.3438 56.5204 68.3438C56.2244 68.3438 55.9844 68.6738 55.9844 69.0808C55.9844 69.4879 56.2244 69.8179 56.5204 69.8179Z" fill="black"/>
<path d="M55.1766 53.148C55.4727 53.148 55.7127 52.818 55.7127 52.4109C55.7127 52.0038 55.4727 51.6738 55.1766 51.6738C54.8806 51.6738 54.6406 52.0038 54.6406 52.4109C54.6406 52.818 54.8806 53.148 55.1766 53.148Z" fill="black"/>
<path d="M55.1766 55.4156C55.4727 55.4156 55.7127 55.0856 55.7127 54.6785C55.7127 54.2714 55.4727 53.9414 55.1766 53.9414C54.8806 53.9414 54.6406 54.2714 54.6406 54.6785C54.6406 55.0856 54.8806 55.4156 55.1766 55.4156Z" fill="black"/>
<path d="M55.1766 57.6832C55.4727 57.6832 55.7127 57.3532 55.7127 56.9461C55.7127 56.539 55.4727 56.209 55.1766 56.209C54.8806 56.209 54.6406 56.539 54.6406 56.9461C54.6406 57.3532 54.8806 57.6832 55.1766 57.6832Z" fill="black"/>
<path d="M55.1766 59.9527C55.4727 59.9527 55.7127 59.6227 55.7127 59.2156C55.7127 58.8085 55.4727 58.4785 55.1766 58.4785C54.8806 58.4785 54.6406 58.8085 54.6406 59.2156C54.6406 59.6227 54.8806 59.9527 55.1766 59.9527Z" fill="black"/>
<path d="M55.1766 62.2203C55.4727 62.2203 55.7127 61.8903 55.7127 61.4832C55.7127 61.0761 55.4727 60.7461 55.1766 60.7461C54.8806 60.7461 54.6406 61.0761 54.6406 61.4832C54.6406 61.8903 54.8806 62.2203 55.1766 62.2203Z" fill="black"/>
<path d="M55.1766 64.4878C55.4727 64.4878 55.7127 64.1578 55.7127 63.7508C55.7127 63.3437 55.4727 63.0137 55.1766 63.0137C54.8806 63.0137 54.6406 63.3437 54.6406 63.7508C54.6406 64.1578 54.8806 64.4878 55.1766 64.4878Z" fill="black"/>
<path d="M55.1766 66.7554C55.4727 66.7554 55.7127 66.4254 55.7127 66.0183C55.7127 65.6112 55.4727 65.2812 55.1766 65.2812C54.8806 65.2812 54.6406 65.6112 54.6406 66.0183C54.6406 66.4254 54.8806 66.7554 55.1766 66.7554Z" fill="black"/>
<path d="M55.1766 68.9664C55.4727 68.9664 55.7127 68.6364 55.7127 68.2293C55.7127 67.8222 55.4727 67.4922 55.1766 67.4922C54.8806 67.4922 54.6406 67.8222 54.6406 68.2293C54.6406 68.6364 54.8806 68.9664 55.1766 68.9664Z" fill="black"/>
<path d="M55.1766 71.2359C55.4727 71.2359 55.7127 70.9059 55.7127 70.4988C55.7127 70.0917 55.4727 69.7617 55.1766 69.7617C54.8806 69.7617 54.6406 70.0917 54.6406 70.4988C54.6406 70.9059 54.8806 71.2359 55.1766 71.2359Z" fill="black"/>
<path d="M53.8407 55.0191C54.1367 55.0191 54.3767 54.6891 54.3767 54.282C54.3767 53.8749 54.1367 53.5449 53.8407 53.5449C53.5447 53.5449 53.3047 53.8749 53.3047 54.282C53.3047 54.6891 53.5447 55.0191 53.8407 55.0191Z" fill="black"/>
<path d="M53.8407 57.2867C54.1367 57.2867 54.3767 56.9567 54.3767 56.5496C54.3767 56.1425 54.1367 55.8125 53.8407 55.8125C53.5447 55.8125 53.3047 56.1425 53.3047 56.5496C53.3047 56.9567 53.5447 57.2867 53.8407 57.2867Z" fill="black"/>
<path d="M53.8407 59.5542C54.1367 59.5542 54.3767 59.2242 54.3767 58.8172C54.3767 58.4101 54.1367 58.0801 53.8407 58.0801C53.5447 58.0801 53.3047 58.4101 53.3047 58.8172C53.3047 59.2242 53.5447 59.5542 53.8407 59.5542Z" fill="black"/>
<path d="M53.8407 61.8238C54.1367 61.8238 54.3767 61.4938 54.3767 61.0867C54.3767 60.6796 54.1367 60.3496 53.8407 60.3496C53.5447 60.3496 53.3047 60.6796 53.3047 61.0867C53.3047 61.4938 53.5447 61.8238 53.8407 61.8238Z" fill="black"/>
<path d="M53.8407 64.0914C54.1367 64.0914 54.3767 63.7614 54.3767 63.3543C54.3767 62.9472 54.1367 62.6172 53.8407 62.6172C53.5447 62.6172 53.3047 62.9472 53.3047 63.3543C53.3047 63.7614 53.5447 64.0914 53.8407 64.0914Z" fill="black"/>
<path d="M53.8407 66.3589C54.1367 66.3589 54.3767 66.0289 54.3767 65.6219C54.3767 65.2148 54.1367 64.8848 53.8407 64.8848C53.5447 64.8848 53.3047 65.2148 53.3047 65.6219C53.3047 66.0289 53.5447 66.3589 53.8407 66.3589Z" fill="black"/>
<path d="M53.8407 68.6265C54.1367 68.6265 54.3767 68.2965 54.3767 67.8894C54.3767 67.4824 54.1367 67.1523 53.8407 67.1523C53.5447 67.1523 53.3047 67.4824 53.3047 67.8894C53.3047 68.2965 53.5447 68.6265 53.8407 68.6265Z" fill="black"/>
<path d="M53.8407 70.8941C54.1367 70.8941 54.3767 70.5641 54.3767 70.157C54.3767 69.7499 54.1367 69.4199 53.8407 69.4199C53.5447 69.4199 53.3047 69.7499 53.3047 70.157C53.3047 70.5641 53.5447 70.8941 53.8407 70.8941Z" fill="black"/>
<path d="M52.1773 54.4527C52.5621 54.4527 52.8741 54.1227 52.8741 53.7156C52.8741 53.3085 52.5621 52.9785 52.1773 52.9785C51.7925 52.9785 51.4805 53.3085 51.4805 53.7156C51.4805 54.1227 51.7925 54.4527 52.1773 54.4527Z" fill="black"/>
<path d="M52.1773 56.7203C52.5621 56.7203 52.8741 56.3903 52.8741 55.9832C52.8741 55.5761 52.5621 55.2461 52.1773 55.2461C51.7925 55.2461 51.4805 55.5761 51.4805 55.9832C51.4805 56.3903 51.7925 56.7203 52.1773 56.7203Z" fill="black"/>
<path d="M52.1773 58.9878C52.5621 58.9878 52.8741 58.6578 52.8741 58.2508C52.8741 57.8437 52.5621 57.5137 52.1773 57.5137C51.7925 57.5137 51.4805 57.8437 51.4805 58.2508C51.4805 58.6578 51.7925 58.9878 52.1773 58.9878Z" fill="black"/>
<path d="M52.1773 61.2574C52.5621 61.2574 52.8741 60.9274 52.8741 60.5203C52.8741 60.1132 52.5621 59.7832 52.1773 59.7832C51.7925 59.7832 51.4805 60.1132 51.4805 60.5203C51.4805 60.9274 51.7925 61.2574 52.1773 61.2574Z" fill="black"/>
<path d="M52.1773 63.5249C52.5621 63.5249 52.8741 63.195 52.8741 62.7879C52.8741 62.3808 52.5621 62.0508 52.1773 62.0508C51.7925 62.0508 51.4805 62.3808 51.4805 62.7879C51.4805 63.195 51.7925 63.5249 52.1773 63.5249Z" fill="black"/>
<path d="M52.1773 65.7925C52.5621 65.7925 52.8741 65.4625 52.8741 65.0554C52.8741 64.6484 52.5621 64.3184 52.1773 64.3184C51.7925 64.3184 51.4805 64.6484 51.4805 65.0554C51.4805 65.4625 51.7925 65.7925 52.1773 65.7925Z" fill="black"/>
<path d="M52.1773 68.0601C52.5621 68.0601 52.8741 67.7301 52.8741 67.323C52.8741 66.916 52.5621 66.5859 52.1773 66.5859C51.7925 66.5859 51.4805 66.916 51.4805 67.323C51.4805 67.7301 51.7925 68.0601 52.1773 68.0601Z" fill="black"/>
<path d="M52.1773 70.271C52.5621 70.271 52.8741 69.941 52.8741 69.534C52.8741 69.1269 52.5621 68.7969 52.1773 68.7969C51.7925 68.7969 51.4805 69.1269 51.4805 69.534C51.4805 69.941 51.7925 70.271 52.1773 70.271Z" fill="black"/>
<path d="M52.1773 72.5386C52.5621 72.5386 52.8741 72.2086 52.8741 71.8015C52.8741 71.3945 52.5621 71.0645 52.1773 71.0645C51.7925 71.0645 51.4805 71.3945 51.4805 71.8015C51.4805 72.2086 51.7925 72.5386 52.1773 72.5386Z" fill="black"/>
<path d="M50.2984 56.3238C50.6832 56.3238 50.9952 55.9938 50.9952 55.5867C50.9952 55.1796 50.6832 54.8496 50.2984 54.8496C49.9135 54.8496 49.6016 55.1796 49.6016 55.5867C49.6016 55.9938 49.9135 56.3238 50.2984 56.3238Z" fill="black"/>
<path d="M50.2984 58.5914C50.6832 58.5914 50.9952 58.2613 50.9952 57.8543C50.9952 57.4472 50.6832 57.1172 50.2984 57.1172C49.9135 57.1172 49.6016 57.4472 49.6016 57.8543C49.6016 58.2613 49.9135 58.5914 50.2984 58.5914Z" fill="black"/>
<path d="M50.2984 60.8589C50.6832 60.8589 50.9952 60.5289 50.9952 60.1218C50.9952 59.7148 50.6832 59.3848 50.2984 59.3848C49.9135 59.3848 49.6016 59.7148 49.6016 60.1218C49.6016 60.5289 49.9135 60.8589 50.2984 60.8589Z" fill="black"/>
<path d="M50.2984 63.1285C50.6832 63.1285 50.9952 62.7985 50.9952 62.3914C50.9952 61.9843 50.6832 61.6543 50.2984 61.6543C49.9135 61.6543 49.6016 61.9843 49.6016 62.3914C49.6016 62.7985 49.9135 63.1285 50.2984 63.1285Z" fill="black"/>
<path d="M50.2984 65.396C50.6832 65.396 50.9952 65.066 50.9952 64.659C50.9952 64.2519 50.6832 63.9219 50.2984 63.9219C49.9135 63.9219 49.6016 64.2519 49.6016 64.659C49.6016 65.066 49.9135 65.396 50.2984 65.396Z" fill="black"/>
<path d="M50.2984 67.6636C50.6832 67.6636 50.9952 67.3336 50.9952 66.9265C50.9952 66.5195 50.6832 66.1895 50.2984 66.1895C49.9135 66.1895 49.6016 66.5195 49.6016 66.9265C49.6016 67.3336 49.9135 67.6636 50.2984 67.6636Z" fill="black"/>
<path d="M50.2984 69.9312C50.6832 69.9312 50.9952 69.6012 50.9952 69.1941C50.9952 68.787 50.6832 68.457 50.2984 68.457C49.9135 68.457 49.6016 68.787 49.6016 69.1941C49.6016 69.6012 49.9135 69.9312 50.2984 69.9312Z" fill="black"/>
<path d="M50.2984 72.1988C50.6832 72.1988 50.9952 71.8688 50.9952 71.4617C50.9952 71.0546 50.6832 70.7246 50.2984 70.7246C49.9135 70.7246 49.6016 71.0546 49.6016 71.4617C49.6016 71.8688 49.9135 72.1988 50.2984 72.1988Z" fill="black"/>
<path d="M48.4273 55.189C48.8121 55.189 49.1241 54.859 49.1241 54.4519C49.1241 54.0448 48.8121 53.7148 48.4273 53.7148C48.0425 53.7148 47.7305 54.0448 47.7305 54.4519C47.7305 54.859 48.0425 55.189 48.4273 55.189Z" fill="black"/>
<path d="M48.4273 57.4566C48.8121 57.4566 49.1241 57.1266 49.1241 56.7195C49.1241 56.3124 48.8121 55.9824 48.4273 55.9824C48.0425 55.9824 47.7305 56.3124 47.7305 56.7195C47.7305 57.1266 48.0425 57.4566 48.4273 57.4566Z" fill="black"/>
<path d="M48.4273 59.7242C48.8121 59.7242 49.1241 59.3942 49.1241 58.9871C49.1241 58.58 48.8121 58.25 48.4273 58.25C48.0425 58.25 47.7305 58.58 47.7305 58.9871C47.7305 59.3942 48.0425 59.7242 48.4273 59.7242Z" fill="black"/>
<path d="M48.4273 61.9937C48.8121 61.9937 49.1241 61.6637 49.1241 61.2566C49.1241 60.8495 48.8121 60.5195 48.4273 60.5195C48.0425 60.5195 47.7305 60.8495 47.7305 61.2566C47.7305 61.6637 48.0425 61.9937 48.4273 61.9937Z" fill="black"/>
<path d="M48.4273 64.2613C48.8121 64.2613 49.1241 63.9313 49.1241 63.5242C49.1241 63.1171 48.8121 62.7871 48.4273 62.7871C48.0425 62.7871 47.7305 63.1171 47.7305 63.5242C47.7305 63.9313 48.0425 64.2613 48.4273 64.2613Z" fill="black"/>
<path d="M48.4273 66.5289C48.8121 66.5289 49.1241 66.1988 49.1241 65.7918C49.1241 65.3847 48.8121 65.0547 48.4273 65.0547C48.0425 65.0547 47.7305 65.3847 47.7305 65.7918C47.7305 66.1988 48.0425 66.5289 48.4273 66.5289Z" fill="black"/>
<path d="M48.4273 68.7964C48.8121 68.7964 49.1241 68.4664 49.1241 68.0593C49.1241 67.6523 48.8121 67.3223 48.4273 67.3223C48.0425 67.3223 47.7305 67.6523 47.7305 68.0593C47.7305 68.4664 48.0425 68.7964 48.4273 68.7964Z" fill="black"/>
<path d="M48.4273 71.064C48.8121 71.064 49.1241 70.734 49.1241 70.3269C49.1241 69.9198 48.8121 69.5898 48.4273 69.5898C48.0425 69.5898 47.7305 69.9198 47.7305 70.3269C47.7305 70.734 48.0425 71.064 48.4273 71.064Z" fill="black"/>
<path d="M48.4273 73.3335C48.8121 73.3335 49.1241 73.0035 49.1241 72.5965C49.1241 72.1894 48.8121 71.8594 48.4273 71.8594C48.0425 71.8594 47.7305 72.1894 47.7305 72.5965C47.7305 73.0035 48.0425 73.3335 48.4273 73.3335Z" fill="black"/>
<path d="M46.5992 56.7203C46.984 56.7203 47.296 56.3903 47.296 55.9832C47.296 55.5761 46.984 55.2461 46.5992 55.2461C46.2143 55.2461 45.9023 55.5761 45.9023 55.9832C45.9023 56.3903 46.2143 56.7203 46.5992 56.7203Z" fill="black"/>
<path d="M46.5992 58.9878C46.984 58.9878 47.296 58.6578 47.296 58.2508C47.296 57.8437 46.984 57.5137 46.5992 57.5137C46.2143 57.5137 45.9023 57.8437 45.9023 58.2508C45.9023 58.6578 46.2143 58.9878 46.5992 58.9878Z" fill="black"/>
<path d="M46.5992 61.2554C46.984 61.2554 47.296 60.9254 47.296 60.5183C47.296 60.1113 46.984 59.7812 46.5992 59.7812C46.2143 59.7812 45.9023 60.1113 45.9023 60.5183C45.9023 60.9254 46.2143 61.2554 46.5992 61.2554Z" fill="black"/>
<path d="M46.5992 63.5249C46.984 63.5249 47.296 63.195 47.296 62.7879C47.296 62.3808 46.984 62.0508 46.5992 62.0508C46.2143 62.0508 45.9023 62.3808 45.9023 62.7879C45.9023 63.195 46.2143 63.5249 46.5992 63.5249Z" fill="black"/>
<path d="M46.5992 65.7925C46.984 65.7925 47.296 65.4625 47.296 65.0554C47.296 64.6484 46.984 64.3184 46.5992 64.3184C46.2143 64.3184 45.9023 64.6484 45.9023 65.0554C45.9023 65.4625 46.2143 65.7925 46.5992 65.7925Z" fill="black"/>
<path d="M46.5992 68.0601C46.984 68.0601 47.296 67.7301 47.296 67.323C47.296 66.916 46.984 66.5859 46.5992 66.5859C46.2143 66.5859 45.9023 66.916 45.9023 67.323C45.9023 67.7301 46.2143 68.0601 46.5992 68.0601Z" fill="black"/>
<path d="M46.5992 70.3277C46.984 70.3277 47.296 69.9977 47.296 69.5906C47.296 69.1835 46.984 68.8535 46.5992 68.8535C46.2143 68.8535 45.9023 69.1835 45.9023 69.5906C45.9023 69.9977 46.2143 70.3277 46.5992 70.3277Z" fill="black"/>
<path d="M46.5992 72.5953C46.984 72.5953 47.296 72.2653 47.296 71.8582C47.296 71.4511 46.984 71.1211 46.5992 71.1211C46.2143 71.1211 45.9023 71.4511 45.9023 71.8582C45.9023 72.2653 46.2143 72.5953 46.5992 72.5953Z" fill="black"/>
<path d="M44.7242 55.6421C45.109 55.6421 45.421 55.3121 45.421 54.9051C45.421 54.498 45.109 54.168 44.7242 54.168C44.3393 54.168 44.0273 54.498 44.0273 54.9051C44.0273 55.3121 44.3393 55.6421 44.7242 55.6421Z" fill="black"/>
<path d="M44.7242 57.9097C45.109 57.9097 45.421 57.5797 45.421 57.1726C45.421 56.7656 45.109 56.4355 44.7242 56.4355C44.3393 56.4355 44.0273 56.7656 44.0273 57.1726C44.0273 57.5797 44.3393 57.9097 44.7242 57.9097Z" fill="black"/>
<path d="M44.7242 60.1773C45.109 60.1773 45.421 59.8473 45.421 59.4402C45.421 59.0331 45.109 58.7031 44.7242 58.7031C44.3393 58.7031 44.0273 59.0331 44.0273 59.4402C44.0273 59.8473 44.3393 60.1773 44.7242 60.1773Z" fill="black"/>
<path d="M44.7242 62.4468C45.109 62.4468 45.421 62.1168 45.421 61.7097C45.421 61.3027 45.109 60.9727 44.7242 60.9727C44.3393 60.9727 44.0273 61.3027 44.0273 61.7097C44.0273 62.1168 44.3393 62.4468 44.7242 62.4468Z" fill="black"/>
<path d="M44.7242 64.7144C45.109 64.7144 45.421 64.3844 45.421 63.9773C45.421 63.5702 45.109 63.2402 44.7242 63.2402C44.3393 63.2402 44.0273 63.5702 44.0273 63.9773C44.0273 64.3844 44.3393 64.7144 44.7242 64.7144Z" fill="black"/>
<path d="M44.7242 66.9253C45.109 66.9253 45.421 66.5953 45.421 66.1883C45.421 65.7812 45.109 65.4512 44.7242 65.4512C44.3393 65.4512 44.0273 65.7812 44.0273 66.1883C44.0273 66.5953 44.3393 66.9253 44.7242 66.9253Z" fill="black"/>
<path d="M44.7242 69.1929C45.109 69.1929 45.421 68.8629 45.421 68.4558C45.421 68.0488 45.109 67.7188 44.7242 67.7188C44.3393 67.7188 44.0273 68.0488 44.0273 68.4558C44.0273 68.8629 44.3393 69.1929 44.7242 69.1929Z" fill="black"/>
<path d="M44.7242 71.4605C45.109 71.4605 45.421 71.1305 45.421 70.7234C45.421 70.3163 45.109 69.9863 44.7242 69.9863C44.3393 69.9863 44.0273 70.3163 44.0273 70.7234C44.0273 71.1305 44.3393 71.4605 44.7242 71.4605Z" fill="black"/>
<path d="M44.7242 73.73C45.109 73.73 45.421 73.4 45.421 72.993C45.421 72.5859 45.109 72.2559 44.7242 72.2559C44.3393 72.2559 44.0273 72.5859 44.0273 72.993C44.0273 73.4 44.3393 73.73 44.7242 73.73Z" fill="black"/>
<path d="M42.8531 56.7203C43.2379 56.7203 43.5499 56.3903 43.5499 55.9832C43.5499 55.5761 43.2379 55.2461 42.8531 55.2461C42.4682 55.2461 42.1562 55.5761 42.1562 55.9832C42.1562 56.3903 42.4682 56.7203 42.8531 56.7203Z" fill="black"/>
<path d="M42.8531 58.9878C43.2379 58.9878 43.5499 58.6578 43.5499 58.2508C43.5499 57.8437 43.2379 57.5137 42.8531 57.5137C42.4682 57.5137 42.1562 57.8437 42.1562 58.2508C42.1562 58.6578 42.4682 58.9878 42.8531 58.9878Z" fill="black"/>
<path d="M42.8531 61.2554C43.2379 61.2554 43.5499 60.9254 43.5499 60.5183C43.5499 60.1113 43.2379 59.7812 42.8531 59.7812C42.4682 59.7812 42.1562 60.1113 42.1562 60.5183C42.1562 60.9254 42.4682 61.2554 42.8531 61.2554Z" fill="black"/>
<path d="M42.8531 63.5249C43.2379 63.5249 43.5499 63.195 43.5499 62.7879C43.5499 62.3808 43.2379 62.0508 42.8531 62.0508C42.4682 62.0508 42.1562 62.3808 42.1562 62.7879C42.1562 63.195 42.4682 63.5249 42.8531 63.5249Z" fill="black"/>
<path d="M42.8531 65.7925C43.2379 65.7925 43.5499 65.4625 43.5499 65.0554C43.5499 64.6484 43.2379 64.3184 42.8531 64.3184C42.4682 64.3184 42.1562 64.6484 42.1562 65.0554C42.1562 65.4625 42.4682 65.7925 42.8531 65.7925Z" fill="black"/>
<path d="M42.8531 68.0601C43.2379 68.0601 43.5499 67.7301 43.5499 67.323C43.5499 66.916 43.2379 66.5859 42.8531 66.5859C42.4682 66.5859 42.1562 66.916 42.1562 67.323C42.1562 67.7301 42.4682 68.0601 42.8531 68.0601Z" fill="black"/>
<path d="M42.8531 70.3277C43.2379 70.3277 43.5499 69.9977 43.5499 69.5906C43.5499 69.1835 43.2379 68.8535 42.8531 68.8535C42.4682 68.8535 42.1562 69.1835 42.1562 69.5906C42.1562 69.9977 42.4682 70.3277 42.8531 70.3277Z" fill="black"/>
<path d="M42.8531 72.5953C43.2379 72.5953 43.5499 72.2653 43.5499 71.8582C43.5499 71.4511 43.2379 71.1211 42.8531 71.1211C42.4682 71.1211 42.1562 71.4511 42.1562 71.8582C42.1562 72.2653 42.4682 72.5953 42.8531 72.5953Z" fill="black"/>
<path d="M41.0289 55.189C41.4137 55.189 41.7257 54.859 41.7257 54.4519C41.7257 54.0448 41.4137 53.7148 41.0289 53.7148C40.644 53.7148 40.332 54.0448 40.332 54.4519C40.332 54.859 40.644 55.189 41.0289 55.189Z" fill="black"/>
<path d="M41.0289 57.4566C41.4137 57.4566 41.7257 57.1266 41.7257 56.7195C41.7257 56.3124 41.4137 55.9824 41.0289 55.9824C40.644 55.9824 40.332 56.3124 40.332 56.7195C40.332 57.1266 40.644 57.4566 41.0289 57.4566Z" fill="black"/>
<path d="M41.0289 59.7242C41.4137 59.7242 41.7257 59.3942 41.7257 58.9871C41.7257 58.58 41.4137 58.25 41.0289 58.25C40.644 58.25 40.332 58.58 40.332 58.9871C40.332 59.3942 40.644 59.7242 41.0289 59.7242Z" fill="black"/>
<path d="M41.0289 61.9937C41.4137 61.9937 41.7257 61.6637 41.7257 61.2566C41.7257 60.8495 41.4137 60.5195 41.0289 60.5195C40.644 60.5195 40.332 60.8495 40.332 61.2566C40.332 61.6637 40.644 61.9937 41.0289 61.9937Z" fill="black"/>
<path d="M41.0289 64.2613C41.4137 64.2613 41.7257 63.9313 41.7257 63.5242C41.7257 63.1171 41.4137 62.7871 41.0289 62.7871C40.644 62.7871 40.332 63.1171 40.332 63.5242C40.332 63.9313 40.644 64.2613 41.0289 64.2613Z" fill="black"/>
<path d="M41.0289 66.5289C41.4137 66.5289 41.7257 66.1988 41.7257 65.7918C41.7257 65.3847 41.4137 65.0547 41.0289 65.0547C40.644 65.0547 40.332 65.3847 40.332 65.7918C40.332 66.1988 40.644 66.5289 41.0289 66.5289Z" fill="black"/>
<path d="M41.0289 68.7964C41.4137 68.7964 41.7257 68.4664 41.7257 68.0593C41.7257 67.6523 41.4137 67.3223 41.0289 67.3223C40.644 67.3223 40.332 67.6523 40.332 68.0593C40.332 68.4664 40.644 68.7964 41.0289 68.7964Z" fill="black"/>
<path d="M41.0289 71.064C41.4137 71.064 41.7257 70.734 41.7257 70.3269C41.7257 69.9198 41.4137 69.5898 41.0289 69.5898C40.644 69.5898 40.332 69.9198 40.332 70.3269C40.332 70.734 40.644 71.064 41.0289 71.064Z" fill="black"/>
<path d="M41.0289 73.3336C41.4137 73.3336 41.7257 73.0035 41.7257 72.5965C41.7257 72.1894 41.4137 71.8594 41.0289 71.8594C40.644 71.8594 40.332 72.1894 40.332 72.5965C40.332 73.0035 40.644 73.3336 41.0289 73.3336Z" fill="black"/>
<path d="M39.2018 56.3238C39.5571 56.3238 39.8451 55.9938 39.8451 55.5867C39.8451 55.1796 39.5571 54.8496 39.2018 54.8496C38.8466 54.8496 38.5586 55.1796 38.5586 55.5867C38.5586 55.9938 38.8466 56.3238 39.2018 56.3238Z" fill="black"/>
<path d="M39.2018 58.5914C39.5571 58.5914 39.8451 58.2613 39.8451 57.8543C39.8451 57.4472 39.5571 57.1172 39.2018 57.1172C38.8466 57.1172 38.5586 57.4472 38.5586 57.8543C38.5586 58.2613 38.8466 58.5914 39.2018 58.5914Z" fill="black"/>
<path d="M39.2018 60.8589C39.5571 60.8589 39.8451 60.5289 39.8451 60.1218C39.8451 59.7148 39.5571 59.3848 39.2018 59.3848C38.8466 59.3848 38.5586 59.7148 38.5586 60.1218C38.5586 60.5289 38.8466 60.8589 39.2018 60.8589Z" fill="black"/>
<path d="M39.2018 63.1285C39.5571 63.1285 39.8451 62.7985 39.8451 62.3914C39.8451 61.9843 39.5571 61.6543 39.2018 61.6543C38.8466 61.6543 38.5586 61.9843 38.5586 62.3914C38.5586 62.7985 38.8466 63.1285 39.2018 63.1285Z" fill="black"/>
<path d="M39.2018 65.396C39.5571 65.396 39.8451 65.066 39.8451 64.659C39.8451 64.2519 39.5571 63.9219 39.2018 63.9219C38.8466 63.9219 38.5586 64.2519 38.5586 64.659C38.5586 65.066 38.8466 65.396 39.2018 65.396Z" fill="black"/>
<path d="M39.2018 67.6636C39.5571 67.6636 39.8451 67.3336 39.8451 66.9265C39.8451 66.5195 39.5571 66.1895 39.2018 66.1895C38.8466 66.1895 38.5586 66.5195 38.5586 66.9265C38.5586 67.3336 38.8466 67.6636 39.2018 67.6636Z" fill="black"/>
<path d="M39.2018 69.9312C39.5571 69.9312 39.8451 69.6012 39.8451 69.1941C39.8451 68.787 39.5571 68.457 39.2018 68.457C38.8466 68.457 38.5586 68.787 38.5586 69.1941C38.5586 69.6012 38.8466 69.9312 39.2018 69.9312Z" fill="black"/>
<path d="M39.2018 72.1988C39.5571 72.1988 39.8451 71.8688 39.8451 71.4617C39.8451 71.0546 39.5571 70.7246 39.2018 70.7246C38.8466 70.7246 38.5586 71.0546 38.5586 71.4617C38.5586 71.8688 38.8466 72.1988 39.2018 72.1988Z" fill="black"/>
<path d="M37.6013 54.4527C37.927 54.4527 38.191 54.1227 38.191 53.7156C38.191 53.3085 37.927 52.9785 37.6013 52.9785C37.2757 52.9785 37.0117 53.3085 37.0117 53.7156C37.0117 54.1227 37.2757 54.4527 37.6013 54.4527Z" fill="black"/>
<path d="M37.6013 56.7203C37.927 56.7203 38.191 56.3903 38.191 55.9832C38.191 55.5761 37.927 55.2461 37.6013 55.2461C37.2757 55.2461 37.0117 55.5761 37.0117 55.9832C37.0117 56.3903 37.2757 56.7203 37.6013 56.7203Z" fill="black"/>
<path d="M37.6013 58.9878C37.927 58.9878 38.191 58.6578 38.191 58.2508C38.191 57.8437 37.927 57.5137 37.6013 57.5137C37.2757 57.5137 37.0117 57.8437 37.0117 58.2508C37.0117 58.6578 37.2757 58.9878 37.6013 58.9878Z" fill="black"/>
<path d="M37.6013 61.2574C37.927 61.2574 38.191 60.9274 38.191 60.5203C38.191 60.1132 37.927 59.7832 37.6013 59.7832C37.2757 59.7832 37.0117 60.1132 37.0117 60.5203C37.0117 60.9274 37.2757 61.2574 37.6013 61.2574Z" fill="black"/>
<path d="M37.6013 63.5249C37.927 63.5249 38.191 63.195 38.191 62.7879C38.191 62.3808 37.927 62.0508 37.6013 62.0508C37.2757 62.0508 37.0117 62.3808 37.0117 62.7879C37.0117 63.195 37.2757 63.5249 37.6013 63.5249Z" fill="black"/>
<path d="M37.6013 65.7925C37.927 65.7925 38.191 65.4625 38.191 65.0554C38.191 64.6484 37.927 64.3184 37.6013 64.3184C37.2757 64.3184 37.0117 64.6484 37.0117 65.0554C37.0117 65.4625 37.2757 65.7925 37.6013 65.7925Z" fill="black"/>
<path d="M37.6013 68.0601C37.927 68.0601 38.191 67.7301 38.191 67.323C38.191 66.916 37.927 66.5859 37.6013 66.5859C37.2757 66.5859 37.0117 66.916 37.0117 67.323C37.0117 67.7301 37.2757 68.0601 37.6013 68.0601Z" fill="black"/>
<path d="M37.6013 70.271C37.927 70.271 38.191 69.941 38.191 69.534C38.191 69.1269 37.927 68.7969 37.6013 68.7969C37.2757 68.7969 37.0117 69.1269 37.0117 69.534C37.0117 69.941 37.2757 70.271 37.6013 70.271Z" fill="black"/>
<path d="M37.6013 72.5406C37.927 72.5406 38.191 72.2106 38.191 71.8035C38.191 71.3964 37.927 71.0664 37.6013 71.0664C37.2757 71.0664 37.0117 71.3964 37.0117 71.8035C37.0117 72.2106 37.2757 72.5406 37.6013 72.5406Z" fill="black"/>
<path d="M36.1521 55.0191C36.4778 55.0191 36.7417 54.6891 36.7417 54.282C36.7417 53.8749 36.4778 53.5449 36.1521 53.5449C35.8265 53.5449 35.5625 53.8749 35.5625 54.282C35.5625 54.6891 35.8265 55.0191 36.1521 55.0191Z" fill="black"/>
<path d="M36.1521 57.2867C36.4778 57.2867 36.7417 56.9567 36.7417 56.5496C36.7417 56.1425 36.4778 55.8125 36.1521 55.8125C35.8265 55.8125 35.5625 56.1425 35.5625 56.5496C35.5625 56.9567 35.8265 57.2867 36.1521 57.2867Z" fill="black"/>
<path d="M36.1521 59.5542C36.4778 59.5542 36.7417 59.2242 36.7417 58.8172C36.7417 58.4101 36.4778 58.0801 36.1521 58.0801C35.8265 58.0801 35.5625 58.4101 35.5625 58.8172C35.5625 59.2242 35.8265 59.5542 36.1521 59.5542Z" fill="black"/>
<path d="M36.1521 61.8238C36.4778 61.8238 36.7417 61.4938 36.7417 61.0867C36.7417 60.6796 36.4778 60.3496 36.1521 60.3496C35.8265 60.3496 35.5625 60.6796 35.5625 61.0867C35.5625 61.4938 35.8265 61.8238 36.1521 61.8238Z" fill="black"/>
<path d="M36.1521 64.0914C36.4778 64.0914 36.7417 63.7614 36.7417 63.3543C36.7417 62.9472 36.4778 62.6172 36.1521 62.6172C35.8265 62.6172 35.5625 62.9472 35.5625 63.3543C35.5625 63.7614 35.8265 64.0914 36.1521 64.0914Z" fill="black"/>
<path d="M36.1521 66.3589C36.4778 66.3589 36.7417 66.0289 36.7417 65.6219C36.7417 65.2148 36.4778 64.8848 36.1521 64.8848C35.8265 64.8848 35.5625 65.2148 35.5625 65.6219C35.5625 66.0289 35.8265 66.3589 36.1521 66.3589Z" fill="black"/>
<path d="M36.1521 68.6265C36.4778 68.6265 36.7417 68.2965 36.7417 67.8894C36.7417 67.4824 36.4778 67.1523 36.1521 67.1523C35.8265 67.1523 35.5625 67.4824 35.5625 67.8894C35.5625 68.2965 35.8265 68.6265 36.1521 68.6265Z" fill="black"/>
<path d="M36.1521 70.8941C36.4778 70.8941 36.7417 70.5641 36.7417 70.157C36.7417 69.7499 36.4778 69.4199 36.1521 69.4199C35.8265 69.4199 35.5625 69.7499 35.5625 70.157C35.5625 70.5641 35.8265 70.8941 36.1521 70.8941Z" fill="black"/>
<path d="M34.699 53.148C35.0246 53.148 35.2886 52.818 35.2886 52.4109C35.2886 52.0038 35.0246 51.6738 34.699 51.6738C34.3734 51.6738 34.1094 52.0038 34.1094 52.4109C34.1094 52.818 34.3734 53.148 34.699 53.148Z" fill="black"/>
<path d="M34.699 55.4156C35.0246 55.4156 35.2886 55.0856 35.2886 54.6785C35.2886 54.2714 35.0246 53.9414 34.699 53.9414C34.3734 53.9414 34.1094 54.2714 34.1094 54.6785C34.1094 55.0856 34.3734 55.4156 34.699 55.4156Z" fill="black"/>
<path d="M34.699 57.6832C35.0246 57.6832 35.2886 57.3532 35.2886 56.9461C35.2886 56.539 35.0246 56.209 34.699 56.209C34.3734 56.209 34.1094 56.539 34.1094 56.9461C34.1094 57.3532 34.3734 57.6832 34.699 57.6832Z" fill="black"/>
<path d="M34.699 59.9527C35.0246 59.9527 35.2886 59.6227 35.2886 59.2156C35.2886 58.8085 35.0246 58.4785 34.699 58.4785C34.3734 58.4785 34.1094 58.8085 34.1094 59.2156C34.1094 59.6227 34.3734 59.9527 34.699 59.9527Z" fill="black"/>
<path d="M34.699 62.2203C35.0246 62.2203 35.2886 61.8903 35.2886 61.4832C35.2886 61.0761 35.0246 60.7461 34.699 60.7461C34.3734 60.7461 34.1094 61.0761 34.1094 61.4832C34.1094 61.8903 34.3734 62.2203 34.699 62.2203Z" fill="black"/>
<path d="M34.699 64.4878C35.0246 64.4878 35.2886 64.1578 35.2886 63.7508C35.2886 63.3437 35.0246 63.0137 34.699 63.0137C34.3734 63.0137 34.1094 63.3437 34.1094 63.7508C34.1094 64.1578 34.3734 64.4878 34.699 64.4878Z" fill="black"/>
<path d="M34.699 66.7554C35.0246 66.7554 35.2886 66.4254 35.2886 66.0183C35.2886 65.6112 35.0246 65.2812 34.699 65.2812C34.3734 65.2812 34.1094 65.6112 34.1094 66.0183C34.1094 66.4254 34.3734 66.7554 34.699 66.7554Z" fill="black"/>
<path d="M34.699 68.9664C35.0246 68.9664 35.2886 68.6364 35.2886 68.2293C35.2886 67.8222 35.0246 67.4922 34.699 67.4922C34.3734 67.4922 34.1094 67.8222 34.1094 68.2293C34.1094 68.6364 34.3734 68.9664 34.699 68.9664Z" fill="black"/>
<path d="M34.699 71.2359C35.0246 71.2359 35.2886 70.9059 35.2886 70.4988C35.2886 70.0917 35.0246 69.7617 34.699 69.7617C34.3734 69.7617 34.1094 70.0917 34.1094 70.4988C34.1094 70.9059 34.3734 71.2359 34.699 71.2359Z" fill="black"/>
<path d="M33.3624 53.9429C33.5992 53.9429 33.7912 53.6129 33.7912 53.2058C33.7912 52.7988 33.5992 52.4688 33.3624 52.4688C33.1256 52.4688 32.9336 52.7988 32.9336 53.2058C32.9336 53.6129 33.1256 53.9429 33.3624 53.9429Z" fill="black"/>
<path d="M33.3624 56.2105C33.5992 56.2105 33.7912 55.8805 33.7912 55.4734C33.7912 55.0663 33.5992 54.7363 33.3624 54.7363C33.1256 54.7363 32.9336 55.0663 32.9336 55.4734C32.9336 55.8805 33.1256 56.2105 33.3624 56.2105Z" fill="black"/>
<path d="M33.3624 58.4781C33.5992 58.4781 33.7912 58.1481 33.7912 57.741C33.7912 57.3339 33.5992 57.0039 33.3624 57.0039C33.1256 57.0039 32.9336 57.3339 32.9336 57.741C32.9336 58.1481 33.1256 58.4781 33.3624 58.4781Z" fill="black"/>
<path d="M33.3624 60.7476C33.5992 60.7476 33.7912 60.4176 33.7912 60.0105C33.7912 59.6034 33.5992 59.2734 33.3624 59.2734C33.1256 59.2734 32.9336 59.6034 32.9336 60.0105C32.9336 60.4176 33.1256 60.7476 33.3624 60.7476Z" fill="black"/>
<path d="M33.3624 63.0152C33.5992 63.0152 33.7912 62.6852 33.7912 62.2781C33.7912 61.871 33.5992 61.541 33.3624 61.541C33.1256 61.541 32.9336 61.871 32.9336 62.2781C32.9336 62.6852 33.1256 63.0152 33.3624 63.0152Z" fill="black"/>
<path d="M33.3624 65.2828C33.5992 65.2828 33.7912 64.9528 33.7912 64.5457C33.7912 64.1386 33.5992 63.8086 33.3624 63.8086C33.1256 63.8086 32.9336 64.1386 32.9336 64.5457C32.9336 64.9528 33.1256 65.2828 33.3624 65.2828Z" fill="black"/>
<path d="M33.3624 67.5503C33.5992 67.5503 33.7912 67.2203 33.7912 66.8133C33.7912 66.4062 33.5992 66.0762 33.3624 66.0762C33.1256 66.0762 32.9336 66.4062 32.9336 66.8133C32.9336 67.2203 33.1256 67.5503 33.3624 67.5503Z" fill="black"/>
<path d="M33.3624 69.8179C33.5992 69.8179 33.7912 69.4879 33.7912 69.0808C33.7912 68.6738 33.5992 68.3438 33.3624 68.3438C33.1256 68.3438 32.9336 68.6738 32.9336 69.0808C32.9336 69.4879 33.1256 69.8179 33.3624 69.8179Z" fill="black"/>
<path d="M32.1827 51.73C32.4196 51.73 32.6115 51.4 32.6115 50.9929C32.6115 50.5859 32.4196 50.2559 32.1827 50.2559C31.9459 50.2559 31.7539 50.5859 31.7539 50.9929C31.7539 51.4 31.9459 51.73 32.1827 51.73Z" fill="black"/>
<path d="M32.1827 53.9976C32.4196 53.9976 32.6115 53.6676 32.6115 53.2605C32.6115 52.8534 32.4196 52.5234 32.1827 52.5234C31.9459 52.5234 31.7539 52.8534 31.7539 53.2605C31.7539 53.6676 31.9459 53.9976 32.1827 53.9976Z" fill="black"/>
<path d="M32.1827 56.2652C32.4196 56.2652 32.6115 55.9352 32.6115 55.5281C32.6115 55.121 32.4196 54.791 32.1827 54.791C31.9459 54.791 31.7539 55.121 31.7539 55.5281C31.7539 55.9352 31.9459 56.2652 32.1827 56.2652Z" fill="black"/>
<path d="M32.1827 58.5347C32.4196 58.5347 32.6115 58.2047 32.6115 57.7976C32.6115 57.3906 32.4196 57.0605 32.1827 57.0605C31.9459 57.0605 31.7539 57.3906 31.7539 57.7976C31.7539 58.2047 31.9459 58.5347 32.1827 58.5347Z" fill="black"/>
<path d="M32.1827 60.8023C32.4196 60.8023 32.6115 60.4723 32.6115 60.0652C32.6115 59.6581 32.4196 59.3281 32.1827 59.3281C31.9459 59.3281 31.7539 59.6581 31.7539 60.0652C31.7539 60.4723 31.9459 60.8023 32.1827 60.8023Z" fill="black"/>
<path d="M32.1827 63.0699C32.4196 63.0699 32.6115 62.7399 32.6115 62.3328C32.6115 61.9257 32.4196 61.5957 32.1827 61.5957C31.9459 61.5957 31.7539 61.9257 31.7539 62.3328C31.7539 62.7399 31.9459 63.0699 32.1827 63.0699Z" fill="black"/>
<path d="M32.1827 65.3375C32.4196 65.3375 32.6115 65.0074 32.6115 64.6004C32.6115 64.1933 32.4196 63.8633 32.1827 63.8633C31.9459 63.8633 31.7539 64.1933 31.7539 64.6004C31.7539 65.0074 31.9459 65.3375 32.1827 65.3375Z" fill="black"/>
<path d="M32.1827 67.605C32.4196 67.605 32.6115 67.275 32.6115 66.8679C32.6115 66.4609 32.4196 66.1309 32.1827 66.1309C31.9459 66.1309 31.7539 66.4609 31.7539 66.8679C31.7539 67.275 31.9459 67.605 32.1827 67.605Z" fill="black"/>
<path d="M32.1827 69.8746C32.4196 69.8746 32.6115 69.5446 32.6115 69.1375C32.6115 68.7304 32.4196 68.4004 32.1827 68.4004C31.9459 68.4004 31.7539 68.7304 31.7539 69.1375C31.7539 69.5446 31.9459 69.8746 32.1827 69.8746Z" fill="black"/>
<path d="M31.1654 52.0718C31.343 52.0718 31.487 51.7418 31.487 51.3347C31.487 50.9277 31.343 50.5977 31.1654 50.5977C30.9877 50.5977 30.8438 50.9277 30.8438 51.3347C30.8438 51.7418 30.9877 52.0718 31.1654 52.0718Z" fill="black"/>
<path d="M31.1654 54.3394C31.343 54.3394 31.487 54.0094 31.487 53.6023C31.487 53.1952 31.343 52.8652 31.1654 52.8652C30.9877 52.8652 30.8438 53.1952 30.8438 53.6023C30.8438 54.0094 30.9877 54.3394 31.1654 54.3394Z" fill="black"/>
<path d="M31.1654 56.607C31.343 56.607 31.487 56.277 31.487 55.8699C31.487 55.4628 31.343 55.1328 31.1654 55.1328C30.9877 55.1328 30.8438 55.4628 30.8438 55.8699C30.8438 56.277 30.9877 56.607 31.1654 56.607Z" fill="black"/>
<path d="M31.1654 58.8765C31.343 58.8765 31.487 58.5465 31.487 58.1394C31.487 57.7323 31.343 57.4023 31.1654 57.4023C30.9877 57.4023 30.8438 57.7323 30.8438 58.1394C30.8438 58.5465 30.9877 58.8765 31.1654 58.8765Z" fill="black"/>
<path d="M31.1654 61.1441C31.343 61.1441 31.487 60.8141 31.487 60.407C31.487 59.9999 31.343 59.6699 31.1654 59.6699C30.9877 59.6699 30.8438 59.9999 30.8438 60.407C30.8438 60.8141 30.9877 61.1441 31.1654 61.1441Z" fill="black"/>
<path d="M31.1654 63.4117C31.343 63.4117 31.487 63.0817 31.487 62.6746C31.487 62.2675 31.343 61.9375 31.1654 61.9375C30.9877 61.9375 30.8438 62.2675 30.8438 62.6746C30.8438 63.0817 30.9877 63.4117 31.1654 63.4117Z" fill="black"/>
<path d="M31.1654 65.7359C31.343 65.7359 31.487 65.4059 31.487 64.9988C31.487 64.5917 31.343 64.2617 31.1654 64.2617C30.9877 64.2617 30.8438 64.5917 30.8438 64.9988C30.8438 65.4059 30.9877 65.7359 31.1654 65.7359Z" fill="black"/>
<path d="M31.1654 68.0034C31.343 68.0034 31.487 67.6735 31.487 67.2664C31.487 66.8593 31.343 66.5293 31.1654 66.5293C30.9877 66.5293 30.8438 66.8593 30.8438 67.2664C30.8438 67.6735 30.9877 68.0034 31.1654 68.0034Z" fill="black"/>
<path d="M30.306 50.314C30.4836 50.314 30.6276 49.984 30.6276 49.5769C30.6276 49.1698 30.4836 48.8398 30.306 48.8398C30.1284 48.8398 29.9844 49.1698 29.9844 49.5769C29.9844 49.984 30.1284 50.314 30.306 50.314Z" fill="black"/>
<path d="M30.306 52.5816C30.4836 52.5816 30.6276 52.2516 30.6276 51.8445C30.6276 51.4374 30.4836 51.1074 30.306 51.1074C30.1284 51.1074 29.9844 51.4374 29.9844 51.8445C29.9844 52.2516 30.1284 52.5816 30.306 52.5816Z" fill="black"/>
<path d="M30.306 54.8492C30.4836 54.8492 30.6276 54.5192 30.6276 54.1121C30.6276 53.705 30.4836 53.375 30.306 53.375C30.1284 53.375 29.9844 53.705 29.9844 54.1121C29.9844 54.5192 30.1284 54.8492 30.306 54.8492Z" fill="black"/>
<path d="M30.306 57.1187C30.4836 57.1187 30.6276 56.7887 30.6276 56.3816C30.6276 55.9745 30.4836 55.6445 30.306 55.6445C30.1284 55.6445 29.9844 55.9745 29.9844 56.3816C29.9844 56.7887 30.1284 57.1187 30.306 57.1187Z" fill="black"/>
<path d="M30.306 59.3863C30.4836 59.3863 30.6276 59.0563 30.6276 58.6492C30.6276 58.2421 30.4836 57.9121 30.306 57.9121C30.1284 57.9121 29.9844 58.2421 29.9844 58.6492C29.9844 59.0563 30.1284 59.3863 30.306 59.3863Z" fill="black"/>
<path d="M30.306 61.6539C30.4836 61.6539 30.6276 61.3239 30.6276 60.9168C30.6276 60.5097 30.4836 60.1797 30.306 60.1797C30.1284 60.1797 29.9844 60.5097 29.9844 60.9168C29.9844 61.3239 30.1284 61.6539 30.306 61.6539Z" fill="black"/>
<path d="M30.306 63.9214C30.4836 63.9214 30.6276 63.5914 30.6276 63.1844C30.6276 62.7773 30.4836 62.4473 30.306 62.4473C30.1284 62.4473 29.9844 62.7773 29.9844 63.1844C29.9844 63.5914 30.1284 63.9214 30.306 63.9214Z" fill="black"/>
<path d="M30.306 66.189C30.4836 66.189 30.6276 65.859 30.6276 65.4519C30.6276 65.0448 30.4836 64.7148 30.306 64.7148C30.1284 64.7148 29.9844 65.0448 29.9844 65.4519C29.9844 65.859 30.1284 66.189 30.306 66.189Z" fill="black"/>
<path d="M30.306 68.4585C30.4836 68.4585 30.6276 68.1285 30.6276 67.7215C30.6276 67.3144 30.4836 66.9844 30.306 66.9844C30.1284 66.9844 29.9844 67.3144 29.9844 67.7215C29.9844 68.1285 30.1284 68.4585 30.306 68.4585Z" fill="black"/>
<path d="M29.4466 50.9937C29.6242 50.9937 29.7682 50.6637 29.7682 50.2566C29.7682 49.8495 29.6242 49.5195 29.4466 49.5195C29.269 49.5195 29.125 49.8495 29.125 50.2566C29.125 50.6637 29.269 50.9937 29.4466 50.9937Z" fill="black"/>
<path d="M29.4466 53.2613C29.6242 53.2613 29.7682 52.9313 29.7682 52.5242C29.7682 52.1171 29.6242 51.7871 29.4466 51.7871C29.269 51.7871 29.125 52.1171 29.125 52.5242C29.125 52.9313 29.269 53.2613 29.4466 53.2613Z" fill="black"/>
<path d="M29.4466 55.5289C29.6242 55.5289 29.7682 55.1989 29.7682 54.7918C29.7682 54.3847 29.6242 54.0547 29.4466 54.0547C29.269 54.0547 29.125 54.3847 29.125 54.7918C29.125 55.1989 29.269 55.5289 29.4466 55.5289Z" fill="black"/>
<path d="M29.4466 57.7984C29.6242 57.7984 29.7682 57.4684 29.7682 57.0613C29.7682 56.6542 29.6242 56.3242 29.4466 56.3242C29.269 56.3242 29.125 56.6542 29.125 57.0613C29.125 57.4684 29.269 57.7984 29.4466 57.7984Z" fill="black"/>
<path d="M29.4466 60.066C29.6242 60.066 29.7682 59.736 29.7682 59.3289C29.7682 58.9218 29.6242 58.5918 29.4466 58.5918C29.269 58.5918 29.125 58.9218 29.125 59.3289C29.125 59.736 29.269 60.066 29.4466 60.066Z" fill="black"/>
<path d="M29.4466 62.3335C29.6242 62.3335 29.7682 62.0035 29.7682 61.5965C29.7682 61.1894 29.6242 60.8594 29.4466 60.8594C29.269 60.8594 29.125 61.1894 29.125 61.5965C29.125 62.0035 29.269 62.3335 29.4466 62.3335Z" fill="black"/>
<path d="M29.4466 64.6011C29.6242 64.6011 29.7682 64.2711 29.7682 63.864C29.7682 63.457 29.6242 63.127 29.4466 63.127C29.269 63.127 29.125 63.457 29.125 63.864C29.125 64.2711 29.269 64.6011 29.4466 64.6011Z" fill="black"/>
<path d="M29.4466 66.8687C29.6242 66.8687 29.7682 66.5387 29.7682 66.1316C29.7682 65.7245 29.6242 65.3945 29.4466 65.3945C29.269 65.3945 29.125 65.7245 29.125 66.1316C29.125 66.5387 29.269 66.8687 29.4466 66.8687Z" fill="black"/>
<path d="M28.5911 47.1382C28.7688 47.1382 28.9128 46.8082 28.9128 46.4012C28.9128 45.9941 28.7688 45.6641 28.5911 45.6641C28.4135 45.6641 28.2695 45.9941 28.2695 46.4012C28.2695 46.8082 28.4135 47.1382 28.5911 47.1382Z" fill="black"/>
<path d="M28.5911 49.4058C28.7688 49.4058 28.9128 49.0758 28.9128 48.6687C28.9128 48.2616 28.7688 47.9316 28.5911 47.9316C28.4135 47.9316 28.2695 48.2616 28.2695 48.6687C28.2695 49.0758 28.4135 49.4058 28.5911 49.4058Z" fill="black"/>
<path d="M28.5911 51.6734C28.7688 51.6734 28.9128 51.3434 28.9128 50.9363C28.9128 50.5292 28.7688 50.1992 28.5911 50.1992C28.4135 50.1992 28.2695 50.5292 28.2695 50.9363C28.2695 51.3434 28.4135 51.6734 28.5911 51.6734Z" fill="black"/>
<path d="M28.5911 53.9429C28.7688 53.9429 28.9128 53.6129 28.9128 53.2058C28.9128 52.7988 28.7688 52.4688 28.5911 52.4688C28.4135 52.4688 28.2695 52.7988 28.2695 53.2058C28.2695 53.6129 28.4135 53.9429 28.5911 53.9429Z" fill="black"/>
<path d="M28.5911 56.1539C28.7688 56.1539 28.9128 55.8239 28.9128 55.4168C28.9128 55.0097 28.7688 54.6797 28.5911 54.6797C28.4135 54.6797 28.2695 55.0097 28.2695 55.4168C28.2695 55.8239 28.4135 56.1539 28.5911 56.1539Z" fill="black"/>
<path d="M28.5911 58.4214C28.7688 58.4214 28.9128 58.0914 28.9128 57.6844C28.9128 57.2773 28.7688 56.9473 28.5911 56.9473C28.4135 56.9473 28.2695 57.2773 28.2695 57.6844C28.2695 58.0914 28.4135 58.4214 28.5911 58.4214Z" fill="black"/>
<path d="M28.5911 60.689C28.7688 60.689 28.9128 60.359 28.9128 59.9519C28.9128 59.5449 28.7688 59.2148 28.5911 59.2148C28.4135 59.2148 28.2695 59.5449 28.2695 59.9519C28.2695 60.359 28.4135 60.689 28.5911 60.689Z" fill="black"/>
<path d="M28.5911 62.9566C28.7688 62.9566 28.9128 62.6266 28.9128 62.2195C28.9128 61.8124 28.7688 61.4824 28.5911 61.4824C28.4135 61.4824 28.2695 61.8124 28.2695 62.2195C28.2695 62.6266 28.4135 62.9566 28.5911 62.9566Z" fill="black"/>
<path d="M28.5911 65.2261C28.7688 65.2261 28.9128 64.8961 28.9128 64.489C28.9128 64.082 28.7688 63.752 28.5911 63.752C28.4135 63.752 28.2695 64.082 28.2695 64.489C28.2695 64.8961 28.4135 65.2261 28.5911 65.2261Z" fill="black"/>
<path d="M33.4102 41.8086V42.3756L35.0182 43.3962V42.8292C35.0182 42.2055 34.643 41.4684 34.2142 41.1849C33.9998 41.0715 33.7854 41.0148 33.6782 41.1282C33.5174 41.2983 33.4102 41.4684 33.4102 41.8086Z" fill="#474749"/>
<path d="M35.0182 43.6221L33.4102 42.6016V43.0552C33.4102 43.6788 33.7854 44.4159 34.2142 44.6994C34.643 44.9829 35.0182 44.6994 35.0182 44.0757V43.6221Z" fill="#474749"/>
<path d="M35.2891 43.8496C35.2891 44.0197 35.3963 44.1898 35.5035 44.3032C35.6107 44.3599 35.7179 44.3032 35.7179 44.1331C35.7179 43.963 35.6107 43.7929 35.5035 43.6795C35.3963 43.6228 35.2891 43.6795 35.2891 43.8496Z" fill="#474749"/>
<path d="M32.7148 42.205C32.7148 42.3751 32.822 42.5452 32.9293 42.6586C33.0365 42.7153 33.1437 42.6586 33.1437 42.4885C33.1437 42.3184 33.0365 42.1483 32.9293 42.0349C32.822 41.9782 32.7148 42.0349 32.7148 42.205Z" fill="#474749"/>
<path d="M34.0547 46.1751L34.3763 46.4019V45.1545L34.0547 44.9277V46.1751Z" fill="#474749"/>
<path d="M33.7344 45.7773V46.3443L34.6992 46.968V46.401L33.7344 45.7773Z" fill="#474749"/>
<path d="M34.2148 45.267C34.6437 45.5505 35.0189 45.6072 35.2333 45.3804C35.6085 45.0402 35.6085 44.133 35.6085 44.0763L35.3941 43.9629C35.3941 43.9629 35.4477 44.7567 35.0725 45.0969C34.8581 45.267 34.5901 45.2103 34.2148 44.9835V45.267Z" fill="#474749"/>
<path d="M34.2161 45.2667V44.9832C33.8409 44.7564 33.5193 44.4162 33.3585 43.9626C33.0369 43.2255 33.0369 42.4885 33.0369 42.4885L32.8225 42.3184C32.8225 42.3751 32.7689 43.2255 33.1977 44.076C33.4121 44.5296 33.7873 44.9832 34.2161 45.2667Z" fill="#474749"/>
<defs>
<linearGradient id="paint0_linear_4711_2955" x1="61.6041" y1="56.7284" x2="28.0126" y2="56.7284" gradientUnits="userSpaceOnUse">
<stop offset="0.0405405" stop-color="#666666"/>
<stop offset="0.4189" stop-color="#7B7B7B"/>
<stop offset="0.9757" stop-color="#8E8E8E"/>
</linearGradient>
<linearGradient id="paint1_linear_4711_2955" x1="61.6041" y1="51.5136" x2="28.0126" y2="51.5136" gradientUnits="userSpaceOnUse">
<stop offset="0.0405405" stop-color="#666666"/>
<stop offset="0.4189" stop-color="#7B7B7B"/>
<stop offset="0.9757" stop-color="#8E8E8E"/>
</linearGradient>
<linearGradient id="paint2_linear_4711_2955" x1="61.6041" y1="27.4262" x2="28.0126" y2="27.4262" gradientUnits="userSpaceOnUse">
<stop offset="0.0405405" stop-color="#262526"/>
<stop offset="0.4189" stop-color="#2A292B"/>
<stop offset="0.9757" stop-color="#373639"/>
</linearGradient>
<linearGradient id="paint3_linear_4711_2955" x1="61.6041" y1="27.4262" x2="28.0126" y2="27.4262" gradientUnits="userSpaceOnUse">
<stop offset="0.0405405" stop-color="#262526"/>
<stop offset="0.4189" stop-color="#2A292B"/>
<stop offset="0.9757" stop-color="#373639"/>
</linearGradient>
<linearGradient id="paint4_linear_4711_2955" x1="61.6041" y1="27.4262" x2="28.0126" y2="27.4262" gradientUnits="userSpaceOnUse">
<stop offset="0.0405405" stop-color="#666666"/>
<stop offset="0.4189" stop-color="#7B7B7B"/>
<stop offset="0.9757" stop-color="#8E8E8E"/>
</linearGradient>
</defs>
</svg>
