<svg width="90" height="91" viewBox="0 0 90 91" fill="none" xmlns="http://www.w3.org/2000/svg">
<path style="mix-blend-mode:multiply" d="M53.2362 67.3082C64.503 67.3082 73.6366 62.317 73.6366 56.16C73.6366 50.003 64.503 45.0117 53.2362 45.0117C41.9695 45.0117 32.8359 50.003 32.8359 56.16C32.8359 62.317 41.9695 67.3082 53.2362 67.3082Z" fill="url(#paint0_radial_4711_2028)"/>
<path d="M66.8358 51.4844H34.1953V56.7092C34.1953 62.1424 41.5011 66.5884 50.5155 66.5884C59.53 66.5884 66.8358 62.1605 66.8358 56.7092C66.8358 56.664 66.8358 56.6187 66.8358 56.5734V51.4844Z" fill="url(#paint1_linear_4711_2028)"/>
<path d="M50.5155 61.5548C59.529 61.5548 66.8358 57.0466 66.8358 51.4854C66.8358 45.9243 59.529 41.416 50.5155 41.416C41.5021 41.416 34.1953 45.9243 34.1953 51.4854C34.1953 57.0466 41.5021 61.5548 50.5155 61.5548Z" fill="url(#paint2_linear_4711_2028)"/>
<path style="mix-blend-mode:color-dodge" d="M50.5085 61.1996C41.5908 61.1996 34.3555 56.8686 34.1986 51.4844C34.1942 51.5418 34.1942 51.5995 34.1986 51.6569C34.1986 57.1047 41.5036 61.5538 50.5172 61.5538C59.5308 61.5538 66.8358 57.1229 66.8358 51.6569C66.8358 51.6024 66.8358 51.5389 66.8358 51.4844C66.6615 56.8686 59.3913 61.1996 50.5085 61.1996Z" fill="url(#paint3_radial_4711_2028)"/>
<path d="M66.1551 45.7324H35.5547V50.2885V50.4127C35.5547 55.7712 42.4016 60.1173 50.8549 60.1173C59.3082 60.1173 66.1551 55.7712 66.1551 50.4127C66.1551 50.4127 66.1551 50.3267 66.1551 50.2885V45.7324Z" fill="#504B4B"/>
<path d="M66.1551 45.0117H35.5547V49.5613V49.6951C35.5547 55.0572 42.4016 59.3966 50.8549 59.3966C59.3082 59.3966 66.1551 55.0572 66.1551 49.6951C66.1551 49.6473 66.1551 49.6091 66.1551 49.5613V45.0117Z" fill="#A8F800"/>
<path d="M66.8358 42.1348H34.1953V47.3686C34.1953 52.8018 41.5011 57.2388 50.5155 57.2388C59.53 57.2388 66.8358 52.8199 66.8358 47.3686C66.8358 47.3234 66.8358 47.2781 66.8358 47.2328V42.1348Z" fill="url(#paint4_linear_4711_2028)"/>
<path d="M50.5155 52.2052C59.529 52.2052 66.8358 47.697 66.8358 42.1358C66.8358 36.5746 59.529 32.0664 50.5155 32.0664C41.5021 32.0664 34.1953 36.5746 34.1953 42.1358C34.1953 47.697 41.5021 52.2052 50.5155 52.2052Z" fill="url(#paint5_linear_4711_2028)"/>
<path style="mix-blend-mode:color-dodge" d="M50.5085 51.8503C41.5908 51.8503 34.3555 47.5142 34.1986 42.1348C34.1942 42.1952 34.1942 42.2558 34.1986 42.3162C34.1986 47.7591 41.5036 52.2041 50.5172 52.2041C59.5308 52.2041 66.8358 47.7772 66.8358 42.3162C66.8358 42.2527 66.8358 42.1983 66.8358 42.1348C66.6615 47.5232 59.3913 51.8503 50.5085 51.8503Z" fill="url(#paint6_radial_4711_2028)"/>
<path d="M66.1551 36.3809H35.5547V40.9305V41.0643C35.5547 46.4263 42.4016 50.7657 50.8549 50.7657C59.3082 50.7657 66.1551 46.4263 66.1551 41.0643C66.1551 41.0165 66.1551 40.9783 66.1551 40.9305V36.3809Z" fill="#504B4B"/>
<path d="M66.1551 35.6621H35.5547V39.9904V40.1175C35.5547 45.199 42.4016 49.3277 50.8549 49.3277C59.3082 49.3277 66.1551 45.199 66.1551 40.1175C66.1551 40.1175 66.1551 40.0267 66.1551 39.9904V35.6621Z" fill="url(#paint7_linear_4711_2028)"/>
<path d="M66.1551 35.6621H35.5547V39.9904V40.1175C35.5547 45.199 42.4016 49.3277 50.8549 49.3277C59.3082 49.3277 66.1551 45.199 66.1551 40.1175C66.1551 40.1175 66.1551 40.0267 66.1551 39.9904V35.6621Z" fill="#A8F800"/>
<path d="M66.8358 32.7852H34.1953V38.0132C34.1953 43.4495 41.5011 47.8892 50.5155 47.8892C59.53 47.8892 66.8358 43.4677 66.8358 38.0132C66.8358 38.0132 66.8358 37.9225 66.8358 37.8772V32.7852Z" fill="url(#paint8_linear_4711_2028)"/>
<path d="M50.5155 42.8536C59.529 42.8536 66.8358 38.3454 66.8358 32.7842C66.8358 27.2231 59.529 22.7148 50.5155 22.7148C41.5021 22.7148 34.1953 27.2231 34.1953 32.7842C34.1953 38.3454 41.5021 42.8536 50.5155 42.8536Z" fill="url(#paint9_linear_4711_2028)"/>
<path style="mix-blend-mode:color-dodge" d="M50.5085 42.5007C41.5908 42.5007 34.3555 38.1646 34.1986 32.7852C34.1942 32.8455 34.1942 32.9062 34.1986 32.9665C34.1986 38.4095 41.5036 42.8545 50.5172 42.8545C59.5308 42.8545 66.8358 38.4276 66.8358 32.9665C66.8358 32.903 66.8358 32.8487 66.8358 32.7852C66.6615 38.1646 59.3913 42.5007 50.5085 42.5007Z" fill="url(#paint10_radial_4711_2028)"/>
<path d="M66.1551 27.0312H35.5547V31.5809V31.7147C35.5547 37.0767 42.4016 41.4161 50.8549 41.4161C59.3082 41.4161 66.1551 37.0767 66.1551 31.7147C66.1551 31.6669 66.1551 31.6287 66.1551 31.5809V27.0312Z" fill="#504B4B"/>
<path d="M66.1551 26.3125H35.5547V30.8687V31.0024C35.5547 36.3513 42.4016 40.6973 50.8549 40.6973C59.3082 40.6973 66.1551 36.3513 66.1551 31.0024C66.1551 31.0024 66.1551 30.9069 66.1551 30.8687V26.3125Z" fill="#A8F800"/>
<path d="M66.8358 23.4355H34.1953V28.6636C34.1953 34.0999 41.5011 38.5396 50.5155 38.5396C59.53 38.5396 66.8358 34.1181 66.8358 28.6636C66.8358 28.6183 66.8358 28.5729 66.8358 28.5276V23.4355Z" fill="url(#paint11_linear_4711_2028)"/>
<path d="M50.5155 33.504C59.529 33.504 66.8358 28.9958 66.8358 23.4346C66.8358 17.8735 59.529 13.3652 50.5155 13.3652C41.5021 13.3652 34.1953 17.8735 34.1953 23.4346C34.1953 28.9958 41.5021 33.504 50.5155 33.504Z" fill="url(#paint12_linear_4711_2028)"/>
<path style="mix-blend-mode:color-dodge" d="M50.5085 33.1511C41.5908 33.1511 34.3555 28.8149 34.1986 23.4355C34.1942 23.4959 34.1942 23.5566 34.1986 23.617C34.1986 29.0599 41.5036 33.5049 50.5172 33.5049C59.5308 33.5049 66.8358 29.078 66.8358 23.617C66.8358 23.5535 66.8358 23.499 66.8358 23.4355C66.6615 28.7968 59.3913 33.1511 50.5085 33.1511Z" fill="url(#paint13_radial_4711_2028)"/>
<path d="M66.1551 17.6816H35.5547V22.2182V22.3522C35.5547 27.7214 42.4016 32.0665 50.8549 32.0665C59.3082 32.0665 66.1551 27.7214 66.1551 22.3522C66.1551 22.3522 66.1551 22.266 66.1551 22.2182V17.6816Z" fill="#504B4B"/>
<path d="M66.1551 16.9609H35.5547V21.5171V21.6508C35.5547 26.9998 42.4016 31.3458 50.8549 31.3458C59.3082 31.3458 66.1551 26.9998 66.1551 21.6508C66.1551 21.6031 66.1551 21.5553 66.1551 21.5171V16.9609Z" fill="#A8F800"/>
<path d="M66.8358 14.084H34.1953V19.312C34.1953 24.7484 41.5011 29.1881 50.5155 29.1881C59.53 29.1881 66.8358 24.7665 66.8358 19.312C66.8358 19.312 66.8358 19.2214 66.8358 19.1761V14.084Z" fill="url(#paint14_linear_4711_2028)"/>
<path d="M50.5155 24.1544C59.529 24.1544 66.8358 19.6461 66.8358 14.085C66.8358 8.52381 59.529 4.01562 50.5155 4.01562C41.5021 4.01562 34.1953 8.52381 34.1953 14.085C34.1953 19.6461 41.5021 24.1544 50.5155 24.1544Z" fill="url(#paint15_linear_4711_2028)"/>
<path style="mix-blend-mode:color-dodge" d="M50.5085 23.7996C41.5908 23.7996 34.3555 19.4634 34.1986 14.084C34.1942 14.1444 34.1942 14.205 34.1986 14.2654C34.1986 19.7083 41.5036 24.1534 50.5172 24.1534C59.5308 24.1534 66.8358 19.7265 66.8358 14.2654C66.8358 14.2019 66.8358 14.1475 66.8358 14.084C66.6615 19.4634 59.3913 23.7996 50.5085 23.7996Z" fill="url(#paint16_radial_4711_2028)"/>
<g opacity="0.2">
<path opacity="0.09" d="M19.4467 67.6454L19.938 67.3579C19.938 67.3579 21.6924 66.2447 21.7714 66.2354C22.9265 65.5894 24.2198 65.2699 25.5259 65.3077C25.7014 65.3077 25.868 65.3077 26.0435 65.3077C26.9326 65.3931 27.7955 65.671 28.5787 66.1241L37.8861 71.8107L47.2111 77.5346C48.0375 78.0112 48.6639 78.7995 48.9656 79.7424C49.0213 79.9676 49.0595 80.1972 49.0796 80.4289C49.0717 81.1388 48.8761 81.8322 48.5149 82.4306C48.1536 83.029 47.6412 83.5085 47.0357 83.815L46.5444 84.1025C46.5006 84.1025 44.79 85.2158 44.7023 85.2251C43.5502 85.8706 42.2598 86.1902 40.9565 86.1528C40.781 86.1528 40.6056 86.1528 40.4301 86.1528C39.5421 86.0677 38.6797 85.7931 37.8949 85.3457L28.5962 79.659L19.2976 73.9815C18.4734 73.502 17.8478 72.7148 17.5431 71.7736C17.4861 71.5492 17.4508 71.3192 17.4378 71.0871C17.4285 70.3708 17.6125 69.6666 17.9684 69.057C18.3242 68.4473 18.837 67.9577 19.4467 67.6454Z" fill="black"/>
<path opacity="0.18" d="M19.5255 67.7936L20.008 67.5153C20.0957 67.4597 21.7625 66.4671 21.8327 66.4392C22.9746 65.8399 24.2442 65.565 25.517 65.6414L26.017 65.6971C26.8832 65.8175 27.7215 66.1035 28.4908 66.5413L37.6229 72.1074L46.7461 77.6735C47.5323 78.1544 48.1484 78.8939 48.5005 79.7793C48.5648 79.9911 48.6118 80.2084 48.6409 80.4287C48.6691 81.1215 48.5014 81.8075 48.1592 82.3991C47.817 82.9906 47.3159 83.4609 46.7198 83.7498L46.2373 84.0281C46.1496 84.0838 44.5267 85.0764 44.4214 85.1042C43.2775 85.6975 42.0093 85.9721 40.737 85.902C40.5616 85.902 40.3949 85.902 40.2282 85.8464C39.3645 85.7275 38.5289 85.4413 37.7632 85.0022L28.6224 79.4361L19.508 73.87C18.7197 73.3917 18.1029 72.6514 17.7535 71.7641C17.6863 71.5526 17.6364 71.3353 17.6044 71.1147C17.5773 70.4221 17.7455 69.7367 18.0876 69.1454C18.4296 68.554 18.9301 68.0836 19.5255 67.7936Z" fill="black"/>
<path opacity="0.27" d="M19.6158 67.9516L20.0895 67.6919C20.221 67.6084 21.7299 66.6993 21.8878 66.6714C23.0189 66.1143 24.2666 65.8747 25.5108 65.9757L26.002 66.0499C26.8413 66.2064 27.6522 66.5007 28.4056 66.9219L37.371 72.4323L46.3363 77.8686C47.0924 78.3426 47.7019 79.0388 48.0907 79.8724C48.1693 80.0734 48.2309 80.2814 48.275 80.4939C48.3406 81.1624 48.2066 81.8359 47.892 82.4198C47.5774 83.0038 47.0978 83.469 46.5205 83.7501L46.038 84.0099C45.9064 84.0933 44.4064 85.0025 44.2836 85.0303C43.1522 85.5866 41.9047 85.8262 40.6606 85.726L40.1606 85.6518C39.3227 85.501 38.5138 85.2064 37.7657 84.7798L28.8004 79.2972L19.8526 73.8332C19.1009 73.3575 18.4925 72.6658 18.0981 71.8386C18.0276 71.6354 17.969 71.4279 17.9227 71.2171C17.6157 70.0111 18.2648 68.7866 19.6158 67.9516Z" fill="black"/>
<path opacity="0.36" d="M19.6917 68.0983L20.1654 67.8571C20.7336 67.5001 21.3192 67.1749 21.9198 66.883C23.04 66.3689 24.2672 66.1707 25.4814 66.3079C25.6481 66.3079 25.806 66.3635 25.9639 66.3914C26.777 66.5901 27.5617 66.9021 28.2973 67.319L37.0696 72.6903L45.842 78.0524C46.5774 78.507 47.1976 79.1437 47.6491 79.9077C47.7307 80.1009 47.801 80.2992 47.8596 80.5015C48.1315 81.6611 47.5438 82.8763 46.1841 83.7019L45.7104 83.9432C45.1431 84.302 44.5574 84.6272 43.9559 84.9172C42.8389 85.4318 41.6145 85.63 40.4031 85.4924C40.2364 85.4924 40.0785 85.4367 39.9206 85.4089C39.1063 85.2144 38.3211 84.9022 37.5872 84.4812L28.8149 79.1099L20.0425 73.7572C19.3083 73.2809 18.6894 72.6296 18.2354 71.8554C18.1653 71.6513 18.0775 71.4658 18.0249 71.2617C17.7442 70.1485 18.3407 68.9332 19.6917 68.0983Z" fill="black"/>
<path opacity="0.45" d="M19.7806 68.2578L20.2456 68.0259C20.8113 67.6779 21.3973 67.368 22 67.0982C23.1098 66.6163 24.3203 66.453 25.509 66.6251L25.9739 66.7271C26.761 66.9476 27.5229 67.2587 28.2459 67.6548L36.8691 72.9241L45.4572 78.1655C46.1706 78.6338 46.7904 79.2452 47.2819 79.9652C47.3608 80.16 47.4661 80.3363 47.5275 80.5218C47.8696 81.635 47.3257 82.841 45.9748 83.6666L45.5099 83.8893C44.9459 84.2408 44.3597 84.5508 43.7554 84.817C42.6424 85.2858 41.4344 85.4455 40.2465 85.2808L39.7815 85.1788C38.9958 84.9629 38.2364 84.6516 37.5183 84.2511L28.8951 78.9726L20.3069 73.7312C19.5916 73.2655 18.9713 72.6537 18.4823 71.9314C18.4034 71.7366 18.2981 71.5696 18.2367 71.3748C17.8858 70.2802 18.4297 69.0835 19.7806 68.2578Z" fill="black"/>
<path opacity="0.55" d="M19.8595 68.4062L20.3245 68.1928C20.8861 67.8527 21.4728 67.561 22.0789 67.3208C23.1733 66.8874 24.3561 66.7659 25.5089 66.9683C25.6668 66.9683 25.8159 67.0518 25.9651 67.0796C26.7259 67.3355 27.4629 67.6647 28.1669 68.063L36.6234 73.2209L45.0273 78.3603C45.4484 78.62 46.7818 79.6404 46.8783 80.0579C46.9873 80.2196 47.0785 80.3939 47.1502 80.5774C47.5713 81.6442 47.0713 82.841 45.7291 83.6573L45.2642 83.8707C44.7027 84.2138 44.116 84.5086 43.5097 84.752C42.4114 85.1811 41.2268 85.3025 40.071 85.1045C39.9218 85.1045 39.7727 85.0117 39.6236 84.9839C38.8645 84.746 38.1275 84.4355 37.4217 84.0562L28.9652 78.889L20.5525 73.7497C20.1402 73.4992 18.7981 72.4787 18.7103 72.052C18.5968 71.8918 18.5025 71.7173 18.4296 71.5325C18.0173 70.4193 18.5174 69.2318 19.8595 68.4062Z" fill="black"/>
<path opacity="0.64" d="M19.9484 68.5631L20.4046 68.359C20.9471 68.0299 21.5167 67.7536 22.1064 67.5334C23.1927 67.1411 24.3575 67.0579 25.4838 67.2922C25.6329 67.2922 25.7733 67.3942 25.9224 67.4313C26.6533 67.7145 27.3655 68.0493 28.0541 68.4332L36.3351 73.4984L44.5724 78.5264C45.2716 78.9496 45.9024 79.4883 46.4409 80.122C46.5602 80.2733 46.6632 80.4382 46.7479 80.6137C47.2391 81.6249 46.7479 82.8123 45.4408 83.6287L44.9847 83.8328C44.4437 84.1625 43.8737 84.4359 43.2828 84.6492C42.1965 85.0414 41.0318 85.1246 39.9055 84.8903C39.7564 84.8903 39.616 84.7883 39.4669 84.7605C38.7342 84.4781 38.0218 84.1401 37.3352 83.7493L29.0541 78.6934L20.8169 73.6653C20.4835 73.4613 19.0624 72.4037 18.9484 72.0605C18.8273 71.9139 18.7241 71.7518 18.6413 71.5781C18.1501 70.5762 18.6063 69.3794 19.9484 68.5631Z" fill="black"/>
<path opacity="0.73" d="M20.0165 68.7205L20.4727 68.535C21.0023 68.2131 21.5643 67.9549 22.1482 67.765C23.2219 67.4045 24.3682 67.3596 25.4641 67.6351C25.6133 67.6351 25.7449 67.7464 25.8852 67.7835C26.5887 68.0925 27.2767 68.4393 27.9467 68.8225L36.0699 73.7857L44.1229 78.7024C44.8085 79.1143 45.4422 79.6162 46.009 80.196C46.1407 80.334 46.2584 80.4863 46.3598 80.6505C46.9213 81.5782 46.509 82.7935 45.1756 83.6098L44.7194 83.7954C44.188 84.1134 43.6264 84.3715 43.0439 84.5653C41.9695 84.9217 40.8243 84.9666 39.728 84.6952C39.5788 84.6952 39.4472 84.5839 39.3069 84.5468C38.6034 84.2378 37.9154 83.891 37.2454 83.5078L29.1222 78.5447L21.0692 73.628C20.3855 73.213 19.7521 72.7114 19.1832 72.1344C19.0514 71.9964 18.9338 71.844 18.8323 71.6798C18.2621 70.6965 18.6919 69.5276 20.0165 68.7205Z" fill="black"/>
<path opacity="0.82" d="M20.112 68.8599L20.5594 68.6929C21.0819 68.3808 21.6388 68.1378 22.2174 67.9693C23.2794 67.6587 24.4012 67.6587 25.4631 67.9693C25.6039 68.0153 25.7416 68.071 25.8754 68.1363C26.5575 68.4559 27.2223 68.8151 27.8668 69.2124L35.8233 74.0642L43.7184 78.8789C44.3875 79.2874 45.0241 79.7528 45.622 80.2704C45.7652 80.3906 45.8922 80.531 45.9992 80.6878C46.6483 81.6155 46.2711 82.7751 44.9465 83.5915L44.4903 83.7585C43.9654 84.0745 43.4056 84.3207 42.8236 84.4913C41.7613 84.7992 40.6402 84.7992 39.5778 84.4913C39.437 84.4454 39.2993 84.3896 39.1655 84.3244C38.4835 84.0048 37.8187 83.6455 37.1742 83.2482L29.2265 78.3964L21.3314 73.5818C20.6636 73.171 20.0271 72.7057 19.4278 72.1902C19.2866 72.0676 19.16 71.9275 19.0506 71.7728C18.4102 70.8451 18.7874 69.6484 20.112 68.8599Z" fill="black"/>
<path opacity="0.91" d="M20.1945 69.018L20.6418 68.8696C21.1509 68.5594 21.7008 68.3311 22.2735 68.1924C23.3219 67.9048 24.426 67.937 25.4579 68.2851C25.5938 68.3325 25.7258 68.3914 25.8526 68.4614C25.9491 68.4614 27.7211 69.5283 27.7825 69.5654L35.5636 74.3244L43.2657 79.0277C43.3534 79.0741 45.1781 80.2337 45.1956 80.3172C45.3444 80.4295 45.4825 80.5569 45.6079 80.6976C46.3272 81.5696 45.9939 82.7292 44.6693 83.5363L44.2306 83.694C43.7143 83.9949 43.1628 84.2225 42.5902 84.3712C41.54 84.6464 40.4384 84.6111 39.4059 84.2692C39.27 84.2218 39.1379 84.1629 39.0111 84.0929C38.9234 84.0929 37.1426 83.0261 37.0812 82.9889L29.3001 78.2299L21.598 73.5266C21.5191 73.4802 19.6857 72.3206 19.6681 72.2371C19.5193 72.1248 19.3812 71.9974 19.2558 71.8567C18.5365 70.9847 18.8786 69.8251 20.1945 69.018Z" fill="black"/>
<path d="M38.8507 83.87L29.3853 78.0812L19.9112 72.2925C18.5954 71.4947 18.762 70.0939 20.2797 69.1662L20.7095 69.0363C21.487 68.5773 22.3553 68.3173 23.245 68.277C24.1346 68.2367 25.0208 68.4174 25.8326 68.8044L35.3067 74.5931L44.7808 80.3819C46.0879 81.1797 45.9212 82.5805 44.4124 83.5082L43.9737 83.6473C43.1949 84.1028 42.3264 84.36 41.4371 84.3987C40.5478 84.4373 39.6623 84.2563 38.8507 83.87Z" fill="black"/>
</g>
<path d="M40.7785 83.6314L23.3167 72.8479C22.4368 72.1756 21.717 71.2931 21.2151 70.2713C20.7133 69.2494 20.4433 68.1165 20.4268 66.9635V26.8417C20.4268 25.6889 19.5537 25.4379 20.0775 24.9824C20.0775 24.9824 21.3348 24.3689 21.361 24.3596C21.671 24.2062 22.0118 24.1369 22.3531 24.158C22.6944 24.1791 23.0255 24.2899 23.3167 24.4804L40.7785 35.2639C41.6655 35.9331 42.3917 36.8155 42.8984 37.8395C43.4051 38.8635 43.6779 40.0003 43.6946 41.1576V81.2794C43.7426 81.7412 43.6815 82.2084 43.5168 82.6386C43.3521 83.0688 43.0892 83.4484 42.7517 83.7429L41.1801 84.5331C40.6388 84.7376 41.477 84.059 40.7785 83.6314Z" fill="url(#paint17_linear_4711_2028)"/>
<g opacity="0.6">
<path d="M39.459 83.4806L22.1057 72.725C21.2292 72.0564 20.5121 71.1779 20.0121 70.1602C19.512 69.1424 19.243 68.0138 19.2266 66.8651V26.8469C19.2266 24.5845 20.5139 23.5461 22.1057 24.5196L39.459 35.2752C40.3373 35.9448 41.0561 36.8245 41.5576 37.8438C42.0591 38.8631 42.3295 39.9936 42.3469 41.1444V81.1626C42.3469 83.4249 41.0508 84.4634 39.459 83.4806Z" fill="url(#paint18_radial_4711_2028)" style="mix-blend-mode:screen"/>
</g>
<path d="M39.4721 84.2046L22.1014 73.4491C21.2261 72.7785 20.5101 71.8983 20.0108 70.8791C19.5116 69.8599 19.243 68.7299 19.2266 67.5799V27.5618C19.2266 25.2995 20.512 24.261 22.1014 25.2438L39.4721 35.9994C40.3433 36.6721 41.0564 37.5514 41.5553 38.5683C42.0541 39.5851 42.3251 40.7117 42.3469 41.8593V81.8866C42.3469 84.1397 41.0528 85.1782 39.4721 84.2046Z" fill="white"/>
<path d="M19.2266 67.5712V27.2392C19.2266 25.2515 20.3626 24.337 21.7695 25.1955L39.124 35.9738C39.8955 36.5667 40.5271 37.3435 40.9685 38.2425C41.4099 39.1415 41.649 40.138 41.6669 41.1529V81.4755C41.6669 83.4725 40.5309 84.387 39.124 83.5285L21.7695 72.741C20.9951 72.1532 20.3613 71.3788 19.9195 70.4806C19.4777 69.5824 19.2403 68.5856 19.2266 67.5712Z" fill="url(#paint19_linear_4711_2028)"/>
<path d="M19.9102 63.8148V28.2735C19.9102 26.6249 20.883 25.8696 22.079 26.5788L39.5016 37.0322C40.1606 37.5211 40.6998 38.162 41.0764 38.9039C41.4529 39.6458 41.6563 40.4682 41.6705 41.3056V76.8562C41.6705 78.5047 40.6976 79.26 39.5016 78.5508L22.079 68.0883C21.4185 67.6009 20.8782 66.9603 20.5014 66.218C20.1247 65.4758 19.9222 64.6526 19.9102 63.8148Z" fill="url(#paint20_linear_4711_2028)"/>
<path d="M22.5577 26.6036C21.475 25.9297 20.5898 26.4651 20.5898 27.8036V63.8775C20.6289 64.6084 20.8273 65.3192 21.1692 65.9526C21.511 66.5859 21.9866 67.1241 22.5577 67.5237L39.0223 77.8068C40.105 78.4807 40.9901 77.9453 40.9901 76.6068V40.5329C40.9511 39.802 40.7527 39.0911 40.4108 38.4578C40.069 37.8244 39.5934 37.2863 39.0223 36.8867L22.5577 26.6036Z" fill="url(#paint21_linear_4711_2028)"/>
<g style="mix-blend-mode:multiply">
<path d="M39.0223 36.8867L22.5577 26.6036C21.475 25.9297 20.5898 26.4651 20.5898 27.8036V63.8775C20.6289 64.6084 20.8273 65.3192 21.1692 65.9526C21.511 66.5859 21.9866 67.1241 22.5577 67.5237L39.0223 77.8068C40.105 78.4807 40.9901 77.9453 40.9901 76.6068V40.5329C40.9511 39.802 40.7527 39.0911 40.4108 38.4578C40.069 37.8244 39.5934 37.2863 39.0223 36.8867ZM40.8183 76.5791C40.8353 76.9311 40.7414 77.2791 40.5519 77.5668C40.4754 77.671 40.3773 77.7545 40.2654 77.8106C40.1534 77.8667 40.0308 77.8939 39.9074 77.8899C39.6238 77.8772 39.3483 77.7849 39.1082 77.6222L22.6436 67.3391C22.0968 66.9572 21.6414 66.4423 21.3145 65.8361C20.9875 65.2298 20.7981 64.5494 20.7617 63.8499V27.8128C20.7617 27.0005 21.114 26.502 21.6726 26.502C21.956 26.516 22.2312 26.6082 22.4718 26.7697L38.9364 37.0436C39.4832 37.4255 39.9386 37.9404 40.2655 38.5466C40.5925 39.1529 40.7819 39.8333 40.8183 40.5329V76.5791Z" fill="#BCBEC0"/>
</g>
<path d="M31.4697 76.3933C31.4697 77.2704 31.013 77.6359 30.4497 77.1869C30.1554 76.9202 29.9102 76.5636 29.7333 76.1452C29.5563 75.7267 29.4524 75.2577 29.4297 74.7749C29.4297 73.8874 29.8864 73.5323 30.4497 73.9709C30.7449 74.2386 30.9908 74.5968 31.1678 75.0172C31.3448 75.4376 31.4482 75.9087 31.4697 76.3933Z" fill="#555555"/>
<defs>
<radialGradient id="paint0_radial_4711_2028" cx="0" cy="0" r="1" gradientUnits="userSpaceOnUse" gradientTransform="translate(52.083 62.0201) scale(20.3841 11.1124)">
<stop offset="0.19" stop-color="#5F5C5D"/>
<stop offset="1" stop-color="white"/>
</radialGradient>
<linearGradient id="paint1_linear_4711_2028" x1="-5.9014" y1="63.6493" x2="78.5134" y2="63.0754" gradientUnits="userSpaceOnUse">
<stop offset="0.0555556" stop-color="#3E3D3E"/>
<stop offset="0.2575" stop-color="#686868"/>
<stop offset="0.3569" stop-color="#868686"/>
<stop offset="0.4338" stop-color="#646464"/>
<stop offset="0.4949" stop-color="#535353"/>
<stop offset="0.5067" stop-color="#585858"/>
<stop offset="0.5196" stop-color="#919191"/>
<stop offset="0.5329" stop-color="#D6D6D6"/>
<stop offset="0.5466" stop-color="#FCFCFC"/>
<stop offset="0.5556" stop-color="white"/>
<stop offset="0.5678" stop-color="#D3D3D3"/>
<stop offset="0.5801" stop-color="#BCBCBC"/>
<stop offset="0.5915" stop-color="#A5A3A6"/>
<stop offset="0.601" stop-color="#A3A3A3"/>
<stop offset="0.658" stop-color="#707070"/>
<stop offset="0.7155" stop-color="#575757"/>
<stop offset="0.7687" stop-color="#676767"/>
<stop offset="0.8131" stop-color="#6D6D6D"/>
<stop offset="1" stop-color="#111111"/>
</linearGradient>
<linearGradient id="paint2_linear_4711_2028" x1="69.6953" y1="29.7007" x2="42.1982" y2="57.4783" gradientUnits="userSpaceOnUse">
<stop stop-color="#858585"/>
<stop offset="0.14" stop-color="#A0A0A0"/>
<stop offset="0.33" stop-color="#A7A7A7"/>
<stop offset="0.58" stop-color="#B3B3B3"/>
<stop offset="0.76" stop-color="#C4C4C4"/>
<stop offset="1" stop-color="#F7F7F7"/>
</linearGradient>
<radialGradient id="paint3_radial_4711_2028" cx="0" cy="0" r="1" gradientUnits="userSpaceOnUse" gradientTransform="translate(45.2694 59.874) scale(12.0385 12.5391)">
<stop stop-color="white"/>
<stop offset="1"/>
</radialGradient>
<linearGradient id="paint4_linear_4711_2028" x1="-5.9014" y1="54.2997" x2="78.5134" y2="53.7257" gradientUnits="userSpaceOnUse">
<stop offset="0.0555556" stop-color="#3E3D3E"/>
<stop offset="0.2575" stop-color="#686868"/>
<stop offset="0.3569" stop-color="#868686"/>
<stop offset="0.4338" stop-color="#646464"/>
<stop offset="0.4949" stop-color="#535353"/>
<stop offset="0.5067" stop-color="#585858"/>
<stop offset="0.5196" stop-color="#919191"/>
<stop offset="0.5329" stop-color="#D6D6D6"/>
<stop offset="0.5466" stop-color="#FCFCFC"/>
<stop offset="0.5556" stop-color="white"/>
<stop offset="0.5678" stop-color="#D3D3D3"/>
<stop offset="0.5801" stop-color="#BCBCBC"/>
<stop offset="0.5915" stop-color="#A5A3A6"/>
<stop offset="0.601" stop-color="#A3A3A3"/>
<stop offset="0.658" stop-color="#707070"/>
<stop offset="0.7155" stop-color="#575757"/>
<stop offset="0.7687" stop-color="#676767"/>
<stop offset="0.8131" stop-color="#6D6D6D"/>
<stop offset="1" stop-color="#111111"/>
</linearGradient>
<linearGradient id="paint5_linear_4711_2028" x1="69.6953" y1="20.3511" x2="42.1982" y2="48.1287" gradientUnits="userSpaceOnUse">
<stop stop-color="#858585"/>
<stop offset="0.14" stop-color="#A0A0A0"/>
<stop offset="0.33" stop-color="#A7A7A7"/>
<stop offset="0.58" stop-color="#B3B3B3"/>
<stop offset="0.76" stop-color="#C4C4C4"/>
<stop offset="1" stop-color="#F7F7F7"/>
</linearGradient>
<radialGradient id="paint6_radial_4711_2028" cx="0" cy="0" r="1" gradientUnits="userSpaceOnUse" gradientTransform="translate(45.2694 50.535) scale(12.0385 12.5278)">
<stop stop-color="white"/>
<stop offset="1"/>
</radialGradient>
<linearGradient id="paint7_linear_4711_2028" x1="31.955" y1="39.5516" x2="65.8152" y2="42.467" gradientUnits="userSpaceOnUse">
<stop stop-color="#7E7E7E"/>
<stop offset="0.16" stop-color="#A6A6A6"/>
<stop offset="0.26" stop-color="#E1E1E1"/>
<stop offset="0.33" stop-color="white"/>
<stop offset="0.49" stop-color="#E2E1E2"/>
<stop offset="0.62" stop-color="#E8E6E9"/>
<stop offset="0.74" stop-color="#CBCBCB"/>
<stop offset="0.9" stop-color="#C5C5C5"/>
</linearGradient>
<linearGradient id="paint8_linear_4711_2028" x1="-5.9014" y1="44.9501" x2="78.5134" y2="44.3761" gradientUnits="userSpaceOnUse">
<stop offset="0.0555556" stop-color="#3E3D3E"/>
<stop offset="0.2575" stop-color="#686868"/>
<stop offset="0.3569" stop-color="#868686"/>
<stop offset="0.4338" stop-color="#646464"/>
<stop offset="0.4949" stop-color="#535353"/>
<stop offset="0.5067" stop-color="#585858"/>
<stop offset="0.5196" stop-color="#919191"/>
<stop offset="0.5329" stop-color="#D6D6D6"/>
<stop offset="0.5466" stop-color="#FCFCFC"/>
<stop offset="0.5556" stop-color="white"/>
<stop offset="0.5678" stop-color="#D3D3D3"/>
<stop offset="0.5801" stop-color="#BCBCBC"/>
<stop offset="0.5915" stop-color="#A5A3A6"/>
<stop offset="0.601" stop-color="#A3A3A3"/>
<stop offset="0.658" stop-color="#707070"/>
<stop offset="0.7155" stop-color="#575757"/>
<stop offset="0.7687" stop-color="#676767"/>
<stop offset="0.8131" stop-color="#6D6D6D"/>
<stop offset="1" stop-color="#111111"/>
</linearGradient>
<linearGradient id="paint9_linear_4711_2028" x1="69.6953" y1="10.9995" x2="42.1982" y2="38.7771" gradientUnits="userSpaceOnUse">
<stop stop-color="#858585"/>
<stop offset="0.14" stop-color="#A0A0A0"/>
<stop offset="0.33" stop-color="#A7A7A7"/>
<stop offset="0.58" stop-color="#B3B3B3"/>
<stop offset="0.76" stop-color="#C4C4C4"/>
<stop offset="1" stop-color="#F7F7F7"/>
</linearGradient>
<radialGradient id="paint10_radial_4711_2028" cx="0" cy="0" r="1" gradientUnits="userSpaceOnUse" gradientTransform="translate(45.2694 41.1763) scale(12.0385 12.5278)">
<stop stop-color="white"/>
<stop offset="1"/>
</radialGradient>
<linearGradient id="paint11_linear_4711_2028" x1="-5.9014" y1="35.6005" x2="78.5134" y2="35.0265" gradientUnits="userSpaceOnUse">
<stop offset="0.0555556" stop-color="#3E3D3E"/>
<stop offset="0.2575" stop-color="#686868"/>
<stop offset="0.3569" stop-color="#868686"/>
<stop offset="0.4338" stop-color="#646464"/>
<stop offset="0.4949" stop-color="#535353"/>
<stop offset="0.5067" stop-color="#585858"/>
<stop offset="0.5196" stop-color="#919191"/>
<stop offset="0.5329" stop-color="#D6D6D6"/>
<stop offset="0.5466" stop-color="#FCFCFC"/>
<stop offset="0.5556" stop-color="white"/>
<stop offset="0.5678" stop-color="#D3D3D3"/>
<stop offset="0.5801" stop-color="#BCBCBC"/>
<stop offset="0.5915" stop-color="#A5A3A6"/>
<stop offset="0.601" stop-color="#A3A3A3"/>
<stop offset="0.658" stop-color="#707070"/>
<stop offset="0.7155" stop-color="#575757"/>
<stop offset="0.7687" stop-color="#676767"/>
<stop offset="0.8131" stop-color="#6D6D6D"/>
<stop offset="1" stop-color="#111111"/>
</linearGradient>
<linearGradient id="paint12_linear_4711_2028" x1="69.6953" y1="1.6499" x2="42.1982" y2="29.4275" gradientUnits="userSpaceOnUse">
<stop stop-color="#858585"/>
<stop offset="0.14" stop-color="#A0A0A0"/>
<stop offset="0.33" stop-color="#A7A7A7"/>
<stop offset="0.58" stop-color="#B3B3B3"/>
<stop offset="0.76" stop-color="#C4C4C4"/>
<stop offset="1" stop-color="#F7F7F7"/>
</linearGradient>
<radialGradient id="paint13_radial_4711_2028" cx="0" cy="0" r="1" gradientUnits="userSpaceOnUse" gradientTransform="translate(45.2694 31.8086) scale(12.0385 12.5278)">
<stop stop-color="white"/>
<stop offset="1"/>
</radialGradient>
<linearGradient id="paint14_linear_4711_2028" x1="-5.9014" y1="26.249" x2="78.5134" y2="25.675" gradientUnits="userSpaceOnUse">
<stop offset="0.0555556" stop-color="#3E3D3E"/>
<stop offset="0.2575" stop-color="#686868"/>
<stop offset="0.3569" stop-color="#868686"/>
<stop offset="0.4338" stop-color="#646464"/>
<stop offset="0.4949" stop-color="#535353"/>
<stop offset="0.5067" stop-color="#585858"/>
<stop offset="0.5196" stop-color="#919191"/>
<stop offset="0.5329" stop-color="#D6D6D6"/>
<stop offset="0.5466" stop-color="#FCFCFC"/>
<stop offset="0.5556" stop-color="white"/>
<stop offset="0.5678" stop-color="#D3D3D3"/>
<stop offset="0.5801" stop-color="#BCBCBC"/>
<stop offset="0.5915" stop-color="#A5A3A6"/>
<stop offset="0.601" stop-color="#A3A3A3"/>
<stop offset="0.658" stop-color="#707070"/>
<stop offset="0.7155" stop-color="#575757"/>
<stop offset="0.7687" stop-color="#676767"/>
<stop offset="0.8131" stop-color="#6D6D6D"/>
<stop offset="1" stop-color="#111111"/>
</linearGradient>
<linearGradient id="paint15_linear_4711_2028" x1="69.6953" y1="-7.69971" x2="42.1982" y2="20.0779" gradientUnits="userSpaceOnUse">
<stop stop-color="#858585"/>
<stop offset="0.14" stop-color="#A0A0A0"/>
<stop offset="0.33" stop-color="#A7A7A7"/>
<stop offset="0.58" stop-color="#B3B3B3"/>
<stop offset="0.76" stop-color="#C4C4C4"/>
<stop offset="1" stop-color="#F7F7F7"/>
</linearGradient>
<radialGradient id="paint16_radial_4711_2028" cx="0" cy="0" r="1" gradientUnits="userSpaceOnUse" gradientTransform="translate(45.2694 22.4751) scale(12.0385 12.5278)">
<stop stop-color="white"/>
<stop offset="1"/>
</radialGradient>
<linearGradient id="paint17_linear_4711_2028" x1="30.2676" y1="-18.8066" x2="90.6459" y2="56.8671" gradientUnits="userSpaceOnUse">
<stop offset="0.0555556" stop-color="#3E3D3E"/>
<stop offset="0.2575" stop-color="#686868"/>
<stop offset="0.3569" stop-color="#868686"/>
<stop offset="0.4338" stop-color="#646464"/>
<stop offset="0.4949" stop-color="#535353"/>
<stop offset="0.5067" stop-color="#585858"/>
<stop offset="0.5196" stop-color="#919191"/>
<stop offset="0.5329" stop-color="#D6D6D6"/>
<stop offset="0.5466" stop-color="#FCFCFC"/>
<stop offset="0.5556" stop-color="white"/>
<stop offset="0.5678" stop-color="#D3D3D3"/>
<stop offset="0.5801" stop-color="#BCBCBC"/>
<stop offset="0.5915" stop-color="#A5A3A6"/>
<stop offset="0.601" stop-color="#A3A3A3"/>
<stop offset="0.658" stop-color="#707070"/>
<stop offset="0.7155" stop-color="#575757"/>
<stop offset="0.7687" stop-color="#676767"/>
<stop offset="0.8131" stop-color="#6D6D6D"/>
<stop offset="1" stop-color="#111111"/>
</linearGradient>
<radialGradient id="paint18_radial_4711_2028" cx="0" cy="0" r="1" gradientUnits="userSpaceOnUse" gradientTransform="translate(41.6597 37.1389) scale(21.0936 22.4847)">
<stop stop-color="white"/>
<stop offset="0.398958" stop-color="#E7E7E7"/>
<stop offset="1" stop-color="#2E2E2E"/>
</radialGradient>
<linearGradient id="paint19_linear_4711_2028" x1="1.59237" y1="70.7906" x2="45.0717" y2="49.0788" gradientUnits="userSpaceOnUse">
<stop stop-color="#B0B0B0"/>
<stop offset="0.14" stop-color="#9F9F9F"/>
<stop offset="0.27" stop-color="#999999"/>
<stop offset="0.4" stop-color="#A6A6A6"/>
<stop offset="0.52" stop-color="#9D9D9D"/>
<stop offset="0.65" stop-color="#9E9E9E"/>
<stop offset="0.9" stop-color="#DADADA"/>
<stop offset="1" stop-color="white"/>
</linearGradient>
<linearGradient id="paint20_linear_4711_2028" x1="19.8566" y1="52.5602" x2="41.6259" y2="52.5602" gradientUnits="userSpaceOnUse">
<stop stop-color="#252525"/>
<stop offset="1" stop-color="#222222"/>
</linearGradient>
<linearGradient id="paint21_linear_4711_2028" x1="19.9454" y1="30.0005" x2="49.9938" y2="83.3377" gradientUnits="userSpaceOnUse">
<stop offset="0.01" stop-color="#999999"/>
<stop offset="0.43" stop-color="#7C7C7C"/>
<stop offset="0.9" stop-color="#4A4A4A"/>
</linearGradient>
</defs>
</svg>
