<svg width="24" height="24" viewBox="0 0 24 24" fill="none" xmlns="http://www.w3.org/2000/svg">
<path d="M12.9772 10.7738C12.9862 10.7625 12.9945 10.7505 13.0005 10.7378V10.7738H12.9772ZM24 0V24H0V0H24ZM7.44375 9.21375H3.86475V19.9792H7.44375V9.21375ZM7.67775 5.88525C7.65525 4.82775 6.9015 4.02375 5.67675 4.02375C4.4535 4.02375 3.65325 4.82775 3.65325 5.88525C3.65325 6.9165 4.4295 7.7445 5.63025 7.7445H5.6535C6.9015 7.7445 7.67775 6.9165 7.67775 5.88525ZM20.3468 13.806C20.3468 10.5 18.5805 8.96175 16.2262 8.96175C14.328 8.96175 13.4782 10.005 13.0005 10.7378V9.21375H9.423C9.46875 10.2232 9.423 19.9792 9.423 19.9792H13.0005V13.9672C13.0005 13.6417 13.0237 13.326 13.1182 13.0942C13.3777 12.4537 13.9672 11.7847 14.9542 11.7847C16.251 11.7847 16.7677 12.7702 16.7677 14.2192V19.9792H20.346L20.3468 13.806Z" fill="#E3E3E3"/>
</svg>
