<svg width="310" height="65" viewBox="0 0 310 65" fill="none" xmlns="http://www.w3.org/2000/svg">
<g clip-path="url(#clip0_3653_293)">
<path fill-rule="evenodd" clip-rule="evenodd" d="M12.0872 0H0V32.4999V32.8185H0.00159651C0.0868217 41.323 3.58124 49.461 9.75319 55.4808C15.9251 61.5007 24.2753 64.9151 32.9947 64.9982V64.9998H33.3213H60.7626C61.5348 64.9998 62.2996 64.8513 63.0131 64.5633C63.7265 64.2749 64.3747 63.8524 64.9206 63.32C65.4668 62.7873 65.9 62.1551 66.1953 61.4592C66.4909 60.7634 66.6428 60.0178 66.6428 59.2645V0H54.5556V53.2106H33.3151C27.6851 53.2106 22.2857 51.0229 18.3047 47.1402C14.3237 43.2574 12.0872 37.9911 12.0872 32.4999V0Z" fill="#F7F7F7"/>
<path fill-rule="evenodd" clip-rule="evenodd" d="M28.7493 0H16.6621V32.4999C16.6621 34.6337 17.0931 36.7469 17.9304 38.7185C18.7676 40.6899 19.9948 42.4815 21.5419 43.9902C23.089 45.4992 24.9257 46.6963 26.9471 47.5129C28.9685 48.3296 31.1349 48.7499 33.3227 48.7499H49.9835V36.9607H33.3227C32.6573 36.9365 32.1352 36.7953 31.591 36.5745C31.0562 36.3445 30.5371 35.9946 30.1408 35.6142C29.757 35.2369 29.4025 34.7644 29.1404 34.1874C28.8997 33.6081 28.7711 33.1168 28.7493 32.4999V0Z" fill="#9FEA00"/>
<path d="M154.519 0H142.432V64.9998H154.519V0Z" fill="#F7F7F7"/>
<path fill-rule="evenodd" clip-rule="evenodd" d="M160.362 10.0314C159.525 12.0029 159.094 14.116 159.094 16.25V48.7499C159.094 50.8837 159.525 52.9968 160.362 54.9685C161.2 56.9398 162.427 58.7315 163.974 60.2402C165.521 61.7492 167.357 62.9463 169.379 63.7629C171.4 64.5795 173.567 64.9998 175.755 64.9998H218.386V53.2106H175.755C175.089 53.1864 174.567 53.0453 174.023 52.8245C173.488 52.5944 172.969 52.2446 172.573 51.8641C172.189 51.4869 171.834 51.0143 171.572 50.4373C171.332 49.858 171.203 49.3667 171.181 48.7499V16.25C171.206 15.6009 171.351 15.0916 171.577 14.5608C171.813 14.0391 172.171 13.5329 172.562 13.1463C172.949 12.772 173.433 12.4263 174.024 12.1706C174.619 11.9358 175.122 11.8104 175.755 11.7892H218.386V0H175.755C173.567 0 171.4 0.420316 169.379 1.23695C167.357 2.05359 165.521 3.25056 163.974 4.75952C162.427 6.26844 161.2 8.05982 160.362 10.0314Z" fill="#F7F7F7"/>
<path fill-rule="evenodd" clip-rule="evenodd" d="M81.5383 1.73064L125.773 44.8744V0H137.86V59.1052V59.2645H137.858C137.771 62.4463 135.099 64.9998 131.816 64.9998C130.175 64.9998 128.687 64.3616 127.597 63.3258L83.304 20.1254V64.9998H71.2168V5.89459V5.73528H71.2191C71.3057 2.55343 73.9773 0 77.2604 0C78.8598 0 80.3142 0.605926 81.3952 1.59525L81.3972 1.59314L81.5298 1.72234C81.5327 1.7251 81.5353 1.72787 81.5383 1.73064Z" fill="#F7F7F7"/>
<path fill-rule="evenodd" clip-rule="evenodd" d="M233.74 27.7207H227.533V56.0785C227.533 57.2501 227.77 58.4102 228.23 59.4925C228.689 60.5749 229.363 61.5585 230.212 62.387C231.062 63.2154 232.07 63.8724 233.18 64.321C234.29 64.7693 235.479 65 236.68 65H239.62V58.9461H236.68V58.9394C236.295 58.9394 235.914 58.8655 235.558 58.7218C235.202 58.5778 234.879 58.3672 234.606 58.1014C234.334 57.8357 234.118 57.5206 233.971 57.1733C233.823 56.8263 233.747 56.4541 233.747 56.0785H233.74V27.7207Z" fill="#9FEA00"/>
<path fill-rule="evenodd" clip-rule="evenodd" d="M267.295 37.6399C266.185 37.1916 264.996 36.9609 263.795 36.9609H248.767V43.0148H263.795V43.0215C264.18 43.0215 264.561 43.0955 264.918 43.2392C265.273 43.3832 265.597 43.5938 265.869 43.8595C266.141 44.1253 266.358 44.4404 266.505 44.7877C266.652 45.1347 266.728 45.5068 266.728 45.8825H266.735V56.0785H266.728C266.728 56.4542 266.652 56.8263 266.505 57.1733C266.358 57.5206 266.141 57.8357 265.869 58.1015C265.597 58.3672 265.273 58.5778 264.918 58.7219C264.561 58.8656 264.18 58.9395 263.795 58.9395V58.9462H251.708V58.9439C251.322 58.9439 250.94 58.8697 250.583 58.7257C250.227 58.5817 249.903 58.3707 249.631 58.1047C249.358 57.8386 249.141 57.5225 248.994 57.1749C248.846 56.8273 248.767 56.4548 248.767 56.0785C248.767 55.7022 248.846 55.3298 248.994 54.9821C249.141 54.6345 249.358 54.3184 249.631 54.0524C249.903 53.7863 250.227 53.5754 250.583 53.4314C250.94 53.2874 251.322 53.2131 251.708 53.2131V53.2109H263.795V47.157H251.708C250.506 47.157 249.317 47.3877 248.207 47.836C247.097 48.2843 246.089 48.9416 245.24 49.77C244.39 50.5985 243.717 51.5821 243.257 52.6644C242.797 53.7468 242.561 54.9069 242.561 56.0785C242.561 57.2501 242.797 58.4102 243.257 59.4926C243.717 60.575 244.39 61.5586 245.24 62.387C246.089 63.2154 247.097 63.8724 248.207 64.3211C249.317 64.7694 250.506 65.0001 251.708 65.0001H263.795C264.996 65.0001 266.185 64.7694 267.295 64.3211C268.405 63.8724 269.413 63.2154 270.263 62.387C271.112 61.5586 271.786 60.575 272.246 59.4926C272.705 58.4102 272.942 57.2501 272.942 56.0785V45.8825C272.942 44.7109 272.705 43.5508 272.246 42.4684C271.786 41.386 271.112 40.4024 270.263 39.574C269.413 38.7456 268.405 38.0886 267.295 37.6399Z" fill="#9FEA00"/>
<path fill-rule="evenodd" clip-rule="evenodd" d="M275.883 27.7207H282.09V56.0785H282.097C282.097 56.4541 282.173 56.8263 282.32 57.1733C282.467 57.5206 282.683 57.8357 282.956 58.1014C283.228 58.3672 283.552 58.5778 283.907 58.7218C284.264 58.8655 284.645 58.9394 285.03 58.9394V58.9461H297.117V58.9394C297.503 58.9394 297.884 58.8655 298.24 58.7218C298.596 58.5778 298.919 58.3672 299.192 58.1014C299.464 57.8357 299.68 57.5206 299.827 57.1733C299.975 56.8263 300.051 56.4541 300.051 56.0785H300.057V45.8824H300.051C300.051 45.5068 299.975 45.1346 299.827 44.7876C299.68 44.4403 299.464 44.1252 299.192 43.8595C298.919 43.5937 298.596 43.3831 298.24 43.2391C297.884 43.0954 297.503 43.0215 297.117 43.0215V43.0148H285.03V36.9609H297.117H297.444V36.9666C298.534 37.0045 299.609 37.2323 300.618 37.6399C301.728 38.0885 302.736 38.7455 303.585 39.5739C304.435 40.4024 305.109 41.386 305.568 42.4683C306.028 43.5507 306.264 44.7108 306.264 45.8824V56.0785C306.264 57.2501 306.028 58.4102 305.568 59.4925C305.109 60.5749 304.435 61.5585 303.585 62.387C302.736 63.2154 301.728 63.8724 300.618 64.321C299.609 64.7285 298.534 64.9564 297.444 64.9943V65H297.117H285.03C283.829 65 282.639 64.7693 281.53 64.321C280.42 63.8724 279.411 63.2154 278.562 62.387C277.713 61.5585 277.039 60.5749 276.579 59.4925C276.12 58.4102 275.883 57.2501 275.883 56.0785V27.7207Z" fill="#9FEA00"/>
</g>
<defs>
<clipPath id="clip0_3653_293">
<rect width="310" height="65" fill="white"/>
</clipPath>
</defs>
</svg>
