<svg width="139" height="30" viewBox="0 0 139 30" fill="none" xmlns="http://www.w3.org/2000/svg">
<path fill-rule="evenodd" clip-rule="evenodd" d="M5.57442 0.1875H0.0986328V14.9997V15.145H0.0993561C0.137965 19.021 1.72102 22.73 4.51706 25.4736C7.31311 28.2172 11.0959 29.7733 15.046 29.8112V29.812H15.194H27.6255C27.9754 29.812 28.3219 29.7443 28.6451 29.613C28.9683 29.4816 29.2619 29.289 29.5092 29.0464C29.7567 28.8036 29.9529 28.5155 30.0867 28.1983C30.2206 27.8812 30.2894 27.5413 30.2894 27.198V0.1875H24.8136V24.4389H15.1912C12.6406 24.4389 10.1946 23.4418 8.3911 21.6722C6.58761 19.9026 5.57442 17.5024 5.57442 14.9997V0.1875Z" fill="#F7F7F7"/>
<path fill-rule="evenodd" clip-rule="evenodd" d="M13.1223 0.1875H7.64648V14.9997C7.64648 15.9723 7.84172 16.9353 8.22103 17.834C8.60034 18.7324 9.15629 19.549 9.85717 20.2366C10.558 20.9243 11.3901 21.4699 12.3058 21.8421C13.2216 22.2143 14.203 22.4059 15.1941 22.4059H22.7419V17.0328H15.1941C14.8927 17.0218 14.6562 16.9574 14.4096 16.8568C14.1673 16.7519 13.9322 16.5925 13.7526 16.4191C13.5788 16.2472 13.4182 16.0318 13.2994 15.7688C13.1904 15.5048 13.1321 15.2809 13.1223 14.9997V0.1875Z" fill="#9FEA00"/>
<path d="M70.0998 0.1875H64.624V29.812H70.0998V0.1875Z" fill="#F7F7F7"/>
<path fill-rule="evenodd" clip-rule="evenodd" d="M72.7465 4.75941C72.3672 5.65796 72.1719 6.62103 72.1719 7.59362V22.4059C72.1719 23.3784 72.3672 24.3415 72.7465 25.2401C73.1258 26.1385 73.6817 26.9551 74.3826 27.6427C75.0835 28.3305 75.9155 28.876 76.8313 29.2482C77.747 29.6204 78.7285 29.812 79.7196 29.812H99.0329V24.4389H79.7196C79.4181 24.4279 79.1816 24.3635 78.9351 24.2629C78.6928 24.1581 78.4577 23.9986 78.2781 23.8252C78.1042 23.6533 77.9437 23.4379 77.8248 23.1749C77.7159 22.9109 77.6576 22.687 77.6477 22.4059V7.59362C77.6589 7.29779 77.7245 7.06566 77.827 6.82374C77.934 6.58601 78.0964 6.35529 78.2731 6.17908C78.4485 6.00848 78.6678 5.85093 78.9358 5.73441C79.205 5.62741 79.4332 5.57024 79.7196 5.56057H99.0329V0.1875H79.7196C78.7285 0.1875 77.747 0.379064 76.8313 0.751257C75.9155 1.12345 75.0835 1.66898 74.3826 2.35671C73.6817 3.04442 73.1258 3.86086 72.7465 4.75941Z" fill="#F7F7F7"/>
<path fill-rule="evenodd" clip-rule="evenodd" d="M37.0372 0.976259L57.0764 20.6396V0.1875H62.5522V27.1254V27.198H62.5513C62.5121 28.6482 61.3016 29.812 59.8143 29.812C59.0708 29.812 58.3965 29.5211 57.9031 29.049L57.9029 29.0491L37.8371 9.3599V29.812H32.3613V2.87403V2.80142H32.3624C32.4016 1.35126 33.6119 0.1875 35.0992 0.1875C35.8238 0.1875 36.4827 0.463658 36.9724 0.914557L36.9733 0.913591L37.0334 0.972477C37.0347 0.973736 37.0359 0.974997 37.0372 0.976259Z" fill="#F7F7F7"/>
<path fill-rule="evenodd" clip-rule="evenodd" d="M105.989 12.8223H103.177V25.7467C103.177 26.2806 103.284 26.8094 103.492 27.3027C103.701 27.796 104.006 28.2443 104.39 28.6218C104.775 28.9994 105.232 29.2988 105.735 29.5033C106.238 29.7076 106.776 29.8128 107.321 29.8128H108.653V27.0536H107.321V27.0506C107.146 27.0506 106.973 27.0169 106.812 26.9514C106.651 26.8858 106.504 26.7898 106.381 26.6687C106.258 26.5475 106.16 26.4039 106.093 26.2456C106.026 26.0875 105.992 25.9179 105.992 25.7467H105.989V12.8223Z" fill="#9FEA00"/>
<path fill-rule="evenodd" clip-rule="evenodd" d="M121.19 17.3427C120.687 17.1383 120.148 17.0332 119.604 17.0332H112.796V19.7923H119.604V19.7954C119.779 19.7954 119.951 19.8291 120.113 19.8946C120.274 19.9602 120.42 20.0562 120.544 20.1773C120.667 20.2984 120.765 20.442 120.832 20.6003C120.898 20.7585 120.933 20.9281 120.933 21.0993H120.936V25.7463H120.933C120.933 25.9175 120.898 26.0871 120.832 26.2452C120.765 26.4035 120.667 26.5472 120.544 26.6683C120.42 26.7894 120.274 26.8854 120.113 26.951C119.951 27.0165 119.779 27.0502 119.604 27.0502V27.0532H114.128V27.0522C113.954 27.0522 113.78 27.0184 113.619 26.9528C113.457 26.8871 113.311 26.791 113.187 26.6697C113.064 26.5485 112.966 26.4044 112.899 26.246C112.832 26.0875 112.796 25.9178 112.796 25.7463C112.796 25.5748 112.832 25.405 112.899 25.2466C112.966 25.0882 113.064 24.9441 113.187 24.8228C113.311 24.7016 113.457 24.6054 113.619 24.5398C113.78 24.4742 113.954 24.4403 114.128 24.4403V24.4393H119.604V21.6802H114.128C113.584 21.6802 113.045 21.7853 112.542 21.9896C112.04 22.194 111.583 22.4935 111.198 22.8711C110.813 23.2487 110.508 23.697 110.3 24.1903C110.092 24.6836 109.984 25.2123 109.984 25.7463C109.984 26.2802 110.092 26.809 110.3 27.3023C110.508 27.7956 110.813 28.2439 111.198 28.6215C111.583 28.999 112.04 29.2985 112.542 29.5029C113.045 29.7072 113.584 29.8124 114.128 29.8124H119.604C120.148 29.8124 120.687 29.7072 121.19 29.5029C121.693 29.2985 122.149 28.999 122.534 28.6215C122.919 28.2439 123.224 27.7956 123.432 27.3023C123.641 26.809 123.748 26.2802 123.748 25.7463V21.0993C123.748 20.5653 123.641 20.0366 123.432 19.5433C123.224 19.05 122.919 18.6017 122.534 18.2241C122.149 17.8466 121.693 17.5471 121.19 17.3427Z" fill="#9FEA00"/>
<path fill-rule="evenodd" clip-rule="evenodd" d="M125.08 12.8223H127.892V25.7467H127.895C127.895 25.9179 127.93 26.0875 127.996 26.2456C128.063 26.4039 128.161 26.5475 128.284 26.6687C128.408 26.7898 128.554 26.8858 128.715 26.9514C128.877 27.0169 129.049 27.0506 129.224 27.0506V27.0536H134.7V27.0506C134.874 27.0506 135.047 27.0169 135.208 26.9514C135.37 26.8858 135.516 26.7898 135.64 26.6687C135.763 26.5475 135.861 26.4039 135.928 26.2456C135.994 26.0875 136.029 25.9179 136.029 25.7467H136.032V21.0997H136.029C136.029 20.9285 135.994 20.7589 135.928 20.6007C135.861 20.4424 135.763 20.2988 135.64 20.1777C135.516 20.0566 135.37 19.9606 135.208 19.895C135.047 19.8295 134.874 19.7958 134.7 19.7958V19.7927H129.224V17.0336H134.7H134.848V17.0362C135.341 17.0535 135.829 17.1573 136.286 17.343C136.788 17.5475 137.245 17.847 137.63 18.2245C138.015 18.6021 138.32 19.0504 138.528 19.5437C138.736 20.037 138.844 20.5657 138.844 21.0997V25.7467C138.844 26.2806 138.736 26.8094 138.528 27.3027C138.32 27.796 138.015 28.2443 137.63 28.6218C137.245 28.9994 136.788 29.2988 136.286 29.5033C135.829 29.689 135.341 29.7929 134.848 29.8102V29.8128H134.7H129.224C128.68 29.8128 128.141 29.7076 127.638 29.5033C127.135 29.2988 126.679 28.9994 126.294 28.6218C125.909 28.2443 125.604 27.796 125.396 27.3027C125.187 26.8094 125.08 26.2806 125.08 25.7467V12.8223Z" fill="#9FEA00"/>
</svg>
