<svg width="1119" height="928" viewBox="0 0 1119 928" fill="none" xmlns="http://www.w3.org/2000/svg">
<path d="M716.5 192H598.911V353H494L490.838 862.5H4V928" stroke="url(#paint0_linear_2664_83389)"/>
<circle cx="4.5" cy="862.5" r="4.5" fill="#CACFBF"/>
<circle cx="490.5" cy="862.5" r="4.5" fill="#C7CEB6"/>
<circle cx="493.5" cy="353.5" r="4.5" fill="#A2CD47"/>
<circle cx="598.5" cy="353.5" r="4.5" fill="#A0CD42"/>
<path d="M603 191.5C603 193.985 600.985 196 598.5 196C596.015 196 594 193.985 594 191.5C594 189.015 596.015 187 598.5 187C600.985 187 603 189.015 603 191.5Z" fill="#8ACC00"/>
<path d="M730.5 235.5H662.5V596.5H560.5V894.5H335.5V928" stroke="url(#paint1_linear_2664_83389)"/>
<circle cx="335.5" cy="894.5" r="4.5" fill="#CCCFC6"/>
<circle cx="560.5" cy="894.5" r="4.5" fill="#CBCFC3"/>
<circle cx="560.5" cy="596.5" r="4.5" fill="#B2CE79"/>
<circle cx="662.5" cy="596.5" r="4.5" fill="#B1CD75"/>
<circle cx="661.5" cy="235.5" r="4.5" fill="#8ACC00"/>
<path d="M665.5 927V797.5H931.5V484H1039V235.5H975" stroke="url(#paint2_linear_2664_83389)"/>
<circle cx="1039.5" cy="235.5" r="4.5" fill="#8ACC00"/>
<circle cx="1038.5" cy="483.5" r="4.5" fill="#9FCD3E"/>
<circle cx="931.5" cy="483.5" r="4.5" fill="#A0CD42"/>
<circle cx="931.5" cy="797.5" r="4.5" fill="#C4CEAF"/>
<circle cx="665.5" cy="797.5" r="4.5" fill="#C5CEB2"/>
<path d="M995.5 928V750.493H1069.25V623.493H1114.75V192.5H973" stroke="url(#paint3_linear_2664_83389)"/>
<circle cx="995.5" cy="750.5" r="4.5" fill="#C2CEA8"/>
<circle cx="1069.5" cy="749.5" r="4.5" fill="#C1CEA5"/>
<circle cx="1069.5" cy="623.5" r="4.5" fill="#B2CE78"/>
<circle cx="1114.5" cy="623.5" r="4.5" fill="#B1CD74"/>
<circle cx="1114.5" cy="192.5" r="4.5" fill="#8ACC00"/>
<path fill-rule="evenodd" clip-rule="evenodd" d="M821.999 146.598C815.377 148.124 809.04 150.525 802.988 153.8C791.788 159.933 782.855 168.733 776.188 180.2C769.522 191.533 766.188 204.866 766.188 220.2C766.188 235.4 769.522 248.733 776.188 260.2C782.855 271.666 791.788 280.533 802.988 286.8C814.322 292.933 826.655 296 839.988 296C853.322 296 865.588 292.933 876.788 286.8C888.122 280.533 897.122 271.666 903.788 260.2C910.455 248.733 913.788 235.4 913.788 220.2C913.788 204.866 910.455 191.533 903.788 180.2C897.122 168.733 888.122 159.933 876.788 153.8C872.05 151.205 867.12 149.159 861.999 147.662V169.734C863.081 170.247 864.144 170.803 865.188 171.4C872.788 175.666 878.788 182 883.188 190.4C887.722 198.666 889.988 208.666 889.988 220.4C889.988 232 887.722 242 883.188 250.4C878.788 258.666 872.788 265 865.188 269.4C857.588 273.666 849.188 275.8 839.988 275.8C831.055 275.8 822.722 273.666 814.988 269.4C807.388 265 801.322 258.666 796.788 250.4C792.255 242 789.988 232 789.988 220.4C789.988 208.666 792.188 198.666 796.588 190.4C800.988 182 806.988 175.666 814.588 171.4C816.973 170.061 819.444 168.932 821.999 168.013V146.598ZM738.599 147H716.199V294H738.599V147ZM921.187 166.6H958.787V294H980.987V166.6H1018.99V147H921.187V166.6Z" fill="#80B315"/>
<rect x="833" y="129" width="19" height="59" fill="#80B315"/>
<path d="M804.291 116.57C808.25 110.872 813.602 106.233 819.919 103.025C826.235 99.8165 833.342 98.1273 840.671 98.0921C848.001 98.0568 855.35 99.6765 862.133 102.822C868.915 105.967 874.944 110.551 879.736 116.207L870.078 123.584C866.581 119.456 862.182 116.111 857.233 113.816C852.283 111.52 846.92 110.338 841.571 110.364C836.223 110.39 831.037 111.623 826.427 113.964C821.818 116.305 817.913 119.69 815.023 123.848L804.291 116.57Z" fill="#80B315"/>
<path d="M777.839 98.9017C784.378 89.3009 793.275 81.4665 803.811 76.0305C814.347 70.5944 826.228 67.7089 838.496 67.6067C850.763 67.5045 863.074 70.1883 874.434 75.4419C885.795 80.6954 895.887 88.3716 903.898 97.8511L893.856 105.498C887.195 97.6168 878.804 91.2347 869.359 86.8668C859.913 82.4989 849.678 80.2675 839.479 80.3525C829.279 80.4375 819.401 82.8365 810.641 87.3562C801.881 91.8758 794.484 98.3895 789.048 106.372L777.839 98.9017Z" fill="#80B315"/>
<path d="M754.011 80.7958C763.42 68.3216 775.752 58.2204 790.103 51.2322C804.453 44.2439 820.46 40.5455 836.95 40.4077C853.44 40.27 869.996 43.6965 885.406 50.4362C900.816 57.1759 914.689 67.0581 926.009 79.3593L915.656 88.0497C905.786 77.3243 893.69 68.7079 880.254 62.8315C866.818 56.9552 852.383 53.9676 838.005 54.0877C823.627 54.2078 809.671 57.4325 797.159 63.5256C784.646 69.6187 773.895 78.4259 765.691 89.3022L754.011 80.7958Z" fill="#80B315"/>
<defs>
<linearGradient id="paint0_linear_2664_83389" x1="361.5" y1="350" x2="361.5" y2="898.977" gradientUnits="userSpaceOnUse">
<stop stop-color="#8BCC00"/>
<stop offset="0.971875" stop-color="#CFCFCF"/>
</linearGradient>
<linearGradient id="paint1_linear_2664_83389" x1="525" y1="390.373" x2="525" y2="900.374" gradientUnits="userSpaceOnUse">
<stop stop-color="#8BCC00"/>
<stop offset="0.971875" stop-color="#CFCFCF"/>
</linearGradient>
<linearGradient id="paint2_linear_2664_83389" x1="854.5" y1="390" x2="854.5" y2="876.999" gradientUnits="userSpaceOnUse">
<stop stop-color="#8BCC00"/>
<stop offset="0.971875" stop-color="#CFCFCF"/>
</linearGradient>
<linearGradient id="paint3_linear_2664_83389" x1="1053.25" y1="309.492" x2="1053.25" y2="868.495" gradientUnits="userSpaceOnUse">
<stop stop-color="#8BCC00"/>
<stop offset="0.971875" stop-color="#CFCFCF"/>
</linearGradient>
</defs>
</svg>
