<svg width="70" height="70" viewBox="0 0 70 70" fill="none" xmlns="http://www.w3.org/2000/svg">
<path d="M60.2742 33.3807L64.9513 30.0677C64.3179 27.7779 64.3179 27.7292 63.6846 25.4393L57.9843 24.9034C57.1074 23.3931 56.7663 22.8084 55.8894 21.2981L58.2766 16.0851C56.5714 14.4286 56.5714 14.3799 54.8662 12.6746L49.6532 15.0619C48.1429 14.185 47.5582 13.8439 46.0479 12.967L45.5607 7.26672C43.2709 6.63336 43.2221 6.63336 40.9323 6L37.6193 10.6771H33.4294L30.0677 6C27.7779 6.63336 27.7292 6.63336 25.4393 7.26672L24.9034 12.967C23.3931 13.8439 22.8084 14.185 21.2981 15.0619L16.0851 12.6746C14.3799 14.3799 14.3799 14.3799 12.6746 16.0851L15.0619 21.2981C14.185 22.8084 13.8439 23.3931 12.967 24.9034L7.26672 25.4393C6.63336 27.7292 6.63336 27.7779 6 30.0677L10.6771 33.3807V37.5706L6 40.8836C6.63336 43.1734 6.63336 43.2221 7.26672 45.512L12.967 46.0479C13.8439 47.5582 14.185 48.1429 15.0619 49.6532L12.6746 54.8662C14.3311 56.5227 14.3799 56.5714 16.0851 58.2766L21.2981 55.8894C22.8084 56.7663 23.3931 57.1074 24.9034 57.9843L25.4393 63.6846C27.7292 64.3179 27.7779 64.3179 30.0677 64.9513L33.3807 60.2742H37.5706L40.8836 64.9513C43.1734 64.3179 43.2221 64.3179 45.512 63.6846L46.0479 57.9843C47.5582 57.1074 48.1429 56.7663 49.6532 55.8894L54.8662 58.2766C56.5714 56.5714 56.5714 56.5714 58.2766 54.8662L55.8894 49.6532C56.7663 48.1429 57.1074 47.5582 57.9843 46.0479L63.6846 45.512C64.3179 43.2221 64.3179 43.1734 64.9513 40.8836L60.2742 37.5706V33.3807ZM55.4996 37.8142L56.3278 38.3988L56.0842 39.3732L55.6945 40.8836L55.3047 42.3939L55.0611 43.3683L54.038 43.4657L51.0661 43.7581L50.4814 44.7812L51.6994 47.4608L52.1379 48.3865L51.4071 49.1173L50.7737 49.7506L49.166 51.3584L48.4352 52.0892L47.5095 51.6507L44.8299 50.4327L43.8068 51.0173L43.5145 53.9893L43.417 55.0124L42.4426 55.256L41.0297 55.6458L39.422 56.0842L38.4476 56.3278L37.8629 55.4996L36.1577 53.0636H34.9397L33.2345 55.4996L32.6499 56.3278L31.6755 56.0842L30.4088 55.7432L28.6548 55.256L27.6804 55.0124L27.583 53.9893L27.2907 51.0173L26.9009 50.7737L26.2675 50.384L23.5879 51.602L22.5648 52.0892L21.834 51.3584L20.5186 50.0429L19.6416 49.1173L18.9108 48.3865L19.3493 47.4608L20.5673 44.7812L19.9827 43.7581L17.0107 43.4657L15.9876 43.3683L15.744 42.3939L15.3543 40.8836L14.9645 39.3732L14.7209 38.3988L15.5491 37.8142L17.9851 36.109V34.891L15.5491 33.1858L14.7209 32.6012L14.9645 31.6268L15.3543 30.1164L15.744 28.6061L15.9876 27.6317L17.0107 27.5343L19.9827 27.242L20.5673 26.2188L19.3493 23.5392L18.9108 22.5648L19.6416 21.834L20.9571 20.5186L21.8827 19.5929L22.6135 18.8621L23.5392 19.3006L26.2188 20.5673L26.8522 20.1775L27.242 19.9339L27.5343 16.962L27.6317 15.9389L28.6061 15.6953L30.1164 15.3055L31.6268 14.9158L32.6012 14.6722L33.1858 15.5004L34.891 17.9364H36.109L37.8142 15.5004L38.3988 14.6722L39.3732 14.9158L40.8349 15.3055L42.3939 15.744L43.3683 15.9876L43.4657 17.0107L43.7581 19.9827L44.7812 20.5673L47.4608 19.3006L48.3865 18.8621L49.1173 19.5929L50.0429 20.5186L51.3584 21.834L52.0892 22.5648L51.6507 23.4905L50.4327 26.1701L51.0173 27.1932L53.9893 27.4855L55.0124 27.583L55.256 28.5574L55.6458 30.0677L56.0355 31.578L56.2791 32.5524L55.4509 33.1371L53.0149 34.8423V36.0603L55.4996 37.8142Z" fill="#7DB704"/>
<path d="M51.6016 34.111L54.6709 31.9673C54.2812 30.4569 54.2812 30.4569 53.8427 28.9466L50.14 28.6056C49.5553 27.6312 49.3604 27.2414 48.7758 26.267L50.3348 22.8566C49.263 21.7848 49.2143 21.7361 48.1424 20.6642L44.732 22.2233C43.7576 21.6386 43.3679 21.4437 42.3935 20.8591L42.0524 17.1564C40.5421 16.7666 40.5421 16.7666 39.0318 16.3281L36.8881 19.3975H34.1598L32.0161 16.3281C30.5058 16.7179 30.5058 16.7179 28.9955 17.1564L28.6544 20.8591C27.68 21.4437 27.2902 21.6386 26.3158 22.2233L22.9054 20.6642C21.8336 21.7361 21.7849 21.7848 20.713 22.8566L22.2721 26.267C21.6874 27.2414 21.4926 27.6312 20.9079 28.6056L17.2052 28.9466C16.8154 30.4569 16.8154 30.4569 16.377 31.9673L19.4463 34.111V36.8393L16.377 38.983C16.7667 40.4933 16.7667 40.4933 17.2052 42.0036L20.9079 42.3446C21.4926 43.319 21.6874 43.7088 22.2721 44.6832L20.713 48.0936C21.7849 49.1655 21.8336 49.2142 22.9054 50.286L26.3158 48.727C27.2902 49.3116 27.68 49.5065 28.6544 50.0911L28.9955 53.7939C30.5058 54.1836 30.5058 54.1836 32.0161 54.6221L34.1598 51.5527H36.8881L39.0318 54.6221C40.5421 54.2323 40.5421 54.2323 42.0524 53.7939L42.3935 50.0911C43.3679 49.5065 43.7576 49.3116 44.732 48.727L48.1424 50.286C49.2143 49.2142 49.263 49.1655 50.3348 48.0936L48.7758 44.6832C49.3604 43.7088 49.5553 43.319 50.14 42.3446L53.8427 42.0036C54.2324 40.4933 54.2324 40.4933 54.6709 38.983L51.6016 36.8393V34.111ZM40.737 39.6163C40.737 40.2497 40.2498 40.7369 39.6164 40.7369H31.3827C30.7494 40.7369 30.2622 40.2497 30.2622 39.6163V31.3826C30.2622 30.7493 30.7494 30.2621 31.3827 30.2621H39.6164C40.2498 30.2621 40.737 30.7493 40.737 31.3826V39.6163Z" fill="#171717"/>
<path d="M41.4188 44.1958H29.5798C28.0695 44.1958 26.8027 42.9291 26.8027 41.4188V29.5798C26.8027 28.0695 28.0695 26.8027 29.5798 26.8027H41.4188C42.9291 26.8027 44.1958 28.0695 44.1958 29.5798V41.4188C44.1958 42.9291 42.9291 44.1958 41.4188 44.1958ZM29.5798 28.2643C28.849 28.2643 28.2643 28.849 28.2643 29.5798V41.4188C28.2643 42.1496 28.849 42.7342 29.5798 42.7342H41.4188C42.1496 42.7342 42.7342 42.1496 42.7342 41.4188V29.5798C42.7342 28.849 42.1496 28.2643 41.4188 28.2643H29.5798Z" fill="#A1A1A1"/>
<path d="M27.5346 31.4805H23.7832V32.9421H27.5346V31.4805Z" fill="#A1A1A1"/>
<path d="M27.5346 34.7441H23.7832V36.2057H27.5346V34.7441Z" fill="#A1A1A1"/>
<path d="M27.5346 38.0098H23.7832V39.4714H27.5346V38.0098Z" fill="#A1A1A1"/>
<path d="M47.2163 31.4805H43.4648V32.9421H47.2163V31.4805Z" fill="#A1A1A1"/>
<path d="M47.2163 34.7441H43.4648V36.2057H47.2163V34.7441Z" fill="#A1A1A1"/>
<path d="M47.2163 38.0098H43.4648V39.4714H47.2163V38.0098Z" fill="#A1A1A1"/>
</svg>
