<svg width="1920" height="700" viewBox="0 0 1920 700" fill="none" xmlns="http://www.w3.org/2000/svg">
<g clip-path="url(#clip0_2659_44923)">
<g filter="url(#filter0_f_2659_44923)">
<ellipse cx="1190" cy="558.5" rx="334" ry="141.5" fill="url(#paint0_radial_2659_44923)"/>
</g>
<g filter="url(#filter1_f_2659_44923)">
<ellipse cx="1117.5" cy="93" rx="549.5" ry="348" fill="url(#paint1_radial_2659_44923)"/>
</g>
<g filter="url(#filter2_f_2659_44923)">
<path d="M1800 300C1800 475.074 1647.33 617 1459 617C1270.67 617 1118 475.074 1118 300C1118 124.926 1270.67 -17 1459 -17C1647.33 -17 1800 124.926 1800 300Z" fill="url(#paint2_radial_2659_44923)"/>
</g>
<g filter="url(#filter3_f_2659_44923)">
<path d="M256 355C256 530.074 103.329 672 -85 672C-273.329 672 -426 530.074 -426 355C-426 179.926 -273.329 38 -85 38C103.329 38 256 179.926 256 355Z" fill="url(#paint3_radial_2659_44923)"/>
</g>
<g filter="url(#filter4_f_2659_44923)">
<path d="M2290 284C2290 478.404 2137.33 636 1949 636C1760.67 636 1608 478.404 1608 284C1608 89.5958 1760.67 -68 1949 -68C2137.33 -68 2290 89.5958 2290 284Z" fill="url(#paint4_radial_2659_44923)"/>
</g>
</g>
<defs>
<filter id="filter0_f_2659_44923" x="606" y="167" width="1168" height="783" filterUnits="userSpaceOnUse" color-interpolation-filters="sRGB">
<feFlood flood-opacity="0" result="BackgroundImageFix"/>
<feBlend mode="normal" in="SourceGraphic" in2="BackgroundImageFix" result="shape"/>
<feGaussianBlur stdDeviation="125" result="effect1_foregroundBlur_2659_44923"/>
</filter>
<filter id="filter1_f_2659_44923" x="318" y="-505" width="1599" height="1196" filterUnits="userSpaceOnUse" color-interpolation-filters="sRGB">
<feFlood flood-opacity="0" result="BackgroundImageFix"/>
<feBlend mode="normal" in="SourceGraphic" in2="BackgroundImageFix" result="shape"/>
<feGaussianBlur stdDeviation="125" result="effect1_foregroundBlur_2659_44923"/>
</filter>
<filter id="filter2_f_2659_44923" x="868" y="-267" width="1182" height="1134" filterUnits="userSpaceOnUse" color-interpolation-filters="sRGB">
<feFlood flood-opacity="0" result="BackgroundImageFix"/>
<feBlend mode="normal" in="SourceGraphic" in2="BackgroundImageFix" result="shape"/>
<feGaussianBlur stdDeviation="125" result="effect1_foregroundBlur_2659_44923"/>
</filter>
<filter id="filter3_f_2659_44923" x="-676" y="-212" width="1182" height="1134" filterUnits="userSpaceOnUse" color-interpolation-filters="sRGB">
<feFlood flood-opacity="0" result="BackgroundImageFix"/>
<feBlend mode="normal" in="SourceGraphic" in2="BackgroundImageFix" result="shape"/>
<feGaussianBlur stdDeviation="125" result="effect1_foregroundBlur_2659_44923"/>
</filter>
<filter id="filter4_f_2659_44923" x="1358" y="-318" width="1182" height="1204" filterUnits="userSpaceOnUse" color-interpolation-filters="sRGB">
<feFlood flood-opacity="0" result="BackgroundImageFix"/>
<feBlend mode="normal" in="SourceGraphic" in2="BackgroundImageFix" result="shape"/>
<feGaussianBlur stdDeviation="125" result="effect1_foregroundBlur_2659_44923"/>
</filter>
<radialGradient id="paint0_radial_2659_44923" cx="0" cy="0" r="1" gradientUnits="userSpaceOnUse" gradientTransform="translate(1688.55 653.788) rotate(-177.792) scale(498.924 795.331)">
<stop stop-opacity="0.11"/>
<stop stop-color="#FCFEF7"/>
<stop offset="0.0001"/>
<stop offset="0.399872"/>
</radialGradient>
<radialGradient id="paint1_radial_2659_44923" cx="0" cy="0" r="1" gradientUnits="userSpaceOnUse" gradientTransform="translate(1117.5 93) rotate(90) scale(348 549.5)">
<stop stop-color="white" stop-opacity="0.11"/>
<stop stop-color="#FCFEF7"/>
<stop offset="0.0001" stop-color="#FCFEF7" stop-opacity="0.22"/>
<stop offset="1" stop-color="white" stop-opacity="0"/>
</radialGradient>
<radialGradient id="paint2_radial_2659_44923" cx="0" cy="0" r="1" gradientUnits="userSpaceOnUse" gradientTransform="translate(1471.18 272.845) rotate(92.9748) scale(234.672 274.607)">
<stop stop-color="#92C22D"/>
<stop stop-color="#A8F800"/>
<stop offset="0.217766" stop-color="#66910B" stop-opacity="0.45"/>
<stop offset="1" stop-color="#1C2900" stop-opacity="0.35"/>
</radialGradient>
<radialGradient id="paint3_radial_2659_44923" cx="0" cy="0" r="1" gradientUnits="userSpaceOnUse" gradientTransform="translate(-72.8215 327.845) rotate(92.9748) scale(234.672 274.607)">
<stop stop-color="#92C22D"/>
<stop stop-color="#A8F800"/>
<stop offset="0.217766" stop-color="#66910B" stop-opacity="0.45"/>
<stop offset="1" stop-color="#1C2900" stop-opacity="0.35"/>
</radialGradient>
<radialGradient id="paint4_radial_2659_44923" cx="0" cy="0" r="1" gradientUnits="userSpaceOnUse" gradientTransform="translate(1961.18 253.847) rotate(92.6794) scale(260.516 274.677)">
<stop stop-color="#92C22D"/>
<stop stop-color="#A8F800"/>
<stop offset="0.217766" stop-color="#66910B" stop-opacity="0.45"/>
<stop offset="1" stop-color="#1C2900" stop-opacity="0.35"/>
</radialGradient>
<clipPath id="clip0_2659_44923">
<rect width="1920" height="700" fill="white"/>
</clipPath>
</defs>
</svg>
