<svg width="1920" height="500" viewBox="0 0 1920 500" fill="none" xmlns="http://www.w3.org/2000/svg">
<g clip-path="url(#clip0_3994_64401)">
<g filter="url(#filter0_f_3994_64401)">
<path d="M1034 220C1034 376.297 911.102 503 759.5 503C607.898 503 485 376.297 485 220C485 63.7034 607.898 -63 759.5 -63C911.102 -63 1034 63.7034 1034 220Z" fill="url(#paint0_radial_3994_64401)"/>
</g>
<g filter="url(#filter1_f_3994_64401)">
<path d="M760 380C760 564.463 614.94 714 436 714C257.06 714 112 564.463 112 380C112 195.537 257.06 46 436 46C614.94 46 760 195.537 760 380Z" fill="url(#paint1_radial_3994_64401)"/>
</g>
</g>
<defs>
<filter id="filter0_f_3994_64401" x="235" y="-313" width="1049" height="1066" filterUnits="userSpaceOnUse" color-interpolation-filters="sRGB">
<feFlood flood-opacity="0" result="BackgroundImageFix"/>
<feBlend mode="normal" in="SourceGraphic" in2="BackgroundImageFix" result="shape"/>
<feGaussianBlur stdDeviation="125" result="effect1_foregroundBlur_3994_64401"/>
</filter>
<filter id="filter1_f_3994_64401" x="-138" y="-204" width="1148" height="1168" filterUnits="userSpaceOnUse" color-interpolation-filters="sRGB">
<feFlood flood-opacity="0" result="BackgroundImageFix"/>
<feBlend mode="normal" in="SourceGraphic" in2="BackgroundImageFix" result="shape"/>
<feGaussianBlur stdDeviation="125" result="effect1_foregroundBlur_3994_64401"/>
</filter>
<radialGradient id="paint0_radial_3994_64401" cx="0" cy="0" r="1" gradientUnits="userSpaceOnUse" gradientTransform="translate(769.304 195.758) rotate(92.6828) scale(209.449 221.111)">
<stop stop-color="#92C22D"/>
<stop stop-color="#A8F800"/>
<stop offset="0.217766" stop-color="#66910B" stop-opacity="0.45"/>
<stop offset="1" stop-color="#1C2900" stop-opacity="0.35"/>
</radialGradient>
<radialGradient id="paint1_radial_3994_64401" cx="0" cy="0" r="1" gradientUnits="userSpaceOnUse" gradientTransform="translate(447.571 351.389) rotate(92.6831) scale(247.195 260.983)">
<stop stop-color="#92C22D"/>
<stop stop-color="#A8F800"/>
<stop offset="0.217766" stop-color="#66910B" stop-opacity="0.45"/>
<stop offset="1" stop-color="#1C2900" stop-opacity="0.35"/>
</radialGradient>
<clipPath id="clip0_3994_64401">
<rect width="1920" height="500" fill="white"/>
</clipPath>
</defs>
</svg>
