<svg width="40" height="40" viewBox="0 0 40 40" fill="none" xmlns="http://www.w3.org/2000/svg">
<circle cx="20" cy="20" r="20" fill="url(#paint0_linear_3474_26912)"/>
<path fill-rule="evenodd" clip-rule="evenodd" d="M13 20.2509C13 20.052 13.079 19.8613 13.2197 19.7206C13.3603 19.58 13.5511 19.5009 13.75 19.5009H22.4395L19.219 16.2819C19.0782 16.1411 18.9991 15.9501 18.9991 15.7509C18.9991 15.5518 19.0782 15.3608 19.219 15.2199C19.3598 15.0791 19.5508 15 19.75 15C19.9492 15 20.1402 15.0791 20.281 15.2199L24.781 19.7199C24.8508 19.7896 24.9063 19.8724 24.9441 19.9635C24.9819 20.0546 25.0013 20.1523 25.0013 20.2509C25.0013 20.3496 24.9819 20.4473 24.9441 20.5384C24.9063 20.6295 24.8508 20.7123 24.781 20.7819L20.281 25.2819C20.1402 25.4228 19.9492 25.5019 19.75 25.5019C19.5508 25.5019 19.3598 25.4228 19.219 25.2819C19.0782 25.1411 18.9991 24.9501 18.9991 24.7509C18.9991 24.5518 19.0782 24.3608 19.219 24.2199L22.4395 21.0009H13.75C13.5511 21.0009 13.3603 20.9219 13.2197 20.7813C13.079 20.6406 13 20.4499 13 20.2509Z" fill="#171717"/>
<defs>
<linearGradient id="paint0_linear_3474_26912" x1="6.30825" y1="-33.6667" x2="75.1159" y2="-22.3647" gradientUnits="userSpaceOnUse">
<stop stop-color="#9FEA00"/>
<stop offset="1" stop-color="#F7F7F7"/>
</linearGradient>
</defs>
</svg>
