<svg width="70" height="70" viewBox="0 0 70 70" fill="none" xmlns="http://www.w3.org/2000/svg">
<g clip-path="url(#clip0_3886_8545)">
<path d="M65 61.0439C65 61.6883 64.8996 62.2831 64.6485 62.8283C63.8954 64.6623 62.0879 66.0006 59.9791 66.0006H10.0209C8.61506 66.0006 7.35983 65.4554 6.45607 64.5632C5.95397 64.0675 5.60251 63.5222 5.35146 62.8779C5.15063 62.3326 5 61.6883 5 61.0934C5 58.3672 7.25941 56.1367 10.0209 56.1367H59.9791C61.3849 56.1367 62.6402 56.682 63.5439 57.5742C64.3975 58.4168 65 59.656 65 61.0439Z" fill="#131313"/>
<path d="M65 61.0427H5C5 58.3165 7.25941 56.0859 10.0209 56.0859H59.9791C61.3849 56.0859 62.6402 56.6312 63.5439 57.5234C64.3975 58.4156 65 59.6548 65 61.0427Z" fill="#7DB704"/>
<path d="M15.2934 58.5651H13.7871V44.1906L19.1093 38.9861V21.1914H20.6156V39.5809L15.2934 44.835V58.5651Z" fill="#7DB704"/>
<path d="M28.5981 37.9453H27.0918V58.5653H28.5981V37.9453Z" fill="#7DB704"/>
<path d="M38.0375 27.9316H36.5312V58.5642H38.0375V27.9316Z" fill="#7DB704"/>
<path d="M58.1213 58.5647H56.6151V42.951L45.9707 32.4427V10.0879H47.477V31.8479L58.1213 42.3562V58.5647Z" fill="#7DB704"/>
<path d="M47.477 49.4941H45.9707V58.5649H47.477V49.4941Z" fill="#7DB704"/>
<path d="M65 61.043C65 61.6873 64.8996 62.2821 64.6485 62.8274H5.35146C5.15063 62.2821 5 61.6378 5 61.043H65Z" fill="#E3E3E3"/>
<path d="M19.8611 21.6383C17.6519 21.6383 15.8945 19.9034 15.8945 17.7225C15.8945 15.5415 17.6519 13.8066 19.8611 13.8066C22.0703 13.8066 23.8276 15.5415 23.8276 17.7225C23.8276 19.9034 22.0201 21.6383 19.8611 21.6383ZM19.8611 15.2937C18.5054 15.2937 17.4008 16.3841 17.4008 17.7225C17.4008 19.0608 18.5054 20.1513 19.8611 20.1513C21.2167 20.1513 22.3213 19.0608 22.3213 17.7225C22.3213 16.3841 21.2167 15.2937 19.8611 15.2937Z" fill="#7DB704"/>
<path d="M37.2849 28.2789C35.0757 28.2789 33.3184 26.544 33.3184 24.3631C33.3184 22.1821 35.0757 20.4473 37.2849 20.4473C39.4941 20.4473 41.2514 22.1821 41.2514 24.3631C41.2514 26.544 39.4439 28.2789 37.2849 28.2789ZM37.2849 21.9343C35.9292 21.9343 34.8246 23.0248 34.8246 24.3631C34.8246 25.7014 35.9292 26.7919 37.2849 26.7919C38.6405 26.7919 39.7451 25.7014 39.7451 24.3631C39.7451 23.0248 38.6405 21.9343 37.2849 21.9343Z" fill="#7DB704"/>
<path d="M27.8454 38.2418C25.6362 38.2418 23.8789 36.5069 23.8789 34.326C23.8789 32.145 25.6362 30.4102 27.8454 30.4102C30.0546 30.4102 31.812 32.145 31.812 34.326C31.812 36.5069 30.0044 38.2418 27.8454 38.2418ZM27.8454 31.8972C26.4898 31.8972 25.3852 32.9877 25.3852 34.326C25.3852 35.6643 26.4898 36.7548 27.8454 36.7548C29.2011 36.7548 30.3057 35.6643 30.3057 34.326C30.3057 32.9877 29.2011 31.8972 27.8454 31.8972Z" fill="#7DB704"/>
<path d="M46.7243 10.8316C44.5151 10.8316 42.7578 9.09677 42.7578 6.91581C42.7578 4.73485 44.5151 3 46.7243 3C48.9335 3 50.6909 4.73485 50.6909 6.91581C50.6909 9.09677 48.8833 10.8316 46.7243 10.8316ZM46.7243 4.48702C45.3687 4.48702 44.2641 5.5775 44.2641 6.91581C44.2641 8.25413 45.3687 9.34461 46.7243 9.34461C48.08 9.34461 49.1846 8.25413 49.1846 6.91581C49.1846 5.5775 48.08 4.48702 46.7243 4.48702Z" fill="#7DB704"/>
<path d="M46.7243 50.3375C44.5151 50.3375 42.7578 48.6026 42.7578 46.4217C42.7578 44.2407 44.5151 42.5059 46.7243 42.5059C48.9335 42.5059 50.6909 44.2407 50.6909 46.4217C50.6909 48.5531 48.8833 50.3375 46.7243 50.3375ZM46.7243 43.9929C45.3687 43.9929 44.2641 45.0834 44.2641 46.4217C44.2641 47.76 45.3687 48.8505 46.7243 48.8505C48.08 48.8505 49.1846 47.76 49.1846 46.4217C49.1846 45.0834 48.08 43.9929 46.7243 43.9929Z" fill="#7DB704"/>
<path d="M11.6283 57.5234H9.51953V59.6053H11.6283V57.5234Z" fill="#E3E3E3"/>
<path d="M17.7533 57.5234H15.6445V59.6053H17.7533V57.5234Z" fill="#E3E3E3"/>
<path d="M23.8295 57.5234H21.7207V59.6053H23.8295V57.5234Z" fill="#E3E3E3"/>
<path d="M29.9545 57.5234H27.8457V59.6053H29.9545V57.5234Z" fill="#E3E3E3"/>
<path d="M36.0795 57.5234H33.9707V59.6053H36.0795V57.5234Z" fill="#E3E3E3"/>
<path d="M42.1557 57.5234H40.0469V59.6053H42.1557V57.5234Z" fill="#E3E3E3"/>
<path d="M48.2807 57.5234H46.1719V59.6053H48.2807V57.5234Z" fill="#E3E3E3"/>
<path d="M54.3568 57.5234H52.248V59.6053H54.3568V57.5234Z" fill="#E3E3E3"/>
<path d="M60.4818 57.5234H58.373V59.6053H60.4818V57.5234Z" fill="#E3E3E3"/>
</g>
<defs>
<clipPath id="clip0_3886_8545">
<rect width="60" height="63" fill="white" transform="translate(5 3)"/>
</clipPath>
</defs>
</svg>
