<svg width="489" height="484" viewBox="0 0 489 484" fill="none" xmlns="http://www.w3.org/2000/svg">
<path d="M457.769 261.471L357.575 428.702L171.717 430.285L62.6622 338.957L40.5092 158.826L182.23 45.4918L416.257 54.2554L457.769 261.471Z" stroke="#A1A1A1" stroke-miterlimit="10"/>
<path d="M457.767 261.471L182.228 45.4922" stroke="#A1A1A1" stroke-miterlimit="10"/>
<path d="M357.571 428.702L301.979 138.848" stroke="#A1A1A1" stroke-miterlimit="10"/>
<path d="M301.983 138.848L171.717 430.285L40.5092 158.826L301.983 138.848ZM301.983 138.848L416.257 54.2554" stroke="#A1A1A1" stroke-miterlimit="10"/>
<path d="M301.981 138.849L62.6602 338.957" stroke="#A1A1A1" stroke-miterlimit="10"/>
<path d="M171.716 430.284L182.23 45.4908" stroke="#A1A1A1" stroke-miterlimit="10"/>
<path d="M40.5071 158.825L457.767 261.471" stroke="#A1A1A1" stroke-miterlimit="10"/>
<g style="mix-blend-mode:lighten">
<path d="M169.723 250.552L169.227 250.614L169.723 250.552C167.441 232.284 169.023 218.26 173.379 207.409C177.732 196.567 184.867 188.858 193.758 183.239C211.496 172.028 236.189 169.144 259.674 166.402L260.006 166.363C284.002 163.562 304.006 167.06 318.216 178.333C332.416 189.599 340.938 208.717 341.785 237.401C342.435 259.472 340.927 281.951 335.905 300.93C330.879 319.92 322.359 335.325 309.053 343.371L309.311 343.799L309.052 343.371C299.434 349.188 286.429 350.262 272.144 347.561C257.867 344.861 242.372 338.401 227.836 329.235C198.743 310.891 173.625 281.8 169.723 250.552Z" fill="url(#paint0_radial_2659_49266)" style="mix-blend-mode:lighten"/>
<path d="M169.723 250.552L169.227 250.614L169.723 250.552C167.441 232.284 169.023 218.26 173.379 207.409C177.732 196.567 184.867 188.858 193.758 183.239C211.496 172.028 236.189 169.144 259.674 166.402L260.006 166.363C284.002 163.562 304.006 167.06 318.216 178.333C332.416 189.599 340.938 208.717 341.785 237.401C342.435 259.472 340.927 281.951 335.905 300.93C330.879 319.92 322.359 335.325 309.053 343.371L309.311 343.799L309.052 343.371C299.434 349.188 286.429 350.262 272.144 347.561C257.867 344.861 242.372 338.401 227.836 329.235C198.743 310.891 173.625 281.8 169.723 250.552Z" stroke="#507209"/>
</g>
<path d="M304.448 139.51C353.958 161.679 387.937 210.574 385.223 254.037C381.263 317.109 296.912 369.628 226.786 335.802C145.114 296.399 122.747 249.006 158.697 193.45C188.138 147.908 223.809 103.389 304.448 139.51Z" stroke="#507209" stroke-width="0.75" stroke-miterlimit="10"/>
<path d="M226.879 337.267C140.848 299.106 123.88 245.491 158.415 190.208C187.996 142.853 225.882 100.042 305.434 138.793C354.123 162.459 389.242 213.426 384.98 258.241C379.084 320.221 296.01 367.922 226.879 337.267Z" stroke="#507209" stroke-width="0.75" stroke-miterlimit="10"/>
<path d="M227.047 338.739C136.55 301.897 125.062 241.952 158.227 186.964C187.894 137.772 228.041 96.6834 306.459 138.05C354.336 163.213 390.637 216.229 384.796 262.411C377.085 323.351 295.027 366.392 227.047 338.739Z" stroke="#507209" stroke-width="0.75" stroke-miterlimit="10"/>
<path d="M227.184 340.2C132.105 304.861 126.162 238.425 158.007 183.738C187.731 132.697 230.157 93.3413 307.428 137.362C354.445 164.016 392.035 219.082 384.546 266.634C375.147 326.528 293.938 365.019 227.184 340.2Z" stroke="#507209" stroke-width="0.75" stroke-miterlimit="10"/>
<path d="M227.325 341.67C127.577 307.921 127.259 234.789 157.763 180.499C187.527 127.586 232.307 90.0014 308.48 136.661C354.726 164.798 393.595 221.921 384.4 270.838C373.305 329.675 292.788 363.804 227.325 341.67Z" stroke="#507209" stroke-width="0.75" stroke-miterlimit="10"/>
<path d="M227.452 343.139C122.97 311.217 128.263 231.153 157.533 177.271C187.291 122.453 234.372 86.6821 309.452 135.942C354.887 165.576 395.123 224.748 384.153 275.032C371.545 332.84 291.599 362.731 227.452 343.139Z" stroke="#507209" stroke-width="0.75" stroke-miterlimit="10"/>
<path d="M227.593 344.61C118.291 314.683 129.26 227.537 157.298 174.034C187.032 117.309 236.497 83.292 310.457 135.228C355.051 166.356 396.749 227.605 383.949 279.231C369.866 336.015 290.305 361.776 227.593 344.61Z" stroke="#507209" stroke-width="0.75" stroke-miterlimit="10"/>
<path d="M227.723 346.078C113.606 318.381 130.219 223.887 157.072 170.796C186.735 112.139 238.616 79.9485 311.46 134.512C355.253 167.138 398.442 230.468 383.744 283.428C368.3 339.22 289.015 360.946 227.723 346.078Z" stroke="#507209" stroke-width="0.75" stroke-miterlimit="10"/>
<path d="M227.861 347.547C108.799 322.311 131.163 220.196 156.835 167.557C186.39 106.956 240.726 76.5949 312.462 133.806C355.444 167.92 400.19 233.357 383.527 287.634C366.693 342.43 287.713 360.233 227.861 347.547Z" stroke="#507209" stroke-width="0.75" stroke-miterlimit="10"/>
<path d="M227.998 349.018C103.959 326.522 132.097 216.583 156.606 164.321C186.016 101.75 242.852 73.2536 313.457 133.052C355.629 168.653 402.014 236.245 383.315 291.773C365.187 345.682 286.399 359.608 227.998 349.018Z" stroke="#507209" stroke-width="0.75" stroke-miterlimit="10"/>
<path d="M228.127 350.486C99.1984 331.032 132.938 212.851 156.369 161.091C185.605 96.5393 244.952 69.8982 314.456 132.375C355.826 169.474 403.898 239.235 383.104 296.028C363.721 348.956 285.145 359.085 228.127 350.486Z" stroke="#507209" stroke-width="0.75" stroke-miterlimit="10"/>
<path d="M315.46 131.66C355.989 170.253 405.821 242.23 382.889 300.226C362.3 352.264 283.836 358.625 228.267 351.956C94.4132 335.873 133.789 209.21 156.144 157.835C185.134 91.2646 247.077 66.5074 315.46 131.66Z" stroke="#507209" stroke-width="0.75" stroke-miterlimit="10"/>
<path d="M348.031 215.591C349.333 259.788 341.995 305.715 315.057 322.004C276.001 345.626 182.829 291.733 174.973 228.819C165.814 155.521 218.595 149.572 265.694 144.072C313.821 138.454 346.332 158.049 348.031 215.591Z" stroke="#9FEA00" stroke-width="0.75" stroke-miterlimit="10"/>
<path d="M173.968 229.359C162.841 153.96 221.023 147.552 267.071 142.576C320.874 136.754 348.89 156.463 349.335 216.462C349.643 260.642 340.98 310.259 312.65 326.041C273.428 347.887 182.973 290.353 173.968 229.359Z" stroke="#9FEA00" stroke-width="0.75" stroke-miterlimit="10"/>
<path d="M172.976 229.899C159.801 152.332 223.477 145.601 268.471 141.072C327.937 135.091 351.54 154.962 350.643 217.33C350.005 261.49 339.991 314.862 310.247 330.065C270.939 350.214 183.012 288.969 172.976 229.899Z" stroke="#9FEA00" stroke-width="0.75" stroke-miterlimit="10"/>
<path d="M171.979 230.439C156.672 150.763 225.921 143.689 269.847 139.575C335.001 133.459 354.211 153.406 351.947 218.19C350.393 262.331 339.054 319.394 307.839 334.101C268.45 352.599 182.95 287.585 171.979 230.439Z" stroke="#9FEA00" stroke-width="0.75" stroke-miterlimit="10"/>
<path d="M170.973 230.989C153.448 149.176 228.381 141.829 271.234 138.071C342.077 131.828 356.932 151.857 353.242 219.059C350.835 263.131 338.14 324.095 305.413 338.125C266.023 355.061 182.81 286.214 170.973 230.989Z" stroke="#9FEA00" stroke-width="0.75" stroke-miterlimit="10"/>
<path d="M169.98 231.53C150.136 147.608 230.841 139.987 272.622 136.576C349.15 130.325 359.694 150.301 354.548 219.929C351.289 264.029 337.268 328.79 303.027 342.163C263.63 357.575 182.591 284.863 169.98 231.53Z" stroke="#9FEA00" stroke-width="0.75" stroke-miterlimit="10"/>
<path d="M168.976 232.069C146.743 146.06 233.294 138.213 274.002 135.07C356.234 128.821 362.503 148.759 355.842 220.817C351.774 264.9 336.339 333.546 300.619 346.218C261.27 360.15 182.3 283.543 168.976 232.069Z" stroke="#9FEA00" stroke-width="0.75" stroke-miterlimit="10"/>
<path d="M168.021 232.613C143.222 144.538 235.803 136.376 275.429 133.578C363.352 127.36 365.401 147.217 357.2 221.662C352.344 265.721 335.527 338.325 298.262 350.268C258.876 362.779 181.944 282.197 168.021 232.613Z" stroke="#9FEA00" stroke-width="0.75" stroke-miterlimit="10"/>
<path d="M166.988 233.158C139.53 143.056 238.228 134.588 276.78 132.069C370.406 125.95 368.26 145.67 358.468 222.527C352.87 266.576 334.639 343.164 295.813 354.249C256.574 365.458 181.516 280.891 166.988 233.158Z" stroke="#9FEA00" stroke-width="0.75" stroke-miterlimit="10"/>
<path d="M165.954 233.694C135.712 141.639 240.659 132.821 278.128 130.569C377.462 124.6 371.173 144.139 359.745 223.384C353.385 267.431 333.771 348.073 293.387 358.282C254.235 368.191 181.073 279.604 165.954 233.694Z" stroke="#9FEA00" stroke-width="0.75" stroke-miterlimit="10"/>
<path d="M164.988 234.239C131.811 140.274 243.145 131.091 279.556 129.05C384.592 123.298 374.205 142.612 361.09 224.239C353.997 268.298 332.963 353.069 291.007 362.341C251.896 370.936 180.56 278.35 164.988 234.239Z" stroke="#9FEA00" stroke-width="0.75" stroke-miterlimit="10"/>
<path d="M362.374 225.125C354.599 269.171 332.125 358.079 288.604 366.347C249.547 373.775 180.013 277.13 163.988 234.739C127.739 138.958 245.62 129.279 280.936 127.534C391.672 122.097 377.221 141.131 362.374 225.125Z" stroke="#9FEA00" stroke-width="0.75" stroke-miterlimit="10"/>
<path d="M269.518 141.029L331.764 192.527L358.727 275.252L317.295 330.447L237.04 329.588L172.022 280.123L170.198 166.504L269.518 141.029Z" stroke="#EEEEEE" stroke-width="0.5" stroke-miterlimit="10"/>
<path d="M269.519 141.029L172.023 280.113" stroke="#EEEEEE" stroke-width="0.5" stroke-miterlimit="10"/>
<path d="M331.762 192.527L214.148 219.678" stroke="#EEEEEE" stroke-width="0.5" stroke-miterlimit="10"/>
<path d="M214.15 219.678L358.727 275.252L237.04 329.588L214.15 219.678ZM214.15 219.678L170.198 166.504" stroke="#EEEEEE" stroke-width="0.5" stroke-miterlimit="10"/>
<path d="M214.148 219.678L317.294 330.447" stroke="#EEEEEE" stroke-width="0.5" stroke-miterlimit="10"/>
<path d="M358.727 275.252L172.023 280.113" stroke="#EEEEEE" stroke-width="0.5" stroke-miterlimit="10"/>
<path d="M237.031 329.586L269.519 141.028" stroke="#EEEEEE" stroke-width="0.5" stroke-miterlimit="10"/>
<path style="mix-blend-mode:screen" d="M226.768 370.704C220.965 368.704 214.64 371.787 212.64 377.589C210.64 383.391 213.723 389.716 219.525 391.716C225.327 393.717 231.653 390.634 233.653 384.832C235.653 379.029 232.57 372.704 226.768 370.704Z" fill="url(#paint1_radial_2659_49266)"/>
<path style="mix-blend-mode:screen" d="M233.392 92.4434C228.564 88.6531 221.579 89.4937 217.788 94.3209C213.998 99.1481 214.839 106.134 219.666 109.924C224.493 113.714 231.479 112.874 235.269 108.047C239.059 103.219 238.219 96.2337 233.392 92.4434Z" fill="url(#paint2_radial_2659_49266)"/>
<path style="mix-blend-mode:screen" d="M375.159 165.713C377.331 166.042 379.358 167.007 380.982 168.487C382.606 169.967 383.755 171.896 384.283 174.028C384.812 176.161 384.696 178.403 383.951 180.47C383.206 182.537 381.864 184.337 380.096 185.642C378.328 186.947 376.213 187.698 374.018 187.802C371.824 187.905 369.647 187.355 367.765 186.221C365.882 185.088 364.378 183.422 363.442 181.434C362.506 179.446 362.181 177.225 362.507 175.052C362.947 172.136 364.527 169.515 366.899 167.763C369.272 166.012 372.243 165.275 375.159 165.713Z" fill="url(#paint3_radial_2659_49266)"/>
<path style="mix-blend-mode:screen" d="M135.912 164.899C134.913 159.667 129.861 156.236 124.629 157.236C119.398 158.236 115.967 163.288 116.967 168.519C117.967 173.751 123.018 177.182 128.25 176.182C133.482 175.182 136.912 170.13 135.912 164.899Z" fill="url(#paint4_radial_2659_49266)"/>
<path style="mix-blend-mode:screen" d="M376.58 339.094C377.673 339.209 378.707 339.645 379.552 340.347C380.398 341.05 381.015 341.987 381.328 343.041C381.64 344.095 381.633 345.217 381.307 346.267C380.981 347.316 380.352 348.246 379.498 348.937C378.644 349.629 377.604 350.052 376.51 350.153C375.416 350.254 374.316 350.028 373.35 349.504C372.384 348.979 371.595 348.181 371.084 347.208C370.572 346.236 370.36 345.133 370.474 344.04C370.628 342.575 371.358 341.23 372.503 340.303C373.648 339.375 375.114 338.94 376.58 339.094Z" fill="url(#paint5_radial_2659_49266)"/>
<path style="mix-blend-mode:screen" d="M301.783 232.668C302.876 232.783 303.911 233.219 304.756 233.922C305.601 234.624 306.218 235.561 306.531 236.615C306.843 237.669 306.836 238.791 306.51 239.841C306.185 240.891 305.555 241.82 304.701 242.512C303.847 243.203 302.807 243.626 301.713 243.727C300.619 243.828 299.519 243.602 298.553 243.078C297.587 242.554 296.798 241.755 296.287 240.782C295.775 239.81 295.563 238.707 295.677 237.615C295.831 236.149 296.561 234.804 297.706 233.877C298.851 232.949 300.318 232.514 301.783 232.668Z" fill="url(#paint6_radial_2659_49266)"/>
<path style="mix-blend-mode:screen" d="M132.514 140.248C133.607 140.363 134.641 140.799 135.486 141.502C136.331 142.204 136.949 143.142 137.261 144.195C137.573 145.249 137.566 146.371 137.241 147.421C136.915 148.471 136.285 149.4 135.432 150.092C134.578 150.784 133.538 151.207 132.443 151.307C131.349 151.408 130.249 151.182 129.284 150.658C128.318 150.134 127.529 149.335 127.017 148.362C126.505 147.39 126.293 146.288 126.408 145.195C126.562 143.729 127.291 142.385 128.436 141.457C129.581 140.529 131.048 140.095 132.514 140.248Z" fill="url(#paint7_radial_2659_49266)"/>
<path style="mix-blend-mode:screen" d="M267.213 439.213C268.306 439.328 269.34 439.764 270.185 440.466C271.03 441.169 271.648 442.106 271.96 443.16C272.273 444.214 272.266 445.336 271.94 446.386C271.614 447.435 270.985 448.365 270.131 449.057C269.277 449.748 268.237 450.171 267.143 450.272C266.048 450.373 264.949 450.147 263.983 449.623C263.017 449.099 262.228 448.3 261.716 447.327C261.204 446.355 260.992 445.252 261.107 444.159C261.263 442.695 261.994 441.352 263.138 440.425C264.282 439.498 265.748 439.062 267.213 439.213Z" fill="url(#paint8_radial_2659_49266)"/>
<path style="mix-blend-mode:screen" d="M330.041 69.8225C331.134 69.9372 332.168 70.3733 333.013 71.0759C333.858 71.7784 334.476 72.7158 334.789 73.7694C335.101 74.8231 335.094 75.9457 334.768 76.9952C334.442 78.0448 333.813 78.9742 332.959 79.666C332.105 80.3578 331.065 80.7808 329.971 80.8815C328.876 80.9823 327.777 80.7563 326.811 80.2321C325.845 79.708 325.056 78.9092 324.544 77.9367C324.033 76.9642 323.821 75.8618 323.935 74.7689C324.011 74.0432 324.23 73.3396 324.578 72.6983C324.926 72.0569 325.397 71.4904 325.964 71.0311C326.531 70.5718 327.182 70.2287 327.882 70.0213C328.582 69.8139 329.315 69.7464 330.041 69.8225Z" fill="url(#paint9_radial_2659_49266)"/>
<path style="mix-blend-mode:screen" d="M130.174 365.881C131.267 365.996 132.301 366.432 133.146 367.134C133.991 367.837 134.609 368.774 134.921 369.828C135.234 370.882 135.227 372.004 134.901 373.054C134.575 374.103 133.946 375.033 133.092 375.725C132.238 376.416 131.198 376.839 130.104 376.94C129.009 377.041 127.91 376.815 126.944 376.291C125.978 375.767 125.189 374.968 124.677 373.995C124.165 373.023 123.953 371.92 124.068 370.827C124.222 369.362 124.951 368.017 126.096 367.09C127.242 366.162 128.708 365.727 130.174 365.881Z" fill="url(#paint10_radial_2659_49266)"/>
<defs>
<radialGradient id="paint0_radial_2659_49266" cx="0" cy="0" r="1" gradientUnits="userSpaceOnUse" gradientTransform="translate(257.41 248.066) rotate(-84.0113) scale(89.9903 89.9903)">
<stop stop-color="#A8F800" stop-opacity="0.92"/>
<stop offset="0.13" stop-color="#B3FA1E" stop-opacity="0.85"/>
<stop offset="0.24" stop-color="#8FC915" stop-opacity="0.9"/>
<stop offset="0.34" stop-color="#6C9514"/>
<stop offset="0.45" stop-color="#4E6915"/>
<stop offset="0.55" stop-color="#3B4D14"/>
<stop offset="0.65" stop-color="#283114"/>
<stop offset="0.75" stop-color="#202515"/>
<stop offset="0.83" stop-color="#212517"/>
</radialGradient>
<radialGradient id="paint1_radial_2659_49266" cx="0" cy="0" r="1" gradientUnits="userSpaceOnUse" gradientTransform="translate(223.146 381.21) rotate(-160.981) scale(11.1128 11.1128)">
<stop stop-color="#F2FFD7"/>
<stop offset="0.04" stop-color="#E7FFB5"/>
<stop offset="0.08" stop-color="#DAFF8C"/>
<stop offset="0.12" stop-color="#D1FF71"/>
<stop offset="0.15" stop-color="#CEFF67"/>
<stop offset="0.18" stop-color="#D1FF6F"/>
<stop offset="0.24" stop-color="#C3F25E"/>
<stop offset="0.34" stop-color="#CFF47F" stop-opacity="0.82"/>
<stop offset="0.395833" stop-color="#ADD35D" stop-opacity="0.75"/>
<stop offset="0.47" stop-color="#A2C55A" stop-opacity="0.63"/>
<stop offset="0.63" stop-color="#376669" stop-opacity="0.36"/>
<stop offset="0.6301" stop-color="#4A5532" stop-opacity="0.37"/>
<stop offset="0.81" stop-color="#221D1A" stop-opacity="0.02"/>
<stop offset="0.82" stop-color="#202418" stop-opacity="0.01"/>
</radialGradient>
<radialGradient id="paint2_radial_2659_49266" cx="0" cy="0" r="1" gradientUnits="userSpaceOnUse" gradientTransform="translate(226.529 101.184) rotate(-141.861) scale(11.1128)">
<stop stop-color="#F2FFD7"/>
<stop offset="0.04" stop-color="#E7FFB5"/>
<stop offset="0.08" stop-color="#DAFF8C"/>
<stop offset="0.12" stop-color="#D1FF71"/>
<stop offset="0.15" stop-color="#CEFF67"/>
<stop offset="0.18" stop-color="#D1FF6F"/>
<stop offset="0.24" stop-color="#C3F25E"/>
<stop offset="0.34" stop-color="#CFF47F" stop-opacity="0.82"/>
<stop offset="0.395833" stop-color="#ADD35D" stop-opacity="0.75"/>
<stop offset="0.47" stop-color="#A2C55A" stop-opacity="0.63"/>
<stop offset="0.63" stop-color="#376669" stop-opacity="0.36"/>
<stop offset="0.6301" stop-color="#4A5532" stop-opacity="0.37"/>
<stop offset="0.81" stop-color="#221D1A" stop-opacity="0.02"/>
<stop offset="0.82" stop-color="#202418" stop-opacity="0.01"/>
</radialGradient>
<radialGradient id="paint3_radial_2659_49266" cx="0" cy="0" r="1" gradientUnits="userSpaceOnUse" gradientTransform="translate(373.497 176.701) rotate(-84.0113) scale(11.1126 11.1128)">
<stop stop-color="#F2FFD7"/>
<stop offset="0.04" stop-color="#E7FFB5"/>
<stop offset="0.08" stop-color="#DAFF8C"/>
<stop offset="0.12" stop-color="#D1FF71"/>
<stop offset="0.15" stop-color="#CEFF67"/>
<stop offset="0.18" stop-color="#D1FF6F"/>
<stop offset="0.24" stop-color="#C3F25E"/>
<stop offset="0.34" stop-color="#CFF47F" stop-opacity="0.82"/>
<stop offset="0.395833" stop-color="#ADD35D" stop-opacity="0.75"/>
<stop offset="0.47" stop-color="#A2C55A" stop-opacity="0.63"/>
<stop offset="0.63" stop-color="#376669" stop-opacity="0.36"/>
<stop offset="0.6301" stop-color="#4A5532" stop-opacity="0.37"/>
<stop offset="0.81" stop-color="#221D1A" stop-opacity="0.02"/>
<stop offset="0.82" stop-color="#202418" stop-opacity="0.01"/>
</radialGradient>
<radialGradient id="paint4_radial_2659_49266" cx="0" cy="0" r="1" gradientUnits="userSpaceOnUse" gradientTransform="translate(126.44 166.709) rotate(-100.82) scale(9.6442 9.64421)">
<stop stop-color="#F2FFD7"/>
<stop offset="0.04" stop-color="#E7FFB5"/>
<stop offset="0.08" stop-color="#DAFF8C"/>
<stop offset="0.12" stop-color="#D1FF71"/>
<stop offset="0.15" stop-color="#CEFF67"/>
<stop offset="0.18" stop-color="#D1FF6F"/>
<stop offset="0.24" stop-color="#C3F25E"/>
<stop offset="0.34" stop-color="#CFF47F" stop-opacity="0.82"/>
<stop offset="0.395833" stop-color="#ADD35D" stop-opacity="0.75"/>
<stop offset="0.47" stop-color="#A2C55A" stop-opacity="0.63"/>
<stop offset="0.63" stop-color="#376669" stop-opacity="0.36"/>
<stop offset="0.6301" stop-color="#4A5532" stop-opacity="0.37"/>
<stop offset="0.81" stop-color="#221D1A" stop-opacity="0.02"/>
<stop offset="0.82" stop-color="#202418" stop-opacity="0.01"/>
</radialGradient>
<radialGradient id="paint5_radial_2659_49266" cx="0" cy="0" r="1" gradientUnits="userSpaceOnUse" gradientTransform="translate(376 344.62) rotate(-84.0113) scale(5.55639 5.55641)">
<stop stop-color="#F2FFD6"/>
<stop offset="0.04" stop-color="#E7FFB5"/>
<stop offset="0.08" stop-color="#DAFF8C"/>
<stop offset="0.12" stop-color="#D1FF71"/>
<stop offset="0.15" stop-color="#CEFF67"/>
<stop offset="0.18" stop-color="#D1FF6F"/>
<stop offset="0.24" stop-color="#C3F25E"/>
<stop offset="0.34" stop-color="#CFF47F" stop-opacity="0.82"/>
<stop offset="0.395833" stop-color="#ADD35D" stop-opacity="0.75"/>
<stop offset="0.47" stop-color="#A2C55A" stop-opacity="0.63"/>
<stop offset="0.63" stop-color="#376669" stop-opacity="0.36"/>
<stop offset="0.6301" stop-color="#4A5532" stop-opacity="0.37"/>
<stop offset="0.81" stop-color="#221D1A" stop-opacity="0.02"/>
<stop offset="0.82" stop-color="#202418" stop-opacity="0.01"/>
</radialGradient>
<radialGradient id="paint6_radial_2659_49266" cx="0" cy="0" r="1" gradientUnits="userSpaceOnUse" gradientTransform="translate(301.203 238.194) rotate(-84.0113) scale(5.55639)">
<stop stop-color="#F2FFD7"/>
<stop offset="0.04" stop-color="#E7FFB5"/>
<stop offset="0.08" stop-color="#DAFF8C"/>
<stop offset="0.12" stop-color="#D1FF71"/>
<stop offset="0.15" stop-color="#CEFF67"/>
<stop offset="0.18" stop-color="#D1FF6F"/>
<stop offset="0.24" stop-color="#C3F25E"/>
<stop offset="0.34" stop-color="#CFF47F" stop-opacity="0.82"/>
<stop offset="0.395833" stop-color="#ADD35D" stop-opacity="0.75"/>
<stop offset="0.47" stop-color="#A2C55A" stop-opacity="0.63"/>
<stop offset="0.63" stop-color="#376669" stop-opacity="0.36"/>
<stop offset="0.6301" stop-color="#4A5532" stop-opacity="0.37"/>
<stop offset="0.81" stop-color="#221D1A" stop-opacity="0.02"/>
<stop offset="0.82" stop-color="#202418" stop-opacity="0.01"/>
</radialGradient>
<radialGradient id="paint7_radial_2659_49266" cx="0" cy="0" r="1" gradientUnits="userSpaceOnUse" gradientTransform="translate(131.934 145.774) rotate(-84.0113) scale(5.55639 5.55639)">
<stop stop-color="#F2FFD7"/>
<stop offset="0.04" stop-color="#E7FFB5"/>
<stop offset="0.08" stop-color="#DAFF8C"/>
<stop offset="0.12" stop-color="#D1FF71"/>
<stop offset="0.15" stop-color="#CEFF67"/>
<stop offset="0.18" stop-color="#D1FF6F"/>
<stop offset="0.24" stop-color="#C3F25E"/>
<stop offset="0.34" stop-color="#CFF47F" stop-opacity="0.82"/>
<stop offset="0.395833" stop-color="#ADD35D" stop-opacity="0.75"/>
<stop offset="0.47" stop-color="#A2C55A" stop-opacity="0.63"/>
<stop offset="0.63" stop-color="#376669" stop-opacity="0.36"/>
<stop offset="0.6301" stop-color="#4A5532" stop-opacity="0.37"/>
<stop offset="0.81" stop-color="#221D1A" stop-opacity="0.02"/>
<stop offset="0.82" stop-color="#202418" stop-opacity="0.01"/>
</radialGradient>
<radialGradient id="paint8_radial_2659_49266" cx="0" cy="0" r="1" gradientUnits="userSpaceOnUse" gradientTransform="translate(266.633 444.739) rotate(-84.0113) scale(5.55639)">
<stop stop-color="#F2FFD7"/>
<stop offset="0.04" stop-color="#E7FFB5"/>
<stop offset="0.08" stop-color="#DAFF8C"/>
<stop offset="0.12" stop-color="#D1FF71"/>
<stop offset="0.15" stop-color="#CEFF67"/>
<stop offset="0.18" stop-color="#D1FF6F"/>
<stop offset="0.24" stop-color="#C3F25E"/>
<stop offset="0.34" stop-color="#CFF47F" stop-opacity="0.82"/>
<stop offset="0.395833" stop-color="#ADD35D" stop-opacity="0.75"/>
<stop offset="0.47" stop-color="#A2C55A" stop-opacity="0.63"/>
<stop offset="0.63" stop-color="#376669" stop-opacity="0.36"/>
<stop offset="0.6301" stop-color="#4A5532" stop-opacity="0.37"/>
<stop offset="0.81" stop-color="#221D1A" stop-opacity="0.02"/>
<stop offset="0.82" stop-color="#202418" stop-opacity="0.01"/>
</radialGradient>
<radialGradient id="paint9_radial_2659_49266" cx="0" cy="0" r="1" gradientUnits="userSpaceOnUse" gradientTransform="translate(329.461 75.3486) rotate(-84.0113) scale(5.55639)">
<stop stop-color="#F2FFD7"/>
<stop offset="0.04" stop-color="#E7FFB5"/>
<stop offset="0.08" stop-color="#DAFF8C"/>
<stop offset="0.12" stop-color="#D1FF71"/>
<stop offset="0.15" stop-color="#CEFF67"/>
<stop offset="0.18" stop-color="#D1FF6F"/>
<stop offset="0.24" stop-color="#C3F25E"/>
<stop offset="0.34" stop-color="#CFF47F" stop-opacity="0.82"/>
<stop offset="0.395833" stop-color="#ADD35D" stop-opacity="0.75"/>
<stop offset="0.47" stop-color="#A2C55A" stop-opacity="0.63"/>
<stop offset="0.63" stop-color="#376669" stop-opacity="0.36"/>
<stop offset="0.6301" stop-color="#4A5532" stop-opacity="0.37"/>
<stop offset="0.81" stop-color="#221D1A" stop-opacity="0.02"/>
<stop offset="0.82" stop-color="#202418" stop-opacity="0.01"/>
</radialGradient>
<radialGradient id="paint10_radial_2659_49266" cx="0" cy="0" r="1" gradientUnits="userSpaceOnUse" gradientTransform="translate(129.594 371.407) rotate(-84.0113) scale(5.55639)">
<stop stop-color="#F2FFD7"/>
<stop offset="0.04" stop-color="#E7FFB5"/>
<stop offset="0.08" stop-color="#DAFF8C"/>
<stop offset="0.12" stop-color="#D1FF71"/>
<stop offset="0.15" stop-color="#CEFF67"/>
<stop offset="0.18" stop-color="#D1FF6F"/>
<stop offset="0.24" stop-color="#C3F25E"/>
<stop offset="0.34" stop-color="#CFF47F" stop-opacity="0.82"/>
<stop offset="0.395833" stop-color="#ADD35D" stop-opacity="0.75"/>
<stop offset="0.47" stop-color="#A2C55A" stop-opacity="0.63"/>
<stop offset="0.63" stop-color="#376669" stop-opacity="0.36"/>
<stop offset="0.6301" stop-color="#4A5532" stop-opacity="0.37"/>
<stop offset="0.81" stop-color="#221D1A" stop-opacity="0.02"/>
<stop offset="0.82" stop-color="#202418" stop-opacity="0.01"/>
</radialGradient>
</defs>
</svg>
