<svg width="487" height="470" viewBox="0 0 487 470" fill="none" xmlns="http://www.w3.org/2000/svg">
<path d="M455.766 261.47L355.572 428.701L169.714 430.284L60.6593 338.956L38.5062 158.825L180.227 45.4908L414.254 54.2545L455.766 261.47Z" stroke="#A1A1A1" stroke-miterlimit="10"/>
<path d="M455.766 261.47L180.227 45.4907" stroke="#A1A1A1" stroke-miterlimit="10"/>
<path d="M355.571 428.701L299.979 138.847" stroke="#A1A1A1" stroke-miterlimit="10"/>
<path d="M299.98 138.847L169.714 430.284L38.5062 158.825L299.98 138.847ZM299.98 138.847L414.254 54.2545" stroke="#A1A1A1" stroke-miterlimit="10"/>
<path d="M299.98 138.847L60.6592 338.956" stroke="#A1A1A1" stroke-miterlimit="10"/>
<path d="M169.714 430.284L180.227 45.4908" stroke="#A1A1A1" stroke-miterlimit="10"/>
<path d="M38.5061 158.825L455.766 261.47" stroke="#A1A1A1" stroke-miterlimit="10"/>
<g style="mix-blend-mode:lighten">
<path d="M167.722 250.552L167.225 250.614L167.722 250.552C165.439 232.285 167.021 218.26 171.377 207.41C175.73 196.567 182.865 188.859 191.756 183.239C209.494 172.028 234.187 169.145 257.672 166.402L258.004 166.364C282 163.563 302.004 167.06 316.214 178.334C330.415 189.6 338.936 208.718 339.783 237.401C340.433 259.473 338.925 281.951 333.903 300.931C328.878 319.921 320.357 335.325 307.051 343.372L307.309 343.799L307.051 343.372C297.432 349.189 284.427 350.262 270.142 347.561C255.865 344.861 240.37 338.401 225.834 329.235C196.741 310.891 171.623 281.801 167.722 250.552Z" fill="url(#paint0_radial_2659_46970)" style="mix-blend-mode:lighten"/>
<path d="M167.722 250.552L167.225 250.614L167.722 250.552C165.439 232.285 167.021 218.26 171.377 207.41C175.73 196.567 182.865 188.859 191.756 183.239C209.494 172.028 234.187 169.145 257.672 166.402L258.004 166.364C282 163.563 302.004 167.06 316.214 178.334C330.415 189.6 338.936 208.718 339.783 237.401C340.433 259.473 338.925 281.951 333.903 300.931C328.878 319.921 320.357 335.325 307.051 343.372L307.309 343.799L307.051 343.372C297.432 349.189 284.427 350.262 270.142 347.561C255.865 344.861 240.37 338.401 225.834 329.235C196.741 310.891 171.623 281.801 167.722 250.552Z" stroke="#507209"/>
</g>
<path d="M302.447 139.51C351.957 161.679 385.936 210.574 383.222 254.037C379.262 317.109 294.911 369.628 224.785 335.802C143.113 296.399 120.746 249.006 156.696 193.45C186.137 147.908 221.808 103.389 302.447 139.51Z" stroke="#507209" stroke-width="0.75" stroke-miterlimit="10"/>
<path d="M224.875 337.267C138.844 299.106 121.876 245.491 156.411 190.208C185.992 142.853 223.878 100.042 303.43 138.793C352.119 162.459 387.238 213.426 382.976 258.241C377.08 320.221 294.006 367.922 224.875 337.267Z" stroke="#507209" stroke-width="0.75" stroke-miterlimit="10"/>
<path d="M225.044 338.739C134.547 301.897 123.059 241.952 156.225 186.964C185.891 137.772 226.038 96.6834 304.456 138.05C352.333 163.213 388.634 216.229 382.793 262.411C375.082 323.351 293.024 366.392 225.044 338.739Z" stroke="#507209" stroke-width="0.75" stroke-miterlimit="10"/>
<path d="M225.183 340.2C130.104 304.86 124.161 238.425 156.006 183.738C185.73 132.696 228.156 93.3408 305.427 137.361C352.444 164.016 390.034 219.081 382.545 266.634C373.146 326.527 291.937 365.018 225.183 340.2Z" stroke="#507209" stroke-width="0.75" stroke-miterlimit="10"/>
<path d="M225.322 341.67C125.574 307.921 125.256 234.789 155.76 180.499C185.524 127.586 230.304 90.0014 306.477 136.661C352.724 164.798 391.592 221.921 382.397 270.838C371.302 329.675 290.785 363.804 225.322 341.67Z" stroke="#507209" stroke-width="0.75" stroke-miterlimit="10"/>
<path d="M225.451 343.139C120.969 311.217 126.262 231.153 155.532 177.271C185.29 122.453 232.371 86.6821 307.451 135.942C352.886 165.576 393.122 224.748 382.153 275.032C369.544 332.84 289.598 362.731 225.451 343.139Z" stroke="#507209" stroke-width="0.75" stroke-miterlimit="10"/>
<path d="M225.59 344.609C116.288 314.683 127.257 227.537 155.295 174.033C185.029 117.308 234.494 83.2915 308.454 135.228C353.048 166.356 394.746 227.605 381.947 279.23C367.863 336.015 288.302 361.776 225.59 344.609Z" stroke="#507209" stroke-width="0.75" stroke-miterlimit="10"/>
<path d="M225.72 346.078C111.603 318.381 128.216 223.887 155.069 170.796C184.732 112.139 236.613 79.9485 309.457 134.512C353.25 167.138 396.439 230.468 381.741 283.428C366.297 339.22 287.012 360.946 225.72 346.078Z" stroke="#507209" stroke-width="0.75" stroke-miterlimit="10"/>
<path d="M225.858 347.547C106.796 322.31 129.16 220.195 154.832 167.557C184.387 106.955 238.723 76.5944 310.459 133.806C353.441 167.92 398.187 233.356 381.524 287.634C364.69 342.43 285.71 360.233 225.858 347.547Z" stroke="#507209" stroke-width="0.75" stroke-miterlimit="10"/>
<path d="M225.997 349.017C101.958 326.521 130.096 216.583 154.605 164.32C184.015 101.75 240.851 73.2531 311.456 133.052C353.628 168.653 400.013 236.244 381.314 291.773C363.186 345.682 284.398 359.608 225.997 349.017Z" stroke="#507209" stroke-width="0.75" stroke-miterlimit="10"/>
<path d="M226.126 350.486C97.1974 331.032 130.937 212.851 154.368 161.091C183.604 96.5393 242.952 69.8982 312.455 132.375C353.825 169.474 401.897 239.235 381.103 296.028C361.72 348.956 283.144 359.085 226.126 350.486Z" stroke="#507209" stroke-width="0.75" stroke-miterlimit="10"/>
<path d="M313.458 131.66C353.987 170.253 403.819 242.23 380.887 300.226C360.298 352.264 281.834 358.625 226.265 351.956C92.4113 335.873 131.787 209.21 154.142 157.835C183.132 91.2646 245.075 66.5074 313.458 131.66Z" stroke="#507209" stroke-width="0.75" stroke-miterlimit="10"/>
<path d="M346.027 215.591C347.329 259.788 339.991 305.715 313.053 322.004C273.997 345.626 180.825 291.733 172.97 228.819C163.81 155.521 216.592 149.572 263.69 144.072C311.817 138.454 344.328 158.049 346.027 215.591Z" stroke="#9FEA00" stroke-width="0.75" stroke-miterlimit="10"/>
<path d="M171.965 229.358C160.838 153.959 219.02 147.551 265.068 142.575C318.871 136.752 346.887 156.462 347.332 216.46C347.64 260.64 338.977 310.258 310.647 326.039C271.425 347.886 180.97 290.352 171.965 229.358Z" stroke="#9FEA00" stroke-width="0.75" stroke-miterlimit="10"/>
<path d="M170.971 229.898C157.796 152.331 221.472 145.601 266.466 141.071C325.932 135.09 349.535 154.962 348.638 217.33C348 261.489 337.986 314.862 308.242 330.065C268.935 350.213 181.007 288.969 170.971 229.898Z" stroke="#9FEA00" stroke-width="0.75" stroke-miterlimit="10"/>
<path d="M169.977 230.439C154.67 150.763 223.919 143.689 267.845 139.575C332.999 133.459 352.209 153.406 349.945 218.19C348.391 262.331 337.052 319.394 305.837 334.101C266.448 352.599 180.948 287.585 169.977 230.439Z" stroke="#9FEA00" stroke-width="0.75" stroke-miterlimit="10"/>
<path d="M168.972 230.988C151.447 149.175 226.38 141.828 269.233 138.07C340.076 131.827 354.931 151.856 351.241 219.058C348.834 263.13 336.139 324.094 303.412 338.124C264.022 355.06 180.809 286.213 168.972 230.988Z" stroke="#9FEA00" stroke-width="0.75" stroke-miterlimit="10"/>
<path d="M167.978 231.528C148.134 147.606 228.84 139.985 270.62 136.574C347.149 130.323 357.692 150.299 352.546 219.927C349.287 264.027 335.266 328.788 301.025 342.161C261.629 357.573 180.589 284.861 167.978 231.528Z" stroke="#9FEA00" stroke-width="0.75" stroke-miterlimit="10"/>
<path d="M166.973 232.067C144.74 146.058 231.291 138.211 271.999 135.068C354.231 128.819 360.5 148.758 353.839 220.815C349.771 264.898 334.336 333.545 298.616 346.216C259.268 360.148 180.297 283.542 166.973 232.067Z" stroke="#9FEA00" stroke-width="0.75" stroke-miterlimit="10"/>
<path d="M166.018 232.612C141.218 144.537 233.799 136.375 273.425 133.577C361.348 127.359 363.397 147.216 355.196 221.661C350.34 265.72 333.523 338.324 296.258 350.267C256.872 362.779 179.94 282.196 166.018 232.612Z" stroke="#9FEA00" stroke-width="0.75" stroke-miterlimit="10"/>
<path d="M164.984 233.158C137.525 143.055 236.223 134.588 274.775 132.068C368.401 125.95 366.255 145.67 356.463 222.527C350.865 266.576 332.634 343.163 293.808 354.249C254.57 365.458 179.511 280.891 164.984 233.158Z" stroke="#9FEA00" stroke-width="0.75" stroke-miterlimit="10"/>
<path d="M163.95 233.694C133.708 141.639 238.655 132.821 276.124 130.569C375.458 124.6 369.17 144.139 357.741 223.383C351.381 267.431 331.767 348.073 291.383 358.282C252.232 368.191 179.069 279.604 163.95 233.694Z" stroke="#9FEA00" stroke-width="0.75" stroke-miterlimit="10"/>
<path d="M162.985 234.237C129.808 140.272 241.142 131.089 277.553 129.048C382.589 123.296 372.202 142.61 359.087 224.237C351.994 268.296 330.96 353.067 289.004 362.339C249.893 370.934 178.557 278.348 162.985 234.237Z" stroke="#9FEA00" stroke-width="0.75" stroke-miterlimit="10"/>
<path d="M360.371 225.124C352.596 269.17 330.122 358.078 286.601 366.346C247.544 373.774 178.01 277.129 161.985 234.738C125.736 138.957 243.617 129.278 278.933 127.533C389.669 122.096 375.219 141.13 360.371 225.124Z" stroke="#9FEA00" stroke-width="0.75" stroke-miterlimit="10"/>
<path d="M267.515 141.029L329.761 192.527L356.724 275.252L315.293 330.447L235.037 329.588L170.019 280.123L168.195 166.504L267.515 141.029Z" stroke="#EEEEEE" stroke-width="0.5" stroke-miterlimit="10"/>
<path d="M267.515 141.029L170.02 280.114" stroke="#EEEEEE" stroke-width="0.5" stroke-miterlimit="10"/>
<path d="M329.76 192.527L212.146 219.678" stroke="#EEEEEE" stroke-width="0.5" stroke-miterlimit="10"/>
<path d="M212.147 219.678L356.724 275.252L235.037 329.588L212.147 219.678ZM212.147 219.678L168.195 166.504" stroke="#EEEEEE" stroke-width="0.5" stroke-miterlimit="10"/>
<path d="M212.147 219.678L315.293 330.447" stroke="#EEEEEE" stroke-width="0.5" stroke-miterlimit="10"/>
<path d="M356.723 275.252L170.02 280.114" stroke="#EEEEEE" stroke-width="0.5" stroke-miterlimit="10"/>
<path d="M235.027 329.587L267.515 141.029" stroke="#EEEEEE" stroke-width="0.5" stroke-miterlimit="10"/>
<path style="mix-blend-mode:screen" d="M224.765 370.704C218.963 368.704 212.637 371.787 210.637 377.589C208.637 383.391 211.72 389.716 217.522 391.716C223.325 393.717 229.65 390.634 231.65 384.832C233.65 379.029 230.567 372.704 224.765 370.704Z" fill="url(#paint1_radial_2659_46970)"/>
<path style="mix-blend-mode:screen" d="M231.389 92.4439C226.562 88.6536 219.576 89.4942 215.785 94.3214C211.995 99.1486 212.836 106.134 217.663 109.925C222.49 113.715 229.476 112.874 233.266 108.047C237.056 103.22 236.216 96.2341 231.389 92.4439Z" fill="url(#paint2_radial_2659_46970)"/>
<path style="mix-blend-mode:screen" d="M373.154 165.713C375.326 166.042 377.353 167.007 378.977 168.487C380.601 169.967 381.75 171.896 382.278 174.028C382.807 176.161 382.691 178.403 381.946 180.47C381.201 182.537 379.859 184.337 378.091 185.642C376.324 186.947 374.209 187.698 372.014 187.802C369.819 187.905 367.642 187.355 365.76 186.221C363.877 185.088 362.373 183.422 361.437 181.434C360.501 179.446 360.176 177.225 360.502 175.052C360.942 172.136 362.522 169.515 364.895 167.763C367.267 166.012 370.238 165.275 373.154 165.713Z" fill="url(#paint3_radial_2659_46970)"/>
<path style="mix-blend-mode:screen" d="M133.909 164.899C132.91 159.668 127.858 156.237 122.626 157.237C117.395 158.237 113.964 163.289 114.964 168.52C115.964 173.752 121.016 177.183 126.247 176.183C131.479 175.183 134.909 170.131 133.909 164.899Z" fill="url(#paint4_radial_2659_46970)"/>
<path style="mix-blend-mode:screen" d="M374.578 339.095C375.671 339.21 376.705 339.646 377.551 340.348C378.396 341.051 379.013 341.988 379.326 343.042C379.638 344.096 379.631 345.218 379.305 346.268C378.979 347.317 378.35 348.247 377.496 348.938C376.642 349.63 375.602 350.053 374.508 350.154C373.414 350.255 372.314 350.029 371.348 349.505C370.382 348.98 369.593 348.182 369.082 347.209C368.57 346.237 368.358 345.134 368.472 344.041C368.626 342.576 369.356 341.231 370.501 340.304C371.646 339.376 373.112 338.941 374.578 339.095Z" fill="url(#paint5_radial_2659_46970)"/>
<path style="mix-blend-mode:screen" d="M299.78 232.667C300.873 232.782 301.908 233.218 302.753 233.921C303.598 234.623 304.215 235.561 304.528 236.614C304.84 237.668 304.833 238.79 304.507 239.84C304.182 240.89 303.552 241.819 302.698 242.511C301.844 243.202 300.804 243.625 299.71 243.726C298.616 243.827 297.516 243.601 296.55 243.077C295.584 242.553 294.796 241.754 294.284 240.781C293.772 239.809 293.56 238.707 293.674 237.614C293.828 236.148 294.558 234.803 295.703 233.876C296.848 232.948 298.315 232.513 299.78 232.667Z" fill="url(#paint6_radial_2659_46970)"/>
<path style="mix-blend-mode:screen" d="M130.51 140.249C131.603 140.363 132.637 140.8 133.482 141.502C134.327 142.205 134.945 143.142 135.257 144.196C135.57 145.249 135.562 146.372 135.237 147.422C134.911 148.471 134.282 149.401 133.428 150.092C132.574 150.784 131.534 151.207 130.44 151.308C129.345 151.409 128.246 151.183 127.28 150.658C126.314 150.134 125.525 149.335 125.013 148.363C124.501 147.39 124.289 146.288 124.404 145.195C124.558 143.729 125.287 142.385 126.432 141.457C127.577 140.53 129.044 140.095 130.51 140.249Z" fill="url(#paint7_radial_2659_46970)"/>
<path style="mix-blend-mode:screen" d="M265.21 439.213C266.303 439.327 267.337 439.763 268.182 440.466C269.027 441.169 269.645 442.106 269.957 443.16C270.27 444.213 270.263 445.336 269.937 446.385C269.611 447.435 268.982 448.364 268.128 449.056C267.274 449.748 266.234 450.171 265.14 450.272C264.045 450.372 262.946 450.146 261.98 449.622C261.014 449.098 260.225 448.299 259.713 447.327C259.201 446.354 258.989 445.252 259.104 444.159C259.26 442.694 259.991 441.352 261.135 440.424C262.28 439.497 263.745 439.062 265.21 439.213Z" fill="url(#paint8_radial_2659_46970)"/>
<path style="mix-blend-mode:screen" d="M328.037 69.822C329.13 69.9367 330.164 70.3728 331.009 71.0754C331.855 71.7779 332.472 72.7153 332.785 73.7689C333.097 74.8226 333.09 75.9452 332.764 76.9948C332.438 78.0443 331.809 78.9738 330.955 79.6655C330.101 80.3573 329.061 80.7803 327.967 80.8811C326.873 80.9818 325.773 80.7558 324.807 80.2316C323.841 79.7075 323.052 78.9087 322.541 77.9362C322.029 76.9638 321.817 75.8614 321.931 74.7684C322.007 74.0427 322.226 73.3391 322.574 72.6978C322.922 72.0565 323.393 71.49 323.96 71.0306C324.527 70.5713 325.179 70.2282 325.878 70.0208C326.578 69.8134 327.311 69.7459 328.037 69.822Z" fill="url(#paint9_radial_2659_46970)"/>
<path style="mix-blend-mode:screen" d="M128.171 365.882C129.264 365.996 130.298 366.432 131.143 367.135C131.988 367.838 132.606 368.775 132.918 369.828C133.231 370.882 133.224 372.005 132.898 373.054C132.572 374.104 131.943 375.033 131.089 375.725C130.235 376.417 129.195 376.84 128.101 376.941C127.006 377.041 125.907 376.815 124.941 376.291C123.975 375.767 123.186 374.968 122.674 373.996C122.162 373.023 121.95 371.921 122.065 370.828C122.219 369.362 122.948 368.018 124.094 367.09C125.239 366.163 126.705 365.728 128.171 365.882Z" fill="url(#paint10_radial_2659_46970)"/>
<defs>
<radialGradient id="paint0_radial_2659_46970" cx="0" cy="0" r="1" gradientUnits="userSpaceOnUse" gradientTransform="translate(255.408 248.066) rotate(-84.0113) scale(89.9903 89.9903)">
<stop stop-color="#A8F800" stop-opacity="0.92"/>
<stop offset="0.13" stop-color="#B3FA1E" stop-opacity="0.85"/>
<stop offset="0.24" stop-color="#8FC915" stop-opacity="0.9"/>
<stop offset="0.34" stop-color="#6C9514"/>
<stop offset="0.45" stop-color="#4E6915"/>
<stop offset="0.55" stop-color="#3B4D14"/>
<stop offset="0.65" stop-color="#283114"/>
<stop offset="0.75" stop-color="#202515"/>
<stop offset="0.83" stop-color="#212517"/>
</radialGradient>
<radialGradient id="paint1_radial_2659_46970" cx="0" cy="0" r="1" gradientUnits="userSpaceOnUse" gradientTransform="translate(221.144 381.21) rotate(-160.981) scale(11.1128 11.1128)">
<stop stop-color="#F2FFD7"/>
<stop offset="0.04" stop-color="#E7FFB5"/>
<stop offset="0.08" stop-color="#DAFF8C"/>
<stop offset="0.12" stop-color="#D1FF71"/>
<stop offset="0.15" stop-color="#CEFF67"/>
<stop offset="0.18" stop-color="#D1FF6F"/>
<stop offset="0.24" stop-color="#C3F25E"/>
<stop offset="0.34" stop-color="#CFF47F" stop-opacity="0.82"/>
<stop offset="0.395833" stop-color="#ADD35D" stop-opacity="0.75"/>
<stop offset="0.47" stop-color="#A2C55A" stop-opacity="0.63"/>
<stop offset="0.63" stop-color="#376669" stop-opacity="0.36"/>
<stop offset="0.6301" stop-color="#4A5532" stop-opacity="0.37"/>
<stop offset="0.81" stop-color="#221D1A" stop-opacity="0.02"/>
<stop offset="0.82" stop-color="#202418" stop-opacity="0.01"/>
</radialGradient>
<radialGradient id="paint2_radial_2659_46970" cx="0" cy="0" r="1" gradientUnits="userSpaceOnUse" gradientTransform="translate(224.526 101.184) rotate(-141.861) scale(11.1128)">
<stop stop-color="#F2FFD7"/>
<stop offset="0.04" stop-color="#E7FFB5"/>
<stop offset="0.08" stop-color="#DAFF8C"/>
<stop offset="0.12" stop-color="#D1FF71"/>
<stop offset="0.15" stop-color="#CEFF67"/>
<stop offset="0.18" stop-color="#D1FF6F"/>
<stop offset="0.24" stop-color="#C3F25E"/>
<stop offset="0.34" stop-color="#CFF47F" stop-opacity="0.82"/>
<stop offset="0.395833" stop-color="#ADD35D" stop-opacity="0.75"/>
<stop offset="0.47" stop-color="#A2C55A" stop-opacity="0.63"/>
<stop offset="0.63" stop-color="#376669" stop-opacity="0.36"/>
<stop offset="0.6301" stop-color="#4A5532" stop-opacity="0.37"/>
<stop offset="0.81" stop-color="#221D1A" stop-opacity="0.02"/>
<stop offset="0.82" stop-color="#202418" stop-opacity="0.01"/>
</radialGradient>
<radialGradient id="paint3_radial_2659_46970" cx="0" cy="0" r="1" gradientUnits="userSpaceOnUse" gradientTransform="translate(371.492 176.701) rotate(-84.0113) scale(11.1126 11.1128)">
<stop stop-color="#F2FFD7"/>
<stop offset="0.04" stop-color="#E7FFB5"/>
<stop offset="0.08" stop-color="#DAFF8C"/>
<stop offset="0.12" stop-color="#D1FF71"/>
<stop offset="0.15" stop-color="#CEFF67"/>
<stop offset="0.18" stop-color="#D1FF6F"/>
<stop offset="0.24" stop-color="#C3F25E"/>
<stop offset="0.34" stop-color="#CFF47F" stop-opacity="0.82"/>
<stop offset="0.395833" stop-color="#ADD35D" stop-opacity="0.75"/>
<stop offset="0.47" stop-color="#A2C55A" stop-opacity="0.63"/>
<stop offset="0.63" stop-color="#376669" stop-opacity="0.36"/>
<stop offset="0.6301" stop-color="#4A5532" stop-opacity="0.37"/>
<stop offset="0.81" stop-color="#221D1A" stop-opacity="0.02"/>
<stop offset="0.82" stop-color="#202418" stop-opacity="0.01"/>
</radialGradient>
<radialGradient id="paint4_radial_2659_46970" cx="0" cy="0" r="1" gradientUnits="userSpaceOnUse" gradientTransform="translate(124.437 166.71) rotate(-100.82) scale(9.6442 9.64421)">
<stop stop-color="#F2FFD7"/>
<stop offset="0.04" stop-color="#E7FFB5"/>
<stop offset="0.08" stop-color="#DAFF8C"/>
<stop offset="0.12" stop-color="#D1FF71"/>
<stop offset="0.15" stop-color="#CEFF67"/>
<stop offset="0.18" stop-color="#D1FF6F"/>
<stop offset="0.24" stop-color="#C3F25E"/>
<stop offset="0.34" stop-color="#CFF47F" stop-opacity="0.82"/>
<stop offset="0.395833" stop-color="#ADD35D" stop-opacity="0.75"/>
<stop offset="0.47" stop-color="#A2C55A" stop-opacity="0.63"/>
<stop offset="0.63" stop-color="#376669" stop-opacity="0.36"/>
<stop offset="0.6301" stop-color="#4A5532" stop-opacity="0.37"/>
<stop offset="0.81" stop-color="#221D1A" stop-opacity="0.02"/>
<stop offset="0.82" stop-color="#202418" stop-opacity="0.01"/>
</radialGradient>
<radialGradient id="paint5_radial_2659_46970" cx="0" cy="0" r="1" gradientUnits="userSpaceOnUse" gradientTransform="translate(373.998 344.621) rotate(-84.0113) scale(5.55639 5.55641)">
<stop stop-color="#F2FFD6"/>
<stop offset="0.04" stop-color="#E7FFB5"/>
<stop offset="0.08" stop-color="#DAFF8C"/>
<stop offset="0.12" stop-color="#D1FF71"/>
<stop offset="0.15" stop-color="#CEFF67"/>
<stop offset="0.18" stop-color="#D1FF6F"/>
<stop offset="0.24" stop-color="#C3F25E"/>
<stop offset="0.34" stop-color="#CFF47F" stop-opacity="0.82"/>
<stop offset="0.395833" stop-color="#ADD35D" stop-opacity="0.75"/>
<stop offset="0.47" stop-color="#A2C55A" stop-opacity="0.63"/>
<stop offset="0.63" stop-color="#376669" stop-opacity="0.36"/>
<stop offset="0.6301" stop-color="#4A5532" stop-opacity="0.37"/>
<stop offset="0.81" stop-color="#221D1A" stop-opacity="0.02"/>
<stop offset="0.82" stop-color="#202418" stop-opacity="0.01"/>
</radialGradient>
<radialGradient id="paint6_radial_2659_46970" cx="0" cy="0" r="1" gradientUnits="userSpaceOnUse" gradientTransform="translate(299.201 238.193) rotate(-84.0113) scale(5.55639)">
<stop stop-color="#F2FFD7"/>
<stop offset="0.04" stop-color="#E7FFB5"/>
<stop offset="0.08" stop-color="#DAFF8C"/>
<stop offset="0.12" stop-color="#D1FF71"/>
<stop offset="0.15" stop-color="#CEFF67"/>
<stop offset="0.18" stop-color="#D1FF6F"/>
<stop offset="0.24" stop-color="#C3F25E"/>
<stop offset="0.34" stop-color="#CFF47F" stop-opacity="0.82"/>
<stop offset="0.395833" stop-color="#ADD35D" stop-opacity="0.75"/>
<stop offset="0.47" stop-color="#A2C55A" stop-opacity="0.63"/>
<stop offset="0.63" stop-color="#376669" stop-opacity="0.36"/>
<stop offset="0.6301" stop-color="#4A5532" stop-opacity="0.37"/>
<stop offset="0.81" stop-color="#221D1A" stop-opacity="0.02"/>
<stop offset="0.82" stop-color="#202418" stop-opacity="0.01"/>
</radialGradient>
<radialGradient id="paint7_radial_2659_46970" cx="0" cy="0" r="1" gradientUnits="userSpaceOnUse" gradientTransform="translate(129.93 145.775) rotate(-84.0113) scale(5.55639 5.55639)">
<stop stop-color="#F2FFD7"/>
<stop offset="0.04" stop-color="#E7FFB5"/>
<stop offset="0.08" stop-color="#DAFF8C"/>
<stop offset="0.12" stop-color="#D1FF71"/>
<stop offset="0.15" stop-color="#CEFF67"/>
<stop offset="0.18" stop-color="#D1FF6F"/>
<stop offset="0.24" stop-color="#C3F25E"/>
<stop offset="0.34" stop-color="#CFF47F" stop-opacity="0.82"/>
<stop offset="0.395833" stop-color="#ADD35D" stop-opacity="0.75"/>
<stop offset="0.47" stop-color="#A2C55A" stop-opacity="0.63"/>
<stop offset="0.63" stop-color="#376669" stop-opacity="0.36"/>
<stop offset="0.6301" stop-color="#4A5532" stop-opacity="0.37"/>
<stop offset="0.81" stop-color="#221D1A" stop-opacity="0.02"/>
<stop offset="0.82" stop-color="#202418" stop-opacity="0.01"/>
</radialGradient>
<radialGradient id="paint8_radial_2659_46970" cx="0" cy="0" r="1" gradientUnits="userSpaceOnUse" gradientTransform="translate(264.63 444.739) rotate(-84.0113) scale(5.55639)">
<stop stop-color="#F2FFD7"/>
<stop offset="0.04" stop-color="#E7FFB5"/>
<stop offset="0.08" stop-color="#DAFF8C"/>
<stop offset="0.12" stop-color="#D1FF71"/>
<stop offset="0.15" stop-color="#CEFF67"/>
<stop offset="0.18" stop-color="#D1FF6F"/>
<stop offset="0.24" stop-color="#C3F25E"/>
<stop offset="0.34" stop-color="#CFF47F" stop-opacity="0.82"/>
<stop offset="0.395833" stop-color="#ADD35D" stop-opacity="0.75"/>
<stop offset="0.47" stop-color="#A2C55A" stop-opacity="0.63"/>
<stop offset="0.63" stop-color="#376669" stop-opacity="0.36"/>
<stop offset="0.6301" stop-color="#4A5532" stop-opacity="0.37"/>
<stop offset="0.81" stop-color="#221D1A" stop-opacity="0.02"/>
<stop offset="0.82" stop-color="#202418" stop-opacity="0.01"/>
</radialGradient>
<radialGradient id="paint9_radial_2659_46970" cx="0" cy="0" r="1" gradientUnits="userSpaceOnUse" gradientTransform="translate(327.457 75.3481) rotate(-84.0113) scale(5.55639)">
<stop stop-color="#F2FFD7"/>
<stop offset="0.04" stop-color="#E7FFB5"/>
<stop offset="0.08" stop-color="#DAFF8C"/>
<stop offset="0.12" stop-color="#D1FF71"/>
<stop offset="0.15" stop-color="#CEFF67"/>
<stop offset="0.18" stop-color="#D1FF6F"/>
<stop offset="0.24" stop-color="#C3F25E"/>
<stop offset="0.34" stop-color="#CFF47F" stop-opacity="0.82"/>
<stop offset="0.395833" stop-color="#ADD35D" stop-opacity="0.75"/>
<stop offset="0.47" stop-color="#A2C55A" stop-opacity="0.63"/>
<stop offset="0.63" stop-color="#376669" stop-opacity="0.36"/>
<stop offset="0.6301" stop-color="#4A5532" stop-opacity="0.37"/>
<stop offset="0.81" stop-color="#221D1A" stop-opacity="0.02"/>
<stop offset="0.82" stop-color="#202418" stop-opacity="0.01"/>
</radialGradient>
<radialGradient id="paint10_radial_2659_46970" cx="0" cy="0" r="1" gradientUnits="userSpaceOnUse" gradientTransform="translate(127.591 371.408) rotate(-84.0113) scale(5.55639)">
<stop stop-color="#F2FFD7"/>
<stop offset="0.04" stop-color="#E7FFB5"/>
<stop offset="0.08" stop-color="#DAFF8C"/>
<stop offset="0.12" stop-color="#D1FF71"/>
<stop offset="0.15" stop-color="#CEFF67"/>
<stop offset="0.18" stop-color="#D1FF6F"/>
<stop offset="0.24" stop-color="#C3F25E"/>
<stop offset="0.34" stop-color="#CFF47F" stop-opacity="0.82"/>
<stop offset="0.395833" stop-color="#ADD35D" stop-opacity="0.75"/>
<stop offset="0.47" stop-color="#A2C55A" stop-opacity="0.63"/>
<stop offset="0.63" stop-color="#376669" stop-opacity="0.36"/>
<stop offset="0.6301" stop-color="#4A5532" stop-opacity="0.37"/>
<stop offset="0.81" stop-color="#221D1A" stop-opacity="0.02"/>
<stop offset="0.82" stop-color="#202418" stop-opacity="0.01"/>
</radialGradient>
</defs>
</svg>
