<svg width="531" height="528" viewBox="0 0 531 528" fill="none" xmlns="http://www.w3.org/2000/svg">
<path fill-rule="evenodd" clip-rule="evenodd" d="M243.569 2.26823C248.382 1.89169 253.202 1.64669 258.024 1.53292L258.018 1.28299L258.006 0.783133L258 0.533203C253.161 0.647397 248.322 0.893315 243.491 1.27127L243.51 1.52051L243.549 2.01899L243.569 2.26823ZM272.497 1.58536C277.32 1.73408 282.138 2.01396 286.947 2.42468L286.968 2.17559L287.01 1.67741L287.032 1.42831C282.205 1.01605 277.369 0.735117 272.528 0.585832L272.52 0.835714L272.505 1.33548L272.497 1.58536ZM222.015 4.8445C224.398 4.46017 226.785 4.10864 229.175 3.78987L229.142 3.54207L229.076 3.04646L229.043 2.79865C226.644 3.11862 224.248 3.47148 221.856 3.85726C219.458 4.24397 217.067 4.66962 214.684 5.13316L214.732 5.37856L214.828 5.86935L214.875 6.11475C217.247 5.65325 219.628 5.22948 222.015 4.8445ZM301.329 4.04789C306.104 4.71858 310.863 5.51932 315.602 6.44979L315.65 6.20448L315.747 5.71384L315.795 5.46853C311.038 4.53457 306.261 3.73082 301.468 3.05761L301.433 3.30518L301.364 3.80032L301.329 4.04789ZM186.813 13.4024C191.413 11.908 196.055 10.5479 200.734 9.3305L200.671 9.08855L200.545 8.60467L200.482 8.36272C195.783 9.58526 191.122 10.951 186.504 12.4513L186.581 12.6891L186.735 13.1646L186.813 13.4024ZM329.724 9.62305C332.061 10.2153 334.391 10.8396 336.715 11.496L336.783 11.2555L336.919 10.7743L336.987 10.5337C334.655 9.87484 332.315 9.24815 329.97 8.65369L329.908 8.89603L329.785 9.38071L329.724 9.62305ZM159.778 23.9012C164.185 21.9065 168.644 20.0289 173.15 18.2768L173.06 18.0438L172.879 17.5778L172.788 17.3448C168.265 19.1036 163.789 20.9882 159.365 22.9902L159.469 23.2179L159.675 23.6735L159.778 23.9012ZM133.999 37.2048C138.179 34.7755 142.421 32.4464 146.72 30.2259L146.606 30.0038L146.376 29.5596L146.261 29.3374C141.947 31.5657 137.691 33.9028 133.497 36.3402L133.622 36.5564L133.873 36.9887L133.999 37.2048ZM115.587 48.8097C117.585 47.4495 119.6 46.1113 121.632 44.7962L121.497 44.5863L121.225 44.1665L121.089 43.9567C119.05 45.276 117.029 46.6185 115.024 47.9831C113.035 49.3378 111.065 50.7186 109.117 52.1251L109.263 52.3278L109.556 52.7332L109.702 52.9359C111.643 51.5348 113.605 50.1593 115.587 48.8097ZM87.3609 71.0087C90.9117 67.7977 94.5536 64.6819 98.283 61.6651L98.1257 61.4708L97.8113 61.082L97.6541 60.8877C93.9104 63.916 90.2545 67.0437 86.6901 70.267L86.8578 70.4524L87.1932 70.8233L87.3609 71.0087ZM67.1414 91.4273C70.3197 87.8423 73.597 84.3449 76.9696 80.9392L76.7919 80.7633L76.4366 80.4115L76.259 80.2356C72.8735 83.6544 69.5836 87.1651 66.3931 90.7639L66.5802 90.9297L66.9543 91.2614L67.1414 91.4273ZM49.295 113.949C52.0606 110.032 54.9324 106.195 57.9069 102.442L57.7109 102.286L57.3191 101.976L57.1231 101.821C54.1372 105.589 51.2543 109.441 48.4781 113.373L48.6824 113.517L49.0908 113.805L49.295 113.949ZM37.6032 132.059C38.8188 129.993 40.0621 127.945 41.3328 125.916L41.1209 125.783L40.6971 125.518L40.4852 125.385C39.2097 127.422 37.9615 129.478 36.7412 131.552C35.5231 133.623 34.3346 135.709 33.176 137.81L33.3949 137.93L33.8327 138.172L34.0516 138.293C35.2058 136.2 36.3897 134.122 37.6032 132.059ZM21.6086 164.134C23.4405 159.72 25.3957 155.354 27.4724 151.041L27.2472 150.933L26.7967 150.716L26.5714 150.607C24.4867 154.937 22.524 159.32 20.685 163.751L20.9159 163.847L21.3777 164.039L21.6086 164.134ZM12.0979 191.193C13.4317 186.6 14.8924 182.044 16.4785 177.532L16.2426 177.449L15.7709 177.283L15.5351 177.2C13.9429 181.73 12.4765 186.303 11.1376 190.914L11.3777 190.984L11.8578 191.123L12.0979 191.193ZM5.63695 219.137C6.45542 214.421 7.40378 209.732 8.48038 205.076L8.2368 205.019L7.74965 204.907L7.50608 204.85C6.42533 209.525 5.47331 214.232 4.65168 218.966L4.898 219.009L5.39064 219.095L5.63695 219.137ZM2.84123 240.471C3.05346 238.087 3.29851 235.708 3.57618 233.335L3.32787 233.306L2.83126 233.248L2.58295 233.219C2.30421 235.601 2.05822 237.989 1.84517 240.382C1.63183 242.778 1.45187 245.176 1.30518 247.574L1.55471 247.589L2.05378 247.62L2.30331 247.635C2.44944 245.246 2.62871 242.858 2.84123 240.471ZM2.13911 276.359C1.90162 271.578 1.7962 266.788 1.82357 261.995L1.57357 261.993L1.07358 261.991L0.823583 261.989C0.796114 266.801 0.901939 271.609 1.14034 276.409L1.39003 276.396L1.88942 276.371L2.13911 276.359ZM5.14672 304.926C4.38281 300.196 3.74975 295.447 3.24824 290.684L2.99961 290.71L2.50236 290.762L2.25374 290.789C2.75717 295.57 3.39267 300.337 4.15951 305.085L4.40631 305.045L4.89992 304.966L5.14672 304.926ZM11.2825 332.987C10.0019 328.367 8.85014 323.716 7.82786 319.041L7.58363 319.095L7.09517 319.201L6.85094 319.255C7.87714 323.948 9.03336 328.616 10.3189 333.255L10.5598 333.188L11.0416 333.054L11.2825 332.987ZM17.8892 353.498C17.0609 351.249 16.2642 348.99 15.4993 346.723L15.2624 346.803L14.7886 346.962L14.5517 347.042C15.3196 349.318 16.1193 351.586 16.9508 353.844C17.7852 356.11 18.6503 358.363 19.5457 360.602L19.7779 360.509L20.2421 360.323L20.4742 360.231C19.5822 358 18.7204 355.755 17.8892 353.498ZM32.6358 386.374C30.3723 382.134 28.2246 377.831 26.1954 373.469L25.9688 373.575L25.5154 373.786L25.2888 373.891C27.3256 378.27 29.4816 382.589 31.7537 386.845L31.9742 386.727L32.4153 386.491L32.6358 386.374ZM47.5898 411.026C44.8739 407.057 42.2679 403.015 39.7748 398.905L39.5611 399.035L39.1336 399.294L38.9198 399.424C41.4224 403.549 44.0383 407.607 46.7645 411.591L46.9708 411.45L47.3835 411.168L47.5898 411.026ZM65.1481 433.898C62.0131 430.246 58.9815 426.512 56.0563 422.702L55.858 422.854L55.4614 423.159L55.2631 423.311C58.1994 427.136 61.2425 430.883 64.3894 434.549L64.5791 434.386L64.9585 434.061L65.1481 433.898ZM79.8965 449.72C78.1854 448.029 76.4989 446.315 74.8372 444.581L74.6567 444.754L74.2956 445.1L74.1151 445.273C75.783 447.014 77.4759 448.734 79.1935 450.432C80.9164 452.135 82.6614 453.813 84.428 455.467L84.5988 455.284L84.9405 454.919L85.1113 454.737C83.3514 453.089 81.6129 451.417 79.8965 449.72ZM107.279 473.324C103.421 470.432 99.6407 467.434 95.9418 464.333L95.7812 464.524L95.46 464.907L95.2994 465.099C99.0122 468.212 102.807 471.221 106.68 474.124L106.83 473.924L107.13 473.524L107.279 473.324ZM131.338 489.39C127.186 486.933 123.101 484.363 119.09 481.685L118.951 481.893L118.673 482.308L118.535 482.516C122.561 485.205 126.661 487.784 130.829 490.251L130.956 490.036L131.211 489.605L131.338 489.39ZM156.998 502.75C152.601 500.756 148.262 498.645 143.987 496.419L143.871 496.641L143.64 497.084L143.525 497.306C147.816 499.54 152.171 501.659 156.585 503.661L156.689 503.433L156.895 502.978L156.998 502.75ZM177.112 510.899C174.84 510.085 172.581 509.24 170.335 508.365L170.244 508.598L170.063 509.064L169.972 509.297C172.226 510.175 174.494 511.023 176.775 511.84C179.057 512.658 181.348 513.445 183.648 514.199L183.726 513.962L183.882 513.487L183.96 513.249C181.668 512.497 179.386 511.714 177.112 510.899ZM211.91 520.767C207.192 519.769 202.497 518.642 197.833 517.388L197.768 517.629L197.638 518.112L197.573 518.353C202.255 519.613 206.967 520.743 211.703 521.745L211.755 521.501L211.858 521.011L211.91 520.767ZM240.511 525.209C235.709 524.728 230.92 524.117 226.15 523.376L226.112 523.624L226.035 524.118L225.997 524.365C230.785 525.108 235.591 525.722 240.412 526.204L240.436 525.955L240.486 525.458L240.511 525.209ZM291.111 525.437C288.706 525.656 286.3 525.842 283.893 525.995L283.909 526.245L283.94 526.744L283.956 526.993C286.372 526.84 288.787 526.653 291.201 526.433L291.179 526.184L291.133 525.686L291.111 525.437ZM269.425 526.521C264.596 526.565 259.769 526.477 254.95 526.258L254.939 526.508L254.916 527.007L254.905 527.257C259.742 527.477 264.587 527.565 269.434 527.521L269.432 527.271L269.427 526.771L269.425 526.521ZM344.363 13.4403C402.182 31.528 452.05 68.8302 485.602 119.089C519.154 169.348 534.35 229.506 528.642 289.472C522.933 349.438 496.667 405.565 454.248 448.437C411.83 491.31 355.84 518.321 295.67 524.938L295.78 525.932C356.177 519.29 412.379 492.177 454.959 449.141C497.539 406.104 523.906 349.763 529.637 289.567C535.368 229.371 520.113 168.983 486.434 118.534C452.754 68.0844 402.698 30.6417 344.662 12.4859L344.363 13.4403Z" fill="#A1A1A1"/>
</svg>
