<svg width="563" height="551" viewBox="0 0 563 551" fill="none" xmlns="http://www.w3.org/2000/svg">
<path d="M492.481 241.232L443.296 429.874L265.365 483.601L135.048 426.583L63.1878 259.928L167.367 111.348L394.433 54.0198L492.481 241.232Z" stroke="#A1A1A1" stroke-miterlimit="10"/>
<path d="M492.479 241.231L167.366 111.347" stroke="#A1A1A1" stroke-miterlimit="10"/>
<path d="M443.297 429.874L308.522 167.306" stroke="#A1A1A1" stroke-miterlimit="10"/>
<path d="M308.522 167.306L265.365 483.601L63.1878 259.928L308.522 167.306ZM308.522 167.306L394.433 54.0198" stroke="#A1A1A1" stroke-miterlimit="10"/>
<path d="M308.521 167.307L135.047 426.584" stroke="#A1A1A1" stroke-miterlimit="10"/>
<path d="M265.365 483.601L167.366 111.348" stroke="#A1A1A1" stroke-miterlimit="10"/>
<path d="M63.1872 259.929L492.48 241.232" stroke="#A1A1A1" stroke-miterlimit="10"/>
<g style="mix-blend-mode:lighten">
<path d="M205.583 291.013L205.087 291.075L205.583 291.013C203.3 272.745 204.883 258.721 209.238 247.87C213.591 237.028 220.727 229.319 229.617 223.7C247.356 212.489 272.048 209.605 295.533 206.863L295.865 206.824C319.861 204.023 339.865 207.521 354.075 218.794C368.276 230.06 376.797 249.178 377.644 277.862C378.295 299.933 376.786 322.412 371.764 341.391C366.739 360.381 358.219 375.786 344.912 383.832L345.171 384.26L344.912 383.832C335.294 389.649 322.288 390.723 308.003 388.021C293.726 385.322 278.231 378.862 263.695 369.696C234.602 351.351 209.485 322.261 205.583 291.013Z" fill="url(#paint0_radial_2664_74825)" style="mix-blend-mode:lighten"/>
<path d="M205.583 291.013L205.087 291.075L205.583 291.013C203.3 272.745 204.883 258.721 209.238 247.87C213.591 237.028 220.727 229.319 229.617 223.7C247.356 212.489 272.048 209.605 295.533 206.863L295.865 206.824C319.861 204.023 339.865 207.521 354.075 218.794C368.276 230.06 376.797 249.178 377.644 277.862C378.295 299.933 376.786 322.412 371.764 341.391C366.739 360.381 358.219 375.786 344.912 383.832L345.171 384.26L344.912 383.832C335.294 389.649 322.288 390.723 308.003 388.021C293.726 385.322 278.231 378.862 263.695 369.696C234.602 351.351 209.485 322.261 205.583 291.013Z" stroke="#507209"/>
</g>
<path d="M340.308 179.971C389.817 202.14 423.796 251.035 421.082 294.498C417.123 357.57 332.772 410.089 262.645 376.263C180.973 336.86 158.607 289.467 194.557 233.911C223.997 188.368 259.668 143.85 340.308 179.971Z" stroke="#507209" stroke-width="0.75" stroke-miterlimit="10"/>
<path d="M262.738 377.728C176.707 339.567 159.74 285.952 194.274 230.669C223.856 183.314 261.741 140.503 341.294 179.254C389.982 202.919 425.101 253.887 420.839 298.702C414.943 360.682 331.869 408.383 262.738 377.728Z" stroke="#507209" stroke-width="0.75" stroke-miterlimit="10"/>
<path d="M262.906 379.2C172.409 342.358 160.921 282.413 194.087 227.425C223.753 178.233 263.9 137.144 342.319 178.511C390.195 203.674 426.496 256.69 420.655 302.872C412.944 363.812 330.886 406.853 262.906 379.2Z" stroke="#507209" stroke-width="0.75" stroke-miterlimit="10"/>
<path d="M263.044 380.661C167.965 345.321 162.022 278.886 193.866 224.199C223.59 173.158 266.016 133.802 343.287 177.823C390.304 204.477 427.894 259.543 420.406 307.095C411.007 366.989 329.797 405.48 263.044 380.661Z" stroke="#507209" stroke-width="0.75" stroke-miterlimit="10"/>
<path d="M263.184 382.131C163.436 348.382 163.118 275.25 193.622 220.96C223.386 168.047 268.166 130.462 344.34 177.122C390.586 205.259 429.454 262.382 420.26 311.299C409.165 370.136 328.648 404.265 263.184 382.131Z" stroke="#507209" stroke-width="0.75" stroke-miterlimit="10"/>
<path d="M263.311 383.6C158.829 351.678 164.122 271.614 193.392 217.732C223.151 162.914 270.231 127.143 345.311 176.403C390.746 206.037 430.982 265.209 420.013 315.493C407.404 373.301 327.459 403.192 263.311 383.6Z" stroke="#507209" stroke-width="0.75" stroke-miterlimit="10"/>
<path d="M263.452 385.07C154.151 355.144 165.119 267.998 193.158 214.495C222.892 157.77 272.357 123.753 346.316 175.689C390.911 206.817 432.609 268.066 419.809 319.692C405.725 376.476 326.164 402.237 263.452 385.07Z" stroke="#507209" stroke-width="0.75" stroke-miterlimit="10"/>
<path d="M263.582 386.539C149.466 358.842 166.079 264.348 192.931 211.257C222.594 152.6 274.476 120.409 347.32 174.973C391.112 207.599 434.301 270.929 419.603 323.889C404.159 379.681 324.875 401.407 263.582 386.539Z" stroke="#507209" stroke-width="0.75" stroke-miterlimit="10"/>
<path d="M263.721 388.008C144.658 362.772 167.023 260.657 192.695 208.018C222.249 147.417 276.586 117.056 348.322 174.267C391.304 208.381 436.049 273.818 419.387 328.095C402.552 382.891 323.572 400.694 263.721 388.008Z" stroke="#507209" stroke-width="0.75" stroke-miterlimit="10"/>
<path d="M263.857 389.479C139.819 366.983 167.956 257.044 192.465 204.782C221.875 142.211 278.711 113.715 349.317 173.513C391.488 209.114 437.873 276.706 419.175 332.234C401.047 386.143 322.258 400.069 263.857 389.479Z" stroke="#507209" stroke-width="0.75" stroke-miterlimit="10"/>
<path d="M263.986 390.947C135.058 371.493 168.797 253.312 192.228 201.552C221.464 137 280.812 110.359 350.316 172.836C391.685 209.935 439.757 279.696 418.963 336.489C399.58 389.417 321.004 399.546 263.986 390.947Z" stroke="#507209" stroke-width="0.75" stroke-miterlimit="10"/>
<path d="M351.319 172.121C391.849 210.714 441.681 282.691 418.748 340.687C398.159 392.725 319.696 399.086 264.126 392.417C130.273 376.334 169.649 249.671 192.004 198.296C220.993 131.726 282.936 106.968 351.319 172.121Z" stroke="#507209" stroke-width="0.75" stroke-miterlimit="10"/>
<path d="M383.89 256.05C385.192 300.247 377.854 346.174 350.917 362.463C311.86 386.085 218.688 332.192 210.833 269.278C201.673 195.98 254.455 190.031 301.553 184.531C349.68 178.913 382.191 198.508 383.89 256.05Z" stroke="#9FEA00" stroke-width="0.75" stroke-miterlimit="10"/>
<path d="M209.827 269.818C198.701 194.419 256.883 188.011 302.93 183.035C356.733 177.213 384.749 196.922 385.194 256.921C385.502 301.101 376.839 350.718 348.509 366.5C309.287 388.346 218.832 330.812 209.827 269.818Z" stroke="#9FEA00" stroke-width="0.75" stroke-miterlimit="10"/>
<path d="M208.835 270.358C195.66 192.791 259.336 186.06 304.33 181.53C363.796 175.55 387.399 195.421 386.502 257.789C385.864 301.949 375.851 355.321 346.106 370.524C306.799 390.673 218.872 329.428 208.835 270.358Z" stroke="#9FEA00" stroke-width="0.75" stroke-miterlimit="10"/>
<path d="M207.839 270.898C192.531 191.222 261.781 184.148 305.706 180.034C370.861 173.918 390.07 193.865 387.806 258.649C386.252 302.79 374.914 359.853 343.698 374.56C304.31 393.058 218.81 328.044 207.839 270.898Z" stroke="#9FEA00" stroke-width="0.75" stroke-miterlimit="10"/>
<path d="M206.832 271.448C189.307 189.635 264.241 182.288 307.093 178.53C377.936 172.287 392.791 192.316 389.101 259.518C386.695 303.59 374 364.554 341.272 378.584C301.882 395.52 218.669 326.673 206.832 271.448Z" stroke="#9FEA00" stroke-width="0.75" stroke-miterlimit="10"/>
<path d="M205.839 271.989C185.995 188.067 266.701 180.446 308.482 177.035C385.01 170.784 395.553 190.76 390.407 260.388C387.149 304.488 373.127 369.249 338.886 382.622C299.49 398.034 218.45 325.322 205.839 271.989Z" stroke="#9FEA00" stroke-width="0.75" stroke-miterlimit="10"/>
<path d="M204.835 272.528C182.603 186.519 269.153 178.672 309.861 175.529C392.093 169.28 398.362 189.218 391.702 261.276C387.634 305.359 372.199 374.005 336.479 386.677C297.13 400.609 218.159 324.002 204.835 272.528Z" stroke="#9FEA00" stroke-width="0.75" stroke-miterlimit="10"/>
<path d="M203.881 273.072C179.081 184.997 271.662 176.835 311.288 174.037C399.211 167.819 401.26 187.676 393.06 262.121C388.203 306.18 371.386 378.784 334.121 390.727C294.736 403.238 217.804 322.656 203.881 273.072Z" stroke="#9FEA00" stroke-width="0.75" stroke-miterlimit="10"/>
<path d="M202.848 273.617C175.389 183.515 274.087 175.047 312.639 172.528C406.266 166.409 404.119 186.129 394.327 262.986C388.73 307.035 370.498 383.623 331.673 394.708C292.434 405.917 217.375 321.35 202.848 273.617Z" stroke="#9FEA00" stroke-width="0.75" stroke-miterlimit="10"/>
<path d="M201.814 274.153C171.571 182.098 276.518 173.28 313.987 171.028C413.322 165.059 407.033 184.598 395.604 263.843C389.245 307.89 369.631 388.532 329.246 398.741C290.095 408.65 216.933 320.063 201.814 274.153Z" stroke="#9FEA00" stroke-width="0.75" stroke-miterlimit="10"/>
<path d="M200.848 274.698C167.67 180.733 279.004 171.55 315.416 169.509C420.451 163.757 410.064 183.071 396.949 264.698C389.856 308.756 368.823 393.528 326.866 402.8C287.755 411.395 216.419 318.809 200.848 274.698Z" stroke="#9FEA00" stroke-width="0.75" stroke-miterlimit="10"/>
<path d="M398.233 265.584C390.458 309.63 367.984 398.538 324.463 406.806C285.406 414.234 215.873 317.589 199.848 275.198C163.598 179.417 281.479 169.738 316.795 167.993C427.531 162.556 413.081 181.59 398.233 265.584Z" stroke="#9FEA00" stroke-width="0.75" stroke-miterlimit="10"/>
<path d="M305.377 181.49L367.623 232.988L394.586 315.713L353.155 370.908L272.899 370.049L207.881 320.584L206.058 206.965L305.377 181.49Z" stroke="#EEEEEE" stroke-width="0.5" stroke-miterlimit="10"/>
<path d="M305.378 181.489L207.883 320.574" stroke="#EEEEEE" stroke-width="0.5" stroke-miterlimit="10"/>
<path d="M367.622 232.988L250.008 260.139" stroke="#EEEEEE" stroke-width="0.5" stroke-miterlimit="10"/>
<path d="M250.009 260.139L394.586 315.713L272.899 370.049L250.009 260.139ZM250.009 260.139L206.058 206.965" stroke="#EEEEEE" stroke-width="0.5" stroke-miterlimit="10"/>
<path d="M250.008 260.139L353.153 370.908" stroke="#EEEEEE" stroke-width="0.5" stroke-miterlimit="10"/>
<path d="M394.587 315.713L207.883 320.574" stroke="#EEEEEE" stroke-width="0.5" stroke-miterlimit="10"/>
<path d="M272.891 370.047L305.378 181.489" stroke="#EEEEEE" stroke-width="0.5" stroke-miterlimit="10"/>
<path style="mix-blend-mode:screen" d="M262.627 411.165C256.825 409.165 250.5 412.247 248.5 418.05C246.5 423.852 249.582 430.177 255.384 432.177C261.187 434.177 267.512 431.095 269.512 425.293C271.512 419.49 268.43 413.165 262.627 411.165Z" fill="url(#paint1_radial_2664_74825)"/>
<path style="mix-blend-mode:screen" d="M269.251 132.904C264.424 129.114 257.438 129.955 253.648 134.782C249.857 139.609 250.698 146.595 255.525 150.385C260.352 154.175 267.338 153.335 271.129 148.508C274.919 143.68 274.078 136.695 269.251 132.904Z" fill="url(#paint2_radial_2664_74825)"/>
<path style="mix-blend-mode:screen" d="M411.018 206.174C413.191 206.503 415.217 207.468 416.841 208.948C418.465 210.428 419.614 212.356 420.143 214.489C420.671 216.622 420.556 218.864 419.81 220.931C419.065 222.998 417.724 224.798 415.956 226.103C414.188 227.408 412.073 228.159 409.878 228.262C407.683 228.366 405.507 227.816 403.624 226.682C401.742 225.549 400.237 223.883 399.302 221.895C398.366 219.907 398.04 217.686 398.366 215.513C398.807 212.597 400.386 209.976 402.759 208.224C405.131 206.473 408.102 205.736 411.018 206.174Z" fill="url(#paint3_radial_2664_74825)"/>
<path style="mix-blend-mode:screen" d="M171.772 205.359C170.772 200.128 165.72 196.697 160.489 197.697C155.257 198.697 151.826 203.749 152.826 208.98C153.826 214.212 158.878 217.643 164.109 216.643C169.341 215.643 172.772 210.591 171.772 205.359Z" fill="url(#paint4_radial_2664_74825)"/>
<path style="mix-blend-mode:screen" d="M412.439 379.555C413.532 379.67 414.567 380.106 415.412 380.808C416.257 381.511 416.875 382.448 417.187 383.502C417.499 384.555 417.492 385.678 417.167 386.728C416.841 387.777 416.211 388.707 415.357 389.398C414.503 390.09 413.464 390.513 412.369 390.614C411.275 390.715 410.175 390.489 409.209 389.965C408.244 389.44 407.455 388.642 406.943 387.669C406.431 386.697 406.219 385.594 406.334 384.501C406.487 383.036 407.217 381.691 408.362 380.764C409.507 379.836 410.974 379.401 412.439 379.555Z" fill="url(#paint5_radial_2664_74825)"/>
<path style="mix-blend-mode:screen" d="M337.643 273.129C338.735 273.244 339.77 273.68 340.615 274.383C341.46 275.085 342.078 276.022 342.39 277.076C342.702 278.13 342.695 279.252 342.37 280.302C342.044 281.351 341.414 282.281 340.56 282.973C339.707 283.664 338.667 284.087 337.572 284.188C336.478 284.289 335.378 284.063 334.412 283.539C333.447 283.015 332.658 282.216 332.146 281.243C331.634 280.271 331.422 279.168 331.537 278.075C331.69 276.61 332.42 275.265 333.565 274.338C334.71 273.41 336.177 272.975 337.643 273.129Z" fill="url(#paint6_radial_2664_74825)"/>
<path style="mix-blend-mode:screen" d="M168.373 180.709C169.466 180.824 170.5 181.26 171.345 181.963C172.19 182.665 172.808 183.603 173.121 184.656C173.433 185.71 173.426 186.832 173.1 187.882C172.774 188.932 172.145 189.861 171.291 190.553C170.437 191.244 169.397 191.667 168.303 191.768C167.208 191.869 166.109 191.643 165.143 191.119C164.177 190.595 163.388 189.796 162.876 188.823C162.365 187.851 162.153 186.749 162.267 185.656C162.421 184.19 163.151 182.845 164.296 181.918C165.441 180.99 166.907 180.555 168.373 180.709Z" fill="url(#paint7_radial_2664_74825)"/>
<path style="mix-blend-mode:screen" d="M303.072 479.674C304.165 479.789 305.2 480.225 306.045 480.927C306.89 481.63 307.507 482.567 307.82 483.621C308.132 484.675 308.125 485.797 307.799 486.847C307.474 487.896 306.844 488.826 305.99 489.518C305.136 490.209 304.096 490.632 303.002 490.733C301.908 490.834 300.808 490.608 299.842 490.084C298.876 489.56 298.088 488.761 297.576 487.788C297.064 486.816 296.852 485.713 296.966 484.62C297.123 483.156 297.853 481.813 298.997 480.886C300.142 479.959 301.607 479.523 303.072 479.674Z" fill="url(#paint8_radial_2664_74825)"/>
<path style="mix-blend-mode:screen" d="M365.9 110.283C366.993 110.398 368.028 110.834 368.873 111.537C369.718 112.239 370.336 113.177 370.648 114.23C370.96 115.284 370.953 116.407 370.627 117.456C370.302 118.506 369.672 119.435 368.818 120.127C367.964 120.819 366.924 121.242 365.83 121.342C364.736 121.443 363.636 121.217 362.67 120.693C361.704 120.169 360.916 119.37 360.404 118.398C359.892 117.425 359.68 116.323 359.795 115.23C359.871 114.504 360.089 113.801 360.437 113.159C360.785 112.518 361.256 111.951 361.823 111.492C362.39 111.033 363.042 110.69 363.741 110.482C364.441 110.275 365.175 110.207 365.9 110.283Z" fill="url(#paint9_radial_2664_74825)"/>
<path style="mix-blend-mode:screen" d="M166.033 406.342C167.126 406.457 168.161 406.893 169.006 407.595C169.851 408.298 170.468 409.235 170.781 410.289C171.093 411.343 171.086 412.465 170.76 413.515C170.435 414.564 169.805 415.494 168.951 416.186C168.097 416.877 167.057 417.3 165.963 417.401C164.869 417.502 163.769 417.276 162.803 416.752C161.837 416.227 161.048 415.429 160.537 414.456C160.025 413.484 159.813 412.381 159.927 411.288C160.081 409.823 160.811 408.478 161.956 407.551C163.101 406.623 164.568 406.188 166.033 406.342Z" fill="url(#paint10_radial_2664_74825)"/>
<defs>
<radialGradient id="paint0_radial_2664_74825" cx="0" cy="0" r="1" gradientUnits="userSpaceOnUse" gradientTransform="translate(293.269 288.526) rotate(-84.0113) scale(89.9903 89.9903)">
<stop stop-color="#A8F800" stop-opacity="0.92"/>
<stop offset="0.13" stop-color="#B3FA1E" stop-opacity="0.85"/>
<stop offset="0.24" stop-color="#8FC915" stop-opacity="0.9"/>
<stop offset="0.34" stop-color="#6C9514"/>
<stop offset="0.45" stop-color="#4E6915"/>
<stop offset="0.55" stop-color="#3B4D14"/>
<stop offset="0.65" stop-color="#283114"/>
<stop offset="0.75" stop-color="#202515"/>
<stop offset="0.83" stop-color="#212517"/>
</radialGradient>
<radialGradient id="paint1_radial_2664_74825" cx="0" cy="0" r="1" gradientUnits="userSpaceOnUse" gradientTransform="translate(259.006 421.671) rotate(-160.981) scale(11.1128 11.1128)">
<stop stop-color="#F2FFD7"/>
<stop offset="0.04" stop-color="#E7FFB5"/>
<stop offset="0.08" stop-color="#DAFF8C"/>
<stop offset="0.12" stop-color="#D1FF71"/>
<stop offset="0.15" stop-color="#CEFF67"/>
<stop offset="0.18" stop-color="#D1FF6F"/>
<stop offset="0.24" stop-color="#C3F25E"/>
<stop offset="0.34" stop-color="#CFF47F" stop-opacity="0.82"/>
<stop offset="0.395833" stop-color="#ADD35D" stop-opacity="0.75"/>
<stop offset="0.47" stop-color="#A2C55A" stop-opacity="0.63"/>
<stop offset="0.63" stop-color="#376669" stop-opacity="0.36"/>
<stop offset="0.6301" stop-color="#4A5532" stop-opacity="0.37"/>
<stop offset="0.81" stop-color="#221D1A" stop-opacity="0.02"/>
<stop offset="0.82" stop-color="#202418" stop-opacity="0.01"/>
</radialGradient>
<radialGradient id="paint2_radial_2664_74825" cx="0" cy="0" r="1" gradientUnits="userSpaceOnUse" gradientTransform="translate(262.388 141.645) rotate(-141.861) scale(11.1128)">
<stop stop-color="#F2FFD7"/>
<stop offset="0.04" stop-color="#E7FFB5"/>
<stop offset="0.08" stop-color="#DAFF8C"/>
<stop offset="0.12" stop-color="#D1FF71"/>
<stop offset="0.15" stop-color="#CEFF67"/>
<stop offset="0.18" stop-color="#D1FF6F"/>
<stop offset="0.24" stop-color="#C3F25E"/>
<stop offset="0.34" stop-color="#CFF47F" stop-opacity="0.82"/>
<stop offset="0.395833" stop-color="#ADD35D" stop-opacity="0.75"/>
<stop offset="0.47" stop-color="#A2C55A" stop-opacity="0.63"/>
<stop offset="0.63" stop-color="#376669" stop-opacity="0.36"/>
<stop offset="0.6301" stop-color="#4A5532" stop-opacity="0.37"/>
<stop offset="0.81" stop-color="#221D1A" stop-opacity="0.02"/>
<stop offset="0.82" stop-color="#202418" stop-opacity="0.01"/>
</radialGradient>
<radialGradient id="paint3_radial_2664_74825" cx="0" cy="0" r="1" gradientUnits="userSpaceOnUse" gradientTransform="translate(409.356 217.162) rotate(-84.0113) scale(11.1126 11.1128)">
<stop stop-color="#F2FFD7"/>
<stop offset="0.04" stop-color="#E7FFB5"/>
<stop offset="0.08" stop-color="#DAFF8C"/>
<stop offset="0.12" stop-color="#D1FF71"/>
<stop offset="0.15" stop-color="#CEFF67"/>
<stop offset="0.18" stop-color="#D1FF6F"/>
<stop offset="0.24" stop-color="#C3F25E"/>
<stop offset="0.34" stop-color="#CFF47F" stop-opacity="0.82"/>
<stop offset="0.395833" stop-color="#ADD35D" stop-opacity="0.75"/>
<stop offset="0.47" stop-color="#A2C55A" stop-opacity="0.63"/>
<stop offset="0.63" stop-color="#376669" stop-opacity="0.36"/>
<stop offset="0.6301" stop-color="#4A5532" stop-opacity="0.37"/>
<stop offset="0.81" stop-color="#221D1A" stop-opacity="0.02"/>
<stop offset="0.82" stop-color="#202418" stop-opacity="0.01"/>
</radialGradient>
<radialGradient id="paint4_radial_2664_74825" cx="0" cy="0" r="1" gradientUnits="userSpaceOnUse" gradientTransform="translate(162.299 207.17) rotate(-100.82) scale(9.6442 9.64421)">
<stop stop-color="#F2FFD7"/>
<stop offset="0.04" stop-color="#E7FFB5"/>
<stop offset="0.08" stop-color="#DAFF8C"/>
<stop offset="0.12" stop-color="#D1FF71"/>
<stop offset="0.15" stop-color="#CEFF67"/>
<stop offset="0.18" stop-color="#D1FF6F"/>
<stop offset="0.24" stop-color="#C3F25E"/>
<stop offset="0.34" stop-color="#CFF47F" stop-opacity="0.82"/>
<stop offset="0.395833" stop-color="#ADD35D" stop-opacity="0.75"/>
<stop offset="0.47" stop-color="#A2C55A" stop-opacity="0.63"/>
<stop offset="0.63" stop-color="#376669" stop-opacity="0.36"/>
<stop offset="0.6301" stop-color="#4A5532" stop-opacity="0.37"/>
<stop offset="0.81" stop-color="#221D1A" stop-opacity="0.02"/>
<stop offset="0.82" stop-color="#202418" stop-opacity="0.01"/>
</radialGradient>
<radialGradient id="paint5_radial_2664_74825" cx="0" cy="0" r="1" gradientUnits="userSpaceOnUse" gradientTransform="translate(411.86 385.081) rotate(-84.0113) scale(5.55639 5.55641)">
<stop stop-color="#F2FFD6"/>
<stop offset="0.04" stop-color="#E7FFB5"/>
<stop offset="0.08" stop-color="#DAFF8C"/>
<stop offset="0.12" stop-color="#D1FF71"/>
<stop offset="0.15" stop-color="#CEFF67"/>
<stop offset="0.18" stop-color="#D1FF6F"/>
<stop offset="0.24" stop-color="#C3F25E"/>
<stop offset="0.34" stop-color="#CFF47F" stop-opacity="0.82"/>
<stop offset="0.395833" stop-color="#ADD35D" stop-opacity="0.75"/>
<stop offset="0.47" stop-color="#A2C55A" stop-opacity="0.63"/>
<stop offset="0.63" stop-color="#376669" stop-opacity="0.36"/>
<stop offset="0.6301" stop-color="#4A5532" stop-opacity="0.37"/>
<stop offset="0.81" stop-color="#221D1A" stop-opacity="0.02"/>
<stop offset="0.82" stop-color="#202418" stop-opacity="0.01"/>
</radialGradient>
<radialGradient id="paint6_radial_2664_74825" cx="0" cy="0" r="1" gradientUnits="userSpaceOnUse" gradientTransform="translate(337.063 278.655) rotate(-84.0113) scale(5.55639)">
<stop stop-color="#F2FFD7"/>
<stop offset="0.04" stop-color="#E7FFB5"/>
<stop offset="0.08" stop-color="#DAFF8C"/>
<stop offset="0.12" stop-color="#D1FF71"/>
<stop offset="0.15" stop-color="#CEFF67"/>
<stop offset="0.18" stop-color="#D1FF6F"/>
<stop offset="0.24" stop-color="#C3F25E"/>
<stop offset="0.34" stop-color="#CFF47F" stop-opacity="0.82"/>
<stop offset="0.395833" stop-color="#ADD35D" stop-opacity="0.75"/>
<stop offset="0.47" stop-color="#A2C55A" stop-opacity="0.63"/>
<stop offset="0.63" stop-color="#376669" stop-opacity="0.36"/>
<stop offset="0.6301" stop-color="#4A5532" stop-opacity="0.37"/>
<stop offset="0.81" stop-color="#221D1A" stop-opacity="0.02"/>
<stop offset="0.82" stop-color="#202418" stop-opacity="0.01"/>
</radialGradient>
<radialGradient id="paint7_radial_2664_74825" cx="0" cy="0" r="1" gradientUnits="userSpaceOnUse" gradientTransform="translate(167.793 186.235) rotate(-84.0113) scale(5.55639 5.55639)">
<stop stop-color="#F2FFD7"/>
<stop offset="0.04" stop-color="#E7FFB5"/>
<stop offset="0.08" stop-color="#DAFF8C"/>
<stop offset="0.12" stop-color="#D1FF71"/>
<stop offset="0.15" stop-color="#CEFF67"/>
<stop offset="0.18" stop-color="#D1FF6F"/>
<stop offset="0.24" stop-color="#C3F25E"/>
<stop offset="0.34" stop-color="#CFF47F" stop-opacity="0.82"/>
<stop offset="0.395833" stop-color="#ADD35D" stop-opacity="0.75"/>
<stop offset="0.47" stop-color="#A2C55A" stop-opacity="0.63"/>
<stop offset="0.63" stop-color="#376669" stop-opacity="0.36"/>
<stop offset="0.6301" stop-color="#4A5532" stop-opacity="0.37"/>
<stop offset="0.81" stop-color="#221D1A" stop-opacity="0.02"/>
<stop offset="0.82" stop-color="#202418" stop-opacity="0.01"/>
</radialGradient>
<radialGradient id="paint8_radial_2664_74825" cx="0" cy="0" r="1" gradientUnits="userSpaceOnUse" gradientTransform="translate(302.492 485.2) rotate(-84.0113) scale(5.55639)">
<stop stop-color="#F2FFD7"/>
<stop offset="0.04" stop-color="#E7FFB5"/>
<stop offset="0.08" stop-color="#DAFF8C"/>
<stop offset="0.12" stop-color="#D1FF71"/>
<stop offset="0.15" stop-color="#CEFF67"/>
<stop offset="0.18" stop-color="#D1FF6F"/>
<stop offset="0.24" stop-color="#C3F25E"/>
<stop offset="0.34" stop-color="#CFF47F" stop-opacity="0.82"/>
<stop offset="0.395833" stop-color="#ADD35D" stop-opacity="0.75"/>
<stop offset="0.47" stop-color="#A2C55A" stop-opacity="0.63"/>
<stop offset="0.63" stop-color="#376669" stop-opacity="0.36"/>
<stop offset="0.6301" stop-color="#4A5532" stop-opacity="0.37"/>
<stop offset="0.81" stop-color="#221D1A" stop-opacity="0.02"/>
<stop offset="0.82" stop-color="#202418" stop-opacity="0.01"/>
</radialGradient>
<radialGradient id="paint9_radial_2664_74825" cx="0" cy="0" r="1" gradientUnits="userSpaceOnUse" gradientTransform="translate(365.321 115.81) rotate(-84.0113) scale(5.55639)">
<stop stop-color="#F2FFD7"/>
<stop offset="0.04" stop-color="#E7FFB5"/>
<stop offset="0.08" stop-color="#DAFF8C"/>
<stop offset="0.12" stop-color="#D1FF71"/>
<stop offset="0.15" stop-color="#CEFF67"/>
<stop offset="0.18" stop-color="#D1FF6F"/>
<stop offset="0.24" stop-color="#C3F25E"/>
<stop offset="0.34" stop-color="#CFF47F" stop-opacity="0.82"/>
<stop offset="0.395833" stop-color="#ADD35D" stop-opacity="0.75"/>
<stop offset="0.47" stop-color="#A2C55A" stop-opacity="0.63"/>
<stop offset="0.63" stop-color="#376669" stop-opacity="0.36"/>
<stop offset="0.6301" stop-color="#4A5532" stop-opacity="0.37"/>
<stop offset="0.81" stop-color="#221D1A" stop-opacity="0.02"/>
<stop offset="0.82" stop-color="#202418" stop-opacity="0.01"/>
</radialGradient>
<radialGradient id="paint10_radial_2664_74825" cx="0" cy="0" r="1" gradientUnits="userSpaceOnUse" gradientTransform="translate(165.453 411.868) rotate(-84.0113) scale(5.55639)">
<stop stop-color="#F2FFD7"/>
<stop offset="0.04" stop-color="#E7FFB5"/>
<stop offset="0.08" stop-color="#DAFF8C"/>
<stop offset="0.12" stop-color="#D1FF71"/>
<stop offset="0.15" stop-color="#CEFF67"/>
<stop offset="0.18" stop-color="#D1FF6F"/>
<stop offset="0.24" stop-color="#C3F25E"/>
<stop offset="0.34" stop-color="#CFF47F" stop-opacity="0.82"/>
<stop offset="0.395833" stop-color="#ADD35D" stop-opacity="0.75"/>
<stop offset="0.47" stop-color="#A2C55A" stop-opacity="0.63"/>
<stop offset="0.63" stop-color="#376669" stop-opacity="0.36"/>
<stop offset="0.6301" stop-color="#4A5532" stop-opacity="0.37"/>
<stop offset="0.81" stop-color="#221D1A" stop-opacity="0.02"/>
<stop offset="0.82" stop-color="#202418" stop-opacity="0.01"/>
</radialGradient>
</defs>
</svg>
