<svg width="70" height="70" viewBox="0 0 70 70" fill="none" xmlns="http://www.w3.org/2000/svg">
<path d="M44.615 22.4297V27.0518L38.1289 23.6851V35.3829L67.0007 50.5045V33.671L44.615 22.4297Z" fill="#7DB704"/>
<path d="M31.8717 19.1777V35.3835L3 50.5051V33.6717L31.8717 19.1777Z" fill="#171717"/>
<path d="M3 33.6719L31.8717 48.7935V64.9993L3 50.5054V33.6719Z" fill="#7DB704"/>
<path d="M67.0007 33.6719L38.1289 48.7935V64.9993L67.0007 50.5054V33.6719Z" fill="#171717"/>
<path d="M46.3359 19.6351L38.3574 15.5836V7.70898L46.3359 11.7604V19.6351Z" fill="#7DB704"/>
<path d="M55.2898 11.4181L50.3535 8.90739V4L55.2898 6.51076V11.4181Z" fill="#7DB704"/>
<path d="M58.6774 25.8548L51.9043 22.374V15.6406L58.6774 19.1214V25.8548Z" fill="#7DB704"/>
</svg>
