<svg width="17" height="28" viewBox="0 0 17 28" fill="none" xmlns="http://www.w3.org/2000/svg">
<path fill-rule="evenodd" clip-rule="evenodd" d="M8.54943 27.2832C8.30081 27.2832 8.06237 27.1818 7.88656 27.0014C7.71076 26.821 7.61199 26.5763 7.61199 26.3211L7.61199 3.6289L1.71365 9.68439C1.53763 9.86505 1.29888 9.96654 1.04995 9.96654C0.80101 9.96654 0.562268 9.86505 0.386243 9.68439C0.210218 9.50373 0.111328 9.25871 0.111328 9.00322C0.111328 8.74773 0.210218 8.5027 0.386243 8.32205L7.88572 0.625212C7.9728 0.535614 8.07625 0.464529 8.19014 0.416027C8.30403 0.367523 8.42612 0.342558 8.54943 0.342558C8.67273 0.342558 8.79483 0.367523 8.90872 0.416027C9.0226 0.464529 9.12605 0.535614 9.21313 0.625212L16.7126 8.32205C16.8886 8.5027 16.9875 8.74773 16.9875 9.00322C16.9875 9.25871 16.8886 9.50373 16.7126 9.68439C16.5366 9.86505 16.2978 9.96654 16.0489 9.96654C15.8 9.96654 15.5612 9.86505 15.3852 9.68439L9.48686 3.6289L9.48686 26.3211C9.48686 26.5763 9.3881 26.821 9.2123 27.0014C9.03649 27.1818 8.79805 27.2832 8.54943 27.2832Z" fill="#171717"/>
</svg>
