<svg width="302" height="77" viewBox="0 0 302 77" fill="none" xmlns="http://www.w3.org/2000/svg">
<path d="M92.2031 0.5L92.2043 1.43051e-06L92.0232 -0.000432849L91.8839 0.115197L92.2031 0.5ZM300.702 1.5C300.978 1.50066 301.202 1.27734 301.203 1.0012C301.204 0.725057 300.98 0.500664 300.704 0.500001L300.702 1.5ZM0.883865 75.6152L0.499062 75.9345L1.13758 76.7041L1.52238 76.3848L0.883865 75.6152ZM92.2019 0.999999L300.702 1.5L300.704 0.500001L92.2043 1.43051e-06L92.2019 0.999999ZM1.52238 76.3848L92.5224 0.884803L91.8839 0.115197L0.883865 75.6152L1.52238 76.3848Z" fill="#404040"/>
</svg>
