<svg width="302" height="77" viewBox="0 0 302 77" fill="none" xmlns="http://www.w3.org/2000/svg">
<path d="M92.002 0.5L92.0032 1.43051e-06L91.8221 -0.000432849L91.6827 0.115197L92.002 0.5ZM300.501 1.5C300.777 1.50066 301.001 1.27734 301.002 1.0012C301.003 0.725057 300.779 0.500664 300.503 0.500001L300.501 1.5ZM0.682694 75.6152L0.297891 75.9345L0.93641 76.7041L1.32121 76.3848L0.682694 75.6152ZM92.0008 0.999999L300.501 1.5L300.503 0.500001L92.0032 1.43051e-06L92.0008 0.999999ZM1.32121 76.3848L92.3212 0.884803L91.6827 0.115197L0.682694 75.6152L1.32121 76.3848Z" fill="#9FEA00"/>
</svg>
