<svg width="71" height="39" viewBox="0 0 71 39" fill="none" xmlns="http://www.w3.org/2000/svg">
<path d="M32.6922 19.4994L22.9844 29.4188C20.8906 26.7091 19.6533 23.2252 19.6533 19.4994C19.6533 15.7736 20.8906 12.3381 22.9844 9.58008L32.6922 19.4994Z" fill="#A1A1A1"/>
<path d="M35.4995 22.3555L45.2549 32.2748C42.5424 34.4039 39.1637 35.6619 35.4995 35.6619C31.8353 35.6619 28.4566 34.4039 25.7441 32.2748L35.4995 22.3555Z" fill="#A1A1A1"/>
<path d="M35.4995 16.6443L25.7441 6.72499C28.4566 4.59595 31.8353 3.33789 35.4995 3.33789C39.1637 3.33789 42.5424 4.59595 45.2549 6.72499L35.4995 16.6443Z" fill="#A1A1A1"/>
<path d="M51.3941 19.4994C51.3941 23.2252 50.1568 26.6607 48.063 29.4188L38.3076 19.4994L48.063 9.58008C50.1568 12.3381 51.3941 15.7736 51.3941 19.4994Z" fill="#A1A1A1"/>
<path d="M35.4999 17.129C35.3571 17.129 35.2619 17.0806 35.1667 16.9839L19.2726 0.822581C19.0823 0.629032 19.0823 0.33871 19.2726 0.145161C19.463 -0.0483871 19.7485 -0.0483871 19.9389 0.145161L35.4999 15.9677L51.0609 0.145161C51.2512 -0.0483871 51.5367 -0.0483871 51.7271 0.145161C51.9174 0.33871 51.9174 0.629032 51.7271 0.822581L35.833 16.9839C35.7378 17.0806 35.6426 17.129 35.4999 17.129Z" fill="#EAEAEA"/>
<path d="M19.6058 39.0001C19.463 39.0001 19.3678 38.9517 19.2726 38.855C19.0823 38.6614 19.0823 38.3711 19.2726 38.1775L35.1667 22.0163C35.3571 21.8227 35.6426 21.8227 35.833 22.0163L51.7271 38.1775C51.9174 38.3711 51.9174 38.6614 51.7271 38.855C51.5367 39.0485 51.2512 39.0485 51.0609 38.855L35.4999 23.0324L19.9389 38.855C19.8437 38.9517 19.7485 39.0001 19.6058 39.0001Z" fill="#EAEAEA"/>
<path d="M54.202 36.1458C54.0592 36.1458 53.9641 36.0974 53.8689 36.0006L37.9748 19.8393C37.8796 19.7426 37.832 19.6458 37.832 19.5006C37.832 19.3555 37.8796 19.2587 37.9748 19.1619L53.8689 3.00063C54.0592 2.80708 54.3448 2.80708 54.5351 3.00063C54.7255 3.19418 54.7255 3.4845 54.5351 3.67805L38.9741 19.5006L54.5351 35.3232C54.7255 35.5168 54.7255 35.8071 54.5351 36.0006C54.4399 36.0974 54.3448 36.1458 54.202 36.1458Z" fill="#EAEAEA"/>
<path d="M16.7981 36.1458C16.6554 36.1458 16.5602 36.0974 16.465 36.0006C16.2747 35.8071 16.2747 35.5168 16.465 35.3232L32.026 19.5006L16.465 3.67805C16.2747 3.4845 16.2747 3.19418 16.465 3.00063C16.6554 2.80708 16.9409 2.80708 17.1312 3.00063L33.0254 19.1619C33.1205 19.2587 33.1681 19.3555 33.1681 19.5006C33.1681 19.6458 33.1205 19.7426 33.0254 19.8393L17.1312 36.0006C17.0361 36.0974 16.9409 36.1458 16.7981 36.1458Z" fill="#EAEAEA"/>
<path d="M25.4591 12.7243H15.8465C15.7037 12.7243 15.6086 12.6759 15.5134 12.5791L11.5161 8.51462H5.56767C5.28215 8.51462 5.0918 8.32107 5.0918 8.03075C5.0918 7.74042 5.28215 7.54688 5.56767 7.54688H11.6588C11.8016 7.54688 11.8968 7.59526 11.9919 7.69204L15.9892 11.7566H25.4115C25.697 11.7566 25.8874 11.9501 25.8874 12.2404C25.935 12.5307 25.7446 12.7243 25.4591 12.7243Z" fill="#EAEAEA"/>
<path d="M2.28418 18.3873C3.5457 18.3873 4.56837 17.3475 4.56837 16.0648C4.56837 14.782 3.5457 13.7422 2.28418 13.7422C1.02266 13.7422 0 14.782 0 16.0648C0 17.3475 1.02266 18.3873 2.28418 18.3873Z" fill="#EAEAEA"/>
<path d="M5.56739 10.3541C6.8289 10.3541 7.85157 9.31429 7.85157 8.03157C7.85157 6.74884 6.8289 5.70898 5.56739 5.70898C4.30587 5.70898 3.2832 6.74884 3.2832 8.03157C3.2832 9.31429 4.30587 10.3541 5.56739 10.3541Z" fill="#EAEAEA"/>
<path d="M11.7064 30.8708H5.56767C5.28215 30.8708 5.0918 30.6772 5.0918 30.3869C5.0918 30.0966 5.28215 29.903 5.56767 29.903H11.4685L15.4658 25.8385C15.561 25.7417 15.6561 25.6934 15.7989 25.6934H25.8874C26.1729 25.6934 26.3632 25.8869 26.3632 26.1772C26.3632 26.4676 26.1729 26.6611 25.8874 26.6611H16.0368L12.0395 30.7256C11.9443 30.8224 11.8016 30.8708 11.7064 30.8708Z" fill="#EAEAEA"/>
<path d="M5.56739 32.7096C6.8289 32.7096 7.85157 31.6698 7.85157 30.387C7.85157 29.1043 6.8289 28.0645 5.56739 28.0645C4.30587 28.0645 3.2832 29.1043 3.2832 30.387C3.2832 31.6698 4.30587 32.7096 5.56739 32.7096Z" fill="#EAEAEA"/>
<path d="M25.8874 16.548H3.28349C2.99797 16.548 2.80762 16.3545 2.80762 16.0641C2.80762 15.7738 2.99797 15.5803 3.28349 15.5803H25.6494L27.1722 14.0319C27.3626 13.8383 27.6481 13.8383 27.8384 14.0319C28.0288 14.2254 28.0288 14.5158 27.8384 14.7093L26.1729 16.4028C26.1253 16.4996 25.9826 16.548 25.8874 16.548Z" fill="#EAEAEA"/>
<path d="M2.28418 24.6764C3.5457 24.6764 4.56837 23.6366 4.56837 22.3538C4.56837 21.0711 3.5457 20.0312 2.28418 20.0312C1.02266 20.0312 0 21.0711 0 22.3538C0 23.6366 1.02266 24.6764 2.28418 24.6764Z" fill="#EAEAEA"/>
<path d="M27.5053 24.5324C27.3626 24.5324 27.2674 24.484 27.1722 24.3872L25.6494 22.8388H3.28349C2.99797 22.8388 2.80762 22.6453 2.80762 22.355C2.80762 22.0646 2.99797 21.8711 3.28349 21.8711H25.8398C25.9825 21.8711 26.0777 21.9195 26.1729 22.0163L27.8384 23.7098C28.0288 23.9034 28.0288 24.1937 27.8384 24.3872C27.7909 24.484 27.6481 24.5324 27.5053 24.5324Z" fill="#EAEAEA"/>
<path d="M55.2005 12.7243H45.5403C45.2548 12.7243 45.0645 12.5307 45.0645 12.2404C45.0645 11.9501 45.2548 11.7566 45.5403 11.7566H54.9626L58.9599 7.69204C59.0551 7.59526 59.1502 7.54688 59.293 7.54688H65.3842C65.6697 7.54688 65.86 7.74042 65.86 8.03075C65.86 8.32107 65.6697 8.51462 65.3842 8.51462H59.4834L55.486 12.5791C55.4384 12.6759 55.2957 12.7243 55.2005 12.7243Z" fill="#EAEAEA"/>
<path d="M68.7158 18.3873C69.9773 18.3873 71 17.3475 71 16.0648C71 14.782 69.9773 13.7422 68.7158 13.7422C67.4543 13.7422 66.4316 14.782 66.4316 16.0648C66.4316 17.3475 67.4543 18.3873 68.7158 18.3873Z" fill="#EAEAEA"/>
<path d="M65.4316 10.3541C66.6932 10.3541 67.7158 9.31429 67.7158 8.03157C67.7158 6.74884 66.6932 5.70898 65.4316 5.70898C64.1701 5.70898 63.1475 6.74884 63.1475 8.03157C63.1475 9.31429 64.1701 10.3541 65.4316 10.3541Z" fill="#EAEAEA"/>
<path d="M65.432 30.8708H59.3409C59.1981 30.8708 59.1029 30.8224 59.0078 30.7256L55.0105 26.6611H45.0647C44.7792 26.6611 44.5889 26.4676 44.5889 26.1772C44.5889 25.8869 44.7792 25.6934 45.0647 25.6934H55.2008C55.3436 25.6934 55.4387 25.7417 55.5339 25.8385L59.5312 29.903H65.432C65.7176 29.903 65.9079 30.0966 65.9079 30.3869C65.9079 30.6772 65.7176 30.8708 65.432 30.8708Z" fill="#EAEAEA"/>
<path d="M65.4316 32.7096C66.6932 32.7096 67.7158 31.6698 67.7158 30.387C67.7158 29.1043 66.6932 28.0645 65.4316 28.0645C64.1701 28.0645 63.1475 29.1043 63.1475 30.387C63.1475 31.6698 64.1701 32.7096 65.4316 32.7096Z" fill="#EAEAEA"/>
<path d="M67.7163 16.548H45.16C45.0172 16.548 44.922 16.4996 44.8269 16.4028L43.1613 14.7093C42.971 14.5158 42.971 14.2254 43.1613 14.0319C43.3517 13.8383 43.6372 13.8383 43.8275 14.0319L45.3503 15.5803H67.7163C68.0018 15.5803 68.1922 15.7738 68.1922 16.0641C68.1922 16.3061 68.0018 16.548 67.7163 16.548Z" fill="#EAEAEA"/>
<path d="M68.7158 24.6764C69.9773 24.6764 71 23.6366 71 22.3538C71 21.0711 69.9773 20.0312 68.7158 20.0312C67.4543 20.0312 66.4316 21.0711 66.4316 22.3538C66.4316 23.6366 67.4543 24.6764 68.7158 24.6764Z" fill="#EAEAEA"/>
<path d="M43.4944 24.5324C43.3517 24.5324 43.2565 24.484 43.1613 24.3872C42.971 24.1937 42.971 23.9034 43.1613 23.7098L44.8269 22.0163C44.922 21.9195 45.0172 21.8711 45.16 21.8711H67.7163C68.0018 21.8711 68.1922 22.0646 68.1922 22.355C68.1922 22.6453 68.0018 22.8388 67.7163 22.8388H45.3503L43.8275 24.3872C43.7324 24.484 43.5896 24.5324 43.4944 24.5324Z" fill="#EAEAEA"/>
</svg>
