<svg width="57" height="61" viewBox="0 0 57 61" fill="none" xmlns="http://www.w3.org/2000/svg">
<path d="M54.9472 28.2612H41.5804C40.4347 28.2612 39.4799 29.2242 39.4799 30.3315V33.3646H32.3191V30.8129H35.1834C36.3291 30.8129 37.2362 29.85 37.2362 28.7427V15.262C37.2362 14.1066 36.3291 13.1436 35.1834 13.1436H33.2739V9.91792C34.2764 9.67719 35.0402 8.76243 35.0402 7.70324C35.0402 6.45146 34.0377 5.44041 32.7965 5.44041C31.5553 5.44041 30.5528 6.45146 30.5528 7.70324C30.5528 8.81058 31.3166 9.72534 32.3191 9.91792V13.1436H29.1206V4.52565C30.1231 4.28492 30.8869 3.37017 30.8869 2.31097C30.8869 1.01105 29.8844 0 28.6432 0C27.402 0 26.3995 1.01105 26.3995 2.26283C26.3995 3.37017 27.1633 4.28492 28.1658 4.47751V13.0955H25.1583V9.86977C26.1608 9.62905 26.9246 8.71429 26.9246 7.65509C26.9246 6.40332 25.9221 5.39227 24.6809 5.39227C23.4397 5.39227 22.4372 6.40332 22.4372 7.65509C22.4372 8.76243 23.201 9.67719 24.2035 9.86977V13.0955H21.8643C20.7186 13.0955 19.8116 14.0584 19.8116 15.2139V28.6946C19.8116 29.85 20.7663 30.7648 21.8643 30.7648H24.8241V33.3646H17.5201V30.3315C17.5201 29.176 16.6131 28.2612 15.4196 28.2612H2.05276C0.907035 28.2612 0 29.2242 0 30.3315V43.8122C0 44.9676 0.907035 45.8824 2.05276 45.8824H15.4196C16.5653 45.8824 17.5201 44.9676 17.5201 43.8122V40.9234H24.8241V43.3307H21.8166C20.6709 43.3307 19.7638 44.2455 19.7638 45.4009V58.8816C19.7638 60.0371 20.7186 60.9519 21.8166 60.9519H35.1834C36.3291 60.9519 37.2362 59.989 37.2362 58.8816V45.4009C37.2362 44.2455 36.3291 43.3307 35.1834 43.3307H32.3191V40.9234H39.4799V43.8122C39.4799 44.9676 40.4347 45.8824 41.5804 45.8824H54.9472C56.093 45.8824 57 44.9676 57 43.8122V30.3315C57 29.176 56.093 28.2612 54.9472 28.2612ZM31.4598 7.70324C31.4598 6.98106 32.0327 6.40332 32.7487 6.40332C33.4648 6.40332 34.0377 6.98106 34.0377 7.70324C34.0377 8.42541 33.4648 9.00316 32.7487 9.00316C32.0327 9.00316 31.4598 8.42541 31.4598 7.70324ZM27.3065 2.26283C27.3065 1.54065 27.8794 0.962905 28.6432 0.962905C29.3593 0.962905 29.9322 1.54065 29.9322 2.26283C29.9322 2.985 29.3593 3.56275 28.6432 3.56275C27.8794 3.61089 27.3065 2.985 27.3065 2.26283ZM23.3442 7.70324C23.3442 6.98106 23.9171 6.40332 24.6332 6.40332C25.3492 6.40332 25.9221 6.98106 25.9221 7.70324C25.9221 8.42541 25.3492 9.00316 24.6332 9.00316C23.9171 9.00316 23.3442 8.42541 23.3442 7.70324ZM11.1231 37.4088C11.1231 38.5643 10.1683 39.4791 9.07035 39.4791H8.44975C7.30402 39.4791 6.34925 38.5643 6.34925 37.4088V36.783C6.34925 35.6275 7.25628 34.7127 8.44975 34.7127H9.07035C10.2161 34.7127 11.1231 35.6275 11.1231 36.783V37.4088ZM24.8241 39.9605H17.5201V37.6496H24.8241V39.9605ZM24.8241 36.6867H17.5201V34.3757H24.8241V36.6867ZM26.1131 21.6654C26.1131 20.5099 27.0201 19.5951 28.1658 19.5951H28.7864C29.9322 19.5951 30.8869 20.5099 30.8869 21.6654V22.2912C30.8869 23.4467 29.9799 24.4096 28.7864 24.4096H28.1658C27.0201 24.4096 26.1131 23.4467 26.1131 22.2912V21.6654ZM25.7789 30.8129H28.0704V33.4128H25.7789V30.8129ZM25.7789 34.3275H28.0704V36.6385H25.7789V34.3275ZM25.7789 37.6496H28.0704V39.9605H25.7789V37.6496ZM25.7789 40.9234H28.0704V43.3307H25.7789V40.9234ZM30.8869 52.4783C30.8869 53.6338 29.9799 54.5485 28.7864 54.5485H28.1658C27.0201 54.5485 26.1131 53.6338 26.1131 52.4783V51.8524C26.1131 50.6969 27.0201 49.734 28.1658 49.734H28.7864C29.9322 49.734 30.8869 50.6969 30.8869 51.8524V52.4783ZM31.3643 43.3307H29.0729V40.9234H31.3643V43.3307ZM31.3643 39.9605H29.0729V37.6496H31.3643V39.9605ZM31.3643 36.6867H29.0729V34.3757H31.3643V36.6867ZM31.3643 33.3646H29.0729V30.8129H31.3643V33.3646ZM39.4799 39.9605H32.3191V37.6496H39.4799V39.9605ZM39.4799 36.6867H32.3191V34.3757H39.4799V36.6867ZM50.6508 37.4088C50.6508 38.5643 49.7437 39.4791 48.5502 39.4791H47.9296C46.7839 39.4791 45.8291 38.5643 45.8291 37.4088V36.783C45.8291 35.6275 46.7839 34.7127 47.9296 34.7127H48.5502C49.696 34.7127 50.6508 35.6275 50.6508 36.783V37.4088Z" fill="#EAEAEA"/>
<path d="M31.1263 47.4707H25.875C24.7293 47.4707 23.8223 48.4336 23.8223 49.5891V54.8369C23.8223 55.9924 24.777 56.9072 25.875 56.9072H31.1263C32.272 56.9072 33.179 55.9924 33.179 54.8369V49.5891C33.179 48.3855 32.272 47.4707 31.1263 47.4707ZM30.8876 52.4778C30.8876 53.6333 29.9806 54.5481 28.7871 54.5481H28.1665C27.0208 54.5481 26.1137 53.6333 26.1137 52.4778V51.8519C26.1137 50.6964 27.0208 49.7335 28.1665 49.7335H28.7871C29.9328 49.7335 30.8876 50.6964 30.8876 51.8519V52.4778Z" fill="#A1A1A1"/>
<path d="M32.2729 17.6215C31.9387 17.3808 31.5091 17.2363 31.0794 17.2363H25.8282C24.6824 17.2363 23.7754 18.1992 23.7754 19.3066V24.6025C23.7754 25.758 24.7302 26.7209 25.8282 26.7209H31.0794C32.2251 26.7209 33.1322 25.8062 33.1322 24.6025V19.3066C33.1799 18.6325 32.8457 18.0067 32.2729 17.6215ZM30.8885 22.2916C30.8885 23.4471 29.9814 24.41 28.788 24.41H28.1674C27.0216 24.41 26.1146 23.4471 26.1146 22.2916V21.6657C26.1146 20.5102 27.0216 19.5954 28.1674 19.5954H28.788C29.9337 19.5954 30.8885 20.5102 30.8885 21.6657V22.2916Z" fill="#A1A1A1"/>
<path d="M11.3626 32.3535H6.11136C4.96563 32.3535 4.05859 33.2683 4.05859 34.4238V39.6716C4.05859 40.8271 4.96563 41.7418 6.11136 41.7418H11.3626C12.5083 41.7418 13.4631 40.8271 13.4631 39.6716V34.4238C13.4631 33.2683 12.5083 32.3535 11.3626 32.3535ZM11.1239 37.4088C11.1239 38.5642 10.1691 39.479 9.07116 39.479H8.45055C7.30483 39.479 6.35005 38.5642 6.35005 37.4088V36.7829C6.35005 35.6274 7.25709 34.7126 8.45055 34.7126H9.07116C10.2169 34.7126 11.1239 35.6274 11.1239 36.7829V37.4088Z" fill="#A1A1A1"/>
<path d="M50.842 32.3535H45.5907C44.445 32.3535 43.4902 33.2683 43.4902 34.4238V39.6716C43.4902 40.8271 44.445 41.7418 45.5907 41.7418H50.842C51.9877 41.7418 52.9425 40.8271 52.9425 39.6716V34.4238C52.9425 33.2683 51.9877 32.3535 50.842 32.3535ZM50.651 37.4088C50.651 38.5642 49.744 39.479 48.5505 39.479H47.9299C46.7842 39.479 45.8294 38.5642 45.8294 37.4088V36.7829C45.8294 35.6274 46.7842 34.7126 47.9299 34.7126H48.5505C49.6963 34.7126 50.651 35.6274 50.651 36.7829V37.4088Z" fill="#A1A1A1"/>
</svg>
