<svg width="67" height="53" viewBox="0 0 67 53" fill="none" xmlns="http://www.w3.org/2000/svg">
<path d="M64.711 35.1605C63.6142 35.1605 62.7082 35.9217 62.5174 36.9208H52.837C53.0754 35.6363 53.2185 34.3517 53.2185 32.972C53.2185 31.8778 53.1231 30.8311 52.9801 29.7844H62.5174C62.7559 30.7835 63.6619 31.5447 64.711 31.5447C65.9509 31.5447 66.9523 30.5456 66.9523 29.3086C66.9523 28.0717 65.9509 27.0725 64.711 27.0725C63.6142 27.0725 62.7082 27.8338 62.5174 28.8329H52.9324V29.4514C52.4078 26.6919 51.3587 24.0752 49.8327 21.8392L56.3658 15.3212C56.7473 15.5591 57.1765 15.7018 57.6057 15.7018C58.1779 15.7018 58.7502 15.4639 59.227 15.0357C60.0854 14.1794 60.0854 12.7045 59.227 11.8481C58.7979 11.4199 58.2256 11.1821 57.6057 11.1821C56.9858 11.1821 56.4135 11.4199 55.9843 11.8481C55.2214 12.6094 55.126 13.7988 55.6982 14.6551L49.2605 21.0779C48.6406 20.2216 47.9253 19.4128 47.1623 18.6991L49.8327 16.0348C50.2142 16.2727 50.5957 16.4155 51.0726 16.4155C51.6925 16.4155 52.2648 16.1776 52.6463 15.7494C53.5046 14.893 53.5046 13.4181 52.6463 12.5618C52.2171 12.1336 51.6448 11.8957 51.0726 11.8957C50.4527 11.8957 49.8804 12.1336 49.4512 12.5618C48.6883 13.323 48.5929 14.5124 49.1651 15.3688L46.3993 18.0331C45.6363 17.367 44.8256 16.7485 43.9673 16.2252L50.5957 9.61204C50.9772 9.84993 51.4064 9.99265 51.8356 9.99265C52.4078 9.99265 52.9801 9.75477 53.4569 9.32659C54.3153 8.47021 54.3153 6.99535 53.4569 6.13897C52.5986 5.2826 51.1203 5.2826 50.2619 6.13897C49.4989 6.9002 49.4036 8.0896 49.9758 8.94598L43.1566 15.7018C41.5829 14.7979 39.8185 14.0842 38.0064 13.656V4.42623C39.0078 4.18835 39.7708 3.2844 39.7708 2.23772C39.7708 1.00073 38.7694 0.00163154 37.5295 0.00163154C36.2897 -0.0459448 35.2883 0.953158 35.2883 2.19014C35.2883 3.2844 36.0512 4.18835 37.0527 4.37865V13.4181C36.0512 13.2278 35.0498 13.1327 34.0484 13.0851V9.51689C35.0498 9.27901 35.8128 8.37506 35.8128 7.32838C35.8128 6.0914 34.8114 5.0923 33.5715 5.0923C32.3317 5.0923 31.3302 6.0914 31.3302 7.32838C31.3302 8.42264 32.0932 9.32659 33.0947 9.51689V13.0375C31.9979 13.0375 30.9488 13.1327 29.8996 13.323V4.42623C30.9011 4.18835 31.6641 3.2844 31.6641 2.23772C31.6641 1.00073 30.6626 0.00163154 29.4228 0.00163154C28.1829 -0.0459448 27.1815 0.953158 27.1815 2.19014C27.1815 3.2844 27.9445 4.18835 28.9459 4.37865V13.5133C26.8954 13.9415 24.9402 14.7503 23.1758 15.7494L16.452 9.04113C17.0242 8.18476 16.9288 6.99535 16.1658 6.23413C15.3075 5.37775 13.8292 5.37775 12.9708 6.23413C12.1125 7.0905 12.1125 8.56537 12.9708 9.42174C13.4 9.84993 13.9722 10.0878 14.5922 10.0878C15.0214 10.0878 15.4505 9.94508 15.832 9.7072L22.4128 16.2727C21.5544 16.8436 20.7438 17.4146 19.9808 18.1282L17.2626 15.4164C17.8349 14.56 17.7395 13.3706 16.9765 12.6094C16.5473 12.1812 15.9751 11.9433 15.3552 11.9433C14.7352 11.9433 14.163 12.1812 13.7338 12.6094C12.8754 13.4657 12.8754 14.9406 13.7338 15.797C14.163 16.2252 14.7352 16.463 15.3552 16.463C15.7843 16.463 16.2135 16.3203 16.595 16.0824L19.2655 18.7467C18.5025 19.5079 17.7872 20.3167 17.1673 21.1731L10.6818 14.7503C11.2541 13.8939 11.1587 12.7045 10.3957 11.9433C9.96655 11.5151 9.39431 11.2772 8.77438 11.2772C8.15445 11.2772 7.58221 11.5151 7.15302 11.9433C6.29466 12.7997 6.29466 14.2745 7.15302 15.1309C7.58221 15.5591 8.15445 15.797 8.77438 15.797C9.20356 15.797 9.63274 15.6542 10.0142 15.4164L16.595 21.9819C15.2121 24.0277 14.2107 26.3589 13.6861 28.8804H4.48256C4.24413 27.8338 3.33808 27.0725 2.24128 27.0725C1.00142 27.0725 0 28.0717 0 29.3086C0 30.5456 1.00142 31.5447 2.24128 31.5447C3.33808 31.5447 4.24413 30.7835 4.43488 29.7844H13.4954C13.3523 30.7835 13.2569 31.7826 13.2569 32.7817H9.58505C9.34662 31.7826 8.44057 31.0214 7.39146 31.0214C6.1516 31.0214 5.15018 32.0205 5.15018 33.2575C5.15018 34.4944 6.1516 35.4935 7.39146 35.4935C8.48826 35.4935 9.39431 34.7323 9.58505 33.7332H13.2569C13.3046 34.8275 13.4 35.8742 13.6384 36.9208H4.48256C4.24413 35.9217 3.33808 35.1605 2.24128 35.1605C1.00142 35.1605 0 36.1596 0 37.3966C0 38.6336 1.00142 39.6327 2.24128 39.6327C3.33808 39.6327 4.24413 38.8715 4.43488 37.8724H13.8292C16.0228 46.5313 23.8911 52.9541 33.2377 52.9541C42.7751 52.9541 50.7865 46.2458 52.7416 37.3015V37.8724H62.5174C62.7559 38.8715 63.6619 39.6327 64.711 39.6327C65.9509 39.6327 66.9523 38.6336 66.9523 37.3966C67 36.1596 65.9509 35.1605 64.711 35.1605ZM64.711 28.0241C65.4263 28.0241 65.9986 28.595 65.9986 29.3086C65.9986 30.0223 65.4263 30.5932 64.711 30.5932C63.9957 30.5932 63.4235 30.0223 63.4235 29.3086C63.4235 28.595 63.9957 28.0241 64.711 28.0241ZM56.652 12.5142C56.8904 12.2763 57.2242 12.1336 57.558 12.1336C57.8918 12.1336 58.2256 12.2763 58.4641 12.5142C58.9886 13.0375 58.9886 13.8463 58.4641 14.3697C57.9395 14.893 57.1288 14.893 56.6043 14.3697C56.1274 13.8463 56.1274 13.0375 56.652 12.5142ZM50.0712 13.1803C50.3096 12.9424 50.6434 12.7997 50.9772 12.7997C51.311 12.7997 51.6448 12.9424 51.8833 13.1803C52.4078 13.7036 52.4078 14.5124 51.8833 15.0357C51.4064 15.5115 50.548 15.5115 50.0235 15.0357C49.5943 14.5124 49.5943 13.7036 50.0712 13.1803ZM50.9295 6.80504C51.168 6.56716 51.5018 6.42443 51.8356 6.42443C52.1694 6.42443 52.5032 6.56716 52.7416 6.80504C53.2662 7.32838 53.2662 8.13718 52.7416 8.66052C52.2171 9.18386 51.4064 9.18386 50.8818 8.66052C50.405 8.13718 50.405 7.28081 50.9295 6.80504ZM36.242 2.19014C36.242 1.4765 36.8142 0.905581 37.5295 0.905581C38.2448 0.905581 38.8171 1.4765 38.8171 2.19014C38.8171 2.90379 38.2448 3.4747 37.5295 3.4747C36.8142 3.52228 36.242 2.90379 36.242 2.19014ZM28.1352 2.19014C28.1352 1.4765 28.7075 0.905581 29.4228 0.905581C30.1381 0.905581 30.7103 1.4765 30.7103 2.19014C30.7103 2.90379 30.1381 3.4747 29.4228 3.4747C28.7075 3.52228 28.1352 2.90379 28.1352 2.19014ZM13.5907 8.70809C13.0662 8.18476 13.0662 7.37596 13.5907 6.85262C14.1153 6.32928 14.926 6.32928 15.4505 6.85262C15.9751 7.37596 15.9751 8.18476 15.4505 8.70809C14.926 9.23143 14.1153 9.23143 13.5907 8.70809ZM14.4491 15.1309C13.9246 14.6076 13.9246 13.7988 14.4491 13.2754C14.6875 13.0375 15.0214 12.8948 15.3552 12.8948C15.689 12.8948 16.0228 13.0375 16.2612 13.2754C16.7858 13.7988 16.7858 14.6076 16.2612 15.1309C15.7843 15.6067 14.926 15.6067 14.4491 15.1309ZM7.86833 14.4173C7.34377 13.8939 7.34377 13.0851 7.86833 12.5618C8.34519 12.086 9.20356 12.086 9.72811 12.5618C10.2527 13.0851 10.2527 13.8939 9.72811 14.4173C9.25124 14.9406 8.39288 14.9406 7.86833 14.4173ZM2.24128 30.6408C1.52598 30.6408 0.953737 30.0699 0.953737 29.3562C0.953737 28.595 1.52598 28.0241 2.24128 28.0241C2.95658 28.0241 3.52883 28.595 3.52883 29.3086C3.57651 30.0223 2.95658 30.6408 2.24128 30.6408ZM7.39146 34.5896C6.67616 34.5896 6.10391 34.0187 6.10391 33.305C6.10391 32.5914 6.67616 32.0205 7.39146 32.0205C8.10676 32.0205 8.679 32.5914 8.679 33.305C8.679 33.9711 8.10676 34.5896 7.39146 34.5896ZM2.24128 38.7287C1.52598 38.7287 0.953737 38.1578 0.953737 37.4442C0.953737 36.683 1.52598 36.112 2.24128 36.112C2.95658 36.112 3.52883 36.683 3.52883 37.3966C3.57651 38.1102 2.95658 38.7287 2.24128 38.7287ZM32.284 7.32838C32.284 6.61474 32.8562 6.04382 33.5715 6.04382C34.2868 6.04382 34.8591 6.61474 34.8591 7.32838C34.8591 8.04203 34.2868 8.61294 33.5715 8.61294C32.8562 8.61294 32.284 8.04203 32.284 7.32838ZM33.2377 52.0025C22.7466 52.0025 14.2107 43.4864 14.2107 33.0196C14.2107 22.5528 22.7466 14.0366 33.2377 14.0366C43.7288 14.0366 52.2648 22.5528 52.2648 33.0196C52.2648 43.4864 43.7288 52.0025 33.2377 52.0025ZM64.711 38.7287C63.9957 38.7287 63.4235 38.1578 63.4235 37.4442C63.4235 36.7305 63.9957 36.1596 64.711 36.1596C65.4263 36.1596 65.9986 36.7305 65.9986 37.4442C66.0463 38.1102 65.4263 38.7287 64.711 38.7287Z" fill="#EAEAEA"/>
<path d="M57.4144 32.7818H53.2656V33.7333H57.4144C57.6528 34.7324 58.5589 35.4937 59.608 35.4937C60.8478 35.4937 61.8493 34.4946 61.8493 33.2576C61.8493 32.0206 60.8478 31.0215 59.608 31.0215C58.5112 31.0215 57.6051 31.7827 57.4144 32.7818ZM60.8955 33.2576C60.8955 33.9712 60.3233 34.5421 59.608 34.5421C58.8927 34.5421 58.3204 33.9712 58.3204 33.2576C58.3204 32.5439 58.8927 31.973 59.608 31.973C60.3233 31.973 60.8955 32.5439 60.8955 33.2576Z" fill="#EAEAEA"/>
<path d="M47.02 33.7339C46.9723 34.5427 46.877 35.3039 46.6862 36.0651H40.3439V36.8263H46.4955C44.8264 42.5831 39.5332 46.7698 33.2385 46.7698C26.9439 46.7698 21.6506 42.5831 19.9816 36.8263H26.1332V36.0651H19.7908C19.6001 35.3039 19.5047 34.5427 19.457 33.7339H26.1332V32.9727L30.5204 35.6845L33.2862 40.0615L36.052 35.6845L40.4392 32.9727V33.7339H47.02Z" fill="#EAEAEA"/>
<path d="M30.4715 30.2604L26.0844 32.9722H19.4082C19.4082 32.1634 19.4559 31.4022 19.5989 30.641H26.0844V29.9273H19.7897C21.1726 23.79 26.6566 19.2227 33.2374 19.2227C39.8182 19.2227 45.2545 23.79 46.6851 29.9273H40.3427V30.6885H46.8281C46.9712 31.4498 47.0189 32.211 47.0189 33.0198H40.3427L35.9555 30.3079L33.1897 25.9309L30.4715 30.2604Z" fill="#EAEAEA"/>
<path d="M43.0127 30.6878C42.9173 30.4024 42.8696 30.1645 42.7743 29.9266C41.4867 25.8826 37.7195 22.9805 33.2369 22.9805C28.7543 22.9805 24.9871 25.8826 23.6995 29.9266C23.6042 30.1645 23.5565 30.4024 23.5088 30.6878C23.318 31.449 23.2227 32.2103 23.2227 33.0191C23.2227 33.2569 23.2227 33.4948 23.2703 33.7803C23.318 34.5891 23.4611 35.3503 23.7472 36.1115C23.8426 36.3494 23.938 36.6349 24.0333 36.8727C25.5593 40.4885 29.1358 43.0577 33.3323 43.0577C37.5287 43.0577 41.1052 40.4885 42.5835 36.8727C42.6789 36.6349 42.7743 36.397 42.8696 36.1115C43.1081 35.3503 43.2511 34.5891 43.2988 33.7803C43.3465 33.5424 43.3465 33.3045 43.3465 33.0191C43.2511 32.2103 43.1558 31.4015 43.0127 30.6878ZM33.2369 40.1079L30.4711 35.7309L26.0839 33.0191L30.4711 30.3072L33.2369 25.9302L36.0027 30.3072L40.3899 33.0191L36.0027 35.7309L33.2369 40.1079Z" fill="#A1A1A1"/>
<path d="M37.6725 33.0194L33.2376 30.6406L28.8027 33.0194L33.2376 35.3507L37.6725 33.0194Z" fill="#EAEAEA"/>
</svg>
