<svg width="80" height="46" viewBox="0 0 80 46" fill="none" xmlns="http://www.w3.org/2000/svg">
<path d="M58.125 4.71289H21.8743C21.6355 4.71289 21.4922 4.90142 21.4922 5.08994V40.8625C21.4922 41.051 21.6832 41.2395 21.8743 41.2395H58.125C58.3161 41.2395 58.5071 41.051 58.5071 40.8625V5.08994C58.5071 4.90142 58.3161 4.71289 58.125 4.71289ZM47.2832 32.3789H32.7161C31.4743 32.3789 30.5191 31.3891 30.5191 30.2108V15.7887C30.5191 14.5633 31.522 13.6207 32.7161 13.6207H47.2832C48.525 13.6207 49.4802 14.6104 49.4802 15.7887V30.2108C49.528 31.3891 48.525 32.3789 47.2832 32.3789Z" fill="#A1A1A1"/>
<path d="M60.5616 0H19.4869C17.9586 0 16.7168 1.22541 16.7168 2.73361V43.2664C16.7168 44.7746 17.9586 46 19.4869 46H60.5616C62.0899 46 63.3317 44.7746 63.3317 43.2664V2.73361C63.284 1.22541 62.0899 0 60.5616 0ZM59.4631 40.8627C59.4631 41.5697 58.8422 42.1824 58.1258 42.1824H21.875C21.1586 42.1824 20.5377 41.5697 20.5377 40.8627V5.09016C20.5377 4.3832 21.1586 3.77049 21.875 3.77049H58.1258C58.8422 3.77049 59.4631 4.3832 59.4631 5.09016V40.8627Z" fill="#A1A1A1"/>
<path d="M77.5642 31.0122C77.0866 31.0122 76.6567 31.1536 76.2746 31.3893L69.6358 24.8381H54.8776V22.2458H69.6358L76.2746 15.6946C76.6567 15.9303 77.0866 16.0717 77.5642 16.0717C78.9015 16.0717 79.9522 15.0348 79.9522 13.7151C79.9522 12.3954 78.8537 11.3585 77.5642 11.3585C76.2269 11.3585 75.1761 12.4426 75.1761 13.7151C75.1761 14.2335 75.3194 14.6577 75.606 15.0819L69.2537 21.2561H54.8776V18.5696H64.8119L67.8209 15.6003C68.203 15.836 68.6328 15.9774 69.0627 15.9774C70.4 15.9774 71.4507 14.9405 71.4507 13.6208C71.4507 12.3012 70.3522 11.2643 69.0627 11.2643C67.7731 11.2643 66.6746 12.3483 66.6746 13.6208C66.6746 14.1393 66.8179 14.6106 67.1045 14.9876L64.4298 17.627H54.8776V15.129H58.9373L66.3881 7.87084H72.7403C72.9791 8.95485 73.9343 9.75608 75.0806 9.75608C76.4179 9.75608 77.4687 8.67207 77.4687 7.39953C77.4687 6.07985 76.3701 5.04297 75.0806 5.04297C73.9343 5.04297 72.9313 5.8442 72.7403 6.92821H66.006L58.603 14.2807H54.9254V14.045C54.9254 10.8872 52.3463 8.34215 49.1463 8.34215H30.9015C27.7015 8.34215 25.1224 10.8872 25.1224 14.045V14.2807H21.4448L13.994 6.92821H7.30746C7.06866 5.8442 6.11343 5.04297 4.96716 5.04297C3.62985 5.04297 2.5791 6.12699 2.5791 7.39953C2.5791 8.7192 3.67761 9.75608 4.96716 9.75608C6.11343 9.75608 7.11642 8.95485 7.30746 7.87084H13.6119L21.0627 15.2233H25.1701V17.7212H15.6179L12.8955 15.0348C13.1821 14.6577 13.3254 14.1864 13.3254 13.668C13.3254 12.3483 12.2269 11.3114 10.9373 11.3114C9.6 11.3114 8.54925 12.3954 8.54925 13.668C8.54925 14.9405 9.64776 16.0245 10.9373 16.0245C11.4149 16.0245 11.8448 15.8831 12.1791 15.6475L15.1881 18.6167H25.1224V21.3032H10.7463L4.39403 14.9876C4.63284 14.6106 4.82388 14.1393 4.82388 13.668C4.82388 12.3483 3.72537 11.3114 2.43582 11.3114C1.09851 11.3114 0.0477612 12.3954 0.0477612 13.668C0.0477612 14.9405 1.14627 16.0245 2.43582 16.0245C2.91343 16.0245 3.34328 15.8831 3.72537 15.6475L10.3642 22.1987H25.1701V24.7909H10.3642L3.67761 31.3893C3.29552 31.1536 2.86567 31.0122 2.38806 31.0122C1.05075 31.0122 0 32.0962 0 33.3688C0 34.6885 1.09851 35.7253 2.38806 35.7253C3.72537 35.7253 4.77612 34.6413 4.77612 33.3688C4.77612 32.8503 4.63284 32.379 4.34627 32.002L10.6985 25.7335H25.0746V28.42H15.1881L12.1791 31.3421C11.797 31.1065 11.3672 30.9651 10.9373 30.9651C9.6 30.9651 8.54925 32.0491 8.54925 33.3217C8.54925 34.6413 9.64776 35.6782 10.9373 35.6782C12.2746 35.6782 13.3254 34.5942 13.3254 33.3217C13.3254 32.8032 13.1821 32.3319 12.8955 31.9549L15.5701 29.3155H25.1224V31.7663H21.0149L13.6119 39.2131H7.30746C7.06866 38.129 6.11343 37.3278 4.96716 37.3278C3.62985 37.3278 2.5791 38.4118 2.5791 39.6844C2.5791 41.004 3.67761 42.0409 4.96716 42.0409C6.11343 42.0409 7.11642 41.2397 7.30746 40.1557H14.0418L21.4925 32.8032H25.2657C25.6955 35.584 28.0836 37.6577 30.997 37.6577H49.194C52.1075 37.6577 54.4955 35.5368 54.9254 32.8032H58.6507L66.0537 40.1557H72.7881C73.0269 41.2397 73.9821 42.0409 75.1284 42.0409C76.4657 42.0409 77.5164 40.9569 77.5164 39.6844C77.5164 38.3647 76.4179 37.3278 75.1284 37.3278C73.9821 37.3278 72.9791 38.129 72.7881 39.2131H66.3881L58.9373 31.8606H54.8776V29.4098H64.4298L67.1045 32.0491C66.8179 32.4262 66.6746 32.8975 66.6746 33.4159C66.6746 34.7356 67.7731 35.7725 69.0627 35.7725C70.3522 35.7725 71.4507 34.6885 71.4507 33.4159C71.4507 32.0962 70.3522 31.0594 69.0627 31.0594C68.5851 31.0594 68.1552 31.2008 67.8209 31.4364L64.8119 28.5143H54.8776V25.8278H69.2537L75.606 32.0491C75.3194 32.4262 75.1761 32.8975 75.1761 33.4159C75.1761 34.7356 76.2746 35.7725 77.5642 35.7725C78.9015 35.7725 79.9522 34.6885 79.9522 33.4159C80 32.0962 78.9015 31.0122 77.5642 31.0122ZM77.5642 12.2069C78.3761 12.2069 78.997 12.8667 78.997 13.6208C78.997 14.3749 78.3284 15.0348 77.5642 15.0348C76.7522 15.0348 76.1313 14.3749 76.1313 13.6208C76.1313 12.8667 76.8 12.2069 77.5642 12.2069ZM69.0627 12.2069C69.8746 12.2069 70.4955 12.8667 70.4955 13.6208C70.4955 14.3749 69.8269 15.0348 69.0627 15.0348C68.2507 15.0348 67.6299 14.3749 67.6299 13.6208C67.6299 12.8667 68.2507 12.2069 69.0627 12.2069ZM75.0806 5.98559C75.8925 5.98559 76.5134 6.64543 76.5134 7.39953C76.5134 8.15362 75.8448 8.81346 75.0806 8.81346C74.2687 8.81346 73.6478 8.15362 73.6478 7.39953C73.6478 6.64543 74.2687 5.98559 75.0806 5.98559ZM4.9194 8.81346C4.10746 8.81346 3.48657 8.15362 3.48657 7.39953C3.48657 6.64543 4.15522 5.98559 4.9194 5.98559C5.68358 5.98559 6.35224 6.64543 6.35224 7.39953C6.35224 8.15362 5.73134 8.81346 4.9194 8.81346ZM10.9373 15.0819C10.1254 15.0819 9.50448 14.4221 9.50448 13.668C9.50448 12.9139 10.1731 12.254 10.9373 12.254C11.7493 12.254 12.3701 12.9139 12.3701 13.668C12.3701 14.4221 11.7493 15.0819 10.9373 15.0819ZM2.38806 15.0819C1.57612 15.0819 0.955224 14.4221 0.955224 13.668C0.955224 12.9139 1.62388 12.254 2.38806 12.254C3.2 12.254 3.8209 12.9139 3.8209 13.668C3.8209 14.4221 3.2 15.0819 2.38806 15.0819ZM2.38806 34.8299C1.57612 34.8299 0.955224 34.17 0.955224 33.4159C0.955224 32.6618 1.62388 32.002 2.38806 32.002C3.2 32.002 3.8209 32.6618 3.8209 33.4159C3.8209 34.17 3.2 34.8299 2.38806 34.8299ZM10.9373 34.8299C10.1254 34.8299 9.50448 34.17 9.50448 33.4159C9.50448 32.6618 10.1731 32.002 10.9373 32.002C11.7493 32.002 12.3701 32.6618 12.3701 33.4159C12.3701 34.17 11.7493 34.8299 10.9373 34.8299ZM4.9194 41.0983C4.10746 41.0983 3.48657 40.4385 3.48657 39.6844C3.48657 38.8831 4.15522 38.2704 4.9194 38.2704C5.68358 38.2704 6.35224 38.9303 6.35224 39.6844C6.35224 40.4385 5.73134 41.0983 4.9194 41.0983ZM49.5284 30.211C49.5284 31.4364 48.5254 32.379 47.3313 32.379H32.7164C31.4746 32.379 30.5194 31.3893 30.5194 30.211V15.7889C30.5194 14.5635 31.5224 13.6208 32.7164 13.6208H47.2836C48.5254 13.6208 49.4806 14.6106 49.4806 15.7889V30.211H49.5284ZM75.0806 38.2233C75.8925 38.2233 76.5134 38.8831 76.5134 39.6372C76.5134 40.4385 75.8448 41.0512 75.0806 41.0512C74.2687 41.0512 73.6478 40.3913 73.6478 39.6372C73.6 38.8831 74.2687 38.2233 75.0806 38.2233ZM69.0627 31.9549C69.8746 31.9549 70.4955 32.6147 70.4955 33.3688C70.4955 34.1229 69.8269 34.7827 69.0627 34.7827C68.2507 34.7827 67.6299 34.1229 67.6299 33.3688C67.6299 32.6147 68.2507 31.9549 69.0627 31.9549ZM77.5642 34.8299C76.7522 34.8299 76.1313 34.17 76.1313 33.4159C76.1313 32.6618 76.8 32.002 77.5642 32.002C78.3761 32.002 78.997 32.6618 78.997 33.4159C78.997 34.17 78.3761 34.8299 77.5642 34.8299Z" fill="#EAEAEA"/>
<path d="M40.0246 21.0684C38.9739 21.0684 38.0664 21.9167 38.0664 23.0007C38.0664 24.0848 38.9261 24.9331 40.0246 24.9331C41.1231 24.9331 41.9828 24.0848 41.9828 23.0007C41.9828 21.9167 41.0754 21.0684 40.0246 21.0684Z" fill="#EAEAEA"/>
<path d="M35.5352 18.5703V27.3838H44.4665V18.5703H35.5352ZM40.0247 25.8285C38.4486 25.8285 37.1113 24.556 37.1113 22.9535C37.1113 21.3982 38.4008 20.0785 40.0247 20.0785C41.6008 20.0785 42.9381 21.351 42.9381 22.9535C42.8904 24.556 41.6008 25.8285 40.0247 25.8285Z" fill="#EAEAEA"/>
</svg>
