<svg width="44" height="64" viewBox="0 0 44 64" fill="none" xmlns="http://www.w3.org/2000/svg">
<path d="M25.8474 3.20562L21.9732 0L18.099 3.20562C11.9002 8.32337 8.30273 15.9719 8.30273 24.0703V40.717H35.699V24.0703C35.6436 15.9719 32.0461 8.26713 25.8474 3.20562ZM21.9178 37.1177C20.4235 37.1177 19.2612 35.8805 19.2612 34.4183C19.2612 32.8998 20.4788 31.7188 21.9178 31.7188C23.4122 31.7188 24.5744 32.9561 24.5744 34.4183C24.6298 35.8805 23.4122 37.1177 21.9178 37.1177ZM21.9178 28.9631C18.9845 28.9631 16.5493 26.5448 16.5493 23.5079C16.5493 20.471 18.9291 18.0527 21.9178 18.0527C24.8512 18.0527 27.2864 20.471 27.2864 23.5079C27.2864 26.5448 24.9065 28.9631 21.9178 28.9631Z" fill="#A1A1A1"/>
<path d="M24.8507 12.8796L21.9727 10.5176L19.0947 12.8796C14.501 16.6476 11.7891 22.384 11.7891 28.4016V40.7742H32.101V28.4016C32.101 22.3278 29.4444 16.6476 24.8507 12.8796ZM21.9174 37.1186C20.423 37.1186 19.2608 35.8814 19.2608 34.4192C19.2608 32.9007 20.4784 31.7197 21.9174 31.7197C23.4117 31.7197 24.574 32.9569 24.574 34.4192C24.6293 35.8814 23.4117 37.1186 21.9174 37.1186ZM21.9174 28.964C18.984 28.964 16.5488 26.5457 16.5488 23.5088C16.5488 20.4719 18.9287 18.0536 21.9174 18.0536C24.8507 18.0536 27.2859 20.4719 27.2859 23.5088C27.2859 26.5457 24.906 28.964 21.9174 28.964Z" fill="#EAEAEA"/>
<path d="M35.8648 44.6538H8.30252C6.4761 44.6538 5.03711 43.1916 5.03711 41.3357C5.03711 39.4798 6.4761 38.0176 8.30252 38.0176H35.8648C37.6912 38.0176 39.1302 39.4798 39.1302 41.3357C39.1302 43.1353 37.6912 44.6538 35.8648 44.6538Z" fill="#EAEAEA"/>
<path d="M10.4057 57.0832L9.63086 56.2958L13.6711 52.1904V43.0234H14.778V52.6965L10.4057 57.0832Z" fill="#EAEAEA"/>
<path d="M18.7065 43.0234H17.5996V59.6702H18.7065V43.0234Z" fill="#EAEAEA"/>
<path d="M32.765 60.8512L22.9688 50.8407V43.0234H24.0757V50.3907L33.5398 60.0639L32.765 60.8512Z" fill="#EAEAEA"/>
<path d="M31.5464 43.8672H30.4395V49.8848H31.5464V43.8672Z" fill="#EAEAEA"/>
<path d="M18.154 63.9998C16.8257 63.9998 15.7188 62.875 15.7188 61.5253C15.7188 60.1756 16.8257 59.0508 18.154 59.0508C19.4823 59.0508 20.5892 60.1756 20.5892 61.5253C20.5892 62.9313 19.4823 63.9998 18.154 63.9998ZM18.154 60.2318C17.4345 60.2318 16.8257 60.8504 16.8257 61.5815C16.8257 62.3126 17.4345 62.9313 18.154 62.9313C18.8735 62.9313 19.4823 62.3126 19.4823 61.5815C19.4823 60.8504 18.8735 60.2318 18.154 60.2318Z" fill="#EAEAEA"/>
<path d="M30.9938 53.8201C29.6655 53.8201 28.5586 52.6953 28.5586 51.3456C28.5586 49.9959 29.6655 48.8711 30.9938 48.8711C32.3221 48.8711 33.429 49.9959 33.429 51.3456C33.429 52.6953 32.3221 53.8201 30.9938 53.8201ZM30.9938 49.9959C30.2743 49.9959 29.6655 50.6145 29.6655 51.3456C29.6655 52.0767 30.2743 52.6953 30.9938 52.6953C31.7133 52.6953 32.3221 52.0767 32.3221 51.3456C32.3221 50.6145 31.7133 49.9959 30.9938 49.9959Z" fill="#EAEAEA"/>
<path d="M8.90983 60.5135C7.58153 60.5135 6.47461 59.3887 6.47461 58.039C6.47461 56.6892 7.58153 55.5645 8.90983 55.5645C10.2381 55.5645 11.345 56.6892 11.345 58.039C11.345 59.3887 10.2381 60.5135 8.90983 60.5135ZM8.90983 56.7455C8.19033 56.7455 7.58153 57.3641 7.58153 58.0952C7.58153 58.8263 8.19033 59.4449 8.90983 59.4449C9.62933 59.4449 10.2381 58.8263 10.2381 58.0952C10.2381 57.3079 9.62933 56.7455 8.90983 56.7455Z" fill="#EAEAEA"/>
<path d="M34.2594 63.9998C32.9311 63.9998 31.8242 62.875 31.8242 61.5253C31.8242 60.1756 32.9311 59.0508 34.2594 59.0508C35.5877 59.0508 36.6947 60.1756 36.6947 61.5253C36.6947 62.9313 35.5877 63.9998 34.2594 63.9998ZM34.2594 60.2318C33.5399 60.2318 32.9311 60.8504 32.9311 61.5815C32.9311 62.3126 33.5399 62.9313 34.2594 62.9313C34.9789 62.9313 35.5877 62.3126 35.5877 61.5815C35.5877 60.8504 34.9789 60.2318 34.2594 60.2318Z" fill="#EAEAEA"/>
<path d="M6.08805 27.8379V36.6674H0C0 36.6674 0 27.8379 6.08805 27.8379Z" fill="#A1A1A1"/>
<path d="M37.9121 27.8379V36.6674H44.0002C44.0002 36.6674 43.9448 27.8379 37.9121 27.8379Z" fill="#A1A1A1"/>
</svg>
